<svg xmlns="http://www.w3.org/2000/svg" xmlns:xlink="http://www.w3.org/1999/xlink" width="110" height="110" viewBox="0 0 110 110">
  <defs>
    <filter id="Trazado_982547" x="0" y="0" width="110" height="110" filterUnits="userSpaceOnUse">
      <feOffset dy="3" input="SourceAlpha"/>
      <feGaussianBlur stdDeviation="3" result="blur"/>
      <feFlood flood-opacity="0.161"/>
      <feComposite operator="in" in2="blur"/>
      <feComposite in="SourceGraphic"/>
    </filter>
  </defs>
  <g id="Grupo_1183364" data-name="Grupo 1183364" transform="translate(-798 -2371.688)">
    <g id="Grupo_1182357" data-name="Grupo 1182357" transform="translate(1 -1850.312)">
      <g id="Grupo_1171898" data-name="Grupo 1171898" transform="translate(806 4228)">
        <g id="Grupo_1164700" data-name="Grupo 1164700" transform="translate(0 0)">
          <g id="Grupo_1160931" data-name="Grupo 1160931" transform="translate(0 0)">
            <g id="Grupo_1160749" data-name="Grupo 1160749" transform="translate(0 0)">
              <g id="Grupo_1158891" data-name="Grupo 1158891" transform="translate(0 0)">
                <g id="Grupo_1157406" data-name="Grupo 1157406" transform="translate(0 0)">
                  <g id="Grupo_1155793" data-name="Grupo 1155793">
                    <g id="Grupo_1154704" data-name="Grupo 1154704">
                      <g id="Grupo_1150790" data-name="Grupo 1150790">
                        <g id="Grupo_1154214" data-name="Grupo 1154214">
                          <g id="Grupo_1152583" data-name="Grupo 1152583">
                            <g id="Grupo_1146973" data-name="Grupo 1146973">
                              <g id="Grupo_1146954" data-name="Grupo 1146954">
                                <g transform="matrix(1, 0, 0, 1, -9, -6)" filter="url(#Trazado_982547)">
                                  <g id="Trazado_982547-2" data-name="Trazado 982547" transform="translate(9 6)" fill="#f2f7f5">
                                    <path d="M 46.00000762939453 90.49987030029297 C 39.99188613891602 90.49987030029297 34.16427612304688 89.32350921630859 28.67906188964844 87.00345611572266 C 23.38020706176758 84.76224517822266 18.62104797363281 81.55341339111328 14.53375434875488 77.46613311767578 C 10.44647407531738 73.37885284423828 7.237647533416748 68.61969757080078 4.996420860290527 63.32085418701172 C 2.676367521286011 57.83565521240234 1.500007629394531 52.008056640625 1.500007629394531 45.99993515014648 C 1.500007629394531 39.99181365966797 2.676367521286011 34.16421508789062 4.996420860290527 28.67901420593262 C 7.237647533416748 23.38017463684082 10.44647407531738 18.62101554870605 14.53375434875488 14.53373527526855 C 18.62104797363281 10.44645500183105 23.38020706176758 7.23762845993042 28.67906188964844 4.996415138244629 C 34.16427612304688 2.676361799240112 39.99188613891602 1.500001788139343 46.00000762939453 1.500001788139343 C 52.00812911987305 1.500001788139343 57.83573913574219 2.676361799240112 63.32095336914062 4.996415138244629 C 68.61980438232422 7.23762845993042 73.37896728515625 10.44645500183105 77.46626281738281 14.53373527526855 C 81.55354309082031 18.62101554870605 84.76236724853516 23.38017463684082 87.00359344482422 28.67901420593262 C 89.32364654541016 34.16421508789062 90.50000762939453 39.99181365966797 90.50000762939453 45.99993515014648 C 90.50000762939453 52.008056640625 89.32364654541016 57.83565521240234 87.00359344482422 63.32085418701172 C 84.76236724853516 68.61969757080078 81.55354309082031 73.37885284423828 77.46626281738281 77.46613311767578 C 73.37896728515625 81.55341339111328 68.61980438232422 84.76224517822266 63.32095336914062 87.00345611572266 C 57.83573913574219 89.32350921630859 52.00812911987305 90.49987030029297 46.00000762939453 90.49987030029297 Z" stroke="none"/>
                                    <path d="M 46.00000762939453 2.999992370605469 C 40.19372177124023 2.999992370605469 34.56270599365234 4.136489868164062 29.26339340209961 6.377906799316406 C 24.14333343505859 8.543502807617188 19.54443359375 11.64437866210938 15.59442138671875 15.59437561035156 C 11.6444091796875 19.54439544677734 8.543533325195312 24.14329528808594 6.377937316894531 29.26333618164062 C 4.136505126953125 34.56264877319336 3.000007629394531 40.19366455078125 3.000007629394531 45.99993515014648 C 3.000007629394531 51.80620574951172 4.136505126953125 57.43720626831055 6.377937316894531 62.73651885986328 C 8.543533325195312 67.8565673828125 11.6444091796875 72.45545959472656 15.59442138671875 76.40547943115234 C 19.54443359375 80.35547637939453 24.14333343505859 83.45635223388672 29.26339340209961 85.6219482421875 C 34.56270599365234 87.86336517333984 40.19372177124023 88.99986267089844 46.00000762939453 88.99986267089844 C 51.80629348754883 88.99986267089844 57.43730926513672 87.86336517333984 62.73663711547852 85.6219482421875 C 67.85668182373047 83.45635223388672 72.45559692382812 80.35547637939453 76.40560913085938 76.40547943115234 C 80.35560607910156 72.45545959472656 83.45649719238281 67.8565673828125 85.62209320068359 62.73651885986328 C 87.86351013183594 57.43720626831055 89.00000762939453 51.80620574951172 89.00000762939453 45.99993515014648 C 89.00000762939453 40.19366455078125 87.86351013183594 34.56264877319336 85.62209320068359 29.26333618164062 C 83.45649719238281 24.14329528808594 80.35560607910156 19.54439544677734 76.40560913085938 15.59437561035156 C 72.45559692382812 11.64437866210938 67.85668182373047 8.543502807617188 62.73663711547852 6.377906799316406 C 57.43730926513672 4.136489868164062 51.80629348754883 2.999992370605469 46.00000762939453 2.999992370605469 M 46.00000762939453 -7.62939453125e-06 C 71.40510559082031 -7.62939453125e-06 92.00000762939453 20.59486389160156 92.00000762939453 45.99993515014648 C 92.00000762939453 71.40499114990234 71.40510559082031 91.99986267089844 46.00000762939453 91.99986267089844 C 20.59492492675781 91.99986267089844 7.62939453125e-06 71.40499114990234 7.62939453125e-06 45.99993515014648 C 7.62939453125e-06 20.59486389160156 20.59492492675781 -7.62939453125e-06 46.00000762939453 -7.62939453125e-06 Z" stroke="none" fill="#4a665c"/>
                                  </g>
                                </g>
                              </g>
                            </g>
                          </g>
                        </g>
                      </g>
                    </g>
                  </g>
                </g>
              </g>
            </g>
          </g>
        </g>
      </g>
    </g>
    <g id="propuesta-de-valor" transform="translate(823.229 2394.877)">
      <g id="Grupo_1183362" data-name="Grupo 1183362" transform="translate(0.834 0.85)">
        <path id="Trazado_1044772" data-name="Trazado 1044772" d="M295.789,231.087l-2.187-1.325-1.779.413-1.687-.293-.364.293-1.875,6.466a1.321,1.321,0,0,0,.9,1.637l4.443,1.288a1.322,1.322,0,0,0,1.637-.9l1.577-5.439.242-.916Z" transform="translate(-256.665 -205.044)" fill="#ce7bbc"/>
        <path id="Trazado_1044773" data-name="Trazado 1044773" d="M370.831,236.642l-1.875-6.466-.491-.274-1.432.153-1.6-.292-1.974,1.529-1.043.111-.52.531,1.952,6.733a1.321,1.321,0,0,0,1.637.9l4.443-1.288A1.321,1.321,0,0,0,370.831,236.642Z" transform="translate(-322.483 -205.044)" fill="#d693c8"/>
        <path id="Trazado_1044774" data-name="Trazado 1044774" d="M150.348,317.416c-1.434-3-4.736-1.58-5.013-1.476l-13.856,4.1a.092.092,0,0,1-.116-.11,3.107,3.107,0,0,0-1.991-3.821c-8.053-3.215-9.014-3.759-11.052-3.791h0c-4.434.015-6.313.045-8.128.549l-1.883,1.326-1.55,2.743-.371,7.007,3.8,3.707,1.247.547a11.976,11.976,0,0,1,7.039.311l5.2,2.075a8.308,8.308,0,0,0,6.454-.387h0l5.431-2.4,3.56-1.575,9.152-4.048C148.824,321.887,151.586,320.23,150.348,317.416Z" transform="translate(-95.39 -278.418)" fill="#ffcebe"/>
        <g id="Grupo_1183361" data-name="Grupo 1183361" transform="translate(0 34.449)">
          <path id="Trazado_1044775" data-name="Trazado 1044775" d="M19.215,324.422a9.833,9.833,0,0,1,3.085-7.164,17.234,17.234,0,0,0-2.445.925,27.922,27.922,0,0,0-4.651,2.646,10.126,10.126,0,0,1-3.135,1.487l-3.825,1.051a1.014,1.014,0,0,0-.745.978v12.724a1.014,1.014,0,0,0,1.374.948l13.3-5.048c.457-.149.917-.274,1.378-.38A9.851,9.851,0,0,1,19.215,324.422Z" transform="translate(-7.498 -317.258)" fill="#ffb1a0"/>
        </g>
        <path id="Trazado_1044776" data-name="Trazado 1044776" d="M337.8,29.036a.907.907,0,0,1-.284-1.058,3.408,3.408,0,0,0-2.687-4.653.907.907,0,0,1-.775-.775,3.408,3.408,0,0,0-4.653-2.687.906.906,0,0,1-.633.016h-1.327l-2.558,1.655-1.015,1.4.453,1.024-1.7,1.311L320.7,30.056l.773,5.116,2,3.809.851.5a3.211,3.211,0,0,1,0,.722c-.054-.028,2.87,2.78,2.87,2.78l.862.612.715-.031a.905.905,0,0,1,.632.016,3.408,3.408,0,0,0,4.653-2.687.907.907,0,0,1,.775-.775,3.408,3.408,0,0,0,2.687-4.653.907.907,0,0,1,.284-1.058,3.408,3.408,0,0,0,0-5.373Z" transform="translate(-285.867 -18.267)" fill="#fff1af"/>
        <path id="Trazado_1044777" data-name="Trazado 1044777" d="M253.986,20.969a13.635,13.635,0,0,1,6.87-11.844.907.907,0,0,1-.426-.3,3.408,3.408,0,0,0-5.373,0A.907.907,0,0,1,254,9.109a3.408,3.408,0,0,0-4.653,2.687.907.907,0,0,1-.775.775,3.408,3.408,0,0,0-2.687,4.653.907.907,0,0,1-.284,1.058,3.408,3.408,0,0,0,0,5.373.907.907,0,0,1,.284,1.058,3.408,3.408,0,0,0,2.687,4.653.907.907,0,0,1,.775.775A3.408,3.408,0,0,0,254,32.829a.907.907,0,0,1,1.058.284,3.408,3.408,0,0,0,5.373,0,.907.907,0,0,1,.426-.3A13.635,13.635,0,0,1,253.986,20.969Z" transform="translate(-217.953 -7.514)" fill="#ffeb7e"/>
        <path id="Trazado_1044778" data-name="Trazado 1044778" d="M325.657,57.687a7.911,7.911,0,0,0-1.335.115l-1.7,1.311L320.7,63.9l.773,5.116,2,3.809.851.5a7.875,7.875,0,1,0,1.335-15.635Z" transform="translate(-285.867 -52.107)" fill="#ffe02f"/>
        <path id="Trazado_1044779" data-name="Trazado 1044779" d="M294.462,66.479A7.876,7.876,0,0,0,301,74.239a13.641,13.641,0,0,1,0-15.52A7.876,7.876,0,0,0,294.462,66.479Z" transform="translate(-262.547 -53.024)" fill="#fbc700"/>
      </g>
      <g id="Grupo_1183363" data-name="Grupo 1183363" transform="translate(0 0.016)">
        <path id="Trazado_1044780" data-name="Trazado 1044780" d="M238.425,17.649a.073.073,0,0,1,.024.089,4.242,4.242,0,0,0,3.344,5.792.073.073,0,0,1,.065.065,4.214,4.214,0,0,0,1.57,2.738l-1.706,5.882a2.154,2.154,0,0,0,1.47,2.671l4.443,1.288a2.158,2.158,0,0,0,2.671-1.47l.776-2.676.776,2.676a2.158,2.158,0,0,0,2.671,1.47l4.443-1.288a2.154,2.154,0,0,0,1.47-2.671l-1.706-5.882a4.214,4.214,0,0,0,1.57-2.738.073.073,0,0,1,.065-.065,4.242,4.242,0,0,0,3.344-5.792.073.073,0,0,1,.024-.089,4.242,4.242,0,0,0,0-6.688.073.073,0,0,1-.024-.089,4.242,4.242,0,0,0-3.344-5.792.073.073,0,0,1-.065-.065,4.242,4.242,0,0,0-5.792-3.344.073.073,0,0,1-.089-.024,4.242,4.242,0,0,0-6.688,0,.073.073,0,0,1-.089.024,4.242,4.242,0,0,0-5.792,3.344.073.073,0,0,1-.065.065,4.242,4.242,0,0,0-3.344,5.792.073.073,0,0,1-.024.089,4.242,4.242,0,0,0,0,6.688ZM248.7,34.239a.488.488,0,0,1-.6.333l-4.443-1.288a.488.488,0,0,1-.332-.6l1.618-5.58a4.231,4.231,0,0,0,2.707-.161.074.074,0,0,1,.089.024,4.233,4.233,0,0,0,2.311,1.5l.164.566Zm10.135-1.559a.488.488,0,0,1-.332.6l-4.443,1.288a.487.487,0,0,1-.6-.332l-1.654-5.706a4.263,4.263,0,0,0,2.62-1.571.073.073,0,0,1,.089-.024,4.238,4.238,0,0,0,2.707.161Zm-19.387-20.4A1.731,1.731,0,0,0,240,10.248a2.574,2.574,0,0,1,2.029-3.515,1.73,1.73,0,0,0,1.485-1.485,2.574,2.574,0,0,1,3.515-2.029,1.731,1.731,0,0,0,2.028-.543,2.574,2.574,0,0,1,4.059,0,1.73,1.73,0,0,0,2.028.543,2.574,2.574,0,0,1,3.515,2.029,1.73,1.73,0,0,0,1.485,1.485,2.574,2.574,0,0,1,2.029,3.515,1.731,1.731,0,0,0,.543,2.028,2.574,2.574,0,0,1,0,4.059,1.731,1.731,0,0,0-.543,2.028,2.574,2.574,0,0,1-2.029,3.515,1.73,1.73,0,0,0-1.485,1.485,2.574,2.574,0,0,1-3.515,2.029,1.73,1.73,0,0,0-2.028.543,2.561,2.561,0,0,1-2.313.975h0a2.586,2.586,0,0,1-1.745-.975h0a1.856,1.856,0,0,0-2.3-.449,2.561,2.561,0,0,1-1.943-.233l-.006,0-.028-.015a2.561,2.561,0,0,1-1.262-1.873,1.73,1.73,0,0,0-1.485-1.485A2.574,2.574,0,0,1,240,18.362a1.731,1.731,0,0,0-.543-2.028,2.573,2.573,0,0,1,0-4.059Z" transform="translate(-210.458 -0.016)"/>
        <path id="Trazado_1044781" data-name="Trazado 1044781" d="M337.15,108.575,334.2,111.53,332.36,109.7a.834.834,0,1,0-1.18,1.18l2.425,2.425a.834.834,0,0,0,1.18,0l3.545-3.545a.834.834,0,1,0-1.18-1.179Z" transform="translate(-294.131 -96.285)"/>
        <path id="Trazado_1044782" data-name="Trazado 1044782" d="M56.545,310.39c-1.159-2.419-3.58-2.865-6.03-1.908l-12.758,3.775a3.837,3.837,0,0,0-2.632-3.59c-8.065-3.22-9.129-3.812-11.329-3.85h-.035c-6.321.021-7.616.072-10.911,1.547-4.454,1.993-4.877,3.323-7.667,4.09l-3.825,1.052A1.853,1.853,0,0,0,0,313.287v12.724a1.848,1.848,0,0,0,2.5,1.728l5.475-2.078a.834.834,0,1,0-.592-1.56l-5.475,2.078a.18.18,0,0,1-.244-.168V313.287a.181.181,0,0,1,.132-.174l3.825-1.052c3.112-.856,3.594-2.246,7.907-4.176,2.989-1.338,4.094-1.381,10.217-1.4h0c1.861.029,2.761.54,10.756,3.732a2.309,2.309,0,0,1,1.466,2.935l0,.008c0,.006,0,.012-.007.019a1.7,1.7,0,0,1-2.123,1.223c-2.389-.585-8.081-1.956-8.139-1.97a.834.834,0,1,0-.391,1.622c.057.014,5.746,1.384,8.132,1.968a3.273,3.273,0,0,0,3.948-1.918l13.624-4.03c.38-.112,2.91-1.267,4.018,1.024.932,2.142-1.185,3.4-1.676,3.652l-18.12,8.015-.021.01-.024.012a7.53,7.53,0,0,1-5.783.347l-5.178-2.067a13.338,13.338,0,0,0-8.985.051l-.038.013-4.182,1.588a.834.834,0,1,0,.592,1.56l4.163-1.581a11.842,11.842,0,0,1,7.831-.082l5.2,2.075.037.014a9.218,9.218,0,0,0,7.085-.423l18.123-8.017.043-.021c1.522-.78,3.752-2.887,2.457-5.831l-.011-.025Z" transform="translate(0 -270.918)"/>
        <path id="Trazado_1044783" data-name="Trazado 1044783" d="M295.672,67.6a8.7,8.7,0,0,0,8.44-6.557.834.834,0,0,0-1.617-.411,7.041,7.041,0,1,1,0-3.482.834.834,0,0,0,1.617-.411,8.71,8.71,0,1,0-8.44,10.861Z" transform="translate(-255.048 -44.606)"/>
      </g>
    </g>
  </g>
</svg>
