<svg xmlns="http://www.w3.org/2000/svg" xmlns:xlink="http://www.w3.org/1999/xlink" width="110" height="110" viewBox="0 0 110 110">
  <defs>
    <filter id="Trazado_982547" x="0" y="0" width="110" height="110" filterUnits="userSpaceOnUse">
      <feOffset dy="3" input="SourceAlpha"/>
      <feGaussianBlur stdDeviation="3" result="blur"/>
      <feFlood flood-opacity="0.161"/>
      <feComposite operator="in" in2="blur"/>
      <feComposite in="SourceGraphic"/>
    </filter>
  </defs>
  <g id="Grupo_1183365" data-name="Grupo 1183365" transform="translate(-1114 -2371.445)">
    <g id="Grupo_1182358" data-name="Grupo 1182358" transform="translate(1 -1850.312)">
      <g id="Grupo_1172349" data-name="Grupo 1172349" transform="translate(1122 4227.757)">
        <g id="Grupo_1164700" data-name="Grupo 1164700" transform="translate(0 0)">
          <g id="Grupo_1160931" data-name="Grupo 1160931" transform="translate(0 0)">
            <g id="Grupo_1160749" data-name="Grupo 1160749" transform="translate(0 0)">
              <g id="Grupo_1158891" data-name="Grupo 1158891" transform="translate(0 0)">
                <g id="Grupo_1157406" data-name="Grupo 1157406" transform="translate(0 0)">
                  <g id="Grupo_1155793" data-name="Grupo 1155793">
                    <g id="Grupo_1154704" data-name="Grupo 1154704">
                      <g id="Grupo_1150790" data-name="Grupo 1150790">
                        <g id="Grupo_1154214" data-name="Grupo 1154214">
                          <g id="Grupo_1152583" data-name="Grupo 1152583">
                            <g id="Grupo_1146973" data-name="Grupo 1146973">
                              <g id="Grupo_1146954" data-name="Grupo 1146954">
                                <g transform="matrix(1, 0, 0, 1, -9, -6)" filter="url(#Trazado_982547)">
                                  <g id="Trazado_982547-2" data-name="Trazado 982547" transform="translate(9 6)" fill="#f2f7f5">
                                    <path d="M 46.00000762939453 90.49987030029297 C 39.99188613891602 90.49987030029297 34.16427612304688 89.32350921630859 28.67906188964844 87.00345611572266 C 23.38020706176758 84.76224517822266 18.62104797363281 81.55341339111328 14.53375434875488 77.46613311767578 C 10.44647407531738 73.37885284423828 7.237647533416748 68.61969757080078 4.996420860290527 63.32085418701172 C 2.676367521286011 57.83565521240234 1.500007629394531 52.008056640625 1.500007629394531 45.99993515014648 C 1.500007629394531 39.99181365966797 2.676367521286011 34.16421508789062 4.996420860290527 28.67901420593262 C 7.237647533416748 23.38017463684082 10.44647407531738 18.62101554870605 14.53375434875488 14.53373527526855 C 18.62104797363281 10.44645500183105 23.38020706176758 7.23762845993042 28.67906188964844 4.996415138244629 C 34.16427612304688 2.676361799240112 39.99188613891602 1.500001788139343 46.00000762939453 1.500001788139343 C 52.00812911987305 1.500001788139343 57.83573913574219 2.676361799240112 63.32095336914062 4.996415138244629 C 68.61980438232422 7.23762845993042 73.37896728515625 10.44645500183105 77.46626281738281 14.53373527526855 C 81.55354309082031 18.62101554870605 84.76236724853516 23.38017463684082 87.00359344482422 28.67901420593262 C 89.32364654541016 34.16421508789062 90.50000762939453 39.99181365966797 90.50000762939453 45.99993515014648 C 90.50000762939453 52.008056640625 89.32364654541016 57.83565521240234 87.00359344482422 63.32085418701172 C 84.76236724853516 68.61969757080078 81.55354309082031 73.37885284423828 77.46626281738281 77.46613311767578 C 73.37896728515625 81.55341339111328 68.61980438232422 84.76224517822266 63.32095336914062 87.00345611572266 C 57.83573913574219 89.32350921630859 52.00812911987305 90.49987030029297 46.00000762939453 90.49987030029297 Z" stroke="none"/>
                                    <path d="M 46.00000762939453 2.999992370605469 C 40.19372177124023 2.999992370605469 34.56270599365234 4.136489868164062 29.26339340209961 6.377906799316406 C 24.14333343505859 8.543502807617188 19.54443359375 11.64437866210938 15.59442138671875 15.59437561035156 C 11.6444091796875 19.54439544677734 8.543533325195312 24.14329528808594 6.377937316894531 29.26333618164062 C 4.136505126953125 34.56264877319336 3.000007629394531 40.19366455078125 3.000007629394531 45.99993515014648 C 3.000007629394531 51.80620574951172 4.136505126953125 57.43720626831055 6.377937316894531 62.73651885986328 C 8.543533325195312 67.8565673828125 11.6444091796875 72.45545959472656 15.59442138671875 76.40547943115234 C 19.54443359375 80.35547637939453 24.14333343505859 83.45635223388672 29.26339340209961 85.6219482421875 C 34.56270599365234 87.86336517333984 40.19372177124023 88.99986267089844 46.00000762939453 88.99986267089844 C 51.80629348754883 88.99986267089844 57.43730926513672 87.86336517333984 62.73663711547852 85.6219482421875 C 67.85668182373047 83.45635223388672 72.45559692382812 80.35547637939453 76.40560913085938 76.40547943115234 C 80.35560607910156 72.45545959472656 83.45649719238281 67.8565673828125 85.62209320068359 62.73651885986328 C 87.86351013183594 57.43720626831055 89.00000762939453 51.80620574951172 89.00000762939453 45.99993515014648 C 89.00000762939453 40.19366455078125 87.86351013183594 34.56264877319336 85.62209320068359 29.26333618164062 C 83.45649719238281 24.14329528808594 80.35560607910156 19.54439544677734 76.40560913085938 15.59437561035156 C 72.45559692382812 11.64437866210938 67.85668182373047 8.543502807617188 62.73663711547852 6.377906799316406 C 57.43730926513672 4.136489868164062 51.80629348754883 2.999992370605469 46.00000762939453 2.999992370605469 M 46.00000762939453 -7.62939453125e-06 C 71.40510559082031 -7.62939453125e-06 92.00000762939453 20.59486389160156 92.00000762939453 45.99993515014648 C 92.00000762939453 71.40499114990234 71.40510559082031 91.99986267089844 46.00000762939453 91.99986267089844 C 20.59492492675781 91.99986267089844 7.62939453125e-06 71.40499114990234 7.62939453125e-06 45.99993515014648 C 7.62939453125e-06 20.59486389160156 20.59492492675781 -7.62939453125e-06 46.00000762939453 -7.62939453125e-06 Z" stroke="none" fill="#4a665c"/>
                                  </g>
                                </g>
                              </g>
                            </g>
                          </g>
                        </g>
                      </g>
                    </g>
                  </g>
                </g>
              </g>
            </g>
          </g>
        </g>
      </g>
    </g>
    <g id="revisar" transform="translate(1138.173 2388.303)">
      <path id="Trazado_1044784" data-name="Trazado 1044784" d="M72.421,403.8l-2.692-.391-6.6,3.135,3.126,7.561,2.408,1.266a1.807,1.807,0,0,0,2.621-1.9l-.661-3.855,2.8-2.73A1.807,1.807,0,0,0,72.421,403.8Z" transform="translate(-55.526 -354.824)" fill="#ffcf57"/>
      <path id="Trazado_1044785" data-name="Trazado 1044785" d="M20.8,369.182l-1.178-.171L17.891,365.5a1.807,1.807,0,0,0-3.24,0l-1.731,3.507-3.871.563a1.807,1.807,0,0,0-1,3.082l2.8,2.73-.661,3.855a1.807,1.807,0,0,0,2.621,1.9l3.462-1.82,1.054.554a.9.9,0,0,0,1.31-.952l-.824-4.8,3.489-3.4a.9.9,0,0,0-.5-1.541Z" transform="translate(-6.598 -320.6)" fill="#ffe46b"/>
      <path id="Trazado_1044786" data-name="Trazado 1044786" d="M248.087,403.8l-2.692-.391-6.6,3.135,3.126,7.561,2.408,1.266a1.807,1.807,0,0,0,2.621-1.9l-.661-3.855,2.8-2.73A1.807,1.807,0,0,0,248.087,403.8Z" transform="translate(-210.038 -354.824)" fill="#ffcf57"/>
      <path id="Trazado_1044787" data-name="Trazado 1044787" d="M196.467,369.182l-1.178-.171-1.731-3.507a1.807,1.807,0,0,0-3.24,0l-1.731,3.507-3.871.562a1.807,1.807,0,0,0-1,3.082l2.8,2.73-.661,3.855a1.807,1.807,0,0,0,2.621,1.9l3.462-1.82,1.054.554a.9.9,0,0,0,1.31-.952l-.824-4.8,3.489-3.4A.9.9,0,0,0,196.467,369.182Z" transform="translate(-161.111 -320.599)" fill="#ffe46b"/>
      <path id="Trazado_1044788" data-name="Trazado 1044788" d="M423.754,403.8l-2.692-.391-6.6,3.135,3.126,7.561,2.408,1.266a1.807,1.807,0,0,0,2.621-1.9l-.661-3.855,2.8-2.73A1.807,1.807,0,0,0,423.754,403.8Z" transform="translate(-364.552 -354.824)" fill="#ffcf57"/>
      <path id="Trazado_1044789" data-name="Trazado 1044789" d="M372.134,369.182l-1.178-.171-1.731-3.507a1.807,1.807,0,0,0-3.24,0l-1.731,3.507-3.871.562a1.807,1.807,0,0,0-1,3.082l2.8,2.73-.661,3.855a1.807,1.807,0,0,0,2.621,1.9l3.462-1.82,1.054.554a.9.9,0,0,0,1.31-.952l-.824-4.8,3.489-3.4A.9.9,0,0,0,372.134,369.182Z" transform="translate(-315.624 -320.599)" fill="#ffe46b"/>
      <circle id="Elipse_13165" data-name="Elipse 13165" cx="19.689" cy="19.689" r="19.689" transform="translate(11.138 0.908)" fill="#fffbe5"/>
      <path id="Trazado_1044790" data-name="Trazado 1044790" d="M148.243,214.505a3.615,3.615,0,0,0-3.615,3.615A16.215,16.215,0,0,0,148.241,222l3.615-7.5Z" transform="translate(-127.213 -188.67)" fill="#25a5fa"/>
      <path id="Trazado_1044791" data-name="Trazado 1044791" d="M310.963,214.505H307.35l3.615,7.5a16.211,16.211,0,0,0,3.613-3.881A3.615,3.615,0,0,0,310.963,214.505Z" transform="translate(-270.34 -188.67)" fill="#4578de"/>
      <path id="Trazado_1044792" data-name="Trazado 1044792" d="M190.61,214.505H178.243a3.615,3.615,0,0,0-3.615,3.615V222a16.039,16.039,0,0,0,19.6,0V218.12A3.615,3.615,0,0,0,190.61,214.505Z" transform="translate(-153.6 -188.67)" fill="#3b88f5"/>
      <path id="Trazado_1044793" data-name="Trazado 1044793" d="M256,52.5V68.4a7.948,7.948,0,1,0,0-15.9Z" transform="translate(-225.173 -46.178)" fill="#4578de"/>
      <path id="Trazado_1044794" data-name="Trazado 1044794" d="M202.283,60.453c0-4.389-1.941-7.948-4.335-7.948a7.948,7.948,0,1,0,0,15.9C200.342,68.4,202.283,64.842,202.283,60.453Z" transform="translate(-167.121 -46.178)" fill="#3b88f5"/>
      <path id="Trazado_1044795" data-name="Trazado 1044795" d="M17.025,362.082l-3.4-.494L12.1,358.507a2.71,2.71,0,0,0-4.86,0l-1.521,3.082-3.4.494a2.71,2.71,0,0,0-1.5,4.622l2.461,2.4L2.7,372.49a2.706,2.706,0,0,0,3.932,2.857l3.042-1.6,3.042,1.6a2.71,2.71,0,0,0,3.932-2.857l-.581-3.387,2.461-2.4a2.71,2.71,0,0,0-1.5-4.622Zm.241,3.329-2.8,2.73a.9.9,0,0,0-.26.8l.661,3.855a.9.9,0,0,1-1.311.953l-3.462-1.82a.9.9,0,0,0-.841,0l-3.462,1.82A.9.9,0,0,1,4.48,372.8l.661-3.855a.9.9,0,0,0-.26-.8l-2.8-2.73a.9.9,0,0,1,.5-1.541l3.871-.562a.9.9,0,0,0,.68-.494l1.731-3.507a.9.9,0,0,1,1.62,0l1.731,3.507a.9.9,0,0,0,.68.494l3.871.563a.9.9,0,0,1,.5,1.541Z" transform="translate(0 -314.002)"/>
      <path id="Trazado_1044796" data-name="Trazado 1044796" d="M192.691,362.082l-3.4-.494-1.521-3.082a2.71,2.71,0,0,0-4.86,0l-1.521,3.082-3.4.494a2.71,2.71,0,0,0-1.5,4.622l2.461,2.4-.581,3.387a2.706,2.706,0,0,0,3.932,2.857l3.042-1.6,3.042,1.6a2.71,2.71,0,0,0,3.932-2.857l-.581-3.387,2.461-2.4a2.71,2.71,0,0,0-1.5-4.622Zm.241,3.329-2.8,2.73a.9.9,0,0,0-.26.8l.661,3.855a.9.9,0,0,1-1.311.953l-3.462-1.82a.9.9,0,0,0-.841,0l-3.462,1.82a.9.9,0,0,1-1.311-.953l.661-3.855a.9.9,0,0,0-.26-.8l-2.8-2.73a.9.9,0,0,1,.5-1.541l3.871-.562a.9.9,0,0,0,.68-.494l1.731-3.507a.9.9,0,0,1,1.62,0l1.731,3.507a.9.9,0,0,0,.68.494l3.871.563a.9.9,0,0,1,.5,1.541Z" transform="translate(-154.513 -314.002)"/>
      <path id="Trazado_1044797" data-name="Trazado 1044797" d="M370.545,363.928a2.693,2.693,0,0,0-2.187-1.844l-3.4-.494-1.521-3.082a2.71,2.71,0,0,0-4.86,0l-1.521,3.082-3.4.494a2.71,2.71,0,0,0-1.5,4.622l2.461,2.4-.581,3.387a2.706,2.706,0,0,0,3.932,2.857l3.042-1.6,3.042,1.6a2.71,2.71,0,0,0,3.932-2.857L367.4,369.1l2.461-2.4a2.693,2.693,0,0,0,.686-2.778Zm-1.947,1.484-2.8,2.73a.9.9,0,0,0-.26.8l.661,3.855a.9.9,0,0,1-1.311.953l-3.462-1.82a.9.9,0,0,0-.841,0l-3.462,1.82a.9.9,0,0,1-1.311-.953l.661-3.855a.9.9,0,0,0-.26-.8l-2.8-2.73a.9.9,0,0,1,.5-1.541l3.871-.562a.9.9,0,0,0,.68-.494l1.731-3.507a.9.9,0,0,1,1.621,0l1.731,3.507a.9.9,0,0,0,.68.494l3.871.562a.9.9,0,0,1,.5,1.541Z" transform="translate(-309.026 -314.003)"/>
      <path id="Trazado_1044798" data-name="Trazado 1044798" d="M200.2,53.856a8.851,8.851,0,1,0-8.851,8.851A8.861,8.861,0,0,0,200.2,53.856Zm-15.9,0a7.045,7.045,0,1,1,7.045,7.045A7.053,7.053,0,0,1,184.306,53.856Z" transform="translate(-160.524 -39.581)"/>
      <path id="Trazado_1044799" data-name="Trazado 1044799" d="M137.128,211.523a.9.9,0,0,0,.15.5,16.966,16.966,0,0,0,28.329,0,.9.9,0,0,0,.15-.5,4.524,4.524,0,0,0-4.518-4.518H141.646A4.524,4.524,0,0,0,137.128,211.523Zm26.811-.258a15.159,15.159,0,0,1-24.992,0,2.716,2.716,0,0,1,2.7-2.454h19.592A2.716,2.716,0,0,1,163.939,211.265Z" transform="translate(-120.616 -182.073)"/>
      <path id="Trazado_1044800" data-name="Trazado 1044800" d="M105.592,41.189A20.592,20.592,0,1,0,92.66,4.573a.9.9,0,0,0,1.135,1.405,18.786,18.786,0,1,1-2.473,2.4A.9.9,0,0,0,89.95,7.206a20.591,20.591,0,0,0,15.642,33.983Z" transform="translate(-74.765)"/>
    </g>
  </g>
</svg>
