<svg xmlns="http://www.w3.org/2000/svg" xmlns:xlink="http://www.w3.org/1999/xlink" width="110" height="110" viewBox="0 0 110 110">
  <defs>
    <filter id="Trazado_982547" x="0" y="0" width="110" height="110" filterUnits="userSpaceOnUse">
      <feOffset dy="3" input="SourceAlpha"/>
      <feGaussianBlur stdDeviation="3" result="blur"/>
      <feFlood flood-opacity="0.161"/>
      <feComposite operator="in" in2="blur"/>
      <feComposite in="SourceGraphic"/>
    </filter>
  </defs>
  <g id="Grupo_1183397" data-name="Grupo 1183397" transform="translate(-11508 -2622)">
    <g id="Grupo_1182362" data-name="Grupo 1182362" transform="translate(10711 -1600)">
      <g id="Grupo_1171898" data-name="Grupo 1171898" transform="translate(806 4228)">
        <g id="Grupo_1164700" data-name="Grupo 1164700" transform="translate(0 0)">
          <g id="Grupo_1160931" data-name="Grupo 1160931" transform="translate(0 0)">
            <g id="Grupo_1160749" data-name="Grupo 1160749" transform="translate(0 0)">
              <g id="Grupo_1158891" data-name="Grupo 1158891" transform="translate(0 0)">
                <g id="Grupo_1157406" data-name="Grupo 1157406" transform="translate(0 0)">
                  <g id="Grupo_1155793" data-name="Grupo 1155793">
                    <g id="Grupo_1154704" data-name="Grupo 1154704">
                      <g id="Grupo_1150790" data-name="Grupo 1150790">
                        <g id="Grupo_1154214" data-name="Grupo 1154214">
                          <g id="Grupo_1152583" data-name="Grupo 1152583">
                            <g id="Grupo_1146973" data-name="Grupo 1146973">
                              <g id="Grupo_1146954" data-name="Grupo 1146954">
                                <g transform="matrix(1, 0, 0, 1, -9, -6)" filter="url(#Trazado_982547)">
                                  <g id="Trazado_982547-2" data-name="Trazado 982547" transform="translate(9 6)" fill="#f2f7f5">
                                    <path d="M 46.00000762939453 90.49987030029297 C 39.99188613891602 90.49987030029297 34.16427612304688 89.32350921630859 28.67906188964844 87.00345611572266 C 23.38020706176758 84.76224517822266 18.62104797363281 81.55341339111328 14.53375434875488 77.46613311767578 C 10.44647407531738 73.37885284423828 7.237647533416748 68.61969757080078 4.996420860290527 63.32085418701172 C 2.676367521286011 57.83565521240234 1.500007629394531 52.008056640625 1.500007629394531 45.99993515014648 C 1.500007629394531 39.99181365966797 2.676367521286011 34.16421508789062 4.996420860290527 28.67901420593262 C 7.237647533416748 23.38017463684082 10.44647407531738 18.62101554870605 14.53375434875488 14.53373527526855 C 18.62104797363281 10.44645500183105 23.38020706176758 7.23762845993042 28.67906188964844 4.996415138244629 C 34.16427612304688 2.676361799240112 39.99188613891602 1.500001788139343 46.00000762939453 1.500001788139343 C 52.00812911987305 1.500001788139343 57.83573913574219 2.676361799240112 63.32095336914062 4.996415138244629 C 68.61980438232422 7.23762845993042 73.37896728515625 10.44645500183105 77.46626281738281 14.53373527526855 C 81.55354309082031 18.62101554870605 84.76236724853516 23.38017463684082 87.00359344482422 28.67901420593262 C 89.32364654541016 34.16421508789062 90.50000762939453 39.99181365966797 90.50000762939453 45.99993515014648 C 90.50000762939453 52.008056640625 89.32364654541016 57.83565521240234 87.00359344482422 63.32085418701172 C 84.76236724853516 68.61969757080078 81.55354309082031 73.37885284423828 77.46626281738281 77.46613311767578 C 73.37896728515625 81.55341339111328 68.61980438232422 84.76224517822266 63.32095336914062 87.00345611572266 C 57.83573913574219 89.32350921630859 52.00812911987305 90.49987030029297 46.00000762939453 90.49987030029297 Z" stroke="none"/>
                                    <path d="M 46.00000762939453 2.999992370605469 C 40.19372177124023 2.999992370605469 34.56270599365234 4.136489868164062 29.26339340209961 6.377906799316406 C 24.14333343505859 8.543502807617188 19.54443359375 11.64437866210938 15.59442138671875 15.59437561035156 C 11.6444091796875 19.54439544677734 8.543533325195312 24.14329528808594 6.377937316894531 29.26333618164062 C 4.136505126953125 34.56264877319336 3.000007629394531 40.19366455078125 3.000007629394531 45.99993515014648 C 3.000007629394531 51.80620574951172 4.136505126953125 57.43720626831055 6.377937316894531 62.73651885986328 C 8.543533325195312 67.8565673828125 11.6444091796875 72.45545959472656 15.59442138671875 76.40547943115234 C 19.54443359375 80.35547637939453 24.14333343505859 83.45635223388672 29.26339340209961 85.6219482421875 C 34.56270599365234 87.86336517333984 40.19372177124023 88.99986267089844 46.00000762939453 88.99986267089844 C 51.80629348754883 88.99986267089844 57.43730926513672 87.86336517333984 62.73663711547852 85.6219482421875 C 67.85668182373047 83.45635223388672 72.45559692382812 80.35547637939453 76.40560913085938 76.40547943115234 C 80.35560607910156 72.45545959472656 83.45649719238281 67.8565673828125 85.62209320068359 62.73651885986328 C 87.86351013183594 57.43720626831055 89.00000762939453 51.80620574951172 89.00000762939453 45.99993515014648 C 89.00000762939453 40.19366455078125 87.86351013183594 34.56264877319336 85.62209320068359 29.26333618164062 C 83.45649719238281 24.14329528808594 80.35560607910156 19.54439544677734 76.40560913085938 15.59437561035156 C 72.45559692382812 11.64437866210938 67.85668182373047 8.543502807617188 62.73663711547852 6.377906799316406 C 57.43730926513672 4.136489868164062 51.80629348754883 2.999992370605469 46.00000762939453 2.999992370605469 M 46.00000762939453 -7.62939453125e-06 C 71.40510559082031 -7.62939453125e-06 92.00000762939453 20.59486389160156 92.00000762939453 45.99993515014648 C 92.00000762939453 71.40499114990234 71.40510559082031 91.99986267089844 46.00000762939453 91.99986267089844 C 20.59492492675781 91.99986267089844 7.62939453125e-06 71.40499114990234 7.62939453125e-06 45.99993515014648 C 7.62939453125e-06 20.59486389160156 20.59492492675781 -7.62939453125e-06 46.00000762939453 -7.62939453125e-06 Z" stroke="none" fill="#4a665c"/>
                                  </g>
                                </g>
                              </g>
                            </g>
                          </g>
                        </g>
                      </g>
                    </g>
                  </g>
                </g>
              </g>
            </g>
          </g>
        </g>
      </g>
    </g>
    <g id="ganancias_1_" data-name="ganancias (1)" transform="translate(11537 2639.413)">
      <g id="Grupo_1183395" data-name="Grupo 1183395" transform="translate(0.879 3.465)">
        <path id="Trazado_1044853" data-name="Trazado 1044853" d="M37.854,295.9H10.069A2.569,2.569,0,0,1,7.5,293.333V290.1a2.569,2.569,0,0,1,2.569-2.569H37.854a2.569,2.569,0,0,1,2.569,2.569v3.233A2.569,2.569,0,0,1,37.854,295.9Z" transform="translate(-7.5 -255.033)" fill="#f1e64c"/>
        <path id="Trazado_1044854" data-name="Trazado 1044854" d="M15.414,295.905H10.07a2.569,2.569,0,0,1-2.57-2.568V290.1a2.569,2.569,0,0,1,2.57-2.568h5.345a2.569,2.569,0,0,0-2.568,2.568v3.234A2.569,2.569,0,0,0,15.414,295.905Z" transform="translate(-7.5 -255.036)" fill="#ffc250"/>
        <path id="Trazado_1044855" data-name="Trazado 1044855" d="M40.423,319.63v2.043a2.568,2.568,0,0,1-2.569,2.568H10.07A2.568,2.568,0,0,1,7.5,321.673V319.63A2.569,2.569,0,0,0,10.07,322.2H37.855A2.569,2.569,0,0,0,40.423,319.63Z" transform="translate(-7.501 -283.371)" fill="#ffc250"/>
        <path id="Trazado_1044856" data-name="Trazado 1044856" d="M78.492,224.446H50.707a2.569,2.569,0,0,1-2.569-2.569v-3.233a2.569,2.569,0,0,1,2.569-2.569H78.492a2.569,2.569,0,0,1,2.569,2.569v3.233a2.569,2.569,0,0,1-2.569,2.569Z" transform="translate(-43.378 -191.947)" fill="#f1e64c"/>
        <path id="Trazado_1044857" data-name="Trazado 1044857" d="M56.053,224.449H50.709a2.569,2.569,0,0,1-2.57-2.568v-3.234a2.569,2.569,0,0,1,2.57-2.568h5.345a2.569,2.569,0,0,0-2.568,2.568v3.234A2.569,2.569,0,0,0,56.053,224.449Z" transform="translate(-43.379 -191.949)" fill="#ffc250"/>
        <path id="Trazado_1044858" data-name="Trazado 1044858" d="M81.062,248.174v2.043a2.568,2.568,0,0,1-2.569,2.568H50.709a2.568,2.568,0,0,1-2.569-2.568v-2.043a2.569,2.569,0,0,0,2.569,2.569H78.494A2.569,2.569,0,0,0,81.062,248.174Z" transform="translate(-43.38 -220.285)" fill="#ffc250"/>
        <path id="Trazado_1044859" data-name="Trazado 1044859" d="M49.916,152.988H22.131a2.569,2.569,0,0,1-2.569-2.569v-3.233a2.569,2.569,0,0,1,2.569-2.569H49.916a2.569,2.569,0,0,1,2.569,2.569v3.233A2.569,2.569,0,0,1,49.916,152.988Z" transform="translate(-18.149 -128.859)" fill="#f1e64c"/>
        <path id="Trazado_1044860" data-name="Trazado 1044860" d="M27.477,152.992H22.133a2.569,2.569,0,0,1-2.57-2.568V147.19a2.569,2.569,0,0,1,2.57-2.568h5.345a2.569,2.569,0,0,0-2.568,2.568v3.234A2.569,2.569,0,0,0,27.477,152.992Z" transform="translate(-18.15 -128.862)" fill="#ffc250"/>
        <path id="Trazado_1044861" data-name="Trazado 1044861" d="M52.485,176.716v2.043a2.568,2.568,0,0,1-2.569,2.568H22.132a2.568,2.568,0,0,1-2.569-2.568v-2.043a2.569,2.569,0,0,0,2.569,2.569H49.917A2.569,2.569,0,0,0,52.485,176.716Z" transform="translate(-18.15 -157.197)" fill="#ffc250"/>
        <path id="Trazado_1044862" data-name="Trazado 1044862" d="M57.854,367.36H30.069a2.569,2.569,0,0,1-2.569-2.569v-3.233a2.569,2.569,0,0,1,2.569-2.569H57.854a2.569,2.569,0,0,1,2.569,2.569v3.233A2.569,2.569,0,0,1,57.854,367.36Z" transform="translate(-25.157 -318.121)" fill="#f1e64c"/>
        <path id="Trazado_1044863" data-name="Trazado 1044863" d="M60.423,391.088v2.043a2.568,2.568,0,0,1-2.569,2.568H30.07a2.568,2.568,0,0,1-2.569-2.568v-2.043a2.569,2.569,0,0,0,2.569,2.569H57.855A2.569,2.569,0,0,0,60.423,391.088Z" transform="translate(-25.158 -346.459)" fill="#ffc250"/>
        <path id="Trazado_1044864" data-name="Trazado 1044864" d="M35.414,367.363H30.07a2.569,2.569,0,0,1-2.57-2.568v-3.234a2.569,2.569,0,0,1,2.57-2.568h5.345a2.569,2.569,0,0,0-2.568,2.568v3.234A2.569,2.569,0,0,0,35.414,367.363Z" transform="translate(-25.157 -318.124)" fill="#ffc250"/>
        <path id="Trazado_1044865" data-name="Trazado 1044865" d="M42.854,438.818H15.069a2.569,2.569,0,0,1-2.569-2.569v-3.233a2.569,2.569,0,0,1,2.569-2.569H42.854a2.569,2.569,0,0,1,2.569,2.569v3.233A2.569,2.569,0,0,1,42.854,438.818Z" transform="translate(-11.914 -381.209)" fill="#f1e64c"/>
        <path id="Trazado_1044866" data-name="Trazado 1044866" d="M45.423,462.546v2.043a2.568,2.568,0,0,1-2.569,2.568H15.07a2.568,2.568,0,0,1-2.569-2.568v-2.043a2.569,2.569,0,0,0,2.569,2.569H42.855A2.569,2.569,0,0,0,45.423,462.546Z" transform="translate(-11.915 -409.547)" fill="#ffc250"/>
        <path id="Trazado_1044867" data-name="Trazado 1044867" d="M20.414,438.821H15.07a2.569,2.569,0,0,1-2.57-2.568v-3.234a2.569,2.569,0,0,1,2.57-2.568h5.345a2.569,2.569,0,0,0-2.568,2.568v3.234A2.569,2.569,0,0,0,20.414,438.821Z" transform="translate(-11.914 -381.212)" fill="#ffc250"/>
        <g id="Grupo_1183392" data-name="Grupo 1183392" transform="translate(25.292 24.687)">
          <circle id="Elipse_13171" data-name="Elipse 13171" cx="16.461" cy="16.461" r="16.461" transform="translate(0)" fill="#f1e64c"/>
          <g id="Grupo_1183391" data-name="Grupo 1183391" transform="translate(0 0)">
            <path id="Trazado_1044868" data-name="Trazado 1044868" d="M241.283,253.7q-.688.059-1.392.059a16.461,16.461,0,0,1,0-32.922q.7,0,1.392.059a16.461,16.461,0,0,0,0,32.8Z" transform="translate(-223.43 -220.841)" fill="#ffc250"/>
            <circle id="Elipse_13172" data-name="Elipse 13172" cx="11.115" cy="11.115" r="11.115" transform="translate(5.346 5.345)" fill="#ffc250"/>
          </g>
        </g>
        <g id="Grupo_1183393" data-name="Grupo 1183393" transform="translate(6.047 1.416)">
          <path id="Trazado_1044869" data-name="Trazado 1044869" d="M75.322,55.882V42.331h2.316a3.653,3.653,0,0,0,3.164-5.48L73.377,23.992a3.653,3.653,0,0,0-6.327,0L59.625,36.851a3.653,3.653,0,0,0,3.164,5.48h2.318V55.882a2.3,2.3,0,0,0,2.3,2.3h5.618A2.3,2.3,0,0,0,75.322,55.882Z" transform="translate(-59.129 -22.166)" fill="#95d6a4"/>
          <path id="Trazado_1044870" data-name="Trazado 1044870" d="M69.52,58.189H67.4a2.3,2.3,0,0,1-2.3-2.3V42.337H62.788a3.652,3.652,0,0,1-3.163-5.48L67.05,24a3.619,3.619,0,0,1,3.164-1.825A2.44,2.44,0,0,0,68.095,24L63.121,36.857c-.943,2.436.235,5.48,2.119,5.48h.952a1.788,1.788,0,0,1,1.788,1.788V55.889C67.979,57.159,68.67,58.189,69.52,58.189Z" transform="translate(-59.13 -22.173)" fill="#78c2a4"/>
        </g>
        <g id="Grupo_1183394" data-name="Grupo 1183394" transform="translate(29.614 0)">
          <path id="Trazado_1044871" data-name="Trazado 1044871" d="M372.367,139.579l-.067-.251a1.742,1.742,0,0,1,1.117-2.1l2.664-.913a1.742,1.742,0,0,1,2.247,1.2l.167.623a1.742,1.742,0,0,1-1.348,2.16l-2.764.541A1.741,1.741,0,0,1,372.367,139.579Z" transform="translate(-359.132 -121.446)" fill="#f7f493"/>
          <path id="Trazado_1044872" data-name="Trazado 1044872" d="M331.763,61.012l-.183-.184a1.741,1.741,0,0,1-.081-2.376l1.85-2.123a1.741,1.741,0,0,1,2.544-.087l.456.456a1.741,1.741,0,0,1-.087,2.544l-2.123,1.85A1.742,1.742,0,0,1,331.763,61.012Z" transform="translate(-322.783 -50.385)" fill="#f7f493"/>
          <path id="Trazado_1044873" data-name="Trazado 1044873" d="M261.867,16.332l-.251-.067a1.742,1.742,0,0,1-1.258-2.017l.541-2.764a1.741,1.741,0,0,1,2.16-1.348l.623.167a1.742,1.742,0,0,1,1.2,2.247l-.913,2.664A1.741,1.741,0,0,1,261.867,16.332Z" transform="translate(-260.325 -10.077)" fill="#f7f493"/>
        </g>
      </g>
      <g id="Grupo_1183396" data-name="Grupo 1183396" transform="translate(0 2.587)">
        <path id="Trazado_1044874" data-name="Trazado 1044874" d="M55.256,43.389a.878.878,0,1,0-1.279,1.2,15.581,15.581,0,1,1-2.52-2.161.878.878,0,0,0,1-1.447A17.349,17.349,0,0,0,38.482,38.44a3.433,3.433,0,0,0-2.489-1.062h-.345a3.426,3.426,0,0,0,.445-1.69V32.455a3.451,3.451,0,0,0-3.447-3.447H28.908L21.935,16.931a4.487,4.487,0,0,0-3.926-2.266h0a4.484,4.484,0,0,0-3.922,2.265L7.112,29.008H4.86a3.451,3.451,0,0,0-3.447,3.447v3.233A3.451,3.451,0,0,0,4.86,39.135H5.2a3.426,3.426,0,0,0-.445,1.69v3.233a3.426,3.426,0,0,0,.445,1.69H3.447A3.451,3.451,0,0,0,0,49.194v3.233a3.452,3.452,0,0,0,2.821,3.389,3.425,3.425,0,0,0-.478,1.748V60.8A3.426,3.426,0,0,0,2.9,62.679,3.452,3.452,0,0,0,.586,65.935v3.233a3.451,3.451,0,0,0,3.447,3.447H31.818a3.459,3.459,0,0,0,3.048-1.839,17.338,17.338,0,0,0,20.39-27.387ZM4.1,60.8V57.565a1.692,1.692,0,0,1,1.69-1.69H25.3a17.222,17.222,0,0,0,1.561,6.613H5.79A1.692,1.692,0,0,1,4.1,60.8ZM36.246,39.155a17.438,17.438,0,0,0-8.095,6.593H24V39.135h12a1.691,1.691,0,0,1,.254.02Zm-1.911-6.7v3.233a1.692,1.692,0,0,1-1.69,1.69H24v-.791h1.437a4.534,4.534,0,0,0,4.346-5.822h2.865A1.692,1.692,0,0,1,34.335,32.455ZM3.17,35.688V32.455a1.692,1.692,0,0,1,1.69-1.69H6.239a4.475,4.475,0,0,0-.081,2.273.878.878,0,1,0,1.714-.386,2.714,2.714,0,0,1,.31-1.984l7.425-12.859a2.745,2.745,0,0,1,2.4-1.386h0a2.748,2.748,0,0,1,2.4,1.388l7.424,12.858a2.775,2.775,0,0,1-2.4,4.163H23.118a.879.879,0,0,0-.878.878V49.26a1.422,1.422,0,0,1-1.421,1.421H15.2a1.422,1.422,0,0,1-1.421-1.421V35.709a.879.879,0,0,0-.878-.878H10.585a2.792,2.792,0,0,1-.957-.165.878.878,0,1,0-.6,1.651,4.541,4.541,0,0,0,1.557.271h1.438v.791H4.86a1.692,1.692,0,0,1-1.69-1.69Zm3.348,8.37V40.825a1.692,1.692,0,0,1,1.69-1.69h3.816v6.613H8.207A1.692,1.692,0,0,1,6.517,44.058Zm-4.76,8.369V49.194a1.692,1.692,0,0,1,1.69-1.689h8.576V49.26A3.181,3.181,0,0,0,15.2,52.438h5.618A3.181,3.181,0,0,0,24,49.26V47.505h3.137a17.212,17.212,0,0,0-1.8,6.612H3.447a1.692,1.692,0,0,1-1.69-1.69ZM31.818,70.858H4.033a1.692,1.692,0,0,1-1.69-1.69V65.935a1.692,1.692,0,0,1,1.69-1.69H27.8a17.476,17.476,0,0,0,5.539,5.663A1.694,1.694,0,0,1,31.818,70.858Z" transform="translate(0 -13.25)"/>
        <path id="Trazado_1044875" data-name="Trazado 1044875" d="M329.731,296.435c-.311-.091-.629-.186-.947-.285v-3.893a3.712,3.712,0,0,1,1.549.568.879.879,0,0,0,1.057-1.4,5.556,5.556,0,0,0-2.606-.932v-.759a.878.878,0,1,0-1.757,0v.815q-.254.043-.52.108a3.672,3.672,0,0,0-2.817,2.879,2.83,2.83,0,0,0,1.241,2.894,10.4,10.4,0,0,0,2.1.985v4.931a5.066,5.066,0,0,1-2.507-.727.879.879,0,0,0-.833,1.547,6.722,6.722,0,0,0,3.34.938v.863a.878.878,0,1,0,1.757,0v-.92a4.474,4.474,0,0,0,3.951-3.609C332.99,298.61,331.811,297.04,329.731,296.435Zm-3.846-1.484a1.088,1.088,0,0,1-.461-1.129,1.886,1.886,0,0,1,1.507-1.462l.1-.022v3.19A7.352,7.352,0,0,1,325.884,294.95ZM331,300.191a2.666,2.666,0,0,1-2.211,2.065v-4.269l.456.135C330.488,298.485,331.128,299.24,331,300.191Z" transform="translate(-285.365 -255.321)"/>
        <path id="Trazado_1044876" data-name="Trazado 1044876" d="M273.563,258.977a11.994,11.994,0,1,0,11.994,11.994A12.007,12.007,0,0,0,273.563,258.977Zm0,22.231A10.237,10.237,0,1,1,283.8,270.971,10.249,10.249,0,0,1,273.563,281.208Z" transform="translate(-230.931 -228.945)"/>
        <path id="Trazado_1044877" data-name="Trazado 1044877" d="M364.835,132.944l.067.251h0a2.63,2.63,0,0,0,2.533,1.942,2.6,2.6,0,0,0,.5-.049l2.764-.541a2.62,2.62,0,0,0,2.027-3.249l-.167-.623a2.62,2.62,0,0,0-3.38-1.8l-2.664.913A2.628,2.628,0,0,0,364.835,132.944Zm2.251-1.494,2.664-.913a.863.863,0,0,1,1.114.593l.167.623a.863.863,0,0,1-.668,1.07l-2.764.541a.865.865,0,0,1-1-.624l-.067-.251a.866.866,0,0,1,.554-1.04Z" transform="translate(-322.023 -113.958)"/>
        <path id="Trazado_1044878" data-name="Trazado 1044878" d="M324.541,55.012a2.628,2.628,0,0,0,3.574.122l2.123-1.85a2.62,2.62,0,0,0,.131-3.828L329.913,49a2.62,2.62,0,0,0-3.828.131l-1.851,2.123a2.628,2.628,0,0,0,.123,3.574Zm1.018-2.6,1.851-2.123a.854.854,0,0,1,.621-.3h.031a.854.854,0,0,1,.609.253l.456.456a.863.863,0,0,1-.043,1.261l-2.123,1.85a.866.866,0,0,1-1.177-.04l-.183-.183A.866.866,0,0,1,325.56,52.408Z" transform="translate(-285.69 -42.886)"/>
        <path id="Trazado_1044879" data-name="Trazado 1044879" d="M271.547,70.725h0Z" transform="translate(-239.74 -62.744)"/>
        <path id="Trazado_1044880" data-name="Trazado 1044880" d="M254.771,10.5l.251.067a2.6,2.6,0,0,0,.674.089,2.63,2.63,0,0,0,2.483-1.77l.913-2.664a2.62,2.62,0,0,0-1.8-3.38l-.623-.167A2.62,2.62,0,0,0,253.419,4.7l-.541,2.764a2.628,2.628,0,0,0,1.893,3.034ZM254.6,7.8l.541-2.764a.864.864,0,0,1,.845-.7.874.874,0,0,1,.226.03l.623.167a.863.863,0,0,1,.593,1.114l-.913,2.664a.866.866,0,0,1-1.04.554h0l-.251-.067A.866.866,0,0,1,254.6,7.8Z" transform="translate(-223.214 -2.587)"/>
      </g>
    </g>
  </g>
</svg>
