<svg xmlns="http://www.w3.org/2000/svg" xmlns:xlink="http://www.w3.org/1999/xlink" width="110" height="110" viewBox="0 0 110 110">
  <defs>
    <filter id="Trazado_982547" x="0" y="0" width="110" height="110" filterUnits="userSpaceOnUse">
      <feOffset dy="3" input="SourceAlpha"/>
      <feGaussianBlur stdDeviation="3" result="blur"/>
      <feFlood flood-opacity="0.161"/>
      <feComposite operator="in" in2="blur"/>
      <feComposite in="SourceGraphic"/>
    </filter>
  </defs>
  <g id="Grupo_1183442" data-name="Grupo 1183442" transform="translate(-11508 -2980.688)">
    <g id="Grupo_1182364" data-name="Grupo 1182364" transform="translate(10711 -1241.312)">
      <g id="Grupo_1171898" data-name="Grupo 1171898" transform="translate(806 4228)">
        <g id="Grupo_1164700" data-name="Grupo 1164700" transform="translate(0 0)">
          <g id="Grupo_1160931" data-name="Grupo 1160931" transform="translate(0 0)">
            <g id="Grupo_1160749" data-name="Grupo 1160749" transform="translate(0 0)">
              <g id="Grupo_1158891" data-name="Grupo 1158891" transform="translate(0 0)">
                <g id="Grupo_1157406" data-name="Grupo 1157406" transform="translate(0 0)">
                  <g id="Grupo_1155793" data-name="Grupo 1155793">
                    <g id="Grupo_1154704" data-name="Grupo 1154704">
                      <g id="Grupo_1150790" data-name="Grupo 1150790">
                        <g id="Grupo_1154214" data-name="Grupo 1154214">
                          <g id="Grupo_1152583" data-name="Grupo 1152583">
                            <g id="Grupo_1146973" data-name="Grupo 1146973">
                              <g id="Grupo_1146954" data-name="Grupo 1146954">
                                <g transform="matrix(1, 0, 0, 1, -9, -6)" filter="url(#Trazado_982547)">
                                  <g id="Trazado_982547-2" data-name="Trazado 982547" transform="translate(9 6)" fill="#f2f7f5">
                                    <path d="M 46.00000762939453 90.49987030029297 C 39.99188613891602 90.49987030029297 34.16427612304688 89.32350921630859 28.67906188964844 87.00345611572266 C 23.38020706176758 84.76224517822266 18.62104797363281 81.55341339111328 14.53375434875488 77.46613311767578 C 10.44647407531738 73.37885284423828 7.237647533416748 68.61969757080078 4.996420860290527 63.32085418701172 C 2.676367521286011 57.83565521240234 1.500007629394531 52.008056640625 1.500007629394531 45.99993515014648 C 1.500007629394531 39.99181365966797 2.676367521286011 34.16421508789062 4.996420860290527 28.67901420593262 C 7.237647533416748 23.38017463684082 10.44647407531738 18.62101554870605 14.53375434875488 14.53373527526855 C 18.62104797363281 10.44645500183105 23.38020706176758 7.23762845993042 28.67906188964844 4.996415138244629 C 34.16427612304688 2.676361799240112 39.99188613891602 1.500001788139343 46.00000762939453 1.500001788139343 C 52.00812911987305 1.500001788139343 57.83573913574219 2.676361799240112 63.32095336914062 4.996415138244629 C 68.61980438232422 7.23762845993042 73.37896728515625 10.44645500183105 77.46626281738281 14.53373527526855 C 81.55354309082031 18.62101554870605 84.76236724853516 23.38017463684082 87.00359344482422 28.67901420593262 C 89.32364654541016 34.16421508789062 90.50000762939453 39.99181365966797 90.50000762939453 45.99993515014648 C 90.50000762939453 52.008056640625 89.32364654541016 57.83565521240234 87.00359344482422 63.32085418701172 C 84.76236724853516 68.61969757080078 81.55354309082031 73.37885284423828 77.46626281738281 77.46613311767578 C 73.37896728515625 81.55341339111328 68.61980438232422 84.76224517822266 63.32095336914062 87.00345611572266 C 57.83573913574219 89.32350921630859 52.00812911987305 90.49987030029297 46.00000762939453 90.49987030029297 Z" stroke="none"/>
                                    <path d="M 46.00000762939453 2.999992370605469 C 40.19372177124023 2.999992370605469 34.56270599365234 4.136489868164062 29.26339340209961 6.377906799316406 C 24.14333343505859 8.543502807617188 19.54443359375 11.64437866210938 15.59442138671875 15.59437561035156 C 11.6444091796875 19.54439544677734 8.543533325195312 24.14329528808594 6.377937316894531 29.26333618164062 C 4.136505126953125 34.56264877319336 3.000007629394531 40.19366455078125 3.000007629394531 45.99993515014648 C 3.000007629394531 51.80620574951172 4.136505126953125 57.43720626831055 6.377937316894531 62.73651885986328 C 8.543533325195312 67.8565673828125 11.6444091796875 72.45545959472656 15.59442138671875 76.40547943115234 C 19.54443359375 80.35547637939453 24.14333343505859 83.45635223388672 29.26339340209961 85.6219482421875 C 34.56270599365234 87.86336517333984 40.19372177124023 88.99986267089844 46.00000762939453 88.99986267089844 C 51.80629348754883 88.99986267089844 57.43730926513672 87.86336517333984 62.73663711547852 85.6219482421875 C 67.85668182373047 83.45635223388672 72.45559692382812 80.35547637939453 76.40560913085938 76.40547943115234 C 80.35560607910156 72.45545959472656 83.45649719238281 67.8565673828125 85.62209320068359 62.73651885986328 C 87.86351013183594 57.43720626831055 89.00000762939453 51.80620574951172 89.00000762939453 45.99993515014648 C 89.00000762939453 40.19366455078125 87.86351013183594 34.56264877319336 85.62209320068359 29.26333618164062 C 83.45649719238281 24.14329528808594 80.35560607910156 19.54439544677734 76.40560913085938 15.59437561035156 C 72.45559692382812 11.64437866210938 67.85668182373047 8.543502807617188 62.73663711547852 6.377906799316406 C 57.43730926513672 4.136489868164062 51.80629348754883 2.999992370605469 46.00000762939453 2.999992370605469 M 46.00000762939453 -7.62939453125e-06 C 71.40510559082031 -7.62939453125e-06 92.00000762939453 20.59486389160156 92.00000762939453 45.99993515014648 C 92.00000762939453 71.40499114990234 71.40510559082031 91.99986267089844 46.00000762939453 91.99986267089844 C 20.59492492675781 91.99986267089844 7.62939453125e-06 71.40499114990234 7.62939453125e-06 45.99993515014648 C 7.62939453125e-06 20.59486389160156 20.59492492675781 -7.62939453125e-06 46.00000762939453 -7.62939453125e-06 Z" stroke="none" fill="#4a665c"/>
                                  </g>
                                </g>
                              </g>
                            </g>
                          </g>
                        </g>
                      </g>
                    </g>
                  </g>
                </g>
              </g>
            </g>
          </g>
        </g>
      </g>
    </g>
    <g id="proceso-de-trabajo_1_" data-name="proceso-de-trabajo (1)" transform="translate(11525.379 2995.567)">
      <g id="Grupo_1183440" data-name="Grupo 1183440" transform="translate(1.16 1.16)">
        <path id="Trazado_1044907" data-name="Trazado 1044907" d="M62.97,10.973h0A32.993,32.993,0,0,0,30.148,40.633l8.709-.408A24.445,24.445,0,0,1,62.97,19.564l-.039.014v3.335l8.42-6.8L62.932,8v2.986" transform="translate(-26.936 -8)" fill="#ffe27a"/>
        <path id="Trazado_1044908" data-name="Trazado 1044908" d="M112.532,75.706l6.342-5.124A24.412,24.412,0,0,0,88.161,93.034l.3-.014a24.445,24.445,0,0,1,24.113-20.662l-.039.014Z" transform="translate(-76.537 -60.794)" fill="#f9cf58"/>
        <path id="Trazado_1044909" data-name="Trazado 1044909" d="M175.49,157.79l-2.759-.415a12.872,12.872,0,0,0-2.029-4.9l1.658-2.245a.987.987,0,0,0-.1-1.284l-1.428-1.428a.987.987,0,0,0-1.284-.1l-2.245,1.658a12.871,12.871,0,0,0-4.9-2.029L162,144.3a.987.987,0,0,0-.976-.84H159a.987.987,0,0,0-.976.84l-.415,2.759a12.871,12.871,0,0,0-4.9,2.029l-2.245-1.658a.987.987,0,0,0-1.284.1l-1.428,1.428a.987.987,0,0,0-.1,1.284l1.658,2.245a12.871,12.871,0,0,0-2.029,4.9l-2.759.415a.987.987,0,0,0-.84.976v2.019a.987.987,0,0,0,.84.976l2.759.415a12.872,12.872,0,0,0,2.029,4.9l-1.658,2.245a.987.987,0,0,0,.1,1.284l1.428,1.428a.987.987,0,0,0,1.284.1l2.245-1.658a12.871,12.871,0,0,0,4.9,2.029l.415,2.759a.987.987,0,0,0,.976.84h2.02a.987.987,0,0,0,.976-.84l.415-2.759a12.871,12.871,0,0,0,4.9-2.029l2.245,1.658a.987.987,0,0,0,1.284-.1l1.428-1.428a.987.987,0,0,0,.1-1.284l-1.658-2.245a12.873,12.873,0,0,0,2.029-4.9l2.759-.415a.987.987,0,0,0,.84-.976v-2.019A.987.987,0,0,0,175.49,157.79Zm-15.479,8.518a6.532,6.532,0,1,1,6.532-6.532A6.532,6.532,0,0,1,160.011,166.308Z" transform="translate(-124.016 -123.814)" fill="#ff4755"/>
        <path id="Trazado_1044910" data-name="Trazado 1044910" d="M11.007,206.12c0,.011,0,.022,0,.034a32.993,32.993,0,0,0,29.662,32.823l-.511-8.726a24.4,24.4,0,0,1-20.56-24.1c0-.011,0-.022,0-.034h3.314l-6.8-8.42L8,206.12h2.986" transform="translate(-8 -170.192)" fill="#8bcaff"/>
        <path id="Trazado_1044911" data-name="Trazado 1044911" d="M206.12,299.567h.067a24.4,24.4,0,0,0,24.1-20.553l8.734-.594a32.992,32.992,0,0,1-32.829,29.738h-.067v2.974l-8.42-8.109,8.42-6.8v3.335Z" transform="translate(-170.192 -239.208)" fill="#98db7c"/>
        <path id="Trazado_1044912" data-name="Trazado 1044912" d="M224.249,266.305a6.559,6.559,0,0,0-.131-1.305,6.533,6.533,0,0,1-12.8,0,6.533,6.533,0,1,0,12.934,1.305Z" transform="translate(-181.722 -227.733)" fill="#fc2b3a"/>
        <path id="Trazado_1044913" data-name="Trazado 1044913" d="M217.679,305.549a33.14,33.14,0,0,1-6.539-.649l6.471,6.232v-2.974h.067a32.992,32.992,0,0,0,32.829-29.737l-.449.466a33,33,0,0,1-32.38,26.661Z" transform="translate(-181.683 -239.209)" fill="#82d361"/>
        <path id="Trazado_1044914" data-name="Trazado 1044914" d="M55.183,285.531a33.005,33.005,0,0,1-26.349-29.763h-.1c0,.011,0,.022,0,.034a32.993,32.993,0,0,0,29.662,32.823Z" transform="translate(-25.727 -219.84)" fill="#6cc4ff"/>
        <path id="Trazado_1044915" data-name="Trazado 1044915" d="M308.4,62.465c0-.011,0-.022,0-.034A32.992,32.992,0,0,0,278.664,29.6l5.167,4.976-4.638,3.747a24.4,24.4,0,0,1,20.615,24.105c0,.011,0,.022,0,.034h-3.381l6.8,8.42,8.109-8.42Z" transform="translate(-239.416 -26.47)" fill="#ffba57"/>
        <g id="Grupo_1183439" data-name="Grupo 1183439" transform="translate(39.777 9.788)">
          <path id="Trazado_1044916" data-name="Trazado 1044916" d="M284.876,75.5l-2.56,2.068a24.4,24.4,0,0,1,20.58,22.807q.035-.651.035-1.311A24.407,24.407,0,0,0,284.876,75.5Z" transform="translate(-282.316 -75.501)" fill="#ffac3e"/>
        </g>
      </g>
      <g id="Grupo_1183441" data-name="Grupo 1183441" transform="translate(0 0)">
        <path id="Trazado_1044917" data-name="Trazado 1044917" d="M211.206,203.347a7.639,7.639,0,0,0-7.172,10.258,1.09,1.09,0,1,0,2.047-.749,5.456,5.456,0,1,1,2.314,2.8,1.09,1.09,0,0,0-1.125,1.867,7.635,7.635,0,1,0,3.936-14.178Z" transform="translate(-174.052 -173.86)"/>
        <path id="Trazado_1044918" data-name="Trazado 1044918" d="M169.056,150.088l-2.021-.3a13.882,13.882,0,0,0-1.615-3.9l1.215-1.644a2.067,2.067,0,0,0-.2-2.705L165,140.106a2.067,2.067,0,0,0-2.7-.2l-1.644,1.215a13.875,13.875,0,0,0-3.9-1.615l-.3-2.021a2.066,2.066,0,0,0-2.056-1.77h-2.023a2.066,2.066,0,0,0-2.056,1.77l-.3,2.021a13.876,13.876,0,0,0-3.9,1.615l-1.644-1.215a2.066,2.066,0,0,0-2.7.2l-1.43,1.431a2.066,2.066,0,0,0-.2,2.705l1.214,1.644a13.866,13.866,0,0,0-1.615,3.9l-2.02.3a2.066,2.066,0,0,0-1.77,2.056v2.023a2.066,2.066,0,0,0,1.77,2.056l2.021.3a13.877,13.877,0,0,0,1.615,3.9l-1.214,1.644a2.066,2.066,0,0,0,.2,2.705l1.431,1.431a2.066,2.066,0,0,0,2.7.2l1.644-1.215a13.875,13.875,0,0,0,3.9,1.615l.3,2.021a2.066,2.066,0,0,0,2.056,1.77H154.4a2.066,2.066,0,0,0,2.056-1.77l.3-2.021a13.875,13.875,0,0,0,3.9-1.615l1.645,1.215a2.066,2.066,0,0,0,2.7-.2l1.431-1.431a2.067,2.067,0,0,0,.2-2.705l-1.215-1.644a13.872,13.872,0,0,0,1.615-3.9l2.02-.3a2.066,2.066,0,0,0,1.77-2.056v-2.023a2.066,2.066,0,0,0-1.77-2.056Zm-.41,3.992-2.679.4a1.089,1.089,0,0,0-.909.877,11.749,11.749,0,0,1-1.861,4.492,1.089,1.089,0,0,0,.023,1.263l1.61,2.179-1.308,1.308-2.179-1.61a1.09,1.09,0,0,0-1.263-.023,11.749,11.749,0,0,1-4.492,1.861,1.09,1.09,0,0,0-.877.909l-.4,2.679h-1.85l-.4-2.679a1.089,1.089,0,0,0-.877-.909,11.749,11.749,0,0,1-4.492-1.861,1.089,1.089,0,0,0-1.263.023l-2.179,1.61-1.308-1.308,1.61-2.179a1.089,1.089,0,0,0,.023-1.263,11.746,11.746,0,0,1-1.861-4.492,1.089,1.089,0,0,0-.909-.877l-2.679-.4v-1.85l2.679-.4a1.089,1.089,0,0,0,.909-.877,11.747,11.747,0,0,1,1.861-4.492,1.089,1.089,0,0,0-.023-1.263l-1.61-2.179,1.308-1.308,2.179,1.61a1.09,1.09,0,0,0,1.263.023,11.751,11.751,0,0,1,4.492-1.862,1.089,1.089,0,0,0,.877-.909l.4-2.679h1.85l.4,2.679a1.09,1.09,0,0,0,.877.909,11.746,11.746,0,0,1,4.492,1.862,1.089,1.089,0,0,0,1.263-.023l2.179-1.61,1.308,1.308-1.61,2.179a1.09,1.09,0,0,0-.023,1.263,11.748,11.748,0,0,1,1.861,4.492,1.089,1.089,0,0,0,.909.877l2.679.4Z" transform="translate(-116.23 -116.034)"/>
        <path id="Trazado_1044919" data-name="Trazado 1044919" d="M74.156,36.729a1.09,1.09,0,0,0-1-.663H71.282A34.144,34.144,0,0,0,40.9,3.183L37.909.3a1.1,1.1,0,0,0-1.845.785V2.993A33.9,33.9,0,0,0,17.5,9.2a1.09,1.09,0,0,0,1.256,1.781,31.757,31.757,0,0,1,18.4-5.822,1.09,1.09,0,0,0,1.09-1.09V3.649l5.7,5.491-5.7,4.607V12.675a1.09,1.09,0,0,0-1.09-1.09A25.544,25.544,0,0,0,12.395,30.856l-2.335-2.891a1.1,1.1,0,0,0-1.633-.071L5.868,30.552a31.925,31.925,0,0,1,9.61-16.924A1.09,1.09,0,0,0,14,12.027,34.076,34.076,0,0,0,3.224,33.3L.3,36.332a1.1,1.1,0,0,0,.785,1.846H3.026A34.146,34.146,0,0,0,33.331,71.052l3,2.889a1.1,1.1,0,0,0,1.845-.785v-1.9a33.881,33.881,0,0,0,18.863-6.371,1.09,1.09,0,1,0-1.271-1.771,31.744,31.744,0,0,1-18.627,5.976h-.054A1.09,1.09,0,0,0,36,70.176v.417l-5.7-5.491L36,60.495v1.073a1.09,1.09,0,0,0,1.083,1.09h.074A25.544,25.544,0,0,0,61.9,43.45l2.284,2.828a1.1,1.1,0,0,0,1.633.071L68.457,43.6a31.944,31.944,0,0,1-9.429,16.827,1.09,1.09,0,1,0,1.492,1.589A34.1,34.1,0,0,0,71.091,40.867l2.847-2.956a1.089,1.089,0,0,0,.218-1.182ZM27.964,64.183a1.1,1.1,0,0,0-.071,1.633l2.693,2.594a31.975,31.975,0,0,1-25.4-31.284v-.037A1.09,1.09,0,0,0,4.1,36H3.649L9.14,30.3,13.747,36H12.708a1.086,1.086,0,0,0-1.09,1.086v.037A25.544,25.544,0,0,0,30.832,61.866Zm24.428-9.36a23.345,23.345,0,0,1-14.216,5.634V58.213a1.1,1.1,0,0,0-1.775-.848l-3.4,2.744A23.364,23.364,0,0,1,13.821,38.177h2.208a1.1,1.1,0,0,0,.848-1.775l-2.722-3.369A23.363,23.363,0,0,1,36.064,13.789v2.24a1.1,1.1,0,0,0,1.775.848l3.409-2.754A23.364,23.364,0,0,1,60.486,36.065H58.211a1.1,1.1,0,0,0-.848,1.775l2.776,3.436a23.369,23.369,0,0,1-7.748,13.546ZM65.1,43.947l-4.607-5.7H61.6a1.086,1.086,0,0,0,1.09-1.086v-.037A25.545,25.545,0,0,0,43.425,12.363l2.851-2.3a1.1,1.1,0,0,0,.071-1.633l-2.711-2.61a31.973,31.973,0,0,1,25.482,31.3v.037a1.09,1.09,0,0,0,1.09,1.09h.383Z" transform="translate(0 0)"/>
      </g>
    </g>
  </g>
</svg>
