<svg xmlns="http://www.w3.org/2000/svg" xmlns:xlink="http://www.w3.org/1999/xlink" width="110" height="110" viewBox="0 0 110 110">
  <defs>
    <filter id="Trazado_982547" x="0" y="0" width="110" height="110" filterUnits="userSpaceOnUse">
      <feOffset dy="3" input="SourceAlpha"/>
      <feGaussianBlur stdDeviation="3" result="blur"/>
      <feFlood flood-opacity="0.161"/>
      <feComposite operator="in" in2="blur"/>
      <feComposite in="SourceGraphic"/>
    </filter>
  </defs>
  <g id="Grupo_1183463" data-name="Grupo 1183463" transform="translate(-11508 -3340)">
    <g id="Grupo_1182366" data-name="Grupo 1182366" transform="translate(10711 -882)">
      <g id="Grupo_1171898" data-name="Grupo 1171898" transform="translate(806 4228)">
        <g id="Grupo_1164700" data-name="Grupo 1164700" transform="translate(0 0)">
          <g id="Grupo_1160931" data-name="Grupo 1160931" transform="translate(0 0)">
            <g id="Grupo_1160749" data-name="Grupo 1160749" transform="translate(0 0)">
              <g id="Grupo_1158891" data-name="Grupo 1158891" transform="translate(0 0)">
                <g id="Grupo_1157406" data-name="Grupo 1157406" transform="translate(0 0)">
                  <g id="Grupo_1155793" data-name="Grupo 1155793">
                    <g id="Grupo_1154704" data-name="Grupo 1154704">
                      <g id="Grupo_1150790" data-name="Grupo 1150790">
                        <g id="Grupo_1154214" data-name="Grupo 1154214">
                          <g id="Grupo_1152583" data-name="Grupo 1152583">
                            <g id="Grupo_1146973" data-name="Grupo 1146973">
                              <g id="Grupo_1146954" data-name="Grupo 1146954">
                                <g transform="matrix(1, 0, 0, 1, -9, -6)" filter="url(#Trazado_982547)">
                                  <g id="Trazado_982547-2" data-name="Trazado 982547" transform="translate(9 6)" fill="#f2f7f5">
                                    <path d="M 46.00000762939453 90.49987030029297 C 39.99188613891602 90.49987030029297 34.16427612304688 89.32350921630859 28.67906188964844 87.00345611572266 C 23.38020706176758 84.76224517822266 18.62104797363281 81.55341339111328 14.53375434875488 77.46613311767578 C 10.44647407531738 73.37885284423828 7.237647533416748 68.61969757080078 4.996420860290527 63.32085418701172 C 2.676367521286011 57.83565521240234 1.500007629394531 52.008056640625 1.500007629394531 45.99993515014648 C 1.500007629394531 39.99181365966797 2.676367521286011 34.16421508789062 4.996420860290527 28.67901420593262 C 7.237647533416748 23.38017463684082 10.44647407531738 18.62101554870605 14.53375434875488 14.53373527526855 C 18.62104797363281 10.44645500183105 23.38020706176758 7.23762845993042 28.67906188964844 4.996415138244629 C 34.16427612304688 2.676361799240112 39.99188613891602 1.500001788139343 46.00000762939453 1.500001788139343 C 52.00812911987305 1.500001788139343 57.83573913574219 2.676361799240112 63.32095336914062 4.996415138244629 C 68.61980438232422 7.23762845993042 73.37896728515625 10.44645500183105 77.46626281738281 14.53373527526855 C 81.55354309082031 18.62101554870605 84.76236724853516 23.38017463684082 87.00359344482422 28.67901420593262 C 89.32364654541016 34.16421508789062 90.50000762939453 39.99181365966797 90.50000762939453 45.99993515014648 C 90.50000762939453 52.008056640625 89.32364654541016 57.83565521240234 87.00359344482422 63.32085418701172 C 84.76236724853516 68.61969757080078 81.55354309082031 73.37885284423828 77.46626281738281 77.46613311767578 C 73.37896728515625 81.55341339111328 68.61980438232422 84.76224517822266 63.32095336914062 87.00345611572266 C 57.83573913574219 89.32350921630859 52.00812911987305 90.49987030029297 46.00000762939453 90.49987030029297 Z" stroke="none"/>
                                    <path d="M 46.00000762939453 2.999992370605469 C 40.19372177124023 2.999992370605469 34.56270599365234 4.136489868164062 29.26339340209961 6.377906799316406 C 24.14333343505859 8.543502807617188 19.54443359375 11.64437866210938 15.59442138671875 15.59437561035156 C 11.6444091796875 19.54439544677734 8.543533325195312 24.14329528808594 6.377937316894531 29.26333618164062 C 4.136505126953125 34.56264877319336 3.000007629394531 40.19366455078125 3.000007629394531 45.99993515014648 C 3.000007629394531 51.80620574951172 4.136505126953125 57.43720626831055 6.377937316894531 62.73651885986328 C 8.543533325195312 67.8565673828125 11.6444091796875 72.45545959472656 15.59442138671875 76.40547943115234 C 19.54443359375 80.35547637939453 24.14333343505859 83.45635223388672 29.26339340209961 85.6219482421875 C 34.56270599365234 87.86336517333984 40.19372177124023 88.99986267089844 46.00000762939453 88.99986267089844 C 51.80629348754883 88.99986267089844 57.43730926513672 87.86336517333984 62.73663711547852 85.6219482421875 C 67.85668182373047 83.45635223388672 72.45559692382812 80.35547637939453 76.40560913085938 76.40547943115234 C 80.35560607910156 72.45545959472656 83.45649719238281 67.8565673828125 85.62209320068359 62.73651885986328 C 87.86351013183594 57.43720626831055 89.00000762939453 51.80620574951172 89.00000762939453 45.99993515014648 C 89.00000762939453 40.19366455078125 87.86351013183594 34.56264877319336 85.62209320068359 29.26333618164062 C 83.45649719238281 24.14329528808594 80.35560607910156 19.54439544677734 76.40560913085938 15.59437561035156 C 72.45559692382812 11.64437866210938 67.85668182373047 8.543502807617188 62.73663711547852 6.377906799316406 C 57.43730926513672 4.136489868164062 51.80629348754883 2.999992370605469 46.00000762939453 2.999992370605469 M 46.00000762939453 -7.62939453125e-06 C 71.40510559082031 -7.62939453125e-06 92.00000762939453 20.59486389160156 92.00000762939453 45.99993515014648 C 92.00000762939453 71.40499114990234 71.40510559082031 91.99986267089844 46.00000762939453 91.99986267089844 C 20.59492492675781 91.99986267089844 7.62939453125e-06 71.40499114990234 7.62939453125e-06 45.99993515014648 C 7.62939453125e-06 20.59486389160156 20.59492492675781 -7.62939453125e-06 46.00000762939453 -7.62939453125e-06 Z" stroke="none" fill="#4a665c"/>
                                  </g>
                                </g>
                              </g>
                            </g>
                          </g>
                        </g>
                      </g>
                    </g>
                  </g>
                </g>
              </g>
            </g>
          </g>
        </g>
      </g>
    </g>
    <g id="gasto" transform="translate(11533 3347.488)">
      <g id="Grupo_1183453" data-name="Grupo 1183453" transform="translate(8.913 58.296)">
        <g id="Grupo_1183451" data-name="Grupo 1183451" transform="translate(35.932 0)">
          <path id="Trazado_1044937" data-name="Trazado 1044937" d="M391.881,378.916H390.6v-6.6h-6.263v6.6h-1.283a1.174,1.174,0,0,0-.85,1.984l4.415,4.634a1.175,1.175,0,0,0,1.7,0l4.415-4.634A1.174,1.174,0,0,0,391.881,378.916Z" transform="translate(-381.874 -372.314)" fill="#fb3a82"/>
          <path id="Trazado_1044938" data-name="Trazado 1044938" d="M402.824,372.315h6.263v3.67h-6.263Z" transform="translate(-400.364 -372.315)" fill="#fb1466"/>
        </g>
        <g id="Grupo_1183452" data-name="Grupo 1183452" transform="translate(0 0)">
          <path id="Trazado_1044939" data-name="Trazado 1044939" d="M85.906,378.916H84.622v-6.6H78.359v6.6H77.076a1.174,1.174,0,0,0-.85,1.984l4.415,4.634a1.175,1.175,0,0,0,1.7,0l4.415-4.634A1.174,1.174,0,0,0,85.906,378.916Z" transform="translate(-75.899 -372.314)" fill="#fb3a82"/>
          <path id="Trazado_1044940" data-name="Trazado 1044940" d="M96.85,372.315h6.264v3.67H96.85Z" transform="translate(-94.39 -372.315)" fill="#fb1466"/>
        </g>
      </g>
      <g id="Grupo_1183460" data-name="Grupo 1183460" transform="translate(0.881 17.393)">
        <g id="Grupo_1183458" data-name="Grupo 1183458" transform="translate(4.816 10.601)">
          <g id="Grupo_1183455" data-name="Grupo 1183455">
            <path id="Trazado_1044941" data-name="Trazado 1044941" d="M102.062,115.457v29.274a1.175,1.175,0,0,1-1.174,1.175h-51.2a1.175,1.175,0,0,1-1.174-1.175V115.457a1.175,1.175,0,0,1,1.174-1.174h51.2A1.175,1.175,0,0,1,102.062,115.457Z" transform="translate(-48.514 -114.283)" fill="#a9eddc"/>
            <path id="Trazado_1044942" data-name="Trazado 1044942" d="M69.036,118.223a5.3,5.3,0,0,1-2.051,4.954,5.312,5.312,0,0,1-3.8,3.8A5.334,5.334,0,0,1,61,128.669a5.276,5.276,0,0,1-2.03.4,5.217,5.217,0,0,1-.728-.051,5.3,5.3,0,0,1-5.359,0,5.291,5.291,0,0,1-2.757-.353,5.347,5.347,0,0,1-1.606-1.039V115.457a1.175,1.175,0,0,1,1.174-1.174H69.612a5.248,5.248,0,0,1,.154,1.259A5.316,5.316,0,0,1,69.036,118.223Z" transform="translate(-48.514 -114.283)" fill="#64e0c4"/>
            <path id="Trazado_1044943" data-name="Trazado 1044943" d="M469.177,115.459v29.273A1.175,1.175,0,0,1,468,145.907h-3.525a1.175,1.175,0,0,0,1.175-1.175V115.459a1.175,1.175,0,0,0-1.175-1.175H468A1.175,1.175,0,0,1,469.177,115.459Z" transform="translate(-415.628 -114.284)" fill="#64e0c4"/>
            <g id="Grupo_1183454" data-name="Grupo 1183454" transform="translate(3.524 3.525)">
              <path id="Trazado_1044944" data-name="Trazado 1044944" d="M125.021,144.887V163.5a.59.59,0,0,1-.528.584,4.815,4.815,0,0,0-4.258,4.257.587.587,0,0,1-.582.527H79.109a.588.588,0,0,1-.588-.587V149.669a.589.589,0,0,1,.528-.584,4.816,4.816,0,0,0,4.258-4.257.588.588,0,0,1,.582-.528h40.543A.588.588,0,0,1,125.021,144.887Z" transform="translate(-78.521 -144.3)" fill="#27d1b3"/>
              <path id="Trazado_1044945" data-name="Trazado 1044945" d="M95.52,144.714a5.3,5.3,0,0,1-2.051,4.954,5.312,5.312,0,0,1-3.8,3.8,5.334,5.334,0,0,1-2.195,1.694,5.277,5.277,0,0,1-2.03.4,5.217,5.217,0,0,1-.728-.051,5.3,5.3,0,0,1-5.359,0,5.22,5.22,0,0,1-.728.051h-.112v-5.895a.589.589,0,0,1,.528-.584,4.816,4.816,0,0,0,4.258-4.257.588.588,0,0,1,.582-.528H95.739C95.672,144.441,95.6,144.579,95.52,144.714Z" transform="translate(-78.522 -144.299)" fill="#20b69f"/>
            </g>
          </g>
          <g id="Grupo_1183457" data-name="Grupo 1183457" transform="translate(7.043 7.199)">
            <circle id="Elipse_13175" data-name="Elipse 13175" cx="7.388" cy="7.388" r="7.388" transform="translate(12.343 1.224)" fill="#c8f2e7"/>
            <g id="Grupo_1183456" data-name="Grupo 1183456">
              <path id="Trazado_1044946" data-name="Trazado 1044946" d="M413.833,179.515h-1.576a1.175,1.175,0,0,1-1.175-1.175v-1.576a1.175,1.175,0,0,1,1.175-1.175h1.576a1.175,1.175,0,0,1,1.175,1.175v1.576A1.175,1.175,0,0,1,413.833,179.515Z" transform="translate(-375.547 -175.588)" fill="#c8f2e7"/>
              <path id="Trazado_1044947" data-name="Trazado 1044947" d="M109.666,288.824h1.576A1.175,1.175,0,0,1,112.418,290v1.576a1.175,1.175,0,0,1-1.175,1.175h-1.576a1.175,1.175,0,0,1-1.175-1.175V290A1.175,1.175,0,0,1,109.666,288.824Z" transform="translate(-108.491 -275.526)" fill="#c8f2e7"/>
            </g>
          </g>
        </g>
        <g id="Grupo_1183459" data-name="Grupo 1183459" transform="translate(0 0)">
          <path id="Trazado_1044948" data-name="Trazado 1044948" d="M31.22,35.872a2.953,2.953,0,0,0-.947-2.171,2.96,2.96,0,0,0-1.661-4.011,2.96,2.96,0,0,0-3.07-3.07,2.96,2.96,0,0,0-4.011-1.661,2.96,2.96,0,0,0-4.341,0,2.96,2.96,0,0,0-4.011,1.661,2.96,2.96,0,0,0-3.07,3.07A2.96,2.96,0,0,0,8.447,33.7a2.96,2.96,0,0,0,0,4.341,2.96,2.96,0,0,0,1.661,4.011,2.96,2.96,0,0,0,3.07,3.07,2.96,2.96,0,0,0,4.011,1.661,2.96,2.96,0,0,0,4.341,0,2.96,2.96,0,0,0,4.011-1.661,2.96,2.96,0,0,0,3.07-3.07,2.96,2.96,0,0,0,1.661-4.011A2.953,2.953,0,0,0,31.22,35.872Z" transform="translate(-7.5 -24.012)" fill="#fcb44d"/>
          <path id="Trazado_1044949" data-name="Trazado 1044949" d="M108,38.047a2.96,2.96,0,0,1-1.662,4.01,2.961,2.961,0,0,1-3.07,3.071,2.96,2.96,0,0,1-4.011,1.661,2.96,2.96,0,0,1-3.688.529,2.982,2.982,0,0,0,.651-.529,2.96,2.96,0,0,0,4.011-1.661,2.961,2.961,0,0,0,3.07-3.071,2.96,2.96,0,0,0,1.662-4.01,2.961,2.961,0,0,0,0-4.341A2.96,2.96,0,0,0,103.3,29.7a2.961,2.961,0,0,0-3.07-3.071,2.96,2.96,0,0,0-4.011-1.661,2.978,2.978,0,0,0-.651-.529,2.96,2.96,0,0,1,3.688.529,2.96,2.96,0,0,1,4.011,1.661,2.961,2.961,0,0,1,3.07,3.071A2.96,2.96,0,0,1,108,33.706a2.96,2.96,0,0,1,0,4.341Z" transform="translate(-85.227 -24.016)" fill="#fb9927"/>
          <circle id="Elipse_13176" data-name="Elipse 13176" cx="7.618" cy="7.618" r="7.618" transform="translate(4.241 4.241)" fill="#ffeed3"/>
        </g>
      </g>
      <g id="Grupo_1183462" data-name="Grupo 1183462" transform="translate(0 16.512)">
        <path id="Trazado_1044950" data-name="Trazado 1044950" d="M237.608,362.352v-8.807h-6.263v8.807h-1.284a1.174,1.174,0,0,0-.85,1.984l4.416,4.633a1.174,1.174,0,0,0,1.7,0l4.416-4.633a1.174,1.174,0,0,0-.85-1.984Z" transform="translate(-202.006 -313.965)" fill="#fb3a82"/>
        <g id="Grupo_1183461" data-name="Grupo 1183461" transform="translate(0 0)">
          <path id="Trazado_1044951" data-name="Trazado 1044951" d="M58.071,27.113H24.829c-.053-.079-.109-.157-.167-.232A3.838,3.838,0,0,0,22.846,22.5a3.838,3.838,0,0,0-3.353-3.353,3.838,3.838,0,0,0-4.381-1.815,3.838,3.838,0,0,0-4.742,0,3.838,3.838,0,0,0-4.381,1.815A3.838,3.838,0,0,0,2.635,22.5,3.838,3.838,0,0,0,.82,26.881a3.838,3.838,0,0,0,0,4.742A3.838,3.838,0,0,0,2.635,36,3.823,3.823,0,0,0,4.817,39.02s0,.009,0,.013V58.442A2.058,2.058,0,0,0,6.872,60.5h3.621v3.52h-.4A2.055,2.055,0,0,0,8.6,67.49l4.416,4.633a2.055,2.055,0,0,0,2.975,0l4.416-4.633a2.055,2.055,0,0,0-1.488-3.473h-.4V60.5h9.942v3.52h-.4a2.055,2.055,0,0,0-1.488,3.473l4.416,4.633a2.055,2.055,0,0,0,2.975,0l4.416-4.633a2.055,2.055,0,0,0-1.488-3.473h-.4V60.5h3.856a.881.881,0,1,0,0-1.762H36.483V56.972H50.352a1.468,1.468,0,0,0,1.459-1.313,3.951,3.951,0,0,1,3.478-3.477A1.468,1.468,0,0,0,56.6,50.724V32.106a1.47,1.47,0,0,0-1.469-1.468H25.221a3.837,3.837,0,0,0,.26-1.386c0-.127-.007-.253-.02-.378h32.61a.3.3,0,0,1,.294.294V58.442a.3.3,0,0,1-.294.294H44.292a.881.881,0,0,0,0,1.762h2.133v3.52h-.4a2.055,2.055,0,0,0-1.488,3.473l4.416,4.633a2.055,2.055,0,0,0,2.975,0l4.416-4.633a2.055,2.055,0,0,0-1.488-3.473h-.4V60.5h3.621a2.058,2.058,0,0,0,2.056-2.056V29.169a2.058,2.058,0,0,0-2.056-2.056ZM3.8,34.608A2.079,2.079,0,0,1,2.629,31.79a.881.881,0,0,0-.2-1.013,2.079,2.079,0,0,1,0-3.05.881.881,0,0,0,.2-1.013A2.079,2.079,0,0,1,3.8,23.9a.881.881,0,0,0,.573-.858,2.079,2.079,0,0,1,2.157-2.157.878.878,0,0,0,.858-.573A2.079,2.079,0,0,1,10.2,19.141a.881.881,0,0,0,1.013-.2,2.079,2.079,0,0,1,3.05,0,.881.881,0,0,0,1.013.2A2.079,2.079,0,0,1,18.1,20.308a.88.88,0,0,0,.858.573,2.079,2.079,0,0,1,2.157,2.157.881.881,0,0,0,.573.858,2.079,2.079,0,0,1,1.167,2.818.881.881,0,0,0,.2,1.013,2.079,2.079,0,0,1,0,3.05.881.881,0,0,0-.2,1.013,2.079,2.079,0,0,1-1.167,2.818.881.881,0,0,0-.573.858,2.079,2.079,0,0,1-2.157,2.157.877.877,0,0,0-.858.573,2.079,2.079,0,0,1-2.818,1.167.881.881,0,0,0-1.013.2,2.079,2.079,0,0,1-3.05,0,.881.881,0,0,0-1.013-.2A2.079,2.079,0,0,1,7.385,38.2a.879.879,0,0,0-.858-.573,2.079,2.079,0,0,1-2.157-2.157.88.88,0,0,0-.573-.858Zm13.84,31.171h1.284a.293.293,0,0,1,.212.5l-4.416,4.633a.294.294,0,0,1-.425,0L9.877,66.275a.293.293,0,0,1,.212-.5h1.284a.881.881,0,0,0,.881-.881V60.5h4.5v4.4A.881.881,0,0,0,17.637,65.779Zm19.25,0a.293.293,0,0,1,.212.5l-4.416,4.633a.294.294,0,0,1-.425,0l-4.416-4.633a.293.293,0,0,1,.212-.5H29.34a.881.881,0,0,0,.881-.881V56.972h4.5V64.9a.881.881,0,0,0,.881.881ZM54.841,50.465a5.729,5.729,0,0,0-4.746,4.745H10.1V49.47a.881.881,0,0,0-1.762,0V55.5a1.47,1.47,0,0,0,1.469,1.468h18.65v1.764H6.872a.3.3,0,0,1-.294-.294v-18.3a3.84,3.84,0,0,0,1.287.878,3.8,3.8,0,0,0,.475.158v4.337a.881.881,0,1,0,1.762,0V41.236c.09-.018.179-.038.268-.063a3.828,3.828,0,0,0,3.454.663v3.159a.881.881,0,0,0,1.762,0V41.27a3.826,3.826,0,0,0,3.908-1.912A3.838,3.838,0,0,0,22.846,36,3.822,3.822,0,0,0,24.79,32.4h30.05ZM53.569,65.779h1.284a.293.293,0,0,1,.212.5L50.65,70.908a.294.294,0,0,1-.425,0l-4.416-4.633a.293.293,0,0,1,.212-.5h1.284a.881.881,0,0,0,.881-.881V60.5h4.5v4.4A.881.881,0,0,0,53.569,65.779Z" transform="translate(0 -16.512)"/>
          <path id="Trazado_1044952" data-name="Trazado 1044952" d="M214.364,195.051a8.269,8.269,0,1,0-8.269-8.269A8.278,8.278,0,0,0,214.364,195.051Zm0-14.776a6.507,6.507,0,1,1-6.507,6.507A6.514,6.514,0,0,1,214.364,180.276Z" transform="translate(-181.892 -159.489)"/>
          <path id="Trazado_1044953" data-name="Trazado 1044953" d="M251.048,213.33h.054v1.133h-.881a.881.881,0,0,0,0,1.762h.881v.2a.881.881,0,0,0,1.762,0v-.2h.054a2.328,2.328,0,0,0,0-4.656h-.054v-1.133h.881a.881.881,0,0,0,0-1.762h-.881v-.2a.881.881,0,1,0-1.762,0v.2h-.054a2.328,2.328,0,0,0,0,4.656Zm1.869,0a.567.567,0,0,1,0,1.133h-.054V213.33Zm-1.869-2.895h.054v1.133h-.054a.567.567,0,0,1,0-1.133Z" transform="translate(-219.512 -185.156)"/>
          <path id="Trazado_1044954" data-name="Trazado 1044954" d="M405.639,173.777h1.576a2.058,2.058,0,0,0,2.056-2.056v-1.576a2.058,2.058,0,0,0-2.056-2.056h-1.576a2.058,2.058,0,0,0-2.056,2.056v1.576A2.058,2.058,0,0,0,405.639,173.777Zm-.294-3.632a.3.3,0,0,1,.294-.294h1.576a.3.3,0,0,1,.294.294v1.576a.3.3,0,0,1-.294.294h-1.576a.3.3,0,0,1-.294-.294Z" transform="translate(-356.188 -150.289)"/>
          <path id="Trazado_1044955" data-name="Trazado 1044955" d="M421.181,231.3a.881.881,0,0,0-.881.881v5.369a.881.881,0,1,0,1.762,0v-5.369A.881.881,0,0,0,421.181,231.3Z" transform="translate(-370.942 -206.074)"/>
          <path id="Trazado_1044956" data-name="Trazado 1044956" d="M104.624,281.323h-1.576a2.058,2.058,0,0,0-2.056,2.056v1.576a2.058,2.058,0,0,0,2.056,2.056h1.576a2.058,2.058,0,0,0,2.056-2.056v-1.576A2.058,2.058,0,0,0,104.624,281.323Zm.294,3.632a.3.3,0,0,1-.294.294h-1.576a.3.3,0,0,1-.294-.294v-1.576a.3.3,0,0,1,.294-.294h1.576a.3.3,0,0,1,.294.294Z" transform="translate(-89.132 -250.225)"/>
          <path id="Trazado_1044957" data-name="Trazado 1044957" d="M84.777,102.165a.881.881,0,0,0,0-1.762h-.016a.876.876,0,0,0-.875.876.886.886,0,0,0,.882.885Z" transform="translate(-74.039 -90.551)"/>
          <path id="Trazado_1044958" data-name="Trazado 1044958" d="M118.976,136.363a.881.881,0,1,0,0-1.762h-.011a.876.876,0,0,0-.875.881A.886.886,0,0,0,118.976,136.363Z" transform="translate(-104.222 -120.733)"/>
          <path id="Trazado_1044959" data-name="Trazado 1044959" d="M87.85,107.076a.881.881,0,0,0,1.242-.094l3.158-3.676a.881.881,0,1,0-1.336-1.148l-3.158,3.676A.88.88,0,0,0,87.85,107.076Z" transform="translate(-77.263 -91.829)"/>
          <path id="Trazado_1044960" data-name="Trazado 1044960" d="M44.615,69.626a8.5,8.5,0,0,0,7.29-12.868.881.881,0,1,0-1.51.907,6.738,6.738,0,1,1-2.515-2.431.881.881,0,0,0,.855-1.54,8.5,8.5,0,1,0-4.121,15.933Z" transform="translate(-31.875 -48.387)"/>
        </g>
      </g>
    </g>
  </g>
</svg>
