<svg xmlns="http://www.w3.org/2000/svg" xmlns:xlink="http://www.w3.org/1999/xlink" width="93.656" height="93.656" viewBox="0 0 93.656 93.656">
  <defs>
    <filter id="Trazado_982547" x="0" y="0" width="93.656" height="93.656" filterUnits="userSpaceOnUse">
      <feOffset dy="3" input="SourceAlpha"/>
      <feGaussianBlur stdDeviation="3" result="blur"/>
      <feFlood flood-opacity="0.161"/>
      <feComposite operator="in" in2="blur"/>
      <feComposite in="SourceGraphic"/>
    </filter>
  </defs>
  <g id="Grupo_1183564" data-name="Grupo 1183564" transform="translate(-194.461 -857.128)">
    <g id="Grupo_1183033" data-name="Grupo 1183033">
      <g id="Grupo_1182352" data-name="Grupo 1182352" transform="translate(0 -1625.054)">
        <g id="Grupo_1181671" data-name="Grupo 1181671" transform="translate(-0.539 1249.182)">
          <g id="Grupo_1180314" data-name="Grupo 1180314" transform="translate(-5.461 -6557)">
            <g id="Grupo_1174894" data-name="Grupo 1174894" transform="translate(11.291 2507.168)">
              <g id="Grupo_1172067" data-name="Grupo 1172067" transform="translate(198.17 5288.832)">
                <g id="Grupo_1164308" data-name="Grupo 1164308" transform="translate(0 0)">
                  <g id="Grupo_1163948" data-name="Grupo 1163948" transform="translate(0)">
                    <g id="Grupo_1158168" data-name="Grupo 1158168" transform="translate(0)">
                      <g id="Grupo_1152576" data-name="Grupo 1152576">
                        <g id="Grupo_1148633" data-name="Grupo 1148633">
                          <g id="Grupo_1148525" data-name="Grupo 1148525">
                            <g transform="matrix(1, 0, 0, 1, -9, -6)" filter="url(#Trazado_982547)">
                              <g id="Trazado_982547-2" data-name="Trazado 982547" transform="translate(9 6)" fill="#f2f7f5">
                                <path d="M 37.8281364440918 74.15627288818359 C 32.92320251464844 74.15627288818359 28.16579246520996 73.19596862792969 23.68804740905762 71.30204772949219 C 19.36230278015137 69.47240447998047 15.47705841064453 66.85280609130859 12.1402702331543 63.51601409912109 C 8.803469657897949 60.17921447753906 6.1838698387146 56.29397964477539 4.354236602783203 51.96822357177734 C 2.460303068161011 47.49048233032227 1.500003099441528 42.73307037353516 1.500003099441528 37.8281364440918 C 1.500003099441528 32.92321395874023 2.460303068161011 28.16579246520996 4.354236602783203 23.68804740905762 C 6.1838698387146 19.36230278015137 8.803469657897949 15.47706985473633 12.1402702331543 12.1402702331543 C 15.47706985473633 8.803469657897949 19.36230278015137 6.1838698387146 23.68804740905762 4.354236602783203 C 28.16579246520996 2.460303068161011 32.92321395874023 1.500003099441528 37.8281364440918 1.500003099441528 C 42.73307037353516 1.500003099441528 47.49048233032227 2.460303068161011 51.96822357177734 4.354236602783203 C 56.29397964477539 6.1838698387146 60.17921447753906 8.803469657897949 63.51601409912109 12.1402702331543 C 66.85280609130859 15.47705841064453 69.47240447998047 19.36230278015137 71.30204772949219 23.68804740905762 C 73.19596862792969 28.16579246520996 74.15627288818359 32.92320251464844 74.15627288818359 37.8281364440918 C 74.15627288818359 42.73307037353516 73.19596862792969 47.49048233032227 71.30204772949219 51.96822357177734 C 69.47240447998047 56.29397964477539 66.85280609130859 60.17921447753906 63.51601409912109 63.51601409912109 C 60.17921447753906 66.85280609130859 56.29397964477539 69.47240447998047 51.96822357177734 71.30204772949219 C 47.49048233032227 73.19596862792969 42.73307037353516 74.15627288818359 37.8281364440918 74.15627288818359 Z" stroke="none"/>
                                <path d="M 37.8281364440918 3 C 33.12504959106445 3 28.56423568725586 3.920433044433594 24.27237319946289 5.735733032226562 C 20.12542343139648 7.48974609375 16.40044784545898 10.00139617919922 13.20092391967773 13.20092391967773 C 10.00139617919922 16.40044784545898 7.48974609375 20.12542343139648 5.735733032226562 24.27237319946289 C 3.920433044433594 28.56423568725586 3 33.12504959106445 3 37.8281364440918 C 3 42.53122329711914 3.920433044433594 47.09203720092773 5.735733032226562 51.3838996887207 C 7.48974609375 55.53084945678711 10.00139617919922 59.25582122802734 13.20092391967773 62.45534896850586 C 16.40044784545898 65.65487670898438 20.12542343139648 68.16652679443359 24.27237319946289 69.92053985595703 C 28.56423568725586 71.73583984375 33.12504959106445 72.65627288818359 37.8281364440918 72.65627288818359 C 42.53122329711914 72.65627288818359 47.09203720092773 71.73583984375 51.3838996887207 69.92053985595703 C 55.53084945678711 68.16652679443359 59.25582122802734 65.65487670898438 62.45534896850586 62.45534896850586 C 65.65487670898438 59.25582122802734 68.16652679443359 55.53084945678711 69.92053985595703 51.3838996887207 C 71.73583984375 47.09203720092773 72.65627288818359 42.53122329711914 72.65627288818359 37.8281364440918 C 72.65627288818359 33.12504959106445 71.73583984375 28.56423568725586 69.92053985595703 24.27237319946289 C 68.16652679443359 20.12542343139648 65.65487670898438 16.40044784545898 62.45534896850586 13.20092391967773 C 59.25582122802734 10.00139617919922 55.53084945678711 7.48974609375 51.3838996887207 5.735733032226562 C 47.09203720092773 3.920433044433594 42.53122329711914 3 37.8281364440918 3 M 37.8281364440918 0 C 58.72003555297852 0 75.65627288818359 16.93623733520508 75.65627288818359 37.8281364440918 C 75.65627288818359 58.72003555297852 58.72003555297852 75.65627288818359 37.8281364440918 75.65627288818359 C 16.93623733520508 75.65627288818359 0 58.72003555297852 0 37.8281364440918 C 0 16.93623733520508 16.93623733520508 0 37.8281364440918 0 Z" stroke="none" fill="#4a665c"/>
                              </g>
                            </g>
                          </g>
                        </g>
                      </g>
                    </g>
                  </g>
                </g>
              </g>
            </g>
          </g>
        </g>
      </g>
    </g>
    <g id="Page-1" transform="translate(219.46 881.192)">
      <g id="_001---Speech-Bubble" data-name="001---Speech-Bubble" transform="translate(0)">
        <ellipse id="Oval" cx="2.258" cy="2.258" rx="2.258" ry="2.258" transform="translate(31.615 15.807)" fill="#4a665c"/>
        <ellipse id="Oval-2" data-name="Oval" cx="2.258" cy="2.258" rx="2.258" ry="2.258" transform="translate(19.571 15.807)" fill="#4a665c"/>
        <ellipse id="Oval-3" data-name="Oval" cx="2.258" cy="2.258" rx="2.258" ry="2.258" transform="translate(7.527 15.807)" fill="#4a665c"/>
        <path id="Shape" d="M8.28,0h27.1a8.28,8.28,0,0,1,8.28,8.28V27.851a8.28,8.28,0,0,1-8.28,8.28H14.193a.753.753,0,0,0-.56.25L7.324,43.417a.753.753,0,0,1-1.287-.655l.969-6.029a.742.742,0,0,0-.55-.845A8.36,8.36,0,0,1,0,27.851V8.28A8.28,8.28,0,0,1,8.28,0ZM32.367,2.258a.753.753,0,1,0,.753.753A.753.753,0,0,0,32.367,2.258ZM39.895,8.28a.753.753,0,1,0,1.505,0,6.029,6.029,0,0,0-6.022-6.022.753.753,0,0,0,0,1.505A4.521,4.521,0,0,1,39.895,8.28ZM33.873,21.829a3.764,3.764,0,1,0-3.764-3.764A3.764,3.764,0,0,0,33.873,21.829Zm-12.044,0a3.764,3.764,0,1,0-3.764-3.764A3.764,3.764,0,0,0,21.829,21.829Zm-12.044,0a3.764,3.764,0,1,0-3.764-3.764A3.764,3.764,0,0,0,9.785,21.829Z" transform="translate(0)" fill="#4a665c"/>
      </g>
    </g>
  </g>
</svg>
