<svg xmlns="http://www.w3.org/2000/svg" xmlns:xlink="http://www.w3.org/1999/xlink" width="110" height="110" viewBox="0 0 110 110">
  <defs>
    <filter id="Trazado_982547" x="0" y="0" width="110" height="110" filterUnits="userSpaceOnUse">
      <feOffset dy="3" input="SourceAlpha"/>
      <feGaussianBlur stdDeviation="3" result="blur"/>
      <feFlood flood-opacity="0.161"/>
      <feComposite operator="in" in2="blur"/>
      <feComposite in="SourceGraphic"/>
    </filter>
  </defs>
  <g id="Grupo_1182958" data-name="Grupo 1182958" transform="translate(-798 -1427.313)">
    <g id="Grupo_1179215" data-name="Grupo 1179215" transform="translate(1 -2794.687)">
      <g id="Grupo_1171898" data-name="Grupo 1171898" transform="translate(806 4228)">
        <g id="Grupo_1164700" data-name="Grupo 1164700" transform="translate(0 0)">
          <g id="Grupo_1160931" data-name="Grupo 1160931" transform="translate(0 0)">
            <g id="Grupo_1160749" data-name="Grupo 1160749" transform="translate(0 0)">
              <g id="Grupo_1158891" data-name="Grupo 1158891" transform="translate(0 0)">
                <g id="Grupo_1157406" data-name="Grupo 1157406" transform="translate(0 0)">
                  <g id="Grupo_1155793" data-name="Grupo 1155793">
                    <g id="Grupo_1154704" data-name="Grupo 1154704">
                      <g id="Grupo_1150790" data-name="Grupo 1150790">
                        <g id="Grupo_1154214" data-name="Grupo 1154214">
                          <g id="Grupo_1152583" data-name="Grupo 1152583">
                            <g id="Grupo_1146973" data-name="Grupo 1146973">
                              <g id="Grupo_1146954" data-name="Grupo 1146954">
                                <g transform="matrix(1, 0, 0, 1, -9, -6)" filter="url(#Trazado_982547)">
                                  <g id="Trazado_982547-2" data-name="Trazado 982547" transform="translate(9 6)" fill="#f2f7f5">
                                    <path d="M 46.00000762939453 90.49987030029297 C 39.99188613891602 90.49987030029297 34.16427612304688 89.32350921630859 28.67906188964844 87.00345611572266 C 23.38020706176758 84.76224517822266 18.62104797363281 81.55341339111328 14.53375434875488 77.46613311767578 C 10.44647407531738 73.37885284423828 7.237647533416748 68.61969757080078 4.996420860290527 63.32085418701172 C 2.676367521286011 57.83565521240234 1.500007629394531 52.008056640625 1.500007629394531 45.99993515014648 C 1.500007629394531 39.99181365966797 2.676367521286011 34.16421508789062 4.996420860290527 28.67901420593262 C 7.237647533416748 23.38017463684082 10.44647407531738 18.62101554870605 14.53375434875488 14.53373527526855 C 18.62104797363281 10.44645500183105 23.38020706176758 7.23762845993042 28.67906188964844 4.996415138244629 C 34.16427612304688 2.676361799240112 39.99188613891602 1.500001788139343 46.00000762939453 1.500001788139343 C 52.00812911987305 1.500001788139343 57.83573913574219 2.676361799240112 63.32095336914062 4.996415138244629 C 68.61980438232422 7.23762845993042 73.37896728515625 10.44645500183105 77.46626281738281 14.53373527526855 C 81.55354309082031 18.62101554870605 84.76236724853516 23.38017463684082 87.00359344482422 28.67901420593262 C 89.32364654541016 34.16421508789062 90.50000762939453 39.99181365966797 90.50000762939453 45.99993515014648 C 90.50000762939453 52.008056640625 89.32364654541016 57.83565521240234 87.00359344482422 63.32085418701172 C 84.76236724853516 68.61969757080078 81.55354309082031 73.37885284423828 77.46626281738281 77.46613311767578 C 73.37896728515625 81.55341339111328 68.61980438232422 84.76224517822266 63.32095336914062 87.00345611572266 C 57.83573913574219 89.32350921630859 52.00812911987305 90.49987030029297 46.00000762939453 90.49987030029297 Z" stroke="none"/>
                                    <path d="M 46.00000762939453 2.999992370605469 C 40.19372177124023 2.999992370605469 34.56270599365234 4.136489868164062 29.26339340209961 6.377906799316406 C 24.14333343505859 8.543502807617188 19.54443359375 11.64437866210938 15.59442138671875 15.59437561035156 C 11.6444091796875 19.54439544677734 8.543533325195312 24.14329528808594 6.377937316894531 29.26333618164062 C 4.136505126953125 34.56264877319336 3.000007629394531 40.19366455078125 3.000007629394531 45.99993515014648 C 3.000007629394531 51.80620574951172 4.136505126953125 57.43720626831055 6.377937316894531 62.73651885986328 C 8.543533325195312 67.8565673828125 11.6444091796875 72.45545959472656 15.59442138671875 76.40547943115234 C 19.54443359375 80.35547637939453 24.14333343505859 83.45635223388672 29.26339340209961 85.6219482421875 C 34.56270599365234 87.86336517333984 40.19372177124023 88.99986267089844 46.00000762939453 88.99986267089844 C 51.80629348754883 88.99986267089844 57.43730926513672 87.86336517333984 62.73663711547852 85.6219482421875 C 67.85668182373047 83.45635223388672 72.45559692382812 80.35547637939453 76.40560913085938 76.40547943115234 C 80.35560607910156 72.45545959472656 83.45649719238281 67.8565673828125 85.62209320068359 62.73651885986328 C 87.86351013183594 57.43720626831055 89.00000762939453 51.80620574951172 89.00000762939453 45.99993515014648 C 89.00000762939453 40.19366455078125 87.86351013183594 34.56264877319336 85.62209320068359 29.26333618164062 C 83.45649719238281 24.14329528808594 80.35560607910156 19.54439544677734 76.40560913085938 15.59437561035156 C 72.45559692382812 11.64437866210938 67.85668182373047 8.543502807617188 62.73663711547852 6.377906799316406 C 57.43730926513672 4.136489868164062 51.80629348754883 2.999992370605469 46.00000762939453 2.999992370605469 M 46.00000762939453 -7.62939453125e-06 C 71.40510559082031 -7.62939453125e-06 92.00000762939453 20.59486389160156 92.00000762939453 45.99993515014648 C 92.00000762939453 71.40499114990234 71.40510559082031 91.99986267089844 46.00000762939453 91.99986267089844 C 20.59492492675781 91.99986267089844 7.62939453125e-06 71.40499114990234 7.62939453125e-06 45.99993515014648 C 7.62939453125e-06 20.59486389160156 20.59492492675781 -7.62939453125e-06 46.00000762939453 -7.62939453125e-06 Z" stroke="none" fill="#4a665c"/>
                                  </g>
                                </g>
                              </g>
                            </g>
                          </g>
                        </g>
                      </g>
                    </g>
                  </g>
                </g>
              </g>
            </g>
          </g>
        </g>
      </g>
    </g>
    <g id="economia" transform="translate(819.167 1445.481)">
      <g id="Grupo_1182956" data-name="Grupo 1182956" transform="translate(0.991 0.99)">
        <g id="Grupo_1182955" data-name="Grupo 1182955">
          <path id="Trazado_1043751" data-name="Trazado 1043751" d="M50.336,10.157,43.485,7.582a1.246,1.246,0,0,0-1.668,1.37l.287,1.734A31.482,31.482,0,0,0,21.368,35.427a1.945,1.945,0,1,0,3.842.605A27.578,27.578,0,0,1,42.751,14.586l.263,1.587a1.246,1.246,0,0,0,2.021.759l5.654-4.646A1.246,1.246,0,0,0,50.336,10.157Z" transform="translate(-19.514 -7.501)" fill="#0ed2b3"/>
          <path id="Trazado_1043752" data-name="Trazado 1043752" d="M304.911,41.819l-1.734.287a31.482,31.482,0,0,0-24.741-20.737,1.945,1.945,0,1,0-.605,3.842,27.578,27.578,0,0,1,21.446,17.541l-1.587.263a1.246,1.246,0,0,0-.759,2.021l4.646,5.654a1.246,1.246,0,0,0,2.13-.353l2.575-6.85a1.246,1.246,0,0,0-1.37-1.668Z" transform="translate(-240.678 -19.516)" fill="#0ed2b3"/>
          <path id="Trazado_1043753" data-name="Trazado 1043753" d="M293.329,276.214a1.945,1.945,0,0,0-2.224,1.619,27.577,27.577,0,0,1-17.541,21.446l-.263-1.587a1.246,1.246,0,0,0-2.021-.759l-5.654,4.646a1.246,1.246,0,0,0,.353,2.13l6.85,2.575a1.246,1.246,0,0,0,1.668-1.37l-.287-1.734a31.481,31.481,0,0,0,20.737-24.741A1.945,1.945,0,0,0,293.329,276.214Z" transform="translate(-231.117 -240.679)" fill="#0ed2b3"/>
          <path id="Trazado_1043754" data-name="Trazado 1043754" d="M36.031,291.107a27.578,27.578,0,0,1-21.446-17.541l1.587-.263a1.246,1.246,0,0,0,.759-2.021l-4.646-5.654a1.246,1.246,0,0,0-2.13.353l-2.575,6.85a1.246,1.246,0,0,0,1.37,1.668l1.734-.287a31.482,31.482,0,0,0,24.741,20.737,1.945,1.945,0,1,0,.605-3.842Z" transform="translate(-7.5 -231.118)" fill="#0ed2b3"/>
        </g>
        <circle id="Elipse_13131" data-name="Elipse 13131" cx="19.246" cy="19.246" r="19.246" transform="translate(13.596 13.596)" fill="#fef48b"/>
        <path id="Trazado_1043755" data-name="Trazado 1043755" d="M131.314,148.79q-.837.073-1.694.074a19.247,19.247,0,1,1,0-38.494q.856,0,1.694.074a19.247,19.247,0,0,0,0,38.346Z" transform="translate(-96.777 -96.775)" fill="#fee45a"/>
        <circle id="Elipse_13132" data-name="Elipse 13132" cx="14.364" cy="14.364" r="14.364" transform="translate(18.478 18.478)" fill="#fee45a"/>
        <path id="Trazado_1043756" data-name="Trazado 1043756" d="M252.915,161.683A14.368,14.368,0,0,1,235.894,175.8a14.364,14.364,0,0,0,0-28.232,14.368,14.368,0,0,1,17.021,14.116Z" transform="translate(-205.709 -128.841)" fill="#ffd15b"/>
      </g>
      <g id="Grupo_1182957" data-name="Grupo 1182957" transform="translate(0 -0.002)">
        <path id="Trazado_1043757" data-name="Trazado 1043757" d="M16.329,32.119a2.957,2.957,0,0,0,.459.036,2.921,2.921,0,0,0,2.9-2.48A26.511,26.511,0,0,1,35.47,9.453l.062.372a2.237,2.237,0,0,0,3.628,1.363l5.654-4.646a2.237,2.237,0,0,0-.633-3.823L37.33.144A2.237,2.237,0,0,0,34.336,2.6l.152.919a32.477,32.477,0,0,0-20.6,25.238,2.936,2.936,0,0,0,2.444,3.357Zm-.486-3.049A30.49,30.49,0,0,1,35.925,5.113a.991.991,0,0,0,.654-1.1l-.287-1.734a.244.244,0,0,1,.09-.239.248.248,0,0,1,.158-.06A.265.265,0,0,1,36.633,2l6.85,2.575a.255.255,0,0,1,.072.436L37.9,9.657a.255.255,0,0,1-.414-.155l-.263-1.587A.991.991,0,0,0,35.9,7.148a28.5,28.5,0,0,0-18.173,22.22.952.952,0,0,1-1.09.794.954.954,0,0,1-.794-1.09Z" transform="translate(-12.018 0.002)"/>
        <path id="Trazado_1043758" data-name="Trazado 1043758" d="M300.335,35.125a2.212,2.212,0,0,0-2.094-.786l-.92.152a32.476,32.476,0,0,0-25.237-20.6,2.936,2.936,0,1,0-.914,5.8,26.091,26.091,0,0,1,3.2.712.991.991,0,0,0,.551-1.9,28.072,28.072,0,0,0-3.439-.766.954.954,0,0,1-.414-1.713.946.946,0,0,1,.71-.17,30.489,30.489,0,0,1,23.957,20.08.991.991,0,0,0,1.1.654l1.734-.287a.254.254,0,0,1,.279.341l-2.575,6.85a.254.254,0,0,1-.435.072L291.189,37.9a.255.255,0,0,1,.155-.414l1.587-.263A.991.991,0,0,0,293.7,35.9a28.609,28.609,0,0,0-14.321-15.695.991.991,0,0,0-.863,1.784,26.646,26.646,0,0,1,12.878,13.481l-.372.062a2.237,2.237,0,0,0-1.362,3.628l4.645,5.654a2.211,2.211,0,0,0,1.719.818,2.305,2.305,0,0,0,.376-.031,2.214,2.214,0,0,0,1.728-1.42l2.574-6.849A2.214,2.214,0,0,0,300.335,35.125Z" transform="translate(-233.179 -12.021)"/>
        <path id="Trazado_1043759" data-name="Trazado 1043759" d="M286.968,268.724a2.937,2.937,0,0,0-3.357,2.444,26.509,26.509,0,0,1-15.784,20.222l-.062-.372a2.237,2.237,0,0,0-3.628-1.362l-5.654,4.645a2.237,2.237,0,0,0,.633,3.823l6.849,2.574a2.254,2.254,0,0,0,.8.146,2.241,2.241,0,0,0,2.2-2.605l-.152-.92a31.893,31.893,0,0,0,2.99-1.3.991.991,0,0,0-.883-1.775,30.028,30.028,0,0,1-3.543,1.486.991.991,0,0,0-.654,1.1l.287,1.735a.254.254,0,0,1-.341.279l-6.85-2.575a.254.254,0,0,1-.072-.435l5.654-4.646a.255.255,0,0,1,.414.155l.263,1.587a.991.991,0,0,0,1.325.767,28.5,28.5,0,0,0,18.173-22.22.953.953,0,1,1,1.883.3,30.537,30.537,0,0,1-12.77,20.249.991.991,0,0,0,1.128,1.63,32.529,32.529,0,0,0,13.6-21.57,2.935,2.935,0,0,0-2.443-3.358Z" transform="translate(-223.611 -233.177)"/>
        <path id="Trazado_1043760" data-name="Trazado 1043760" d="M29.677,283.614A26.51,26.51,0,0,1,9.455,267.829l.372-.062a2.237,2.237,0,0,0,1.363-3.628l-4.646-5.654a2.238,2.238,0,0,0-3.823.633l-2.574,6.85a2.237,2.237,0,0,0,2.46,2.994l.919-.152a32.477,32.477,0,0,0,25.238,20.6,2.955,2.955,0,0,0,.459.036,2.936,2.936,0,0,0,.454-5.836Zm.485,3.049a.96.96,0,0,1-.94.806.97.97,0,0,1-.151-.012A30.49,30.49,0,0,1,5.115,267.375a.99.99,0,0,0-1.1-.654l-1.734.287a.255.255,0,0,1-.28-.341l2.574-6.85a.255.255,0,0,1,.436-.072L9.658,265.4a.255.255,0,0,1-.156.414l-1.587.263a.991.991,0,0,0-.767,1.325,28.5,28.5,0,0,0,22.22,18.173.954.954,0,0,1,.794,1.09Z" transform="translate(0 -223.613)"/>
        <path id="Trazado_1043761" data-name="Trazado 1043761" d="M143.352,123.115a20.237,20.237,0,1,0-20.237,20.237,20.26,20.26,0,0,0,20.237-20.237ZM123.115,141.37a18.255,18.255,0,1,1,18.255-18.255A18.275,18.275,0,0,1,123.115,141.37Z" transform="translate(-89.281 -89.281)"/>
        <path id="Trazado_1043762" data-name="Trazado 1043762" d="M155.178,139.824a15.363,15.363,0,0,0-14.837,19.316.991.991,0,0,0,1.915-.512,13.379,13.379,0,1,1,1.756,3.909.991.991,0,0,0-1.654,1.092,15.355,15.355,0,1,0,12.82-23.8Z" transform="translate(-121.345 -121.344)"/>
        <path id="Trazado_1043763" data-name="Trazado 1043763" d="M221.374,195.542a.991.991,0,1,0-1.085,1.659,5.954,5.954,0,0,0,3.25,1.139v1.072a.991.991,0,1,0,1.982,0v-1.151a4.856,4.856,0,0,0,3.811-3.983A4.263,4.263,0,0,0,226.4,189.4c-.288-.1-.582-.208-.876-.32v-4.69a3.055,3.055,0,0,1,1.207.578A.991.991,0,0,0,228,183.444a5.211,5.211,0,0,0-2.475-1.068v-.958a.991.991,0,1,0-1.982,0v1.033c-.147.032-.3.07-.449.116a4.036,4.036,0,0,0-2.765,3.167,3.554,3.554,0,0,0,1.163,3.5,9.573,9.573,0,0,0,2.051,1.174v5.943A4.07,4.07,0,0,1,221.374,195.542Zm1.338-7.865a1.6,1.6,0,0,1-.439-1.575,2.1,2.1,0,0,1,1.266-1.593v3.7A5.951,5.951,0,0,1,222.712,187.676Zm3.025,3.592a2.312,2.312,0,0,1,1.641,2.68,2.914,2.914,0,0,1-1.856,2.252v-5.01Z" transform="translate(-190.786 -156.581)"/>
      </g>
    </g>
  </g>
</svg>
