<svg xmlns="http://www.w3.org/2000/svg" xmlns:xlink="http://www.w3.org/1999/xlink" width="245" height="182" viewBox="0 0 245 182">
  <defs>
    <clipPath id="clip-path">
      <rect id="Rectángulo_415836" data-name="Rectángulo 415836" width="245" height="182" transform="translate(0 5)" fill="#fff" stroke="#707070" stroke-width="1"/>
    </clipPath>
  </defs>
  <g id="Enmascarar_grupo_1098834" data-name="Enmascarar grupo 1098834" transform="translate(0 -5)" clip-path="url(#clip-path)">
    <g id="Grupo_1182999" data-name="Grupo 1182999" transform="translate(28.987 8.782)">
      <ellipse id="Elipse_13155" data-name="Elipse 13155" cx="80" cy="73" rx="80" ry="73" transform="translate(28.043 19.669)" fill="#fdf6ea"/>
      <g id="Grupo_1182998" data-name="Grupo 1182998">
        <g id="Grupo_1182987" data-name="Grupo 1182987" transform="translate(15.031 0)">
          <g id="Grupo_1182980" data-name="Grupo 1182980" transform="translate(0 16.355)">
            <g id="Grupo_1182979" data-name="Grupo 1182979">
              <path id="Trazado_1043787" data-name="Trazado 1043787" d="M1068.054,321.372a48.628,48.628,0,0,1-7.645-2.265c-3.964-1.557-8.353-.708-12.742,7.22s-8.07,10.618-4.106,19.254,6.654,16,7.079,24.776,2.407,11.751,8.353,7.787,6.654-4.531,2.69-7.362-.283-15.715-3.539-19.962-5.8-13.167-1.84-16.989,7.22,1.274,11.75,1.557,6.654-.708,6.937,4.389,3.681,24.634,3.681,27.891a5.808,5.808,0,0,0,2.831,4.814l.991,15.432a30.113,30.113,0,0,0-5.521,16.561c0,9.347-3.681,29.593-3.539,32.283s11.468,6.909,17.7,7.985,29.512,1.574,29.512,1.574,21.895-1.779,22.575-2.929-2.3-38.509-2.722-45.576-2.437-9.375-2.437-9.375V373.578a6.91,6.91,0,0,0,3.606-6.058c.288-4.616,6.058-22.356,12.116-28.7s8.221-6.058,8.654-6.923-1.731-5.192-8.8-6.058-39.809-10.818-39.809-10.818a49.086,49.086,0,0,0,1.31-6.72c0-1.615-4.011-2.73-4.735-2.674s-4.512,1.615-4.4,2.841.891,6.3.891,6.3-19.747,6.17-21.069,6.475a30.06,30.06,0,0,1-9.148,0C1073.624,320.627,1071.121,319.778,1068.054,321.372Z" transform="translate(-1041.721 -305.623)" fill="#84b3f7"/>
              <path id="Trazado_1043788" data-name="Trazado 1043788" d="M1052.485,367.414c-3.634,2.978-6.721,8.9-9.281,13.419a14.262,14.262,0,0,0-1.823,4.251c-.595,3.113.881,6.2,2.162,9.1a87.34,87.34,0,0,1,6.867,25.3,12.97,12.97,0,0,0,1.069,4.614,4.026,4.026,0,0,0,3.81,2.348" transform="translate(-1041.245 -352.698)" fill="none" stroke="#2d4c35" stroke-linecap="round" stroke-linejoin="round" stroke-miterlimit="10" stroke-width="1"/>
              <path id="Trazado_1043789" data-name="Trazado 1043789" d="M1100.96,419.825a7.5,7.5,0,0,1,8.036-.346c.839.5,1.576,1.168,2.443,1.62a8.249,8.249,0,0,0,4.181.756,7.32,7.32,0,0,1,2.417.1,1.886,1.886,0,0,1,1.455,1.722" transform="translate(-1086.738 -391.6)" fill="none" stroke="#2d4c35" stroke-linecap="round" stroke-linejoin="round" stroke-miterlimit="10" stroke-width="1"/>
              <path id="Trazado_1043790" data-name="Trazado 1043790" d="M1144.215,372.71a6.266,6.266,0,0,0-.781,6.019,4.8,4.8,0,0,0,5.145,2.818,4.258,4.258,0,0,0,3.244-3.48,2.96,2.96,0,0,0-.562-2.313,1.888,1.888,0,0,0-2.205-.549" transform="translate(-1118.752 -356.732)" fill="none" stroke="#2d4c35" stroke-linecap="round" stroke-linejoin="round" stroke-miterlimit="10" stroke-width="1"/>
              <path id="Trazado_1043791" data-name="Trazado 1043791" d="M1315.574,307.948c-1.3.827-3.251,1.463-3.439,2.992a5.265,5.265,0,0,0,.267,1.981l1.041,3.891" transform="translate(-1247.604 -307.394)" fill="none" stroke="#2d4c35" stroke-linecap="round" stroke-linejoin="round" stroke-miterlimit="10" stroke-width="1"/>
              <path id="Trazado_1043792" data-name="Trazado 1043792" d="M1323.622,346.983a26.68,26.68,0,0,0-2.606,8.7,43.124,43.124,0,0,0-.083,5.949q.621,19.366,1.243,38.732" transform="translate(-1254.275 -337.133)" fill="none" stroke="#2d4c35" stroke-linecap="round" stroke-linejoin="round" stroke-miterlimit="10" stroke-width="1"/>
              <path id="Trazado_1043793" data-name="Trazado 1043793" d="M1418.854,394.387q-2.71,20.6-4.52,41.315a2.591,2.591,0,0,0,.11,1.306,2.223,2.223,0,0,0,.959.919,7.824,7.824,0,0,0,7.617.09" transform="translate(-1325.455 -373.247)" fill="none" stroke="#2d4c35" stroke-linecap="round" stroke-linejoin="round" stroke-miterlimit="10" stroke-width="1"/>
              <path id="Trazado_1043794" data-name="Trazado 1043794" d="M1212.56,392.885a267.718,267.718,0,0,0,3.166,39.334,6.1,6.1,0,0,0,1.06,3.041,5.168,5.168,0,0,0,2.689,1.483,31.458,31.458,0,0,0,8.63.723" transform="translate(-1171.759 -372.102)" fill="none" stroke="#2d4c35" stroke-linecap="round" stroke-linejoin="round" stroke-miterlimit="10" stroke-width="1"/>
              <path id="Trazado_1043795" data-name="Trazado 1043795" d="M1462.251,393.6q-1.712,16.365-2.4,32.816" transform="translate(-1360.155 -372.644)" fill="none" stroke="#2d4c35" stroke-linecap="round" stroke-linejoin="round" stroke-miterlimit="10" stroke-width="1"/>
              <path id="Trazado_1043796" data-name="Trazado 1043796" d="M1182.17,390.429c18.705.5,37.416.995,56.126.782q9.324-.106,18.642-.447" transform="translate(-1148.607 -370.231)" fill="none" stroke="#2d4c35" stroke-linecap="round" stroke-linejoin="round" stroke-miterlimit="10" stroke-width="1"/>
              <path id="Trazado_1043797" data-name="Trazado 1043797" d="M1239.273,351.234l-13.961,6.876-3.085,1.519" transform="translate(-1179.124 -340.371)" fill="none" stroke="#2d4c35" stroke-linecap="round" stroke-linejoin="round" stroke-miterlimit="10" stroke-width="1"/>
              <path id="Trazado_1043798" data-name="Trazado 1043798" d="M1187.64,377.4q2.778-1.086,5.508-2.292" transform="translate(-1152.774 -358.556)" fill="none" stroke="#2d4c35" stroke-linecap="round" stroke-linejoin="round" stroke-miterlimit="10" stroke-width="1"/>
              <path id="Trazado_1043799" data-name="Trazado 1043799" d="M1326.37,570.734a19.168,19.168,0,0,0,7.1,2.573,27.5,27.5,0,0,0,6.593.78,10.563,10.563,0,0,0,6.209-2.064" transform="translate(-1258.464 -507.594)" fill="none" stroke="#2d4c35" stroke-linecap="round" stroke-linejoin="round" stroke-miterlimit="10" stroke-width="1"/>
              <path id="Trazado_1043800" data-name="Trazado 1043800" d="M1200.13,570.81a17.643,17.643,0,0,0,4.441.74" transform="translate(-1162.29 -507.652)" fill="none" stroke="#2d4c35" stroke-linecap="round" stroke-linejoin="round" stroke-miterlimit="10" stroke-width="1"/>
              <path id="Trazado_1043801" data-name="Trazado 1043801" d="M1212.32,586.594a52.987,52.987,0,0,0,16.569,3.288c2.644.094,5.29-.011,7.933-.116,9.753-.386,19.551-.778,29.133-2.638" transform="translate(-1171.577 -519.677)" fill="none" stroke="#2d4c35" stroke-linecap="round" stroke-linejoin="round" stroke-miterlimit="10" stroke-width="1"/>
              <path id="Trazado_1043802" data-name="Trazado 1043802" d="M1220.23,601.588a25.221,25.221,0,0,0,11.214,1.593" transform="translate(-1177.602 -531.1)" fill="none" stroke="#2d4c35" stroke-linecap="round" stroke-linejoin="round" stroke-miterlimit="10" stroke-width="1"/>
              <path id="Trazado_1043803" data-name="Trazado 1043803" d="M1221.8,611.029a65.629,65.629,0,0,0,8.171,1.288" transform="translate(-1178.798 -538.293)" fill="none" stroke="#2d4c35" stroke-linecap="round" stroke-linejoin="round" stroke-miterlimit="10" stroke-width="1"/>
              <path id="Trazado_1043804" data-name="Trazado 1043804" d="M1221.75,620.964l5.528.977" transform="translate(-1178.76 -545.861)" fill="none" stroke="#2d4c35" stroke-linecap="round" stroke-linejoin="round" stroke-miterlimit="10" stroke-width="1"/>
              <path id="Trazado_1043805" data-name="Trazado 1043805" d="M1230.216,634.542l-6.919-1.16A41.592,41.592,0,0,0,1230.216,634.542Z" transform="translate(-1179.939 -555.322)" fill="none" stroke="#2d4c35" stroke-linecap="round" stroke-linejoin="round" stroke-miterlimit="10" stroke-width="1"/>
              <path id="Trazado_1043806" data-name="Trazado 1043806" d="M1220.98,640.573l5.53.759" transform="translate(-1178.174 -560.8)" fill="none" stroke="#2d4c35" stroke-linecap="round" stroke-linejoin="round" stroke-miterlimit="10" stroke-width="1"/>
              <path id="Trazado_1043807" data-name="Trazado 1043807" d="M1212.76,650.378a211.8,211.8,0,0,0,53.73.587" transform="translate(-1171.911 -568.27)" fill="none" stroke="#2d4c35" stroke-linecap="round" stroke-linejoin="round" stroke-miterlimit="10" stroke-width="1"/>
              <path id="Trazado_1043808" data-name="Trazado 1043808" d="M1217.4,666.43a8.8,8.8,0,0,1,9.089,3.236c3.693-1.108,7.953-2.825,11.807-2.718a20.446,20.446,0,0,1,10.929,3.277,20.4,20.4,0,0,1,10.52-3.716,16.3,16.3,0,0,1,9.616,2.559c.037-1.232,1.444-2.49,2.559-3.014" transform="translate(-1175.447 -580.212)" fill="none" stroke="#2d4c35" stroke-linecap="round" stroke-linejoin="round" stroke-miterlimit="10" stroke-width="1"/>
              <path id="Trazado_1043809" data-name="Trazado 1043809" d="M1241.668,691.081q-1.29,22.27-3.839,44.444" transform="translate(-1191.01 -599.279)" fill="none" stroke="#2d4c35" stroke-linecap="round" stroke-linejoin="round" stroke-miterlimit="10" stroke-width="1"/>
              <path id="Trazado_1043810" data-name="Trazado 1043810" d="M1352.343,692.585a284.929,284.929,0,0,0,.742,45.349" transform="translate(-1277.816 -600.425)" fill="none" stroke="#2d4c35" stroke-linecap="round" stroke-linejoin="round" stroke-miterlimit="10" stroke-width="1"/>
              <path id="Trazado_1043811" data-name="Trazado 1043811" d="M1438.34,687.343q0,23.214,1,46.413" transform="translate(-1343.767 -596.431)" fill="none" stroke="#2d4c35" stroke-linecap="round" stroke-linejoin="round" stroke-miterlimit="10" stroke-width="1"/>
              <path id="Trazado_1043812" data-name="Trazado 1043812" d="M1474.83,399.686a21.165,21.165,0,0,1,7.412-.172,8.677,8.677,0,0,1,4.334,1.694" transform="translate(-1371.566 -376.964)" fill="none" stroke="#2d4c35" stroke-linecap="round" stroke-linejoin="round" stroke-miterlimit="10" stroke-width="1"/>
              <path id="Trazado_1043813" data-name="Trazado 1043813" d="M1472.89,408.253a9.506,9.506,0,0,1,7.1.112" transform="translate(-1370.088 -383.328)" fill="none" stroke="#2d4c35" stroke-linecap="round" stroke-linejoin="round" stroke-miterlimit="10" stroke-width="1"/>
              <path id="Trazado_1043814" data-name="Trazado 1043814" d="M1474.4,418.973a5.756,5.756,0,0,1,4.875.137" transform="translate(-1371.239 -391.615)" fill="none" stroke="#2d4c35" stroke-linecap="round" stroke-linejoin="round" stroke-miterlimit="10" stroke-width="1"/>
              <path id="Trazado_1043815" data-name="Trazado 1043815" d="M1471.77,428.247a7.527,7.527,0,0,1,4.425-.714" transform="translate(-1369.235 -398.44)" fill="none" stroke="#2d4c35" stroke-linecap="round" stroke-linejoin="round" stroke-miterlimit="10" stroke-width="1"/>
              <path id="Trazado_1043816" data-name="Trazado 1043816" d="M1470.3,437.993a5.859,5.859,0,0,1,4.046-.119" transform="translate(-1368.115 -406.145)" fill="none" stroke="#2d4c35" stroke-linecap="round" stroke-linejoin="round" stroke-miterlimit="10" stroke-width="1"/>
              <path id="Trazado_1043817" data-name="Trazado 1043817" d="M1469.85,449.868a6.937,6.937,0,0,1,3.723-.1" transform="translate(-1367.772 -415.279)" fill="none" stroke="#2d4c35" stroke-linecap="round" stroke-linejoin="round" stroke-miterlimit="10" stroke-width="1"/>
              <path id="Trazado_1043818" data-name="Trazado 1043818" d="M1469.96,460.083a3.469,3.469,0,0,1,1.679-.244" transform="translate(-1367.856 -423.096)" fill="none" stroke="#2d4c35" stroke-linecap="round" stroke-linejoin="round" stroke-miterlimit="10" stroke-width="1"/>
              <path id="Trazado_1043819" data-name="Trazado 1043819" d="M1468.13,469.6a3.16,3.16,0,0,1,1.272.084" transform="translate(-1366.462 -430.525)" fill="none" stroke="#2d4c35" stroke-linecap="round" stroke-linejoin="round" stroke-miterlimit="10" stroke-width="1"/>
              <path id="Trazado_1043820" data-name="Trazado 1043820" d="M1467.67,479.928a1.563,1.563,0,0,1,.848-.1" transform="translate(-1366.111 -438.326)" fill="none" stroke="#2d4c35" stroke-linecap="round" stroke-linejoin="round" stroke-miterlimit="10" stroke-width="1"/>
              <path id="Trazado_1043821" data-name="Trazado 1043821" d="M1467.24,490.1h.635" transform="translate(-1365.784 -446.161)" fill="none" stroke="#2d4c35" stroke-linecap="round" stroke-linejoin="round" stroke-miterlimit="10" stroke-width="1"/>
              <path id="Trazado_1043822" data-name="Trazado 1043822" d="M1465.46,499.422h.74" transform="translate(-1364.428 -453.266)" fill="none" stroke="#2d4c35" stroke-linecap="round" stroke-linejoin="round" stroke-miterlimit="10" stroke-width="1"/>
              <path id="Trazado_1043823" data-name="Trazado 1043823" d="M1465.46,507.505a1.371,1.371,0,0,0,.632-.114" transform="translate(-1364.428 -459.337)" fill="none" stroke="#2d4c35" stroke-linecap="round" stroke-linejoin="round" stroke-miterlimit="10" stroke-width="1"/>
              <path id="Trazado_1043824" data-name="Trazado 1043824" d="M1464.12,516.794l.528-.111" transform="translate(-1363.407 -466.416)" fill="none" stroke="#2d4c35" stroke-linecap="round" stroke-linejoin="round" stroke-miterlimit="10" stroke-width="1"/>
              <path id="Trazado_1043825" data-name="Trazado 1043825" d="M1463.68,524.367l.317-.108" transform="translate(-1363.072 -472.188)" fill="none" stroke="#2d4c35" stroke-linecap="round" stroke-linejoin="round" stroke-miterlimit="10" stroke-width="1"/>
            </g>
            <path id="Trazado_1043826" data-name="Trazado 1043826" d="M1333.94,312.351a2.272,2.272,0,0,1,2.177,2.158,6.6,6.6,0,0,1-.814,3.26" transform="translate(-1264.231 -310.744)" fill="none" stroke="#f9e3d5" stroke-linecap="round" stroke-linejoin="round" stroke-miterlimit="10" stroke-width="1"/>
            <path id="Trazado_1043827" data-name="Trazado 1043827" d="M1512.35,395.131a13.312,13.312,0,0,1,7.3,4.266" transform="translate(-1400.15 -373.814)" fill="none" stroke="#f9e3d5" stroke-linecap="round" stroke-linejoin="round" stroke-miterlimit="10" stroke-width="1"/>
            <path id="Trazado_1043828" data-name="Trazado 1043828" d="M1385.83,403.374l6.17.566a1.976,1.976,0,0,1,1.128.343,2,2,0,0,1,.406,1.744l-3.2,36.738" transform="translate(-1303.763 -380.093)" fill="none" stroke="#f9e3d5" stroke-linecap="round" stroke-linejoin="round" stroke-miterlimit="10" stroke-width="1"/>
            <path id="Trazado_1043829" data-name="Trazado 1043829" d="M1443.677,400.745a14.024,14.024,0,0,1,4.788.572,195.841,195.841,0,0,0-4.855,38.573q.032-.652.065-1.3" transform="translate(-1347.782 -378.074)" fill="none" stroke="#f9e3d5" stroke-linecap="round" stroke-linejoin="round" stroke-miterlimit="10" stroke-width="1"/>
            <path id="Trazado_1043830" data-name="Trazado 1043830" d="M1273.87,400.668l8.213.2a183.171,183.171,0,0,1,.731,38.833" transform="translate(-1218.467 -378.032)" fill="none" stroke="#f9e3d5" stroke-linecap="round" stroke-linejoin="round" stroke-miterlimit="10" stroke-width="1"/>
            <path id="Trazado_1043831" data-name="Trazado 1043831" d="M1345.44,350.591a176.17,176.17,0,0,0,25.125,7.922" transform="translate(-1272.992 -339.881)" fill="none" stroke="#f9e3d5" stroke-linecap="round" stroke-linejoin="round" stroke-miterlimit="10" stroke-width="1"/>
            <path id="Trazado_1043832" data-name="Trazado 1043832" d="M1412.881,594.65q.029,5.607.058,11.214a.9.9,0,0,1-.835,1.043,29.974,29.974,0,0,1-6.307,1.374" transform="translate(-1318.974 -525.814)" fill="none" stroke="#f9e3d5" stroke-linecap="round" stroke-linejoin="round" stroke-miterlimit="10" stroke-width="1"/>
            <path id="Trazado_1043833" data-name="Trazado 1043833" d="M1396.16,676.135a11.441,11.441,0,0,1,6.875.929,2.049,2.049,0,0,1,.914.7,2.242,2.242,0,0,1,.236,1.1q.642,16.452-.137,32.918" transform="translate(-1311.632 -587.761)" fill="none" stroke="#f9e3d5" stroke-linecap="round" stroke-linejoin="round" stroke-miterlimit="10" stroke-width="1"/>
            <path id="Trazado_1043834" data-name="Trazado 1043834" d="M1299.01,679.858a12.579,12.579,0,0,1,9.275,1.71,2.083,2.083,0,0,1,.84.833,2.268,2.268,0,0,1,.109,1.042q-1.111,21.514-.916,43.067" transform="translate(-1237.62 -590.533)" fill="none" stroke="#f9e3d5" stroke-linecap="round" stroke-linejoin="round" stroke-miterlimit="10" stroke-width="1"/>
            <path id="Trazado_1043835" data-name="Trazado 1043835" d="M1219.12,674.7a8.822,8.822,0,0,1,2.7.29,2.981,2.981,0,0,1,1.964,1.743,4.358,4.358,0,0,1,.165,1.321,208.716,208.716,0,0,1-3.332,41.652" transform="translate(-1176.757 -586.802)" fill="none" stroke="#f9e3d5" stroke-linecap="round" stroke-linejoin="round" stroke-miterlimit="10" stroke-width="1"/>
            <path id="Trazado_1043836" data-name="Trazado 1043836" d="M1444.19,677.959a2.406,2.406,0,0,1,1.211-.837" transform="translate(-1348.223 -588.645)" fill="none" stroke="#f9e3d5" stroke-linecap="round" stroke-linejoin="round" stroke-miterlimit="10" stroke-width="1"/>
            <path id="Trazado_1043837" data-name="Trazado 1043837" d="M1153.63,388.109a1.461,1.461,0,0,1,1.286,1.465,2.217,2.217,0,0,1-1.06,1.774,2.994,2.994,0,0,1-4.515-1.632" transform="translate(-1123.597 -368.464)" fill="none" stroke="#f9e3d5" stroke-linecap="round" stroke-linejoin="round" stroke-miterlimit="10" stroke-width="1"/>
            <path id="Trazado_1043838" data-name="Trazado 1043838" d="M1095.31,366.807a7.983,7.983,0,0,1,4.627-.555,19.076,19.076,0,0,1,4.5,1.408" transform="translate(-1082.434 -351.726)" fill="none" stroke="#f9e3d5" stroke-linecap="round" stroke-linejoin="round" stroke-miterlimit="10" stroke-width="1"/>
            <path id="Trazado_1043839" data-name="Trazado 1043839" d="M1086.857,440.873c-.676,5.674,3.985,10.549,5.167,16.139.731,3.458.1,7.038.051,10.572s.688,7.409,3.414,9.659" transform="translate(-1075.943 -408.661)" fill="none" stroke="#f9e3d5" stroke-linecap="round" stroke-linejoin="round" stroke-miterlimit="10" stroke-width="1"/>
          </g>
          <g id="Grupo_1182986" data-name="Grupo 1182986" transform="translate(88.868)">
            <path id="Trazado_1043840" data-name="Trazado 1043840" d="M1589.064,272.758c-2.567-4.218-6.967-6.812-11.339-8.813-2.354-1.077-4.755-2.061-7.043-3.278a28.125,28.125,0,0,1-3.358-2.073c-.884-.644-2-1.431-2.258-2.561a4.711,4.711,0,0,1,.746-3.1c.608-1.166,1.344-2.261,1.876-3.466a16.523,16.523,0,0,0,.706-11.711,1.144,1.144,0,0,0-2.237.3c0,.206-.021.408-.043.61a1.039,1.039,0,0,0-.408.624,14.3,14.3,0,0,1-2.9,5.793,19.268,19.268,0,0,1-5.037,3.969,12.111,12.111,0,0,0-4.617,4.118,7.47,7.47,0,0,0-.3,6.337,12.376,12.376,0,0,0,4.117,5.341,42.628,42.628,0,0,0,6.353,3.63,22.035,22.035,0,0,1,5.584,3.875,18.808,18.808,0,0,1,3.719,5.338,17.917,17.917,0,0,1,.85,12.753,18.255,18.255,0,0,1-3.064,5.946,30.273,30.273,0,0,1-4.6,4.42c-3.078,2.568-6.479,5.414-7.176,9.6-.77,4.626,1.6,8.808,2.186,13.289a9.248,9.248,0,0,1-.994,5.792,28.917,28.917,0,0,1-3.747,4.844,20.977,20.977,0,0,0-3.693,5.4,13.741,13.741,0,0,0-.979,7.169,13.156,13.156,0,0,0,.9,3.4,1.215,1.215,0,0,0,1.176.834,1.093,1.093,0,0,0,.74.306l9.3.353q2.269.086,4.538.172c1.3.048,2.732,0,3.659-1.051.912-1.038,1.036-2.57,1.2-3.883a22.551,22.551,0,0,0,.12-4.231,28.719,28.719,0,0,0-2.063-8.41c-.9-2.354-1.835-4.768-1.719-7.331a6.743,6.743,0,0,1,.846-3.1,6.235,6.235,0,0,1,2.494-2.245c1.068-.592,2.2-1.053,3.289-1.605a26.011,26.011,0,0,0,3.236-1.93,16.766,16.766,0,0,0,5.148-5.472,11.965,11.965,0,0,0,1.453-7.234,9.294,9.294,0,0,0-1.186-3.544c-.593-1-1.4-1.849-2-2.847a2.8,2.8,0,0,1-.123-2.941,25.948,25.948,0,0,1,2.151-3.179,56.2,56.2,0,0,0,4.123-6.248,16.7,16.7,0,0,0,2.174-7.143A12.224,12.224,0,0,0,1589.064,272.758Z" transform="translate(-1518.691 -236.95)" fill="#edd3c5"/>
            <g id="Grupo_1182981" data-name="Grupo 1182981" transform="translate(0 104.882)">
              <path id="Trazado_1043841" data-name="Trazado 1043841" d="M1497.164,780.093a8.469,8.469,0,0,0-2.713-1.49c.011-.022.021-.044.031-.065-.383-.108-.769-.205-1.156-.3-1.212-.189-2.429-.353-3.636-.547-1.549-.19-3.1-.347-4.652-.528l-2.5-.292c.013-.025.024-.051.036-.076h-.016c-2.5-.21-4.958-.744-7.456-.95-2.585-.213-5.209.01-7.8-.018-2.609-.028-5.216-.12-7.824-.193s-5.224-.142-7.837.011c-2.543.149-5.076.434-7.607.716-4.293.477-8.679,1.051-12.969.411.038.091.074.183.113.273a36.469,36.469,0,0,0-11.322,2.152,9,9,0,0,0-4.476,3.289,5.416,5.416,0,0,0-.437,5.253,8.936,8.936,0,0,0,3.8,3.82,40.957,40.957,0,0,1,4.877,3.011,27.76,27.76,0,0,0,4.661,3.286,19.808,19.808,0,0,0,5.069,1.722,34.108,34.108,0,0,0,6.439.584c.017.017.03.037.049.053,4.269,3.546,9.864,4.2,15.228,4.1,2.9-.055,5.806-.215,8.707-.335l4.4-.181a27.4,27.4,0,0,0,4.189-.389,7.809,7.809,0,0,0,5.538-3.759l2-.143c2.072-.149,4.157-.245,6.212-.562,3.591-.554,7.091-2.259,8.559-5.768a18.679,18.679,0,0,1,1.077-2.538,11.628,11.628,0,0,1,1.426-1.746,6.842,6.842,0,0,0,2.193-4.29A5.888,5.888,0,0,0,1497.164,780.093Z" transform="translate(-1414.438 -752.158)" fill="#608e6d"/>
              <path id="Trazado_1043842" data-name="Trazado 1043842" d="M1414.4,787.536s-.859-5.984,9.411-7.747,47.875-2.415,58.669-1.047,14.173.972,16.443,5.672-3.322,9.157-13.574,10.7-34.806,4.835-57.254-.905C1415.375,790.655,1415.051,790.091,1414.4,787.536Z" transform="translate(-1414.386 -754.03)" fill="#76b285"/>
              <path id="Trazado_1043843" data-name="Trazado 1043843" d="M1433.747,794.484s-.685-3.232,13.43-4.219,55.76,1.074,60.315,3.026,3.362,5.1-1.735,6.507a125.221,125.221,0,0,1-43.074,2.825C1442.53,800.34,1432.77,797.737,1433.747,794.484Z" transform="translate(-1429.085 -763.174)" fill="#608e6d"/>
              <path id="Trazado_1043844" data-name="Trazado 1043844" d="M1537.59,696.049a6.734,6.734,0,0,0-2.823-4.084,13.321,13.321,0,0,0-1.3-.718,14.522,14.522,0,0,0-5.8-1.006,25.309,25.309,0,0,0-.413-5.354,1.057,1.057,0,0,0-.758-.774,4.134,4.134,0,0,0-1.995-1.458,32.553,32.553,0,0,0-6.067-1.442,61.51,61.51,0,0,0-9.724-.93c-1.748-.167-3.5-.315-5.25-.428a114.431,114.431,0,0,0-25.553.976q-1.775.285-3.538.644a15.509,15.509,0,0,0-3.394.881,3.2,3.2,0,0,0-1.064.8,1.1,1.1,0,0,0-.672.98c0,.067-.005.135-.009.2a3.429,3.429,0,0,0-.06,2.05,44.1,44.1,0,0,0,3.586,17.524l1.889,3.07s5.551,10,9.651,10.852,26.816,2.391,29.036,0,4.047-4.326,4.047-4.326,9.912,1.379,16.4-5.332a16.2,16.2,0,0,0,2.715-3.7,17.611,17.611,0,0,0,.76-2.112A13.051,13.051,0,0,0,1537.59,696.049Zm-3.811,2.343a9.244,9.244,0,0,1-1.042,3.463c-.374.785-.783,1.553-1.2,2.316a3.744,3.744,0,0,1-.215.4c-2.458,3.946-7.5,5.055-7.5,5.055.112-1.406-1.969-1.8-1.969-1.8l2.272-4.079q.7-1.391,1.275-2.836c.094-.045.189-.089.28-.14a4.96,4.96,0,0,0,2.173-2.728,6.611,6.611,0,0,1,1.21-2.605,2.868,2.868,0,0,1,2.037-.725C1532.955,694.743,1533.862,696.6,1533.779,698.392Z" transform="translate(-1456.027 -679.03)" fill="#608e6d"/>
              <path id="Trazado_1043845" data-name="Trazado 1043845" d="M1527.724,681.882c-1.076-1.413-2.754-1.955-4.387-2.485a37.16,37.16,0,0,0-5.337-1.287,65.179,65.179,0,0,0-11.015-.778c-3.9.013-7.8.218-11.7.252-3.8.033-7.613-.229-11.416-.036a25.954,25.954,0,0,0-11.5,2.923,6.8,6.8,0,0,0-1.612.873,1.157,1.157,0,0,0,.272,2.081,61.787,61.787,0,0,0,11,2.506,105.344,105.344,0,0,0,11.285,1.131,145.535,145.535,0,0,0,22.572-.851c3.825-.417,8.108-.594,11.421-2.771A1.15,1.15,0,0,0,1527.724,681.882Zm-34.026-2.017c7.264.037,14.555-.7,21.8.167a39.447,39.447,0,0,1,5.515,1.052c.613.164,1.22.351,1.823.549-5.776,2.077-12.166,2.161-18.233,2.223a129.553,129.553,0,0,1-19.436-1.2q-4.34-.613-8.622-1.555C1481.971,679.248,1488.032,679.836,1493.7,679.864Z" transform="translate(-1456.929 -677.331)" fill="#76b285"/>
              <path id="Trazado_1043846" data-name="Trazado 1043846" d="M1489.332,688.242s-1.292-2.153,18-2.325,29.8.947,30.486,2.325-2.412,2.153-11.109,2.239S1489.418,691,1489.332,688.242Z" transform="translate(-1471.469 -683.859)" fill="#d1a161"/>
              <path id="Trazado_1043847" data-name="Trazado 1043847" d="M1470.756,698.137a43.986,43.986,0,0,0,8.469,27.891,23.832,23.832,0,0,0,5.662,5.723" transform="translate(-1457.297 -693.182)" fill="none" stroke="#2d4c35" stroke-linecap="round" stroke-linejoin="round" stroke-miterlimit="10" stroke-width="1"/>
              <path id="Trazado_1043848" data-name="Trazado 1043848" d="M1434.345,808.251c-.1,1.564,1.447,2.7,2.878,3.338a40.644,40.644,0,0,0,9.364,2.5c2.444.447,4.888.893,7.343,1.278,2.2.345,4.407.64,6.622.862,9.223.922,18.523.558,27.777.034,6.525-.369,13.215-.86,19.146-3.6a6.2,6.2,0,0,0,2.473-1.757,2.492,2.492,0,0,0,.207-2.857" transform="translate(-1429.588 -776.912)" fill="none" stroke="#2d4c35" stroke-linecap="round" stroke-linejoin="round" stroke-miterlimit="10" stroke-width="1"/>
              <path id="Trazado_1043849" data-name="Trazado 1043849" d="M1472.26,707.595c3.56,2.167,8.535,2.655,13,2.893" transform="translate(-1458.476 -700.387)" fill="none" stroke="#2d4c35" stroke-linecap="round" stroke-linejoin="round" stroke-miterlimit="10" stroke-width="1"/>
              <path id="Trazado_1043850" data-name="Trazado 1043850" d="M1472.15,716.768a13.63,13.63,0,0,0,6.4,1.546" transform="translate(-1458.393 -707.376)" fill="none" stroke="#2d4c35" stroke-linecap="round" stroke-linejoin="round" stroke-miterlimit="10" stroke-width="1"/>
              <path id="Trazado_1043851" data-name="Trazado 1043851" d="M1472.8,724.456a10.1,10.1,0,0,0,3.534,1.283" transform="translate(-1458.888 -713.232)" fill="none" stroke="#2d4c35" stroke-linecap="round" stroke-linejoin="round" stroke-miterlimit="10" stroke-width="1"/>
              <path id="Trazado_1043852" data-name="Trazado 1043852" d="M1571.99,721.032a99.021,99.021,0,0,0,30.078-1.07" transform="translate(-1534.455 -709.809)" fill="none" stroke="#2d4c35" stroke-linecap="round" stroke-linejoin="round" stroke-miterlimit="10" stroke-width="1"/>
              <path id="Trazado_1043853" data-name="Trazado 1043853" d="M1669.106,714.3c.176,9.81-6.142,23.347-14.091,30.622" transform="translate(-1597.706 -705.495)" fill="none" stroke="#2d4c35" stroke-linecap="round" stroke-linejoin="round" stroke-miterlimit="10" stroke-width="1"/>
              <path id="Trazado_1043854" data-name="Trazado 1043854" d="M1414.95,819.206a9.634,9.634,0,0,0,3.173,3.165,19.238,19.238,0,0,0,5.589,1.986,126.559,126.559,0,0,0,15.079,3.017" transform="translate(-1414.816 -785.417)" fill="none" stroke="#2d4c35" stroke-linecap="round" stroke-linejoin="round" stroke-miterlimit="10" stroke-width="1"/>
              <path id="Trazado_1043855" data-name="Trazado 1043855" d="M1481.57,872.335a245.276,245.276,0,0,0,31.1,1.817" transform="translate(-1465.569 -825.892)" fill="none" stroke="#2d4c35" stroke-linecap="round" stroke-linejoin="round" stroke-miterlimit="10" stroke-width="1"/>
              <path id="Trazado_1043856" data-name="Trazado 1043856" d="M1675.93,789.471a15.742,15.742,0,0,0,10.69-1.483,16.374,16.374,0,0,0,7.486-8.079" transform="translate(-1613.64 -755.479)" fill="none" stroke="#2d4c35" stroke-linecap="round" stroke-linejoin="round" stroke-miterlimit="10" stroke-width="1"/>
              <path id="Trazado_1043857" data-name="Trazado 1043857" d="M1689.54,797.886a2.728,2.728,0,0,1,2,.714,3.016,3.016,0,0,1,.767,1.558,1.325,1.325,0,0,1-.022.779.556.556,0,0,1-.631.349" transform="translate(-1624.008 -769.153)" fill="none" stroke="#2d4c35" stroke-linecap="round" stroke-linejoin="round" stroke-miterlimit="10" stroke-width="1"/>
              <path id="Trazado_1043858" data-name="Trazado 1043858" d="M1704.9,748.979a2.159,2.159,0,0,0,2.029-1.258,17.841,17.841,0,0,0,.85-2.39,2.8,2.8,0,0,1,1.635-1.825" transform="translate(-1635.71 -727.745)" fill="none" stroke="#2d4c35" stroke-linecap="round" stroke-linejoin="round" stroke-miterlimit="10" stroke-width="1"/>
              <path id="Trazado_1043859" data-name="Trazado 1043859" d="M1712.672,749.722c.8,2.98-.645,6.1-2.431,8.618-1.542,2.172-3.621,4.274-6.27,4.542a11.012,11.012,0,0,1-1.11.038" transform="translate(-1634.156 -732.481)" fill="none" stroke="#2d4c35" stroke-linecap="round" stroke-linejoin="round" stroke-miterlimit="10" stroke-width="1"/>
              <path id="Trazado_1043860" data-name="Trazado 1043860" d="M1645.08,875.355l4.911-.115a4.054,4.054,0,0,0,2.22-.483" transform="translate(-1590.137 -827.738)" fill="none" stroke="#2d4c35" stroke-linecap="round" stroke-linejoin="round" stroke-miterlimit="10" stroke-width="1"/>
            </g>
            <g id="Grupo_1182982" data-name="Grupo 1182982" transform="translate(51.53 76.63)">
              <path id="Trazado_1043861" data-name="Trazado 1043861" d="M1640.645,560.55a2.111,2.111,0,0,0-2.092-1.085,1.873,1.873,0,0,0-.534-.459,3.13,3.13,0,0,0-3.007.212,17.469,17.469,0,0,0-2.8,1.877,3.3,3.3,0,0,0-1.455,2.688c.171,2.067,2.707,2.675,4.409,2.58a6.836,6.836,0,0,0,5.074-2.606A3.032,3.032,0,0,0,1640.645,560.55Z" transform="translate(-1630.752 -558.705)" fill="#794e1c"/>
              <path id="Trazado_1043862" data-name="Trazado 1043862" d="M1647.1,565.308q1.726-1.228,3.344-2.6a1.966,1.966,0,0,1,1.467-.661,1.332,1.332,0,0,1,.676.362,2.6,2.6,0,0,1,.684,2.456,3.787,3.787,0,0,1-1.492,2.146" transform="translate(-1643.207 -561.241)" fill="none" stroke="#442b24" stroke-linecap="round" stroke-linejoin="round" stroke-miterlimit="10" stroke-width="1"/>
              <path id="Trazado_1043863" data-name="Trazado 1043863" d="M1649.05,565.986a7.273,7.273,0,0,0,1.292-1.233" transform="translate(-1644.692 -563.313)" fill="none" stroke="#442b24" stroke-linecap="round" stroke-linejoin="round" stroke-miterlimit="10" stroke-width="1"/>
              <path id="Trazado_1043864" data-name="Trazado 1043864" d="M1643.48,573.119l.413-.39" transform="translate(-1640.449 -569.389)" fill="none" stroke="#442b24" stroke-linecap="round" stroke-linejoin="round" stroke-miterlimit="10" stroke-width="1"/>
              <path id="Trazado_1043865" data-name="Trazado 1043865" d="M1657.34,562.073l.266-.21" transform="translate(-1651.008 -561.111)" fill="none" stroke="#442b24" stroke-linecap="round" stroke-linejoin="round" stroke-miterlimit="10" stroke-width="1"/>
            </g>
            <g id="Grupo_1182983" data-name="Grupo 1182983" transform="translate(39.043 65.98)">
              <path id="Trazado_1043866" data-name="Trazado 1043866" d="M1578.553,517.993a6.837,6.837,0,0,0,4.146,3.917c1.608.565,4.213.689,4.953-1.248a3.3,3.3,0,0,0-.648-2.987,17.459,17.459,0,0,0-2.162-2.582,3.131,3.131,0,0,0-2.829-1.042,1.884,1.884,0,0,0-.641.292,2.111,2.111,0,0,0-2.312.458A3.028,3.028,0,0,0,1578.553,517.993Z" transform="translate(-1578.319 -513.988)" fill="#794e1c"/>
              <path id="Trazado_1043867" data-name="Trazado 1043867" d="M1584.443,519.046q-1.316-1.66-2.486-3.429c-.306-.462-.674-.976-1.224-1.044a1.334,1.334,0,0,0-.75.16,2.6,2.6,0,0,0-1.342,2.168,3.787,3.787,0,0,0,.834,2.477" transform="translate(-1578.56 -514.428)" fill="none" stroke="#442b24" stroke-linecap="round" stroke-linejoin="round" stroke-miterlimit="10" stroke-width="1"/>
              <path id="Trazado_1043868" data-name="Trazado 1043868" d="M1599.911,522.277a7.257,7.257,0,0,1-.9-1.544" transform="translate(-1594.084 -519.127)" fill="none" stroke="#442b24" stroke-linecap="round" stroke-linejoin="round" stroke-miterlimit="10" stroke-width="1"/>
              <path id="Trazado_1043869" data-name="Trazado 1043869" d="M1605.967,531.465l-.288-.49" transform="translate(-1599.163 -526.93)" fill="none" stroke="#442b24" stroke-linecap="round" stroke-linejoin="round" stroke-miterlimit="10" stroke-width="1"/>
              <path id="Trazado_1043870" data-name="Trazado 1043870" d="M1596.19,517.124l-.2-.276" transform="translate(-1591.784 -516.167)" fill="none" stroke="#442b24" stroke-linecap="round" stroke-linejoin="round" stroke-miterlimit="10" stroke-width="1"/>
            </g>
            <g id="Grupo_1182984" data-name="Grupo 1182984" transform="translate(41.553 90.793)">
              <path id="Trazado_1043871" data-name="Trazado 1043871" d="M1596.063,618.826a1.747,1.747,0,0,0-1.916-.366,1.557,1.557,0,0,0-.533-.238,2.592,2.592,0,0,0-2.336.879,14.46,14.46,0,0,0-1.774,2.15,2.728,2.728,0,0,0-.519,2.476c.624,1.6,2.78,1.482,4.108,1a5.66,5.66,0,0,0,3.409-3.267A2.506,2.506,0,0,0,1596.063,618.826Z" transform="translate(-1588.858 -618.174)" fill="#794e1c"/>
              <path id="Trazado_1043872" data-name="Trazado 1043872" d="M1601.34,622.33q1.079-1.383,2.038-2.853c.251-.385.552-.812,1.008-.872a1.106,1.106,0,0,1,.622.128,2.154,2.154,0,0,1,1.123,1.786,3.134,3.134,0,0,1-.676,2.055" transform="translate(-1598.367 -618.497)" fill="none" stroke="#442b24" stroke-linecap="round" stroke-linejoin="round" stroke-miterlimit="10" stroke-width="1"/>
              <path id="Trazado_1043873" data-name="Trazado 1043873" d="M1601.5,625.059a6.013,6.013,0,0,0,.734-1.283" transform="translate(-1598.489 -622.442)" fill="none" stroke="#442b24" stroke-linecap="round" stroke-linejoin="round" stroke-miterlimit="10" stroke-width="1"/>
              <path id="Trazado_1043874" data-name="Trazado 1043874" d="M1598.13,632.7l.236-.407" transform="translate(-1595.922 -628.93)" fill="none" stroke="#442b24" stroke-linecap="round" stroke-linejoin="round" stroke-miterlimit="10" stroke-width="1"/>
              <path id="Trazado_1043875" data-name="Trazado 1043875" d="M1606.38,620.771l.162-.23" transform="translate(-1602.207 -619.977)" fill="none" stroke="#442b24" stroke-linecap="round" stroke-linejoin="round" stroke-miterlimit="10" stroke-width="1"/>
            </g>
            <g id="Grupo_1182985" data-name="Grupo 1182985" transform="translate(51.51 55.792)">
              <path id="Trazado_1043876" data-name="Trazado 1043876" d="M1637.873,471.863a1.747,1.747,0,0,0-1.916-.366,1.552,1.552,0,0,0-.532-.238,2.591,2.591,0,0,0-2.336.879,14.458,14.458,0,0,0-1.775,2.15,2.728,2.728,0,0,0-.519,2.476c.624,1.6,2.78,1.482,4.108,1a5.659,5.659,0,0,0,3.409-3.267A2.51,2.51,0,0,0,1637.873,471.863Z" transform="translate(-1630.667 -471.211)" fill="#794e1c"/>
              <path id="Trazado_1043877" data-name="Trazado 1043877" d="M1643.14,475.367q1.079-1.382,2.038-2.853c.251-.385.552-.812,1.008-.871a1.1,1.1,0,0,1,.622.128,2.154,2.154,0,0,1,1.123,1.786,3.136,3.136,0,0,1-.676,2.055" transform="translate(-1640.17 -471.534)" fill="none" stroke="#442b24" stroke-linecap="round" stroke-linejoin="round" stroke-miterlimit="10" stroke-width="1"/>
              <path id="Trazado_1043878" data-name="Trazado 1043878" d="M1643.31,478.1a6.008,6.008,0,0,0,.734-1.283" transform="translate(-1640.299 -475.478)" fill="none" stroke="#442b24" stroke-linecap="round" stroke-linejoin="round" stroke-miterlimit="10" stroke-width="1"/>
              <path id="Trazado_1043879" data-name="Trazado 1043879" d="M1639.94,485.737l.236-.407" transform="translate(-1637.732 -481.967)" fill="none" stroke="#442b24" stroke-linecap="round" stroke-linejoin="round" stroke-miterlimit="10" stroke-width="1"/>
              <path id="Trazado_1043880" data-name="Trazado 1043880" d="M1648.18,473.808l.162-.23" transform="translate(-1644.009 -473.014)" fill="none" stroke="#442b24" stroke-linecap="round" stroke-linejoin="round" stroke-miterlimit="10" stroke-width="1"/>
            </g>
          </g>
        </g>
        <g id="Grupo_1182996" data-name="Grupo 1182996" transform="translate(5.959 139.906)">
          <g id="Grupo_1182988" data-name="Grupo 1182988" transform="translate(41.438 18.258)">
            <path id="Trazado_1043881" data-name="Trazado 1043881" d="M1179.653,905.834l.037,0c.178-.017.373-.043.55-.072a.765.765,0,0,0,.077-.016c.025-.007.05-.015.074-.024.157-.058.337-.134.49-.2l.037-.017a.651.651,0,0,0,.061-.035,4.239,4.239,0,0,0,.449-.341.488.488,0,0,0,.047-.049c.056-.064.132-.167.162-.2.014-.018.11-.134.158-.2.009-.012.017-.023.024-.036a3.434,3.434,0,0,0,.223-.509.445.445,0,0,0,.022-.071,3.558,3.558,0,0,0,.078-.576c0-.012,0-.025,0-.037s0-.014,0-.021c-.011-.14-.048-.379-.071-.519a.5.5,0,0,0-.015-.069c0-.013-.009-.025-.014-.037-.033-.086-.16-.379-.2-.462l-.01-.022a.468.468,0,0,0-.036-.059l-.012-.016c-.083-.11-.221-.292-.311-.395l-.027-.03a.659.659,0,0,0-.053-.048c-.126-.1-.281-.22-.416-.315l-.039-.026a.648.648,0,0,0-.065-.035,5.686,5.686,0,0,0-.535-.221.823.823,0,0,0-.151-.037,3.1,3.1,0,0,0-.688-.072,2.773,2.773,0,0,0-.672.106c-.127.048-.353.14-.475.2l-.018.008-.039.021a3.234,3.234,0,0,0-.455.344.376.376,0,0,0-.029.028l-.013.015c-.09.1-.23.284-.311.4a.491.491,0,0,0-.05.08,1.4,1.4,0,0,0-.232.711,1.418,1.418,0,0,0-.033.31,1.884,1.884,0,0,0,.037.835c0,.012.008.023.012.035.029.08.088.205.1.243.007.016.066.163.1.238a.511.511,0,0,0,.04.068,3.339,3.339,0,0,0,.343.432l.028.026.011.009c.117.1.281.22.406.308a.579.579,0,0,0,.058.037l.031.015.018.008c.136.06.341.148.48.2a.755.755,0,0,0,.148.037c.179.027.365.055.544.071l.036,0A.715.715,0,0,0,1179.653,905.834Z" transform="translate(-1177.143 -901.052)" fill="#f04d43"/>
            <path id="Trazado_1043882" data-name="Trazado 1043882" d="M1182.72,905.574a.923.923,0,0,1,1.253-.523" transform="translate(-1181.392 -904.031)" fill="none" stroke="#f9e3d5" stroke-linecap="round" stroke-linejoin="round" stroke-miterlimit="10" stroke-width="1"/>
          </g>
          <g id="Grupo_1182989" data-name="Grupo 1182989" transform="translate(210.12 9.997)">
            <path id="Trazado_1043883" data-name="Trazado 1043883" d="M1887.915,871.147l.037,0c.179-.017.373-.043.55-.072a.779.779,0,0,0,.077-.016c.025-.007.05-.015.074-.024.157-.058.337-.134.49-.2l.037-.017a.572.572,0,0,0,.061-.036,4.284,4.284,0,0,0,.449-.341.485.485,0,0,0,.047-.049c.056-.064.132-.167.162-.2.015-.018.11-.134.158-.2.009-.012.017-.024.024-.036a3.416,3.416,0,0,0,.223-.509.467.467,0,0,0,.022-.071,3.584,3.584,0,0,0,.078-.576c0-.012,0-.024,0-.037s0-.014,0-.021c-.01-.14-.048-.379-.071-.519a.489.489,0,0,0-.015-.069c0-.013-.009-.025-.013-.037-.033-.086-.16-.379-.2-.462l-.01-.022a.458.458,0,0,0-.036-.058l-.012-.016c-.083-.11-.222-.292-.311-.395l-.027-.03c-.017-.017-.035-.032-.053-.048-.126-.1-.281-.22-.415-.315l-.039-.026a.69.69,0,0,0-.065-.035,5.715,5.715,0,0,0-.535-.221.816.816,0,0,0-.151-.037,3.1,3.1,0,0,0-.688-.072,2.765,2.765,0,0,0-.672.106c-.127.048-.353.14-.476.2l-.018.008-.039.021a3.232,3.232,0,0,0-.455.344.364.364,0,0,0-.028.028l-.013.015c-.09.1-.23.284-.312.4a.57.57,0,0,0-.05.08,1.4,1.4,0,0,0-.232.711,1.424,1.424,0,0,0-.033.31,1.887,1.887,0,0,0,.037.834c0,.012.008.023.012.035.029.08.088.205.1.243.007.016.066.162.1.238a.5.5,0,0,0,.04.068,3.327,3.327,0,0,0,.343.432l.028.026.011.009c.117.1.282.22.406.308a.584.584,0,0,0,.057.037l.031.015.018.008c.136.06.34.148.48.2a.745.745,0,0,0,.148.037c.179.027.365.055.544.071l.036,0A.7.7,0,0,0,1887.915,871.147Z" transform="translate(-1885.406 -866.365)" fill="#f04d43"/>
            <path id="Trazado_1043884" data-name="Trazado 1043884" d="M1890.98,870.887a.922.922,0,0,1,1.253-.524" transform="translate(-1889.653 -869.344)" fill="none" stroke="#f9e3d5" stroke-linecap="round" stroke-linejoin="round" stroke-miterlimit="10" stroke-width="1"/>
          </g>
          <g id="Grupo_1182990" data-name="Grupo 1182990" transform="translate(24.016 6.081)">
            <path id="Trazado_1043885" data-name="Trazado 1043885" d="M1106.5,854.706l.037,0c.179-.017.373-.043.55-.072.026,0,.052-.009.077-.016a.772.772,0,0,0,.074-.024c.157-.058.337-.134.49-.2l.037-.017a.605.605,0,0,0,.06-.036,4.275,4.275,0,0,0,.449-.341.531.531,0,0,0,.047-.049c.056-.064.132-.167.162-.2.014-.018.11-.134.158-.2.009-.012.017-.024.024-.036a3.411,3.411,0,0,0,.223-.509.468.468,0,0,0,.022-.072,3.555,3.555,0,0,0,.078-.576c0-.012,0-.025,0-.037l0-.021c-.01-.14-.048-.379-.071-.519a.5.5,0,0,0-.015-.069c0-.013-.009-.025-.013-.037-.033-.086-.16-.379-.2-.461l-.01-.022a.473.473,0,0,0-.036-.059l-.012-.016c-.082-.11-.221-.292-.311-.395-.009-.01-.017-.02-.027-.03a.609.609,0,0,0-.053-.047c-.126-.1-.281-.22-.415-.315l-.039-.026a.663.663,0,0,0-.065-.035,5.64,5.64,0,0,0-.535-.221.811.811,0,0,0-.151-.037,3.1,3.1,0,0,0-.688-.072,2.761,2.761,0,0,0-.672.106c-.127.048-.353.14-.475.2l-.018.008-.039.021a3.254,3.254,0,0,0-.455.344.331.331,0,0,0-.028.028l-.014.015c-.09.1-.23.284-.312.4a.524.524,0,0,0-.05.08,1.4,1.4,0,0,0-.232.711,1.42,1.42,0,0,0-.033.31,1.889,1.889,0,0,0,.037.834l.012.035c.029.08.088.205.1.243.007.016.066.162.1.238a.524.524,0,0,0,.04.068,3.337,3.337,0,0,0,.343.432.36.36,0,0,0,.028.026l.011.009c.117.1.282.22.406.308a.565.565,0,0,0,.058.037l.031.016.018.008c.136.06.34.148.48.2a.763.763,0,0,0,.148.037c.179.027.365.055.544.071l.036,0A.7.7,0,0,0,1106.5,854.706Z" transform="translate(-1103.994 -849.924)" fill="#f04d43"/>
            <path id="Trazado_1043886" data-name="Trazado 1043886" d="M1109.56,854.446a.923.923,0,0,1,1.253-.524" transform="translate(-1108.235 -852.903)" fill="none" stroke="#f9e3d5" stroke-linecap="round" stroke-linejoin="round" stroke-miterlimit="10" stroke-width="1"/>
          </g>
          <g id="Grupo_1182991" data-name="Grupo 1182991" transform="translate(189.414 2.902)">
            <path id="Trazado_1043887" data-name="Trazado 1043887" d="M1800.975,841.358l.037,0c.178-.017.373-.043.55-.072.026,0,.051-.009.077-.016a.776.776,0,0,0,.074-.024c.157-.058.337-.134.49-.2l.037-.017a.607.607,0,0,0,.061-.036,4.275,4.275,0,0,0,.449-.341.479.479,0,0,0,.047-.049c.056-.064.132-.167.162-.2.014-.018.11-.133.158-.2.008-.012.017-.023.024-.036a3.372,3.372,0,0,0,.223-.509.481.481,0,0,0,.022-.071,3.558,3.558,0,0,0,.078-.576c0-.012,0-.024,0-.037s0-.014,0-.021c-.011-.14-.048-.379-.071-.519a.553.553,0,0,0-.015-.069c0-.013-.009-.025-.013-.037-.033-.086-.16-.379-.2-.462,0-.007-.007-.015-.01-.022a.456.456,0,0,0-.036-.058l-.012-.016c-.083-.11-.222-.292-.311-.395l-.027-.03a.706.706,0,0,0-.053-.048c-.126-.1-.281-.22-.415-.315l-.039-.026a.647.647,0,0,0-.064-.035,5.774,5.774,0,0,0-.535-.221.831.831,0,0,0-.151-.037,3.106,3.106,0,0,0-.688-.072,2.768,2.768,0,0,0-.672.106c-.127.048-.353.14-.475.2l-.018.008-.039.021a3.259,3.259,0,0,0-.455.343l-.029.028-.013.015c-.09.1-.23.284-.312.4a.528.528,0,0,0-.05.08,1.4,1.4,0,0,0-.231.711,1.441,1.441,0,0,0-.033.31,1.88,1.88,0,0,0,.038.835c0,.012.008.023.012.035.029.08.088.205.1.243.007.016.066.162.1.238a.465.465,0,0,0,.04.068,3.313,3.313,0,0,0,.343.432.35.35,0,0,0,.028.026l.011.009c.117.1.282.22.406.308a.6.6,0,0,0,.058.037l.031.015.018.008c.136.06.341.148.48.2a.758.758,0,0,0,.148.037c.179.027.365.055.545.071l.036,0A.653.653,0,0,0,1800.975,841.358Z" transform="translate(-1798.466 -836.576)" fill="#f04d43"/>
            <path id="Trazado_1043888" data-name="Trazado 1043888" d="M1804.04,841.1a.923.923,0,0,1,1.253-.523" transform="translate(-1802.712 -839.554)" fill="none" stroke="#f9e3d5" stroke-linecap="round" stroke-linejoin="round" stroke-miterlimit="10" stroke-width="1"/>
          </g>
          <g id="Grupo_1182992" data-name="Grupo 1182992" transform="translate(186.915 17.68)">
            <path id="Trazado_1043889" data-name="Trazado 1043889" d="M1790.483,903.406l.037,0c.178-.017.373-.043.55-.073a.779.779,0,0,0,.077-.016c.025-.007.05-.015.074-.024.157-.058.337-.134.49-.2l.037-.017a.559.559,0,0,0,.06-.035,4.268,4.268,0,0,0,.449-.341.525.525,0,0,0,.047-.049c.056-.064.132-.167.161-.2.015-.019.11-.134.159-.2.008-.012.017-.024.024-.036a3.437,3.437,0,0,0,.223-.509.5.5,0,0,0,.022-.071,3.584,3.584,0,0,0,.078-.576c0-.012,0-.024,0-.037s0-.014,0-.021c-.01-.14-.048-.379-.071-.519a.513.513,0,0,0-.015-.069c0-.013-.009-.025-.013-.037-.033-.086-.16-.379-.2-.461l-.01-.022a.492.492,0,0,0-.036-.059l-.012-.016c-.082-.11-.221-.292-.311-.395l-.027-.03c-.017-.017-.035-.032-.053-.048-.126-.1-.281-.22-.415-.315l-.039-.026a.706.706,0,0,0-.065-.035,5.766,5.766,0,0,0-.535-.221.822.822,0,0,0-.151-.037,3.1,3.1,0,0,0-.687-.072,2.773,2.773,0,0,0-.672.106c-.127.048-.353.14-.475.2l-.018.008-.039.022a3.253,3.253,0,0,0-.455.343.354.354,0,0,0-.028.028l-.014.015c-.09.1-.23.284-.312.4a.565.565,0,0,0-.05.08,1.4,1.4,0,0,0-.232.711,1.435,1.435,0,0,0-.033.31,1.886,1.886,0,0,0,.038.835c0,.012.008.023.012.035.029.08.088.205.1.243.007.016.066.162.1.238a.515.515,0,0,0,.04.068,3.331,3.331,0,0,0,.343.432l.028.026.011.009c.117.1.282.22.406.308a.632.632,0,0,0,.058.037l.031.016.018.008c.136.06.341.148.48.2a.756.756,0,0,0,.148.037c.179.027.365.055.544.071l.036,0A.733.733,0,0,0,1790.483,903.406Z" transform="translate(-1787.974 -898.624)" fill="#f04d43"/>
            <path id="Trazado_1043890" data-name="Trazado 1043890" d="M1793.54,903.145a.923.923,0,0,1,1.253-.523" transform="translate(-1792.214 -901.602)" fill="none" stroke="#f9e3d5" stroke-linecap="round" stroke-linejoin="round" stroke-miterlimit="10" stroke-width="1"/>
          </g>
          <g id="Grupo_1182993" data-name="Grupo 1182993" transform="translate(0 0)">
            <path id="Trazado_1043891" data-name="Trazado 1043891" d="M1005.664,829.171l.037,0c.179-.017.373-.043.55-.072a.764.764,0,0,0,.077-.016c.025-.007.05-.015.074-.024.157-.058.337-.134.49-.2l.037-.017a.564.564,0,0,0,.06-.036,4.254,4.254,0,0,0,.449-.341.482.482,0,0,0,.047-.049c.056-.064.132-.167.162-.2.014-.018.11-.134.158-.2.008-.012.017-.023.024-.036a3.424,3.424,0,0,0,.223-.509.477.477,0,0,0,.022-.071,3.558,3.558,0,0,0,.078-.576c0-.012,0-.024,0-.037s0-.014,0-.021c-.011-.14-.048-.379-.071-.519a.5.5,0,0,0-.015-.069c0-.013-.009-.025-.014-.037-.033-.086-.16-.379-.2-.462l-.01-.022a.475.475,0,0,0-.036-.058l-.012-.016c-.082-.11-.221-.292-.311-.395l-.027-.03a.71.71,0,0,0-.053-.048c-.126-.1-.281-.22-.415-.315l-.039-.026a.674.674,0,0,0-.065-.035,5.7,5.7,0,0,0-.535-.221.8.8,0,0,0-.151-.037,3.1,3.1,0,0,0-.687-.072,2.775,2.775,0,0,0-.672.106c-.127.048-.353.14-.475.2l-.018.008-.039.021a3.26,3.26,0,0,0-.455.343l-.029.028-.013.015c-.09.1-.23.284-.312.4a.558.558,0,0,0-.05.08,2.545,2.545,0,0,0-.265,1.022,1.88,1.88,0,0,0,.038.834c0,.012.008.023.012.035.029.08.088.205.1.243.007.016.066.162.1.238a.53.53,0,0,0,.04.068,3.343,3.343,0,0,0,.343.432l.028.026.011.009c.117.1.281.22.406.308a.6.6,0,0,0,.058.037l.031.015.018.008c.136.06.341.148.48.2a.751.751,0,0,0,.148.037c.179.027.365.055.544.071l.036,0A.718.718,0,0,0,1005.664,829.171Z" transform="translate(-1003.155 -824.389)" fill="#f04d43"/>
            <path id="Trazado_1043892" data-name="Trazado 1043892" d="M1008.73,828.91a.923.923,0,0,1,1.253-.523" transform="translate(-1007.402 -827.367)" fill="none" stroke="#f9e3d5" stroke-linecap="round" stroke-linejoin="round" stroke-miterlimit="10" stroke-width="1"/>
          </g>
          <g id="Grupo_1182994" data-name="Grupo 1182994" transform="translate(111.444 15.288)">
            <path id="Trazado_1043893" data-name="Trazado 1043893" d="M1473.6,893.364l.037,0c.178-.017.373-.043.55-.072a.749.749,0,0,0,.077-.016c.025-.007.05-.015.074-.024.157-.058.337-.134.49-.2l.037-.017a.5.5,0,0,0,.06-.036,4.281,4.281,0,0,0,.45-.341.525.525,0,0,0,.047-.049c.056-.064.132-.167.161-.2.015-.018.11-.134.158-.2.008-.012.017-.024.024-.036a3.408,3.408,0,0,0,.223-.509.461.461,0,0,0,.022-.072,3.584,3.584,0,0,0,.078-.576c0-.012,0-.024,0-.037s0-.014,0-.021c-.01-.14-.048-.379-.071-.519a.514.514,0,0,0-.015-.069c0-.013-.009-.025-.014-.037-.033-.086-.16-.379-.2-.462l-.01-.022a.5.5,0,0,0-.036-.059l-.012-.016c-.082-.11-.221-.292-.311-.395-.009-.01-.017-.02-.027-.03a.676.676,0,0,0-.053-.048c-.126-.1-.281-.22-.415-.315l-.039-.026a.689.689,0,0,0-.064-.035,5.68,5.68,0,0,0-.535-.221.813.813,0,0,0-.151-.037,3.1,3.1,0,0,0-.687-.072,2.766,2.766,0,0,0-.672.106c-.127.048-.353.14-.475.2l-.018.008-.039.021a3.24,3.24,0,0,0-.454.343.39.39,0,0,0-.029.028l-.013.015c-.09.1-.23.284-.312.4a.514.514,0,0,0-.05.08,2.554,2.554,0,0,0-.265,1.022,1.886,1.886,0,0,0,.037.834l.012.035c.029.08.088.2.1.243.007.016.066.163.1.238a.576.576,0,0,0,.04.069,3.354,3.354,0,0,0,.343.432l.028.026.011.009c.117.1.282.22.406.308a.6.6,0,0,0,.057.037l.031.016.018.008c.136.06.34.148.48.2a.754.754,0,0,0,.148.037c.179.027.365.055.544.071l.036,0A.741.741,0,0,0,1473.6,893.364Z" transform="translate(-1471.086 -888.582)" fill="#f04d43"/>
            <path id="Trazado_1043894" data-name="Trazado 1043894" d="M1476.66,893.1a.923.923,0,0,1,1.253-.523" transform="translate(-1475.333 -891.561)" fill="none" stroke="#f9e3d5" stroke-linecap="round" stroke-linejoin="round" stroke-miterlimit="10" stroke-width="1"/>
          </g>
          <g id="Grupo_1182995" data-name="Grupo 1182995" transform="translate(146.97 24.748)">
            <path id="Trazado_1043895" data-name="Trazado 1043895" d="M1622.763,933.082l.036,0c.179-.017.373-.043.55-.073.026,0,.052-.009.077-.016s.05-.015.074-.024c.157-.058.337-.134.49-.2l.037-.018a.591.591,0,0,0,.06-.035,4.282,4.282,0,0,0,.45-.341.556.556,0,0,0,.047-.049c.056-.064.132-.167.161-.2.015-.018.11-.134.159-.2a.4.4,0,0,0,.024-.036,3.393,3.393,0,0,0,.223-.509.513.513,0,0,0,.022-.071,3.586,3.586,0,0,0,.078-.576c0-.012,0-.025,0-.037s0-.014,0-.021c-.011-.14-.048-.379-.071-.519a.494.494,0,0,0-.015-.069c0-.013-.009-.025-.013-.037-.033-.086-.16-.379-.2-.462l-.01-.022a.479.479,0,0,0-.036-.058l-.012-.016c-.082-.11-.221-.292-.311-.395l-.026-.03a.665.665,0,0,0-.053-.048c-.126-.1-.281-.22-.415-.315l-.039-.026a.648.648,0,0,0-.065-.035,5.653,5.653,0,0,0-.535-.221.821.821,0,0,0-.151-.037,3.1,3.1,0,0,0-.687-.072,2.776,2.776,0,0,0-.672.106c-.127.048-.353.14-.475.2l-.018.008-.039.021a3.259,3.259,0,0,0-.455.343c-.01.009-.019.018-.029.028l-.013.015c-.09.1-.23.284-.312.4a.535.535,0,0,0-.05.08,1.4,1.4,0,0,0-.232.711,1.427,1.427,0,0,0-.033.31,1.885,1.885,0,0,0,.038.834c0,.012.008.023.012.035.03.08.088.205.1.243.007.016.066.162.1.238a.512.512,0,0,0,.04.068,3.329,3.329,0,0,0,.343.432l.028.026.011.009c.117.1.281.22.406.308a.634.634,0,0,0,.058.037l.031.015.018.008c.136.06.341.148.48.2a.757.757,0,0,0,.148.037c.179.027.365.055.545.071l.036,0Q1622.724,933.085,1622.763,933.082Z" transform="translate(-1620.254 -928.301)" fill="#f04d43"/>
            <path id="Trazado_1043896" data-name="Trazado 1043896" d="M1625.83,932.821a.923.923,0,0,1,1.253-.524" transform="translate(-1624.502 -931.279)" fill="none" stroke="#f9e3d5" stroke-linecap="round" stroke-linejoin="round" stroke-miterlimit="10" stroke-width="1"/>
          </g>
        </g>
        <g id="Grupo_1182997" data-name="Grupo 1182997" transform="translate(-40.436 -19)">
          <ellipse id="Elipse_13138" data-name="Elipse 13138" cx="3.968" cy="2.904" rx="3.968" ry="2.904" transform="translate(237.912 90.858)" fill="#edd3c5"/>
          <ellipse id="Elipse_13140" data-name="Elipse 13140" cx="2.41" cy="2.904" rx="2.41" ry="2.904" transform="translate(236.319 64.633)" fill="#edd3c5"/>
          <circle id="Elipse_13141" data-name="Elipse 13141" cx="2.053" cy="2.053" r="2.053" transform="translate(223.154 91.815) rotate(-40.949)" fill="#edd3c5"/>
          <circle id="Elipse_13143" data-name="Elipse 13143" cx="2.053" cy="2.053" r="2.053" transform="translate(36.058 34.776)" fill="#edd3c5"/>
          <circle id="Elipse_13145" data-name="Elipse 13145" cx="2.053" cy="2.053" r="2.053" transform="translate(49.487 30.981) rotate(-22.5)" fill="#edd3c5"/>
          <path id="Trazado_1043897" data-name="Trazado 1043897" d="M848.205,613.215a1.718,1.718,0,1,1-1.718-1.718A1.718,1.718,0,0,1,848.205,613.215Z" transform="translate(-634.855 -520.362)" fill="#edd3c5"/>
          <path id="Trazado_1043898" data-name="Trazado 1043898" d="M45.8,469.685a1.718,1.718,0,1,1-1.718-1.718A1.718,1.718,0,0,1,45.8,469.685Z" transform="translate(-0.213 -378.816)" fill="#edd3c5"/>
          <path id="Trazado_1043899" data-name="Trazado 1043899" d="M1015.46,606.547a1.718,1.718,0,1,1-1.718-1.718A1.718,1.718,0,0,1,1015.46,606.547Z" transform="translate(-759.012 -515.412)" fill="#edd3c5"/>
          <circle id="Elipse_13147" data-name="Elipse 13147" cx="1.718" cy="1.718" r="1.718" transform="translate(54.853 99.443)" fill="#edd3c5"/>
          <path id="Trazado_1043900" data-name="Trazado 1043900" d="M871.672,574.621a.969.969,0,1,1-.969-.969A.969.969,0,0,1,871.672,574.621Z" transform="translate(-653.387 -492.269)" fill="#edd3c5"/>
          <path id="Trazado_1043901" data-name="Trazado 1043901" d="M1002.668,588.233a.969.969,0,1,1-.969-.969A.969.969,0,0,1,1002.668,588.233Z" transform="translate(-750.628 -502.373)" fill="#edd3c5"/>
          <path id="Trazado_1043903" data-name="Trazado 1043903" d="M972.733,682.854a.969.969,0,1,1-.969-.969A.969.969,0,0,1,972.733,682.854Z" transform="translate(-728.406 -572.612)" fill="#edd3c5"/>
          <ellipse id="Elipse_13148" data-name="Elipse 13148" cx="1.775" cy="1.452" rx="1.775" ry="1.452" transform="translate(251.239 122.17)" fill="#edd3c5"/>
          <circle id="Elipse_13149" data-name="Elipse 13149" cx="2.05" cy="2.05" r="2.05" transform="translate(251.382 106.795)" fill="#edd3c5"/>
          <ellipse id="Elipse_13150" data-name="Elipse 13150" cx="3.152" cy="2.865" rx="3.152" ry="2.865" transform="translate(235.577 125.931)" fill="#edd3c5"/>
          <ellipse id="Elipse_13151" data-name="Elipse 13151" cx="3.152" cy="2.865" rx="3.152" ry="2.865" transform="translate(39 101.68)" fill="#edd3c5"/>
          <ellipse id="Elipse_13152" data-name="Elipse 13152" cx="2.942" cy="2.904" rx="2.942" ry="2.904" transform="translate(226.047 105.212)" fill="#edd3c5"/>
          <ellipse id="Elipse_13154" data-name="Elipse 13154" cx="2.942" cy="2.904" rx="2.942" ry="2.904" transform="translate(46.058 42)" fill="#edd3c5"/>
        </g>
      </g>
    </g>
  </g>
</svg>
