<svg xmlns="http://www.w3.org/2000/svg" width="112.655" height="112.655" viewBox="0 0 112.655 112.655">
  <g id="spotify" transform="translate(0)">
    <circle id="Elipse_13123" data-name="Elipse 13123" cx="53.5" cy="53.5" r="53.5" transform="translate(3 3)" fill="#7dd787"/>
    <g id="Grupo_1182920" data-name="Grupo 1182920" transform="translate(21.095 33.58)">
      <path id="Trazado_1043353" data-name="Trazado 1043353" d="M159,183.72a4.037,4.037,0,0,1-5.523,1.449c-10.607-6.2-22.862-7.2-31.276-6.941a77.684,77.684,0,0,0-16.224,2.143,4.037,4.037,0,0,1-2.14-7.785,84.063,84.063,0,0,1,17.891-2.419,78.8,78.8,0,0,1,17.237,1.247,58.2,58.2,0,0,1,18.586,6.785A4.037,4.037,0,0,1,159,183.72Zm3.894-11.965a4.919,4.919,0,0,1-2.493-.677c-25.219-14.738-57.932-5.977-58.26-5.886a4.951,4.951,0,0,1-2.63-9.547,103.063,103.063,0,0,1,21.946-2.969,96.715,96.715,0,0,1,21.144,1.531,71.379,71.379,0,0,1,22.8,8.321,4.952,4.952,0,0,1-2.5,9.227Z" transform="translate(-95.874 -152.618)" fill="#fff"/>
      <path id="Trazado_1043354" data-name="Trazado 1043354" d="M180.029,313.066a3.405,3.405,0,0,1-4.661,1.222c-8.956-5.234-19.3-6.075-26.4-5.858a65.47,65.47,0,0,0-13.7,1.808,3.408,3.408,0,0,1-1.806-6.572,70.888,70.888,0,0,1,15.1-2.043,66.459,66.459,0,0,1,14.551,1.054,49.1,49.1,0,0,1,15.69,5.726,3.408,3.408,0,0,1,1.222,4.663Z" transform="translate(-123.239 -268.807)" fill="#fff"/>
    </g>
    <path id="Trazado_1043355" data-name="Trazado 1043355" d="M56.327,112.655A56.335,56.335,0,0,1,9.563,24.919a2.2,2.2,0,0,1,3.651,2.457A51.928,51.928,0,1,0,25.755,14.35a2.2,2.2,0,0,1-2.594-3.555,56.331,56.331,0,0,1,89.493,45.533,56.328,56.328,0,0,1-56.327,56.327Z" transform="translate(0)"/>
    <path id="Trazado_1043356" data-name="Trazado 1043356" d="M68.549,82.237a2.2,2.2,0,0,1-1.614-3.687l.046-.049a2.2,2.2,0,1,1,1.568,3.736Z" transform="translate(-51.751 -60.694)"/>
    <path id="Trazado_1043357" data-name="Trazado 1043357" d="M147.7,180.121a6.246,6.246,0,0,1-3.141-.851c-10.157-5.936-21.974-6.89-30.1-6.642A75.747,75.747,0,0,0,98.741,174.7a6.237,6.237,0,0,1-3.294-12.031,85.611,85.611,0,0,1,18.4-2.5,81,81,0,0,1,17.719,1.285,60.394,60.394,0,0,1,19.285,7.046,6.244,6.244,0,0,1,2.239,8.531v0A6.265,6.265,0,0,1,147.7,180.121Zm-30.973-11.928c8.537,0,19.974,1.387,30.05,7.277a1.814,1.814,0,0,0,.923.251,1.836,1.836,0,0,0,.931-3.422,56.011,56.011,0,0,0-17.886-6.523A76.585,76.585,0,0,0,114,164.566a82.211,82.211,0,0,0-17.383,2.342,1.837,1.837,0,0,0,.98,3.54,80.618,80.618,0,0,1,16.736-2.219C115.1,168.206,115.9,168.193,116.731,168.193Zm38.357-2.037a7.144,7.144,0,0,1-3.6-.978c-24.334-14.221-56.244-5.751-56.564-5.664a7.151,7.151,0,1,1-3.8-13.789,105.032,105.032,0,0,1,22.457-3.047,98.983,98.983,0,0,1,21.626,1.568,73.571,73.571,0,0,1,23.5,8.583,7.152,7.152,0,0,1-3.613,13.327Zm-37.879-13.636c11.139,0,24.588,1.9,36.5,8.86a2.7,2.7,0,0,0,1.383.376,2.762,2.762,0,0,0,2.379-1.363,2.75,2.75,0,0,0-.986-3.764,69.182,69.182,0,0,0-22.1-8.059,94.5,94.5,0,0,0-20.661-1.493,100.152,100.152,0,0,0-21.432,2.891,2.751,2.751,0,1,0,1.459,5.3A98.24,98.24,0,0,1,117.209,152.519Z" transform="translate(-66.972 -111.238)"/>
    <path id="Trazado_1043358" data-name="Trazado 1043358" d="M169.286,309.157a5.6,5.6,0,0,1-2.827-.767c-8.5-4.97-18.412-5.765-25.227-5.559a63.889,63.889,0,0,0-13.187,1.732,5.608,5.608,0,0,1-2.967-10.816,72.838,72.838,0,0,1,15.616-2.121,68.643,68.643,0,0,1,15.034,1.091,51.291,51.291,0,0,1,16.39,5.988,5.608,5.608,0,0,1,2.012,7.673h0A5.633,5.633,0,0,1,169.286,309.157ZM143.145,298.4c7.249,0,16.964,1.18,25.536,6.189a1.186,1.186,0,0,0,.606.166,1.2,1.2,0,0,0,1.046-.6h0a1.208,1.208,0,0,0-.434-1.652,46.913,46.913,0,0,0-14.99-5.464,64.245,64.245,0,0,0-14.069-1.017,69.33,69.33,0,0,0-14.589,1.964,1.207,1.207,0,1,0,.637,2.329,67.627,67.627,0,0,1,14.211-1.885C141.755,298.412,142.438,298.4,143.145,298.4Z" transform="translate(-94.346 -227.428)"/>
    <path id="Trazado_1043359" data-name="Trazado 1043359" d="M248.2,451.578a2.2,2.2,0,1,1,0-4.4h.11a2.2,2.2,0,0,1,.006,4.4Z" transform="translate(-191.873 -348.785)"/>
    <path id="Trazado_1043360" data-name="Trazado 1043360" d="M285.4,419.824a2.2,2.2,0,0,1-.4-4.363,42.122,42.122,0,0,0,17.323-7.591,2.2,2.2,0,0,1,2.629,3.529,46.548,46.548,0,0,1-19.143,8.388A2.223,2.223,0,0,1,285.4,419.824Z" transform="translate(-220.889 -317.787)"/>
  </g>
</svg>
