<svg xmlns="http://www.w3.org/2000/svg" xmlns:xlink="http://www.w3.org/1999/xlink" width="93.934" height="93.934" viewBox="0 0 93.934 93.934">
  <defs>
    <filter id="Trazado_982547" x="0" y="0" width="93.934" height="93.934" filterUnits="userSpaceOnUse">
      <feOffset dy="3" input="SourceAlpha"/>
      <feGaussianBlur stdDeviation="3" result="blur"/>
      <feFlood flood-opacity="0.161"/>
      <feComposite operator="in" in2="blur"/>
      <feComposite in="SourceGraphic"/>
    </filter>
  </defs>
  <g id="Grupo_1182609" data-name="Grupo 1182609" transform="translate(-170 -1378)">
    <g id="Grupo_1176816" data-name="Grupo 1176816" transform="translate(-19.033 -402)">
      <g id="Grupo_1176309" data-name="Grupo 1176309" transform="translate(0 -206)">
        <g id="Grupo_1172970" data-name="Grupo 1172970" transform="translate(-1 -9042)">
          <g id="Grupo_1171971" data-name="Grupo 1171971" transform="translate(199.033 11034)">
            <g id="Grupo_1167337" data-name="Grupo 1167337" transform="translate(0)">
              <g id="Grupo_1166720" data-name="Grupo 1166720">
                <g id="Grupo_1164305" data-name="Grupo 1164305">
                  <g id="Grupo_1163948" data-name="Grupo 1163948">
                    <g id="Grupo_1158168" data-name="Grupo 1158168">
                      <g id="Grupo_1152576" data-name="Grupo 1152576">
                        <g id="Grupo_1148633" data-name="Grupo 1148633">
                          <g id="Grupo_1148525" data-name="Grupo 1148525">
                            <g transform="matrix(1, 0, 0, 1, -9, -6)" filter="url(#Trazado_982547)">
                              <g id="Trazado_982547-2" data-name="Trazado 982547" transform="translate(9 6)" fill="#f2f7f5">
                                <path d="M 37.966796875 74.43359375 C 33.04315185546875 74.43359375 28.26757431030273 73.46962738037109 23.77274131774902 71.56847381591797 C 19.43047523498535 69.73184967041016 15.53040790557861 67.10224914550781 12.18087482452393 63.75271987915039 C 8.831341743469238 60.4031867980957 6.201741218566895 56.50312042236328 4.365118980407715 52.16086196899414 C 2.463963508605957 47.66601943969727 1.499996900558472 42.89044189453125 1.499996900558472 37.966796875 C 1.499996900558472 33.04315185546875 2.463963508605957 28.26757431030273 4.365118980407715 23.77274131774902 C 6.201741218566895 19.43047523498535 8.831341743469238 15.53040790557861 12.18087482452393 12.18087482452393 C 15.53040790557861 8.831341743469238 19.43047523498535 6.201741218566895 23.77274131774902 4.365118980407715 C 28.26757431030273 2.463963508605957 33.04315185546875 1.499996900558472 37.966796875 1.499996900558472 C 42.89044189453125 1.499996900558472 47.66601943969727 2.463963508605957 52.16086196899414 4.365118980407715 C 56.50312042236328 6.201741218566895 60.4031867980957 8.831341743469238 63.75271987915039 12.18087482452393 C 67.10224914550781 15.53040790557861 69.73184967041016 19.43047523498535 71.56847381591797 23.77274131774902 C 73.46962738037109 28.26757431030273 74.43359375 33.04315185546875 74.43359375 37.966796875 C 74.43359375 42.89044189453125 73.46962738037109 47.66601943969727 71.56847381591797 52.16086196899414 C 69.73184967041016 56.50313186645508 67.10224914550781 60.4031867980957 63.75271987915039 63.75271987915039 C 60.4031867980957 67.10224914550781 56.50313186645508 69.73184967041016 52.16086196899414 71.56847381591797 C 47.66601943969727 73.46962738037109 42.89044189453125 74.43359375 37.966796875 74.43359375 Z" stroke="none"/>
                                <path d="M 37.966796875 3 C 33.2449836730957 3 28.66600799560547 3.924095153808594 24.35705947875977 5.746635437011719 C 20.19359588623047 7.507637023925781 16.45379638671875 10.02928161621094 13.24153518676758 13.24153518676758 C 10.02927398681641 16.45379638671875 7.507621765136719 20.19359588623047 5.746635437011719 24.35705947875977 C 3.924095153808594 28.66600799560547 3 33.2449836730957 3 37.966796875 C 3 42.6886100769043 3.924095153808594 47.26758575439453 5.746635437011719 51.57653427124023 C 7.507621765136719 55.73999786376953 10.02927398681641 59.47979736328125 13.24153518676758 62.69205856323242 C 16.45379638671875 65.90431976318359 20.19359588623047 68.42597198486328 24.35705947875977 70.18695831298828 C 28.66600799560547 72.00949859619141 33.2449836730957 72.93359375 37.966796875 72.93359375 C 42.6886100769043 72.93359375 47.26758575439453 72.00949859619141 51.57653427124023 70.18695831298828 C 55.73999786376953 68.42597198486328 59.47979736328125 65.90431976318359 62.69205856323242 62.69205856323242 C 65.90431976318359 59.47979736328125 68.42597198486328 55.73999786376953 70.18695831298828 51.57653427124023 C 72.00949859619141 47.26758575439453 72.93359375 42.6886100769043 72.93359375 37.966796875 C 72.93359375 33.2449836730957 72.00949859619141 28.66600799560547 70.18695831298828 24.35705947875977 C 68.42597198486328 20.19359588623047 65.90431976318359 16.45379638671875 62.69205856323242 13.24153518676758 C 59.47979736328125 10.02928161621094 55.73999786376953 7.507637023925781 51.57653427124023 5.746635437011719 C 47.26758575439453 3.924095153808594 42.6886100769043 3 37.966796875 3 M 37.966796875 0 C 58.93528366088867 0 75.93359375 16.99832153320312 75.93359375 37.966796875 C 75.93359375 58.93528366088867 58.93528366088867 75.93359375 37.966796875 75.93359375 C 16.99831008911133 75.93359375 0 58.93528366088867 0 37.966796875 C 0 16.99832153320312 16.99831008911133 0 37.966796875 0 Z" stroke="none" fill="#4a665c"/>
                              </g>
                            </g>
                          </g>
                        </g>
                      </g>
                    </g>
                  </g>
                </g>
              </g>
            </g>
          </g>
        </g>
      </g>
    </g>
    <g id="bombilla_3_" data-name="bombilla (3)" transform="translate(194 1399)">
      <g id="Grupo_1182607" data-name="Grupo 1182607" transform="translate(0.731 0.731)">
        <path id="Trazado_1043072" data-name="Trazado 1043072" d="M240.479,471.854h4.983a2.438,2.438,0,0,1-2.437,2.439h-.109A2.438,2.438,0,0,1,240.479,471.854Z" transform="translate(-219.236 -429.47)" fill="#8c808a"/>
        <path id="Trazado_1043073" data-name="Trazado 1043073" d="M223.591,419.974h-9.873v2.293a2.446,2.446,0,0,0,2.445,2.447h4.983a2.446,2.446,0,0,0,2.445-2.447v-2.293Z" transform="translate(-194.921 -382.33)" fill="#b2b2b2"/>
        <path id="Trazado_1043074" data-name="Trazado 1043074" d="M32.789,22.268V18.541l-3.046-.433a9.578,9.578,0,0,0-1.116-2.7l1.848-2.462-2.633-2.635-2.46,1.85a9.564,9.564,0,0,0-2.694-1.117L22.256,8H18.533L18.1,11.048a9.563,9.563,0,0,0-2.694,1.117l-2.46-1.85-2.633,2.635,1.848,2.462a9.584,9.584,0,0,0-1.116,2.7L8,18.541v3.726l3.046.433a9.578,9.578,0,0,0,1.116,2.7l-1.848,2.462,2.633,2.635,2.46-1.85A9.565,9.565,0,0,0,18.1,29.761l.432,3.048h3.723l.432-3.048a9.563,9.563,0,0,0,2.694-1.117l2.46,1.85,2.633-2.635L28.627,25.4a9.58,9.58,0,0,0,1.116-2.7ZM20.45,24.7a4.745,4.745,0,1,1,4.741-4.745A4.743,4.743,0,0,1,20.45,24.7Z" transform="translate(-8 -8)" fill="#8c808a"/>
        <path id="Trazado_1043075" data-name="Trazado 1043075" d="M138.564,109.928V106.2l-3.046-.433a9.587,9.587,0,0,0-.417-1.293,13.007,13.007,0,0,0-4.37,1.668,4.74,4.74,0,0,1-5.3,6.151,13.174,13.174,0,0,0-.644,8.175h3.248l.432-3.048a9.564,9.564,0,0,0,2.694-1.117l2.46,1.85,2.633-2.635-1.848-2.462a9.581,9.581,0,0,0,1.116-2.7Z" transform="translate(-113.775 -95.66)" fill="#7b7179"/>
        <path id="Trazado_1043076" data-name="Trazado 1043076" d="M338.974,331.779v-2.495l-2.039-.29a6.41,6.41,0,0,0-.747-1.805l1.237-1.648-1.763-1.764-1.647,1.238a6.4,6.4,0,0,0-1.8-.748l-.289-2.041h-2.493l-.289,2.041a6.4,6.4,0,0,0-1.8.748l-1.647-1.238-1.763,1.764,1.237,1.648a6.412,6.412,0,0,0-.747,1.805l-2.039.29v2.495l2.039.29a6.415,6.415,0,0,0,.747,1.805l-1.237,1.648,1.763,1.764,1.647-1.238a6.4,6.4,0,0,0,1.8.748l.289,2.041h2.493l.289-2.041a6.4,6.4,0,0,0,1.8-.748l1.647,1.238,1.763-1.764-1.237-1.648a6.414,6.414,0,0,0,.747-1.805Zm-8.3,2.091a3.338,3.338,0,1,1,3.336-3.338A3.337,3.337,0,0,1,330.676,333.87Z" transform="translate(-293.652 -293.515)" fill="#8c808a"/>
        <g id="Grupo_1182606" data-name="Grupo 1182606" transform="translate(36.625 28.712)">
          <g id="Grupo_1182605" data-name="Grupo 1182605">
            <g id="Grupo_1182600" data-name="Grupo 1182600" transform="translate(4.445 1.55)">
              <path id="Trazado_1043077" data-name="Trazado 1043077" d="M459.475,341.9l.706-.94-1.763-1.764-.939.706Z" transform="translate(-457.479 -339.194)" fill="#7b7179"/>
            </g>
            <g id="Grupo_1182601" data-name="Grupo 1182601" transform="translate(0)">
              <path id="Trazado_1043078" data-name="Trazado 1043078" d="M410.763,324.268l-.29-2.041h-1.645l.234,1.648a.457.457,0,0,0,.452.393Z" transform="translate(-408.829 -322.227)" fill="#7b7179"/>
            </g>
            <g id="Grupo_1182602" data-name="Grupo 1182602" transform="translate(4.446 12.356)">
              <path id="Trazado_1043079" data-name="Trazado 1043079" d="M457.481,459.443l.939.706,1.763-1.764-.705-.939Z" transform="translate(-457.481 -457.446)" fill="#7b7179"/>
            </g>
            <g id="Grupo_1182603" data-name="Grupo 1182603" transform="translate(7.051 6.824)">
              <path id="Trazado_1043080" data-name="Trazado 1043080" d="M486,396.9v2.962l1.645-.234v-2.495Z" transform="translate(-486 -396.905)" fill="#7b7179"/>
            </g>
            <g id="Grupo_1182604" data-name="Grupo 1182604" transform="translate(0 14.569)">
              <path id="Trazado_1043081" data-name="Trazado 1043081" d="M409.063,482.059l-.234,1.648h1.645l.29-2.041h-1.248A.457.457,0,0,0,409.063,482.059Z" transform="translate(-408.829 -481.666)" fill="#7b7179"/>
            </g>
          </g>
        </g>
        <path id="Trazado_1043082" data-name="Trazado 1043082" d="M166.577,133.78a11.311,11.311,0,1,0-19.113,8.2h0a11.4,11.4,0,0,1,2.565,4,19.908,19.908,0,0,1,.3,3.671H160.2a19.911,19.911,0,0,1,.3-3.671,11.4,11.4,0,0,1,2.565-4A11.293,11.293,0,0,0,166.577,133.78Z" transform="translate(-131.532 -112)" fill="#ffdc00"/>
        <path id="Trazado_1043083" data-name="Trazado 1043083" d="M260.413,471.853a2.439,2.439,0,0,1-1.669,2.314,2.432,2.432,0,0,0,.768.124h.109a2.438,2.438,0,0,0,2.437-2.439h-1.645Z" transform="translate(-235.832 -429.469)" fill="#7b7179"/>
        <path id="Trazado_1043084" data-name="Trazado 1043084" d="M279.455,419.974v2.293a2.446,2.446,0,0,1-2.445,2.447h1.645a2.446,2.446,0,0,0,2.445-2.447v-2.293Z" transform="translate(-252.429 -382.33)" fill="#a0a0a0"/>
        <path id="Trazado_1043085" data-name="Trazado 1043085" d="M270.877,133.78a11.316,11.316,0,0,0-11.311-11.321q-.415,0-.822.03a11.323,11.323,0,0,1,6.979,19.487c-2.162,2.062-1.993,1.992-2.565,4a19.913,19.913,0,0,0-.3,3.671H264.5a19.913,19.913,0,0,1,.3-3.671,11.4,11.4,0,0,1,2.565-4A11.292,11.292,0,0,0,270.877,133.78Z" transform="translate(-235.832 -112)" fill="#ffbf00"/>
      </g>
      <g id="Grupo_1182608" data-name="Grupo 1182608" transform="translate(0 0)">
        <path id="Trazado_1043086" data-name="Trazado 1043086" d="M46.194,35.846l-1.6-.227a7.093,7.093,0,0,0-.471-1.138l.971-1.293a.687.687,0,0,0-.063-.9l-1.766-1.768a.687.687,0,0,0-.9-.063l-1.291.971a7.1,7.1,0,0,0-1.136-.471l-.227-1.6a.687.687,0,0,0-.68-.59h-2.5a.687.687,0,0,0-.68.59l-.227,1.6a7.1,7.1,0,0,0-1.136.471l-1.12-.842A11.881,11.881,0,0,0,36.4,24h.291a.687.687,0,1,0,0-1.373h-.2c0-.039,0-.078,0-.118a12.07,12.07,0,0,0-.415-3.143.687.687,0,0,0-1.326.358,10.7,10.7,0,0,1,.367,2.785,10.567,10.567,0,0,1-3.3,7.716l-.012.011a12,12,0,0,0-2.745,4.3,10.126,10.126,0,0,0-.262,1.875.685.685,0,0,0-.01.114v.039c-.026.423-.04.828-.047,1.153H26.787c-.075-.948-.2-2.862-.162-4.839.019-1.061.079-1.934.165-2.653a7.358,7.358,0,0,0,2.548-.785,2.451,2.451,0,0,0,.975-3.212c-.422-.746-1.459-1.328-2.99-.511-.783.418-1.327,1.375-1.664,2.926q-.036.165-.069.34c-.467.039-.87.054-1.124.052s-.655-.013-1.121-.052q-.033-.175-.069-.341c-.337-1.551-.881-2.508-1.664-2.926-1.531-.817-2.568-.235-2.99.511a2.262,2.262,0,0,0-.174,1.714,2.543,2.543,0,0,0,1.149,1.5,7.36,7.36,0,0,0,2.548.785c.085.718.146,1.592.165,2.653.036,1.977-.087,3.89-.162,4.839H20.2a15.737,15.737,0,0,0-.319-3.18,12.073,12.073,0,0,0-2.744-4.3l-.013-.013A10.652,10.652,0,1,1,33.777,17.335a.687.687,0,0,0,1.2-.667,12.029,12.029,0,0,0-2.684-3.286h.8a.687.687,0,1,0,0-1.373H32.18a.687.687,0,0,0-.687.687c0,.02,0,.039,0,.058A12.018,12.018,0,0,0,25.127,10.5l-2.11-.3a10.27,10.27,0,0,0-.843-2.036l1.58-2.1a.687.687,0,0,0-.063-.9l-2.638-2.64a.687.687,0,0,0-.9-.063l-2.1,1.58A10.255,10.255,0,0,0,16.02,3.2L15.65.59a.687.687,0,0,0-.68-.59H11.24a.687.687,0,0,0-.68.59L10.19,3.2a10.257,10.257,0,0,0-2.033.843l-2.1-1.581a.687.687,0,0,0-.9.063L2.519,5.162a.687.687,0,0,0-.063.9l1.58,2.1A10.275,10.275,0,0,0,3.193,10.2l-2.6.37a.687.687,0,0,0-.59.68v3.734a.687.687,0,0,0,.59.68l2.6.37a10.264,10.264,0,0,0,.843,2.036l-1.58,2.1a.687.687,0,0,0,.063.9l2.638,2.64a.687.687,0,0,0,.9.063l2.1-1.581a10.257,10.257,0,0,0,2.033.843l.37,2.606a.687.687,0,0,0,.68.59h1.789a11.955,11.955,0,0,0,3.14,4.98,10.733,10.733,0,0,1,2.391,3.7,18.534,18.534,0,0,1,.274,3.488h0v2.3a3.144,3.144,0,0,0,2.513,3.076,3.134,3.134,0,0,0,3.066,2.506h.11a3.134,3.134,0,0,0,3.066-2.506A3.143,3.143,0,0,0,30.1,40.7v-.893l.872.124a7.1,7.1,0,0,0,.471,1.138l-.971,1.293a.687.687,0,0,0,.063.9L32.3,45.029a.687.687,0,0,0,.9.063l1.291-.971a7.094,7.094,0,0,0,1.136.471l.227,1.6a.687.687,0,0,0,.68.59h2.5a.687.687,0,0,0,.68-.59l.227-1.6a7.1,7.1,0,0,0,1.136-.471l1.291.971a.687.687,0,0,0,.9-.063l1.766-1.768a.687.687,0,0,0,.063-.9l-.971-1.293a7.113,7.113,0,0,0,.471-1.138l1.6-.227a.687.687,0,0,0,.59-.68v-2.5a.687.687,0,0,0-.59-.68ZM27.969,26.93a1.789,1.789,0,0,1,.748-.234.426.426,0,0,1,.4.21,1.085,1.085,0,0,1-.486,1.357,5.157,5.157,0,0,1-1.6.529c.327-1.4.757-1.767.936-1.863ZM20.3,28.263a1.085,1.085,0,0,1-.486-1.357.426.426,0,0,1,.4-.21,1.789,1.789,0,0,1,.748.234c.179.1.609.466.936,1.863A5.159,5.159,0,0,1,20.3,28.263Zm-8.467-3.4-.35-2.464a.687.687,0,0,0-.517-.571,8.888,8.888,0,0,1-2.506-1.039.687.687,0,0,0-.769.038L5.707,22.317l-1.8-1.8,1.494-1.99a.687.687,0,0,0,.038-.768,8.9,8.9,0,0,1-1.038-2.509.687.687,0,0,0-.57-.517l-2.462-.35V11.845l2.462-.35a.687.687,0,0,0,.57-.517A8.9,8.9,0,0,1,5.444,8.47.687.687,0,0,0,5.406,7.7L3.912,5.711l1.8-1.8L7.695,5.409a.687.687,0,0,0,.769.038A8.889,8.889,0,0,1,10.97,4.408a.687.687,0,0,0,.517-.571l.35-2.464h2.538l.35,2.464a.687.687,0,0,0,.517.571,8.892,8.892,0,0,1,2.506,1.039.687.687,0,0,0,.769-.038L20.5,3.914l1.8,1.8L20.8,7.7a.686.686,0,0,0-.038.768,8.9,8.9,0,0,1,.988,2.318,11.937,11.937,0,0,0-3.194,1.247A5.435,5.435,0,0,0,8.633,9.656a.687.687,0,0,0,1.144.761,4.063,4.063,0,0,1,7.449,2.251c0,.083,0,.167-.009.253a12.115,12.115,0,0,0-3.246,3.732A4.062,4.062,0,0,1,9.1,12.667a.687.687,0,1,0-1.373,0,5.445,5.445,0,0,0,5.437,5.441l.119,0a11.976,11.976,0,0,0-.833,4.4,12.215,12.215,0,0,0,.227,2.35h-.838Zm19.607,9.624a7.1,7.1,0,0,0-.471,1.138l-.74.105a5.431,5.431,0,0,1,.142-.81,5.889,5.889,0,0,1,.5-1.186Zm-7.761-1.616c-.016-.913-.063-1.745-.14-2.491.522.034.882.035.924.034s.4,0,.926-.035c-.077.746-.124,1.578-.14,2.491-.035,1.977.08,3.849.157,4.852H23.525C23.6,36.714,23.718,34.842,23.682,32.866Zm.84,12.045h-.11a1.757,1.757,0,0,1-1.615-1.07h3.34a1.757,1.757,0,0,1-1.615,1.07Zm4.2-4.209a1.766,1.766,0,0,1-1.763,1.765H21.971A1.766,1.766,0,0,1,20.207,40.7V39.091h8.519V40.7ZM45.41,38.43l-1.453.206a.687.687,0,0,0-.57.517,5.736,5.736,0,0,1-.669,1.616.687.687,0,0,0,.038.768l.882,1.175-.924.924-1.173-.882a.686.686,0,0,0-.769-.038,5.723,5.723,0,0,1-1.614.669.687.687,0,0,0-.517.571l-.206,1.454H37.13l-.206-1.455a.687.687,0,0,0-.517-.571,5.724,5.724,0,0,1-1.614-.669.687.687,0,0,0-.769.038l-1.173.882-.924-.924.882-1.175a.687.687,0,0,0,.038-.768,5.738,5.738,0,0,1-.669-1.616.687.687,0,0,0-.57-.517l-1.453-.206V37.122l1.453-.206a.687.687,0,0,0,.57-.517,5.737,5.737,0,0,1,.669-1.616.687.687,0,0,0-.038-.768l-.882-1.175.924-.924,1.173.882a.687.687,0,0,0,.769.038,5.723,5.723,0,0,1,1.614-.669.687.687,0,0,0,.517-.571l.206-1.454h1.305l.206,1.454a.687.687,0,0,0,.517.571,5.728,5.728,0,0,1,1.614.669.687.687,0,0,0,.769-.038l1.173-.882.923.924-.882,1.175a.687.687,0,0,0-.038.768,5.734,5.734,0,0,1,.669,1.616.687.687,0,0,0,.57.517l1.453.206Z" transform="translate(0 0)"/>
        <path id="Trazado_1043087" data-name="Trazado 1043087" d="M373.436,369.3a4.035,4.035,0,0,0-4.029,4.031.687.687,0,1,0,1.373,0,2.657,2.657,0,1,1,.9,1.991.687.687,0,1,0-.911,1.027,4.03,4.03,0,1,0,2.671-7.05Z" transform="translate(-335.653 -335.556)"/>
        <path id="Trazado_1043088" data-name="Trazado 1043088" d="M380.419,132.793h.916a.687.687,0,1,0,0-1.373h-.916a.687.687,0,0,0,0,1.373Z" transform="translate(-345.034 -119.412)"/>
        <path id="Trazado_1043089" data-name="Trazado 1043089" d="M448.66,141.037a4.65,4.65,0,0,1,.643.469.687.687,0,0,0,.9-1.036,6.025,6.025,0,0,0-.834-.608.687.687,0,0,0-.711,1.175Z" transform="translate(-407.363 -126.992)"/>
        <path id="Trazado_1043090" data-name="Trazado 1043090" d="M415.487,132.794c.29,0,.575.012.864.031a.694.694,0,0,0,.732-.609.687.687,0,0,0-.607-.758,8.952,8.952,0,0,0-.99-.037.687.687,0,1,0,0,1.373Z" transform="translate(-376.898 -119.413)"/>
        <path id="Trazado_1043091" data-name="Trazado 1043091" d="M420.507,246.653a4.657,4.657,0,0,1-.793.077.687.687,0,0,0,.008,1.373h.008a6.029,6.029,0,0,0,1.027-.1.687.687,0,0,0-.25-1.35Z" transform="translate(-380.746 -224.105)"/>
        <path id="Trazado_1043092" data-name="Trazado 1043092" d="M452.785,230.684a4.654,4.654,0,0,1-.608.515.687.687,0,1,0,.795,1.12,6.023,6.023,0,0,0,.787-.667.687.687,0,0,0-.974-.968Z" transform="translate(-410.598 -209.421)"/>
        <path id="Trazado_1043093" data-name="Trazado 1043093" d="M473.3,202.084a.693.693,0,0,0,.881-.408,5.978,5.978,0,0,0,.27-1,.687.687,0,0,0-1.352-.243,4.605,4.605,0,0,1-.208.767A.687.687,0,0,0,473.3,202.084Z" transform="translate(-429.644 -181.608)"/>
        <path id="Trazado_1043094" data-name="Trazado 1043094" d="M471.312,166.563a4.593,4.593,0,0,1,.264.75.687.687,0,0,0,1.33-.341,5.982,5.982,0,0,0-.343-.975.687.687,0,1,0-1.251.566Z" transform="translate(-428.191 -150.462)"/>
        <path id="Trazado_1043095" data-name="Trazado 1043095" d="M23.731,309.581a.687.687,0,0,0-.886.4,5.984,5.984,0,0,0-.282.994.687.687,0,1,0,1.349.259,4.6,4.6,0,0,1,.217-.765A.687.687,0,0,0,23.731,309.581Z" transform="translate(-20.49 -281.252)"/>
        <path id="Trazado_1043096" data-name="Trazado 1043096" d="M42.738,374.247a4.665,4.665,0,0,1-.638-.477.687.687,0,1,0-.914,1.025,6.045,6.045,0,0,0,.826.618.687.687,0,1,0,.725-1.166Z" transform="translate(-37.214 -339.459)"/>
        <path id="Trazado_1043097" data-name="Trazado 1043097" d="M109.045,388.3h-.916a.687.687,0,0,0,0,1.373h.916a.687.687,0,0,0,0-1.373Z" transform="translate(-97.625 -352.819)"/>
        <path id="Trazado_1043098" data-name="Trazado 1043098" d="M144.114,388.3H143.2a.687.687,0,0,0,0,1.373h.916a.687.687,0,0,0,0-1.373Z" transform="translate(-129.49 -352.819)"/>
        <path id="Trazado_1043099" data-name="Trazado 1043099" d="M179.182,388.3h-.916a.687.687,0,0,0,0,1.373h.916a.687.687,0,0,0,0-1.373Z" transform="translate(-161.354 -352.819)"/>
        <path id="Trazado_1043100" data-name="Trazado 1043100" d="M24.76,345.279a4.612,4.612,0,0,1-.254-.754.687.687,0,0,0-1.334.325,5.984,5.984,0,0,0,.331.979.687.687,0,1,0,1.258-.55Z" transform="translate(-21.036 -312.568)"/>
        <path id="Trazado_1043101" data-name="Trazado 1043101" d="M74,387.9a6.756,6.756,0,0,1-.83-.035A.687.687,0,1,0,73,389.228a8.135,8.135,0,0,0,1,.045.687.687,0,1,0,0-1.373Z" transform="translate(-65.781 -352.42)"/>
        <path id="Trazado_1043102" data-name="Trazado 1043102" d="M39.624,284.324a.684.684,0,0,0,.481-.2,4.653,4.653,0,0,1,.614-.508.687.687,0,1,0-.781-1.129,6.036,6.036,0,0,0-.8.658A.692.692,0,0,0,39.624,284.324Z" transform="translate(-35.384 -256.567)"/>
        <path id="Trazado_1043103" data-name="Trazado 1043103" d="M70.4,273.54a4.664,4.664,0,0,1,.794-.068.687.687,0,1,0,0-1.373,6.044,6.044,0,0,0-1.028.088.687.687,0,0,0,.234,1.353Z" transform="translate(-63.233 -247.236)"/>
      </g>
    </g>
  </g>
</svg>
