<svg xmlns="http://www.w3.org/2000/svg" xmlns:xlink="http://www.w3.org/1999/xlink" width="93.934" height="93.934" viewBox="0 0 93.934 93.934">
  <defs>
    <filter id="Trazado_982547" x="0" y="0" width="93.934" height="93.934" filterUnits="userSpaceOnUse">
      <feOffset dy="3" input="SourceAlpha"/>
      <feGaussianBlur stdDeviation="3" result="blur"/>
      <feFlood flood-opacity="0.161"/>
      <feComposite operator="in" in2="blur"/>
      <feComposite in="SourceGraphic"/>
    </filter>
  </defs>
  <g id="Grupo_1182610" data-name="Grupo 1182610" transform="translate(-590 -1378)">
    <g id="Grupo_1176817" data-name="Grupo 1176817" transform="translate(400.967 -402)">
      <g id="Grupo_1176309" data-name="Grupo 1176309" transform="translate(0 -206)">
        <g id="Grupo_1172970" data-name="Grupo 1172970" transform="translate(-1 -9042)">
          <g id="Grupo_1171971" data-name="Grupo 1171971" transform="translate(199.033 11034)">
            <g id="Grupo_1167337" data-name="Grupo 1167337" transform="translate(0)">
              <g id="Grupo_1166720" data-name="Grupo 1166720">
                <g id="Grupo_1164305" data-name="Grupo 1164305">
                  <g id="Grupo_1163948" data-name="Grupo 1163948">
                    <g id="Grupo_1158168" data-name="Grupo 1158168">
                      <g id="Grupo_1152576" data-name="Grupo 1152576">
                        <g id="Grupo_1148633" data-name="Grupo 1148633">
                          <g id="Grupo_1148525" data-name="Grupo 1148525">
                            <g transform="matrix(1, 0, 0, 1, -9, -6)" filter="url(#Trazado_982547)">
                              <g id="Trazado_982547-2" data-name="Trazado 982547" transform="translate(9 6)" fill="#f2f7f5">
                                <path d="M 37.966796875 74.43359375 C 33.04315185546875 74.43359375 28.26757431030273 73.46962738037109 23.77274131774902 71.56847381591797 C 19.43047523498535 69.73184967041016 15.53040790557861 67.10224914550781 12.18087482452393 63.75271987915039 C 8.831341743469238 60.4031867980957 6.201741218566895 56.50312042236328 4.365118980407715 52.16086196899414 C 2.463963508605957 47.66601943969727 1.499996900558472 42.89044189453125 1.499996900558472 37.966796875 C 1.499996900558472 33.04315185546875 2.463963508605957 28.26757431030273 4.365118980407715 23.77274131774902 C 6.201741218566895 19.43047523498535 8.831341743469238 15.53040790557861 12.18087482452393 12.18087482452393 C 15.53040790557861 8.831341743469238 19.43047523498535 6.201741218566895 23.77274131774902 4.365118980407715 C 28.26757431030273 2.463963508605957 33.04315185546875 1.499996900558472 37.966796875 1.499996900558472 C 42.89044189453125 1.499996900558472 47.66601943969727 2.463963508605957 52.16086196899414 4.365118980407715 C 56.50312042236328 6.201741218566895 60.4031867980957 8.831341743469238 63.75271987915039 12.18087482452393 C 67.10224914550781 15.53040790557861 69.73184967041016 19.43047523498535 71.56847381591797 23.77274131774902 C 73.46962738037109 28.26757431030273 74.43359375 33.04315185546875 74.43359375 37.966796875 C 74.43359375 42.89044189453125 73.46962738037109 47.66601943969727 71.56847381591797 52.16086196899414 C 69.73184967041016 56.50313186645508 67.10224914550781 60.4031867980957 63.75271987915039 63.75271987915039 C 60.4031867980957 67.10224914550781 56.50313186645508 69.73184967041016 52.16086196899414 71.56847381591797 C 47.66601943969727 73.46962738037109 42.89044189453125 74.43359375 37.966796875 74.43359375 Z" stroke="none"/>
                                <path d="M 37.966796875 3 C 33.2449836730957 3 28.66600799560547 3.924095153808594 24.35705947875977 5.746635437011719 C 20.19359588623047 7.507637023925781 16.45379638671875 10.02928161621094 13.24153518676758 13.24153518676758 C 10.02927398681641 16.45379638671875 7.507621765136719 20.19359588623047 5.746635437011719 24.35705947875977 C 3.924095153808594 28.66600799560547 3 33.2449836730957 3 37.966796875 C 3 42.6886100769043 3.924095153808594 47.26758575439453 5.746635437011719 51.57653427124023 C 7.507621765136719 55.73999786376953 10.02927398681641 59.47979736328125 13.24153518676758 62.69205856323242 C 16.45379638671875 65.90431976318359 20.19359588623047 68.42597198486328 24.35705947875977 70.18695831298828 C 28.66600799560547 72.00949859619141 33.2449836730957 72.93359375 37.966796875 72.93359375 C 42.6886100769043 72.93359375 47.26758575439453 72.00949859619141 51.57653427124023 70.18695831298828 C 55.73999786376953 68.42597198486328 59.47979736328125 65.90431976318359 62.69205856323242 62.69205856323242 C 65.90431976318359 59.47979736328125 68.42597198486328 55.73999786376953 70.18695831298828 51.57653427124023 C 72.00949859619141 47.26758575439453 72.93359375 42.6886100769043 72.93359375 37.966796875 C 72.93359375 33.2449836730957 72.00949859619141 28.66600799560547 70.18695831298828 24.35705947875977 C 68.42597198486328 20.19359588623047 65.90431976318359 16.45379638671875 62.69205856323242 13.24153518676758 C 59.47979736328125 10.02928161621094 55.73999786376953 7.507637023925781 51.57653427124023 5.746635437011719 C 47.26758575439453 3.924095153808594 42.6886100769043 3 37.966796875 3 M 37.966796875 0 C 58.93528366088867 0 75.93359375 16.99832153320312 75.93359375 37.966796875 C 75.93359375 58.93528366088867 58.93528366088867 75.93359375 37.966796875 75.93359375 C 16.99831008911133 75.93359375 0 58.93528366088867 0 37.966796875 C 0 16.99832153320312 16.99831008911133 0 37.966796875 0 Z" stroke="none" fill="#4a665c"/>
                              </g>
                            </g>
                          </g>
                        </g>
                      </g>
                    </g>
                  </g>
                </g>
              </g>
            </g>
          </g>
        </g>
      </g>
    </g>
    <g id="proactivo" transform="translate(594.128 1389)">
      <path id="Trazado_1043104" data-name="Trazado 1043104" d="M62.168,105.31H43.9q-1.149-6.442-7.77-4.94-4.416.768-4.324-1.237c-.016-2.07-.369-2.823-.9-3.224-1.183-.909.134-2.082,1.488-2.817-1.138-.089-2.6-1-2.286-1.739.506-1.723.267-2.416-.512-2.82q-2.27-1.111-.925-2.829a16.216,16.216,0,0,0,2.476-3.449,5.73,5.73,0,0,0,.642-3.351c-.054-.556-.083-1.119-.083-1.691A16.774,16.774,0,1,1,61.278,88.054a5.7,5.7,0,0,0-1.377,3.2c-.429,3.907.54,8.44,2.779,13.25a.566.566,0,0,1-.512.8Z" transform="translate(-8.33 -47.898)" fill="#f6dccd" fill-rule="evenodd"/>
      <path id="Trazado_1043105" data-name="Trazado 1043105" d="M223.115,105.31h-3.392a.566.566,0,0,0,.512-.8c-2.238-4.81-3.208-9.343-2.778-13.25a5.7,5.7,0,0,1,1.376-3.2,16.775,16.775,0,0,0-11.1-27.531,16.565,16.565,0,0,1,1.694-.086,16.775,16.775,0,0,1,12.8,27.616,5.7,5.7,0,0,0-1.377,3.2c-.429,3.907.54,8.44,2.779,13.25a.566.566,0,0,1-.512.8Z" transform="translate(-169.277 -47.898)" fill="#f1cbbc" fill-rule="evenodd"/>
      <path id="Trazado_1043106" data-name="Trazado 1043106" d="M207.7,18.876a10.978,10.978,0,0,1,3.218,1.334l2.091-.928,2.464,2.464-.928,2.091a10.975,10.975,0,0,1,1.334,3.218l2.134.821v3.486l-2.134.821a10.983,10.983,0,0,1-1.334,3.216l.928,2.091-2.464,2.465-2.091-.929a10.982,10.982,0,0,1-3.218,1.335l-.821,2.132H203.4l-.821-2.134a10.986,10.986,0,0,1-3.217-1.334l-2.091.929L194.8,37.49l.929-2.09a11.015,11.015,0,0,1-1.335-3.218l-2.132-.821V27.876l2.132-.821a10.981,10.981,0,0,1,1.335-3.218l-.929-2.091,2.465-2.464,2.09.928a11.012,11.012,0,0,1,3.218-1.334l.821-2.134h3.486Z" transform="translate(-155.416 -8.732)" fill="#ffe177" fill-rule="evenodd"/>
      <path id="Trazado_1043107" data-name="Trazado 1043107" d="M252.872,19.593l.7-.312,2.464,2.464-.928,2.091a10.975,10.975,0,0,1,1.334,3.218l2.134.821v3.486l-2.134.821A10.983,10.983,0,0,1,255.11,35.4l.928,2.091-2.464,2.465-.7-.312,2.153-2.153L254.1,35.4a10.983,10.983,0,0,0,1.334-3.216l2.134-.821V27.876l-2.134-.821a10.975,10.975,0,0,0-1.334-3.218l.929-2.091Zm-15.354,0,.312-.312,2.09.928c-.147.082-.294.167-.436.257Zm10.747-.718a10.978,10.978,0,0,1,3.218,1.334l-.576.257a14.36,14.36,0,0,0-3.656-1.591l-.821-2.134h1.014Zm-8.345,20.151-2.091.929-.312-.312,1.965-.873Q239.7,38.9,239.921,39.026Zm11.563,0a10.982,10.982,0,0,1-3.218,1.335l-.821,2.132H246.43l.821-2.132a14.39,14.39,0,0,0,3.658-1.591Z" transform="translate(-195.978 -8.732)" fill="#ffd064" fill-rule="evenodd"/>
      <path id="Trazado_1043108" data-name="Trazado 1043108" d="M266.264,84.937a5.806,5.806,0,1,1-5.805,5.806A5.806,5.806,0,0,1,266.264,84.937Z" transform="translate(-216.541 -69.857)" fill="#eceff1" fill-rule="evenodd"/>
      <path id="Trazado_1043109" data-name="Trazado 1043109" d="M266.264,84.937c.132,0,.263,0,.394.014a5.805,5.805,0,0,0,0,11.584c-.131.008-.262.013-.394.013a5.806,5.806,0,0,1,0-11.612Z" transform="translate(-216.541 -69.857)" fill="#d1d1d6" fill-rule="evenodd"/>
      <path id="Trazado_1043110" data-name="Trazado 1043110" d="M323.29,101.654a.579.579,0,0,1-.936.459l-5.689-4.483a.573.573,0,0,1,0-.908l5.689-4.483a.579.579,0,0,1,.936.459v1.859h9.676a.622.622,0,0,1,.622.622v4a.622.622,0,0,1-.622.622H323.29Z" transform="translate(-266.719 -76.289)" fill="#8ac9fe" fill-rule="evenodd"/>
      <path id="Trazado_1043111" data-name="Trazado 1043111" d="M333.588,137.417v1.037a.622.622,0,0,1-.622.622H323.29v-1.037h9.676A.622.622,0,0,0,333.588,137.417Zm-10.3,2.481v1.037a.579.579,0,0,1-.936.459l-5.689-4.483a.573.573,0,0,1,0-.908l.082-.064,5.607,4.419A.579.579,0,0,0,323.29,139.9Z" transform="translate(-266.719 -115.57)" fill="#60b7ff" fill-rule="evenodd"/>
      <path id="Trazado_1043112" data-name="Trazado 1043112" d="M61.218,24.156A11.9,11.9,0,0,1,60.2,26.54l.754,1.7a.829.829,0,0,1-.172.922l-2.463,2.463a.829.829,0,0,1-.922.172l-1.7-.753a11.747,11.747,0,0,1-2.651,1.1l-.668,1.734a.829.829,0,0,1-.774.532H48.116a.829.829,0,0,1-.774-.532l-.667-1.734a11.858,11.858,0,0,1-2.653-1.1l-1.7.754a.829.829,0,0,1-.922-.172l-2.463-2.463a.829.829,0,0,1-.171-.923l.756-1.7a11.848,11.848,0,0,1-1.1-2.65l-1.736-.668a.829.829,0,0,1-.532-.774V18.965a.829.829,0,0,1,.532-.774l1.735-.668a11.859,11.859,0,0,1,1.1-2.653l-.756-1.7a.829.829,0,0,1,.171-.923L41.4,9.783a.829.829,0,0,1,.923-.171l1.7.756a11.777,11.777,0,0,1,2.651-1.1l.671-1.739A.83.83,0,0,1,48.116,7H51.6a.829.829,0,0,1,.774.532l.668,1.738a11.775,11.775,0,0,1,2.65,1.1l1.7-.756a.829.829,0,0,1,.923.171l2.463,2.463a.829.829,0,0,1,.172.922l-.754,1.7a11.758,11.758,0,0,1,1.022,2.388H67a.829.829,0,0,1,0,1.659h-10.3a.829.829,0,0,1-.829-.829V16.741l-5.032,3.966,5.032,3.966V23.327a.829.829,0,0,1,.829-.829H67a.829.829,0,0,1,0,1.659H61.218Zm-1.745-6.9a10.113,10.113,0,0,0-.913-1.9.829.829,0,0,1-.052-.771l.7-1.571-1.658-1.658-1.57.7a.83.83,0,0,1-.772-.052,10.127,10.127,0,0,0-2.974-1.232.829.829,0,0,1-.582-.509l-.617-1.6H48.685l-.62,1.606a.829.829,0,0,1-.582.508,10.127,10.127,0,0,0-2.974,1.232.83.83,0,0,1-.772.052l-1.57-.7L40.51,13.016l.7,1.57a.829.829,0,0,1-.052.772,10.213,10.213,0,0,0-1.236,2.979.829.829,0,0,1-.509.58l-1.6.616v2.345l1.6.616a.829.829,0,0,1,.508.58,10.188,10.188,0,0,0,1.236,2.975.829.829,0,0,1,.052.773l-.7,1.57,1.658,1.658,1.571-.7a.829.829,0,0,1,.769.051,10.2,10.2,0,0,0,2.979,1.233.829.829,0,0,1,.583.509l.616,1.6h2.345l.616-1.6a.829.829,0,0,1,.582-.509A10.088,10.088,0,0,0,55.2,29.409a.829.829,0,0,1,.772-.053l1.571.7L59.2,28.394l-.7-1.571a.829.829,0,0,1,.051-.769,10.323,10.323,0,0,0,.912-1.9H57.535v1.029a1.408,1.408,0,0,1-2.279,1.11h0l-.685-.54a6.907,6.907,0,1,1,0-10.1l.684-.539a1.408,1.408,0,0,1,2.279,1.11v1.029Zm-6.225,7.456-3.68-2.9a1.4,1.4,0,0,1,0-2.213l3.681-2.9a5.25,5.25,0,1,0,0,8.014ZM22.473,43.683a3.414,3.414,0,0,0,.757.534,2.6,2.6,0,0,0,.8.213.829.829,0,0,1,.331,1.556,5.272,5.272,0,0,0-1.261.9,1.384,1.384,0,0,0-.236.311c-.018.035-.051.064-.038.1a.374.374,0,0,0,.135.144c.656.488,1.224,1.374,1.247,3.908,0,.016,0,.032,0,.047-.013.263.158.4.441.485a7.233,7.233,0,0,0,2.931-.092c2.484-.558,4.451-.324,5.91.6a6.731,6.731,0,0,1,2.772,4.37H53.629c-2.213-4.878-3.147-9.476-2.71-13.449a6.541,6.541,0,0,1,1.586-3.68,16.069,16.069,0,0,0,3.387-6.717.829.829,0,1,1,1.615.379,17.726,17.726,0,0,1-3.736,7.41v0a4.95,4.95,0,0,0-1.2,2.786h0c-.444,4.031.659,8.738,3.115,13.732a.829.829,0,0,1-.744,1.2H35.586a.829.829,0,0,1-.816-.684,5.528,5.528,0,0,0-2.17-3.945,6.083,6.083,0,0,0-4.673-.382l-.041.008a8.841,8.841,0,0,1-3.691.057,2.323,2.323,0,0,1-1.23-.77,2.007,2.007,0,0,1-.414-1.364,7.157,7.157,0,0,0-.223-2,1.067,1.067,0,0,0-.356-.576l-.015-.011a1.832,1.832,0,0,1-.78-1.314,1.979,1.979,0,0,1,.4-1.31,3.782,3.782,0,0,1,.567-.621,3.276,3.276,0,0,1-1.006-.828,1.482,1.482,0,0,1-.258-1.457,5.3,5.3,0,0,0,.215-1.085c.025-.392-.07-.614-.328-.75a3.23,3.23,0,0,1-1.791-1.757,2.476,2.476,0,0,1,.583-2.354c.014-.017.028-.034.043-.05a15.353,15.353,0,0,0,2.372-3.3v0a4.956,4.956,0,0,0,.562-2.914,17.417,17.417,0,0,1-.088-1.794,17.771,17.771,0,0,1,14.64-17.494.829.829,0,1,1,.29,1.633A16.111,16.111,0,0,0,24.106,29.222a15.747,15.747,0,0,0,.08,1.625v0a6.547,6.547,0,0,1-.742,3.849,16.975,16.975,0,0,1-2.6,3.633c-.23.3-.373.544-.293.79.1.314.452.541.955.788l.015.007a2.256,2.256,0,0,1,.862.738c.395.583.53,1.486.091,3.027Z" transform="translate(0 0)" fill-rule="evenodd"/>
    </g>
  </g>
</svg>
