<svg xmlns="http://www.w3.org/2000/svg" xmlns:xlink="http://www.w3.org/1999/xlink" width="93.934" height="93.934" viewBox="0 0 93.934 93.934">
  <defs>
    <filter id="Trazado_982547" x="0" y="0" width="93.934" height="93.934" filterUnits="userSpaceOnUse">
      <feOffset dy="3" input="SourceAlpha"/>
      <feGaussianBlur stdDeviation="3" result="blur"/>
      <feFlood flood-opacity="0.161"/>
      <feComposite operator="in" in2="blur"/>
      <feComposite in="SourceGraphic"/>
    </filter>
  </defs>
  <g id="Grupo_1182618" data-name="Grupo 1182618" transform="translate(-590 -1512)">
    <g id="Grupo_1176820" data-name="Grupo 1176820" transform="translate(400.967 -268)">
      <g id="Grupo_1176309" data-name="Grupo 1176309" transform="translate(0 -206)">
        <g id="Grupo_1172970" data-name="Grupo 1172970" transform="translate(-1 -9042)">
          <g id="Grupo_1171971" data-name="Grupo 1171971" transform="translate(199.033 11034)">
            <g id="Grupo_1167337" data-name="Grupo 1167337" transform="translate(0)">
              <g id="Grupo_1166720" data-name="Grupo 1166720">
                <g id="Grupo_1164305" data-name="Grupo 1164305">
                  <g id="Grupo_1163948" data-name="Grupo 1163948">
                    <g id="Grupo_1158168" data-name="Grupo 1158168">
                      <g id="Grupo_1152576" data-name="Grupo 1152576">
                        <g id="Grupo_1148633" data-name="Grupo 1148633">
                          <g id="Grupo_1148525" data-name="Grupo 1148525">
                            <g transform="matrix(1, 0, 0, 1, -9, -6)" filter="url(#Trazado_982547)">
                              <g id="Trazado_982547-2" data-name="Trazado 982547" transform="translate(9 6)" fill="#f2f7f5">
                                <path d="M 37.966796875 74.43359375 C 33.04315185546875 74.43359375 28.26757431030273 73.46962738037109 23.77274131774902 71.56847381591797 C 19.43047523498535 69.73184967041016 15.53040790557861 67.10224914550781 12.18087482452393 63.75271987915039 C 8.831341743469238 60.4031867980957 6.201741218566895 56.50312042236328 4.365118980407715 52.16086196899414 C 2.463963508605957 47.66601943969727 1.499996900558472 42.89044189453125 1.499996900558472 37.966796875 C 1.499996900558472 33.04315185546875 2.463963508605957 28.26757431030273 4.365118980407715 23.77274131774902 C 6.201741218566895 19.43047523498535 8.831341743469238 15.53040790557861 12.18087482452393 12.18087482452393 C 15.53040790557861 8.831341743469238 19.43047523498535 6.201741218566895 23.77274131774902 4.365118980407715 C 28.26757431030273 2.463963508605957 33.04315185546875 1.499996900558472 37.966796875 1.499996900558472 C 42.89044189453125 1.499996900558472 47.66601943969727 2.463963508605957 52.16086196899414 4.365118980407715 C 56.50312042236328 6.201741218566895 60.4031867980957 8.831341743469238 63.75271987915039 12.18087482452393 C 67.10224914550781 15.53040790557861 69.73184967041016 19.43047523498535 71.56847381591797 23.77274131774902 C 73.46962738037109 28.26757431030273 74.43359375 33.04315185546875 74.43359375 37.966796875 C 74.43359375 42.89044189453125 73.46962738037109 47.66601943969727 71.56847381591797 52.16086196899414 C 69.73184967041016 56.50313186645508 67.10224914550781 60.4031867980957 63.75271987915039 63.75271987915039 C 60.4031867980957 67.10224914550781 56.50313186645508 69.73184967041016 52.16086196899414 71.56847381591797 C 47.66601943969727 73.46962738037109 42.89044189453125 74.43359375 37.966796875 74.43359375 Z" stroke="none"/>
                                <path d="M 37.966796875 3 C 33.2449836730957 3 28.66600799560547 3.924095153808594 24.35705947875977 5.746635437011719 C 20.19359588623047 7.507637023925781 16.45379638671875 10.02928161621094 13.24153518676758 13.24153518676758 C 10.02927398681641 16.45379638671875 7.507621765136719 20.19359588623047 5.746635437011719 24.35705947875977 C 3.924095153808594 28.66600799560547 3 33.2449836730957 3 37.966796875 C 3 42.6886100769043 3.924095153808594 47.26758575439453 5.746635437011719 51.57653427124023 C 7.507621765136719 55.73999786376953 10.02927398681641 59.47979736328125 13.24153518676758 62.69205856323242 C 16.45379638671875 65.90431976318359 20.19359588623047 68.42597198486328 24.35705947875977 70.18695831298828 C 28.66600799560547 72.00949859619141 33.2449836730957 72.93359375 37.966796875 72.93359375 C 42.6886100769043 72.93359375 47.26758575439453 72.00949859619141 51.57653427124023 70.18695831298828 C 55.73999786376953 68.42597198486328 59.47979736328125 65.90431976318359 62.69205856323242 62.69205856323242 C 65.90431976318359 59.47979736328125 68.42597198486328 55.73999786376953 70.18695831298828 51.57653427124023 C 72.00949859619141 47.26758575439453 72.93359375 42.6886100769043 72.93359375 37.966796875 C 72.93359375 33.2449836730957 72.00949859619141 28.66600799560547 70.18695831298828 24.35705947875977 C 68.42597198486328 20.19359588623047 65.90431976318359 16.45379638671875 62.69205856323242 13.24153518676758 C 59.47979736328125 10.02928161621094 55.73999786376953 7.507637023925781 51.57653427124023 5.746635437011719 C 47.26758575439453 3.924095153808594 42.6886100769043 3 37.966796875 3 M 37.966796875 0 C 58.93528366088867 0 75.93359375 16.99832153320312 75.93359375 37.966796875 C 75.93359375 58.93528366088867 58.93528366088867 75.93359375 37.966796875 75.93359375 C 16.99831008911133 75.93359375 0 58.93528366088867 0 37.966796875 C 0 16.99832153320312 16.99831008911133 0 37.966796875 0 Z" stroke="none" fill="#4a665c"/>
                              </g>
                            </g>
                          </g>
                        </g>
                      </g>
                    </g>
                  </g>
                </g>
              </g>
            </g>
          </g>
        </g>
      </g>
    </g>
    <g id="proceso" transform="translate(596.01 1508.421)">
      <path id="Trazado_1043146" data-name="Trazado 1043146" d="M272.029,282.981l-4.979-8.627-4.982-8.626a2.577,2.577,0,0,0-4.463,0l-4.978,8.626-4.982,8.626a2.576,2.576,0,0,0,2.232,3.864H269.8a2.576,2.576,0,0,0,2.229-3.863Z" transform="translate(-209.369 -217.456)" fill="#ffdf40"/>
      <path id="Trazado_1043147" data-name="Trazado 1043147" d="M372.289,274.35l-4.982-8.626a2.487,2.487,0,0,0-2.232-1.288v22.4h9.963a2.576,2.576,0,0,0,2.229-3.863Z" transform="translate(-314.609 -217.452)" fill="#ffbe40"/>
      <path id="Trazado_1043148" data-name="Trazado 1043148" d="M29.332,59.112H25.8a.852.852,0,0,1-.725-.4l-1.038-1.682-2.813-1.168-1.922.458a.852.852,0,0,1-.8-.226l-2.5-2.5a.852.852,0,0,1-.226-.8l.458-1.922-1.164-2.812L13.4,47.026a.852.852,0,0,1-.406-.725V42.77a.852.852,0,0,1,.406-.725l1.684-1.035L16.244,38.2l-.458-1.922a.852.852,0,0,1,.226-.8l2.495-2.495a.852.852,0,0,1,.8-.227l1.923.456,2.814-1.165,1.038-1.682a.852.852,0,0,1,.725-.4h3.527a.852.852,0,0,1,.725.4l1.035,1.681,2.815,1.165,1.92-.455a.852.852,0,0,1,.8.226l2.5,2.5a.852.852,0,0,1,.227.8L38.893,38.2l1.165,2.812,1.681,1.035a.852.852,0,0,1,.405.725V46.3a.852.852,0,0,1-.405.725l-1.681,1.035-1.165,2.812.458,1.922a.852.852,0,0,1-.226.8l-2.5,2.5a.852.852,0,0,1-.8.226l-1.922-.458-2.816,1.168-1.035,1.682A.852.852,0,0,1,29.332,59.112Zm-3.052-1.7h2.576l.93-1.511a.853.853,0,0,1,.4-.341l3.325-1.379a.852.852,0,0,1,.524-.042l1.727.412,1.823-1.822L37.172,51a.85.85,0,0,1,.042-.523l1.376-3.322a.852.852,0,0,1,.341-.4l1.511-.93V43.246l-1.511-.93a.851.851,0,0,1-.341-.4l-1.376-3.322a.85.85,0,0,1-.042-.523l.412-1.727-1.825-1.823-1.725.409a.852.852,0,0,1-.522-.042l-3.325-1.376a.852.852,0,0,1-.4-.341l-.93-1.511H26.28l-.933,1.511a.852.852,0,0,1-.4.339l-3.322,1.376a.852.852,0,0,1-.522.042l-1.728-.409-1.823,1.823.412,1.728a.852.852,0,0,1-.042.523l-1.376,3.322a.85.85,0,0,1-.341.4l-1.513.93v2.578l1.513.931a.851.851,0,0,1,.341.4l1.376,3.321a.852.852,0,0,1,.042.523l-.412,1.727,1.822,1.822,1.727-.411a.852.852,0,0,1,.524.042l3.322,1.379a.852.852,0,0,1,.4.339Zm1.287-3.882a8.992,8.992,0,1,1,8.992-8.992A8.992,8.992,0,0,1,27.567,53.527Zm0-16.281a7.289,7.289,0,1,0,7.289,7.289A7.289,7.289,0,0,0,27.567,37.246Zm24.7,3.642H49.936a.852.852,0,0,1-.725-.405l-.634-1.03-1.681-.7-1.177.28a.852.852,0,0,1-.8-.227l-1.644-1.647a.852.852,0,0,1-.226-.8l.28-1.174-.7-1.684L41.6,32.872a.852.852,0,0,1-.405-.725V29.82A.851.851,0,0,1,41.6,29.1l1.03-.634.7-1.681-.28-1.177a.852.852,0,0,1,.226-.8l1.644-1.648a.852.852,0,0,1,.8-.227l1.177.28,1.681-.7.634-1.03a.852.852,0,0,1,.725-.4h2.329a.852.852,0,0,1,.725.405l.634,1.03,1.681.7,1.177-.28a.852.852,0,0,1,.8.227L58.927,24.8a.852.852,0,0,1,.226.8l-.28,1.177.7,1.681,1.03.634A.852.852,0,0,1,61,29.82v2.326a.852.852,0,0,1-.405.725L59.57,33.5l-.7,1.684.28,1.174a.852.852,0,0,1-.226.8l-1.644,1.647a.852.852,0,0,1-.8.227l-1.177-.28-1.681.7-.634,1.03a.852.852,0,0,1-.725.405Zm-1.854-1.7H51.79l.529-.859a.852.852,0,0,1,.4-.34l2.19-.908a.852.852,0,0,1,.523-.042l.982.234.972-.974-.234-.979a.852.852,0,0,1,.042-.523L58.1,32.6a.852.852,0,0,1,.341-.4l.859-.529V30.3l-.859-.529a.852.852,0,0,1-.34-.4l-.908-2.191a.85.85,0,0,1-.042-.523l.234-.983-.972-.974-.982.234a.851.851,0,0,1-.523-.042l-2.19-.908a.851.851,0,0,1-.4-.34l-.529-.859H50.412l-.529.859a.852.852,0,0,1-.4.341l-2.19.908a.852.852,0,0,1-.523.042l-.982-.234-.972.974.234.983a.852.852,0,0,1-.042.523L44.1,29.369a.852.852,0,0,1-.34.4L42.9,30.3v1.375l.859.529a.852.852,0,0,1,.341.4l.908,2.194a.852.852,0,0,1,.042.523l-.234.979.972.974.982-.234a.852.852,0,0,1,.523.042l2.19.908a.852.852,0,0,1,.4.34ZM51.1,36.54a5.557,5.557,0,1,1,5.555-5.556A5.557,5.557,0,0,1,51.1,36.54Zm0-9.411a3.854,3.854,0,1,0,3.852,3.855A3.854,3.854,0,0,0,51.1,27.13ZM60.43,71.091H40.508a4.279,4.279,0,0,1-3.706-6.42l4.982-8.626,4.978-8.626a4.28,4.28,0,0,1,7.413,0l4.982,8.626,4.979,8.626a4.279,4.279,0,0,1-3.7,6.419ZM50.467,46.983a2.486,2.486,0,0,0-2.231,1.288L43.258,56.9l-4.982,8.626a2.576,2.576,0,0,0,2.232,3.864H60.43a2.576,2.576,0,0,0,2.229-3.863L57.68,56.9,52.7,48.271a2.487,2.487,0,0,0-2.231-1.288Zm0,15.068a2.279,2.279,0,0,1-2.241-2.2l-.251-4.906a2.349,2.349,0,0,1,.659-1.749,2.527,2.527,0,0,1,3.666,0,2.348,2.348,0,0,1,.659,1.748l-.25,4.907a2.279,2.279,0,0,1-2.241,2.2Zm0-7.938a.831.831,0,0,0-.6.258.657.657,0,0,0-.192.489l.25,4.906a.542.542,0,1,0,1.081,0l.25-4.906a.657.657,0,0,0-.192-.488.831.831,0,0,0-.6-.258Zm0,13.113a2.243,2.243,0,1,1,2.243-2.243,2.243,2.243,0,0,1-2.243,2.243Zm0-2.782a.539.539,0,1,0,.54.539.539.539,0,0,0-.54-.539Z" transform="translate(0)"/>
      <path id="Trazado_1043149" data-name="Trazado 1043149" d="M309.192,43.665l-.908-2.191a.851.851,0,0,1-.042-.523l.234-.983-.972-.974-.982.234a.851.851,0,0,1-.523-.042l-2.19-.908a.852.852,0,0,1-.4-.34l-.529-.859H301.5l-.529.859a.852.852,0,0,1-.4.341l-2.19.908a.852.852,0,0,1-.523.042l-.982-.234-.972.974.234.983a.851.851,0,0,1-.042.523l-.908,2.191a.852.852,0,0,1-.341.4l-.859.529v1.375l.859.529a.851.851,0,0,1,.341.4l.908,2.194a.853.853,0,0,1,.042.523l-.234.979.972.974.982-.234a.852.852,0,0,1,.523.042l2.19.908a.851.851,0,0,1,.4.34l.529.859h1.378l.529-.859a.852.852,0,0,1,.4-.34L306,51.374a.852.852,0,0,1,.523-.042l.982.234.972-.974-.234-.979a.851.851,0,0,1,.042-.523l.908-2.194a.851.851,0,0,1,.341-.4l.859-.529V44.593l-.859-.529A.851.851,0,0,1,309.192,43.665Zm-7,7.172a5.557,5.557,0,1,1,5.555-5.556,5.557,5.557,0,0,1-5.555,5.556Z" transform="translate(-251.09 -14.297)" fill="#bec7cf"/>
      <path id="Trazado_1043150" data-name="Trazado 1043150" d="M358.439,331.421a.831.831,0,0,0-.6.258.657.657,0,0,0-.192.489l.25,4.905a.542.542,0,1,0,1.081,0l.25-4.906a.657.657,0,0,0-.192-.488A.831.831,0,0,0,358.439,331.421Z" transform="translate(-307.971 -277.308)" fill="#ec4c36"/>
      <path id="Trazado_1043151" data-name="Trazado 1043151" d="M360.549,428.478a.539.539,0,1,0,.539.539A.539.539,0,0,0,360.549,428.478Z" transform="translate(-310.082 -364.034)" fill="#ec4c36"/>
      <path id="Trazado_1043152" data-name="Trazado 1043152" d="M30.837,135.988l1.376,3.322a.852.852,0,0,1,.042.523l-.412,1.727,1.822,1.822,1.727-.411a.852.852,0,0,1,.524.042l3.322,1.379a.852.852,0,0,1,.4.339l.933,1.511h2.576l.93-1.511a.852.852,0,0,1,.4-.341l3.325-1.379a.852.852,0,0,1,.523-.042l1.728.412,1.823-1.821-.412-1.728a.85.85,0,0,1,.042-.523l1.376-3.322a.852.852,0,0,1,.341-.4l1.511-.93V132.08l-1.511-.93a.851.851,0,0,1-.341-.4L51.5,127.428a.85.85,0,0,1-.042-.523l.412-1.727-1.825-1.823-1.725.409a.852.852,0,0,1-.522-.042l-3.325-1.376a.851.851,0,0,1-.4-.341l-.93-1.511H40.571l-.933,1.511a.852.852,0,0,1-.4.339l-3.322,1.376a.852.852,0,0,1-.522.042l-1.728-.409-1.823,1.823.412,1.728a.852.852,0,0,1-.042.523l-1.376,3.322a.85.85,0,0,1-.341.4l-1.513.93v2.578l1.513.931a.851.851,0,0,1,.341.4Zm11.02-11.611a8.992,8.992,0,1,1-8.989,8.991,8.992,8.992,0,0,1,8.989-8.991Z" transform="translate(-14.291 -88.834)" fill="#bec7cf"/>
      <g id="Grupo_1182617" data-name="Grupo 1182617" transform="translate(27.568 22.782)">
        <path id="Trazado_1043153" data-name="Trazado 1043153" d="M160.966,130.75l-1.376-3.322a.85.85,0,0,1-.042-.523l.412-1.727-1.825-1.823-1.725.409a.851.851,0,0,1-.522-.042l-3.325-1.376a.851.851,0,0,1-.4-.341l-.93-1.511h-1.288v3.882a8.992,8.992,0,1,1,0,17.984v3.882h1.288l.93-1.511a.852.852,0,0,1,.4-.341l3.325-1.379a.851.851,0,0,1,.523-.042l1.728.412,1.822-1.822-.412-1.728a.85.85,0,0,1,.042-.523l1.376-3.322a.851.851,0,0,1,.341-.4l1.511-.93V132.08l-1.511-.93A.851.851,0,0,1,160.966,130.75Z" transform="translate(-149.945 -111.616)" fill="#abb3ba"/>
        <path id="Trazado_1043154" data-name="Trazado 1043154" d="M378.032,43.665l-.908-2.191a.851.851,0,0,1-.042-.523l.234-.983-.972-.974-.982.234a.851.851,0,0,1-.523-.042l-2.19-.908a.852.852,0,0,1-.4-.34l-.529-.859h-.689v2.644a5.557,5.557,0,0,1,0,11.114v2.645h.689l.529-.859a.851.851,0,0,1,.4-.34l2.19-.908a.851.851,0,0,1,.523-.042l.982.234.972-.974-.234-.979a.851.851,0,0,1,.042-.523l.908-2.194a.851.851,0,0,1,.341-.4l.859-.529V44.593l-.859-.529A.85.85,0,0,1,378.032,43.665Z" transform="translate(-347.498 -37.079)" fill="#abb3ba"/>
      </g>
    </g>
  </g>
</svg>
