<svg xmlns="http://www.w3.org/2000/svg" xmlns:xlink="http://www.w3.org/1999/xlink" width="118" height="118" viewBox="0 0 118 118">
  <defs>
    <filter id="Trazado_982547" x="0" y="0" width="118" height="118" filterUnits="userSpaceOnUse">
      <feOffset dy="3" input="SourceAlpha"/>
      <feGaussianBlur stdDeviation="3" result="blur"/>
      <feFlood flood-opacity="0.161"/>
      <feComposite operator="in" in2="blur"/>
      <feComposite in="SourceGraphic"/>
    </filter>
  </defs>
  <g id="Grupo_1182939" data-name="Grupo 1182939" transform="translate(-258 -1381)">
    <g id="Grupo_1182316" data-name="Grupo 1182316" transform="translate(-11 -8277.328)">
      <g id="Grupo_1176356" data-name="Grupo 1176356" transform="translate(278 9664.328)">
        <g id="Grupo_1172970" data-name="Grupo 1172970" transform="translate(0)">
          <g id="Grupo_1171971" data-name="Grupo 1171971">
            <g id="Grupo_1167337" data-name="Grupo 1167337">
              <g id="Grupo_1166720" data-name="Grupo 1166720">
                <g id="Grupo_1164305" data-name="Grupo 1164305">
                  <g id="Grupo_1163948" data-name="Grupo 1163948">
                    <g id="Grupo_1158168" data-name="Grupo 1158168">
                      <g id="Grupo_1152576" data-name="Grupo 1152576">
                        <g id="Grupo_1148633" data-name="Grupo 1148633">
                          <g id="Grupo_1148525" data-name="Grupo 1148525">
                            <g transform="matrix(1, 0, 0, 1, -9, -6)" filter="url(#Trazado_982547)">
                              <g id="Trazado_982547-2" data-name="Trazado 982547" transform="translate(9 6)" fill="#f2f7f5">
                                <path d="M 50 98.5 C 43.45188522338867 98.5 37.10042953491211 97.21787261962891 31.12207221984863 94.68923950195312 C 25.34691429138184 92.24655914306641 20.15995788574219 88.74932861328125 15.70532894134521 84.29468536376953 C 11.2506856918335 79.84004211425781 7.753442764282227 74.65309906005859 5.310757160186768 68.87794494628906 C 2.782128572463989 62.89958572387695 1.5 56.54813003540039 1.5 50 C 1.5 43.45188522338867 2.782128572463989 37.10042953491211 5.310757160186768 31.12207221984863 C 7.753442764282227 25.34691429138184 11.2506856918335 20.15997123718262 15.70532894134521 15.70532894134521 C 20.15997123718262 11.2506856918335 25.34691429138184 7.753442764282227 31.12207221984863 5.310757160186768 C 37.10042953491211 2.782128572463989 43.45188522338867 1.5 50 1.5 C 56.54813003540039 1.5 62.89958572387695 2.782128572463989 68.87794494628906 5.310757160186768 C 74.65309906005859 7.753442764282227 79.84004211425781 11.2506856918335 84.29468536376953 15.70532894134521 C 88.74932861328125 20.15995788574219 92.24655914306641 25.34691429138184 94.68923950195312 31.12207221984863 C 97.21787261962891 37.10042953491211 98.5 43.45188522338867 98.5 50 C 98.5 56.54813003540039 97.21787261962891 62.89958572387695 94.68923950195312 68.87794494628906 C 92.24655914306641 74.65309906005859 88.74932861328125 79.84004211425781 84.29468536376953 84.29468536376953 C 79.84004211425781 88.74932861328125 74.65309906005859 92.24655914306641 68.87794494628906 94.68923950195312 C 62.89958572387695 97.21787261962891 56.54813003540039 98.5 50 98.5 Z" stroke="none"/>
                                <path d="M 50 3 C 43.65372467041016 3 37.49886322021484 4.242263793945312 31.70639801025391 6.6922607421875 C 26.11003112792969 9.059326171875 21.08335113525391 12.44861602783203 16.76598358154297 16.76598358154297 C 12.44861602783203 21.08335113525391 9.059326171875 26.11003112792969 6.6922607421875 31.70639801025391 C 4.242263793945312 37.49886322021484 3 43.65372467041016 3 50 C 3 56.34629058837891 4.242263793945312 62.50115203857422 6.6922607421875 68.29361724853516 C 9.059326171875 73.88998413085938 12.44861602783203 78.91666412353516 16.76598358154297 83.23403167724609 C 21.08335113525391 87.55138397216797 26.11003112792969 90.940673828125 31.70639801025391 93.3077392578125 C 37.49886322021484 95.75773620605469 43.65372467041016 97 50 97 C 56.34629058837891 97 62.50115203857422 95.75773620605469 68.29361724853516 93.3077392578125 C 73.88998413085938 90.940673828125 78.91666412353516 87.55138397216797 83.23403167724609 83.23403167724609 C 87.55138397216797 78.91666412353516 90.940673828125 73.88998413085938 93.3077392578125 68.29361724853516 C 95.75773620605469 62.50115203857422 97 56.34629058837891 97 50 C 97 43.65372467041016 95.75773620605469 37.49886322021484 93.3077392578125 31.70639801025391 C 90.940673828125 26.11003112792969 87.55138397216797 21.08335113525391 83.23403167724609 16.76598358154297 C 78.91666412353516 12.44861602783203 73.88998413085938 9.059326171875 68.29361724853516 6.6922607421875 C 62.50115203857422 4.242263793945312 56.34629058837891 3 50 3 M 50 0 C 77.6142578125 0 100 22.38577270507812 100 50 C 100 77.6142578125 77.6142578125 100 50 100 C 22.38577270507812 100 0 77.6142578125 0 50 C 0 22.38577270507812 22.38577270507812 0 50 0 Z" stroke="none" fill="#4a665c"/>
                              </g>
                            </g>
                          </g>
                        </g>
                      </g>
                    </g>
                  </g>
                </g>
              </g>
            </g>
          </g>
        </g>
      </g>
    </g>
    <g id="economico" transform="translate(271 1391)">
      <path id="Trazado_1043693" data-name="Trazado 1043693" d="M93.891,46.931a22.945,22.945,0,0,1-45.891,0q0-1.008.086-2a22.946,22.946,0,0,1,45.8,2Z" transform="translate(-28.009 -6.988)" fill="#9ce6ed"/>
      <path id="Trazado_1043694" data-name="Trazado 1043694" d="M247.943,87.472a22.929,22.929,0,0,1-10.9,19.533l-5.06-5.567V93.457h-3.99L224,87.472l3.99-2.993h4.988l2.993-3.99-2-4.988,6.241-5.2a22.891,22.891,0,0,1,7.725,17.172Z" transform="translate(-182.062 -47.529)" fill="#02c26a"/>
      <rect id="Rectángulo_415831" data-name="Rectángulo 415831" width="7" height="10" transform="translate(51 63.857)" fill="#4367e0"/>
      <rect id="Rectángulo_415832" data-name="Rectángulo 415832" width="9" height="18" transform="translate(58 55.857)" fill="#4976f2"/>
      <rect id="Rectángulo_415833" data-name="Rectángulo 415833" width="8" height="28" transform="translate(67 45.857)" fill="#548aff"/>
      <path id="Trazado_1043695" data-name="Trazado 1043695" d="M117.673,25.867l-7.1,7.1v5.986l-5.986,3.99-3.99-3.99H95.605v-3.99L90.99,32.2a22.965,22.965,0,0,1,26.683-6.329Z" transform="translate(-65.639 -6.994)" fill="#02c26a"/>
      <path id="Trazado_1043696" data-name="Trazado 1043696" d="M67.952,200.979l-3.99,2.993v11.887A22.955,22.955,0,0,1,48,194q0-1.008.086-2h5.9l2.993,3.99H64.96Z" transform="translate(-28.01 -154.052)" fill="#02c26a"/>
      <path id="Trazado_1043697" data-name="Trazado 1043697" d="M33.976,258c0-1.1-2.233-2-4.988-2S24,256.893,24,258v24.941c0,1.1,2.233,2,4.988,2s4.988-.893,4.988-2Z" transform="translate(-7.002 -210.071)" fill="#ffc431"/>
      <ellipse id="Elipse_13124" data-name="Elipse 13124" cx="5" cy="2" rx="5" ry="2" transform="translate(17 45.857)" fill="#ffd873"/>
      <path id="Trazado_1043698" data-name="Trazado 1043698" d="M113.976,338c0-1.1-2.233-2-4.988-2s-4.988.893-4.988,2V352.96c0,1.1,2.233,2,4.988,2s4.988-.893,4.988-2Z" transform="translate(-77.026 -280.095)" fill="#ffc431"/>
      <ellipse id="Elipse_13125" data-name="Elipse 13125" cx="5" cy="2" rx="5" ry="2" transform="translate(27 55.857)" fill="#ffd873"/>
      <path id="Trazado_1043699" data-name="Trazado 1043699" d="M193.976,378c0-1.1-2.233-2-4.988-2s-4.988.893-4.988,2v9.976c0,1.1,2.233,2,4.988,2s4.988-.893,4.988-2Z" transform="translate(-147.05 -315.107)" fill="#ffc431"/>
      <ellipse id="Elipse_13126" data-name="Elipse 13126" cx="5" cy="1.5" rx="5" ry="1.5" transform="translate(37 61.857)" fill="#ffd873"/>
      <path id="Trazado_1043700" data-name="Trazado 1043700" d="M74.86,248H66.879a1,1,0,0,0-1,1v8.979H58.9a1,1,0,0,0-1,1v6.983H50.917a1,1,0,0,0-1,1v8.979h-2v-9.976c0-.561-.271-1.61-2.088-2.337a11.911,11.911,0,0,0-7.8,0l-.093.039v-2.69c0-.561-.271-1.61-2.088-2.337a10.824,10.824,0,0,0-3.9-.656,10.824,10.824,0,0,0-3.9.656l-.093.039v-7.678c0-.561-.271-1.61-2.088-2.337a10.824,10.824,0,0,0-3.9-.656,10.825,10.825,0,0,0-3.9.656c-1.817.727-2.088,1.776-2.088,2.337v24.941c0,.561.271,1.61,2.088,2.337a10.825,10.825,0,0,0,3.9.656,10.825,10.825,0,0,0,3.9-.656,4.8,4.8,0,0,0,1.09-.591,4.8,4.8,0,0,0,1.09.591,10.824,10.824,0,0,0,3.9.656,10.825,10.825,0,0,0,3.9-.656,4.806,4.806,0,0,0,1.09-.591,4.806,4.806,0,0,0,1.09.591,11.911,11.911,0,0,0,7.8,0,5.43,5.43,0,0,0,.709-.342H74.86a1,1,0,0,0,1-1V249A1,1,0,0,0,74.86,248ZM18,268.256l.093.039a10.825,10.825,0,0,0,3.9.656,10.826,10.826,0,0,0,3.9-.656l.093-.039v2.652c-.173.309-1.554,1.035-3.99,1.035s-3.817-.726-3.99-1.035Zm0-4.988.093.039a10.824,10.824,0,0,0,3.9.656,10.825,10.825,0,0,0,3.9-.656l.093-.039v2.652c-.173.309-1.554,1.035-3.99,1.035s-3.817-.727-3.99-1.035Zm0-4.988.093.039a10.824,10.824,0,0,0,3.9.656,10.825,10.825,0,0,0,3.9-.656l.093-.039v2.652c-.173.309-1.554,1.035-3.99,1.035s-3.817-.727-3.99-1.035Zm0-4.988.093.039a10.824,10.824,0,0,0,3.9.656,10.825,10.825,0,0,0,3.9-.656l.093-.039v2.652c-.173.309-1.554,1.035-3.99,1.035s-3.817-.726-3.99-1.035Zm13.967,13.664c-2.437,0-3.817-.727-3.99-1.035v-2.652l.093.039a10.824,10.824,0,0,0,3.9.656,10.825,10.825,0,0,0,3.9-.656l.093-.039v2.652C35.779,266.228,34.4,266.955,31.962,266.955Zm-3.99,1.3.093.039a10.825,10.825,0,0,0,3.9.656,10.826,10.826,0,0,0,3.9-.656l.093-.039v2.652c-.173.309-1.554,1.035-3.991,1.035s-3.817-.726-3.99-1.035Zm9.976,0,.093.039a11.911,11.911,0,0,0,7.8,0l.093-.039v2.652c-.173.309-1.554,1.035-3.991,1.035s-3.817-.726-3.99-1.035Zm3.99-3.3c2.348,0,3.712.673,3.964,1-.259.327-1.625,1-3.964,1s-3.7-.669-3.964-1C38.226,265.633,39.591,264.96,41.938,264.96Zm-9.976-4.988c2.348,0,3.712.673,3.964,1-.259.327-1.625,1-3.964,1s-3.708-.671-3.965-1C28.253,260.643,29.62,259.971,31.962,259.971ZM21.986,250c2.348,0,3.712.673,3.964,1-.259.327-1.625,1-3.964,1s-3.7-.669-3.964-1C18.274,250.669,19.638,250,21.986,250Zm0,26.936c-2.433,0-3.813-.724-3.99-1.034v-2.653l.093.039a10.824,10.824,0,0,0,3.9.656,10.825,10.825,0,0,0,3.9-.656l.093-.039V275.9C25.8,276.207,24.418,276.931,21.986,276.931Zm9.976,0c-2.437,0-3.817-.727-3.99-1.035v-2.652l.093.039a10.824,10.824,0,0,0,3.9.656,10.825,10.825,0,0,0,3.9-.656l.093-.039V275.9C35.775,276.207,34.395,276.931,31.962,276.931Zm9.976,0c-2.433,0-3.813-.724-3.99-1.034v-2.653l.093.039a11.91,11.91,0,0,0,7.8,0l.093-.039V275.9C45.752,276.207,44.371,276.931,41.938,276.931Zm9.976-8.979H57.9v7.981H51.914Zm7.981-7.981h5.986v15.962H59.9Zm7.981,15.962V250h5.986v25.938Z" transform="translate(0 -203.069)"/>
      <rect id="Rectángulo_415834" data-name="Rectángulo 415834" width="2" height="2" transform="translate(42 55.857)"/>
      <path id="Trazado_1043701" data-name="Trazado 1043701" d="M256,181.948v2h4.988a1,1,0,0,0,.705-.292l20.245-20.245v1.582h2V161a1,1,0,0,0-1-1h-3.99v2h1.582l-19.952,19.952Z" transform="translate(-210.071 -126.043)"/>
      <path id="Trazado_1043702" data-name="Trazado 1043702" d="M80.17,22.337A23.943,23.943,0,0,0,40,39.943a24.252,24.252,0,0,0,.2,3.121l1.979-.257A22.25,22.25,0,0,1,42,39.943c0-.334.009-.667.024-1h4.466l2.694,3.591a1,1,0,0,0,.8.4h7.416l2.239,3.732-3.271,2.453a1,1,0,0,0-.4.8v2.993h2V50.418l3.591-2.694a1,1,0,0,0,.257-1.311l-2.993-4.988a1,1,0,0,0-.855-.484H50.475l-2.694-3.591a1,1,0,0,0-.8-.4H42.2a21.843,21.843,0,0,1,4.4-10.44l3.377,2.026v3.426a1,1,0,0,0,1,1h4.575l3.7,3.7a1,1,0,0,0,1.259.125l5.986-3.99a1,1,0,0,0,.444-.83V26.389l6.323-6.323a21.9,21.9,0,0,1,4.349,2.7l-5.325,4.438A1,1,0,0,0,72,28.342l1.787,4.468-2.357,3.143H66.936a1,1,0,0,0-.6.2l-3.991,2.993a1,1,0,0,0-.232,1.352l3.99,5.986a1,1,0,0,0,.83.444h2.993v5.986h2V45.929a1,1,0,0,0-1-1H67.47L64.3,40.175l2.97-2.227h4.656a1,1,0,0,0,.8-.4l2.993-3.99a1,1,0,0,0,.128-.969l-1.726-4.315L79.128,24.1a21.867,21.867,0,0,1,6.68,13.936l1.988-.171A23.865,23.865,0,0,0,80.17,22.337ZM65.233,25.271a1,1,0,0,0-.292.705v5.452L60.08,34.669l-3.412-3.412a1,1,0,0,0-.705-.292h-3.99V27.971a1,1,0,0,0-.484-.855L47.911,24.97a21.938,21.938,0,0,1,23.346-5.724Z" transform="translate(-21.007 0)"/>
    </g>
  </g>
</svg>
