<svg xmlns="http://www.w3.org/2000/svg" xmlns:xlink="http://www.w3.org/1999/xlink" width="118" height="118" viewBox="0 0 118 118">
  <defs>
    <filter id="Trazado_982547" x="0" y="0" width="118" height="118" filterUnits="userSpaceOnUse">
      <feOffset dy="3" input="SourceAlpha"/>
      <feGaussianBlur stdDeviation="3" result="blur"/>
      <feFlood flood-opacity="0.161"/>
      <feComposite operator="in" in2="blur"/>
      <feComposite in="SourceGraphic"/>
    </filter>
  </defs>
  <g id="Grupo_1182953" data-name="Grupo 1182953" transform="translate(-1203 -1381.328)">
    <g id="Grupo_1182319" data-name="Grupo 1182319" transform="translate(-11 -8277)">
      <g id="Grupo_1176359" data-name="Grupo 1176359" transform="translate(1223 9664.328)">
        <g id="Grupo_1172970" data-name="Grupo 1172970" transform="translate(0)">
          <g id="Grupo_1171971" data-name="Grupo 1171971" transform="translate(0)">
            <g id="Grupo_1167337" data-name="Grupo 1167337">
              <g id="Grupo_1166720" data-name="Grupo 1166720">
                <g id="Grupo_1164305" data-name="Grupo 1164305">
                  <g id="Grupo_1163948" data-name="Grupo 1163948">
                    <g id="Grupo_1158168" data-name="Grupo 1158168">
                      <g id="Grupo_1152576" data-name="Grupo 1152576">
                        <g id="Grupo_1148633" data-name="Grupo 1148633">
                          <g id="Grupo_1148525" data-name="Grupo 1148525">
                            <g transform="matrix(1, 0, 0, 1, -9, -6)" filter="url(#Trazado_982547)">
                              <g id="Trazado_982547-2" data-name="Trazado 982547" transform="translate(9 6)" fill="#f2f7f5">
                                <path d="M 50 98.5 C 43.45188522338867 98.5 37.10042953491211 97.21787261962891 31.12207221984863 94.68923950195312 C 25.34691429138184 92.24655914306641 20.15995788574219 88.74932861328125 15.70532894134521 84.29468536376953 C 11.2506856918335 79.84004211425781 7.753442764282227 74.65309906005859 5.310757160186768 68.87794494628906 C 2.782128572463989 62.89958572387695 1.5 56.54813003540039 1.5 50 C 1.5 43.45188522338867 2.782128572463989 37.10042953491211 5.310757160186768 31.12207221984863 C 7.753442764282227 25.34691429138184 11.2506856918335 20.15997123718262 15.70532894134521 15.70532894134521 C 20.15997123718262 11.2506856918335 25.34691429138184 7.753442764282227 31.12207221984863 5.310757160186768 C 37.10042953491211 2.782128572463989 43.45188522338867 1.5 50 1.5 C 56.54813003540039 1.5 62.89958572387695 2.782128572463989 68.87794494628906 5.310757160186768 C 74.65309906005859 7.753442764282227 79.84004211425781 11.2506856918335 84.29468536376953 15.70532894134521 C 88.74932861328125 20.15995788574219 92.24655914306641 25.34691429138184 94.68923950195312 31.12207221984863 C 97.21787261962891 37.10042953491211 98.5 43.45188522338867 98.5 50 C 98.5 56.54813003540039 97.21787261962891 62.89958572387695 94.68923950195312 68.87794494628906 C 92.24655914306641 74.65309906005859 88.74932861328125 79.84004211425781 84.29468536376953 84.29468536376953 C 79.84004211425781 88.74932861328125 74.65309906005859 92.24655914306641 68.87794494628906 94.68923950195312 C 62.89958572387695 97.21787261962891 56.54813003540039 98.5 50 98.5 Z" stroke="none"/>
                                <path d="M 50 3 C 43.65372467041016 3 37.49886322021484 4.242263793945312 31.70639801025391 6.6922607421875 C 26.11003112792969 9.059326171875 21.08335113525391 12.44861602783203 16.76598358154297 16.76598358154297 C 12.44861602783203 21.08335113525391 9.059326171875 26.11003112792969 6.6922607421875 31.70639801025391 C 4.242263793945312 37.49886322021484 3 43.65372467041016 3 50 C 3 56.34629058837891 4.242263793945312 62.50115203857422 6.6922607421875 68.29361724853516 C 9.059326171875 73.88998413085938 12.44861602783203 78.91666412353516 16.76598358154297 83.23403167724609 C 21.08335113525391 87.55138397216797 26.11003112792969 90.940673828125 31.70639801025391 93.3077392578125 C 37.49886322021484 95.75773620605469 43.65372467041016 97 50 97 C 56.34629058837891 97 62.50115203857422 95.75773620605469 68.29361724853516 93.3077392578125 C 73.88998413085938 90.940673828125 78.91666412353516 87.55138397216797 83.23403167724609 83.23403167724609 C 87.55138397216797 78.91666412353516 90.940673828125 73.88998413085938 93.3077392578125 68.29361724853516 C 95.75773620605469 62.50115203857422 97 56.34629058837891 97 50 C 97 43.65372467041016 95.75773620605469 37.49886322021484 93.3077392578125 31.70639801025391 C 90.940673828125 26.11003112792969 87.55138397216797 21.08335113525391 83.23403167724609 16.76598358154297 C 78.91666412353516 12.44861602783203 73.88998413085938 9.059326171875 68.29361724853516 6.6922607421875 C 62.50115203857422 4.242263793945312 56.34629058837891 3 50 3 M 50 0 C 77.6142578125 0 100 22.38577270507812 100 50 C 100 77.6142578125 77.6142578125 100 50 100 C 22.38577270507812 100 0 77.6142578125 0 50 C 0 22.38577270507812 22.38577270507812 0 50 0 Z" stroke="none" fill="#4a665c"/>
                              </g>
                            </g>
                          </g>
                        </g>
                      </g>
                    </g>
                  </g>
                </g>
              </g>
            </g>
          </g>
        </g>
      </g>
    </g>
    <g id="configuraciones_1_" data-name="configuraciones (1)" transform="translate(1230.626 1407.026)">
      <path id="Trazado_1043730" data-name="Trazado 1043730" d="M249.688,25.92a12.891,12.891,0,0,0-.114-1.705l4.48-4.193L250.579,14,244.7,15.789a12.8,12.8,0,0,0-2.948-1.706l-1.391-5.977h-6.949l-1.392,5.977a12.79,12.79,0,0,0-2.947,1.706L223.2,14l-3.474,6.018,4.479,4.193a12.867,12.867,0,0,0,0,3.411l-4.479,4.193,3.474,6.017,5.878-1.785a12.775,12.775,0,0,0,2.947,1.707l1.392,5.979h6.949l1.391-5.979a12.788,12.788,0,0,0,2.948-1.707l5.878,1.785,3.475-6.017-4.48-4.193a12.893,12.893,0,0,0,.114-1.706Zm-12.8,5.421a5.421,5.421,0,1,1,5.421-5.421A5.421,5.421,0,0,1,236.888,31.341Zm0,0" transform="translate(-193.224 -6.688)" fill="#ccc"/>
      <path id="Trazado_1043731" data-name="Trazado 1043731" d="M367.511,328.04a6.809,6.809,0,0,0-.061-.914l2.4-2.249-1.863-3.226-3.152.957a6.869,6.869,0,0,0-1.58-.915l-.747-3.205h-3.725l-.746,3.205a6.869,6.869,0,0,0-1.58.915l-3.152-.957-1.863,3.226,2.4,2.249a6.911,6.911,0,0,0,0,1.829l-2.4,2.249,1.863,3.226,3.152-.957a6.852,6.852,0,0,0,1.58.914l.746,3.206h3.725l.747-3.206a6.854,6.854,0,0,0,1.58-.914l3.152.957,1.863-3.226-2.4-2.249A6.809,6.809,0,0,0,367.511,328.04Zm-6.862,2.476a2.476,2.476,0,1,1,2.476-2.476A2.476,2.476,0,0,1,360.649,330.515Zm0,0" transform="translate(-309.061 -279.639)" fill="#ccc"/>
      <path id="Trazado_1043732" data-name="Trazado 1043732" d="M37.513,379.277h6.132a5.691,5.691,0,0,1,5.691,5.691v7.315H17.258v-7.315a5.691,5.691,0,0,1,5.691-5.691h6.131" transform="translate(-15.177 -333.097)" fill="#515f75"/>
      <path id="Trazado_1043733" data-name="Trazado 1043733" d="M92.1,379.277,95.8,392.283h6.616l3.706-13.006" transform="translate(-80.991 -333.097)" fill="#f2f2f2"/>
      <path id="Trazado_1043734" data-name="Trazado 1043734" d="M123.725,318.654v7.308l-4.216,2.375-1.3-.734-2.913-1.642v-7.312h2.913Zm0,0" transform="translate(-101.389 -279.78)" fill="#f9c2af"/>
      <path id="Trazado_1043735" data-name="Trazado 1043735" d="M123.016,456.94l3.35-4.139,3.242,4.139" transform="translate(-108.18 -397.754)" fill="#f74866"/>
      <path id="Trazado_1043736" data-name="Trazado 1043736" d="M118.206,318.649h-2.913v7.312l2.913,1.642v-3.382c.431.042.867.067,1.309.067a13.2,13.2,0,0,0,4.21-.685v-4.951Zm0,0" transform="translate(-101.389 -279.78)" fill="#ea9e8f"/>
      <path id="Trazado_1043737" data-name="Trazado 1043737" d="M11.577,203a3.58,3.58,0,1,1,0-7.117H38.046a3.58,3.58,0,1,1,0,7.117" transform="translate(-6.685 -171.817)" fill="#ea9e8f"/>
      <path id="Trazado_1043738" data-name="Trazado 1043738" d="M67.032,131.309v13.235a13.235,13.235,0,0,1-26.469,0V131.309" transform="translate(-35.671 -115.034)" fill="#f9c2af"/>
      <path id="Trazado_1043739" data-name="Trazado 1043739" d="M53.7,157.777a13.234,13.234,0,0,1-13.141-13.234V131.309h5.959v13.235a19.834,19.834,0,0,0,2.131,9.359c1.3,2.358,3.079,3.83,5.052,3.875Zm0,0" transform="translate(-35.667 -115.033)" fill="#ea9e8f"/>
      <path id="Trazado_1043740" data-name="Trazado 1043740" d="M42.255,29.411a20.955,20.955,0,0,1-12.722.231h0a22.319,22.319,0,0,1-4.687-1.848S23.638,33.6,19.067,33.6c0,0-3.041-5.379-2.946-10.357a4.6,4.6,0,0,1,5.971-4.3,8.426,8.426,0,0,1,8.424-5.456c.577.036,1.157.082,1.741.135l.335.03.034,0c6.049.568,12.176,1.674,15.776-2.308,0,0,5.95,13.706-6.146,18.063Zm0,0" transform="translate(-14.175 -9.54)" fill="#515f75"/>
      <path id="Trazado_1043741" data-name="Trazado 1043741" d="M30.515,28.982c.577.036,1.157.082,1.741.135-5.337-.226-9.577,11.528-2.724,16.018a22.319,22.319,0,0,1-4.687-1.848S23.637,49.1,19.066,49.1c0,0-3.041-5.379-2.945-10.357a4.6,4.6,0,0,1,5.97-4.3,8.427,8.427,0,0,1,8.425-5.456Zm0,0" transform="translate(-14.175 -25.034)" fill="#3b485b"/>
      <path id="Trazado_1043742" data-name="Trazado 1043742" d="M126.2,401.877l2.813,3.59,2.907-3.59-2.819-2.9Z" transform="translate(-110.98 -350.42)" fill="#f74866"/>
      <path id="Trazado_1043743" data-name="Trazado 1043743" d="M152.749,30.466l-.037,0,.035,0Zm0,0" transform="translate(-134.295 -26.348)" fill="#f4af9d"/>
      <path id="Trazado_1043744" data-name="Trazado 1043744" d="M363.96,317.737l-1.862-3.226a.917.917,0,0,0-1.06-.419l-2.717.825a7.739,7.739,0,0,0-.959-.555l-.643-2.763a.917.917,0,0,0-.893-.709H352.1a.916.916,0,0,0-.893.709l-.644,2.763a7.737,7.737,0,0,0-.959.555l-2.717-.825a.917.917,0,0,0-1.06.419l-1.862,3.226a.917.917,0,0,0,.167,1.128l2.07,1.938c-.013.186-.02.371-.02.555s.007.37.02.555l-2.07,1.938a.917.917,0,0,0-.167,1.128l1.862,3.226a.917.917,0,0,0,1.06.419l2.717-.825a7.8,7.8,0,0,0,.959.555l.644,2.763a.917.917,0,0,0,.893.709h3.725a.918.918,0,0,0,.893-.709l.643-2.763a7.8,7.8,0,0,0,.959-.555l2.717.825a.917.917,0,0,0,1.06-.419l1.862-3.226a.916.916,0,0,0-.167-1.128l-2.07-1.938c.013-.186.02-.371.02-.555s-.007-.37-.02-.555l2.07-1.938A.916.916,0,0,0,363.96,317.737Zm-3.822,2.037a.916.916,0,0,0-.283.79,5.936,5.936,0,0,1,0,1.587.917.917,0,0,0,.283.791l1.87,1.751-1.134,1.965-2.455-.745a.919.919,0,0,0-.828.152,5.947,5.947,0,0,1-1.369.793.917.917,0,0,0-.544.639l-.581,2.5h-2.269l-.581-2.5a.917.917,0,0,0-.543-.64,5.931,5.931,0,0,1-1.369-.793.918.918,0,0,0-.827-.152l-2.455.745-1.134-1.965,1.87-1.751a.915.915,0,0,0,.282-.791,5.987,5.987,0,0,1,0-1.586.916.916,0,0,0-.282-.79l-1.87-1.751,1.134-1.965,2.455.745a.916.916,0,0,0,.827-.152,5.948,5.948,0,0,1,1.369-.793.917.917,0,0,0,.543-.64l.581-2.5H355.1l.581,2.5a.918.918,0,0,0,.544.64,5.929,5.929,0,0,1,1.369.793.918.918,0,0,0,.828.152l2.455-.745,1.134,1.965Zm0,0" transform="translate(-302.376 -272.958)"/>
      <path id="Trazado_1043745" data-name="Trazado 1043745" d="M182.655,209.723a.917.917,0,0,0-.917.917v1.839a.917.917,0,1,0,1.833,0V210.64A.917.917,0,0,0,182.655,209.723Zm0,0" transform="translate(-159.821 -183.991)"/>
      <path id="Trazado_1043746" data-name="Trazado 1043746" d="M105.494,212.479V210.64a.917.917,0,1,0-1.834,0v1.839a.917.917,0,0,0,1.834,0Zm0,0" transform="translate(-91.159 -183.99)"/>
      <path id="Trazado_1043747" data-name="Trazado 1043747" d="M122.54,272.429a3.68,3.68,0,0,1-5.2,0,.917.917,0,0,0-1.3,1.3,5.514,5.514,0,0,0,7.79,0,.917.917,0,1,0-1.3-1.3Zm0,0" transform="translate(-101.815 -238.898)"/>
      <path id="Trazado_1043748" data-name="Trazado 1043748" d="M57.314,20.584c.044-.45.067-.9.067-1.352s-.023-.9-.067-1.352L61.457,14a.917.917,0,0,0,.167-1.128L58.15,6.857a.917.917,0,0,0-1.061-.419L55.93,6.79a.917.917,0,1,0,.533,1.754l.462-.14,2.746,4.757-3.948,3.7a.916.916,0,0,0-.282.791,11.995,11.995,0,0,1,0,3.168.917.917,0,0,0,.282.791l3.948,3.7L56.925,30.06l-5.182-1.573a.917.917,0,0,0-.828.152,11.871,11.871,0,0,1-2.736,1.584.917.917,0,0,0-.543.64l-1.226,5.269H40.918l-1.226-5.269a.919.919,0,0,0-.544-.64,11.889,11.889,0,0,1-2.736-1.584.908.908,0,0,0-.254-.138,4.114,4.114,0,0,0,.1-.88,4.609,4.609,0,0,0-3.975-4.4V18.647a10.681,10.681,0,0,0,3.315-4.255A13.036,13.036,0,0,0,36.6,9.685a11.852,11.852,0,0,1,2.547-1.443.917.917,0,0,0,.543-.64l1.226-5.268H46.41L47.637,7.6a.917.917,0,0,0,.543.64,11.855,11.855,0,0,1,2.736,1.584.916.916,0,0,0,.561.191.9.9,0,0,0,.266-.04l1.656-.5a.917.917,0,0,0-.533-1.755l-1.213.368a13.7,13.7,0,0,0-2.336-1.353L48.032,1.209A.917.917,0,0,0,47.138.5H40.189a.917.917,0,0,0-.893.709L38.01,6.736a13.7,13.7,0,0,0-1.471.779,21.428,21.428,0,0,0-1.472-6.072.917.917,0,0,0-1.521-.25c-2.933,3.243-7.923,2.731-13.207,2.19-1.294-.132-2.632-.269-3.944-.35A9.3,9.3,0,0,0,7.371,8.339a5.523,5.523,0,0,0-6.342,5.348,23.168,23.168,0,0,0,2.461,9.647A4.555,4.555,0,0,0,0,27.621a4.633,4.633,0,0,0,4.2,4.43A14.2,14.2,0,0,0,12.987,42.7v2.56H7.772a6.616,6.616,0,0,0-6.608,6.608v7.315a.917.917,0,0,0,.917.917H34.158a.917.917,0,0,0,.917-.917V57.842a.917.917,0,0,0-1.834,0v.428H28.687l-1.921-1.921,2.108-.527a.918.918,0,0,0,.694-.926l-.305-7.732a4.781,4.781,0,0,1,3.978,4.707v2.3a.917.917,0,1,0,1.834,0v-2.3a6.616,6.616,0,0,0-6.608-6.608H23.253V42.7a14.2,14.2,0,0,0,8.8-10.65,5.029,5.029,0,0,0,2.988-1.482l.638-.194a13.709,13.709,0,0,0,2.336,1.352L39.3,37.256a.917.917,0,0,0,.893.709h6.949a.917.917,0,0,0,.893-.709l1.287-5.529a13.672,13.672,0,0,0,2.336-1.353l5.435,1.651a.918.918,0,0,0,1.061-.419l3.474-6.018a.917.917,0,0,0-.167-1.128ZM2.863,13.723a3.69,3.69,0,0,1,3.676-3.612,3.716,3.716,0,0,1,1.106.169.917.917,0,0,0,1.132-.556,7.47,7.47,0,0,1,7.508-4.859c1.274.077,2.593.213,3.869.343,4.982.51,10.117,1.037,13.683-1.781.67,2.11,1.686,6.505.073,10.238a9.941,9.941,0,0,1-6.139,5.344c-8.45,3.044-16.563-1.505-16.643-1.551a.919.919,0,0,0-1.354.607c-.01.049-1.013,4.6-4.345,5.045C4.71,21.7,2.79,17.537,2.863,13.722Zm-1.029,13.9A2.722,2.722,0,0,1,3.975,25.1V29.51c0,.212.005.424.014.635a2.724,2.724,0,0,1-2.155-2.524ZM22.577,47.1h1.342L22.6,51.736l-2.974-2.974ZM12.15,55.607a.917.917,0,0,0-.661-.644l-2.956-.739L8.814,47.1h1.6L13.6,58.269H10.145L11.914,56.5a.917.917,0,0,0,.236-.893Zm5.971-5.754,1.623,1.623-1.7,2.1-1.6-2.045Zm3.9,3.9L21.04,57.2l-1.757-2.243,1.765-2.181Zm-6.886-.918,1.8,2.3-1.719,2.124-1-3.5Zm3.038,3.683,1.371,1.75H16.757Zm-4.531-4.783L12.322,47.1h1.341l2.955,1.665ZM3,51.872a4.781,4.781,0,0,1,3.978-4.707L6.671,54.9a.918.918,0,0,0,.694.926l2.108.527L7.552,58.27H3Zm21.753,3.091a.917.917,0,0,0-.426,1.538l1.769,1.769H22.643L25.826,47.1h1.6l.281,7.127ZM21.42,45.645,18.12,47.5l-3.3-1.859v-2.37a14.24,14.24,0,0,0,6.6,0Zm-3.293-3.816A12.318,12.318,0,0,1,5.808,29.51v-4.6a6.359,6.359,0,0,0,4.472-3.277,11.292,11.292,0,0,0,.959-2.063,25.792,25.792,0,0,0,4.548,1.6,21.483,21.483,0,0,0,12.6-.43,15.642,15.642,0,0,0,2.053-.907V29.51A12.332,12.332,0,0,1,18.126,41.828ZM32.278,29.51V25.1a2.722,2.722,0,0,1,2.141,2.52,2.724,2.724,0,0,1-2.156,2.524C32.272,29.934,32.278,29.723,32.278,29.51Zm0,0" transform="translate(0 0)"/>
      <path id="Trazado_1043749" data-name="Trazado 1043749" d="M315.842,103.273a6.338,6.338,0,1,0,6.338,6.338,6.345,6.345,0,0,0-6.338-6.338Zm0,10.842a4.5,4.5,0,1,1,4.5-4.5A4.509,4.509,0,0,1,315.842,114.115Zm0,0" transform="translate(-272.178 -90.379)"/>
      <path id="Trazado_1043750" data-name="Trazado 1043750" d="M403.021,369.563a3.392,3.392,0,1,0,3.392,3.392A3.4,3.4,0,0,0,403.021,369.563Zm0,4.951a1.559,1.559,0,1,1,1.559-1.558A1.56,1.56,0,0,1,403.021,374.514Zm0,0" transform="translate(-351.434 -324.554)"/>
    </g>
  </g>
</svg>
