<svg xmlns="http://www.w3.org/2000/svg" xmlns:xlink="http://www.w3.org/1999/xlink" width="295" height="187" viewBox="0 0 295 187">
  <defs>
    <clipPath id="clip-path">
      <rect id="Rectángulo_415835" data-name="Rectángulo 415835" width="295" height="187" transform="translate(180 1697)" fill="#fff" stroke="#707070" stroke-width="1" opacity="0.84"/>
    </clipPath>
  </defs>
  <g id="Enmascarar_grupo_1098833" data-name="Enmascarar grupo 1098833" transform="translate(-180 -1697)" clip-path="url(#clip-path)">
    <g id="Grupo_1182954" data-name="Grupo 1182954" transform="translate(-867.726 -296.532)">
      <path id="Trazado_1043361" data-name="Trazado 1043361" d="M1368.627,1192.728s.965-76.8-68.462-61.846c0,0-22.546,7.292-40.8-17.677-11.863-16.223-45.19-28.38-75.754,16.589-14.929,21.966-41.347,25.392-41.347,25.392s-68.661-1.192-26.613,87.3c61.455,129.339,134.269,40.872,134.269,40.872s18.65-27.093,65.588-26.348C1350.487,1257.568,1369,1221.218,1368.627,1192.728Z" transform="translate(-52.32 898.436)" fill="#fff" opacity="0.73"/>
      <g id="Grupo_1182923" data-name="Grupo 1182923" transform="translate(1092.928 1996.958)">
        <path id="Trazado_1043435" data-name="Trazado 1043435" d="M1821.43,1521.7s-.314-.024-.894-.047-1.423-.047-2.476-.047a74.791,74.791,0,0,0-9.521.613.2.2,0,1,1-.052-.395,75.281,75.281,0,0,1,9.573-.616c2.117,0,3.394.1,3.4.1h0a.194.194,0,0,1,.138.077c4.083-1.175,6.514-2.211,6.4-2.861-.231-1.319-10.876-.566-24.175,1.661a8.189,8.189,0,0,0-1.607-1.681c-.014.017-.017.039-.036.051l-1.876,1.187c0,.021,0,.036,0,.063a5.7,5.7,0,0,1-.923,2.991,8.539,8.539,0,0,1-5.372,3.454.2.2,0,0,1-.1-.385,8.142,8.142,0,0,0,5.136-3.283,5.3,5.3,0,0,0,.861-2.778l0-.118,0-.036a.2.2,0,0,1,.092-.185l1.973-1.248h0a.2.2,0,0,1,.27.059c4.2-2.781,6.836-5.269,6.33-6.182-.682-1.229-6.8.864-13.675,4.677l-1.12.656-.087-.112-22.364,12.854c1.008,1.657,1.823,3.468,2.63,5.151a60.4,60.4,0,0,1,4.058,10.832c.333,1.275.6,2.563.837,3.858l-6.628,5.247h0l28.595-22.635.691-.121c12.766-2.239,22.918-5.176,22.675-6.562-.093-.53-1.7-.755-4.348-.707,0,.01.009.018.008.028a.2.2,0,0,1-.222.173l-.045,0c-.034,0-.086-.007-.16-.011-.147-.008-.379-.016-.71-.016a82.461,82.461,0,0,0-11.635,1.195.2.2,0,0,1-.061-.393,82.825,82.825,0,0,1,11.695-1.2,8.831,8.831,0,0,1,.964.035h0a.187.187,0,0,1,.152.146c4.239-1.213,6.814-2.321,6.69-3.027-.1-.564-1.911-.784-4.886-.7,0,.02.021.036.019.058A.194.194,0,0,1,1821.43,1521.7Z" transform="translate(-1578.205 -1416.141)" fill="#f2935a"/>
        <path id="Trazado_1043436" data-name="Trazado 1043436" d="M1843.076,1530.026h0l-1.973,1.248a.2.2,0,0,0-.092.185l0,.036,0,.117a5.3,5.3,0,0,1-.861,2.777,8.142,8.142,0,0,1-5.136,3.283.2.2,0,1,0,.1.385,8.538,8.538,0,0,0,5.372-3.454,5.7,5.7,0,0,0,.923-2.991c0-.027,0-.042,0-.063l1.876-1.187c.019-.012.022-.034.036-.051a.189.189,0,0,0,.026-.223l0,0A.2.2,0,0,0,1843.076,1530.026Z" transform="translate(-1619.312 -1427.952)" fill="#74160d"/>
        <path id="Trazado_1043437" data-name="Trazado 1043437" d="M1884.721,1549.336h0a9.109,9.109,0,0,0-.965-.035,82.773,82.773,0,0,0-11.694,1.2.2.2,0,0,0,.06.394,82.4,82.4,0,0,1,11.635-1.195c.332,0,.563.008.71.016l.16.011.046,0a.2.2,0,0,0,.222-.173c0-.01-.008-.018-.008-.028a.182.182,0,0,0-.013-.048A.185.185,0,0,0,1884.721,1549.336Z" transform="translate(-1643.262 -1440.439)" fill="#74160d"/>
        <path id="Trazado_1043438" data-name="Trazado 1043438" d="M1889.221,1538.654h0s-1.281-.1-3.4-.1a75.26,75.26,0,0,0-9.573.616.2.2,0,1,0,.052.394,74.921,74.921,0,0,1,9.521-.613c1.052,0,1.9.024,2.475.048s.892.047.893.047a.2.2,0,0,0,.213-.183c0-.022-.014-.038-.019-.058a.167.167,0,0,0-.165-.155Z" transform="translate(-1645.968 -1433.489)" fill="#74160d"/>
        <path id="Trazado_1043439" data-name="Trazado 1043439" d="M1751.057,1579.825l.008,0c.144.3.288.6.437.916.851,1.792,1.6,3.388,2.238,4.837l-.012-.008c.255.582.487,1.137.7,1.673h.008c.044.11.076.209.118.317.146.372.282.735.405,1.088.044.124.089.251.13.373l6.628-5.247c-.233-1.294-.5-2.582-.836-3.858a60.371,60.371,0,0,0-4.058-10.832c-.808-1.683-1.623-3.493-2.631-5.151h0l-9.349,5.374C1746.672,1571.1,1748.5,1574.471,1751.057,1579.825Z" transform="translate(-1561.077 -1449.902)" fill="#c66c3d"/>
        <path id="Trazado_1043440" data-name="Trazado 1043440" d="M1303.759,1332.69c4.411-3.846,15.734-6.939,30.48-8.435a.188.188,0,0,1,.095-.2.2.2,0,0,1,.266.091l.033.066c1.393-.138,2.821-.259,4.271-.368v0c2.582-.391,5.066-.679,7.45-.891l2.447-11.923a12.409,12.409,0,0,1-4.207-8.345h-.011l-.006-.165c-.01-.149-.012-.3-.016-.45l-.152-4.187-.006.006c-2.11,1.563-5.647.367-7.9-2.673-2.048-2.763-2.324-6.093-.775-7.851-3.343-5.592-10.5-8.046-17.2-5.5a15.7,15.7,0,0,0-7.131,5.455l0-.011c-2.164,2.843-4.623,2.446-5.43,2.216l-.136-.041c-.089-.03-.139-.051-.139-.051v.011a14.76,14.76,0,0,0-10.846.759c-7.391,3.471-10.871,12.036-7.774,19.128a13.156,13.156,0,0,0,1.977,3.173l-.014.008s3.021,3.149.506,9.627c-.03.077-.042.153-.065.229a13.9,13.9,0,0,0,.407,9.9,13.135,13.135,0,0,0,6.673,6.739A33.6,33.6,0,0,1,1303.759,1332.69Z" transform="translate(-1264.216 -1266.789)" fill="#383851"/>
        <path id="Trazado_1043441" data-name="Trazado 1043441" d="M1409.692,1698.939a95.513,95.513,0,0,1-15.869,2.314,163.514,163.514,0,0,1-33.254-1.456,141.131,141.131,0,0,1-28.993-7.084c-3.968-1.469-8.343-3.072-12.5-5.075a175.126,175.126,0,0,0-21.481,84.082q0,4.145.109,8.222h121.075q.1-4.079.109-8.222c0-38.183-6.741-72.424-17.406-95.689l-.034.012A156.422,156.422,0,0,1,1409.692,1698.939Z" transform="translate(-1271.765 -1522.419)" fill="#383851"/>
        <path id="Trazado_1043442" data-name="Trazado 1043442" d="M1399.881,1699.817a163.518,163.518,0,0,0,33.255,1.456,95.506,95.506,0,0,0,15.868-2.315,156.67,156.67,0,0,0-8.24-22.894c-7.679,2.7-22.174,4.464-38.794,4.373-15.185-.084-28.58-1.7-36.615-4.1-2.418,3.529-4.759,7.3-6.988,11.309l.026.012c4.153,2,8.528,3.606,12.5,5.075A141.312,141.312,0,0,0,1399.881,1699.817Z" transform="translate(-1311.073 -1522.438)" fill="#1f1e34"/>
        <path id="Trazado_1043443" data-name="Trazado 1043443" d="M1496.96,1425.531a4.692,4.692,0,0,1,.676,1.365h1.288a3.47,3.47,0,0,1,1.611.409c.939-.772,1.97-1.677,3.057-2.721a56.112,56.112,0,0,0,13.29-19.8c-1.145-.152-2.308-.3-3.5-.43A54.3,54.3,0,0,1,1496.96,1425.531Z" transform="translate(-1400.726 -1346.678)" fill="#ab98c9"/>
        <path id="Trazado_1043444" data-name="Trazado 1043444" d="M1424.214,1403.648c.262.488.654,1.2,1.177,2.077a76.091,76.091,0,0,0,4.684,6.957c.89,1.178,1.88,2.413,2.957,3.671a7.817,7.817,0,0,1,3.234-.152,9.337,9.337,0,0,1,1.935.478c-7.5-7.615-10.057-14.04-10.075-14.085-1.45.108-2.878.23-4.271.368C1423.906,1403.065,1424.023,1403.295,1424.214,1403.648Z" transform="translate(-1353.437 -1345.537)" fill="#ab98c9"/>
        <path id="Trazado_1043445" data-name="Trazado 1043445" d="M1387.69,1512.771c-.734,1.933-1.624,4.1-2.669,6.321,2.349-2.542,4.6-4.772,6.58-6.547v-.657a9.275,9.275,0,0,1-3.515.867C1387.955,1512.764,1387.821,1512.767,1387.69,1512.771Z" transform="translate(-1328.316 -1416.237)" fill="#ab98c9"/>
        <path id="Trazado_1043446" data-name="Trazado 1043446" d="M1465.8,1463.05a5.338,5.338,0,0,1-1.873,1.743h4.2c-.773-.607-1.527-1.224-2.253-1.852C1465.845,1462.976,1465.828,1463.015,1465.8,1463.05Z" transform="translate(-1379.358 -1384.575)" fill="#ab98c9"/>
        <path id="Trazado_1043447" data-name="Trazado 1043447" d="M1458.88,1449.288q.979,1,2.034,2c.881-.983,1.847-1.486,2.339-1.14.533.373.329,1.6-.429,2.87.859.745,1.75,1.478,2.675,2.191h2.275c-.1-.072-.2-.133-.294-.208-2.244-1.741-3.469-3.919-2.736-4.864a.979.979,0,0,1,.223-.179q-1.077-.922-2.057-1.835C1462.694,1448.995,1460.97,1449.482,1458.88,1449.288Z" transform="translate(-1376.093 -1374.986)" fill="#ab98c9"/>
        <path id="Trazado_1043448" data-name="Trazado 1043448" d="M1466.467,1369.256a12.332,12.332,0,0,1-6.3-2.911l-2.115,10.3c3.747.473,7.715-1.56,9.99-4.2a9.846,9.846,0,0,0,1.828-3.171A12.348,12.348,0,0,1,1466.467,1369.256Z" transform="translate(-1375.555 -1322.089)" fill="#c66c3d"/>
        <path id="Trazado_1043449" data-name="Trazado 1043449" d="M1468.916,1309.25a4.232,4.232,0,1,0,1.239,2.992A4.22,4.22,0,0,0,1468.916,1309.25Zm-3.605,2.673c.067-.615.395-1.083.733-1.046s.559.565.493,1.179-.4,1.083-.734,1.046S1465.243,1312.537,1465.31,1311.923Z" transform="translate(-1377.912 -1284.354)" fill="#f2935a"/>
        <path id="Trazado_1043450" data-name="Trazado 1043450" d="M1497.047,1319.816a4.231,4.231,0,1,0-2.993-1.239A4.218,4.218,0,0,0,1497.047,1319.816Zm-.971-4.093c.131-.6.507-1.034.839-.962s.5.62.365,1.224-.507,1.035-.84.963S1495.946,1316.327,1496.076,1315.723Z" transform="translate(-1398.045 -1286.516)" fill="#f2935a"/>
        <path id="Trazado_1043451" data-name="Trazado 1043451" d="M1472.407,1318.35c.339.036.666-.432.734-1.046s-.154-1.142-.493-1.179-.666.432-.733,1.047S1472.068,1318.314,1472.407,1318.35Z" transform="translate(-1384.518 -1289.601)" fill="#74160d"/>
        <path id="Trazado_1043452" data-name="Trazado 1043452" d="M1468.263,1301.162c1.926,0,3.515.788,3.515-.18s-1.561-1.752-3.486-1.752-3.487.785-3.487,1.752S1466.339,1301.162,1468.263,1301.162Z" transform="translate(-1379.926 -1278.674)" fill="#2f313e"/>
        <path id="Trazado_1043453" data-name="Trazado 1043453" d="M1502.331,1323.179c.333.072.709-.359.84-.963s-.031-1.152-.364-1.224-.708.359-.839.962S1502,1323.105,1502.331,1323.179Z" transform="translate(-1403.936 -1292.747)" fill="#74160d"/>
        <path id="Trazado_1043454" data-name="Trazado 1043454" d="M1503.755,1304.6c1.805.67,3.021,1.962,3.357,1.055s-.853-2.186-2.659-2.856-3.541-.48-3.879.427S1501.951,1303.922,1503.755,1304.6Z" transform="translate(-1403.037 -1280.722)" fill="#2f313e"/>
        <path id="Trazado_1043455" data-name="Trazado 1043455" d="M1483.329,1332.941c.141-.353.283-.64.283-.641a.2.2,0,0,0-.357-.176h0s-.148.3-.3.669a3.623,3.623,0,0,0-.3,1.132.551.551,0,0,0,.073.3.358.358,0,0,0,.308.164,1.262,1.262,0,0,0,.67-.311c.041.106.093.231.156.361a2.356,2.356,0,0,0,.275.448.6.6,0,0,0,.444.259.424.424,0,0,0,.261-.094,1.481,1.481,0,0,0,.4-.8l.028.018a1.278,1.278,0,0,0,.587.191.489.489,0,0,0,.391-.177.785.785,0,0,0,.142-.5,5.124,5.124,0,0,0-.4-1.637.2.2,0,1,0-.372.139,4.85,4.85,0,0,1,.378,1.5.421.421,0,0,1-.053.253l-.083.03a.935.935,0,0,1-.391-.139l-.166-.1-.062-.045-.191-.029-.126.146a2.676,2.676,0,0,1-.234.733l-.087.112-.017.01-.038-.018a1.561,1.561,0,0,1-.374-.572c-.056-.122-.1-.24-.132-.325s-.048-.138-.048-.138l-.133-.13-.182.037a1.724,1.724,0,0,1-.618.384l-.005-.06A3.487,3.487,0,0,1,1483.329,1332.941Z" transform="translate(-1391.474 -1299.881)" fill="#74160d"/>
        <path id="Trazado_1043456" data-name="Trazado 1043456" d="M1483.943,1352.543a3.448,3.448,0,0,1-4.872-.181.2.2,0,0,0-.292.271h0a3.845,3.845,0,0,0,5.434.2.2.2,0,0,0-.27-.291Z" transform="translate(-1388.931 -1313.003)" fill="#74160d"/>
        <path id="Trazado_1043457" data-name="Trazado 1043457" d="M1465.189,1306.88a4.629,4.629,0,1,0,4.51,5.658,2.993,2.993,0,0,1,.738-.108,1.9,1.9,0,0,1,.9.206,1.358,1.358,0,0,1,.21.137l.01.009a4.626,4.626,0,1,0,.014-.468,2.249,2.249,0,0,0-1.133-.282,3.3,3.3,0,0,0-.663.082,4.6,4.6,0,0,0-4.585-5.235Zm8,2.818a4.232,4.232,0,1,1-1.239,2.992A4.221,4.221,0,0,1,1473.191,1309.7Zm-5.007,4.8a4.232,4.232,0,1,1,1.239-2.992A4.217,4.217,0,0,1,1468.183,1314.5Z" transform="translate(-1377.179 -1283.622)" fill="#74160d"/>
        <path id="Trazado_1043458" data-name="Trazado 1043458" d="M1241.235,1506a13.627,13.627,0,0,1-9.47-16.776,13,13,0,0,1,6.176-7.617c-.733-.869-1.042-1.707-.711-2.217.524-.806,2.438-.489,4.354.679l1.984-1.522c-.331-2.781.339-5.14,1.514-5.288.814-.1,1.658.883,2.223,2.422l12.658-9.712c-.983-.318-1.621-.818-1.66-1.417-.075-1.153,2.085-2.235,4.826-2.414a11.157,11.157,0,0,1,1.794.025l1.062-.815h0l1.324-1.016a9.594,9.594,0,0,1-.506-1.654c-.494-2.328-.1-4.385.882-4.593s2.175,1.511,2.669,3.84c0,.021.006.042.01.063l.225-.172h0l8.849-6.788c.259-.292.518-.582.776-.867,1.263-2.57,2.323-5.1,3.174-7.337-2.359-.012-4.207-.752-4.275-1.787-.075-1.154,2.086-2.235,4.825-2.414.325-.021.642-.028.951-.023.268-.812.487-1.514.653-2.061.263-.869.394-1.361.394-1.363h0a.2.2,0,0,1,.384.1s-.344,1.286-1.017,3.336a7.706,7.706,0,0,1,2.424.482v-3.454c-.041-.157-.08-.317-.115-.48a6.747,6.747,0,0,1,.115-3.815v-1.343a3.5,3.5,0,0,1,3.5-3.5h16.72c-.5-.481-.179-1.9.774-3.255.09-.128.184-.245.277-.363q-1.254-1.178-2.4-2.37c-2.275-.357-3.989-1.4-3.853-2.369.052-.375.375-.684.882-.907a72.046,72.046,0,0,1-9.162-13.422h0c-.011-.022,0-.044,0-.067-14.746,1.5-26.069,4.589-30.48,8.435a33.546,33.546,0,0,0-7.214,6.316,49.38,49.38,0,0,0-4.7,6.332h0l-.009.015a57.977,57.977,0,0,0-2.873,5.159c-9.592,18.419-22.262,53.072-22.754,54.419-.147.31-.288.623-.421.943-4.021,9.679-.094,20.512,8.772,24.195,7.86,3.265,16.958-.189,21.724-7.758a12.938,12.938,0,0,1-1.453.9A13.968,13.968,0,0,1,1241.235,1506Zm6.081-60.854c-1.433-1.9-1.946-3.931-1.146-4.534s2.611.448,4.045,2.349,1.947,3.93,1.146,4.534S1248.749,1447.049,1247.316,1445.146Zm3.425-5.484c-1.7.3-3.185-.038-3.311-.755s1.151-1.541,2.853-1.84,3.184.038,3.311.755S1252.443,1439.361,1250.741,1439.662Zm17.239-11.494c-.992-.139-1.529-2.163-1.2-4.52s1.4-4.156,2.4-4.017,1.53,2.163,1.2,4.52S1268.973,1428.305,1267.98,1428.167Zm4.725-15.735c1.741-2.245,3.919-3.469,4.864-2.736s.3,3.147-1.442,5.391-3.92,3.47-4.865,2.737S1270.964,1414.678,1272.705,1412.432Zm3.693,10.474c-.418.6-1.9.276-3.319-.716s-2.225-2.279-1.807-2.875,1.9-.275,3.319.717S1276.819,1422.313,1276.4,1422.906Zm-7.359-13.67a7.7,7.7,0,0,1,1.313,3.084c.494,2.329.1,4.385-.881,4.593s-2.176-1.511-2.669-3.84a8.563,8.563,0,0,1-.165-2.674A26.623,26.623,0,0,1,1269.04,1409.236Zm-10.739,9.711c-.075-1.154,2.085-2.235,4.826-2.415s5.024.611,5.1,1.766-2.085,2.235-4.826,2.414S1258.379,1420.1,1258.3,1418.948Zm-10.417,13.641c.326,2.774-.344,5.124-1.516,5.271a1.193,1.193,0,0,1-.879-.29C1246.3,1435.838,1247.1,1434.171,1247.884,1432.589Zm-3.6,7.606a.928.928,0,0,1,.275.145c.87.763.106,3.055-1.7,5.12a10.84,10.84,0,0,1-1.541,1.448C1242.3,1444.623,1243.294,1442.374,1244.282,1440.195Zm-19.485,56.666c1.009.424,1.964,2.345,2.267,4.747a11.785,11.785,0,0,1,.092,1.379A18.322,18.322,0,0,1,1224.8,1496.861Zm7.2,11.19a16.12,16.12,0,0,1-2.316-1.888c1.615-.238,2.989.094,3.109.782C1232.852,1507.313,1232.537,1507.709,1231.994,1508.051Z" transform="translate(-1224.44 -1346.284)" fill="#ab98c9"/>
        <path id="Trazado_1043459" data-name="Trazado 1043459" d="M1709.51,1703.52c-.207.081-.414.161-.622.233C1709.093,1703.679,1709.3,1703.6,1709.51,1703.52Z" transform="translate(-1537.817 -1540.199)" fill="#ab98c9"/>
        <path id="Trazado_1043460" data-name="Trazado 1043460" d="M1703.583,1705.32q-.383.094-.769.169C1703.07,1705.44,1703.328,1705.383,1703.583,1705.32Z" transform="translate(-1533.888 -1541.363)" fill="#ab98c9"/>
        <path id="Trazado_1043461" data-name="Trazado 1043461" d="M1706.618,1704.54c-.206.065-.411.126-.618.182C1706.208,1704.667,1706.413,1704.6,1706.618,1704.54Z" transform="translate(-1535.949 -1540.859)" fill="#ab98c9"/>
        <path id="Trazado_1043462" data-name="Trazado 1043462" d="M1713.341,1702.1c-.1.051-.211.1-.316.144C1713.129,1702.2,1713.235,1702.149,1713.341,1702.1Z" transform="translate(-1540.494 -1539.281)" fill="#ab98c9"/>
        <path id="Trazado_1043463" data-name="Trazado 1043463" d="M1700.325,1705.92c-.344.063-.689.115-1.034.154C1699.637,1706.036,1699.979,1705.984,1700.325,1705.92Z" transform="translate(-1531.609 -1541.752)" fill="#ab98c9"/>
        <path id="Trazado_1043464" data-name="Trazado 1043464" d="M1250.356,1624.23a13,13,0,0,0-6.177,7.617,13.627,13.627,0,0,0,9.469,16.776,13.967,13.967,0,0,0,13.827-3.3,13.169,13.169,0,0,1-16.2-20.185A7.712,7.712,0,0,1,1250.356,1624.23Z" transform="translate(-1236.856 -1488.908)" fill="#74160d"/>
        <path id="Trazado_1043465" data-name="Trazado 1043465" d="M1443.78,1263.778c.2.271.378.548.544.827a10.741,10.741,0,0,1,1.557-5.338s.8,4.482,13.6-3.114c0,0,1.065,7.564,12.894,0,0,0,1.041,4.875-.625,12.385.2-.175.406-.346.626-.508a9.706,9.706,0,0,1,1.56-.94,18.531,18.531,0,0,0,1.72-7.122,17.862,17.862,0,1,0-35.689-1.4,18.927,18.927,0,0,0,.051,2.244A8.684,8.684,0,0,1,1443.78,1263.778Z" transform="translate(-1363.854 -1241.018)" fill="#2f313e"/>
        <path id="Trazado_1043466" data-name="Trazado 1043466" d="M1425.906,1297.158c2.253,3.041,5.79,4.237,7.9,2.673l.007-.006.152,4.187c0,.15.006.3.016.45l.006.165H1434a12.408,12.408,0,0,0,4.207,8.345l-2.447,11.923c-2.384.212-4.868.5-7.45.891l0,0c.017.044,2.575,6.47,10.075,14.085q.97.985,2.052,1.992.98.912,2.057,1.834a70.941,70.941,0,0,0,6.174,4.72s.439-.277,1.187-.834a54.293,54.293,0,0,0,16.423-21.174h0a69.224,69.224,0,0,0-9.907-1.53l-2.327-11.526a12.356,12.356,0,0,0,4.1-5.89l.014,0,1.311-3.826,0,0c1.564,2.11,5.3,1.994,8.336-.26s4.238-5.79,2.673-7.9c-1.3-1.759-4.115-1.965-6.776-.68a9.654,9.654,0,0,0-1.56.94c-.219.162-.426.333-.626.508,1.666-7.51.625-12.385.625-12.385-11.828,7.564-12.894,0-12.894,0-12.809,7.6-13.6,3.114-13.6,3.114a10.743,10.743,0,0,0-1.557,5.339,9.805,9.805,0,0,0-.544-.827,8.679,8.679,0,0,0-3.757-2.968,4.273,4.273,0,0,0-4.143.295,3.362,3.362,0,0,0-.515.485C1423.583,1291.067,1423.858,1294.4,1425.906,1297.158Zm20.976-.01a2.252,2.252,0,0,1,1.133.282,4.632,4.632,0,1,1-.014.468l-.01-.009a1.311,1.311,0,0,0-.21-.136,1.9,1.9,0,0,0-.9-.206,2.969,2.969,0,0,0-.738.108,5.081,5.081,0,1,1,.075-.423A3.206,3.206,0,0,1,1446.882,1297.147Zm-1.056,5.311.182-.037.133.13s.017.052.048.138.077.2.133.325a1.566,1.566,0,0,0,.373.572l.038.018.017-.01.087-.112a2.682,2.682,0,0,0,.234-.733l.126-.146.191.029.063.045.166.1a.928.928,0,0,0,.391.139l.082-.03a.416.416,0,0,0,.054-.254,4.853,4.853,0,0,0-.378-1.5.2.2,0,1,1,.372-.139,5.142,5.142,0,0,1,.4,1.637.782.782,0,0,1-.142.5.489.489,0,0,1-.391.177,1.279,1.279,0,0,1-.587-.191l-.028-.018a1.477,1.477,0,0,1-.4.8.419.419,0,0,1-.261.094.6.6,0,0,1-.444-.258,2.33,2.33,0,0,1-.275-.448c-.064-.131-.115-.255-.156-.361a1.267,1.267,0,0,1-.671.311.357.357,0,0,1-.308-.164.55.55,0,0,1-.073-.3,3.605,3.605,0,0,1,.3-1.132c.147-.369.294-.666.3-.668h0a.2.2,0,0,1,.356.175s-.141.288-.283.641a3.377,3.377,0,0,0-.274.984l0,.06A1.689,1.689,0,0,0,1445.826,1302.458Zm3.076,6.113a3.846,3.846,0,0,1-5.434-.2h0a.2.2,0,1,1,.292-.271,3.447,3.447,0,0,0,4.872.181.2.2,0,0,1,.27.291Zm-2.8,10.534c-2.274,2.636-6.243,4.669-9.99,4.2l2.115-10.3a12.293,12.293,0,0,0,9.7,2.937A9.9,9.9,0,0,1,1446.105,1319.1Zm20.845-23.536a2.751,2.751,0,0,1,2.3,1,2.393,2.393,0,0,1,.451,1.449,3.866,3.866,0,0,1-.332,1.5h0a.2.2,0,0,1-.366-.156,3.481,3.481,0,0,0,.3-1.343,2,2,0,0,0-.374-1.212,2.357,2.357,0,0,0-1.976-.838,4.745,4.745,0,0,0-1.107.158,6.225,6.225,0,0,1,.635,2.87,8.95,8.95,0,0,1-.886,3.77.2.2,0,1,1-.361-.167,8.559,8.559,0,0,0,.85-3.6,5.8,5.8,0,0,0-.615-2.734l-.016-.028a6.887,6.887,0,0,0-1.991,1.026,5.344,5.344,0,0,0-2.4,3.886,1.991,1.991,0,0,0,.374,1.212.2.2,0,1,1-.319.237,2.386,2.386,0,0,1-.452-1.449,5.72,5.72,0,0,1,2.559-4.206A6.509,6.509,0,0,1,1466.95,1295.569Zm-15.788-4.333c.337-.907,2.074-1.1,3.879-.427s3,1.949,2.66,2.856-1.552-.385-3.358-1.055S1450.823,1292.144,1451.162,1291.236Zm-9.174-1.942c1.925,0,3.487.785,3.487,1.751s-1.589.18-3.515.18-3.459.788-3.459-.18S1440.063,1289.294,1441.988,1289.294Zm-15.47.925a2.39,2.39,0,0,1,1.449-.452,5.722,5.722,0,0,1,4.206,2.559,6.492,6.492,0,0,1,1.37,3.728,2.753,2.753,0,0,1-1,2.3.2.2,0,1,1-.237-.319,2.358,2.358,0,0,0,.838-1.976,6.1,6.1,0,0,0-1.292-3.491,6.867,6.867,0,0,0-1.6-1.564l-.008.007-.052.052c-.046.046-.114.117-.2.214a5.465,5.465,0,0,0-.6.881,7.388,7.388,0,0,0-.884,3.636,9.781,9.781,0,0,0,.1,1.367.2.2,0,1,1-.394.055,10.2,10.2,0,0,1-.1-1.423,7.059,7.059,0,0,1,1.8-5.014,3.89,3.89,0,0,0-1.944-.609,1.991,1.991,0,0,0-1.212.374,2.349,2.349,0,0,0-.838,1.974,4.246,4.246,0,0,0,.025.449h0a.2.2,0,1,1-.4.042,4.6,4.6,0,0,1-.027-.492A2.741,2.741,0,0,1,1426.517,1290.219Z" transform="translate(-1353.622 -1268.738)" fill="#f2935a"/>
        <path id="Trazado_1043467" data-name="Trazado 1043467" d="M1428.05,1303.312a4.667,4.667,0,0,0,.027.492.2.2,0,0,0,.4-.042h0a4.151,4.151,0,0,1-.025-.449,2.351,2.351,0,0,1,.837-1.974,1.994,1.994,0,0,1,1.212-.374,3.892,3.892,0,0,1,1.944.609,7.063,7.063,0,0,0-1.8,5.014,10.283,10.283,0,0,0,.1,1.423.2.2,0,0,0,.394-.055,9.811,9.811,0,0,1-.1-1.367,7.39,7.39,0,0,1,.884-3.636,5.521,5.521,0,0,1,.6-.881c.081-.1.149-.167.195-.214l.053-.051.008-.007a6.888,6.888,0,0,1,1.6,1.564,6.107,6.107,0,0,1,1.292,3.491,2.359,2.359,0,0,1-.838,1.976.2.2,0,1,0,.237.319,2.752,2.752,0,0,0,1-2.3,6.488,6.488,0,0,0-1.37-3.728,5.719,5.719,0,0,0-4.206-2.559,2.388,2.388,0,0,0-1.448.452A2.729,2.729,0,0,0,1428.05,1303.312Z" transform="translate(-1356.15 -1279.539)" fill="#74160d"/>
        <path id="Trazado_1043468" data-name="Trazado 1043468" d="M1527.56,1322.576a2.391,2.391,0,0,0,.452,1.449.2.2,0,1,0,.32-.237,1.989,1.989,0,0,1-.374-1.212,5.344,5.344,0,0,1,2.4-3.886,6.871,6.871,0,0,1,1.991-1.026l.016.027a5.8,5.8,0,0,1,.615,2.734,8.552,8.552,0,0,1-.85,3.6.2.2,0,1,0,.361.167,8.954,8.954,0,0,0,.886-3.77,6.226,6.226,0,0,0-.635-2.87,4.751,4.751,0,0,1,1.107-.158,2.357,2.357,0,0,1,1.976.838,2,2,0,0,1,.374,1.212,3.473,3.473,0,0,1-.3,1.343.2.2,0,1,0,.366.156h0a3.863,3.863,0,0,0,.332-1.5,2.394,2.394,0,0,0-.452-1.449,2.751,2.751,0,0,0-2.295-1,6.49,6.49,0,0,0-3.728,1.37A5.727,5.727,0,0,0,1527.56,1322.576Z" transform="translate(-1420.521 -1290.169)" fill="#74160d"/>
        <path id="Trazado_1043469" data-name="Trazado 1043469" d="M1739.75,1575.57a4.811,4.811,0,0,1,.431.214C1740.036,1575.7,1739.895,1575.633,1739.75,1575.57Z" transform="translate(-1557.781 -1457.432)" fill="#ab98c9"/>
        <path id="Trazado_1043470" data-name="Trazado 1043470" d="M1736.61,1574.65a4.5,4.5,0,0,1,.513.111A4.59,4.59,0,0,0,1736.61,1574.65Z" transform="translate(-1555.75 -1456.836)" fill="#ab98c9"/>
        <path id="Trazado_1043471" data-name="Trazado 1043471" d="M1741.27,1576.35c.134.079.266.164.4.257C1741.535,1576.512,1741.4,1576.431,1741.27,1576.35Z" transform="translate(-1558.765 -1457.936)" fill="#ab98c9"/>
        <path id="Trazado_1043472" data-name="Trazado 1043472" d="M1738.2,1575.01a4.45,4.45,0,0,1,.469.165A3.95,3.95,0,0,0,1738.2,1575.01Z" transform="translate(-1556.779 -1457.069)" fill="#ab98c9"/>
        <path id="Trazado_1043473" data-name="Trazado 1043473" d="M1494.378,1487.765c-.208-.98,1.511-2.176,3.84-2.669a9.632,9.632,0,0,1,1.5-.194c-.215-.536-.447-1.091-.7-1.673-.227-.152-.457-.309-.683-.485-2.244-1.741-3.47-3.919-2.737-4.864a1.161,1.161,0,0,1,.749-.394c-2.56-5.351-4.385-8.72-6.213-10.519-.11-.108-.22-.205-.329-.3a9.811,9.811,0,0,1-1.066-.086,7.468,7.468,0,0,1-3.274-1.171,5.532,5.532,0,0,1,1.748-.032c-1.869-.288-4.068.548-7.177,2.185a.19.19,0,0,1-.029.233s-.049.045-.14.138-.222.232-.381.413a12.524,12.524,0,0,0-1.16,1.571,10.549,10.549,0,0,0-1.685,5.555v.131a.2.2,0,1,1-.4.01v-.141a11.807,11.807,0,0,1,3.494-7.968h0c.019-.017.044-.016.067-.025q-.241-.612-.488-1.237a10.1,10.1,0,0,1-1.151.318c-2.329.493-4.385.1-4.592-.882s1.511-2.176,3.84-2.669c.2-.041.386-.068.577-.1q-.559-1.394-1.138-2.821c-1.8-1.623-2.719-3.454-2.064-4.3a.929.929,0,0,1,.228-.183c-2.761-6.668-5.721-13.489-8.541-19.359a9.143,9.143,0,0,1-1.884,3.152c-1.811,2.064-3.984,3.121-4.853,2.358s-.106-3.055,1.705-5.12a7.088,7.088,0,0,1,3.956-2.6c-.486-.98-.966-1.929-1.438-2.836a57.894,57.894,0,0,0-2.87-5.156l-.009-.015h0c-4.279-6.812-9.5-11.8-14.551-14.061-4.962-2.647-13.287-4.844-23.613-6.248,0,.011.005.022,0,.033a56.388,56.388,0,0,1-16.371,22.642,3.5,3.5,0,0,1,1.521,2.886v8.962a9.293,9.293,0,0,1,1.938.069c2.357.33,4.155,1.4,4.016,2.4s-2.163,1.529-4.52,1.2a9.744,9.744,0,0,1-1.434-.311v33.213a3.5,3.5,0,0,1-3.5,3.5h-23.878a8.809,8.809,0,0,1-1.821,3.75c-1.742,2.245-3.92,3.47-4.865,2.736s-.3-3.147,1.442-5.391a11.884,11.884,0,0,1,.962-1.094h-3.246c-.117,0-.227-.023-.341-.034a9.993,9.993,0,0,1,.273,1.015c.494,2.328.1,4.385-.881,4.593s-2.176-1.511-2.669-3.84a5.914,5.914,0,0,1,.3-4.161,3.466,3.466,0,0,1-.186-1.077v-7.828l-4.482,4.952h0l-3.921,4.332h0l-10.162,11.229c1,4.631,1.7,7.26,1.7,7.26h.01c.445,1.731,3.282,3.344,7.845,4.706,8.036,2.4,21.431,4.015,36.616,4.1,16.62.091,31.115-1.677,38.794-4.373l.034-.012c3.675-1.295,5.788-2.8,5.8-4.42a132.489,132.489,0,0,0,3.775-14.9c-.008,0-.014,0-.022,0a.2.2,0,0,1-.132-.249s.047-.153.13-.447.2-.727.344-1.283c.285-1.112.666-2.716,1.046-4.682a80.948,80.948,0,0,0,1.522-15.1c0-8.47-1.634-17.795-7.255-24.719a.2.2,0,0,1,.309-.251c5.707,7.037,7.343,16.453,7.344,24.97a82.684,82.684,0,0,1-3.059,21.623h0c-.01.031-.036.047-.058.069,2.714,5.651,5.647,11.428,8.8,17.208l.047-.02q.167.462.357.92c3.38,8.135,11.3,12.865,19,11.98a1,1,0,0,1-.463-.608c-.208-.98,1.511-2.175,3.84-2.669,2.021-.429,3.835-.186,4.414.527q-.686.37-1.323.674a36.659,36.659,0,0,0,3.857-2.176c-.519-.471-.2-1.9.763-3.265.992-1.416,2.279-2.224,2.875-1.807.563.395.3,1.743-.567,3.085,11.959-7.843,15-11.235,13.36-17.58a9.393,9.393,0,0,1-1.819.577C1496.642,1489.138,1494.587,1488.743,1494.378,1487.765Zm-31.919,5.329c-2-1.3-3.17-3.031-2.624-3.871s2.607-.47,4.6.828,3.171,3.031,2.625,3.871S1464.454,1494.389,1462.459,1493.093Zm-5.484-10.537c1.433,1.9,1.946,3.93,1.146,4.534s-2.611-.448-4.044-2.349-1.947-3.93-1.147-4.534S1455.545,1480.656,1456.975,1482.556Zm4.463-.314c1.811-2.065,3.984-3.121,4.854-2.358s.106,3.055-1.705,5.119-3.984,3.121-4.853,2.358S1459.631,1484.308,1461.439,1482.242Zm20.612-15.682a17.266,17.266,0,0,1,2.359-.911,7.611,7.611,0,0,1,1.393,4.305c.179,2.741-.611,5.024-1.766,5.1s-2.234-2.085-2.414-4.825A9.135,9.135,0,0,1,1482.051,1466.56Zm-22.215-22.946c.546-.84,2.607-.47,4.6.827s3.171,3.03,2.625,3.871-2.608.47-4.6-.827S1459.288,1444.454,1459.836,1443.614Zm.879,5.456c.356,2.819-.318,5.225-1.5,5.375s-2.437-2.014-2.793-4.833.318-5.225,1.5-5.375S1460.362,1446.248,1460.715,1449.069Zm-7.165-6.635c1.7-.3,3.184.038,3.31.755s-1.152,1.54-2.854,1.84-3.184-.038-3.31-.755S1451.848,1442.734,1453.55,1442.434Zm-.618-7.833c.8-.6,2.611.448,4.045,2.349s1.947,3.93,1.146,4.534-2.611-.448-4.044-2.348S1452.131,1435.206,1452.932,1434.6Zm-13.027-7.624c.356,2.819-.318,5.225-1.5,5.375s-2.437-2.013-2.794-4.833.318-5.225,1.505-5.375S1439.552,1424.16,1439.905,1426.978Zm-26.29,66.758c-.992,1.415-2.279,2.224-2.875,1.807s-.275-1.9.717-3.319,2.279-2.224,2.874-1.807S1414.608,1492.32,1413.615,1493.736Zm-.678-11.194c-.179-2.741.611-5.024,1.766-5.1s2.234,2.086,2.414,4.825-.61,5.024-1.764,5.1S1413.117,1485.282,1412.937,1482.542Zm7.638,3.4c2.328-.493,4.385-.1,4.592.881s-1.51,2.176-3.84,2.669-4.385.1-4.592-.881S1418.248,1486.437,1420.575,1485.942Zm.639-39.7c2.246,1.741,3.47,3.919,2.737,4.864s-3.148.3-5.392-1.441-3.469-3.92-2.736-4.865S1418.972,1444.5,1421.214,1446.241Zm-.639-5.9c2.328-.494,4.385-.1,4.592.881s-1.51,2.175-3.84,2.669-4.385.1-4.592-.882S1418.248,1440.831,1420.575,1440.337Zm9.312,27.456c-.126-.717,1.152-1.541,2.854-1.841s3.185.038,3.311.755-1.151,1.54-2.853,1.84S1430.014,1468.509,1429.887,1467.792Zm8.514,10.166c-1.187.15-2.437-2.014-2.794-4.832s.318-5.226,1.505-5.376,2.438,2.014,2.793,4.833S1439.588,1477.81,1438.4,1477.958Zm-1.087-12.96c-.8.6-2.611-.448-4.045-2.349s-1.946-3.931-1.146-4.534,2.611.448,4.045,2.349S1438.115,1464.4,1437.313,1465Zm-4.043-47.954c-1.433-1.9-1.947-3.931-1.146-4.534s2.611.448,4.045,2.348,1.947,3.931,1.146,4.534S1434.7,1418.944,1433.27,1417.044Zm2.782,4.054c.126.717-1.151,1.541-2.853,1.841s-3.185-.039-3.311-.755,1.152-1.541,2.854-1.841S1435.926,1420.382,1436.053,1421.1Zm4.58-6.554c1.811-2.066,3.984-3.121,4.853-2.358s.106,3.055-1.7,5.12-3.984,3.12-4.853,2.357S1438.821,1416.61,1440.633,1414.544Zm-27.7,22.391c-.179-2.741.611-5.023,1.766-5.1s2.234,2.084,2.414,4.825-.61,5.024-1.764,5.1S1413.117,1439.676,1412.937,1436.936Zm-1.48,9.679c.992-1.415,2.279-2.224,2.875-1.807s.276,1.9-.716,3.319-2.279,2.224-2.875,1.807S1410.465,1448.031,1411.458,1446.615Zm-5.975,40.5c.139-.993,2.162-1.53,4.52-1.2s4.155,1.4,4.016,2.4-2.163,1.53-4.52,1.2S1405.341,1488.114,1405.483,1487.119Zm-31.474,1.172c.418-.6,1.9-.275,3.319.716s2.224,2.279,1.807,2.875-1.9.275-3.319-.717S1373.592,1488.888,1374.009,1488.291Zm-8.147-2.782c2.741-.18,5.024.61,5.1,1.765s-2.086,2.235-4.826,2.415-5.024-.611-5.1-1.765S1363.122,1485.688,1365.862,1485.508Zm4.852,11.635c-.993-.139-1.53-2.163-1.2-4.52s1.4-4.156,2.4-4.017,1.529,2.163,1.2,4.52S1371.706,1497.281,1370.714,1497.144Zm21.392,8.327c-.038-2.471.717-4.44,1.787-4.51,1.12-.073,2.17,1.963,2.395,4.59Q1394.168,1505.531,1392.106,1505.47Zm26.453-10.2c-2.245-1.741-3.469-3.92-2.736-4.865s3.147-.3,5.392,1.442,3.47,3.92,2.736,4.865S1420.8,1497.01,1418.559,1495.269ZM1441.65,1471c-2-1.3-3.171-3.031-2.625-3.871s2.607-.47,4.6.828,3.171,3.03,2.625,3.87S1443.645,1472.3,1441.65,1471Zm3.835-13.207c.87.763.106,3.054-1.7,5.12s-3.984,3.121-4.853,2.358-.106-3.055,1.7-5.12S1444.616,1457.032,1445.485,1457.8Zm.77-31.573c-.547.841-2.607.47-4.6-.828s-3.17-3.03-2.624-3.871,2.607-.469,4.6.828S1446.8,1425.382,1446.255,1426.222Zm4.442,63.658c-.127-.716,1.151-1.54,2.854-1.84s3.183.038,3.31.755-1.152,1.541-2.854,1.841S1450.824,1490.6,1450.7,1489.88Zm8.514,10.17c-1.187.15-2.437-2.014-2.793-4.832s.318-5.225,1.5-5.375,2.437,2.014,2.793,4.832S1460.4,1499.9,1459.211,1500.05Zm18.313,6.208c-2.245-1.741-3.47-3.919-2.737-4.864s3.148-.3,5.392,1.442,3.47,3.92,2.736,4.865S1479.766,1508,1477.524,1506.258Z" transform="translate(-1306.364 -1347.563)" fill="#ab98c9"/>
        <path id="Trazado_1043474" data-name="Trazado 1043474" d="M1742.76,1577.36c.123.093.246.189.368.3C1743.007,1577.551,1742.884,1577.452,1742.76,1577.36Z" transform="translate(-1559.729 -1458.589)" fill="#ab98c9"/>
        <path id="Trazado_1043475" data-name="Trazado 1043475" d="M1773.97,1635.33q.167.511.3,1C1774.182,1636,1774.083,1635.672,1773.97,1635.33Z" transform="translate(-1579.918 -1496.089)" fill="#ab98c9"/>
        <path id="Trazado_1043476" data-name="Trazado 1043476" d="M1715.358,1700.53q-.6.286-1.158.512C1714.571,1700.89,1714.956,1700.721,1715.358,1700.53Z" transform="translate(-1541.254 -1538.265)" fill="#ab98c9"/>
        <path id="Trazado_1043477" data-name="Trazado 1043477" d="M1772.748,1631.918q-.186-.529-.406-1.088C1772.49,1631.2,1772.624,1631.568,1772.748,1631.918Z" transform="translate(-1578.864 -1493.178)" fill="#ab98c9"/>
        <path id="Trazado_1043478" data-name="Trazado 1043478" d="M1356.242,1428.331c.945.733,3.123-.493,4.865-2.737s2.387-4.659,1.441-5.392-3.123.492-4.864,2.736S1355.3,1427.6,1356.242,1428.331Z" transform="translate(-1309.418 -1356.79)" fill="#fbfbfb"/>
        <path id="Trazado_1043479" data-name="Trazado 1043479" d="M1360.189,1448c-1.415-.992-2.9-1.313-3.319-.717s.392,1.884,1.807,2.875,2.9,1.312,3.319.716S1361.605,1448.991,1360.189,1448Z" transform="translate(-1310.035 -1374.251)" fill="#fbfbfb"/>
        <path id="Trazado_1043480" data-name="Trazado 1043480" d="M1347.757,1453.225c.33-2.357-.207-4.381-1.2-4.52s-2.065,1.66-2.4,4.017.206,4.381,1.2,4.52S1347.429,1455.584,1347.757,1453.225Z" transform="translate(-1301.823 -1375.361)" fill="#fbfbfb"/>
        <path id="Trazado_1043481" data-name="Trazado 1043481" d="M1344.024,1423.131c.494,2.329,1.689,4.048,2.669,3.84s1.376-2.264.881-4.593a7.694,7.694,0,0,0-1.313-3.084c-.879.375-1.676.764-2.4,1.163A8.667,8.667,0,0,0,1344.024,1423.131Z" transform="translate(-1301.663 -1356.34)" fill="#fbfbfb"/>
        <path id="Trazado_1043482" data-name="Trazado 1043482" d="M1325.436,1444.088c2.74-.179,4.9-1.261,4.826-2.413s-2.358-1.944-5.1-1.766-4.9,1.26-4.825,2.415S1322.7,1444.265,1325.436,1444.088Z" transform="translate(-1286.472 -1369.66)" fill="#fbfbfb"/>
        <path id="Trazado_1043483" data-name="Trazado 1043483" d="M1477.83,1458.352c.1.076.2.137.293.208h5.23a4.686,4.686,0,0,0-.676-1.365c-.747.557-1.186.834-1.186.834a71.059,71.059,0,0,1-6.174-4.72.981.981,0,0,0-.223.179C1474.362,1454.433,1475.587,1456.612,1477.83,1458.352Z" transform="translate(-1386.445 -1378.344)" fill="#fbfbfb"/>
        <path id="Trazado_1043484" data-name="Trazado 1043484" d="M1463.427,1459.816c.025-.036.045-.073.07-.109-.672-.582-1.319-1.172-1.951-1.765-.094.117-.188.235-.278.362-.953,1.36-1.277,2.775-.774,3.255h1.06A5.335,5.335,0,0,0,1463.427,1459.816Z" transform="translate(-1376.986 -1381.34)" fill="#fbfbfb"/>
        <path id="Trazado_1043485" data-name="Trazado 1043485" d="M1466.974,1453.65c-.493-.346-1.459.157-2.339,1.14.619.582,1.252,1.16,1.91,1.73C1467.3,1455.253,1467.508,1454.024,1466.974,1453.65Z" transform="translate(-1379.816 -1378.494)" fill="#fbfbfb"/>
        <path id="Trazado_1043486" data-name="Trazado 1043486" d="M1446.186,1442.858c-.136.969,1.578,2.012,3.853,2.37-1.059-1.1-2.049-2.2-2.971-3.277C1446.56,1442.173,1446.239,1442.48,1446.186,1442.858Z" transform="translate(-1367.877 -1370.997)" fill="#fbfbfb"/>
        <path id="Trazado_1043487" data-name="Trazado 1043487" d="M1449.84,1441.1c.986,1.15,2.05,2.32,3.191,3.487,2.091.2,3.814-.291,4.031-1.169q-1.082-1.006-2.052-1.992a9.331,9.331,0,0,0-1.935-.478A7.91,7.91,0,0,0,1449.84,1441.1Z" transform="translate(-1370.246 -1370.287)" fill="#fbfbfb"/>
        <path id="Trazado_1043488" data-name="Trazado 1043488" d="M1591.768,1452.216c-1.187.15-1.861,2.556-1.505,5.375s1.607,4.982,2.794,4.832,1.86-2.556,1.5-5.374S1592.955,1452.064,1591.768,1452.216Z" transform="translate(-1461.021 -1377.632)" fill="#fbfbfb"/>
        <path id="Trazado_1043489" data-name="Trazado 1043489" d="M1574.225,1448.768c.127.716,1.609,1.054,3.311.755s2.979-1.124,2.853-1.841-1.608-1.055-3.311-.755S1574.1,1448.051,1574.225,1448.768Z" transform="translate(-1450.702 -1374.145)" fill="#fbfbfb"/>
        <path id="Trazado_1043490" data-name="Trazado 1043490" d="M1585.069,1431.511c.8-.6.287-2.633-1.146-4.534s-3.244-2.952-4.045-2.348-.287,2.633,1.146,4.534S1584.271,1432.115,1585.069,1431.511Z" transform="translate(-1454.12 -1359.681)" fill="#fbfbfb"/>
        <path id="Trazado_1043491" data-name="Trazado 1043491" d="M1604.473,1450.469c-2-1.3-4.057-1.668-4.6-.828s.628,2.574,2.625,3.871,4.057,1.668,4.6.828S1606.472,1451.765,1604.473,1450.469Z" transform="translate(-1467.21 -1375.681)" fill="#fbfbfb"/>
        <path id="Trazado_1043492" data-name="Trazado 1043492" d="M1604.031,1428.7c1.811-2.065,2.575-4.357,1.7-5.12s-3.042.293-4.853,2.358-2.575,4.357-1.7,5.119S1602.219,1430.759,1604.031,1428.7Z" transform="translate(-1466.616 -1358.95)" fill="#fbfbfb"/>
        <path id="Trazado_1043493" data-name="Trazado 1043493" d="M1284.93,1490.694c1.172-.147,1.842-2.5,1.516-5.271-.786,1.58-1.587,3.248-2.4,4.981A1.194,1.194,0,0,0,1284.93,1490.694Z" transform="translate(-1263.001 -1399.118)" fill="#fbfbfb"/>
        <path id="Trazado_1043494" data-name="Trazado 1043494" d="M1292.388,1497.9c-1.7.3-2.979,1.123-2.853,1.84s1.608,1.055,3.311.755,2.979-1.124,2.854-1.84S1294.089,1497.606,1292.388,1497.9Z" transform="translate(-1266.543 -1407.12)" fill="#fbfbfb"/>
        <path id="Trazado_1043495" data-name="Trazado 1043495" d="M1289.329,1510.186c-1.434-1.9-3.244-2.952-4.045-2.349s-.287,2.634,1.146,4.534,3.244,2.952,4.045,2.348S1290.763,1512.085,1289.329,1510.186Z" transform="translate(-1263.555 -1413.507)" fill="#fbfbfb"/>
        <path id="Trazado_1043496" data-name="Trazado 1043496" d="M1273.757,1512.226c1.811-2.064,2.575-4.357,1.7-5.119a.929.929,0,0,0-.275-.145c-.99,2.177-1.985,4.429-2.971,6.713A10.979,10.979,0,0,0,1273.757,1512.226Z" transform="translate(-1255.345 -1413.051)" fill="#fbfbfb"/>
        <path id="Trazado_1043497" data-name="Trazado 1043497" d="M1403.065,1481.91a6.739,6.739,0,0,0-.115,3.815c.035.164.073.323.115.48Z" transform="translate(-1339.778 -1396.845)" fill="#fbfbfb"/>
        <path id="Trazado_1043498" data-name="Trazado 1043498" d="M1392.985,1506.672a9.268,9.268,0,0,0,3.515-.867v-2.837a7.7,7.7,0,0,0-2.424-.482c-.387,1.179-.884,2.613-1.487,4.2C1392.716,1506.686,1392.851,1506.683,1392.985,1506.672Z" transform="translate(-1333.212 -1410.155)" fill="#fbfbfb"/>
        <path id="Trazado_1043499" data-name="Trazado 1043499" d="M1385.035,1502.437c-.309,0-.626,0-.951.023-2.74.179-4.9,1.26-4.825,2.414.068,1.036,1.916,1.776,4.275,1.787C1384.141,1505.068,1384.643,1503.627,1385.035,1502.437Z" transform="translate(-1324.587 -1410.123)" fill="#fbfbfb"/>
        <path id="Trazado_1043500" data-name="Trazado 1043500" d="M1534.021,1515.582c-.733.945.492,3.123,2.736,4.865s4.659,2.387,5.392,1.442-.492-3.123-2.737-4.864S1534.755,1514.635,1534.021,1515.582Z" transform="translate(-1424.563 -1418.344)" fill="#fbfbfb"/>
        <path id="Trazado_1043501" data-name="Trazado 1043501" d="M1522.344,1519.519c.992-1.415,1.313-2.9.716-3.319s-1.883.392-2.875,1.807-1.312,2.9-.717,3.319S1521.352,1520.935,1522.344,1519.519Z" transform="translate(-1415.093 -1418.956)" fill="#fbfbfb"/>
        <path id="Trazado_1043502" data-name="Trazado 1043502" d="M1513.874,1507.108c2.357.33,4.381-.207,4.52-1.2s-1.659-2.065-4.016-2.4a9.3,9.3,0,0,0-1.938-.07v3.353A9.867,9.867,0,0,0,1513.874,1507.108Z" transform="translate(-1410.74 -1410.76)" fill="#fbfbfb"/>
        <path id="Trazado_1043503" data-name="Trazado 1043503" d="M1541.556,1506.905c2.329-.494,4.048-1.689,3.84-2.669s-2.264-1.375-4.592-.881-4.048,1.689-3.84,2.669S1539.229,1507.4,1541.556,1506.905Z" transform="translate(-1426.593 -1410.579)" fill="#fbfbfb"/>
        <path id="Trazado_1043504" data-name="Trazado 1043504" d="M1528.61,1489.6c1.154-.076,1.944-2.359,1.764-5.1s-1.26-4.9-2.414-4.825-1.945,2.358-1.766,5.1S1527.455,1489.669,1528.61,1489.6Z" transform="translate(-1419.621 -1395.395)" fill="#fbfbfb"/>
        <path id="Trazado_1043505" data-name="Trazado 1043505" d="M1650.7,1514.767c-1.187.15-1.86,2.557-1.5,5.375s1.606,4.982,2.793,4.832,1.86-2.556,1.5-5.375S1651.887,1514.618,1650.7,1514.767Z" transform="translate(-1499.143 -1418.095)" fill="#fbfbfb"/>
        <path id="Trazado_1043506" data-name="Trazado 1043506" d="M1633.154,1511.319c.126.717,1.608,1.054,3.31.755s2.979-1.124,2.853-1.84-1.609-1.055-3.31-.755S1633.027,1510.6,1633.154,1511.319Z" transform="translate(-1488.821 -1414.608)" fill="#fbfbfb"/>
        <path id="Trazado_1043507" data-name="Trazado 1043507" d="M1644,1494.071c.8-.6.286-2.633-1.146-4.533s-3.244-2.952-4.045-2.349-.287,2.634,1.147,4.534S1643.2,1494.675,1644,1494.071Z" transform="translate(-1492.24 -1400.15)" fill="#fbfbfb"/>
        <path id="Trazado_1043508" data-name="Trazado 1043508" d="M1661.427,1516.064c2,1.3,4.057,1.668,4.6.827s-.629-2.573-2.625-3.871-4.057-1.668-4.6-.827S1659.432,1514.768,1661.427,1516.064Z" transform="translate(-1505.332 -1416.144)" fill="#fbfbfb"/>
        <path id="Trazado_1043509" data-name="Trazado 1043509" d="M1659.808,1488.5c-1.811,2.065-2.575,4.357-1.7,5.12s3.042-.294,4.853-2.358a9.139,9.139,0,0,0,1.883-3.152l0-.006q-.542-1.125-1.074-2.2h0A7.1,7.1,0,0,0,1659.808,1488.5Z" transform="translate(-1504.734 -1399.429)" fill="#fbfbfb"/>
        <path id="Trazado_1043510" data-name="Trazado 1043510" d="M1347.565,1550.1c-.494-2.329-1.689-4.048-2.669-3.841s-1.376,2.265-.882,4.593a9.567,9.567,0,0,0,.506,1.654l3.055-2.344C1347.572,1550.146,1347.569,1550.125,1347.565,1550.1Z" transform="translate(-1301.652 -1438.463)" fill="#fbfbfb"/>
        <path id="Trazado_1043511" data-name="Trazado 1043511" d="M1325.157,1569.057c-2.741.179-4.9,1.261-4.825,2.414.039.6.676,1.1,1.659,1.417l4.96-3.806A11.6,11.6,0,0,0,1325.157,1569.057Z" transform="translate(-1286.469 -1453.203)" fill="#fbfbfb"/>
        <path id="Trazado_1043512" data-name="Trazado 1043512" d="M1591.768,1581.366c-1.187.15-1.861,2.557-1.505,5.376s1.607,4.982,2.794,4.832,1.86-2.556,1.5-5.375S1592.955,1581.214,1591.768,1581.366Z" transform="translate(-1461.021 -1461.176)" fill="#fbfbfb"/>
        <path id="Trazado_1043513" data-name="Trazado 1043513" d="M1577.539,1578.666c1.7-.3,2.979-1.123,2.853-1.84s-1.609-1.055-3.311-.755-2.979,1.123-2.854,1.84S1575.837,1578.966,1577.539,1578.666Z" transform="translate(-1450.703 -1457.685)" fill="#fbfbfb"/>
        <path id="Trazado_1043514" data-name="Trazado 1043514" d="M1583.929,1556.126c-1.434-1.9-3.244-2.952-4.045-2.349s-.287,2.633,1.147,4.534,3.244,2.952,4.045,2.349S1585.359,1558.029,1583.929,1556.126Z" transform="translate(-1454.124 -1443.224)" fill="#fbfbfb"/>
        <path id="Trazado_1043515" data-name="Trazado 1043515" d="M1604.473,1579.619c-2-1.3-4.057-1.669-4.6-.828s.628,2.573,2.625,3.871,4.057,1.668,4.6.827S1606.472,1580.915,1604.473,1579.619Z" transform="translate(-1467.21 -1459.224)" fill="#fbfbfb"/>
        <path id="Trazado_1043516" data-name="Trazado 1043516" d="M1599.183,1560.2c.869.763,3.042-.294,4.853-2.358s2.574-4.357,1.7-5.12-3.042.293-4.853,2.358S1598.314,1559.435,1599.183,1560.2Z" transform="translate(-1466.62 -1442.49)" fill="#fbfbfb"/>
        <path id="Trazado_1043517" data-name="Trazado 1043517" d="M1703.062,1551.453l.011.01q-.9-2.223-1.841-4.5l-.005,0a.932.932,0,0,0-.228.183C1700.343,1548,1701.257,1549.828,1703.062,1551.453Z" transform="translate(-1532.577 -1438.929)" fill="#fbfbfb"/>
        <path id="Trazado_1043518" data-name="Trazado 1043518" d="M1731.62,1574.571a7.476,7.476,0,0,0,3.275,1.171,9.917,9.917,0,0,0,1.066.086h.006c-.014-.012-.028-.021-.042-.034-.123-.106-.245-.2-.368-.3-.044-.033-.087-.068-.131-.1-.132-.093-.264-.179-.4-.257l-.1-.062q-.214-.12-.431-.214c-.026-.011-.051-.023-.078-.034a4.47,4.47,0,0,0-.469-.165l-.049-.014a4.453,4.453,0,0,0-.512-.112l-.015,0A5.473,5.473,0,0,0,1731.62,1574.571Z" transform="translate(-1552.522 -1456.729)" fill="#fbfbfb"/>
        <path id="Trazado_1043519" data-name="Trazado 1043519" d="M1697.909,1570.419c.207.98,2.264,1.375,4.592.882a10.127,10.127,0,0,0,1.151-.318l.006,0q-.647-1.636-1.325-3.33h-.007c-.191.029-.381.056-.577.1C1699.42,1568.244,1697.7,1569.437,1697.909,1570.419Z" transform="translate(-1530.704 -1452.309)" fill="#fbfbfb"/>
        <path id="Trazado_1043520" data-name="Trazado 1043520" d="M1723.112,1584.832c1.154-.076,1.945-2.359,1.766-5.1a7.61,7.61,0,0,0-1.393-4.305,17.335,17.335,0,0,0-2.358.911,9.161,9.161,0,0,0-.428,3.668C1720.877,1582.745,1721.957,1584.906,1723.112,1584.832Z" transform="translate(-1545.441 -1457.339)" fill="#fbfbfb"/>
        <path id="Trazado_1043521" data-name="Trazado 1043521" d="M1279.963,1600.577c-1.174.148-1.844,2.508-1.514,5.288l3.736-2.867C1281.623,1601.459,1280.779,1600.474,1279.963,1600.577Z" transform="translate(-1259.323 -1473.603)" fill="#fbfbfb"/>
        <path id="Trazado_1043522" data-name="Trazado 1043522" d="M1260.417,1617.14c-.331.51-.022,1.347.711,2.217a7.8,7.8,0,0,0,.922.907,13.18,13.18,0,0,1,2.589-2.343l.132-.1C1262.854,1616.649,1260.94,1616.335,1260.417,1617.14Z" transform="translate(-1247.627 -1484.033)" fill="#fbfbfb"/>
        <path id="Trazado_1043523" data-name="Trazado 1043523" d="M1417.579,1616.949a11.886,11.886,0,0,0-.962,1.094c-1.741,2.245-2.387,4.658-1.443,5.392s3.123-.492,4.865-2.736a8.811,8.811,0,0,0,1.821-3.75h-4.281Z" transform="translate(-1347.54 -1484.198)" fill="#fbfbfb"/>
        <path id="Trazado_1043524" data-name="Trazado 1043524" d="M1417.6,1641.866c1.415.991,2.9,1.313,3.319.717s-.391-1.884-1.807-2.875-2.9-1.312-3.319-.716S1416.188,1640.877,1417.6,1641.866Z" transform="translate(-1348.152 -1498.264)" fill="#fbfbfb"/>
        <path id="Trazado_1043525" data-name="Trazado 1043525" d="M1406.687,1644.936c.33-2.357-.207-4.381-1.2-4.52s-2.065,1.659-2.4,4.017.207,4.381,1.2,4.52S1406.359,1647.295,1406.687,1644.936Z" transform="translate(-1339.943 -1499.374)" fill="#fbfbfb"/>
        <path id="Trazado_1043526" data-name="Trazado 1043526" d="M1403.25,1610.08a5.912,5.912,0,0,0-.3,4.161c.494,2.329,1.689,4.047,2.669,3.84s1.376-2.265.881-4.593a10.014,10.014,0,0,0-.273-1.015A3.481,3.481,0,0,1,1403.25,1610.08Z" transform="translate(-1339.776 -1479.755)" fill="#fbfbfb"/>
        <path id="Trazado_1043527" data-name="Trazado 1043527" d="M1384.364,1635.788c2.74-.179,4.9-1.261,4.825-2.415s-2.359-1.944-5.1-1.765-4.9,1.261-4.825,2.415S1381.62,1635.968,1384.364,1635.788Z" transform="translate(-1324.591 -1493.665)" fill="#fbfbfb"/>
        <path id="Trazado_1043528" data-name="Trazado 1043528" d="M1542.151,1651.04c.733-.945-.492-3.124-2.737-4.865s-4.658-2.387-5.391-1.442.491,3.124,2.736,4.865S1541.42,1651.983,1542.151,1651.04Z" transform="translate(-1424.564 -1501.89)" fill="#fbfbfb"/>
        <path id="Trazado_1043529" data-name="Trazado 1043529" d="M1520.189,1647.158c-.992,1.415-1.313,2.9-.717,3.319s1.884-.392,2.875-1.807,1.313-2.9.716-3.319S1521.181,1645.742,1520.189,1647.158Z" transform="translate(-1415.095 -1502.5)" fill="#fbfbfb"/>
        <path id="Trazado_1043530" data-name="Trazado 1043530" d="M1509.129,1636.247c2.357.331,4.381-.207,4.52-1.2s-1.659-2.065-4.016-2.4-4.381.207-4.52,1.2S1506.773,1635.915,1509.129,1636.247Z" transform="translate(-1405.995 -1494.294)" fill="#fbfbfb"/>
        <path id="Trazado_1043531" data-name="Trazado 1043531" d="M1541.556,1636.056c2.329-.494,4.048-1.689,3.84-2.669s-2.264-1.375-4.592-.881-4.048,1.689-3.84,2.669S1539.229,1636.551,1541.556,1636.056Z" transform="translate(-1426.593 -1494.124)" fill="#fbfbfb"/>
        <path id="Trazado_1043532" data-name="Trazado 1043532" d="M1530.367,1613.647c-.179-2.74-1.26-4.9-2.414-4.825s-1.945,2.359-1.765,5.1,1.26,4.9,2.414,4.825S1530.547,1616.387,1530.367,1613.647Z" transform="translate(-1419.617 -1478.94)" fill="#fbfbfb"/>
        <path id="Trazado_1043533" data-name="Trazado 1043533" d="M1653.494,1648.755c-.356-2.818-1.606-4.982-2.793-4.832s-1.86,2.556-1.5,5.375,1.606,4.982,2.793,4.832S1653.851,1651.573,1653.494,1648.755Z" transform="translate(-1499.143 -1501.642)" fill="#fbfbfb"/>
        <path id="Trazado_1043534" data-name="Trazado 1043534" d="M1636.47,1641.225c1.7-.3,2.979-1.124,2.854-1.841s-1.609-1.055-3.31-.755-2.98,1.124-2.854,1.84S1634.769,1641.525,1636.47,1641.225Z" transform="translate(-1488.826 -1498.152)" fill="#fbfbfb"/>
        <path id="Trazado_1043535" data-name="Trazado 1043535" d="M1638.808,1616.338c-.8.6-.287,2.634,1.147,4.534s3.244,2.952,4.044,2.349.286-2.634-1.146-4.534S1639.61,1615.734,1638.808,1616.338Z" transform="translate(-1492.24 -1483.693)" fill="#fbfbfb"/>
        <path id="Trazado_1043536" data-name="Trazado 1043536" d="M1663.4,1642.179c-2-1.3-4.057-1.669-4.6-.828s.629,2.573,2.624,3.871,4.057,1.668,4.6.828S1665.4,1643.475,1663.4,1642.179Z" transform="translate(-1505.331 -1499.692)" fill="#fbfbfb"/>
        <path id="Trazado_1043537" data-name="Trazado 1043537" d="M1662.961,1620.4c1.811-2.065,2.575-4.356,1.706-5.119s-3.043.293-4.854,2.358-2.575,4.356-1.705,5.119S1661.149,1622.464,1662.961,1620.4Z" transform="translate(-1504.736 -1482.958)" fill="#fbfbfb"/>
        <path id="Trazado_1043538" data-name="Trazado 1043538" d="M1761.114,1609.841c-.149-.315-.293-.615-.437-.917l-.007,0a1.161,1.161,0,0,0-.749.394c-.733.945.493,3.123,2.737,4.864.226.176.455.333.683.485l.012.008C1762.717,1613.231,1761.965,1611.635,1761.114,1609.841Z" transform="translate(-1570.692 -1479.008)" fill="#fbfbfb"/>
        <path id="Trazado_1043539" data-name="Trazado 1043539" d="M1762.707,1631.337c-.124-.353-.26-.716-.405-1.088-.042-.108-.074-.207-.118-.317h-.008a9.692,9.692,0,0,0-1.5.194c-2.329.494-4.048,1.689-3.84,2.669s2.264,1.375,4.593.882a9.437,9.437,0,0,0,1.819-.578l.007,0c-.022-.085-.056-.178-.08-.264q-.133-.485-.3-1c-.014-.044-.024-.084-.039-.128h0C1762.8,1631.588,1762.75,1631.464,1762.707,1631.337Z" transform="translate(-1568.824 -1492.597)" fill="#fbfbfb"/>
        <path id="Trazado_1043540" data-name="Trazado 1043540" d="M1225.45,1667.43a18.267,18.267,0,0,0,2.359,6.126,11.71,11.71,0,0,0-.092-1.379C1227.417,1669.775,1226.46,1667.854,1225.45,1667.43Z" transform="translate(-1225.093 -1516.854)" fill="#fbfbfb"/>
        <path id="Trazado_1043541" data-name="Trazado 1043541" d="M1239.27,1693.631a16.114,16.114,0,0,0,2.315,1.888c.547-.34.859-.736.794-1.106C1242.258,1693.726,1240.884,1693.394,1239.27,1693.631Z" transform="translate(-1234.033 -1533.753)" fill="#fbfbfb"/>
        <path id="Trazado_1043542" data-name="Trazado 1043542" d="M1469.034,1675.416c-1.07.07-1.825,2.039-1.787,4.51q2.063.059,4.182.08C1471.2,1677.38,1470.153,1675.342,1469.034,1675.416Z" transform="translate(-1381.505 -1522.018)" fill="#fbfbfb"/>
        <path id="Trazado_1043543" data-name="Trazado 1043543" d="M1709.131,1682.15c.733-.946-.491-3.123-2.736-4.865s-4.659-2.387-5.392-1.441.492,3.123,2.737,4.864S1708.4,1683.1,1709.131,1682.15Z" transform="translate(-1532.579 -1522.015)" fill="#fbfbfb"/>
        <path id="Trazado_1043544" data-name="Trazado 1043544" d="M1731.683,1679.759c-.6-.417-1.883.392-2.875,1.807-.959,1.369-1.283,2.794-.763,3.265l0,0,.141-.087c1.033-.663,2-1.29,2.923-1.9l0-.008C1731.984,1681.5,1732.245,1680.151,1731.683,1679.759Z" transform="translate(-1550.05 -1524.758)" fill="#fbfbfb"/>
        <path id="Trazado_1043545" data-name="Trazado 1043545" d="M1701.744,1696.693c-2.329.494-4.048,1.689-3.84,2.669a1,1,0,0,0,.463.608h0l.012,0q.518-.06,1.034-.154c.07-.013.14-.029.21-.043q.385-.075.768-.169c.119-.029.239-.061.358-.094.207-.056.413-.118.618-.182.133-.042.266-.083.4-.129.208-.072.416-.152.622-.233.1-.041.211-.075.315-.118.178-.074.35-.158.524-.238.1-.048.213-.094.316-.144l.054-.024.045-.02q.558-.226,1.158-.512l.034-.015q.637-.3,1.323-.674C1705.583,1696.51,1703.768,1696.266,1701.744,1696.693Z" transform="translate(-1530.702 -1535.647)" fill="#fbfbfb"/>
        <path id="Trazado_1043546" data-name="Trazado 1043546" d="M1709,1580.583a11.809,11.809,0,0,0-3.494,7.968v.141a.2.2,0,1,0,.4-.01v-.131a10.551,10.551,0,0,1,1.685-5.555,12.415,12.415,0,0,1,1.16-1.571c.158-.181.289-.32.38-.413s.14-.138.14-.138a.19.19,0,0,0,.03-.232c-.008-.015-.006-.035-.018-.048a.188.188,0,0,0-.214-.036c-.025.011-.05.007-.068.025Z" transform="translate(-1535.629 -1460.647)" fill="#74160d"/>
        <path id="Trazado_1043547" data-name="Trazado 1043547" d="M1611.044,1535.473a82.69,82.69,0,0,0,3.059-21.623c0-8.517-1.637-17.933-7.344-24.97a.2.2,0,1,0-.309.251c5.621,6.924,7.256,16.25,7.255,24.719a80.961,80.961,0,0,1-1.522,15.1c-.381,1.966-.761,3.57-1.046,4.682-.143.556-.261.989-.344,1.282s-.13.446-.13.447a.2.2,0,0,0,.132.249c.007,0,.014,0,.021,0a.183.183,0,0,0,.17-.06c.021-.02.05-.038.057-.07Z" transform="translate(-1471.525 -1401.306)" fill="#74160d"/>
        <path id="Trazado_1043548" data-name="Trazado 1043548" d="M1383.32,1506.442c1.045-2.224,1.936-4.388,2.669-6.321.6-1.591,1.1-3.024,1.487-4.2.673-2.05,1.016-3.333,1.017-3.336a.2.2,0,0,0-.384-.1h0s-.132.494-.395,1.363c-.165.547-.385,1.249-.653,2.061-.392,1.19-.893,2.629-1.5,4.224-.852,2.235-1.912,4.768-3.175,7.337C1382.7,1507.12,1383.009,1506.777,1383.32,1506.442Z" transform="translate(-1326.612 -1403.587)" fill="#74160d"/>
        <path id="Trazado_1043549" data-name="Trazado 1043549" d="M1510.139,1425.031c-1.087,1.044-2.118,1.948-3.057,2.721a3.467,3.467,0,0,1,.371.208,56.393,56.393,0,0,0,16.371-22.642c0-.011,0-.021,0-.033a.193.193,0,0,0-.112-.225.2.2,0,0,0-.257.112l-.025.061A56.1,56.1,0,0,1,1510.139,1425.031Z" transform="translate(-1407.274 -1347.124)" fill="#74160d"/>
        <path id="Trazado_1043550" data-name="Trazado 1043550" d="M1439.222,1424.25c.726.628,1.48,1.246,2.253,1.852h.638q-1.388-1.07-2.675-2.191c-.658-.57-1.291-1.148-1.91-1.73q-1.055-.992-2.033-2c-1.141-1.167-2.205-2.337-3.191-3.487-1.077-1.258-2.067-2.492-2.957-3.671a76.032,76.032,0,0,1-4.684-6.957c-.523-.88-.915-1.589-1.177-2.077-.189-.352-.306-.583-.359-.687l-.033-.066a.2.2,0,0,0-.266-.091.188.188,0,0,0-.095.2c0,.023-.006.046,0,.068h0a72.081,72.081,0,0,0,9.163,13.422c.921,1.08,1.911,2.178,2.97,3.277q1.147,1.19,2.4,2.37C1437.9,1423.077,1438.551,1423.667,1439.222,1424.25Z" transform="translate(-1352.71 -1345.884)" fill="#74160d"/>
        <path id="Trazado_1043551" data-name="Trazado 1043551" d="M1488.7,1481.5a2.529,2.529,0,0,0-2.527,2.526v4.53a2.527,2.527,0,1,0,5.053,0v-4.53A2.529,2.529,0,0,0,1488.7,1481.5Zm0,8.041a1.492,1.492,0,1,1,1.493-1.492A1.492,1.492,0,0,1,1488.7,1489.541Zm0-3.892a1.493,1.493,0,1,1,1.493-1.493A1.492,1.492,0,0,1,1488.7,1485.649Z" transform="translate(-1393.75 -1396.58)" fill="#383851"/>
        <path id="Trazado_1043552" data-name="Trazado 1043552" d="M1438.568,1468.18h-31.406a3.5,3.5,0,0,0-3.5,3.5v12.587c3.618-3.24,6.342-4.969,7.12-4.29.871.758-.907,4.341-4.3,9.12,6.527.326,11.41,1.63,11.41,3.191,0,1.013-2.053,1.917-5.276,2.517,0,0,0,0,0,0a.187.187,0,0,1-.068.081c4.186.5,7.088,1.557,7.088,2.79,0,.824-1.3,1.57-3.4,2.123a.19.19,0,0,1,.006.117l0,0c1.44.5,2.295,1.121,2.295,1.787,0,.819-1.286,1.561-3.37,2.115l.056.026h0a.2.2,0,0,1,.08.27c-.013.023-.038.03-.057.046,1.1.461,1.738,1,1.738,1.573,0,1.706-5.542,3.089-12.378,3.089h-.442l-.5.552v7.828a3.551,3.551,0,0,0,3.163,3.469c.114.011.224.034.341.034h31.407a3.5,3.5,0,0,0,3.5-3.5v-45.527a3.5,3.5,0,0,0-1.522-2.886,3.454,3.454,0,0,0-.371-.208A3.488,3.488,0,0,0,1438.568,1468.18Zm-.321,11.759a2.924,2.924,0,1,1-5.848,0v-4.53a2.924,2.924,0,1,1,5.848,0Z" transform="translate(-1340.371 -1387.964)" fill="#383851"/>
        <path id="Trazado_1043553" data-name="Trazado 1043553" d="M1487.973,1480.37a2.924,2.924,0,0,0-2.924,2.924v4.529a2.924,2.924,0,1,0,5.848,0v-4.529A2.926,2.926,0,0,0,1487.973,1480.37Zm2.528,7.455a2.527,2.527,0,0,1-5.053,0v-4.53a2.527,2.527,0,0,1,5.053,0Z" transform="translate(-1393.022 -1395.849)" fill="#fff"/>
        <path id="Trazado_1043554" data-name="Trazado 1043554" d="M1490.6,1484.79a1.493,1.493,0,1,0,1.493,1.493A1.493,1.493,0,0,0,1490.6,1484.79Z" transform="translate(-1395.645 -1398.708)" fill="#fff"/>
        <path id="Trazado_1043555" data-name="Trazado 1043555" d="M1490.6,1495.82a1.492,1.492,0,1,0,1.493,1.493A1.493,1.493,0,0,0,1490.6,1495.82Z" transform="translate(-1395.645 -1405.843)" fill="#fff"/>
        <path id="Trazado_1043556" data-name="Trazado 1043556" d="M1295.887,1577.729c-.047,0-.092.007-.14.007a4.807,4.807,0,0,1-4.731-5.717l-4.4-5.154-1.062.815-4.96,3.806-12.658,9.712-3.736,2.867-1.984,1.523-.132.1a13.179,13.179,0,0,0,13.608,22.528,13.018,13.018,0,0,0,1.453-.9,13.31,13.31,0,0,0,1.31-1.059l11.338-12.528,10.162-11.229Z" transform="translate(-1245.075 -1451.801)" fill="#f2935a"/>
        <path id="Trazado_1043557" data-name="Trazado 1043557" d="M1373.2,1530.183c6.836,0,12.378-1.383,12.378-3.089,0-.575-.641-1.112-1.738-1.573a.188.188,0,0,1-.213.034h0l-.022-.011-.109-.045a5.033,5.033,0,0,0-.521-.159,16.6,16.6,0,0,0-2.6-.4.2.2,0,1,1,.035-.4,11.336,11.336,0,0,1,3.356.638c2.084-.553,3.37-1.3,3.37-2.115,0-.667-.855-1.283-2.3-1.787a.2.2,0,0,1-.252.119s-.118-.042-.34-.11-.546-.162-.949-.263a21.244,21.244,0,0,0-3.21-.547.2.2,0,0,1,.036-.4,20.734,20.734,0,0,1,4.6.942h0a.187.187,0,0,1,.114.137c2.105-.554,3.4-1.3,3.4-2.123,0-1.233-2.9-2.295-7.088-2.79a.187.187,0,0,1-.182.05l-.017,0-.076-.019c-.073-.016-.192-.04-.372-.068-.359-.057-.959-.133-1.912-.2a.2.2,0,0,1,.03-.4,13.629,13.629,0,0,1,2.466.313h0a.2.2,0,0,1,.13.247c3.222-.6,5.276-1.5,5.276-2.517,0-1.561-4.883-2.865-11.41-3.191,3.39-4.778,5.167-8.362,4.3-9.12-.778-.678-3.5,1.05-7.12,4.29-1.982,1.776-4.231,4.005-6.58,6.547q-.464.5-.934,1.022c-.258.285-.516.575-.776.867l-8.848,6.789,4.086,4.79c.144-.013.29-.022.437-.022a4.8,4.8,0,0,1,4.664,6l3.468,4.067,4.482-4.952.5-.552h.442Z" transform="translate(-1308.976 -1409.314)" fill="#f2935a"/>
        <path id="Trazado_1043558" data-name="Trazado 1043558" d="M1430.123,1555.623h0a20.706,20.706,0,0,0-4.6-.942.2.2,0,0,0-.036.4,21.2,21.2,0,0,1,3.209.547c.4.1.727.195.949.263s.339.11.34.11a.2.2,0,0,0,.252-.119l0,0a.233.233,0,0,0-.12-.254Z" transform="translate(-1354.378 -1443.918)" fill="#74160d"/>
        <path id="Trazado_1043559" data-name="Trazado 1043559" d="M1426.333,1567.318a.2.2,0,0,0-.035.4,16.639,16.639,0,0,1,2.6.4,4.945,4.945,0,0,1,.521.16l.109.045.022.011h0a.187.187,0,0,0,.213-.033c.019-.016.044-.023.057-.046a.2.2,0,0,0-.08-.27h0l-.055-.026A11.242,11.242,0,0,0,1426.333,1567.318Z" transform="translate(-1354.9 -1452.093)" fill="#74160d"/>
        <path id="Trazado_1043560" data-name="Trazado 1043560" d="M1423.751,1542.315h0a13.693,13.693,0,0,0-2.465-.313.2.2,0,1,0-.03.4c.952.072,1.552.148,1.911.2.18.029.3.052.372.068l.076.018.016,0a.247.247,0,0,0,.249-.13s0,0,0,0A.2.2,0,0,0,1423.751,1542.315Z" transform="translate(-1351.637 -1435.717)" fill="#74160d"/>
        <path id="Trazado_1043561" data-name="Trazado 1043561" d="M1368.33,1590.991l4.073,4.775h0l3.921-4.332h0l-3.469-4.067A4.811,4.811,0,0,1,1368.33,1590.991Z" transform="translate(-1317.519 -1465.063)" fill="#74160d"/>
        <path id="Trazado_1043562" data-name="Trazado 1043562" d="M1350.782,1561.655l-4.086-4.79h0l-.225.172-3.055,2.344-1.324,1.016h0l4.4,5.154A4.811,4.811,0,0,1,1350.782,1561.655Z" transform="translate(-1300.546 -1445.332)" fill="#74160d"/>
        <path id="Trazado_1043563" data-name="Trazado 1043563" d="M1363.771,1576.371a4.8,4.8,0,0,0-4.664-6c-.147,0-.293.009-.437.022a4.817,4.817,0,0,0,.438,9.613c.048,0,.093-.006.14-.007A4.81,4.81,0,0,0,1363.771,1576.371Z" transform="translate(-1308.436 -1454.066)" fill="#fff"/>
      </g>
    </g>
  </g>
</svg>
