<svg xmlns="http://www.w3.org/2000/svg" xmlns:xlink="http://www.w3.org/1999/xlink" width="118" height="118" viewBox="0 0 118 118">
  <defs>
    <filter id="Trazado_982547" x="0" y="0" width="118" height="118" filterUnits="userSpaceOnUse">
      <feOffset dy="3" input="SourceAlpha"/>
      <feGaussianBlur stdDeviation="3" result="blur"/>
      <feFlood flood-opacity="0.161"/>
      <feComposite operator="in" in2="blur"/>
      <feComposite in="SourceGraphic"/>
    </filter>
  </defs>
  <g id="Grupo_1183554" data-name="Grupo 1183554" transform="translate(-258 -1926.64)">
    <g id="Grupo_1182568" data-name="Grupo 1182568" transform="translate(-11 -7731.688)">
      <g id="Grupo_1176356" data-name="Grupo 1176356" transform="translate(278 9664.328)">
        <g id="Grupo_1172970" data-name="Grupo 1172970" transform="translate(0)">
          <g id="Grupo_1171971" data-name="Grupo 1171971">
            <g id="Grupo_1167337" data-name="Grupo 1167337">
              <g id="Grupo_1166720" data-name="Grupo 1166720">
                <g id="Grupo_1164305" data-name="Grupo 1164305">
                  <g id="Grupo_1163948" data-name="Grupo 1163948">
                    <g id="Grupo_1158168" data-name="Grupo 1158168">
                      <g id="Grupo_1152576" data-name="Grupo 1152576">
                        <g id="Grupo_1148633" data-name="Grupo 1148633">
                          <g id="Grupo_1148525" data-name="Grupo 1148525">
                            <g transform="matrix(1, 0, 0, 1, -9, -6)" filter="url(#Trazado_982547)">
                              <g id="Trazado_982547-2" data-name="Trazado 982547" transform="translate(9 6)" fill="#f2f7f5">
                                <path d="M 50 98.5 C 43.45188522338867 98.5 37.10042953491211 97.21787261962891 31.12207221984863 94.68923950195312 C 25.34691429138184 92.24655914306641 20.15995788574219 88.74932861328125 15.70532894134521 84.29468536376953 C 11.2506856918335 79.84004211425781 7.753442764282227 74.65309906005859 5.310757160186768 68.87794494628906 C 2.782128572463989 62.89958572387695 1.5 56.54813003540039 1.5 50 C 1.5 43.45188522338867 2.782128572463989 37.10042953491211 5.310757160186768 31.12207221984863 C 7.753442764282227 25.34691429138184 11.2506856918335 20.15997123718262 15.70532894134521 15.70532894134521 C 20.15997123718262 11.2506856918335 25.34691429138184 7.753442764282227 31.12207221984863 5.310757160186768 C 37.10042953491211 2.782128572463989 43.45188522338867 1.5 50 1.5 C 56.54813003540039 1.5 62.89958572387695 2.782128572463989 68.87794494628906 5.310757160186768 C 74.65309906005859 7.753442764282227 79.84004211425781 11.2506856918335 84.29468536376953 15.70532894134521 C 88.74932861328125 20.15995788574219 92.24655914306641 25.34691429138184 94.68923950195312 31.12207221984863 C 97.21787261962891 37.10042953491211 98.5 43.45188522338867 98.5 50 C 98.5 56.54813003540039 97.21787261962891 62.89958572387695 94.68923950195312 68.87794494628906 C 92.24655914306641 74.65309906005859 88.74932861328125 79.84004211425781 84.29468536376953 84.29468536376953 C 79.84004211425781 88.74932861328125 74.65309906005859 92.24655914306641 68.87794494628906 94.68923950195312 C 62.89958572387695 97.21787261962891 56.54813003540039 98.5 50 98.5 Z" stroke="none"/>
                                <path d="M 50 3 C 43.65372467041016 3 37.49886322021484 4.242263793945312 31.70639801025391 6.6922607421875 C 26.11003112792969 9.059326171875 21.08335113525391 12.44861602783203 16.76598358154297 16.76598358154297 C 12.44861602783203 21.08335113525391 9.059326171875 26.11003112792969 6.6922607421875 31.70639801025391 C 4.242263793945312 37.49886322021484 3 43.65372467041016 3 50 C 3 56.34629058837891 4.242263793945312 62.50115203857422 6.6922607421875 68.29361724853516 C 9.059326171875 73.88998413085938 12.44861602783203 78.91666412353516 16.76598358154297 83.23403167724609 C 21.08335113525391 87.55138397216797 26.11003112792969 90.940673828125 31.70639801025391 93.3077392578125 C 37.49886322021484 95.75773620605469 43.65372467041016 97 50 97 C 56.34629058837891 97 62.50115203857422 95.75773620605469 68.29361724853516 93.3077392578125 C 73.88998413085938 90.940673828125 78.91666412353516 87.55138397216797 83.23403167724609 83.23403167724609 C 87.55138397216797 78.91666412353516 90.940673828125 73.88998413085938 93.3077392578125 68.29361724853516 C 95.75773620605469 62.50115203857422 97 56.34629058837891 97 50 C 97 43.65372467041016 95.75773620605469 37.49886322021484 93.3077392578125 31.70639801025391 C 90.940673828125 26.11003112792969 87.55138397216797 21.08335113525391 83.23403167724609 16.76598358154297 C 78.91666412353516 12.44861602783203 73.88998413085938 9.059326171875 68.29361724853516 6.6922607421875 C 62.50115203857422 4.242263793945312 56.34629058837891 3 50 3 M 50 0 C 77.6142578125 0 100 22.38577270507812 100 50 C 100 77.6142578125 77.6142578125 100 50 100 C 22.38577270507812 100 0 77.6142578125 0 50 C 0 22.38577270507812 22.38577270507812 0 50 0 Z" stroke="none" fill="#4a665c"/>
                              </g>
                            </g>
                          </g>
                        </g>
                      </g>
                    </g>
                  </g>
                </g>
              </g>
            </g>
          </g>
        </g>
      </g>
    </g>
    <g id="idea-genial" transform="translate(282.744 1952.858)">
      <path id="Trazado_1045221" data-name="Trazado 1045221" d="M33.844,7.605c-14.491,0-26.239,10.127-26.239,22.619a20.568,20.568,0,0,0,5.237,13.561L9.7,54.244l9.314-5.356a29.119,29.119,0,0,0,14.826,3.956c14.492,0,26.24-10.127,26.24-22.619S48.336,7.606,33.844,7.606Zm0,0" transform="translate(-6.587 -6.588)" fill="#77f6fb"/>
      <path id="Trazado_1045222" data-name="Trazado 1045222" d="M156.123,113.3a21.308,21.308,0,0,0,8.567-16.719c0-12.493-11.748-22.619-26.239-22.619s-26.24,10.127-26.24,22.619S123.958,119.2,138.45,119.2a29.7,29.7,0,0,0,10.954-2.06l9.512,5.47Zm0,0" transform="translate(-97.195 -64.068)" fill="#fed563"/>
      <path id="Trazado_1045223" data-name="Trazado 1045223" d="M150.692,87.705a20.42,20.42,0,0,0-4.569-12.757,30.135,30.135,0,0,0-7.672-.983c-14.492,0-26.24,10.127-26.24,22.619a20.422,20.422,0,0,0,4.569,12.756,30.136,30.136,0,0,0,7.673.984C138.944,110.324,150.692,100.2,150.692,87.705Zm0,0" transform="translate(-97.196 -64.068)" fill="#fc315f"/>
      <path id="Trazado_1045224" data-name="Trazado 1045224" d="M204.331,127.2a8.6,8.6,0,0,1-4.026,7.289h-9.162a8.609,8.609,0,0,1,6.446-15.692l.186.043a8.609,8.609,0,0,1,6.557,8.361Zm0,0" transform="translate(-162.079 -102.728)" fill="#fcbb65"/>
      <path id="Trazado_1045225" data-name="Trazado 1045225" d="M230.851,128.8a8.6,8.6,0,0,1-4.026,7.289H221.76a8.609,8.609,0,0,1,2.535-15.649A8.609,8.609,0,0,1,230.851,128.8Zm0,0" transform="translate(-188.599 -104.321)" fill="#fed563"/>
      <path id="Trazado_1045226" data-name="Trazado 1045226" d="M219.036,238.194a2.257,2.257,0,0,1-2.257,2.257h-7.327a2.257,2.257,0,1,1,0-4.514h7.327A2.256,2.256,0,0,1,219.036,238.194Zm0,0" transform="translate(-179.47 -204.366)" fill="#d5e8ec"/>
      <path id="Trazado_1045227" data-name="Trazado 1045227" d="M227.615,271.921a2.256,2.256,0,0,1-2.256,2.257h-4.192a2.257,2.257,0,0,1,0-4.513h4.192A2.257,2.257,0,0,1,227.615,271.921Zm0,0" transform="translate(-189.618 -233.58)" fill="#d5e8ec"/>
      <path id="Trazado_1045228" data-name="Trazado 1045228" d="M198.763,120.62a9.624,9.624,0,1,0-15.863,7.33,3.272,3.272,0,0,0,1.243,5.011,3.276,3.276,0,0,0,2.9,4.8h4.192a3.272,3.272,0,0,0,2.9-4.795,3.271,3.271,0,0,0,1.243-5.013,9.57,9.57,0,0,0,3.387-7.331Zm-17.213,0a7.589,7.589,0,1,1,12.014,6.167,3.266,3.266,0,0,0-.762-.09h-2.646v-2.245a3.531,3.531,0,0,0,2.508-3.375,1.017,1.017,0,0,0-2.035,0,1.491,1.491,0,1,1-2.981,0,1.017,1.017,0,0,0-2.035,0,3.531,3.531,0,0,0,2.508,3.375V126.7h-2.645a3.283,3.283,0,0,0-.764.09,7.553,7.553,0,0,1-3.162-6.167Zm9.685,10.59h-5.76a1.239,1.239,0,1,1,0-2.478H192.8a1.239,1.239,0,1,1,0,2.478Zm.876,4.15a1.231,1.231,0,0,1-.876.363h-4.192a1.239,1.239,0,1,1,0-2.479h4.192a1.239,1.239,0,0,1,.876,2.115Zm0,0" transform="translate(-155.494 -96.144)"/>
      <path id="Trazado_1045229" data-name="Trazado 1045229" d="M60.1,49.6a22.3,22.3,0,0,0,8.413-17.081,22.03,22.03,0,0,0-8.039-16.765A28.145,28.145,0,0,0,49.516,9.981a25.236,25.236,0,0,0-3.041-3.109A29.34,29.34,0,0,0,27.257,0a30.583,30.583,0,0,0-13.42,3.057,1.017,1.017,0,1,0,.9,1.826A28.545,28.545,0,0,1,27.257,2.035,27.175,27.175,0,0,1,46.046,9.243a31.716,31.716,0,0,0-4.791-.363,29.339,29.339,0,0,0-19.219,6.872A22.03,22.03,0,0,0,14,32.517,21.17,21.17,0,0,0,17.056,43.4a26.612,26.612,0,0,1-4.107-1.973,1.018,1.018,0,0,0-1.026-.006L4.826,45.5l2.4-8.009a1.016,1.016,0,0,0-.207-.96A19.471,19.471,0,0,1,2.035,23.637c0-6.485,3.361-12.571,9.223-16.7a1.018,1.018,0,0,0-1.172-1.664C3.677,9.788,0,16.48,0,23.637a21.394,21.394,0,0,0,5.121,13.8L2.143,47.364a1.017,1.017,0,0,0,1.481,1.175l8.806-5.063A29.117,29.117,0,0,0,19,46.167q.75.92,1.6,1.78a28.554,28.554,0,0,0,16.229,7.9,1.018,1.018,0,1,0,.285-2.015,26.622,26.622,0,0,1-14.669-6.923,31.553,31.553,0,0,0,4.809.367A29.34,29.34,0,0,0,46.475,40.4a22.03,22.03,0,0,0,8.039-16.765,21.051,21.051,0,0,0-3.035-10.866c8.827,3.366,15,10.95,15,19.746A20.389,20.389,0,0,1,58.3,48.436a1.017,1.017,0,0,0-.346,1.092l2.058,6.86-7.3-4.195a1.017,1.017,0,0,0-.882-.064,28.559,28.559,0,0,1-10.578,1.989,1.017,1.017,0,1,0,0,2.035A30.632,30.632,0,0,0,52.122,54.2l9.091,5.227a1.017,1.017,0,0,0,1.481-1.175ZM52.479,23.637c0,11.911-11.314,21.6-25.222,21.6a29.175,29.175,0,0,1-7.079-.863,19.457,19.457,0,0,1-4.145-11.86c0-11.911,11.314-21.6,25.222-21.6a29.088,29.088,0,0,1,7.075.867,19.344,19.344,0,0,1,4.149,11.856Zm0,0"/>
    </g>
  </g>
</svg>
