<svg xmlns="http://www.w3.org/2000/svg" xmlns:xlink="http://www.w3.org/1999/xlink" width="400" height="325" viewBox="0 0 400 325">
  <defs>
    <clipPath id="clip-path">
      <rect id="Rectángulo_415909" data-name="Rectángulo 415909" width="400" height="325" transform="translate(180 2281)" fill="#fff" stroke="#707070" stroke-width="1" opacity="0.7"/>
    </clipPath>
    <clipPath id="clip-path-2">
      <rect id="Rectángulo_415908" data-name="Rectángulo 415908" width="442" height="442" transform="translate(0.113 0.113)" fill="none"/>
    </clipPath>
  </defs>
  <g id="Enmascarar_grupo_1098841" data-name="Enmascarar grupo 1098841" transform="translate(-180 -2281)" clip-path="url(#clip-path)">
    <g id="Grupo_1183559" data-name="Grupo 1183559" transform="translate(157.887 2227.887)">
      <g id="Grupo_1183558" data-name="Grupo 1183558" clip-path="url(#clip-path-2)">
        <path id="Trazado_1045230" data-name="Trazado 1045230" d="M421.457,377.481a21.45,21.45,0,0,1-6.086,12.148H48.057c-20.809-14.162-29.979-43.845-19.927-67.1,6.809-15.737,20.8-27.848,25.951-44.2,6.594-20.987-2.683-44.816,5.239-65.339,7.994-20.71,31.084-31.485,52.962-35.289s44.664-2.78,65.785-9.643c17.057-5.552,32.045-15.934,47.008-25.835s30.566-19.6,48.077-23.489,37.535-.945,50.225,11.735c26.557,26.53,8.351,77.576,34.122,104.862,9.811,10.391,24.079,14.972,36.858,21.37s25.576,16.717,26.931,30.941c1.372,14.463-9.581,27.545-10.017,42.062-.259,8.217,2.878,16.1,5.756,23.794s5.579,15.845,4.429,23.98" transform="translate(-2.783 -13.562)" fill="#f9e6c3"/>
        <path id="Trazado_1045231" data-name="Trazado 1045231" d="M390.718,399.344H74.922a49.013,49.013,0,0,1-12.191-27.928,49.537,49.537,0,0,1,23.7-45.85c11.986-7.058,28.739-11.585,31.564-27.287,1.319-7.343.063-14.874-.1-22.332s1.079-15.515,6.3-20.853c9.037-9.232,24.2-5.775,37.09-6.648,33.036-2.245,55.617-35.646,87.4-44.931a62.955,62.955,0,0,1,78.885,45.359c2.976,11.656-3.243,25.638,7.9,33.9,6.265,4.643,14.285,5.953,21.86,7.825s15.541,4.856,19.747,11.424c5.908,9.232,2.085,21.388-2.344,31.413s-9.419,21.325-5.337,31.493c3.172,7.922,11.05,12.841,16.058,19.756a29.009,29.009,0,0,1,5.266,14.66" transform="translate(-7.244 -23.279)" fill="#fdf6ea"/>
        <path id="Trazado_1045232" data-name="Trazado 1045232" d="M150.161,115.941l-1.6,9.052,31.685-22.931Z" transform="translate(-17.2 -11.816)" fill="#ef9d30"/>
        <path id="Trazado_1045233" data-name="Trazado 1045233" d="M152.559,119.3l-3.993,5.688,31.685-22.931Z" transform="translate(-17.2 -11.816)" fill="#ddae19"/>
        <path id="Trazado_1045234" data-name="Trazado 1045234" d="M180.774,102.061,153.082,119.3l6.511,12.078Z" transform="translate(-17.723 -11.816)" fill="#f1c830"/>
        <path id="Trazado_1045235" data-name="Trazado 1045235" d="M179.379,102.061,149.29,115.94l-8.254-7.337Z" transform="translate(-16.328 -11.816)" fill="#f1c830"/>
        <path id="Trazado_1045236" data-name="Trazado 1045236" d="M132.076,131.705c-19.8,10.889-34.022,36.821-22.312,58.57,1.674,3.347,7.529,5.02,11.712,1.674,3.346-3.347,3.346-10.039,0-13.385-10.875-11.712-28.441-11.712-42.662-7.528-6.692,2.509-13.384,5.019-18.4,10.038s-10.038,9.2-13.384,15.894c-.836,1.673-1.673,4.182-2.509,5.855-10.875,24.259-4.183,52.7,12.547,73.613,21.749,25.932,53.536,37.643,85.324,39.316,57.719,3.346,110.42-13.385,168.138-25.1,15.057-3.347,30.951-1.673,42.69,7.976" transform="translate(-4.541 -15.248)" fill="none" stroke="#10284f" stroke-linecap="round" stroke-miterlimit="10" stroke-width="1.833" stroke-dasharray="4.582 4.582"/>
        <path id="Trazado_1045237" data-name="Trazado 1045237" d="M294.79,275.447H235.522l45.264-41.407Z" transform="translate(-27.267 -27.096)" fill="#23396a"/>
        <path id="Trazado_1045238" data-name="Trazado 1045238" d="M291.2,241.905h-1.549l10.533,34.541h1.549Z" transform="translate(-33.534 -28.006)" fill="#10284f"/>
        <path id="Trazado_1045239" data-name="Trazado 1045239" d="M248.685,234.253h1.393l2.969-7.594h-1.393a1.083,1.083,0,0,0-.929.648l-2.462,6.3a.436.436,0,0,0,.422.648" transform="translate(-28.737 -26.241)" fill="#10284f"/>
        <path id="Trazado_1045240" data-name="Trazado 1045240" d="M291.064,215.255h-.677l-.314,1.043a3.5,3.5,0,0,0,.131.485H255.783a3.686,3.686,0,0,0-3.165,2.21l-20.065,51.32a1.487,1.487,0,0,0,1.438,2.21h36.36a3.685,3.685,0,0,0,3.165-2.21l20.065-51.32a2.08,2.08,0,0,0,.154-.878,3.226,3.226,0,0,0-2.67-2.86" transform="translate(-26.905 -24.921)" fill="#10284f"/>
        <path id="Trazado_1045241" data-name="Trazado 1045241" d="M246.7,232.525h1.393l2.969-7.594h-1.393a1.083,1.083,0,0,0-.929.648l-2.462,6.3a.436.436,0,0,0,.422.648" transform="translate(-28.507 -26.041)" fill="#10284f"/>
        <path id="Trazado_1045242" data-name="Trazado 1045242" d="M293.143,234.227H291.75l2.107-5.39h1.393a.436.436,0,0,1,.422.648l-1.6,4.094a1.08,1.08,0,0,1-.928.648" transform="translate(-33.777 -26.493)" fill="#10284f"/>
        <path id="Trazado_1045243" data-name="Trazado 1045243" d="M268.364,270.995H232a1.486,1.486,0,0,1-1.437-2.21l20.065-51.32a3.685,3.685,0,0,1,3.165-2.21h36.361a1.486,1.486,0,0,1,1.437,2.21l-20.065,51.32a3.685,3.685,0,0,1-3.165,2.21" transform="translate(-26.675 -24.921)" fill="#23396a"/>
        <path id="Trazado_1045244" data-name="Trazado 1045244" d="M268.843,269.735H233.1a.744.744,0,0,1-.719-1.106L252.171,218a1.845,1.845,0,0,1,1.584-1.105H289.5a.743.743,0,0,1,.719,1.105l-19.794,50.628a1.844,1.844,0,0,1-1.584,1.106" transform="translate(-26.894 -25.111)" fill="#e8f0ff"/>
        <path id="Trazado_1045245" data-name="Trazado 1045245" d="M279.077,219.871h-8.368a.591.591,0,0,1-.571-.879,1.465,1.465,0,0,1,1.259-.879h8.367a.591.591,0,0,1,.572.879,1.466,1.466,0,0,1-1.259.879" transform="translate(-31.268 -25.252)" fill="#23396a"/>
        <path id="Trazado_1045246" data-name="Trazado 1045246" d="M245.8,236.13l-13.345,34.132c-.093.238.3.2.4-.033L246.2,236.1c.093-.239-.3-.205-.4.032" transform="translate(-26.911 -27.315)" fill="#b4d3f8"/>
        <path id="Trazado_1045247" data-name="Trazado 1045247" d="M247.895,265.741c-.058-.069-.179-.048-.28.023l-4.515,3.152-4.515,3.152-2.548,1.779a.2.2,0,0,0-.078.26c.058.069.179.049.28-.022l9.03-6.3L247.817,266a.2.2,0,0,0,.078-.261" transform="translate(-27.315 -30.761)" fill="#b4d3f8"/>
        <path id="Trazado_1045248" data-name="Trazado 1045248" d="M250.056,266.291c-.058-.069-.179-.048-.28.023l-12.929,9.027a.2.2,0,0,0-.078.261c.058.068.179.048.28-.023l5.045-3.523,5.045-3.522,2.84-1.982a.2.2,0,0,0,.078-.261" transform="translate(-27.409 -30.825)" fill="#b4d3f8"/>
        <path id="Trazado_1045249" data-name="Trazado 1045249" d="M292.263,216.964c-.058-.069-.179-.048-.28.023l-2.581,1.8-5.144,3.592-2.9,2.024a.2.2,0,0,0-.078.261c.058.069.179.048.28-.023l10.307-7.2.318-.222a.2.2,0,0,0,.078-.261" transform="translate(-32.562 -25.114)" fill="#b4d3f8"/>
        <path id="Trazado_1045250" data-name="Trazado 1045250" d="M286.792,222.992c-.058-.069-.179-.048-.28.023l-6.948,4.851-1.98,1.382a.2.2,0,0,0-.078.261c.058.069.179.048.28-.023l6.948-4.851,1.98-1.382a.2.2,0,0,0,.078-.261" transform="translate(-32.125 -25.812)" fill="#b4d3f8"/>
        <path id="Trazado_1045251" data-name="Trazado 1045251" d="M265.122,231.731a1.027,1.027,0,0,1-.882.615.414.414,0,0,1,.4.615,1.026,1.026,0,0,1,.882-.615.414.414,0,0,1-.4-.615" transform="translate(-30.592 -26.828)" fill="#ff875f"/>
        <path id="Trazado_1045252" data-name="Trazado 1045252" d="M139.873,409.272h-4.029l-2.333-122.456h6.361Z" transform="translate(-15.457 -33.206)" fill="#23396a"/>
        <path id="Trazado_1045253" data-name="Trazado 1045253" d="M140.706,409.272h4.029l2.333-122.456h-6.361Z" transform="translate(-16.29 -33.206)" fill="#10284f"/>
        <path id="Trazado_1045254" data-name="Trazado 1045254" d="M239.347,409.272h-4.029l-2.333-122.456h6.361Z" transform="translate(-26.974 -33.206)" fill="#10284f"/>
        <path id="Trazado_1045255" data-name="Trazado 1045255" d="M246.541,286.817l-.735,38.543-1.6,83.91h-4.026V286.817Z" transform="translate(-27.807 -33.206)" fill="#10284f"/>
        <path id="Trazado_1045256" data-name="Trazado 1045256" d="M282.934,284.918l-.254,1.679-1.1,7.272-1.251,8.244H137.572V284.918Z" transform="translate(-15.927 -32.986)" fill="#008cff"/>
        <path id="Trazado_1045257" data-name="Trazado 1045257" d="M302.025,286.817V409.271h-4.03l-2.04-106.938-.156-8.248-.138-7.267Z" transform="translate(-34.23 -33.206)" fill="#23396a"/>
        <path id="Trazado_1045258" data-name="Trazado 1045258" d="M302.858,409.272h4.029l2.333-122.456h-6.361Z" transform="translate(-35.063 -33.206)" fill="#10284f"/>
        <path id="Trazado_1045259" data-name="Trazado 1045259" d="M401.5,409.272H397.47l-2.333-122.456H401.5Z" transform="translate(-45.746 -33.206)" fill="#23396a"/>
        <path id="Trazado_1045260" data-name="Trazado 1045260" d="M408.692,286.817l-.735,38.543-1.6,83.91h-4.026V286.817Z" transform="translate(-46.579 -33.206)" fill="#10284f"/>
        <path id="Trazado_1045261" data-name="Trazado 1045261" d="M397.176,286.817l-.138,7.214-.6,31.329c-1.563.005-3.46.009-5.625.019-25.376.049-87.958-.08-87.958-.08V286.817Z" transform="translate(-35.063 -33.206)" fill="#008cff"/>
        <path id="Trazado_1045262" data-name="Trazado 1045262" d="M378.8,286.6l-.138,7.214c-17.591.058-53.374.072-94.18.058h-2.142c-1.358,0-2.717,0-4.084-.005-47.557-.009-100.9-.053-139.924-.093v-8.854H283.7l-.254,1.679Z" transform="translate(-16.016 -32.986)" fill="#10284f"/>
        <rect id="Rectángulo_415899" data-name="Rectángulo 415899" width="266.78" height="9.703" transform="translate(101.741 245.927)" fill="#23396a"/>
        <path id="Trazado_1045263" data-name="Trazado 1045263" d="M320.053,277.682H215.329c-.859,0-.738,1.332.116,1.332H320.17c.859,0,.737-1.332-.117-1.332" transform="translate(-24.861 -32.148)" fill="#10284f"/>
        <path id="Trazado_1045264" data-name="Trazado 1045264" d="M151.658,328.715c-.335.972-4.453,66.111-3.083,84.266,23.636,0,25.349,2.056,25.349,0s9.591-85.636,8.564-91.117-27.4-3.082-30.829,6.851" transform="translate(-17.169 -36.931)" fill="#4f2118"/>
        <path id="Trazado_1045265" data-name="Trazado 1045265" d="M207,422.824l.282,1.363,42.991.128s-1.243-4.794-7.781-7.016-8.918-3.3-11.666-5.671c-10.276.312-23.825,11.2-23.825,11.2" transform="translate(-23.965 -47.656)" fill="#23396a"/>
        <path id="Trazado_1045266" data-name="Trazado 1045266" d="M181.806,304.555s37.366-2.134,41.384,1.311,5.365,6.269,3.83,22.51-7.275,70.781-7.275,70.781-18.13,10.8-23.825,11.194c-3.158-7.463,1.149-76.355,1.149-76.355s-57.41,3.445-68.318,1.722-22.677-17.51-14.927-29.279c42.484-3.444,67.981-1.885,67.981-1.885" transform="translate(-12.889 -35.184)" fill="#6b3324"/>
        <path id="Trazado_1045267" data-name="Trazado 1045267" d="M251.149,240.277c-.083.527.889,3.85,4.886,4.072s2.369-5.182,1.777-6.367-6.22-.518-6.664,2.3" transform="translate(-29.076 -27.487)" fill="#ff875f"/>
        <path id="Trazado_1045268" data-name="Trazado 1045268" d="M228.663,241.513s12.751-9.259,16.081-11.285c4.326-2.633,22.522-9.71,23.633-8.6s-2.961,3.036-4.813,3.85-4.824,1.81-4.824,1.81,2.308.263,2.826,1a4.064,4.064,0,0,1,.3,2.3s1.406.889,1.48,2.073a5.241,5.241,0,0,1-1.184,2.739s-.667,4.813-1.7,5.627-4.258.95-5.239.586-1.5-2.141-1.5-2.141l-2.813-.149s-8.885,11.55-10,12.068-13.578-3.882-12.246-9.879" transform="translate(-26.462 -25.645)" fill="#ffab82"/>
        <path id="Trazado_1045269" data-name="Trazado 1045269" d="M183.635,181.281a.449.449,0,0,0-.363-.4l-2.65-.168c-.566-.035-.732.84-.161.876l2.318.148a12.009,12.009,0,0,1-.312,3.953c-.3,1.12-1.133,2.465-2.471,2.365-.566-.042-.732.833-.161.876a3.4,3.4,0,0,0,3.323-2.488,12.113,12.113,0,0,0,.477-5.163" transform="translate(-20.779 -20.922)" fill="#10284f"/>
        <path id="Trazado_1045270" data-name="Trazado 1045270" d="M147.231,194.229s-6.145-8.838-5.879-15.82,4.721-9.908,4.721-9.908-1.33-4.854,3.192-7.115,21.544-2.194,25.733,1.463,2.235,9.457,1.716,10.712c-.785,8.238-6.969,19.675-6.969,19.675s-9.309,4.256-9.708,4.256-12.7-3.059-12.7-3.059" transform="translate(-16.364 -18.508)" fill="#23396a"/>
        <path id="Trazado_1045271" data-name="Trazado 1045271" d="M175.126,197.195c-2.147,1.385-4.4,1.194-6.061,1.287a3.794,3.794,0,0,0-1.692.383,2.02,2.02,0,0,0-.673.913c-1.069,2.333-1.621,7.954-1.621,7.954-6.939,3.754-19.368-1.157-19.368-1.157l2.027-10.55L161,195.948a3.149,3.149,0,0,0,3.091-2.637,9.664,9.664,0,0,0-.17-4.516c-1.028-3.01,1.3-6.359,4.765-7.949a16.271,16.271,0,0,0,2.316,3.906l.143-4.627a16.139,16.139,0,0,0,6.069-4.77c.722,5.06-.08,20.543-2.093,21.84" transform="translate(-16.869 -20.301)" fill="#ffab82"/>
        <path id="Trazado_1045272" data-name="Trazado 1045272" d="M181.526,182.9H170.563c-.543,0-1.09.022-1.632,0a2.789,2.789,0,0,0-1.51.243,2.88,2.88,0,0,0-1.264,1.34,4.3,4.3,0,0,0-.365,1.932c.006.375-.068,1.579.447,1.663a.441.441,0,0,0,.43-.211c.209-.342.028-.952.012-1.325a3.584,3.584,0,0,1,.23-1.562,1.808,1.808,0,0,1,1.739-1.192H181.6c.573,0,.492-.888-.078-.888" transform="translate(-19.194 -21.174)" fill="#10284f"/>
        <path id="Trazado_1045273" data-name="Trazado 1045273" d="M170.8,183.739c-.737-.092-3.842,1.759-3.452,3.842s3.614,3.493,3.843,2.866.651-6.578-.391-6.708" transform="translate(-19.371 -21.272)" fill="#ff875f"/>
        <path id="Trazado_1045274" data-name="Trazado 1045274" d="M171.64,201.055a3.8,3.8,0,0,0-1.692.383,2.016,2.016,0,0,0-.672.913,10.867,10.867,0,0,1-1.318-4.756,8.266,8.266,0,0,0,3.683,3.46" transform="translate(-19.445 -22.875)" fill="#23396a"/>
        <path id="Trazado_1045275" data-name="Trazado 1045275" d="M142.269,210.074s2.871-5.23,6.358-5.846,14.46,2.667,18.357,6.974c-11.075,6.255-18.869,6.87-20.407,6.358s-4.307-7.486-4.307-7.486" transform="translate(-16.471 -23.636)" fill="#23396a"/>
        <path id="Trazado_1045276" data-name="Trazado 1045276" d="M182.225,262.452c-.192,16.677-.779,31.272-.779,31.272S165.369,315.8,141.117,317.7s-31.339-21.256-32.7-28.07,4.85-65.175,4.934-65.575c1.122-5.277,3.505-9.37,7.588-11s14.728-2.717,24.267-2.717,28.293.481,33.792,4.089c1.741,1.144,2.627,9.543,3.019,20.476.3,8.4.317,18.295.21,27.549" transform="translate(-12.529 -24.352)" fill="#fff"/>
        <path id="Trazado_1045277" data-name="Trazado 1045277" d="M139.175,210.068c-6.642-.28-14.144-.47-19.691,3.817-6.1,4.716-7.427,12.774-8.43,19.929a.837.837,0,0,0,1.653.262c.937-6.685,2.056-14.427,7.778-18.85,5.161-3.989,12.252-3.765,18.429-3.505,1.065.045,1.336-1.608.262-1.653" transform="translate(-12.856 -24.306)" fill="#b4d3f8"/>
        <path id="Trazado_1045278" data-name="Trazado 1045278" d="M190.056,265.427c-13.263-13.988-14.2-29.388-14.2-29.388l13.992,1.839c.3,8.4.317,18.295.21,27.549" transform="translate(-20.359 -27.327)" fill="#23396a"/>
        <path id="Trazado_1045279" data-name="Trazado 1045279" d="M186.545,214.911c-2.679-1.494-10.287,1.4-12.906,10.687s20.48,42.728,30.717,45.347c9.717,2.486,23.455-9.287,32.608-21.081a3.554,3.554,0,0,0,.2-4.053c-3.145-5.04-6.692-7.025-8.925-7.806a4.124,4.124,0,0,0-3.692.5l-11.638,7.982s-21.581-28.9-26.367-31.574" transform="translate(-20.079 -24.838)" fill="#fff"/>
        <path id="Trazado_1045280" data-name="Trazado 1045280" d="M221.1,251.912c-.453-.351-1.027.33-.572.683a7.216,7.216,0,0,1-.477,11.872,19.1,19.1,0,0,0-1.246-14.2c-.258-.5-1.1-.2-.835.31a18.256,18.256,0,0,1,.9,14.63c-.124.331.173.783.558.607a8.12,8.12,0,0,0,1.672-13.9" transform="translate(-25.23 -28.944)" fill="#23396a"/>
        <path id="Trazado_1045281" data-name="Trazado 1045281" d="M215.974,255.258a17.417,17.417,0,0,0-1.493,9.829c.08.565.967.491.888-.078a16.546,16.546,0,0,1,1.41-9.37.446.446,0,0,0-.806-.381" transform="translate(-24.812 -29.523)" fill="#23396a"/>
        <path id="Trazado_1045282" data-name="Trazado 1045282" d="M264.2,227.116a.455.455,0,0,0-.573-.262,32.179,32.179,0,0,0-6.059,2.178c-.513.245-.209,1.083.31.836a32.191,32.191,0,0,1,6.06-2.179.45.45,0,0,0,.262-.573" transform="translate(-29.788 -26.262)" fill="#10284f"/>
        <path id="Trazado_1045283" data-name="Trazado 1045283" d="M265.942,231.624a10.212,10.212,0,0,0-5.292.088.445.445,0,1,0,.31.835,9.276,9.276,0,0,1,4.821-.046c.556.141.714-.736.161-.877" transform="translate(-30.143 -26.78)" fill="#10284f"/>
        <path id="Trazado_1045284" data-name="Trazado 1045284" d="M265.161,234.635a5.032,5.032,0,0,0-3.19-.526.445.445,0,0,0,.078.887,4.365,4.365,0,0,1,2.531.32,1.884,1.884,0,0,1,.7,2.175c-.172.893-.449,1.773-.683,2.652-.2.753-.32,1.93-1.2,2.186-.55.16-.238.995.311.836,1.108-.322,1.4-1.494,1.665-2.478a24.366,24.366,0,0,0,.849-3.445,2.6,2.6,0,0,0-1.058-2.606" transform="translate(-30.284 -27.099)" fill="#10284f"/>
        <path id="Trazado_1045285" data-name="Trazado 1045285" d="M261.985,239.463a14.636,14.636,0,0,1-7.9,1.481c-.567-.055-.731.821-.161.876A15.493,15.493,0,0,0,262.3,240.3c.508-.252.2-1.09-.31-.835" transform="translate(-29.357 -27.718)" fill="#10284f"/>
        <path id="Trazado_1045286" data-name="Trazado 1045286" d="M261.986,240.794a.448.448,0,0,0-.483-.4.458.458,0,0,0-.4.483q.008.974.014,1.948a.446.446,0,0,0,.482.4.457.457,0,0,0,.4-.483l-.013-1.948" transform="translate(-30.228 -27.83)" fill="#10284f"/>
        <path id="Trazado_1045287" data-name="Trazado 1045287" d="M373.026,184.79l5.685.6-3.867,4.208-2.21,2.4,4.478,4.768,2.538-2.053,4.444-3.594.241,5.711.138,3.261,6.537.206.342-3.245.6-5.686,4.209,3.868,2.4,2.21,4.768-4.477-2.054-2.539-3.594-4.442,5.711-.241,3.261-.138.206-6.538-3.246-.343-5.686-.6,3.868-4.207,2.209-2.405-4.477-4.768-2.539,2.054-4.443,3.594-.241-5.712-.138-3.261-6.537-.206-.343,3.247-.6,5.685-4.207-3.867-2.405-2.21-4.769,4.477,2.054,2.539,3.594,4.443-5.711.241-3.262.138-.205,6.537Z" transform="translate(-42.811 -18.896)" fill="#6371ba"/>
        <path id="Trazado_1045288" data-name="Trazado 1045288" d="M373.412,185.177l5.685.6-3.867,4.208a15.652,15.652,0,0,0,4.806,5.119l4.444-3.594.241,5.711a15.727,15.727,0,0,0,7.017.222l.6-5.686,4.209,3.868a15.651,15.651,0,0,0,5.118-4.807l-3.593-4.442,5.711-.241a15.719,15.719,0,0,0,.221-7.019l-5.686-.6,3.868-4.207a15.655,15.655,0,0,0-4.807-5.119l-4.443,3.594-.241-5.712a15.731,15.731,0,0,0-7.018-.22l-.6,5.685-4.207-3.867a15.654,15.654,0,0,0-5.12,4.806l3.594,4.443-5.711.241a15.714,15.714,0,0,0-.221,7.018" transform="translate(-43.197 -19.283)" fill="#5363a3"/>
        <path id="Trazado_1045289" data-name="Trazado 1045289" d="M375.269,181.962a13.695,13.695,0,1,0,14.119-13.257,13.694,13.694,0,0,0-14.119,13.257" transform="translate(-43.445 -19.531)" fill="#6371ba"/>
        <path id="Trazado_1045290" data-name="Trazado 1045290" d="M379.457,182.564a9.989,9.989,0,1,0,10.3-9.67,9.989,9.989,0,0,0-10.3,9.67" transform="translate(-43.931 -20.016)" fill="#5363a3"/>
        <path id="Trazado_1045291" data-name="Trazado 1045291" d="M385.3,183.4a4.822,4.822,0,1,0,4.972-4.668A4.822,4.822,0,0,0,385.3,183.4" transform="translate(-44.607 -20.693)" fill="#6371ba"/>
        <path id="Trazado_1045292" data-name="Trazado 1045292" d="M343.7,165.071l4.915.363-3.219,3.731-1.838,2.132,3.987,3.987,2.132-1.838,3.731-3.218.363,4.915.207,2.806h5.64l.207-2.806.363-4.915,3.731,3.218,2.132,1.838,3.988-3.987-1.839-2.132-3.218-3.731,4.915-.363,2.807-.208v-5.639l-2.807-.208-4.915-.363,3.218-3.731,1.839-2.132L366.05,148.8l-2.132,1.838-3.731,3.219-.363-4.916-.207-2.806h-5.64l-.207,2.807-.363,4.915-3.731-3.219-2.133-1.838-3.987,3.987,1.838,2.132,3.219,3.731-4.915.363-2.807.208v5.639Z" transform="translate(-39.466 -16.919)" fill="#6371ba"/>
        <path id="Trazado_1045293" data-name="Trazado 1045293" d="M344.021,165.394l4.915.363-3.219,3.731A13.5,13.5,0,0,0,350,173.768l3.731-3.218.363,4.915a13.556,13.556,0,0,0,6.053,0l.363-4.915,3.731,3.218a13.489,13.489,0,0,0,4.281-4.281l-3.218-3.731,4.915-.363a13.562,13.562,0,0,0,0-6.054l-4.915-.363,3.218-3.731a13.5,13.5,0,0,0-4.281-4.281l-3.731,3.219-.363-4.916a13.574,13.574,0,0,0-6.053,0l-.363,4.915L350,150.965a13.5,13.5,0,0,0-4.281,4.281l3.219,3.731-4.915.363a13.559,13.559,0,0,0,0,6.054" transform="translate(-39.789 -17.242)" fill="#5363a3"/>
        <path id="Trazado_1045294" data-name="Trazado 1045294" d="M345.527,162.58a11.807,11.807,0,1,0,11.807-11.807,11.807,11.807,0,0,0-11.807,11.807" transform="translate(-40.003 -17.456)" fill="#6371ba"/>
        <path id="Trazado_1045295" data-name="Trazado 1045295" d="M349.14,163a8.612,8.612,0,1,0,8.612-8.612A8.613,8.613,0,0,0,349.14,163" transform="translate(-40.421 -17.874)" fill="#5363a3"/>
        <path id="Trazado_1045296" data-name="Trazado 1045296" d="M354.178,163.582a4.158,4.158,0,1,0,4.158-4.158,4.157,4.157,0,0,0-4.158,4.158" transform="translate(-41.004 -18.457)" fill="#6371ba"/>
        <path id="Trazado_1045297" data-name="Trazado 1045297" d="M374.3,148.724l3.72.275-2.435,2.823-1.392,1.614,3.018,3.019,1.614-1.392,2.824-2.436.275,3.721.156,2.124h4.268l.157-2.124.275-3.721,2.824,2.436,1.614,1.392,3.019-3.019-1.393-1.614L390.406,149l3.72-.275,2.125-.157V144.3l-2.125-.157-3.72-.275,2.435-2.824,1.393-1.614-3.019-3.018L389.6,137.8l-2.824,2.436-.275-3.721-.157-2.124h-4.268l-.156,2.125-.275,3.72-2.824-2.436-1.614-1.392-3.018,3.018,1.392,1.614,2.435,2.824-3.72.275-2.124.157v4.268Z" transform="translate(-43.088 -15.559)" fill="#6371ba"/>
        <path id="Trazado_1045298" data-name="Trazado 1045298" d="M374.542,148.968l3.72.275-2.435,2.823a10.216,10.216,0,0,0,3.24,3.241l2.824-2.436.275,3.721a10.255,10.255,0,0,0,4.581,0l.275-3.721,2.824,2.436a10.207,10.207,0,0,0,3.24-3.241l-2.435-2.823,3.72-.275a10.26,10.26,0,0,0,0-4.582l-3.72-.275,2.435-2.824a10.213,10.213,0,0,0-3.24-3.24l-2.824,2.436-.275-3.721a10.238,10.238,0,0,0-4.581,0l-.275,3.72-2.824-2.436a10.213,10.213,0,0,0-3.24,3.24l2.435,2.824-3.72.275a10.259,10.259,0,0,0,0,4.582" transform="translate(-43.332 -15.803)" fill="#5363a3"/>
        <path id="Trazado_1045299" data-name="Trazado 1045299" d="M375.681,146.839a8.937,8.937,0,1,0,8.937-8.937,8.937,8.937,0,0,0-8.937,8.937" transform="translate(-43.494 -15.965)" fill="#6371ba"/>
        <path id="Trazado_1045300" data-name="Trazado 1045300" d="M378.416,147.156a6.519,6.519,0,1,0,6.519-6.519,6.519,6.519,0,0,0-6.519,6.519" transform="translate(-43.811 -16.282)" fill="#5363a3"/>
        <path id="Trazado_1045301" data-name="Trazado 1045301" d="M382.229,147.6a3.147,3.147,0,1,0,3.147-3.147,3.147,3.147,0,0,0-3.147,3.147" transform="translate(-44.252 -16.723)" fill="#6371ba"/>
        <rect id="Rectángulo_415900" data-name="Rectángulo 415900" width="10.466" height="45.825" transform="translate(131.683 312.556)" fill="#6371ba"/>
        <rect id="Rectángulo_415901" data-name="Rectángulo 415901" width="10.466" height="10.398" transform="translate(131.683 312.556)" fill="#5363a3"/>
        <path id="Trazado_1045302" data-name="Trazado 1045302" d="M163.961,358.361H140.294a4.7,4.7,0,0,1-4.7-4.7v-8.723h33.074v8.723a4.7,4.7,0,0,1-4.7,4.7" transform="translate(-15.698 -39.934)" fill="#6371ba"/>
        <path id="Trazado_1045303" data-name="Trazado 1045303" d="M209.593,334.984a11.131,11.131,0,0,1-11.129,11.129H102.014a11.129,11.129,0,0,1,0-22.258h96.451a11.13,11.13,0,0,1,11.129,11.129" transform="translate(-10.522 -37.494)" fill="#ff0146"/>
        <path id="Trazado_1045304" data-name="Trazado 1045304" d="M185.4,323.855c-1.2,7.629-4.52,17.2-13.65,17.2h-65.9a34.188,34.188,0,0,0-11.717,1.776,11.127,11.127,0,0,1,7.887-18.975Z" transform="translate(-10.522 -37.494)" fill="#a3073f"/>
        <path id="Trazado_1045305" data-name="Trazado 1045305" d="M169.063,323.855v4.168a10.961,10.961,0,0,1-10.96,10.96H91.628a11.13,11.13,0,0,1,10.385-15.128Z" transform="translate(-10.522 -37.494)" fill="#23396a"/>
        <path id="Trazado_1045306" data-name="Trazado 1045306" d="M152.235,226.551h-69.3a10.963,10.963,0,0,0-10.964,10.964v75.359a10.962,10.962,0,0,0,10.964,10.96h69.3a10.961,10.961,0,0,0,10.96-10.96V237.515a10.962,10.962,0,0,0-10.96-10.964" transform="translate(-8.333 -26.229)" fill="#ff0146"/>
        <path id="Trazado_1045307" data-name="Trazado 1045307" d="M171.8,237.515v75.36a10.961,10.961,0,0,1-10.96,10.96H146.286a10.962,10.962,0,0,0,10.964-10.96v-75.36a10.963,10.963,0,0,0-10.964-10.964h14.553a10.962,10.962,0,0,1,10.96,10.964" transform="translate(-16.936 -26.229)" fill="#a3073f"/>
        <path id="Trazado_1045308" data-name="Trazado 1045308" d="M142.54,335.639H81.069c-1.146,0-.984,1.775.155,1.775H142.7c1.146,0,.984-1.775-.156-1.775" transform="translate(-9.295 -38.858)" fill="#23396a"/>
        <path id="Trazado_1045309" data-name="Trazado 1045309" d="M190.819,420.245c-4.819-5.038-19.067-6.239-25.858-11.934s-7.876-31.439-7.876-31.439H142.8s-1.086,25.743-7.877,31.439-21.039,6.9-25.858,11.934c0,0,35.541.289,39.695.054,4.152.235,42.059-.054,42.059-.054" transform="translate(-12.627 -43.632)" fill="#fff"/>
        <path id="Trazado_1045310" data-name="Trazado 1045310" d="M190.819,420.245c-4.819-5.038-19.067-6.239-25.858-11.934s-7.876-31.439-7.876-31.439H142.8s-1.086,25.743-7.877,31.439-21.039,6.9-25.858,11.934c0,0,35.541.289,39.695.054,4.152.235,42.059-.054,42.059-.054" transform="translate(-12.627 -43.632)" fill="#008cff"/>
        <path id="Trazado_1045311" data-name="Trazado 1045311" d="M196.543,420.245s-22.948.173-35.092.142c4.734-.031,10.368-.142,10.368-.142-1.9-5.037-7.535-6.239-10.216-11.935s-3.112-31.436-3.112-31.436h4.319s1.082,25.741,7.873,31.436,21.043,6.9,25.861,11.935" transform="translate(-18.349 -43.632)" fill="#006fba"/>
        <path id="Trazado_1045312" data-name="Trazado 1045312" d="M157.823,236.578v83.238c0,1.147,1.775.985,1.775-.155V236.422c0-1.146-1.775-.984-1.775.156" transform="translate(-18.272 -27.281)" fill="#23396a"/>
        <path id="Trazado_1045313" data-name="Trazado 1045313" d="M96.22,289.722,77.333,308.608c-.812.812.559,1.951,1.364,1.145l18.886-18.886c.812-.812-.559-1.951-1.364-1.145" transform="translate(-8.924 -33.51)" fill="#23396a"/>
        <path id="Trazado_1045314" data-name="Trazado 1045314" d="M84.006,313.339a.91.91,0,0,0-1.255.11l-7,7a.9.9,0,0,0,.11,1.255.911.911,0,0,0,1.256-.11l6.994-7a.9.9,0,0,0-.11-1.255" transform="translate(-8.746 -36.253)" fill="#23396a"/>
        <path id="Trazado_1045315" data-name="Trazado 1045315" d="M228.422,205.1a15.664,15.664,0,1,1-15.664-15.664A15.664,15.664,0,0,1,228.422,205.1" transform="translate(-22.818 -21.932)" fill="#008cff"/>
        <path id="Trazado_1045316" data-name="Trazado 1045316" d="M226.513,205.388a13.415,13.415,0,0,1-3.995,9.572c-1.684-1.7-3.9-2.066-5.083-2.54-1.375-.551-1.375-1.07-1.592-2.629.583-.334,1.439-.917,2.171-3.177,2.875-.338,2.944-3.858,2.111-4.036a1.109,1.109,0,0,0-.764.125,4.774,4.774,0,0,0,.458-2.232,5.329,5.329,0,0,0-3.341-5.042,16.011,16.011,0,0,0-7,.083A5.312,5.312,0,0,0,206,200.47a4.774,4.774,0,0,0,.458,2.232,1.109,1.109,0,0,0-.764-.125c-.834.179-.764,3.7,2.111,4.036.732,2.26,1.588,2.843,2.168,3.177-.214,1.559-.214,2.078-1.589,2.629-1.155.462-3.281.818-4.95,2.407a13.468,13.468,0,1,1,23.075-9.438" transform="translate(-23.106 -22.219)" fill="#fff"/>
        <path id="Trazado_1045317" data-name="Trazado 1045317" d="M217.877,230.4H198.694a1.6,1.6,0,0,1,0-3.2h19.183a1.6,1.6,0,1,1,0,3.2" transform="translate(-22.818 -26.304)" fill="#23396a"/>
        <path id="Trazado_1045318" data-name="Trazado 1045318" d="M228.749,237.449H198.693a1.6,1.6,0,1,1,0-3.2h30.057a1.6,1.6,0,1,1,0,3.2" transform="translate(-22.818 -27.12)" fill="#00b74b"/>
        <path id="Trazado_1045319" data-name="Trazado 1045319" d="M332.429,136.865a21.915,21.915,0,1,1-21.915-21.915,21.914,21.914,0,0,1,21.915,21.915" transform="translate(-33.412 -13.308)" fill="#23396a"/>
        <path id="Trazado_1045320" data-name="Trazado 1045320" d="M329.759,137.266a18.768,18.768,0,0,1-5.589,13.392c-2.356-2.383-5.45-2.891-7.112-3.555-1.924-.77-1.924-1.5-2.226-3.678.814-.467,2.012-1.282,3.037-4.444,4.021-.472,4.119-5.4,2.952-5.647a1.557,1.557,0,0,0-1.069.173,6.679,6.679,0,0,0,.641-3.121c-.173-3.634-2.2-6.244-4.676-7.054a22.407,22.407,0,0,0-9.788.116,7.434,7.434,0,0,0-4.863,6.939,6.68,6.68,0,0,0,.641,3.121,1.554,1.554,0,0,0-1.068-.173c-1.167.249-1.069,5.174,2.952,5.647,1.024,3.162,2.222,3.977,3.033,4.444-.3,2.182-.3,2.908-2.222,3.678-1.617.646-4.592,1.145-6.925,3.367a18.842,18.842,0,1,1,32.282-13.2" transform="translate(-33.815 -13.71)" fill="#fff"/>
        <path id="Trazado_1045321" data-name="Trazado 1045321" d="M317.676,172.258H290.837a2.237,2.237,0,1,1,0-4.473h26.839a2.237,2.237,0,0,1,0,4.473" transform="translate(-33.412 -19.425)" fill="#23396a"/>
        <path id="Trazado_1045322" data-name="Trazado 1045322" d="M332.888,182.123H290.837a2.237,2.237,0,0,1,0-4.473h42.051a2.237,2.237,0,0,1,0,4.473" transform="translate(-33.412 -20.567)" fill="#00b74b"/>
        <path id="Trazado_1045323" data-name="Trazado 1045323" d="M277.948,177.719a13.5,13.5,0,1,1-13.5-13.5,13.5,13.5,0,0,1,13.5,13.5" transform="translate(-29.053 -19.012)" fill="#23396a"/>
        <path id="Trazado_1045324" data-name="Trazado 1045324" d="M276.3,177.966a11.559,11.559,0,0,1-3.443,8.25c-1.451-1.468-3.358-1.78-4.381-2.189-1.186-.474-1.186-.921-1.372-2.266.5-.287,1.241-.79,1.871-2.738,2.478-.291,2.539-3.326,1.82-3.479a.959.959,0,0,0-.659.107,4.114,4.114,0,0,0,.4-1.923,4.6,4.6,0,0,0-2.881-4.346,13.81,13.81,0,0,0-6.03.072,4.579,4.579,0,0,0-3,4.274,4.114,4.114,0,0,0,.4,1.923.959.959,0,0,0-.659-.107c-.719.154-.658,3.189,1.82,3.479.63,1.948,1.369,2.45,1.868,2.738-.184,1.345-.184,1.792-1.37,2.266-1,.4-2.829.706-4.266,2.074a11.608,11.608,0,1,1,19.889-8.135" transform="translate(-29.301 -19.26)" fill="#fff"/>
        <path id="Trazado_1045325" data-name="Trazado 1045325" d="M268.859,199.525H252.324a1.378,1.378,0,0,1,0-2.756h16.535a1.378,1.378,0,0,1,0,2.756" transform="translate(-29.053 -22.781)" fill="#23396a"/>
        <path id="Trazado_1045326" data-name="Trazado 1045326" d="M278.23,205.6H252.323a1.378,1.378,0,0,1,0-2.756H278.23a1.378,1.378,0,0,1,0,2.756" transform="translate(-29.053 -23.484)" fill="#00b74b"/>
        <path id="Trazado_1045327" data-name="Trazado 1045327" d="M275.861,131.578a13.087,13.087,0,1,1-13.087-13.087,13.088,13.088,0,0,1,13.087,13.087" transform="translate(-28.907 -13.718)" fill="#008cff"/>
        <path id="Trazado_1045328" data-name="Trazado 1045328" d="M266.31,123.651a15.926,15.926,0,0,0-3.347-.037,10.828,10.828,0,0,1,3.347.037" transform="translate(-30.444 -14.298)" fill="#23396a"/>
        <path id="Trazado_1045329" data-name="Trazado 1045329" d="M274.265,131.819a11.212,11.212,0,0,1-3.336,8c-1.409-1.425-3.257-1.727-4.25-2.125a1.756,1.756,0,0,1-1.025-.773,28.777,28.777,0,0,0,4.665-.723,9.9,9.9,0,0,1-1.122-3.534,24.6,24.6,0,0,1-.459-3.816,11.926,11.926,0,0,0-.3-2.538,4.167,4.167,0,0,0-2.555-2.811,5.117,5.117,0,0,0-.867-.184,15.808,15.808,0,0,0-3.347-.037h-.017a7.848,7.848,0,0,0-1.6.287.03.03,0,0,0-.017,0,.263.263,0,0,0-.066.027,4.842,4.842,0,0,0-2.425,2.31,13.067,13.067,0,0,0-.565,4.618c-.092,1.952-.273,4.29-1.676,5.8a22.891,22.891,0,0,0,4.785.689,1.842,1.842,0,0,1-.964.676,10.693,10.693,0,0,0-4.136,2.011,11.252,11.252,0,1,1,19.279-7.884" transform="translate(-29.147 -13.958)" fill="#fff"/>
        <path id="Trazado_1045330" data-name="Trazado 1045330" d="M267.05,152.715H251.022a1.336,1.336,0,1,1,0-2.671H267.05a1.336,1.336,0,0,1,0,2.671" transform="translate(-28.907 -17.371)" fill="#23396a"/>
        <path id="Trazado_1045331" data-name="Trazado 1045331" d="M276.135,158.606H251.022a1.336,1.336,0,1,1,0-2.671h25.113a1.336,1.336,0,0,1,0,2.671" transform="translate(-28.907 -18.053)" fill="#00b74b"/>
        <path id="Trazado_1045332" data-name="Trazado 1045332" d="M236.26,144.185a17.417,17.417,0,1,1-17.417-17.417,17.417,17.417,0,0,1,17.417,17.417" transform="translate(-23.32 -14.676)" fill="#23396a"/>
        <path id="Trazado_1045333" data-name="Trazado 1045333" d="M223.55,133.637a21.089,21.089,0,0,0-4.453-.049,14.411,14.411,0,0,1,4.453.049" transform="translate(-25.366 -15.449)" fill="#23396a"/>
        <path id="Trazado_1045334" data-name="Trazado 1045334" d="M234.138,144.5a14.92,14.92,0,0,1-4.441,10.643c-1.875-1.9-4.334-2.3-5.656-2.828a2.338,2.338,0,0,1-1.362-1.028,38.4,38.4,0,0,0,6.207-.962,13.161,13.161,0,0,1-1.493-4.7,32.734,32.734,0,0,1-.61-5.078,15.963,15.963,0,0,0-.406-3.377,5.547,5.547,0,0,0-3.4-3.742,6.8,6.8,0,0,0-1.153-.245,21.146,21.146,0,0,0-4.453-.049h-.023a10.456,10.456,0,0,0-2.128.383.04.04,0,0,0-.022,0,.391.391,0,0,0-.089.035,6.448,6.448,0,0,0-3.226,3.074c-.827,1.881-.657,4.137-.752,6.145-.123,2.6-.365,5.71-2.231,7.725a30.465,30.465,0,0,0,6.368.918,2.442,2.442,0,0,1-1.282.9c-1.287.516-3.652.913-5.5,2.677A14.974,14.974,0,1,1,234.138,144.5" transform="translate(-23.64 -14.996)" fill="#fff"/>
        <path id="Trazado_1045335" data-name="Trazado 1045335" d="M224.535,172.314h-21.33a1.778,1.778,0,1,1,0-3.555h21.33a1.778,1.778,0,0,1,0,3.555" transform="translate(-23.32 -19.538)" fill="#23396a"/>
        <path id="Trazado_1045336" data-name="Trazado 1045336" d="M236.625,180.154H203.2a1.778,1.778,0,0,1,0-3.555h33.42a1.778,1.778,0,0,1,0,3.555" transform="translate(-23.32 -20.445)" fill="#00b74b"/>
        <path id="Trazado_1045337" data-name="Trazado 1045337" d="M388.783,103.238c-2.233,14.7-16.288,24.262-30.978,22.222A26.775,26.775,0,0,1,335.12,95.084,27.139,27.139,0,0,1,364.6,72.152a1.362,1.362,0,0,1,1.218,1.553l-3.578,23.9a1.353,1.353,0,0,0,1.35,1.554l24.106-.217a1.359,1.359,0,0,1,1.368,1.423,27.581,27.581,0,0,1-.284,2.876" transform="translate(-38.763 -8.338)" fill="#008cff"/>
        <path id="Trazado_1045338" data-name="Trazado 1045338" d="M387.06,73.676,371,91.423a.735.735,0,0,1-1.272-.6l3.547-23.691a.736.736,0,0,1,.852-.619A26.983,26.983,0,0,1,387,72.628a.735.735,0,0,1,.058,1.048" transform="translate(-42.804 -7.699)" fill="#00b74b"/>
        <path id="Trazado_1045339" data-name="Trazado 1045339" d="M396.567,97.354l-23.772.213a1,1,0,0,1-.753-1.677L388,78.247a1,1,0,0,1,1.436-.057,27.147,27.147,0,0,1,8.123,18.1,1.011,1.011,0,0,1-.995,1.065" transform="translate(-43.042 -9.02)" fill="#ff0146"/>
        <rect id="Rectángulo_415902" data-name="Rectángulo 415902" width="7.971" height="25.987" transform="translate(274.69 219.94)" fill="#008cff"/>
        <rect id="Rectángulo_415903" data-name="Rectángulo 415903" width="7.971" height="40.719" transform="translate(299.424 205.208)" fill="#008cff"/>
        <rect id="Rectángulo_415904" data-name="Rectángulo 415904" width="7.971" height="24.359" transform="translate(286.967 221.568)" fill="#008cff"/>
        <rect id="Rectángulo_415905" data-name="Rectángulo 415905" width="7.971" height="32.844" transform="translate(312.423 213.083)" fill="#008cff"/>
        <rect id="Rectángulo_415906" data-name="Rectángulo 415906" width="7.971" height="32.844" transform="translate(325.421 213.083)" fill="#008cff"/>
        <rect id="Rectángulo_415907" data-name="Rectángulo 415907" width="7.971" height="41.148" transform="translate(338.781 204.778)" fill="#008cff"/>
        <path id="Trazado_1045340" data-name="Trazado 1045340" d="M316.051,242.649a1.507,1.507,0,1,1-1.507-1.507,1.507,1.507,0,0,1,1.507,1.507" transform="translate(-36.241 -27.918)" fill="#10284f"/>
        <path id="Trazado_1045341" data-name="Trazado 1045341" d="M330.384,248.025a1.507,1.507,0,1,1-1.507-1.507,1.507,1.507,0,0,1,1.507,1.507" transform="translate(-37.901 -28.54)" fill="#10284f"/>
        <path id="Trazado_1045342" data-name="Trazado 1045342" d="M344.644,228.978a1.507,1.507,0,1,1-1.507-1.507,1.507,1.507,0,0,1,1.507,1.507" transform="translate(-39.552 -26.335)" fill="#10284f"/>
        <path id="Trazado_1045343" data-name="Trazado 1045343" d="M373.764,238.153a1.507,1.507,0,1,1-1.507-1.507,1.507,1.507,0,0,1,1.507,1.507" transform="translate(-42.923 -27.397)" fill="#10284f"/>
        <path id="Trazado_1045344" data-name="Trazado 1045344" d="M389.351,227.735a1.507,1.507,0,1,1-1.507-1.507,1.507,1.507,0,0,1,1.507,1.507" transform="translate(-44.728 -26.191)" fill="#10284f"/>
        <path id="Trazado_1045345" data-name="Trazado 1045345" d="M359.3,237.654a1.507,1.507,0,1,1-1.507-1.507,1.507,1.507,0,0,1,1.507,1.507" transform="translate(-41.249 -27.34)" fill="#10284f"/>
        <path id="Trazado_1045346" data-name="Trazado 1045346" d="M304.743,247.549l8.665-6.164,12.674,4.753L338.691,229.3l12.963,7.672,12.786.441,13.958-9.475" transform="translate(-35.281 -26.389)" fill="none" stroke="#10284f" stroke-linecap="round" stroke-miterlimit="10" stroke-width="0.467"/>
        <path id="Trazado_1045347" data-name="Trazado 1045347" d="M384.3,375.691q0,11.1-6.541,18.039t-17.883,9.05v8.865H340.909V402.78q-11.781-2.169-18.412-9.546t-6.632-18.845H340.1a7.614,7.614,0,0,0,2.883,6.354,11.134,11.134,0,0,0,7.1,2.263,12.06,12.06,0,0,0,6.788-1.86,5.963,5.963,0,0,0,2.356-7.377,4.758,4.758,0,0,0-1.612-1.89q-1.149-.837-2.138-1.425a15.257,15.257,0,0,0-3.131-1.241q-2.139-.65-3.348-.96t-3.937-.992q-2.789-.682-4.247-1.054t-4.215-1.24a40.507,40.507,0,0,1-4.338-1.581q-1.582-.712-3.937-1.952a18.038,18.038,0,0,1-3.75-2.511,34.852,34.852,0,0,1-3.007-3.161,15.692,15.692,0,0,1-2.51-3.968,25.679,25.679,0,0,1-1.488-4.835,28.326,28.326,0,0,1-.589-5.92q0-10.229,6.044-16.8t17.017-8.554v-8.369h18.968v8.493q10.847,2.109,16.706,8.988t5.858,17.482l-23.556.061a6.535,6.535,0,0,0-2.51-5.517,10.156,10.156,0,0,0-6.353-1.922,11.639,11.639,0,0,0-5.858,1.4,4.377,4.377,0,0,0-2.449,4,4.5,4.5,0,0,0,.806,2.6,7.434,7.434,0,0,0,1.86,1.921,14.376,14.376,0,0,0,3.316,1.55q2.261.806,3.812,1.24t4.712,1.241h.062q10.847,2.788,15.869,5.392,12.645,6.572,13.018,20.581Z" transform="translate(-36.569 -35.579)" fill="#edae3b"/>
        <path id="Trazado_1045349" data-name="Trazado 1045349" d="M320.256,187.747v8.226c0,1.7,2.635,1.462,2.635-.231v-8.226c0-1.7-2.635-1.461-2.635.231" transform="translate(-37.077 -21.575)" fill="#23396a"/>
        <path id="Trazado_1045350" data-name="Trazado 1045350" d="M309.112,198.2l-4.746-7.382c-.921-1.432-3.08.1-2.159,1.53l4.746,7.382c.921,1.432,3.08-.1,2.159-1.529" transform="translate(-34.962 -22.026)" fill="#23396a"/>
        <path id="Trazado_1045351" data-name="Trazado 1045351" d="M296.634,207.543l-5.924-5.675c-1.232-1.18-2.926.852-1.7,2.026l5.924,5.676c1.232,1.18,2.926-.853,1.7-2.027" transform="translate(-33.41 -23.33)" fill="#23396a"/>
        <path id="Trazado_1045352" data-name="Trazado 1045352" d="M333.653,198.2l4.746-7.382c.921-1.432,3.08.1,2.159,1.53l-4.746,7.382c-.921,1.432-3.08-.1-2.159-1.529" transform="translate(-38.602 -22.026)" fill="#23396a"/>
        <path id="Trazado_1045353" data-name="Trazado 1045353" d="M345.983,207.543l5.924-5.675c1.232-1.18,2.926.852,1.7,2.026l-5.924,5.676c-1.232,1.18-2.926-.853-1.7-2.027" transform="translate(-40.006 -23.33)" fill="#23396a"/>
        <path id="Trazado_1045354" data-name="Trazado 1045354" d="M341.605,209.771a29.629,29.629,0,0,1-8.465,5.175,36.756,36.756,0,0,1-28.733,0,29.7,29.7,0,0,1-8.465-5.175,28.866,28.866,0,0,1,22.831-11.3,28.394,28.394,0,0,1,9.06,1.577,29.657,29.657,0,0,1,13.772,9.726" transform="translate(-34.262 -22.977)" fill="#fff"/>
        <path id="Trazado_1045355" data-name="Trazado 1045355" d="M331.289,206.21a10.961,10.961,0,1,1-19.941-6.286,29.027,29.027,0,0,1,8.98-1.458,28.4,28.4,0,0,1,9.06,1.577,10.9,10.9,0,0,1,1.9,6.167" transform="translate(-35.816 -22.977)" fill="#008cff"/>
        <path id="Trazado_1045356" data-name="Trazado 1045356" d="M326.714,206.479a5.7,5.7,0,1,1-5.7-5.7,5.7,5.7,0,0,1,5.7,5.7" transform="translate(-36.506 -23.245)" fill="#23396a"/>
        <path id="Trazado_1045357" data-name="Trazado 1045357" d="M342.837,207.619a30,30,0,0,0-47.4-.01c-1.053,1.336.97,3.041,2.027,1.7a27.34,27.34,0,0,1,43.211-.162c1.054,1.328,3.221-.19,2.159-1.529" transform="translate(-34.17 -22.692)" fill="#23396a"/>
      </g>
    </g>
  </g>
</svg>
