<svg xmlns="http://www.w3.org/2000/svg" xmlns:xlink="http://www.w3.org/1999/xlink" width="93.934" height="93.934" viewBox="0 0 93.934 93.934">
  <defs>
    <filter id="Trazado_982547" x="0" y="0" width="93.934" height="93.934" filterUnits="userSpaceOnUse">
      <feOffset dy="3" input="SourceAlpha"/>
      <feGaussianBlur stdDeviation="3" result="blur"/>
      <feFlood flood-opacity="0.161"/>
      <feComposite operator="in" in2="blur"/>
      <feComposite in="SourceGraphic"/>
    </filter>
  </defs>
  <g id="Grupo_1183008" data-name="Grupo 1183008" transform="translate(-1029 -658)">
    <g id="Grupo_1182335" data-name="Grupo 1182335" transform="translate(839.967 -1122)">
      <g id="Grupo_1176309" data-name="Grupo 1176309" transform="translate(0 -206)">
        <g id="Grupo_1172970" data-name="Grupo 1172970" transform="translate(-1 -9042)">
          <g id="Grupo_1171971" data-name="Grupo 1171971" transform="translate(199.033 11034)">
            <g id="Grupo_1167337" data-name="Grupo 1167337" transform="translate(0)">
              <g id="Grupo_1166720" data-name="Grupo 1166720">
                <g id="Grupo_1164305" data-name="Grupo 1164305">
                  <g id="Grupo_1163948" data-name="Grupo 1163948">
                    <g id="Grupo_1158168" data-name="Grupo 1158168">
                      <g id="Grupo_1152576" data-name="Grupo 1152576">
                        <g id="Grupo_1148633" data-name="Grupo 1148633">
                          <g id="Grupo_1148525" data-name="Grupo 1148525">
                            <g transform="matrix(1, 0, 0, 1, -9, -6)" filter="url(#Trazado_982547)">
                              <g id="Trazado_982547-2" data-name="Trazado 982547" transform="translate(9 6)" fill="#f2f7f5">
                                <path d="M 37.966796875 74.43359375 C 33.04315185546875 74.43359375 28.26757431030273 73.46962738037109 23.77274131774902 71.56847381591797 C 19.43047523498535 69.73184967041016 15.53040790557861 67.10224914550781 12.18087482452393 63.75271987915039 C 8.831341743469238 60.4031867980957 6.201741218566895 56.50312042236328 4.365118980407715 52.16086196899414 C 2.463963508605957 47.66601943969727 1.499996900558472 42.89044189453125 1.499996900558472 37.966796875 C 1.499996900558472 33.04315185546875 2.463963508605957 28.26757431030273 4.365118980407715 23.77274131774902 C 6.201741218566895 19.43047523498535 8.831341743469238 15.53040790557861 12.18087482452393 12.18087482452393 C 15.53040790557861 8.831341743469238 19.43047523498535 6.201741218566895 23.77274131774902 4.365118980407715 C 28.26757431030273 2.463963508605957 33.04315185546875 1.499996900558472 37.966796875 1.499996900558472 C 42.89044189453125 1.499996900558472 47.66601943969727 2.463963508605957 52.16086196899414 4.365118980407715 C 56.50312042236328 6.201741218566895 60.4031867980957 8.831341743469238 63.75271987915039 12.18087482452393 C 67.10224914550781 15.53040790557861 69.73184967041016 19.43047523498535 71.56847381591797 23.77274131774902 C 73.46962738037109 28.26757431030273 74.43359375 33.04315185546875 74.43359375 37.966796875 C 74.43359375 42.89044189453125 73.46962738037109 47.66601943969727 71.56847381591797 52.16086196899414 C 69.73184967041016 56.50313186645508 67.10224914550781 60.4031867980957 63.75271987915039 63.75271987915039 C 60.4031867980957 67.10224914550781 56.50313186645508 69.73184967041016 52.16086196899414 71.56847381591797 C 47.66601943969727 73.46962738037109 42.89044189453125 74.43359375 37.966796875 74.43359375 Z" stroke="none"/>
                                <path d="M 37.966796875 3 C 33.2449836730957 3 28.66600799560547 3.924095153808594 24.35705947875977 5.746635437011719 C 20.19359588623047 7.507637023925781 16.45379638671875 10.02928161621094 13.24153518676758 13.24153518676758 C 10.02927398681641 16.45379638671875 7.507621765136719 20.19359588623047 5.746635437011719 24.35705947875977 C 3.924095153808594 28.66600799560547 3 33.2449836730957 3 37.966796875 C 3 42.6886100769043 3.924095153808594 47.26758575439453 5.746635437011719 51.57653427124023 C 7.507621765136719 55.73999786376953 10.02927398681641 59.47979736328125 13.24153518676758 62.69205856323242 C 16.45379638671875 65.90431976318359 20.19359588623047 68.42597198486328 24.35705947875977 70.18695831298828 C 28.66600799560547 72.00949859619141 33.2449836730957 72.93359375 37.966796875 72.93359375 C 42.6886100769043 72.93359375 47.26758575439453 72.00949859619141 51.57653427124023 70.18695831298828 C 55.73999786376953 68.42597198486328 59.47979736328125 65.90431976318359 62.69205856323242 62.69205856323242 C 65.90431976318359 59.47979736328125 68.42597198486328 55.73999786376953 70.18695831298828 51.57653427124023 C 72.00949859619141 47.26758575439453 72.93359375 42.6886100769043 72.93359375 37.966796875 C 72.93359375 33.2449836730957 72.00949859619141 28.66600799560547 70.18695831298828 24.35705947875977 C 68.42597198486328 20.19359588623047 65.90431976318359 16.45379638671875 62.69205856323242 13.24153518676758 C 59.47979736328125 10.02928161621094 55.73999786376953 7.507637023925781 51.57653427124023 5.746635437011719 C 47.26758575439453 3.924095153808594 42.6886100769043 3 37.966796875 3 M 37.966796875 0 C 58.93528366088867 0 75.93359375 16.99832153320312 75.93359375 37.966796875 C 75.93359375 58.93528366088867 58.93528366088867 75.93359375 37.966796875 75.93359375 C 16.99831008911133 75.93359375 0 58.93528366088867 0 37.966796875 C 0 16.99832153320312 16.99831008911133 0 37.966796875 0 Z" stroke="none" fill="#4a665c"/>
                              </g>
                            </g>
                          </g>
                        </g>
                      </g>
                    </g>
                  </g>
                </g>
              </g>
            </g>
          </g>
        </g>
      </g>
    </g>
    <g id="desafio" transform="translate(1054 664.002)">
      <g id="Grupo_1183006" data-name="Grupo 1183006" transform="translate(0.63 16.562)">
        <path id="Trazado_1043934" data-name="Trazado 1043934" d="M48.67,72.912l.309-.2.125-.3.295-.166V68.887a2.761,2.761,0,0,0-2.761-2.76H10.2a2.761,2.761,0,0,0-2.761,2.76v3.882l2.08.666L9.09,74.756l-.429-.022L12.616,80.2H44.022L48.6,74.108Z" transform="translate(-7.434 -62.444)" fill="#f37c7c"/>
        <path id="Trazado_1043935" data-name="Trazado 1043935" d="M48.67,72.912l.309-.2.125-.3.295-.166V68.887a2.761,2.761,0,0,0-2.761-2.76H10.2a2.761,2.761,0,0,0-2.761,2.76v3.882l2.08.666L9.09,74.756l-.429-.022L12.616,80.2H44.022L48.6,74.108Z" transform="translate(-7.434 -62.444)" fill="#f37c7c"/>
        <path id="Trazado_1043936" data-name="Trazado 1043936" d="M10.195,66.127a2.761,2.761,0,0,0-2.761,2.76v3.882l2.08.666-.424,1.321-.429-.022L12.616,80.2H12.7V70.9a.9.9,0,0,1,1.265-.83,3.022,3.022,0,0,0,1.276.263,3.08,3.08,0,0,0,3-3.1v-1.1Z" transform="translate(-7.434 -62.444)" fill="#ee6161"/>
        <path id="Trazado_1043937" data-name="Trazado 1043937" d="M49.4,164.379c0,2.043-1.236,3.279-2.761,3.279H10.2A2.761,2.761,0,0,1,7.434,164.9V138.93l41.964-.518Z" transform="translate(-7.434 -128.605)" fill="#f9f7f8"/>
        <path id="Trazado_1043938" data-name="Trazado 1043938" d="M12.7,143.762l-5.27.065v25.967a2.761,2.761,0,0,0,2.761,2.761H12.7Z" transform="translate(-7.434 -133.502)" fill="#efedef"/>
        <g id="Grupo_1183004" data-name="Grupo 1183004" transform="translate(1.532 0)">
          <circle id="Elipse_13156" data-name="Elipse 13156" cx="13.756" cy="13.756" r="13.756" transform="translate(0 23.296) rotate(-45)" fill="#b3e5ee"/>
          <path id="Trazado_1043939" data-name="Trazado 1043939" d="M96.682,149.03A13.779,13.779,0,0,1,108.5,135.411a13.756,13.756,0,1,0,0,27.238A13.778,13.778,0,0,1,96.682,149.03Z" transform="translate(-87.096 -125.733)" fill="#86d7e5"/>
          <path id="Trazado_1043940" data-name="Trazado 1043940" d="M150.156,194.824a9.04,9.04,0,1,0,1.877-1.959" transform="translate(-138.091 -176.727)" fill="#fbe98c"/>
          <circle id="Elipse_13157" data-name="Elipse 13157" cx="4.437" cy="4.437" r="4.437" transform="translate(15.019 18.86)" fill="#f37c7c"/>
          <g id="Grupo_1183003" data-name="Grupo 1183003" transform="translate(18.814 12.881)">
            <g id="XMLID_2_">
              <path id="Trazado_1043941" data-name="Trazado 1043941" d="M258.406,174.892a.635.635,0,0,0-.9,0L255.6,176.81l-.009.008-7.814,7.855a.635.635,0,1,0,.9.9l7.806-7.847.009-.008,1.914-1.924A.635.635,0,0,0,258.406,174.892Z" transform="translate(-247.594 -174.707)" fill="#fbe5c6"/>
            </g>
          </g>
          <path id="Trazado_1043942" data-name="Trazado 1043942" d="M219.263,66.127v1.161a3.042,3.042,0,0,0,6.083,0V66.127Z" transform="translate(-202.849 -62.444)" fill="#ee6161"/>
          <path id="Trazado_1043943" data-name="Trazado 1043943" d="M240.61,28.85a1.347,1.347,0,0,1-1.347-1.347v-3.5a1.347,1.347,0,0,1,2.694,0v3.5A1.347,1.347,0,0,1,240.61,28.85Z" transform="translate(-221.155 -22.659)" fill="#e4e1e5"/>
          <path id="Trazado_1043944" data-name="Trazado 1043944" d="M141.262,66.127v1.161a3.042,3.042,0,0,0,6.083,0V66.127Z" transform="translate(-131.456 -62.444)" fill="#ee6161"/>
          <path id="Trazado_1043945" data-name="Trazado 1043945" d="M162.609,28.85a1.347,1.347,0,0,1-1.347-1.347v-3.5a1.347,1.347,0,0,1,2.694,0v3.5A1.347,1.347,0,0,1,162.609,28.85Z" transform="translate(-149.762 -22.659)" fill="#e4e1e5"/>
          <path id="Trazado_1043946" data-name="Trazado 1043946" d="M84.607,28.85A1.347,1.347,0,0,1,83.26,27.5v-3.5a1.347,1.347,0,1,1,2.694,0v3.5A1.347,1.347,0,0,1,84.607,28.85Z" transform="translate(-78.368 -22.659)" fill="#e4e1e5"/>
          <path id="Trazado_1043947" data-name="Trazado 1043947" d="M297.265,66.127v1.161a3.041,3.041,0,1,0,6.083,0V66.127Z" transform="translate(-274.243 -62.444)" fill="#ee6161"/>
          <path id="Trazado_1043948" data-name="Trazado 1043948" d="M318.611,28.85a1.347,1.347,0,0,0,1.347-1.347v-3.5a1.347,1.347,0,0,0-2.694,0v3.5A1.347,1.347,0,0,0,318.611,28.85Z" transform="translate(-292.547 -22.659)" fill="#e4e1e5"/>
          <path id="Trazado_1043949" data-name="Trazado 1043949" d="M381.348,66.127h-6.083v1.232a3.042,3.042,0,1,0,6.083,0V66.127Z" transform="translate(-345.635 -62.444)" fill="#ee6161"/>
          <path id="Trazado_1043950" data-name="Trazado 1043950" d="M396.613,29.689a1.347,1.347,0,0,0,1.347-1.347v-3.5a1.347,1.347,0,0,0-2.694,0v3.5A1.347,1.347,0,0,0,396.613,29.689Z" transform="translate(-363.941 -23.427)" fill="#e4e1e5"/>
        </g>
        <path id="Trazado_1043951" data-name="Trazado 1043951" d="M336.878,132.7l-1.051-2.575a.586.586,0,0,0-.957-.192l-2.516,2.526a.587.587,0,0,0-.127.635l1.239,3.033h1.969l1.6-2.1Z" transform="translate(-304.67 -120.691)" fill="#f5c274"/>
        <g id="Grupo_1183005" data-name="Grupo 1183005" transform="translate(28.796 12.013)">
          <path id="Trazado_1043952" data-name="Trazado 1043952" d="M353.324,165.5a.585.585,0,0,1,.2.956L351,168.98a.586.586,0,0,1-.635.13l-3.036-1.225,1.914-1.924,0,0,1.494-1.5Z" transform="translate(-347.334 -164.457)" fill="#f3b658"/>
        </g>
      </g>
      <g id="Grupo_1183007" data-name="Grupo 1183007" transform="translate(0 15.998)">
        <path id="Trazado_1043953" data-name="Trazado 1043953" d="M394.578,235.534a.635.635,0,0,0-.383.813,13.087,13.087,0,0,1-.491,10.009.635.635,0,1,0,1.148.545,14.358,14.358,0,0,0,.539-10.984A.636.636,0,0,0,394.578,235.534Z" transform="translate(-360.294 -216.901)"/>
        <path id="Trazado_1043954" data-name="Trazado 1043954" d="M111.768,150.622a.635.635,0,0,0-.89.126,13.173,13.173,0,0,1-4.513,3.8,12.908,12.908,0,0,1-5.927,1.421,13.051,13.051,0,1,1,4.343-25.36.635.635,0,0,0,.423-1.2,14.322,14.322,0,1,0,1.74,26.27,14.451,14.451,0,0,0,4.951-4.167A.635.635,0,0,0,111.768,150.622Z" transform="translate(-78.821 -119.056)"/>
        <path id="Trazado_1043955" data-name="Trazado 1043955" d="M164.718,126.29l-2.331-.941-.95-2.327a1.221,1.221,0,0,0-2-.4l-2.516,2.526a1.218,1.218,0,0,0-.265,1.323l1.08,2.645-.712.715a9.661,9.661,0,0,0-12.25-.373.635.635,0,0,0,.776,1.006,8.391,8.391,0,0,1,10.576.269l-2.358,2.37a5.083,5.083,0,1,0,.9.9l2.358-2.371a8.4,8.4,0,1,1-13.223.657.635.635,0,1,0-1.039-.732,9.674,9.674,0,1,0,15.159-.827l.712-.716,2.645,1.068a1.218,1.218,0,0,0,1.322-.27l2.516-2.526a1.221,1.221,0,0,0-.408-1.993Zm-4.429-2.717.864,2.115-1.2,1.2h0l-.045.045-1.2,1.2-.864-2.115Zm-5.808,13.548a3.807,3.807,0,1,1-1.614-3.106l-2.644,2.658a.635.635,0,0,0,.9.9l2.645-2.659A3.779,3.779,0,0,1,154.482,137.121Zm7.251-7.232-2.118-.855,1.227-1.233,1.211-1.216,2.119.855Z" transform="translate(-129.064 -113.261)"/>
        <path id="Trazado_1043956" data-name="Trazado 1043956" d="M39.838,19.609H36.816V17.981a1.983,1.983,0,0,0-3.965,0v1.629H30.208V17.981a1.982,1.982,0,1,0-3.965,0v1.629H23.6V17.981a1.983,1.983,0,0,0-3.965,0v1.629H16.992V17.981a1.983,1.983,0,0,0-3.965,0v1.629H10.383V17.981a1.983,1.983,0,0,0-3.965,0v1.629H3.4a3.4,3.4,0,0,0-3.4,3.4v30.12a3.4,3.4,0,0,0,3.4,3.4H39.838a3.4,3.4,0,0,0,3.4-3.4V23.005A3.4,3.4,0,0,0,39.838,19.609Zm-5.716-1.629a.712.712,0,1,1,1.423,0v3.5a.712.712,0,1,1-1.423,0Zm-6.608,0a.712.712,0,1,1,1.423,0v3.5a.712.712,0,1,1-1.423,0Zm-6.608,0a.712.712,0,1,1,1.423,0v3.5a.712.712,0,1,1-1.423,0Zm-6.608,0a.712.712,0,1,1,1.423,0v3.5a.712.712,0,1,1-1.423,0Zm-6.608,0a.712.712,0,1,1,1.423,0v3.5a.712.712,0,1,1-1.423,0ZM39.838,55.251H3.4a2.128,2.128,0,0,1-2.126-2.126V27.793H11.528a.635.635,0,0,0,0-1.271H1.271V23.005A2.128,2.128,0,0,1,3.4,20.88H6.418v.6a1.983,1.983,0,1,0,3.965,0v-.6h2.643v.6a1.983,1.983,0,1,0,3.965,0v-.6h2.643v.6a1.983,1.983,0,1,0,3.965,0v-.6h2.643v.6a1.982,1.982,0,1,0,3.965,0v-.6h2.643v.6a1.983,1.983,0,1,0,3.965,0v-.6h3.022a2.128,2.128,0,0,1,2.126,2.126v3.517H35.783a.635.635,0,0,0,0,1.271h6.181V53.126A2.128,2.128,0,0,1,39.838,55.251Z" transform="translate(0 -15.998)"/>
      </g>
    </g>
  </g>
</svg>
