<svg xmlns="http://www.w3.org/2000/svg" xmlns:xlink="http://www.w3.org/1999/xlink" width="93.934" height="93.934" viewBox="0 0 93.934 93.934">
  <defs>
    <filter id="Trazado_982547" x="0" y="0" width="93.934" height="93.934" filterUnits="userSpaceOnUse">
      <feOffset dy="3" input="SourceAlpha"/>
      <feGaussianBlur stdDeviation="3" result="blur"/>
      <feFlood flood-opacity="0.161"/>
      <feComposite operator="in" in2="blur"/>
      <feComposite in="SourceGraphic"/>
    </filter>
  </defs>
  <g id="Grupo_1183011" data-name="Grupo 1183011" transform="translate(-609.033 -792)">
    <g id="Grupo_1182336" data-name="Grupo 1182336" transform="translate(420 -988)">
      <g id="Grupo_1176309" data-name="Grupo 1176309" transform="translate(0 -206)">
        <g id="Grupo_1172970" data-name="Grupo 1172970" transform="translate(-1 -9042)">
          <g id="Grupo_1171971" data-name="Grupo 1171971" transform="translate(199.033 11034)">
            <g id="Grupo_1167337" data-name="Grupo 1167337" transform="translate(0)">
              <g id="Grupo_1166720" data-name="Grupo 1166720">
                <g id="Grupo_1164305" data-name="Grupo 1164305">
                  <g id="Grupo_1163948" data-name="Grupo 1163948">
                    <g id="Grupo_1158168" data-name="Grupo 1158168">
                      <g id="Grupo_1152576" data-name="Grupo 1152576">
                        <g id="Grupo_1148633" data-name="Grupo 1148633">
                          <g id="Grupo_1148525" data-name="Grupo 1148525">
                            <g transform="matrix(1, 0, 0, 1, -9, -6)" filter="url(#Trazado_982547)">
                              <g id="Trazado_982547-2" data-name="Trazado 982547" transform="translate(9 6)" fill="#f2f7f5">
                                <path d="M 37.966796875 74.43359375 C 33.04315185546875 74.43359375 28.26757431030273 73.46962738037109 23.77274131774902 71.56847381591797 C 19.43047523498535 69.73184967041016 15.53040790557861 67.10224914550781 12.18087482452393 63.75271987915039 C 8.831341743469238 60.4031867980957 6.201741218566895 56.50312042236328 4.365118980407715 52.16086196899414 C 2.463963508605957 47.66601943969727 1.499996900558472 42.89044189453125 1.499996900558472 37.966796875 C 1.499996900558472 33.04315185546875 2.463963508605957 28.26757431030273 4.365118980407715 23.77274131774902 C 6.201741218566895 19.43047523498535 8.831341743469238 15.53040790557861 12.18087482452393 12.18087482452393 C 15.53040790557861 8.831341743469238 19.43047523498535 6.201741218566895 23.77274131774902 4.365118980407715 C 28.26757431030273 2.463963508605957 33.04315185546875 1.499996900558472 37.966796875 1.499996900558472 C 42.89044189453125 1.499996900558472 47.66601943969727 2.463963508605957 52.16086196899414 4.365118980407715 C 56.50312042236328 6.201741218566895 60.4031867980957 8.831341743469238 63.75271987915039 12.18087482452393 C 67.10224914550781 15.53040790557861 69.73184967041016 19.43047523498535 71.56847381591797 23.77274131774902 C 73.46962738037109 28.26757431030273 74.43359375 33.04315185546875 74.43359375 37.966796875 C 74.43359375 42.89044189453125 73.46962738037109 47.66601943969727 71.56847381591797 52.16086196899414 C 69.73184967041016 56.50313186645508 67.10224914550781 60.4031867980957 63.75271987915039 63.75271987915039 C 60.4031867980957 67.10224914550781 56.50313186645508 69.73184967041016 52.16086196899414 71.56847381591797 C 47.66601943969727 73.46962738037109 42.89044189453125 74.43359375 37.966796875 74.43359375 Z" stroke="none"/>
                                <path d="M 37.966796875 3 C 33.2449836730957 3 28.66600799560547 3.924095153808594 24.35705947875977 5.746635437011719 C 20.19359588623047 7.507637023925781 16.45379638671875 10.02928161621094 13.24153518676758 13.24153518676758 C 10.02927398681641 16.45379638671875 7.507621765136719 20.19359588623047 5.746635437011719 24.35705947875977 C 3.924095153808594 28.66600799560547 3 33.2449836730957 3 37.966796875 C 3 42.6886100769043 3.924095153808594 47.26758575439453 5.746635437011719 51.57653427124023 C 7.507621765136719 55.73999786376953 10.02927398681641 59.47979736328125 13.24153518676758 62.69205856323242 C 16.45379638671875 65.90431976318359 20.19359588623047 68.42597198486328 24.35705947875977 70.18695831298828 C 28.66600799560547 72.00949859619141 33.2449836730957 72.93359375 37.966796875 72.93359375 C 42.6886100769043 72.93359375 47.26758575439453 72.00949859619141 51.57653427124023 70.18695831298828 C 55.73999786376953 68.42597198486328 59.47979736328125 65.90431976318359 62.69205856323242 62.69205856323242 C 65.90431976318359 59.47979736328125 68.42597198486328 55.73999786376953 70.18695831298828 51.57653427124023 C 72.00949859619141 47.26758575439453 72.93359375 42.6886100769043 72.93359375 37.966796875 C 72.93359375 33.2449836730957 72.00949859619141 28.66600799560547 70.18695831298828 24.35705947875977 C 68.42597198486328 20.19359588623047 65.90431976318359 16.45379638671875 62.69205856323242 13.24153518676758 C 59.47979736328125 10.02928161621094 55.73999786376953 7.507637023925781 51.57653427124023 5.746635437011719 C 47.26758575439453 3.924095153808594 42.6886100769043 3 37.966796875 3 M 37.966796875 0 C 58.93528366088867 0 75.93359375 16.99832153320312 75.93359375 37.966796875 C 75.93359375 58.93528366088867 58.93528366088867 75.93359375 37.966796875 75.93359375 C 16.99831008911133 75.93359375 0 58.93528366088867 0 37.966796875 C 0 16.99832153320312 16.99831008911133 0 37.966796875 0 Z" stroke="none" fill="#4a665c"/>
                              </g>
                            </g>
                          </g>
                        </g>
                      </g>
                    </g>
                  </g>
                </g>
              </g>
            </g>
          </g>
        </g>
      </g>
    </g>
    <g id="FILLED_OUTLINE" transform="translate(618.644 796.496)">
      <path id="Trazado_1043970" data-name="Trazado 1043970" d="M51.395,222.212h0a1.755,1.755,0,0,0-2.423-.749l.133-.074a1.755,1.755,0,0,0,.718-2.32h0a1.755,1.755,0,0,0-2.423-.749l.133-.074a1.755,1.755,0,0,0,.718-2.32h0a1.755,1.755,0,0,0-2.423-.749l-2.641,1.467h0l2.774-1.541a1.755,1.755,0,0,0,.718-2.32h0a1.753,1.753,0,0,0-1.5-.967,3.138,3.138,0,0,0,.276-2.869L45.074,208l-11.085,5.173a1.571,1.571,0,0,0-.87,1.083l-1.4,6.316L16,230l8.644,6.286,12.572-7.858h5.81a1.571,1.571,0,0,0,.872-.264l1.8-1.2a1.744,1.744,0,0,0,.982-.215l4-2.222a1.755,1.755,0,0,0,.718-2.32Zm-6.32,1.416v0l.031-.015Z" transform="translate(-3.712 -173.142)" fill="#ffcbb1"/>
      <path id="Trazado_1043971" data-name="Trazado 1043971" d="M232,25.572l5.5,17.287L257.145,24Z" transform="translate(-198.496 -7.215)" fill="#f9b89b"/>
      <g id="Grupo_1183010" data-name="Grupo 1183010" transform="translate(12.144 21.758)">
        <path id="Trazado_1043972" data-name="Trazado 1043972" d="M0,0H11.969V1.572H0Z" transform="matrix(0.919, -0.394, 0.394, 0.919, 34.405, 13.943)" fill="#ccdcc2"/>
        <path id="Trazado_1043973" data-name="Trazado 1043973" d="M0,0H1.572V10.945H0Z" transform="translate(36.787 20.135) rotate(-68.954)" fill="#ccdcc2"/>
        <path id="Trazado_1043974" data-name="Trazado 1043974" d="M0,0H1.572V8.959H0Z" transform="matrix(0.614, -0.789, 0.789, 0.614, 38.942, 27.882)" fill="#ccdcc2"/>
        <path id="Trazado_1043975" data-name="Trazado 1043975" d="M0,0H1.571V10.688H0Z" transform="translate(35.658 33.224) rotate(-36.011)" fill="#ccdcc2"/>
        <path id="Trazado_1043976" data-name="Trazado 1043976" d="M0,0H1.572V10.572H0Z" transform="translate(9.771 1.051) rotate(-42)" fill="#ccdcc2"/>
        <path id="Trazado_1043977" data-name="Trazado 1043977" d="M0,0H1.572V12.695H0Z" transform="translate(2.986 9.116) rotate(-68.209)" fill="#ccdcc2"/>
        <path id="Trazado_1043978" data-name="Trazado 1043978" d="M0,0H1.572V12.792H0Z" transform="translate(0 17.01) rotate(-79.398)" fill="#ccdcc2"/>
        <path id="Trazado_1043979" data-name="Trazado 1043979" d="M0,0H9.72V1.571H0Z" transform="translate(1.539 24.905) rotate(-14.064)" fill="#ccdcc2"/>
      </g>
      <path id="Trazado_1043980" data-name="Trazado 1043980" d="M291.159,67.156l.78-2.135-1.943.9-1.874-1.492-.069,2.395-1.943.9,2.135.78.643,2.655,1.266-2.36,2.62.555Z" transform="translate(-247.29 -43.675)" fill="#e88977"/>
      <path id="Trazado_1043981" data-name="Trazado 1043981" d="M206.8,28.392a1.617,1.617,0,0,0-1.934-1.082h0a1.318,1.318,0,0,0-1.257,1.715l13.276,42.04a1.617,1.617,0,1,0,3.084-.974Z" transform="translate(-172.842 -10.156)" fill="#008cb7"/>
      <path id="Trazado_1043982" data-name="Trazado 1043982" d="M302.666,345.259l4-2.222a1.755,1.755,0,0,1,1.705,3.069l-4,2.222a1.755,1.755,0,0,1-1.705-3.069Z" transform="translate(-261.406 -294.716)" fill="#f9b89b"/>
      <path id="Trazado_1043983" data-name="Trazado 1043983" d="M286.666,313.259l4-2.222a1.755,1.755,0,1,1,1.7,3.069l-4,2.222a1.755,1.755,0,1,1-1.7-3.069Z" transform="translate(-246.977 -265.859)" fill="#f9b89b"/>
      <path id="Trazado_1043984" data-name="Trazado 1043984" d="M270.666,281.259l4-2.222a1.755,1.755,0,1,1,1.7,3.069l-4,2.222a1.755,1.755,0,0,1-1.7-3.069Z" transform="translate(-232.549 -237.002)" fill="#f9b89b"/>
      <path id="Trazado_1043985" data-name="Trazado 1043985" d="M189.737,208.947l-.379-.946-11.085,5.173a1.572,1.572,0,0,0-.87,1.083l-1.4,6.316,4.715,2.357.534-.3a7.3,7.3,0,0,0,3.4-8.339l3.279-1.229a3.143,3.143,0,0,0,1.815-4.11Z" transform="translate(-147.996 -173.142)" fill="#ffcbb1"/>
      <rect id="Rectángulo_415837" data-name="Rectángulo 415837" width="4.576" height="1.572" rx="0.786" transform="translate(40.885 49.841) rotate(-29.077)" fill="#ffcbb1"/>
      <rect id="Rectángulo_415838" data-name="Rectángulo 415838" width="4.576" height="1.572" rx="0.786" transform="translate(39.313 46.699) rotate(-29.077)" fill="#ffcbb1"/>
      <path id="Trazado_1043986" data-name="Trazado 1043986" d="M254.683,249.285l4-2.222a1.755,1.755,0,0,1,1.7,3.069l-4,2.222a1.755,1.755,0,0,1-1.705-3.069Z" transform="translate(-218.136 -208.169)" fill="#f9b89b"/>
      <rect id="Rectángulo_415839" data-name="Rectángulo 415839" width="4.576" height="1.572" rx="0.786" transform="translate(37.741 43.557) rotate(-29.077)" fill="#ffcbb1"/>
      <path id="Trazado_1043987" data-name="Trazado 1043987" d="M224.266,318.547a6.5,6.5,0,0,1-2.574,2.7h0a.411.411,0,0,0-.357.615l.3.521a.613.613,0,0,0,.834.231,8.067,8.067,0,0,0,3.2-3.35.786.786,0,1,0-1.4-.714Z" transform="translate(-188.83 -272.442)" fill="#f9b89b"/>
      <path id="Trazado_1043988" data-name="Trazado 1043988" d="M45.753,52.962l1.594-.885a2.541,2.541,0,0,0-.376-4.613A2.544,2.544,0,0,0,45.4,44.321a2.544,2.544,0,0,0-1.572-3.143,2.542,2.542,0,0,0-1.263-3.008,3.894,3.894,0,0,0-.094-2.657l-.379-.946a.785.785,0,0,0-.415-.427L59.193,17.353A.786.786,0,0,0,58.6,16L34.52,17.554a2.4,2.4,0,0,0-4.39,1.892l5.446,17.245-5.63,2.628a2.372,2.372,0,0,0-1.3,1.625L27.31,46.93,11.884,56.186l.809,1.348L28.408,48.1a.786.786,0,0,0,.363-.5l1.4-6.316a.791.791,0,0,1,.435-.542l10.332-4.821.07.175a2.357,2.357,0,0,1-1.361,3.083l-3.279,1.229a.786.786,0,0,0-.48.952,6.5,6.5,0,0,1-3.03,7.44l-.534.3.78,1.365.534-.3a8.07,8.07,0,0,0,3.1-3.159,2.514,2.514,0,0,0,1.373,1.177,2.544,2.544,0,0,0,1.572,3.143,2.553,2.553,0,0,0,.7,2.62l-.637.425a.783.783,0,0,1-.436.132H33.5a.786.786,0,0,0-.417.119L20.515,62.479l.833,1.333L33.73,56.074h5.585a2.349,2.349,0,0,0,1.308-.4l.784-.522L43.3,61.146A2.4,2.4,0,0,0,47.88,59.7ZM37.012,36.021,31.628,18.973a.831.831,0,0,1,1.585-.5l5.318,16.84Zm2.7-2.179L35.058,19.095l21.493-1.387Zm-2.009,9.724a8.075,8.075,0,0,0-.134-1.929l2.63-.986A3.905,3.905,0,0,0,41.8,39.542a.97.97,0,0,1,.072,1.731l-.131.073h0L37.868,43.5A.978.978,0,0,1,37.706,43.566Zm.977,3.151a.97.97,0,0,1-.184-1.774l.132-.073h0L42.5,42.721a.97.97,0,0,1,.94,1.7l-.131.073h0L39.439,46.64a.961.961,0,0,1-.756.078Zm1.572,3.143a.97.97,0,0,1-.184-1.774l.132-.073h0l3.868-2.149a.97.97,0,0,1,.94,1.7l-.131.073h0L41.01,49.783a.96.96,0,0,1-.756.078ZM41.826,53a.97.97,0,0,1-.184-1.774l.132-.073h0l3.868-2.149a.97.97,0,0,1,.94,1.7l-4,2.222a.96.96,0,0,1-.757.079Zm4.489,7.824a.823.823,0,0,1-.524.4.832.832,0,0,1-.994-.556L42.85,54.509a2.57,2.57,0,0,0,.5-.21l1-.558,2.031,6.431a.823.823,0,0,1-.067.656Z" transform="translate(0 0)"/>
      <path id="Trazado_1043989" data-name="Trazado 1043989" d="M0,0H11.969V1.572H0Z" transform="matrix(0.919, -0.394, 0.394, 0.919, 46.549, 35.702)"/>
      <path id="Trazado_1043990" data-name="Trazado 1043990" d="M0,0H1.572V10.945H0Z" transform="translate(48.93 41.892) rotate(-68.954)"/>
      <path id="Trazado_1043991" data-name="Trazado 1043991" d="M0,0H1.572V8.959H0Z" transform="matrix(0.614, -0.789, 0.789, 0.614, 51.086, 49.64)"/>
      <path id="Trazado_1043992" data-name="Trazado 1043992" d="M0,0H1.571V10.688H0Z" transform="translate(47.802 54.982) rotate(-36.011)"/>
      <path id="Trazado_1043993" data-name="Trazado 1043993" d="M0,0H1.572V10.572H0Z" transform="translate(21.915 22.809) rotate(-42)"/>
      <path id="Trazado_1043994" data-name="Trazado 1043994" d="M0,0H1.572V12.695H0Z" transform="translate(15.13 30.873) rotate(-68.209)"/>
      <path id="Trazado_1043995" data-name="Trazado 1043995" d="M0,0H1.572V12.792H0Z" transform="translate(12.144 38.767) rotate(-79.398)"/>
      <path id="Trazado_1043996" data-name="Trazado 1043996" d="M0,0H9.72V1.571H0Z" transform="translate(13.683 46.662) rotate(-14.064)"/>
      <path id="Trazado_1043997" data-name="Trazado 1043997" d="M286.193,61.68l-1.366-1.864.636-1.74a.786.786,0,0,0-1.069-.983l-1.5.7L281.4,56.6a.786.786,0,0,0-1.275.592l-.055,1.909-1.5.7a.786.786,0,0,0,.061,1.451l1.74.636.544,2.246a.786.786,0,0,0,.664.595.8.8,0,0,0,.1.006.786.786,0,0,0,.692-.414l.988-1.841,2.044.433a.786.786,0,0,0,.8-1.233Zm-3.091-.859a.786.786,0,0,0-.855.4l-.294.548-.159-.656a.786.786,0,0,0-.494-.553l-.353-.129.223-.1a.786.786,0,0,0,.454-.69l.024-.824.645.513a.786.786,0,0,0,.82.1l.223-.1-.129.353a.786.786,0,0,0,.1.734l.4.544Z" transform="translate(-240.076 -36.461)"/>
    </g>
  </g>
</svg>
