<svg xmlns="http://www.w3.org/2000/svg" xmlns:xlink="http://www.w3.org/1999/xlink" width="93.934" height="93.934" viewBox="0 0 93.934 93.934">
  <defs>
    <filter id="Trazado_982547" x="0" y="0" width="93.934" height="93.934" filterUnits="userSpaceOnUse">
      <feOffset dy="3" input="SourceAlpha"/>
      <feGaussianBlur stdDeviation="3" result="blur"/>
      <feFlood flood-opacity="0.161"/>
      <feComposite operator="in" in2="blur"/>
      <feComposite in="SourceGraphic"/>
    </filter>
  </defs>
  <g id="Grupo_1183009" data-name="Grupo 1183009" transform="translate(-189 -792)">
    <g id="Grupo_1182337" data-name="Grupo 1182337" transform="translate(-0.033 -988)">
      <g id="Grupo_1176309" data-name="Grupo 1176309" transform="translate(0 -206)">
        <g id="Grupo_1172970" data-name="Grupo 1172970" transform="translate(-1 -9042)">
          <g id="Grupo_1171971" data-name="Grupo 1171971" transform="translate(199.033 11034)">
            <g id="Grupo_1167337" data-name="Grupo 1167337" transform="translate(0)">
              <g id="Grupo_1166720" data-name="Grupo 1166720">
                <g id="Grupo_1164305" data-name="Grupo 1164305">
                  <g id="Grupo_1163948" data-name="Grupo 1163948">
                    <g id="Grupo_1158168" data-name="Grupo 1158168">
                      <g id="Grupo_1152576" data-name="Grupo 1152576">
                        <g id="Grupo_1148633" data-name="Grupo 1148633">
                          <g id="Grupo_1148525" data-name="Grupo 1148525">
                            <g transform="matrix(1, 0, 0, 1, -9, -6)" filter="url(#Trazado_982547)">
                              <g id="Trazado_982547-2" data-name="Trazado 982547" transform="translate(9 6)" fill="#f2f7f5">
                                <path d="M 37.966796875 74.43359375 C 33.04315185546875 74.43359375 28.26757431030273 73.46962738037109 23.77274131774902 71.56847381591797 C 19.43047523498535 69.73184967041016 15.53040790557861 67.10224914550781 12.18087482452393 63.75271987915039 C 8.831341743469238 60.4031867980957 6.201741218566895 56.50312042236328 4.365118980407715 52.16086196899414 C 2.463963508605957 47.66601943969727 1.499996900558472 42.89044189453125 1.499996900558472 37.966796875 C 1.499996900558472 33.04315185546875 2.463963508605957 28.26757431030273 4.365118980407715 23.77274131774902 C 6.201741218566895 19.43047523498535 8.831341743469238 15.53040790557861 12.18087482452393 12.18087482452393 C 15.53040790557861 8.831341743469238 19.43047523498535 6.201741218566895 23.77274131774902 4.365118980407715 C 28.26757431030273 2.463963508605957 33.04315185546875 1.499996900558472 37.966796875 1.499996900558472 C 42.89044189453125 1.499996900558472 47.66601943969727 2.463963508605957 52.16086196899414 4.365118980407715 C 56.50312042236328 6.201741218566895 60.4031867980957 8.831341743469238 63.75271987915039 12.18087482452393 C 67.10224914550781 15.53040790557861 69.73184967041016 19.43047523498535 71.56847381591797 23.77274131774902 C 73.46962738037109 28.26757431030273 74.43359375 33.04315185546875 74.43359375 37.966796875 C 74.43359375 42.89044189453125 73.46962738037109 47.66601943969727 71.56847381591797 52.16086196899414 C 69.73184967041016 56.50313186645508 67.10224914550781 60.4031867980957 63.75271987915039 63.75271987915039 C 60.4031867980957 67.10224914550781 56.50313186645508 69.73184967041016 52.16086196899414 71.56847381591797 C 47.66601943969727 73.46962738037109 42.89044189453125 74.43359375 37.966796875 74.43359375 Z" stroke="none"/>
                                <path d="M 37.966796875 3 C 33.2449836730957 3 28.66600799560547 3.924095153808594 24.35705947875977 5.746635437011719 C 20.19359588623047 7.507637023925781 16.45379638671875 10.02928161621094 13.24153518676758 13.24153518676758 C 10.02927398681641 16.45379638671875 7.507621765136719 20.19359588623047 5.746635437011719 24.35705947875977 C 3.924095153808594 28.66600799560547 3 33.2449836730957 3 37.966796875 C 3 42.6886100769043 3.924095153808594 47.26758575439453 5.746635437011719 51.57653427124023 C 7.507621765136719 55.73999786376953 10.02927398681641 59.47979736328125 13.24153518676758 62.69205856323242 C 16.45379638671875 65.90431976318359 20.19359588623047 68.42597198486328 24.35705947875977 70.18695831298828 C 28.66600799560547 72.00949859619141 33.2449836730957 72.93359375 37.966796875 72.93359375 C 42.6886100769043 72.93359375 47.26758575439453 72.00949859619141 51.57653427124023 70.18695831298828 C 55.73999786376953 68.42597198486328 59.47979736328125 65.90431976318359 62.69205856323242 62.69205856323242 C 65.90431976318359 59.47979736328125 68.42597198486328 55.73999786376953 70.18695831298828 51.57653427124023 C 72.00949859619141 47.26758575439453 72.93359375 42.6886100769043 72.93359375 37.966796875 C 72.93359375 33.2449836730957 72.00949859619141 28.66600799560547 70.18695831298828 24.35705947875977 C 68.42597198486328 20.19359588623047 65.90431976318359 16.45379638671875 62.69205856323242 13.24153518676758 C 59.47979736328125 10.02928161621094 55.73999786376953 7.507637023925781 51.57653427124023 5.746635437011719 C 47.26758575439453 3.924095153808594 42.6886100769043 3 37.966796875 3 M 37.966796875 0 C 58.93528366088867 0 75.93359375 16.99832153320312 75.93359375 37.966796875 C 75.93359375 58.93528366088867 58.93528366088867 75.93359375 37.966796875 75.93359375 C 16.99831008911133 75.93359375 0 58.93528366088867 0 37.966796875 C 0 16.99832153320312 16.99831008911133 0 37.966796875 0 Z" stroke="none" fill="#4a665c"/>
                              </g>
                            </g>
                          </g>
                        </g>
                      </g>
                    </g>
                  </g>
                </g>
              </g>
            </g>
          </g>
        </g>
      </g>
    </g>
    <g id="desafio_1_" data-name="desafio (1)" transform="translate(200 794.684)">
      <path id="Trazado_1043957" data-name="Trazado 1043957" d="M58.407,33.766H52.429l.077-.186,2.04-.864a.76.76,0,0,0,.463-.7V29.068a.76.76,0,0,0-.463-.7l-2.04-.864-.7-1.689.831-2.054a.76.76,0,0,0-.167-.823l-2.087-2.084a.76.76,0,0,0-.822-.167l-2.052.831-1.689-.7-.864-2.04a.76.76,0,0,0-.7-.463H41.308a.76.76,0,0,0-.7.463l-.864,2.04-1.687.7L36,20.687a.76.76,0,0,0-.822.167L33.1,22.938a.76.76,0,0,0-.167.822l.831,2.054-.7,1.689-2.04.864a.759.759,0,0,0-.421.454l-1.912.257a4.349,4.349,0,0,0,.778-2.509A3.825,3.825,0,0,0,25.9,22.538a3.822,3.822,0,0,0-3.563,4.032,4.233,4.233,0,0,0,1.374,3.178l-.085.011a2.5,2.5,0,0,0-2.061,1.727L15.28,51.018H13.76a.76.76,0,0,0-.76.76V62.713a.76.76,0,0,0,1.52,0V52.538h9.552V62.713a.76.76,0,0,0,1.52,0V51.778a.76.76,0,0,0-.76-.76H22.916V48.572h9.55V62.713a.76.76,0,0,0,1.52,0v-14.9a.76.76,0,0,0-.76-.76H31.309V44.869h9.55V62.713a.76.76,0,0,0,1.52,0v-18.6a.76.76,0,0,0-.76-.76H39.7V41.964h.764l.144.339a.76.76,0,0,0,.7.463h2.948a.76.76,0,0,0,.7-.463l.144-.339h4.154V62.713a.76.76,0,0,0,1.52,0V41.2a.76.76,0,0,0-.76-.76h-.082a.757.757,0,0,0,.452-.216l2.087-2.084a.76.76,0,0,0,.167-.823l-.823-2.035h5.832V62.713a.76.76,0,0,0,1.52,0V34.526a.76.76,0,0,0-.76-.76ZM25.9,24.058a2.318,2.318,0,0,1,2.046,2.512A2.318,2.318,0,0,1,25.9,29.081a2.316,2.316,0,0,1-2.043-2.512A2.317,2.317,0,0,1,25.9,24.058ZM23.014,31.95a.97.97,0,0,1,.818-.685l8.581-1.152c.142-.019.2.146.215.245,0,0,.058.306-.113.35l-6.743,1.747L23.838,38.46l-2.647-.842,1.822-5.668ZM27.7,42.736l-1.364,4.316H24.989l1.293-4.018a.76.76,0,0,0-.493-.957l-3.6-1.147A1.966,1.966,0,0,1,20.824,39.1l6.038,1.922a1.266,1.266,0,0,1,.781.669,1.327,1.327,0,0,1,.056,1.049ZM20.039,41.2a3.434,3.434,0,0,0,1.271,1.015l-3.253,8.8H16.876Zm2.117,5.853a.76.76,0,0,0-.76.76v3.206h-1.72L22.749,42.7l1.853.59-1.21,3.758H22.156Zm16.786-6.608a.76.76,0,0,0-.76.76v2.145H30.549a.76.76,0,0,0-.76.76v2.942H27.929L29.148,43.2A2.833,2.833,0,0,0,29,41.009a2.79,2.79,0,0,0-1.68-1.44l-2.038-.649,1.676-5.2,3.993-1.035a.726.726,0,0,0,.067.035l2.04.864.7,1.687-.831,2.054a.76.76,0,0,0,.167.822l2.084,2.084A.76.76,0,0,0,36,40.4l2.054-.831,1.687.7.077.181h-.88Zm7.636,0h-.833l.077-.181.757-.313v.494Zm1.52,0V39.8l1.464.593a.759.759,0,0,0,.2.049ZM49.666,38.8l-1.874-.759a.76.76,0,0,0-.576,0l-2.265.937a.76.76,0,0,0-.409.406l-.606,1.431a.756.756,0,0,0-.082.194l-.1.239H41.812l-.789-1.863a.76.76,0,0,0-.409-.406l-2.262-.937a.76.76,0,0,0-.576,0L35.9,38.8l-1.372-1.372.759-1.876a.76.76,0,0,0,0-.576l-.937-2.262a.76.76,0,0,0-.406-.409l-.658-.279a1.778,1.778,0,0,0,.835-1.959,1.876,1.876,0,0,0-.627-1.092l.449-.19a.76.76,0,0,0,.406-.409l.937-2.265a.76.76,0,0,0,0-.576l-.759-1.876L35.9,22.285l1.876.759a.76.76,0,0,0,.576,0l2.262-.937a.76.76,0,0,0,.409-.406l.789-1.863h1.942l.789,1.863a.76.76,0,0,0,.409.406l2.265.937a.76.76,0,0,0,.576,0l1.874-.759,1.374,1.373-.759,1.876a.76.76,0,0,0,0,.576l.937,2.265a.76.76,0,0,0,.406.409l1.863.789v1.942l-1.863.789a.76.76,0,0,0-.406.409l-.62,1.5c-.008.018-.016.037-.023.055l-.294.71a.76.76,0,0,0,0,.576l.759,1.876L49.666,38.8ZM42.784,24.442a6.1,6.1,0,1,0,6.1,6.1A6.106,6.106,0,0,0,42.784,24.442Zm0,10.679a4.58,4.58,0,1,1,4.58-4.58A4.585,4.585,0,0,1,42.784,35.121Zm0-7.4a2.827,2.827,0,1,0,2.825,2.825A2.83,2.83,0,0,0,42.784,27.716Zm0,4.133a1.307,1.307,0,1,1,1.305-1.308A1.309,1.309,0,0,1,42.784,31.849Z" transform="translate(0 0)"/>
      <path id="Trazado_1043958" data-name="Trazado 1043958" d="M99.534,245.024h1.346l1.364-4.316a1.327,1.327,0,0,0-.056-1.049,1.266,1.266,0,0,0-.781-.669l-6.038-1.922a1.966,1.966,0,0,0,1.364,1.833l3.6,1.147a.76.76,0,0,1,.493.957l-1.293,4.018Z" transform="translate(-74.545 -197.972)" fill="#4f7693"/>
      <path id="Trazado_1043959" data-name="Trazado 1043959" d="M56.969,259.2l-3.162,9.819h1.179l3.253-8.8A3.432,3.432,0,0,1,56.969,259.2Z" transform="translate(-36.931 -218.006)" fill="#4f7693"/>
      <path id="Trazado_1043960" data-name="Trazado 1043960" d="M282.909,98.8a4.58,4.58,0,1,0,4.58,4.58A4.585,4.585,0,0,0,282.909,98.8Zm0,7.407a2.827,2.827,0,1,1,2.825-2.828A2.831,2.831,0,0,1,282.909,106.209Z" transform="translate(-240.125 -72.84)" fill="#a7c7d3"/>
      <path id="Trazado_1043961" data-name="Trazado 1043961" d="M314.077,133.27a1.307,1.307,0,1,0,1.305,1.305A1.308,1.308,0,0,0,314.077,133.27Z" transform="translate(-271.293 -104.034)" fill="#fff"/>
      <path id="Trazado_1043962" data-name="Trazado 1043962" d="M244.286,38.138l-1.374-1.373-1.874.759a.76.76,0,0,1-.576,0l-2.265-.937a.76.76,0,0,1-.409-.406L237,34.316h-1.942l-.789,1.863a.76.76,0,0,1-.409.406l-2.262.937a.76.76,0,0,1-.576,0l-1.876-.759-1.372,1.372.759,1.876a.76.76,0,0,1,0,.576l-.937,2.265a.76.76,0,0,1-.406.409l-.449.19a1.877,1.877,0,0,1,.627,1.092,1.779,1.779,0,0,1-.835,1.959l.658.279a.76.76,0,0,1,.406.409l.937,2.262a.76.76,0,0,1,0,.576l-.759,1.876,1.372,1.372,1.876-.759a.76.76,0,0,1,.576,0l2.262.937a.76.76,0,0,1,.409.406l.789,1.863H237l.1-.239a.754.754,0,0,1,.082-.194l.606-1.431a.76.76,0,0,1,.409-.406l2.265-.937a.76.76,0,0,1,.576,0l1.874.759,1.374-1.373-.759-1.876a.76.76,0,0,1,0-.576l.294-.71c.007-.019.015-.037.023-.055l.62-1.5a.76.76,0,0,1,.406-.409l1.863-.789V44.052l-1.863-.789a.76.76,0,0,1-.406-.409l-.937-2.265a.76.76,0,0,1,0-.576l.759-1.876ZM236.03,51.121a6.1,6.1,0,1,1,6.1-6.1A6.106,6.106,0,0,1,236.03,51.121Z" transform="translate(-193.246 -14.48)" fill="#89b4c9"/>
      <path id="Trazado_1043963" data-name="Trazado 1043963" d="M101.054,144.321l-1.822,5.668,2.647.842,1.934-6.005,6.743-1.747c.171-.044.114-.347.113-.35-.02-.1-.073-.264-.215-.245l-8.581,1.152a.97.97,0,0,0-.818.685Z" transform="translate(-78.041 -112.371)" fill="#83d9ff"/>
      <path id="Trazado_1043964" data-name="Trazado 1043964" d="M383.935,202.071a.76.76,0,0,0,.2.049h-1.66v-.642Zm.452,23.078h8.393a.76.76,0,0,1-.76-.76V196.962h-5.832l.823,2.035a.76.76,0,0,1-.167.823l-2.087,2.084a.758.758,0,0,1-.452.216h.082a.76.76,0,0,1,.76.76v21.509a.76.76,0,0,1-.76.76Z" transform="translate(-334.374 -161.676)" fill="#43a3f9"/>
      <path id="Trazado_1043965" data-name="Trazado 1043965" d="M215.286,315.689V297.845h-9.55v2.182h1.917a.76.76,0,0,1,.76.76v14.9a.76.76,0,0,1-.76.76h8.393a.76.76,0,0,1-.76-.76Z" transform="translate(-174.427 -252.976)" fill="#ff8812"/>
      <path id="Trazado_1043966" data-name="Trazado 1043966" d="M303.642,288.009V267.26h-4.154l-.144.339a.76.76,0,0,1-.7.463H295.7a.76.76,0,0,1-.7-.463l-.143-.339h-.764v1.385h1.917a.76.76,0,0,1,.76.76v18.6a.76.76,0,0,1-.76.76h8.4a.76.76,0,0,1-.76-.76Z" transform="translate(-254.388 -225.296)" fill="#69d998"/>
      <path id="Trazado_1043967" data-name="Trazado 1043967" d="M131.392,81.273a2.088,2.088,0,1,0-2.046,2.512A2.318,2.318,0,0,0,131.392,81.273Z" transform="translate(-103.445 -54.703)" fill="#fedfc5"/>
      <path id="Trazado_1043968" data-name="Trazado 1043968" d="M31.312,388.748V378.573H21.76v10.175a.76.76,0,0,1-.76.76H32.072A.76.76,0,0,1,31.312,388.748Z" transform="translate(-7.24 -326.035)" fill="#ff84a7"/>
      <path id="Trazado_1043969" data-name="Trazado 1043969" d="M126.932,350.961V336.82h-9.55v2.446H119.3a.76.76,0,0,1,.76.76v10.935a.76.76,0,0,1-.76.76h8.393a.76.76,0,0,1-.76-.76Z" transform="translate(-94.466 -288.248)" fill="#ffb14c"/>
    </g>
  </g>
</svg>
