<svg xmlns="http://www.w3.org/2000/svg" xmlns:xlink="http://www.w3.org/1999/xlink" width="110" height="110" viewBox="0 0 110 110">
  <defs>
    <filter id="Trazado_982547" x="0" y="0" width="110" height="110" filterUnits="userSpaceOnUse">
      <feOffset dy="3" input="SourceAlpha"/>
      <feGaussianBlur stdDeviation="3" result="blur"/>
      <feFlood flood-opacity="0.161"/>
      <feComposite operator="in" in2="blur"/>
      <feComposite in="SourceGraphic"/>
    </filter>
  </defs>
  <g id="Grupo_1183370" data-name="Grupo 1183370" transform="translate(-11508 -2262.688)">
    <g id="Grupo_1182360" data-name="Grupo 1182360" transform="translate(10711 -1959.312)">
      <g id="Grupo_1171898" data-name="Grupo 1171898" transform="translate(806 4228)">
        <g id="Grupo_1164700" data-name="Grupo 1164700" transform="translate(0 0)">
          <g id="Grupo_1160931" data-name="Grupo 1160931" transform="translate(0 0)">
            <g id="Grupo_1160749" data-name="Grupo 1160749" transform="translate(0 0)">
              <g id="Grupo_1158891" data-name="Grupo 1158891" transform="translate(0 0)">
                <g id="Grupo_1157406" data-name="Grupo 1157406" transform="translate(0 0)">
                  <g id="Grupo_1155793" data-name="Grupo 1155793">
                    <g id="Grupo_1154704" data-name="Grupo 1154704">
                      <g id="Grupo_1150790" data-name="Grupo 1150790">
                        <g id="Grupo_1154214" data-name="Grupo 1154214">
                          <g id="Grupo_1152583" data-name="Grupo 1152583">
                            <g id="Grupo_1146973" data-name="Grupo 1146973">
                              <g id="Grupo_1146954" data-name="Grupo 1146954">
                                <g transform="matrix(1, 0, 0, 1, -9, -6)" filter="url(#Trazado_982547)">
                                  <g id="Trazado_982547-2" data-name="Trazado 982547" transform="translate(9 6)" fill="#f2f7f5">
                                    <path d="M 46.00000762939453 90.49987030029297 C 39.99188613891602 90.49987030029297 34.16427612304688 89.32350921630859 28.67906188964844 87.00345611572266 C 23.38020706176758 84.76224517822266 18.62104797363281 81.55341339111328 14.53375434875488 77.46613311767578 C 10.44647407531738 73.37885284423828 7.237647533416748 68.61969757080078 4.996420860290527 63.32085418701172 C 2.676367521286011 57.83565521240234 1.500007629394531 52.008056640625 1.500007629394531 45.99993515014648 C 1.500007629394531 39.99181365966797 2.676367521286011 34.16421508789062 4.996420860290527 28.67901420593262 C 7.237647533416748 23.38017463684082 10.44647407531738 18.62101554870605 14.53375434875488 14.53373527526855 C 18.62104797363281 10.44645500183105 23.38020706176758 7.23762845993042 28.67906188964844 4.996415138244629 C 34.16427612304688 2.676361799240112 39.99188613891602 1.500001788139343 46.00000762939453 1.500001788139343 C 52.00812911987305 1.500001788139343 57.83573913574219 2.676361799240112 63.32095336914062 4.996415138244629 C 68.61980438232422 7.23762845993042 73.37896728515625 10.44645500183105 77.46626281738281 14.53373527526855 C 81.55354309082031 18.62101554870605 84.76236724853516 23.38017463684082 87.00359344482422 28.67901420593262 C 89.32364654541016 34.16421508789062 90.50000762939453 39.99181365966797 90.50000762939453 45.99993515014648 C 90.50000762939453 52.008056640625 89.32364654541016 57.83565521240234 87.00359344482422 63.32085418701172 C 84.76236724853516 68.61969757080078 81.55354309082031 73.37885284423828 77.46626281738281 77.46613311767578 C 73.37896728515625 81.55341339111328 68.61980438232422 84.76224517822266 63.32095336914062 87.00345611572266 C 57.83573913574219 89.32350921630859 52.00812911987305 90.49987030029297 46.00000762939453 90.49987030029297 Z" stroke="none"/>
                                    <path d="M 46.00000762939453 2.999992370605469 C 40.19372177124023 2.999992370605469 34.56270599365234 4.136489868164062 29.26339340209961 6.377906799316406 C 24.14333343505859 8.543502807617188 19.54443359375 11.64437866210938 15.59442138671875 15.59437561035156 C 11.6444091796875 19.54439544677734 8.543533325195312 24.14329528808594 6.377937316894531 29.26333618164062 C 4.136505126953125 34.56264877319336 3.000007629394531 40.19366455078125 3.000007629394531 45.99993515014648 C 3.000007629394531 51.80620574951172 4.136505126953125 57.43720626831055 6.377937316894531 62.73651885986328 C 8.543533325195312 67.8565673828125 11.6444091796875 72.45545959472656 15.59442138671875 76.40547943115234 C 19.54443359375 80.35547637939453 24.14333343505859 83.45635223388672 29.26339340209961 85.6219482421875 C 34.56270599365234 87.86336517333984 40.19372177124023 88.99986267089844 46.00000762939453 88.99986267089844 C 51.80629348754883 88.99986267089844 57.43730926513672 87.86336517333984 62.73663711547852 85.6219482421875 C 67.85668182373047 83.45635223388672 72.45559692382812 80.35547637939453 76.40560913085938 76.40547943115234 C 80.35560607910156 72.45545959472656 83.45649719238281 67.8565673828125 85.62209320068359 62.73651885986328 C 87.86351013183594 57.43720626831055 89.00000762939453 51.80620574951172 89.00000762939453 45.99993515014648 C 89.00000762939453 40.19366455078125 87.86351013183594 34.56264877319336 85.62209320068359 29.26333618164062 C 83.45649719238281 24.14329528808594 80.35560607910156 19.54439544677734 76.40560913085938 15.59437561035156 C 72.45559692382812 11.64437866210938 67.85668182373047 8.543502807617188 62.73663711547852 6.377906799316406 C 57.43730926513672 4.136489868164062 51.80629348754883 2.999992370605469 46.00000762939453 2.999992370605469 M 46.00000762939453 -7.62939453125e-06 C 71.40510559082031 -7.62939453125e-06 92.00000762939453 20.59486389160156 92.00000762939453 45.99993515014648 C 92.00000762939453 71.40499114990234 71.40510559082031 91.99986267089844 46.00000762939453 91.99986267089844 C 20.59492492675781 91.99986267089844 7.62939453125e-06 71.40499114990234 7.62939453125e-06 45.99993515014648 C 7.62939453125e-06 20.59486389160156 20.59492492675781 -7.62939453125e-06 46.00000762939453 -7.62939453125e-06 Z" stroke="none" fill="#4a665c"/>
                                  </g>
                                </g>
                              </g>
                            </g>
                          </g>
                        </g>
                      </g>
                    </g>
                  </g>
                </g>
              </g>
            </g>
          </g>
        </g>
      </g>
    </g>
    <g id="distribucion" transform="translate(11526.922 2281.102)">
      <g id="Grupo_1183368" data-name="Grupo 1183368" transform="translate(5.25 0.947)">
        <path id="Trazado_1044801" data-name="Trazado 1044801" d="M170.643,96.244l4.972-7.322a23.3,23.3,0,0,0-3.935-8.662L149.2,79.78l-15.032.077A23.408,23.408,0,0,0,166.63,112.93Z" transform="translate(-114.525 -70.655)" fill="#b7efff"/>
        <g id="Grupo_1183366" data-name="Grupo 1183366" transform="translate(36.464 9.527)">
          <path id="Trazado_1044802" data-name="Trazado 1044802" d="M317.373,306.314a23.374,23.374,0,0,1-16.735,9.024q.884.067,1.786.067a23.3,23.3,0,0,0,13.855-4.541Z" transform="translate(-300.638 -278.117)" fill="#99e6fc"/>
          <path id="Trazado_1044803" data-name="Trazado 1044803" d="M443.366,91.705a23.3,23.3,0,0,0-3.935-8.662l-3.626-.077a23.292,23.292,0,0,1,4.547,13.18Z" transform="translate(-418.741 -82.966)" fill="#99e6fc"/>
        </g>
        <path id="Trazado_1044804" data-name="Trazado 1044804" d="M203.772,18.566a12.48,12.48,0,0,0,1.161-1.461,23.407,23.407,0,0,0-37.508-.4c.656,2.787,2.008,6.093,4.733,6.076,4.708-.029,7.34-3.578,12.445-1.84s10.336,7.234,19.17-2.371Z" transform="translate(-147.777 -7.5)" fill="#5de1c4"/>
        <path id="Trazado_1044805" data-name="Trazado 1044805" d="M319.406,19.485c.29-.29.583-.6.881-.919a12.483,12.483,0,0,0,1.161-1.461,23.374,23.374,0,0,0-18.9-9.6c-.6,0-1.184.025-1.768.068A23.409,23.409,0,0,1,319.406,19.485Z" transform="translate(-264.292 -7.5)" fill="#0ed2b3"/>
        <path id="Trazado_1044806" data-name="Trazado 1044806" d="M409.92,152.088c-2.622-.1-5.875.312-7.669,2.611-3.33,4.269-.512,5.55-3.629,9.307-1.478,1.781-2.09,8.256,2.313,12.091a23.436,23.436,0,0,0,8.985-24.009Z" transform="translate(-348.829 -133.822)" fill="#5de1c4"/>
        <path id="Trazado_1044807" data-name="Trazado 1044807" d="M422.951,152.089a14.553,14.553,0,0,0-3.516.253,23.434,23.434,0,0,1-6.995,22.066,9.492,9.492,0,0,0,1.526,1.69,23.436,23.436,0,0,0,8.985-24.009Z" transform="translate(-361.861 -133.822)" fill="#0ed2b3"/>
        <path id="Trazado_1044808" data-name="Trazado 1044808" d="M191.024,167.09a4.793,4.793,0,0,1,5.749-2.512,10.255,10.255,0,0,1,3.021,1.573c4,3,5.921,6.5,5.17,9.006s-13.343,5.751-16.6-.46C185.7,169.6,189.447,170.291,191.024,167.09Z" transform="translate(-165.264 -144.551)" fill="#5de1c4"/>
        <path id="Trazado_1044809" data-name="Trazado 1044809" d="M236.915,166.152a10.254,10.254,0,0,0-3.021-1.573,4.687,4.687,0,0,0-3.972.525,4.649,4.649,0,0,1,1.485.225,10.255,10.255,0,0,1,3.021,1.573c4,3,5.921,6.5,5.17,9.006-.2.656-1.208,1.363-2.651,1.938,2.691-.592,4.841-1.7,5.138-2.687.751-2.5-1.168-6-5.17-9.006Z" transform="translate(-202.385 -144.552)" fill="#0ed2b3"/>
        <path id="Trazado_1044810" data-name="Trazado 1044810" d="M273.117,314.378h-3.449a1.235,1.235,0,0,1-1.162-.818l-.34-.948-5.579-3.3-3.559-3.3H252.9a1.235,1.235,0,0,0-1.235,1.235V324.2h21.449a1.235,1.235,0,0,0,1.235-1.235v-7.349A1.235,1.235,0,0,0,273.117,314.378Z" transform="translate(-221.386 -268.329)" fill="#82aee3"/>
        <g id="Grupo_1183367" data-name="Grupo 1183367" transform="translate(49.144 46.049)">
          <path id="Trazado_1044811" data-name="Trazado 1044811" d="M403.659,372.253h-2.588a1.235,1.235,0,0,1,1.235,1.235v7.349a1.235,1.235,0,0,1-1.235,1.235h2.588a1.235,1.235,0,0,0,1.235-1.235v-7.349A1.235,1.235,0,0,0,403.659,372.253Z" transform="translate(-401.071 -372.253)" fill="#528fd8"/>
        </g>
        <circle id="Elipse_13166" data-name="Elipse 13166" cx="4.757" cy="4.757" r="4.757" transform="translate(35.345 53.231)" fill="#6c5e69"/>
        <path id="Trazado_1044812" data-name="Trazado 1044812" d="M319.423,429.144a4.758,4.758,0,0,0-1.449.225,4.758,4.758,0,0,1,0,9.063,4.757,4.757,0,1,0,1.449-9.288Z" transform="translate(-279.321 -375.913)" fill="#574d56"/>
        <path id="Trazado_1044813" data-name="Trazado 1044813" d="M42.085,414.8H15.141a3.338,3.338,0,0,1-3.338-3.338v-1.751H42.085Z" transform="translate(-11.803 -358.938)" fill="#ad9ca9"/>
        <path id="Trazado_1044814" data-name="Trazado 1044814" d="M233.568,409.716h2.285V414.8h-2.285Z" transform="translate(-205.571 -358.938)" fill="#988393"/>
        <path id="Trazado_1044815" data-name="Trazado 1044815" d="M57.2,247.389H36.446a1.351,1.351,0,0,1-1.351-1.351V225.286a1.351,1.351,0,0,1,1.351-1.351H57.2a1.351,1.351,0,0,1,1.351,1.351v20.753A1.351,1.351,0,0,1,57.2,247.389Z" transform="translate(-32.154 -196.611)" fill="#fdb441"/>
        <path id="Trazado_1044816" data-name="Trazado 1044816" d="M193.856,223.935H191.5a1.351,1.351,0,0,1,1.351,1.351v20.753a1.351,1.351,0,0,1-1.351,1.351h2.358a1.351,1.351,0,0,0,1.351-1.351V225.286A1.351,1.351,0,0,0,193.856,223.935Z" transform="translate(-168.812 -196.611)" fill="#fea713"/>
        <path id="Trazado_1044817" data-name="Trazado 1044817" d="M113.262,229.492l-1.323-.924a.482.482,0,0,0-.552,0l-1.323.924a.483.483,0,0,1-.759-.4v-5.162h4.717V229.1A.482.482,0,0,1,113.262,229.492Z" transform="translate(-96.995 -196.611)" fill="#ffe177"/>
        <path id="Trazado_1044818" data-name="Trazado 1044818" d="M114.022,388.162h-4.717V385.6a.547.547,0,0,1,.547-.547h3.622a.547.547,0,0,1,.547.547Z" transform="translate(-96.996 -337.384)" fill="#ffe177"/>
        <path id="Trazado_1044819" data-name="Trazado 1044819" d="M315.868,306.016h-5.9v5.274a1.323,1.323,0,0,0,1.323,1.323H319.1l-2.075-5.779A1.235,1.235,0,0,0,315.868,306.016Z" transform="translate(-272.325 -268.329)" fill="#faf7f8"/>
        <path id="Trazado_1044820" data-name="Trazado 1044820" d="M337.372,306.834l2.075,5.779h2.588l-2.075-5.779a1.235,1.235,0,0,0-1.162-.818H336.21A1.235,1.235,0,0,1,337.372,306.834Z" transform="translate(-295.255 -268.329)" fill="#e5eef9"/>
        <circle id="Elipse_13167" data-name="Elipse 13167" cx="4.757" cy="4.757" r="4.757" transform="translate(9.911 53.231)" fill="#6c5e69"/>
        <path id="Trazado_1044821" data-name="Trazado 1044821" d="M117.961,429.144a4.758,4.758,0,0,0-1.449.225,4.758,4.758,0,0,1,0,9.063,4.757,4.757,0,1,0,1.449-9.288Z" transform="translate(-103.293 -375.913)" fill="#574d56"/>
      </g>
      <g id="Grupo_1183369" data-name="Grupo 1183369" transform="translate(4.303)">
        <path id="Trazado_1044822" data-name="Trazado 1044822" d="M67.855,24.355a24.355,24.355,0,0,0-48.71,0,24.684,24.684,0,0,0,.18,2.969H9.541a2.3,2.3,0,0,0-2.3,2.3v8.546a.947.947,0,0,0,1.894,0V29.622a.4.4,0,0,1,.4-.4h7.071v4.215A1.429,1.429,0,0,0,18.86,34.6l1.058-.738,1.058.738a1.429,1.429,0,0,0,2.248-1.172V29.218h7.071a.4.4,0,0,1,.4.4V50.375a.4.4,0,0,1-.4.4H23.223v-1.62a1.5,1.5,0,0,0-1.494-1.494H18.106a1.5,1.5,0,0,0-1.494,1.494v1.62H9.541a.4.4,0,0,1-.4-.4V41.829a.947.947,0,0,0-1.894,0v8.546a2.3,2.3,0,0,0,.036.4H5.25a.947.947,0,0,0-.947.947v1.751a4.289,4.289,0,0,0,4.284,4.284h5.748a5.7,5.7,0,1,0,11.164,0H39.77a5.705,5.705,0,0,0,8.065,6.31.947.947,0,1,0-.825-1.7,3.775,3.775,0,0,1-1.658.379,3.811,3.811,0,1,1,3.6-2.574.947.947,0,0,0,1.791.614,5.713,5.713,0,0,0,.187-3.024h6.048a2.184,2.184,0,0,0,2.182-2.182V48.231a2.184,2.184,0,0,0-2.182-2.182h-2.4A24.318,24.318,0,0,0,67.855,24.355Zm-10.4-7.794a23.373,23.373,0,0,0,4.489-3.907q.218-.237.422-.48a22.365,22.365,0,0,1,2.757,6.086,10.464,10.464,0,0,0-5.8,1.66A25.566,25.566,0,0,0,57.453,16.56ZM21.039,24.355a22.329,22.329,0,0,1,3.5-12.03c1.383,3.946,3.461,4.846,5.069,4.846h.027a14.726,14.726,0,0,0,5.377-1.261c2.18-.83,4.063-1.546,6.757-.629a26.826,26.826,0,0,1,2.7,1.158c.658.31,1.339.631,2.043.922a.947.947,0,0,0,.724-1.75c-.662-.274-1.322-.585-1.96-.885a28.584,28.584,0,0,0-2.9-1.237c-3.34-1.137-5.73-.228-8.041.652a13.032,13.032,0,0,1-4.715,1.138H29.61c-2.047,0-3.157-2.887-3.681-4.9a22.437,22.437,0,0,1,35.294.193c-.209.271-.435.539-.676.8a21.236,21.236,0,0,1-4.2,3.642,23.265,23.265,0,0,0-3.134-3.308,20.476,20.476,0,0,0-7.434-4.245.947.947,0,0,0-.483,1.831A19.009,19.009,0,0,1,52.042,13.2a21.841,21.841,0,0,1,2.611,2.707,7.926,7.926,0,0,1-4.025.634.947.947,0,0,0-.186,1.885q.5.049.993.049a10.255,10.255,0,0,0,4.374-1.005A23.2,23.2,0,0,1,57.883,21.3a8.623,8.623,0,0,0-2.055,5.362,5.679,5.679,0,0,1-1.514,3.87c-.975,1.175-1.482,3.573-1.263,5.966a11.277,11.277,0,0,0,2.831,6.61,22.571,22.571,0,0,1-3.01,1.67l-2.026-5.643a2.186,2.186,0,0,0-2.053-1.444H36.767a2.184,2.184,0,0,0-2.182,2.182v5.109c-.68-.294-1.346-.623-1.993-.983V35.229a14.072,14.072,0,0,0,3.4.389A17.918,17.918,0,0,0,43.6,33.947a4.031,4.031,0,0,0,2.259-2.121c.892-2.973-1.219-6.818-5.509-10.036a11.23,11.23,0,0,0-3.3-1.717,5.71,5.71,0,0,0-6.888,3,5.9,5.9,0,0,1-1.768,1.978,4.623,4.623,0,0,0-1.8,2.278H21.233a22.746,22.746,0,0,1-.195-2.969Zm22.8,15.225h4.954a.288.288,0,0,1,.271.191l1.62,4.513H44.214a.376.376,0,0,1-.376-.376V39.58Zm-22.51-7.038-.593-.414a1.434,1.434,0,0,0-1.636,0l-.593.414V29.218h2.823v3.324Zm8.965-5.218H28.7a6.629,6.629,0,0,1,.891-.809,7.649,7.649,0,0,0,2.272-2.61,3.829,3.829,0,0,1,4.609-2.03A9.341,9.341,0,0,1,39.212,23.3c3.528,2.646,5.469,5.851,4.832,7.977-.034.1-.36.516-1.38,1.016a15.511,15.511,0,0,1-10.071.967V29.622a2.3,2.3,0,0,0-2.3-2.3Zm2.3,23.05V46.136c.651.327,1.317.624,1.993.89v3.752H32.556A2.3,2.3,0,0,0,32.592,50.375Zm-14.086-.817h2.823v1.221H18.506Zm1.412,13.187a3.81,3.81,0,1,1,3.81-3.81A3.814,3.814,0,0,1,19.918,62.745Zm0-9.513a5.7,5.7,0,0,0-4.806,2.636H8.587A2.394,2.394,0,0,1,6.2,53.476v-.8H34.585v3.195H24.724a5.7,5.7,0,0,0-4.806-2.636Zm37.351-5v.382H56.146a.947.947,0,1,0,0,1.894h1.123v5.072a.288.288,0,0,1-.288.288H50.158a5.7,5.7,0,0,0-9.613,0H36.479v-16a.288.288,0,0,1,.288-.288h5.179v4.328a2.272,2.272,0,0,0,2.269,2.269h7.149l.115.321a2.186,2.186,0,0,0,2.053,1.444h3.449A.288.288,0,0,1,57.269,48.231Zm.16-6.244c-3.3-3.441-2.827-8.842-1.658-10.25A7.566,7.566,0,0,0,57.716,26.8a6.577,6.577,0,0,1,.976-3.353,31.288,31.288,0,0,1,1.355,6.624.947.947,0,0,0,.941.853.928.928,0,0,0,.095,0,.947.947,0,0,0,.848-1.036,31.952,31.952,0,0,0-1.858-8.16,8.65,8.65,0,0,1,5.491-1.579,22.5,22.5,0,0,1-8.136,21.84Z" transform="translate(-4.303)"/>
        <path id="Trazado_1044823" data-name="Trazado 1044823" d="M301.728,44.733a.947.947,0,0,0-1.251.478l-.661,1.48a.947.947,0,1,0,1.729.773l.661-1.48A.947.947,0,0,0,301.728,44.733Z" transform="translate(-262.436 -39.013)"/>
        <path id="Trazado_1044824" data-name="Trazado 1044824" d="M444.372,251.947h-1.822a.947.947,0,0,0,0,1.894h1.822a.947.947,0,1,0,0-1.894Z" transform="translate(-386.396 -220.14)"/>
        <path id="Trazado_1044825" data-name="Trazado 1044825" d="M55.577,364.534V364.1a.947.947,0,0,0-1.894,0v.434a.947.947,0,0,0,1.894,0Z" transform="translate(-47.449 -317.306)"/>
        <path id="Trazado_1044826" data-name="Trazado 1044826" d="M83.235,364.534V364.1a.947.947,0,0,0-1.894,0v.434a.947.947,0,0,0,1.894,0Z" transform="translate(-71.615 -317.306)"/>
      </g>
    </g>
  </g>
</svg>
