<svg xmlns="http://www.w3.org/2000/svg" xmlns:xlink="http://www.w3.org/1999/xlink" width="110" height="110" viewBox="0 0 110 110">
  <defs>
    <filter id="Trazado_982547" x="0" y="0" width="110" height="110" filterUnits="userSpaceOnUse">
      <feOffset dy="3" input="SourceAlpha"/>
      <feGaussianBlur stdDeviation="3" result="blur"/>
      <feFlood flood-opacity="0.161"/>
      <feComposite operator="in" in2="blur"/>
      <feComposite in="SourceGraphic"/>
    </filter>
  </defs>
  <g id="Grupo_1183390" data-name="Grupo 1183390" transform="translate(-11824 -2262)">
    <g id="Grupo_1182361" data-name="Grupo 1182361" transform="translate(10711 -1959.757)">
      <g id="Grupo_1172349" data-name="Grupo 1172349" transform="translate(1122 4227.757)">
        <g id="Grupo_1164700" data-name="Grupo 1164700" transform="translate(0 0)">
          <g id="Grupo_1160931" data-name="Grupo 1160931" transform="translate(0 0)">
            <g id="Grupo_1160749" data-name="Grupo 1160749" transform="translate(0 0)">
              <g id="Grupo_1158891" data-name="Grupo 1158891" transform="translate(0 0)">
                <g id="Grupo_1157406" data-name="Grupo 1157406" transform="translate(0 0)">
                  <g id="Grupo_1155793" data-name="Grupo 1155793">
                    <g id="Grupo_1154704" data-name="Grupo 1154704">
                      <g id="Grupo_1150790" data-name="Grupo 1150790">
                        <g id="Grupo_1154214" data-name="Grupo 1154214">
                          <g id="Grupo_1152583" data-name="Grupo 1152583">
                            <g id="Grupo_1146973" data-name="Grupo 1146973">
                              <g id="Grupo_1146954" data-name="Grupo 1146954">
                                <g transform="matrix(1, 0, 0, 1, -9, -6)" filter="url(#Trazado_982547)">
                                  <g id="Trazado_982547-2" data-name="Trazado 982547" transform="translate(9 6)" fill="#f2f7f5">
                                    <path d="M 46.00000762939453 90.49987030029297 C 39.99188613891602 90.49987030029297 34.16427612304688 89.32350921630859 28.67906188964844 87.00345611572266 C 23.38020706176758 84.76224517822266 18.62104797363281 81.55341339111328 14.53375434875488 77.46613311767578 C 10.44647407531738 73.37885284423828 7.237647533416748 68.61969757080078 4.996420860290527 63.32085418701172 C 2.676367521286011 57.83565521240234 1.500007629394531 52.008056640625 1.500007629394531 45.99993515014648 C 1.500007629394531 39.99181365966797 2.676367521286011 34.16421508789062 4.996420860290527 28.67901420593262 C 7.237647533416748 23.38017463684082 10.44647407531738 18.62101554870605 14.53375434875488 14.53373527526855 C 18.62104797363281 10.44645500183105 23.38020706176758 7.23762845993042 28.67906188964844 4.996415138244629 C 34.16427612304688 2.676361799240112 39.99188613891602 1.500001788139343 46.00000762939453 1.500001788139343 C 52.00812911987305 1.500001788139343 57.83573913574219 2.676361799240112 63.32095336914062 4.996415138244629 C 68.61980438232422 7.23762845993042 73.37896728515625 10.44645500183105 77.46626281738281 14.53373527526855 C 81.55354309082031 18.62101554870605 84.76236724853516 23.38017463684082 87.00359344482422 28.67901420593262 C 89.32364654541016 34.16421508789062 90.50000762939453 39.99181365966797 90.50000762939453 45.99993515014648 C 90.50000762939453 52.008056640625 89.32364654541016 57.83565521240234 87.00359344482422 63.32085418701172 C 84.76236724853516 68.61969757080078 81.55354309082031 73.37885284423828 77.46626281738281 77.46613311767578 C 73.37896728515625 81.55341339111328 68.61980438232422 84.76224517822266 63.32095336914062 87.00345611572266 C 57.83573913574219 89.32350921630859 52.00812911987305 90.49987030029297 46.00000762939453 90.49987030029297 Z" stroke="none"/>
                                    <path d="M 46.00000762939453 2.999992370605469 C 40.19372177124023 2.999992370605469 34.56270599365234 4.136489868164062 29.26339340209961 6.377906799316406 C 24.14333343505859 8.543502807617188 19.54443359375 11.64437866210938 15.59442138671875 15.59437561035156 C 11.6444091796875 19.54439544677734 8.543533325195312 24.14329528808594 6.377937316894531 29.26333618164062 C 4.136505126953125 34.56264877319336 3.000007629394531 40.19366455078125 3.000007629394531 45.99993515014648 C 3.000007629394531 51.80620574951172 4.136505126953125 57.43720626831055 6.377937316894531 62.73651885986328 C 8.543533325195312 67.8565673828125 11.6444091796875 72.45545959472656 15.59442138671875 76.40547943115234 C 19.54443359375 80.35547637939453 24.14333343505859 83.45635223388672 29.26339340209961 85.6219482421875 C 34.56270599365234 87.86336517333984 40.19372177124023 88.99986267089844 46.00000762939453 88.99986267089844 C 51.80629348754883 88.99986267089844 57.43730926513672 87.86336517333984 62.73663711547852 85.6219482421875 C 67.85668182373047 83.45635223388672 72.45559692382812 80.35547637939453 76.40560913085938 76.40547943115234 C 80.35560607910156 72.45545959472656 83.45649719238281 67.8565673828125 85.62209320068359 62.73651885986328 C 87.86351013183594 57.43720626831055 89.00000762939453 51.80620574951172 89.00000762939453 45.99993515014648 C 89.00000762939453 40.19366455078125 87.86351013183594 34.56264877319336 85.62209320068359 29.26333618164062 C 83.45649719238281 24.14329528808594 80.35560607910156 19.54439544677734 76.40560913085938 15.59437561035156 C 72.45559692382812 11.64437866210938 67.85668182373047 8.543502807617188 62.73663711547852 6.377906799316406 C 57.43730926513672 4.136489868164062 51.80629348754883 2.999992370605469 46.00000762939453 2.999992370605469 M 46.00000762939453 -7.62939453125e-06 C 71.40510559082031 -7.62939453125e-06 92.00000762939453 20.59486389160156 92.00000762939453 45.99993515014648 C 92.00000762939453 71.40499114990234 71.40510559082031 91.99986267089844 46.00000762939453 91.99986267089844 C 20.59492492675781 91.99986267089844 7.62939453125e-06 71.40499114990234 7.62939453125e-06 45.99993515014648 C 7.62939453125e-06 20.59486389160156 20.59492492675781 -7.62939453125e-06 46.00000762939453 -7.62939453125e-06 Z" stroke="none" fill="#4a665c"/>
                                  </g>
                                </g>
                              </g>
                            </g>
                          </g>
                        </g>
                      </g>
                    </g>
                  </g>
                </g>
              </g>
            </g>
          </g>
        </g>
      </g>
    </g>
    <g id="satisfaccion" transform="translate(11784.458 2282.437)">
      <g id="Grupo_1183378" data-name="Grupo 1183378" transform="translate(72.35 0.94)">
        <g id="Grupo_1183371" data-name="Grupo 1183371" transform="translate(0 22.038)">
          <circle id="Elipse_13168" data-name="Elipse 13168" cx="9.104" cy="9.104" r="9.104" fill="#e94444"/>
        </g>
        <g id="Grupo_1183372" data-name="Grupo 1183372" transform="translate(0 44.075)">
          <circle id="Elipse_13169" data-name="Elipse 13169" cx="9.104" cy="9.104" r="9.104" fill="#60b7ff"/>
        </g>
        <g id="Grupo_1183373" data-name="Grupo 1183373" transform="translate(2.878 22.95)">
          <path id="Trazado_1044827" data-name="Trazado 1044827" d="M117.205,198.829a9.1,9.1,0,0,1-15.329,6.641,9.1,9.1,0,0,0,10.2-14.832A9.1,9.1,0,0,1,117.205,198.829Z" transform="translate(-101.876 -190.638)" fill="#d83131"/>
        </g>
        <g id="Grupo_1183374" data-name="Grupo 1183374" transform="translate(2.878 44.988)">
          <path id="Trazado_1044828" data-name="Trazado 1044828" d="M117.205,374.684a9.1,9.1,0,0,1-15.329,6.641,9.1,9.1,0,0,0,10.2-14.832A9.1,9.1,0,0,1,117.205,374.684Z" transform="translate(-101.876 -366.493)" fill="#26a6fe"/>
        </g>
        <g id="Grupo_1183377" data-name="Grupo 1183377" transform="translate(0)">
          <g id="Grupo_1183375" data-name="Grupo 1183375">
            <circle id="Elipse_13170" data-name="Elipse 13170" cx="9.104" cy="9.104" r="9.104" fill="#f4d902"/>
          </g>
          <g id="Grupo_1183376" data-name="Grupo 1183376" transform="translate(2.878 0.913)">
            <path id="Trazado_1044829" data-name="Trazado 1044829" d="M117.205,22.974a9.1,9.1,0,0,1-15.329,6.641,9.1,9.1,0,0,0,10.2-14.832A9.1,9.1,0,0,1,117.205,22.974Z" transform="translate(-101.876 -14.783)" fill="#e3ca00"/>
          </g>
        </g>
      </g>
      <g id="Grupo_1183389" data-name="Grupo 1183389" transform="translate(71.41 0)">
        <g id="Grupo_1183379" data-name="Grupo 1183379" transform="translate(25.371 4.897)">
          <path id="Trazado_1044830" data-name="Trazado 1044830" d="M283.144,49.367h-8.265a1.014,1.014,0,0,1-1.014-1.014V40.088a1.014,1.014,0,0,1,1.014-1.014h8.264a1.014,1.014,0,0,1,1.014,1.014v8.264A1.014,1.014,0,0,1,283.144,49.367Z" transform="translate(-273.865 -39.074)" fill="#eaf6ff"/>
        </g>
        <g id="Grupo_1183380" data-name="Grupo 1183380" transform="translate(25.371 26.934)">
          <path id="Trazado_1044831" data-name="Trazado 1044831" d="M283.144,225.223h-8.265a1.014,1.014,0,0,1-1.014-1.014v-8.264a1.014,1.014,0,0,1,1.014-1.014h8.264a1.014,1.014,0,0,1,1.014,1.014v8.264A1.014,1.014,0,0,1,283.144,225.223Z" transform="translate(-273.865 -214.93)" fill="#eaf6ff"/>
        </g>
        <g id="Grupo_1183381" data-name="Grupo 1183381" transform="translate(25.371 48.972)">
          <path id="Trazado_1044832" data-name="Trazado 1044832" d="M283.144,401.08h-8.265a1.014,1.014,0,0,1-1.014-1.014V391.8a1.014,1.014,0,0,1,1.014-1.014h8.264a1.014,1.014,0,0,1,1.014,1.014v8.264A1.014,1.014,0,0,1,283.144,401.08Z" transform="translate(-273.865 -390.787)" fill="#eaf6ff"/>
        </g>
        <g id="Grupo_1183382" data-name="Grupo 1183382" transform="translate(32.139 4.896)">
          <path id="Trazado_1044833" data-name="Trazado 1044833" d="M331.4,40.088v8.265a1.014,1.014,0,0,1-1.015,1.013h-2.511a1.014,1.014,0,0,0,1.015-1.013V40.088a1.015,1.015,0,0,0-1.015-1.015h2.511A1.015,1.015,0,0,1,331.4,40.088Z" transform="translate(-327.872 -39.073)" fill="#d8ecfe"/>
        </g>
        <g id="Grupo_1183383" data-name="Grupo 1183383" transform="translate(32.139 26.934)">
          <path id="Trazado_1044834" data-name="Trazado 1044834" d="M331.4,215.942v8.265a1.015,1.015,0,0,1-1.015,1.015h-2.511a1.015,1.015,0,0,0,1.015-1.015v-8.265a1.015,1.015,0,0,0-1.015-1.015h2.511A1.015,1.015,0,0,1,331.4,215.942Z" transform="translate(-327.872 -214.927)" fill="#d8ecfe"/>
        </g>
        <g id="Grupo_1183384" data-name="Grupo 1183384" transform="translate(32.139 48.972)">
          <path id="Trazado_1044835" data-name="Trazado 1044835" d="M331.4,391.805v8.265a1.015,1.015,0,0,1-1.015,1.015h-2.511a1.015,1.015,0,0,0,1.015-1.015v-8.265a1.014,1.014,0,0,0-1.015-1.013h2.511A1.014,1.014,0,0,1,331.4,391.805Z" transform="translate(-327.872 -390.792)" fill="#d8ecfe"/>
        </g>
        <g id="Grupo_1183388" data-name="Grupo 1183388" transform="translate(0)">
          <g id="Grupo_1183385" data-name="Grupo 1183385" transform="translate(30.517 5.879)">
            <path id="Trazado_1044836" data-name="Trazado 1044836" d="M326.018,47.553l-5.664,5.664a.126.126,0,0,1-.178,0L318.658,51.7a2.181,2.181,0,0,0-3.085,3.085l3.848,3.848a1.192,1.192,0,0,0,1.686,0l7.995-7.995a2.181,2.181,0,1,0-3.085-3.085Z" transform="translate(-314.934 -46.914)" fill="#97d729"/>
          </g>
          <g id="Grupo_1183386" data-name="Grupo 1183386" transform="translate(33.932 6.133)">
            <path id="Trazado_1044837" data-name="Trazado 1044837" d="M352.934,52.413l-8,7.994a1.192,1.192,0,0,1-1.685,0l-1.073-1.073a1.253,1.253,0,0,0,1.141-.343l8.419-8.447a2.306,2.306,0,0,0,.673-1.6,2.211,2.211,0,0,1,.521.384,2.183,2.183,0,0,1,0,3.085Z" transform="translate(-342.18 -48.943)" fill="#8bc727"/>
          </g>
          <g id="Grupo_1183387" data-name="Grupo 1183387">
            <path id="Trazado_1044838" data-name="Trazado 1044838" d="M81.453,0A10.043,10.043,0,1,0,91.5,10.043,10.055,10.055,0,0,0,81.453,0Zm0,18.207a8.164,8.164,0,1,1,8.164-8.164A8.173,8.173,0,0,1,81.453,18.207Z" transform="translate(-71.41 0)"/>
            <path id="Trazado_1044839" data-name="Trazado 1044839" d="M118.472,59.992V58.551a.94.94,0,1,0-1.879,0v1.441a.94.94,0,1,0,1.879,0Z" transform="translate(-110.931 -50.391)"/>
            <path id="Trazado_1044840" data-name="Trazado 1044840" d="M172.457,57.612a.94.94,0,0,0-.94.94v1.441a.94.94,0,0,0,1.879,0V58.552A.94.94,0,0,0,172.457,57.612Z" transform="translate(-158.972 -50.392)"/>
            <path id="Trazado_1044841" data-name="Trazado 1044841" d="M134.234,97.366a.94.94,0,0,0-1.324.114,1.54,1.54,0,0,1-2.361,0,.94.94,0,1,0-1.441,1.206,3.419,3.419,0,0,0,5.24.006A.94.94,0,0,0,134.234,97.366Z" transform="translate(-121.686 -84.968)"/>
            <path id="Trazado_1044842" data-name="Trazado 1044842" d="M81.453,175.856A10.043,10.043,0,1,0,91.5,185.9,10.055,10.055,0,0,0,81.453,175.856Zm0,18.207a8.164,8.164,0,1,1,8.164-8.164A8.173,8.173,0,0,1,81.453,194.063Z" transform="translate(-71.41 -153.818)"/>
            <path id="Trazado_1044843" data-name="Trazado 1044843" d="M118.472,234.409a.94.94,0,0,0-1.879,0v1.441a.94.94,0,1,0,1.879,0Z" transform="translate(-110.931 -204.212)"/>
            <path id="Trazado_1044844" data-name="Trazado 1044844" d="M172.457,233.469a.94.94,0,0,0-.94.94v1.441a.94.94,0,1,0,1.879,0v-1.441A.94.94,0,0,0,172.457,233.469Z" transform="translate(-158.972 -204.212)"/>
            <path id="Trazado_1044845" data-name="Trazado 1044845" d="M134.058,273.578H130.4a.94.94,0,1,0,0,1.879h3.658a.94.94,0,1,0,0-1.879Z" transform="translate(-122.185 -239.294)"/>
            <path id="Trazado_1044846" data-name="Trazado 1044846" d="M81.453,351.713A10.055,10.055,0,0,0,71.41,361.756c0,.28.012.564.035.842a.94.94,0,1,0,1.873-.155c-.019-.227-.028-.458-.028-.687a8.161,8.161,0,1,1,1.289,4.4A.94.94,0,0,0,73,367.177a10.044,10.044,0,1,0,8.456-15.464Z" transform="translate(-71.41 -307.638)"/>
            <path id="Trazado_1044847" data-name="Trazado 1044847" d="M117.533,409.325a.94.94,0,0,0-.94.94v1.441a.94.94,0,0,0,1.879,0v-1.441A.94.94,0,0,0,117.533,409.325Z" transform="translate(-110.931 -358.03)"/>
            <path id="Trazado_1044848" data-name="Trazado 1044848" d="M172.457,412.646a.94.94,0,0,0,.94-.94v-1.441a.94.94,0,0,0-1.879,0v1.441A.94.94,0,0,0,172.457,412.646Z" transform="translate(-158.972 -358.031)"/>
            <path id="Trazado_1044849" data-name="Trazado 1044849" d="M131.728,445.308a3.413,3.413,0,0,0-2.618,1.22.94.94,0,0,0,1.438,1.21,1.54,1.54,0,0,1,2.361,0,.94.94,0,0,0,1.441-1.206A3.413,3.413,0,0,0,131.728,445.308Z" transform="translate(-121.687 -389.504)"/>
            <path id="Trazado_1044850" data-name="Trazado 1044850" d="M276.586,207.432h-8.265a1.956,1.956,0,0,0-1.954,1.954v8.265a1.956,1.956,0,0,0,1.954,1.954h8.265a1.956,1.956,0,0,0,1.954-1.954v-8.265A1.956,1.956,0,0,0,276.586,207.432Zm.075,10.219a.075.075,0,0,1-.075.075h-8.265a.075.075,0,0,1-.075-.075v-8.265a.075.075,0,0,1,.075-.075h8.265a.075.075,0,0,1,.075.075Z" transform="translate(-241.936 -181.438)"/>
            <path id="Trazado_1044851" data-name="Trazado 1044851" d="M276.586,383.289h-8.265a1.956,1.956,0,0,0-1.954,1.954v8.264a1.956,1.956,0,0,0,1.954,1.954h8.265a1.956,1.956,0,0,0,1.954-1.954v-8.264A1.956,1.956,0,0,0,276.586,383.289Zm.075,10.219a.075.075,0,0,1-.075.075h-8.265a.075.075,0,0,1-.075-.075v-8.265a.075.075,0,0,1,.075-.075h8.265a.075.075,0,0,1,.075.075Z" transform="translate(-241.936 -335.257)"/>
            <path id="Trazado_1044852" data-name="Trazado 1044852" d="M287.285,33.473a3.121,3.121,0,0,0-4.414,0l-1.062,1.062a.94.94,0,0,0,1.329,1.329L284.2,34.8a1.241,1.241,0,1,1,1.756,1.756l-7.995,7.994a.253.253,0,0,1-.357,0L273.756,40.7a1.241,1.241,0,1,1,1.756-1.756l1.518,1.518a1.066,1.066,0,0,0,1.507,0l1.526-1.526a.94.94,0,1,0-1.329-1.329l-.195.195V33.53a1.956,1.956,0,0,0-1.954-1.954H268.32a1.956,1.956,0,0,0-1.954,1.954v8.264a1.956,1.956,0,0,0,1.954,1.954h5.823l2.132,2.132a2.134,2.134,0,0,0,3.015,0l7.995-7.995a3.121,3.121,0,0,0,0-4.413Zm-15.009,8.4H268.32a.075.075,0,0,1-.075-.075V33.53a.075.075,0,0,1,.075-.075h8.265a.075.075,0,0,1,.075.075v3.923a3.12,3.12,0,0,0-4.384,4.416Z" transform="translate(-241.935 -27.619)"/>
          </g>
        </g>
      </g>
    </g>
  </g>
</svg>
