<svg xmlns="http://www.w3.org/2000/svg" xmlns:xlink="http://www.w3.org/1999/xlink" width="110" height="110" viewBox="0 0 110 110">
  <defs>
    <filter id="Trazado_982547" x="0" y="0" width="110" height="110" filterUnits="userSpaceOnUse">
      <feOffset dy="3" input="SourceAlpha"/>
      <feGaussianBlur stdDeviation="3" result="blur"/>
      <feFlood flood-opacity="0.161"/>
      <feComposite operator="in" in2="blur"/>
      <feComposite in="SourceGraphic"/>
    </filter>
  </defs>
  <g id="Grupo_1183438" data-name="Grupo 1183438" transform="translate(-11824 -2621.445)">
    <g id="Grupo_1182363" data-name="Grupo 1182363" transform="translate(10711 -1600.312)">
      <g id="Grupo_1172349" data-name="Grupo 1172349" transform="translate(1122 4227.757)">
        <g id="Grupo_1164700" data-name="Grupo 1164700" transform="translate(0 0)">
          <g id="Grupo_1160931" data-name="Grupo 1160931" transform="translate(0 0)">
            <g id="Grupo_1160749" data-name="Grupo 1160749" transform="translate(0 0)">
              <g id="Grupo_1158891" data-name="Grupo 1158891" transform="translate(0 0)">
                <g id="Grupo_1157406" data-name="Grupo 1157406" transform="translate(0 0)">
                  <g id="Grupo_1155793" data-name="Grupo 1155793">
                    <g id="Grupo_1154704" data-name="Grupo 1154704">
                      <g id="Grupo_1150790" data-name="Grupo 1150790">
                        <g id="Grupo_1154214" data-name="Grupo 1154214">
                          <g id="Grupo_1152583" data-name="Grupo 1152583">
                            <g id="Grupo_1146973" data-name="Grupo 1146973">
                              <g id="Grupo_1146954" data-name="Grupo 1146954">
                                <g transform="matrix(1, 0, 0, 1, -9, -6)" filter="url(#Trazado_982547)">
                                  <g id="Trazado_982547-2" data-name="Trazado 982547" transform="translate(9 6)" fill="#f2f7f5">
                                    <path d="M 46.00000762939453 90.49987030029297 C 39.99188613891602 90.49987030029297 34.16427612304688 89.32350921630859 28.67906188964844 87.00345611572266 C 23.38020706176758 84.76224517822266 18.62104797363281 81.55341339111328 14.53375434875488 77.46613311767578 C 10.44647407531738 73.37885284423828 7.237647533416748 68.61969757080078 4.996420860290527 63.32085418701172 C 2.676367521286011 57.83565521240234 1.500007629394531 52.008056640625 1.500007629394531 45.99993515014648 C 1.500007629394531 39.99181365966797 2.676367521286011 34.16421508789062 4.996420860290527 28.67901420593262 C 7.237647533416748 23.38017463684082 10.44647407531738 18.62101554870605 14.53375434875488 14.53373527526855 C 18.62104797363281 10.44645500183105 23.38020706176758 7.23762845993042 28.67906188964844 4.996415138244629 C 34.16427612304688 2.676361799240112 39.99188613891602 1.500001788139343 46.00000762939453 1.500001788139343 C 52.00812911987305 1.500001788139343 57.83573913574219 2.676361799240112 63.32095336914062 4.996415138244629 C 68.61980438232422 7.23762845993042 73.37896728515625 10.44645500183105 77.46626281738281 14.53373527526855 C 81.55354309082031 18.62101554870605 84.76236724853516 23.38017463684082 87.00359344482422 28.67901420593262 C 89.32364654541016 34.16421508789062 90.50000762939453 39.99181365966797 90.50000762939453 45.99993515014648 C 90.50000762939453 52.008056640625 89.32364654541016 57.83565521240234 87.00359344482422 63.32085418701172 C 84.76236724853516 68.61969757080078 81.55354309082031 73.37885284423828 77.46626281738281 77.46613311767578 C 73.37896728515625 81.55341339111328 68.61980438232422 84.76224517822266 63.32095336914062 87.00345611572266 C 57.83573913574219 89.32350921630859 52.00812911987305 90.49987030029297 46.00000762939453 90.49987030029297 Z" stroke="none"/>
                                    <path d="M 46.00000762939453 2.999992370605469 C 40.19372177124023 2.999992370605469 34.56270599365234 4.136489868164062 29.26339340209961 6.377906799316406 C 24.14333343505859 8.543502807617188 19.54443359375 11.64437866210938 15.59442138671875 15.59437561035156 C 11.6444091796875 19.54439544677734 8.543533325195312 24.14329528808594 6.377937316894531 29.26333618164062 C 4.136505126953125 34.56264877319336 3.000007629394531 40.19366455078125 3.000007629394531 45.99993515014648 C 3.000007629394531 51.80620574951172 4.136505126953125 57.43720626831055 6.377937316894531 62.73651885986328 C 8.543533325195312 67.8565673828125 11.6444091796875 72.45545959472656 15.59442138671875 76.40547943115234 C 19.54443359375 80.35547637939453 24.14333343505859 83.45635223388672 29.26339340209961 85.6219482421875 C 34.56270599365234 87.86336517333984 40.19372177124023 88.99986267089844 46.00000762939453 88.99986267089844 C 51.80629348754883 88.99986267089844 57.43730926513672 87.86336517333984 62.73663711547852 85.6219482421875 C 67.85668182373047 83.45635223388672 72.45559692382812 80.35547637939453 76.40560913085938 76.40547943115234 C 80.35560607910156 72.45545959472656 83.45649719238281 67.8565673828125 85.62209320068359 62.73651885986328 C 87.86351013183594 57.43720626831055 89.00000762939453 51.80620574951172 89.00000762939453 45.99993515014648 C 89.00000762939453 40.19366455078125 87.86351013183594 34.56264877319336 85.62209320068359 29.26333618164062 C 83.45649719238281 24.14329528808594 80.35560607910156 19.54439544677734 76.40560913085938 15.59437561035156 C 72.45559692382812 11.64437866210938 67.85668182373047 8.543502807617188 62.73663711547852 6.377906799316406 C 57.43730926513672 4.136489868164062 51.80629348754883 2.999992370605469 46.00000762939453 2.999992370605469 M 46.00000762939453 -7.62939453125e-06 C 71.40510559082031 -7.62939453125e-06 92.00000762939453 20.59486389160156 92.00000762939453 45.99993515014648 C 92.00000762939453 71.40499114990234 71.40510559082031 91.99986267089844 46.00000762939453 91.99986267089844 C 20.59492492675781 91.99986267089844 7.62939453125e-06 71.40499114990234 7.62939453125e-06 45.99993515014648 C 7.62939453125e-06 20.59486389160156 20.59492492675781 -7.62939453125e-06 46.00000762939453 -7.62939453125e-06 Z" stroke="none" fill="#4a665c"/>
                                  </g>
                                </g>
                              </g>
                            </g>
                          </g>
                        </g>
                      </g>
                    </g>
                  </g>
                </g>
              </g>
            </g>
          </g>
        </g>
      </g>
    </g>
    <g id="infraestructura" transform="translate(11839.547 2631.557)">
      <g id="Grupo_1183436" data-name="Grupo 1183436" transform="translate(9.009 14.087)">
        <g id="Grupo_1183423" data-name="Grupo 1183423" transform="translate(5.685 4.593)">
          <g id="Grupo_1183400" data-name="Grupo 1183400" transform="translate(19.116)">
            <g id="Grupo_1183398" data-name="Grupo 1183398">
              <path id="Trazado_1044881" data-name="Trazado 1044881" d="M211.512,63.5h9.934V57.909a.635.635,0,0,0-.634-.634h-8.665a.635.635,0,0,0-.634.634Z" transform="translate(-211.512 -57.275)" fill="#9facba" fill-rule="evenodd"/>
            </g>
            <g id="Grupo_1183399" data-name="Grupo 1183399" transform="translate(8.031)">
              <path id="Trazado_1044882" data-name="Trazado 1044882" d="M275.454,63.5h1.269V57.909a.635.635,0,0,0-.634-.634H274.82a.635.635,0,0,1,.634.634Z" transform="translate(-274.82 -57.275)" fill="#8d9ca8" fill-rule="evenodd"/>
            </g>
          </g>
          <g id="Grupo_1183401" data-name="Grupo 1183401" transform="translate(15.636 3.798)">
            <path id="Trazado_1044883" data-name="Trazado 1044883" d="M184.966,87.214h15.118a.89.89,0,0,1,.888.888v25.161H184.078V88.1A.89.89,0,0,1,184.966,87.214Z" transform="translate(-184.078 -87.214)" fill="#8192a5" fill-rule="evenodd"/>
          </g>
          <g id="Grupo_1183404" data-name="Grupo 1183404" transform="translate(6.594 8.616)">
            <g id="Grupo_1183402" data-name="Grupo 1183402" transform="translate(0 0)">
              <path id="Trazado_1044884" data-name="Trazado 1044884" d="M113.685,125.251l8.154,3.559v17.617h2.294v7.523H112.8V125.833a.634.634,0,0,1,.888-.581Z" transform="translate(-112.797 -125.196)" fill="#8192a5" fill-rule="evenodd"/>
            </g>
            <g id="Grupo_1183403" data-name="Grupo 1183403" transform="translate(0.114)">
              <path id="Trazado_1044885" data-name="Trazado 1044885" d="M114.467,125.251l8.154,3.559v17.617h-1.269V128.81l-7.66-3.343a.645.645,0,0,1,.173-.165.617.617,0,0,1,.6-.051Z" transform="translate(-113.693 -125.196)" fill="#65788e" fill-rule="evenodd"/>
            </g>
          </g>
          <g id="Grupo_1183407" data-name="Grupo 1183407" transform="translate(19.637 7.799)">
            <g id="Grupo_1183405" data-name="Grupo 1183405">
              <path id="Trazado_1044886" data-name="Trazado 1044886" d="M216.257,118.758h7.622a.635.635,0,0,1,.634.634v7.622a.635.635,0,0,1-.634.634h-7.622a.635.635,0,0,1-.634-.634v-7.622A.635.635,0,0,1,216.257,118.758Z" transform="translate(-215.623 -118.758)" fill="#d8ecfe" fill-rule="evenodd"/>
            </g>
            <g id="Grupo_1183406" data-name="Grupo 1183406" transform="translate(6.988)">
              <path id="Trazado_1044887" data-name="Trazado 1044887" d="M270.709,118.758h1.269a.635.635,0,0,1,.634.634v7.622a.635.635,0,0,1-.634.634h-1.269a.635.635,0,0,0,.634-.634v-7.622A.635.635,0,0,0,270.709,118.758Z" transform="translate(-270.709 -118.758)" fill="#c4e2ff" fill-rule="evenodd"/>
            </g>
          </g>
          <g id="Grupo_1183410" data-name="Grupo 1183410" transform="translate(38.041 0)">
            <g id="Grupo_1183408" data-name="Grupo 1183408">
              <path id="Trazado_1044888" data-name="Trazado 1044888" d="M360.7,57.276h4.612V74.322H360.7Z" transform="translate(-360.704 -57.276)" fill="#9facba" fill-rule="evenodd"/>
            </g>
            <g id="Grupo_1183409" data-name="Grupo 1183409" transform="translate(3.344)">
              <path id="Trazado_1044889" data-name="Trazado 1044889" d="M387.063,57.276h1.268V74.322h-1.268Z" transform="translate(-387.063 -57.276)" fill="#8d9ca8" fill-rule="evenodd"/>
            </g>
          </g>
          <g id="Grupo_1183413" data-name="Grupo 1183413" transform="translate(38.041 5.321)">
            <g id="Grupo_1183411" data-name="Grupo 1183411">
              <path id="Trazado_1044890" data-name="Trazado 1044890" d="M360.7,99.219h4.612v3.2H360.7Z" transform="translate(-360.704 -99.219)" fill="#eceff1" fill-rule="evenodd"/>
            </g>
            <g id="Grupo_1183412" data-name="Grupo 1183412" transform="translate(3.344)">
              <path id="Trazado_1044891" data-name="Trazado 1044891" d="M387.063,99.219h1.268v3.2h-1.268Z" transform="translate(-387.063 -99.219)" fill="#d1d1d6" fill-rule="evenodd"/>
            </g>
          </g>
          <g id="Grupo_1183416" data-name="Grupo 1183416" transform="translate(32.529 13.84)">
            <g id="Grupo_1183414" data-name="Grupo 1183414">
              <path id="Trazado_1044892" data-name="Trazado 1044892" d="M332,166.376H317.254v16.007H332.89V167.264A.89.89,0,0,0,332,166.376Z" transform="translate(-317.254 -166.376)" fill="#8192a5" fill-rule="evenodd"/>
            </g>
            <g id="Grupo_1183415" data-name="Grupo 1183415">
              <path id="Trazado_1044893" data-name="Trazado 1044893" d="M317.254,166.376h1.269v16.007h-1.269Z" transform="translate(-317.254 -166.376)" fill="#65788e" fill-rule="evenodd"/>
            </g>
          </g>
          <g id="Grupo_1183419" data-name="Grupo 1183419" transform="translate(0 13.84)">
            <g id="Grupo_1183417" data-name="Grupo 1183417">
              <path id="Trazado_1044894" data-name="Trazado 1044894" d="M61.7,166.376h5.706v16.007H60.817V167.264A.89.89,0,0,1,61.7,166.376Z" transform="translate(-60.817 -166.376)" fill="#8192a5" fill-rule="evenodd"/>
            </g>
            <g id="Grupo_1183418" data-name="Grupo 1183418" transform="translate(5.325)">
              <path id="Trazado_1044895" data-name="Trazado 1044895" d="M102.8,166.376h1.269v16.007H102.8Z" transform="translate(-102.797 -166.376)" fill="#65788e" fill-rule="evenodd"/>
            </g>
          </g>
          <g id="Grupo_1183422" data-name="Grupo 1183422" transform="translate(35.639 19.443)">
            <g id="Grupo_1183420" data-name="Grupo 1183420">
              <path id="Trazado_1044896" data-name="Trazado 1044896" d="M350.55,210.552H342.4a.635.635,0,0,0-.634.634v3.531a.635.635,0,0,0,.634.634h8.148a.635.635,0,0,0,.634-.634v-3.531A.636.636,0,0,0,350.55,210.552Z" transform="translate(-341.767 -210.552)" fill="#d8ecfe" fill-rule="evenodd"/>
            </g>
            <g id="Grupo_1183421" data-name="Grupo 1183421" transform="translate(7.514)">
              <path id="Trazado_1044897" data-name="Trazado 1044897" d="M402.271,210.552H401a.635.635,0,0,1,.634.634v3.531a.635.635,0,0,1-.634.634h1.268a.635.635,0,0,0,.634-.634v-3.531A.636.636,0,0,0,402.271,210.552Z" transform="translate(-401.002 -210.552)" fill="#c4e2ff" fill-rule="evenodd"/>
            </g>
          </g>
        </g>
        <g id="Grupo_1183429" data-name="Grupo 1183429" transform="translate(2.525 32.36)">
          <g id="Grupo_1183424" data-name="Grupo 1183424" transform="translate(0 0)">
            <path id="Trazado_1044898" data-name="Trazado 1044898" d="M90.391,276.171v3.687L85.877,281.6a23.257,23.257,0,0,1-2.822,6.808l1.965,4.424-5.214,5.214-4.423-1.964a23.243,23.243,0,0,1-6.81,2.823l-1.737,4.513H59.462L57.724,298.9a23.248,23.248,0,0,1-6.808-2.822l-4.424,1.965-5.214-5.214,1.964-4.423a23.254,23.254,0,0,1-2.823-6.81l-4.514-1.737v-3.687Z" transform="translate(-35.906 -276.171)" fill="#ffe177" fill-rule="evenodd"/>
          </g>
          <g id="Grupo_1183425" data-name="Grupo 1183425" transform="translate(9.806 0)">
            <path id="Trazado_1044899" data-name="Trazado 1044899" d="M157.887,276.171v3.687l-4.515,1.738a23.257,23.257,0,0,1-2.822,6.808l1.965,4.424-5.214,5.214-1.757-.78,4.434-4.434-1.965-4.424a23.25,23.25,0,0,0,2.822-6.808l4.515-1.738v-3.687Zm-15.009,19.906a24.4,24.4,0,0,1-6.81,2.823l-1.737,4.513h-2.537l1.737-4.513a31.844,31.844,0,0,0,7.911-3.461Zm-24.467,0-4.424,1.965-.78-.78,4.1-1.822Q117.852,295.773,118.411,296.077Z" transform="translate(-113.207 -276.171)" fill="#ffd064" fill-rule="evenodd"/>
          </g>
          <g id="Grupo_1183428" data-name="Grupo 1183428" transform="translate(16.103)">
            <g id="Grupo_1183426" data-name="Grupo 1183426" transform="translate(0 0)">
              <path id="Trazado_1044900" data-name="Trazado 1044900" d="M162.851,276.171H185.13a11.14,11.14,0,0,1-22.279,0Z" transform="translate(-162.851 -276.171)" fill="#eceff1" fill-rule="evenodd"/>
            </g>
            <g id="Grupo_1183427" data-name="Grupo 1183427" transform="translate(0)">
              <path id="Trazado_1044901" data-name="Trazado 1044901" d="M162.851,276.171h1.269a11.14,11.14,0,0,0,10.505,11.121c-.21.012-.421.018-.634.018A11.14,11.14,0,0,1,162.851,276.171Z" transform="translate(-162.851 -276.171)" fill="#d1d1d6" fill-rule="evenodd"/>
            </g>
          </g>
        </g>
        <g id="Grupo_1183432" data-name="Grupo 1183432" transform="translate(53.691)">
          <g id="Grupo_1183430" data-name="Grupo 1183430">
            <path id="Trazado_1044902" data-name="Trazado 1044902" d="M446.041,25.941a.412.412,0,0,0,.324-.668l-3.185-4.046a.413.413,0,0,0-.648,0l-3.185,4.046a.412.412,0,0,0,.324.668h1.323v7.051a.635.635,0,0,0,.634.634h2.457a.635.635,0,0,0,.634-.634V25.941Z" transform="translate(-439.257 -21.07)" fill="#6cf5c2" fill-rule="evenodd"/>
          </g>
          <g id="Grupo_1183431" data-name="Grupo 1183431" transform="translate(0.413)">
            <path id="Trazado_1044903" data-name="Trazado 1044903" d="M448.887,25.941a.412.412,0,0,0,.324-.668l-3.185-4.046a.413.413,0,0,0-.648,0l-.31.394,2.875,3.652a.412.412,0,0,1-.324.668h1.269Zm-6.371,0h0Zm3.145,7.685a.635.635,0,0,0,.634-.634V25.941h1.269v7.051a.635.635,0,0,1-.634.634h-1.268Z" transform="translate(-442.516 -21.07)" fill="#00e499" fill-rule="evenodd"/>
          </g>
        </g>
        <g id="Grupo_1183435" data-name="Grupo 1183435" transform="translate(0)">
          <g id="Grupo_1183433" data-name="Grupo 1183433">
            <path id="Trazado_1044904" data-name="Trazado 1044904" d="M22.784,25.941a.412.412,0,0,0,.324-.668l-3.185-4.046a.413.413,0,0,0-.648,0l-3.185,4.046a.412.412,0,0,0,.324.668h1.323v7.051a.635.635,0,0,0,.634.634h2.457a.635.635,0,0,0,.634-.634V25.941Z" transform="translate(-15.999 -21.07)" fill="#6cf5c2" fill-rule="evenodd"/>
          </g>
          <g id="Grupo_1183434" data-name="Grupo 1183434" transform="translate(0.414)">
            <path id="Trazado_1044905" data-name="Trazado 1044905" d="M25.631,25.941a.412.412,0,0,0,.324-.668l-3.185-4.046a.413.413,0,0,0-.648,0l-.31.394,2.875,3.652a.412.412,0,0,1-.324.668h1.269Zm-6.371,0h0Zm3.145,7.685a.635.635,0,0,0,.634-.634V25.941h1.269v7.051a.635.635,0,0,1-.634.634H22.405Z" transform="translate(-19.26 -21.07)" fill="#00e499" fill-rule="evenodd"/>
          </g>
        </g>
      </g>
      <g id="Grupo_1183437" data-name="Grupo 1183437" transform="translate(7.993 13.072)">
        <path id="Trazado_1044906" data-name="Trazado 1044906" d="M10.663,17.943l1.946-2.47,1.94,2.47h-.078a1.014,1.014,0,0,0-1.015,1.015v6.67h-1.7v-6.67a1.017,1.017,0,0,0-1.015-1.015h-.083Zm3.809,9.714a1.018,1.018,0,0,0,1.015-1.015v-6.67h.3a1.428,1.428,0,0,0,1.123-2.31l-3.182-4.047a1.43,1.43,0,0,0-2.245,0L8.3,17.663a1.428,1.428,0,0,0,1.123,2.31h.311v6.67a1.014,1.014,0,0,0,1.015,1.015Zm53.689-9.714a1.014,1.014,0,0,0-1.015,1.015v6.67h-1.7v-6.67a1.017,1.017,0,0,0-1.015-1.015h-.084l1.946-2.47,1.946,2.47h-.083Zm2.442-.28-3.182-4.047a1.43,1.43,0,0,0-2.245,0l-3.182,4.047a1.424,1.424,0,0,0,1.123,2.31h.3v6.67a1.014,1.014,0,0,0,1.015,1.015h3.726a1.014,1.014,0,0,0,1.015-1.015v-6.67h.31a1.424,1.424,0,0,0,1.117-2.31ZM65,49.436,61.14,50.924a1.018,1.018,0,0,0-.621.712,22.3,22.3,0,0,1-2.7,6.511,1,1,0,0,0-.066.944l1.684,3.788-4.227,4.228-3.786-1.681a1.013,1.013,0,0,0-.943.063,22.318,22.318,0,0,1-6.514,2.7,1.026,1.026,0,0,0-.716.623l-1.487,3.863H35.788L34.3,68.81a1.029,1.029,0,0,0-.71-.623,22.11,22.11,0,0,1-6.514-2.7,1.016,1.016,0,0,0-.943-.063l-3.791,1.682-4.227-4.228L19.8,59.092a1,1,0,0,0-.066-.944,22.267,22.267,0,0,1-2.7-6.513,1.018,1.018,0,0,0-.621-.712L12.55,49.437V47.461H26.665a12.154,12.154,0,0,0,24.223,0H65v1.975Zm-49.295-15.9h4.568v11.9H15.709Zm13.607-1.961V45.432h-7.01V28.513Zm16.891-8.08V45.432H31.346V23.492Zm-11.38-3.8h7.9v1.768h-7.9ZM48.852,47.461H28.7a10.127,10.127,0,0,0,20.151,0ZM61.844,33.534v11.9H48.237v-11.9Zm-8.1-5.32h2.585V31.5H53.748Zm2.585-8.519v3.29H53.748v-3.29Zm-2.585,5.32h2.585v1.169H53.748Zm12.27,20.417H63.875V32.519A1.014,1.014,0,0,0,62.86,31.5h-4.5V19.695h.275a1.015,1.015,0,1,0,0-2.03H51.443a1.015,1.015,0,1,0,0,2.03h.281V31.5H48.237V22.478a1.014,1.014,0,0,0-1.015-1.015H44.756V18.68a1.014,1.014,0,0,0-1.015-1.015H33.812A1.014,1.014,0,0,0,32.8,18.68v2.783H30.331a1.014,1.014,0,0,0-1.015,1.015v6.882L21.7,26.033a1.024,1.024,0,0,0-.967.081,1.008,1.008,0,0,0-.454.849V31.5H14.693a1.014,1.014,0,0,0-1.015,1.015V45.432H11.535a1.015,1.015,0,0,0-1.015,1.015v3.688a1.01,1.01,0,0,0,.651.946l4.018,1.549a24.263,24.263,0,0,0,2.538,6.122l-1.749,3.94a1.029,1.029,0,0,0,.209,1.13L21.4,69.035a1.013,1.013,0,0,0,1.128.211l3.941-1.75a24.351,24.351,0,0,0,6.12,2.537l1.552,4.023a1.009,1.009,0,0,0,.943.649h7.374a1.023,1.023,0,0,0,.949-.649l1.546-4.021a24.176,24.176,0,0,0,6.12-2.538l3.941,1.75a1.013,1.013,0,0,0,1.128-.211l5.218-5.213a1.029,1.029,0,0,0,.209-1.13L59.826,58.75a24.283,24.283,0,0,0,2.538-6.12l4.018-1.549a1.01,1.01,0,0,0,.651-.946V46.446A1.015,1.015,0,0,0,66.018,45.432ZM44.237,39.295a1.015,1.015,0,0,0-1.015-1.015h-8.89a1.015,1.015,0,1,0,0,2.03h8.89A1.014,1.014,0,0,0,44.237,39.295Zm-8.891-11.8v6.861h6.86V27.493Zm-1.015,8.891h8.89a1.014,1.014,0,0,0,1.015-1.015V26.479a1.014,1.014,0,0,0-1.015-1.015h-8.89a1.014,1.014,0,0,0-1.015,1.015V35.37A1.015,1.015,0,0,0,34.331,36.385Zm17.017,2.754v2.769h7.386V39.138Zm-1.015,4.8h9.416a1.014,1.014,0,0,0,1.015-1.015v-4.8a1.014,1.014,0,0,0-1.015-1.015H50.333a1.014,1.014,0,0,0-1.015,1.015v4.8A1.014,1.014,0,0,0,50.333,43.937Z" transform="translate(-7.993 -13.072)" fill="#242222" fill-rule="evenodd"/>
      </g>
    </g>
  </g>
</svg>
