<svg xmlns="http://www.w3.org/2000/svg" xmlns:xlink="http://www.w3.org/1999/xlink" width="110" height="110" viewBox="0 0 110 110">
  <defs>
    <filter id="Trazado_982547" x="0" y="0" width="110" height="110" filterUnits="userSpaceOnUse">
      <feOffset dy="3" input="SourceAlpha"/>
      <feGaussianBlur stdDeviation="3" result="blur"/>
      <feFlood flood-opacity="0.161"/>
      <feComposite operator="in" in2="blur"/>
      <feComposite in="SourceGraphic"/>
    </filter>
  </defs>
  <g id="Grupo_1183450" data-name="Grupo 1183450" transform="translate(-11824 -2980.445)">
    <g id="Grupo_1182365" data-name="Grupo 1182365" transform="translate(10711 -1241.312)">
      <g id="Grupo_1172349" data-name="Grupo 1172349" transform="translate(1122 4227.757)">
        <g id="Grupo_1164700" data-name="Grupo 1164700" transform="translate(0 0)">
          <g id="Grupo_1160931" data-name="Grupo 1160931" transform="translate(0 0)">
            <g id="Grupo_1160749" data-name="Grupo 1160749" transform="translate(0 0)">
              <g id="Grupo_1158891" data-name="Grupo 1158891" transform="translate(0 0)">
                <g id="Grupo_1157406" data-name="Grupo 1157406" transform="translate(0 0)">
                  <g id="Grupo_1155793" data-name="Grupo 1155793">
                    <g id="Grupo_1154704" data-name="Grupo 1154704">
                      <g id="Grupo_1150790" data-name="Grupo 1150790">
                        <g id="Grupo_1154214" data-name="Grupo 1154214">
                          <g id="Grupo_1152583" data-name="Grupo 1152583">
                            <g id="Grupo_1146973" data-name="Grupo 1146973">
                              <g id="Grupo_1146954" data-name="Grupo 1146954">
                                <g transform="matrix(1, 0, 0, 1, -9, -6)" filter="url(#Trazado_982547)">
                                  <g id="Trazado_982547-2" data-name="Trazado 982547" transform="translate(9 6)" fill="#f2f7f5">
                                    <path d="M 46.00000762939453 90.49987030029297 C 39.99188613891602 90.49987030029297 34.16427612304688 89.32350921630859 28.67906188964844 87.00345611572266 C 23.38020706176758 84.76224517822266 18.62104797363281 81.55341339111328 14.53375434875488 77.46613311767578 C 10.44647407531738 73.37885284423828 7.237647533416748 68.61969757080078 4.996420860290527 63.32085418701172 C 2.676367521286011 57.83565521240234 1.500007629394531 52.008056640625 1.500007629394531 45.99993515014648 C 1.500007629394531 39.99181365966797 2.676367521286011 34.16421508789062 4.996420860290527 28.67901420593262 C 7.237647533416748 23.38017463684082 10.44647407531738 18.62101554870605 14.53375434875488 14.53373527526855 C 18.62104797363281 10.44645500183105 23.38020706176758 7.23762845993042 28.67906188964844 4.996415138244629 C 34.16427612304688 2.676361799240112 39.99188613891602 1.500001788139343 46.00000762939453 1.500001788139343 C 52.00812911987305 1.500001788139343 57.83573913574219 2.676361799240112 63.32095336914062 4.996415138244629 C 68.61980438232422 7.23762845993042 73.37896728515625 10.44645500183105 77.46626281738281 14.53373527526855 C 81.55354309082031 18.62101554870605 84.76236724853516 23.38017463684082 87.00359344482422 28.67901420593262 C 89.32364654541016 34.16421508789062 90.50000762939453 39.99181365966797 90.50000762939453 45.99993515014648 C 90.50000762939453 52.008056640625 89.32364654541016 57.83565521240234 87.00359344482422 63.32085418701172 C 84.76236724853516 68.61969757080078 81.55354309082031 73.37885284423828 77.46626281738281 77.46613311767578 C 73.37896728515625 81.55341339111328 68.61980438232422 84.76224517822266 63.32095336914062 87.00345611572266 C 57.83573913574219 89.32350921630859 52.00812911987305 90.49987030029297 46.00000762939453 90.49987030029297 Z" stroke="none"/>
                                    <path d="M 46.00000762939453 2.999992370605469 C 40.19372177124023 2.999992370605469 34.56270599365234 4.136489868164062 29.26339340209961 6.377906799316406 C 24.14333343505859 8.543502807617188 19.54443359375 11.64437866210938 15.59442138671875 15.59437561035156 C 11.6444091796875 19.54439544677734 8.543533325195312 24.14329528808594 6.377937316894531 29.26333618164062 C 4.136505126953125 34.56264877319336 3.000007629394531 40.19366455078125 3.000007629394531 45.99993515014648 C 3.000007629394531 51.80620574951172 4.136505126953125 57.43720626831055 6.377937316894531 62.73651885986328 C 8.543533325195312 67.8565673828125 11.6444091796875 72.45545959472656 15.59442138671875 76.40547943115234 C 19.54443359375 80.35547637939453 24.14333343505859 83.45635223388672 29.26339340209961 85.6219482421875 C 34.56270599365234 87.86336517333984 40.19372177124023 88.99986267089844 46.00000762939453 88.99986267089844 C 51.80629348754883 88.99986267089844 57.43730926513672 87.86336517333984 62.73663711547852 85.6219482421875 C 67.85668182373047 83.45635223388672 72.45559692382812 80.35547637939453 76.40560913085938 76.40547943115234 C 80.35560607910156 72.45545959472656 83.45649719238281 67.8565673828125 85.62209320068359 62.73651885986328 C 87.86351013183594 57.43720626831055 89.00000762939453 51.80620574951172 89.00000762939453 45.99993515014648 C 89.00000762939453 40.19366455078125 87.86351013183594 34.56264877319336 85.62209320068359 29.26333618164062 C 83.45649719238281 24.14329528808594 80.35560607910156 19.54439544677734 76.40560913085938 15.59437561035156 C 72.45559692382812 11.64437866210938 67.85668182373047 8.543502807617188 62.73663711547852 6.377906799316406 C 57.43730926513672 4.136489868164062 51.80629348754883 2.999992370605469 46.00000762939453 2.999992370605469 M 46.00000762939453 -7.62939453125e-06 C 71.40510559082031 -7.62939453125e-06 92.00000762939453 20.59486389160156 92.00000762939453 45.99993515014648 C 92.00000762939453 71.40499114990234 71.40510559082031 91.99986267089844 46.00000762939453 91.99986267089844 C 20.59492492675781 91.99986267089844 7.62939453125e-06 71.40499114990234 7.62939453125e-06 45.99993515014648 C 7.62939453125e-06 20.59486389160156 20.59492492675781 -7.62939453125e-06 46.00000762939453 -7.62939453125e-06 Z" stroke="none" fill="#4a665c"/>
                                  </g>
                                </g>
                              </g>
                            </g>
                          </g>
                        </g>
                      </g>
                    </g>
                  </g>
                </g>
              </g>
            </g>
          </g>
        </g>
      </g>
    </g>
    <g id="apreton-de-manos" transform="translate(11845.48 2916.699)">
      <g id="Grupo_1183448" data-name="Grupo 1183448" transform="translate(0.981 99.039)">
        <g id="Grupo_1183443" data-name="Grupo 1183443" transform="translate(15.463 0.9)">
          <path id="Trazado_1044920" data-name="Trazado 1044920" d="M163.918,129.836,162.215,116l-3.191.393v0l-6.187-3.482a3.728,3.728,0,0,0-2.171-.463l-9.769.9a3.727,3.727,0,0,0-2.88,1.839l-6.885,11.851a1.638,1.638,0,0,0,.837,2.355l.282.106a6.109,6.109,0,0,0,1.655.37l-.872.76-1.745,1.521-4.964,4.235a2.121,2.121,0,0,0-.206,2.993l.5.577a2.726,2.726,0,0,0,3.845.263l1.9,2.176a2.721,2.721,0,0,0,3.845.263l1.9,2.176a2.727,2.727,0,0,0,3.847.264l1.03.89a2.727,2.727,0,0,0,3.847.264l1.4-1.222L160,135.864l.013-.012,4.644,0Z" transform="translate(-125.598 -112.431)" fill="#f29f5c"/>
          <path id="Trazado_1044921" data-name="Trazado 1044921" d="M158.884,260l-.013.012L147.1,269.183l-1.4,1.222a2.727,2.727,0,0,1-3.847-.264l-1.03-.89a2.727,2.727,0,0,1-3.847-.264l-1.9-2.176a2.721,2.721,0,0,1-3.845-.263l-1.9-2.176a2.726,2.726,0,0,1-3.376.161,2.12,2.12,0,0,0,.168,2.564l.5.577a2.726,2.726,0,0,0,3.845.263l1.9,2.176a2.721,2.721,0,0,0,3.845.263l1.9,2.176a2.727,2.727,0,0,0,3.847.264l1.03.89a2.727,2.727,0,0,0,3.847.264l1.4-1.222,11.771-9.167.013-.012,4.644,0-.514-4.174Z" transform="translate(-125.608 -240.147)" fill="#d37d42"/>
        </g>
        <g id="Grupo_1183444" data-name="Grupo 1183444" transform="translate(9.064 1.447)">
          <path id="Trazado_1044922" data-name="Trazado 1044922" d="M118.545,141.9l-6.307-5.438-1.754-1.511-1.255-1.081-5.4-4.651.623-5.3a3.661,3.661,0,0,0-2.66-3.955l-11.762-3.254a2.722,2.722,0,0,0-3.148,1.382l-1.479,2.887-6.349-.431-1.626,13.843-.707,6.016,6.18.411.013.012,12.911,11.129,1.407,1.214a2.727,2.727,0,0,0,3.846-.286l1.883-2.185a2.727,2.727,0,0,0,3.846-.286l1.883-2.187a2.721,2.721,0,0,0,3.843-.284l1.885-2.187a2.726,2.726,0,0,0,3.843-.284l.5-.58A2.121,2.121,0,0,0,118.545,141.9Z" transform="translate(-76.727 -116.61)" fill="#f9c295"/>
          <path id="Trazado_1044923" data-name="Trazado 1044923" d="M249.031,298.787l-1.921-1.656a2.252,2.252,0,0,1-.093,2.824l-.531.615a2.894,2.894,0,0,1-4.08.3l-2,2.321a2.889,2.889,0,0,1-4.08.3l-2,2.322a2.895,2.895,0,0,1-4.082.3l-2,2.319a2.875,2.875,0,0,1-1.371.884l.851.734a2.727,2.727,0,0,0,3.846-.286l1.883-2.185a2.727,2.727,0,0,0,3.846-.286l1.883-2.187a2.721,2.721,0,0,0,3.843-.284l1.885-2.187a2.726,2.726,0,0,0,3.843-.284l.5-.58A2.121,2.121,0,0,0,249.031,298.787Z" transform="translate(-207.212 -273.494)" fill="#e59f6a"/>
        </g>
        <g id="Grupo_1183446" data-name="Grupo 1183446" transform="translate(14.323 24.673)">
          <g id="Grupo_1183445" data-name="Grupo 1183445">
            <path id="Trazado_1044924" data-name="Trazado 1044924" d="M118.131,294.956l-.748.988a2.443,2.443,0,0,0,.473,3.423h0a2.443,2.443,0,0,0,3.423-.473l.748-.988a2.443,2.443,0,0,0-.473-3.423h0A2.443,2.443,0,0,0,118.131,294.956Z" transform="translate(-116.887 -293.988)" fill="#f29f5c"/>
            <path id="Trazado_1044925" data-name="Trazado 1044925" d="M148.541,310.822l-1.409,1.86a2.443,2.443,0,0,0,.473,3.423h0a2.443,2.443,0,0,0,3.423-.473l1.409-1.86a2.443,2.443,0,0,0-.473-3.423h0A2.443,2.443,0,0,0,148.541,310.822Z" transform="translate(-142.742 -307.777)" fill="#f29f5c"/>
            <path id="Trazado_1044926" data-name="Trazado 1044926" d="M178.8,328.2l-1.92,2.535a2.443,2.443,0,0,0,.473,3.423h0a2.443,2.443,0,0,0,3.423-.473l1.92-2.535a2.443,2.443,0,0,0-.473-3.423h0A2.443,2.443,0,0,0,178.8,328.2Z" transform="translate(-168.595 -322.876)" fill="#f29f5c"/>
            <path id="Trazado_1044927" data-name="Trazado 1044927" d="M208.663,349.6l-2.031,2.682a2.443,2.443,0,0,0,.473,3.423h0a2.443,2.443,0,0,0,3.423-.473l2.031-2.682a2.443,2.443,0,0,0-.473-3.423h0A2.443,2.443,0,0,0,208.663,349.6Z" transform="translate(-194.45 -341.48)" fill="#f29f5c"/>
          </g>
        </g>
        <path id="Trazado_1044928" data-name="Trazado 1044928" d="M194.291,116.392,188.1,112.91a3.728,3.728,0,0,0-2.171-.463l-9.769.9a3.727,3.727,0,0,0-2.88,1.839L166.4,127.041a1.638,1.638,0,0,0,.837,2.355l.282.106a6.122,6.122,0,0,0,7.018-2l2.638-3.433s6.341,7.342,13.323-1.232" transform="translate(-145.4 -111.531)" fill="#f29f5c"/>
        <path id="Trazado_1044929" data-name="Trazado 1044929" d="M414.365,105.557l3.236,26.286-7.567.931a2.609,2.609,0,0,1-2.908-2.271l-2.6-21.107a2.609,2.609,0,0,1,2.271-2.908Z" transform="translate(-352.524 -105.557)" fill="#5c9cee"/>
        <path id="Trazado_1044930" data-name="Trazado 1044930" d="M424.914,276.124a2.86,2.86,0,0,1-3.139-2.206l.357,2.9a2.609,2.609,0,0,0,2.908,2.271l7.567-.931-.362-2.937Z" transform="translate(-367.531 -251.873)" fill="#3580d3"/>
        <path id="Trazado_1044931" data-name="Trazado 1044931" d="M10.737,105.557,7.5,131.843l7.567.932a2.609,2.609,0,0,0,2.908-2.271l2.6-21.107a2.609,2.609,0,0,0-2.271-2.908Z" transform="translate(-7.501 -105.557)" fill="#ed5575"/>
        <path id="Trazado_1044932" data-name="Trazado 1044932" d="M15.246,280.522l-7.374-.908-.37,3.008,7.567.931a2.609,2.609,0,0,0,2.908-2.271l.274-2.23A3.065,3.065,0,0,1,15.246,280.522Z" transform="translate(-7.501 -256.337)" fill="#cc3a60"/>
        <g id="Grupo_1183447" data-name="Grupo 1183447" transform="translate(3.299 20.059)">
          <circle id="Elipse_13173" data-name="Elipse 13173" cx="1.898" cy="1.898" r="1.898" transform="translate(54.577)" fill="#ebeef2"/>
          <circle id="Elipse_13174" data-name="Elipse 13174" cx="1.898" cy="1.898" r="1.898" fill="#ebeef2"/>
        </g>
      </g>
      <g id="Grupo_1183449" data-name="Grupo 1183449" transform="translate(-0.001 98.057)">
        <path id="Trazado_1044933" data-name="Trazado 1044933" d="M33.533,130.581a3.417,3.417,0,0,0-2.7-.635,3.424,3.424,0,0,0-3.846-2.831,3.461,3.461,0,0,0-.652.156,3.421,3.421,0,0,0-4.593-2.2A3.426,3.426,0,0,0,16.1,123.7l-3.595-.239,2.2-17.9,3.948.268.067,0a.982.982,0,0,0,.874-.534l1.479-2.887a1.747,1.747,0,0,1,2.012-.883l2.2.608a.982.982,0,1,0,.523-1.893l-2.2-.607a3.719,3.719,0,0,0-4.284,1.88l-1.185,2.311-3.2-.217.076-.615A3.6,3.6,0,0,0,11.9,99l-7.567-.931a.982.982,0,1,0-.24,1.949l7.567.931a1.627,1.627,0,0,1,1.416,1.813l-2.6,21.107a1.629,1.629,0,0,1-1.814,1.416L1.1,124.351a.982.982,0,1,0-.24,1.949l7.567.932a3.587,3.587,0,0,0,3.584-1.833l2.689.179a3.426,3.426,0,0,0,3.039,4.992,3.5,3.5,0,0,0,.476-.033l.03,0c0,.01,0,.02,0,.03a3.422,3.422,0,0,0,3.389,2.955,3.456,3.456,0,0,0,.5-.038,3.418,3.418,0,0,0,3.391,2.988,3.451,3.451,0,0,0,.5-.038c0,.011,0,.022,0,.033a3.427,3.427,0,0,0,3.386,2.957,3.49,3.49,0,0,0,.476-.033,3.4,3.4,0,0,0,2.262-1.325l2.031-2.682A3.429,3.429,0,0,0,33.533,130.581Zm-15.586-1.99a1.461,1.461,0,0,1-1.365-2.33l.748-.988a1.461,1.461,0,0,1,2.33,1.764l-.748.988A1.452,1.452,0,0,1,17.947,128.591Zm2.813,2.667a1.461,1.461,0,0,1-.283-2.047l.748-.988h0l.661-.872a1.461,1.461,0,0,1,2.33,1.764l-1.409,1.86A1.463,1.463,0,0,1,20.761,131.258Zm3.9,2.95a1.461,1.461,0,0,1-.283-2.047h0l1.409-1.86h0l.511-.675a1.461,1.461,0,0,1,2.33,1.764l-1.92,2.536h0A1.463,1.463,0,0,1,24.656,134.208Zm7.974-.015L30.6,136.876a1.461,1.461,0,1,1-2.33-1.764l1.92-2.535h0l.11-.146a1.461,1.461,0,1,1,2.329,1.764Z" transform="translate(0.001 -98.057)"/>
        <path id="Trazado_1044934" data-name="Trazado 1044934" d="M204.934,125.206a.982.982,0,0,0-1.095-.855l-7.567.932a1.628,1.628,0,0,1-1.813-1.416l-.078-.63h0l-.018-.146-2.5-20.332a1.627,1.627,0,0,1,1.416-1.814l7.567-.931a.982.982,0,1,0-.24-1.949L193.037,99a3.6,3.6,0,0,0-3.151,3.657l-1.908.235-5.909-3.325a4.689,4.689,0,0,0-2.743-.586h-.006l-1.779.164a.982.982,0,1,0,.181,1.956l1.784-.165a2.734,2.734,0,0,1,1.6.341l6.126,3.448a.982.982,0,0,0,.661.155l2.216-.273,1.626,13.2.562,4.566-3.535,0a.981.981,0,0,0-.641.239l-.274.213-8.875-7.649a11.913,11.913,0,0,0,5.769-4.213.982.982,0,1,0-1.523-1.24c-2.02,2.481-4.145,3.758-6.314,3.8a8.025,8.025,0,0,1-5.5-2.586.982.982,0,0,0-1.522.043l-2.638,3.433a5.11,5.11,0,0,1-5.892,1.677l-.282-.106a.656.656,0,0,1-.335-.943l6.885-11.851a2.751,2.751,0,0,1,2.121-1.355l4.077-.377a.982.982,0,1,0-.181-1.956l-4.077.377a4.718,4.718,0,0,0-3.639,2.324l-6.885,11.851a2.62,2.62,0,0,0,1.34,3.767l.282.106a7.155,7.155,0,0,0,2.531.465,7.063,7.063,0,0,0,5.612-2.783l1.968-2.561a9.7,9.7,0,0,0,5.534,2.421l12.825,11.053a1.14,1.14,0,0,1,.12,1.607l-.5.58a1.748,1.748,0,0,1-2.46.18.984.984,0,0,0-.128-.092l-3.329-2.871a.982.982,0,0,0-1.283,1.488l2.705,2.333-1.234,1.432a1.74,1.74,0,0,1-2.459.182l-.015-.011-3.093-2.667a.982.982,0,0,0-1.283,1.488l2.364,2.038-1.241,1.442a1.746,1.746,0,0,1-1.527.594.982.982,0,1,0-.229,1.951,3.709,3.709,0,0,0,3.245-1.263l1.327-1.541a3.706,3.706,0,0,0,4.4-.929l1.329-1.543a3.717,3.717,0,0,0,4.4-.927l.5-.58a3.1,3.1,0,0,0-.325-4.377l-.806-.695,2.946,0a3.588,3.588,0,0,0,3.965,2.893l7.567-.931A.982.982,0,0,0,204.934,125.206Z" transform="translate(-137.901 -98.058)"/>
        <path id="Trazado_1044935" data-name="Trazado 1044935" d="M444.885,251.249a2.88,2.88,0,1,0,2.88,2.88A2.884,2.884,0,0,0,444.885,251.249Zm0,3.8a.916.916,0,1,1,.916-.916A.918.918,0,0,1,444.885,255.046Z" transform="translate(-384.128 -231.19)"/>
        <path id="Trazado_1044936" data-name="Trazado 1044936" d="M30.954,254.129a2.88,2.88,0,1,0-2.88,2.881A2.884,2.884,0,0,0,30.954,254.129Zm-3.8,0a.916.916,0,1,1,.916.916A.917.917,0,0,1,27.157,254.129Z" transform="translate(-21.894 -231.19)"/>
      </g>
    </g>
  </g>
</svg>
