<svg xmlns="http://www.w3.org/2000/svg" xmlns:xlink="http://www.w3.org/1999/xlink" width="190" height="181" viewBox="0 0 190 181">
  <defs>
    <clipPath id="clip-path">
      <rect id="Rectángulo_415856" data-name="Rectángulo 415856" width="190" height="181" transform="translate(180 3213)" fill="#fff" stroke="#707070" stroke-width="1" opacity="0.47"/>
    </clipPath>
    <filter id="Elipse_13158" x="39.733" y="15.42" width="115.718" height="115.718" filterUnits="userSpaceOnUse">
      <feOffset dy="3" input="SourceAlpha"/>
      <feGaussianBlur stdDeviation="3" result="blur"/>
      <feFlood flood-opacity="0.161"/>
      <feComposite operator="in" in2="blur"/>
      <feComposite in="SourceGraphic"/>
    </filter>
    <clipPath id="clip-path-2">
      <path id="Trazado_1044581" data-name="Trazado 1044581" d="M223.732,327.548H178.56A13.247,13.247,0,0,1,165.551,316.8l-.89-4.63a1.951,1.951,0,0,1,1.916-2.319h69.138a1.951,1.951,0,0,1,1.916,2.319l-.89,4.63A13.247,13.247,0,0,1,223.732,327.548Z" transform="translate(-164.626 -309.852)"/>
    </clipPath>
  </defs>
  <g id="Enmascarar_grupo_1098836" data-name="Enmascarar grupo 1098836" transform="translate(-180 -3213)" clip-path="url(#clip-path)">
    <g id="_3515556_520262-PIXPS7-532" data-name="3515556_520262-PIXPS7-532" transform="translate(113.31 3192.688)">
      <g id="OBJECTS" transform="translate(96.168 39.47)">
        <g transform="matrix(1, 0, 0, 1, -29.48, -19.16)" filter="url(#Elipse_13158)">
          <circle id="Elipse_13158-2" data-name="Elipse 13158" cx="48.859" cy="48.859" r="48.859" transform="translate(48.73 21.42)" fill="#f7e334"/>
        </g>
        <path id="Trazado_1044557" data-name="Trazado 1044557" d="M215.9,39.47,184.509,98.758h26.476v42.955l37.6-61.192H216.545Z" transform="translate(-148.431 -39.47)" fill="#fff"/>
        <g id="Grupo_1183032" data-name="Grupo 1183032" transform="translate(0 74.188)">
          <ellipse id="Elipse_13159" data-name="Elipse 13159" cx="52.655" cy="2.805" rx="52.655" ry="2.805" transform="translate(11.869 80.748)" fill="#817489"/>
          <path id="Trazado_1044558" data-name="Trazado 1044558" d="M206.353,212.9h-50.1c-7.145,0-26.3,28.054-26.3,28.054H232.656S213.5,212.9,206.353,212.9Z" transform="translate(-117.21 -212.901)" fill="#7fdb90"/>
          <path id="Trazado_1044559" data-name="Trazado 1044559" d="M206.353,224.089h-50.1c-7.145,0-26.3,31.076-26.3,31.076H232.656S213.5,224.089,206.353,224.089Z" transform="translate(-117.21 -219.303)" fill="#333"/>
          <path id="Trazado_1044560" data-name="Trazado 1044560" d="M241.586,241.918H194.507V232.8a1.934,1.934,0,0,1,1.934-1.934h43.212a1.934,1.934,0,0,1,1.933,1.934Z" transform="translate(-154.152 -223.183)" fill="#fff"/>
          <path id="Trazado_1044561" data-name="Trazado 1044561" d="M236.391,263.8c-1-1.436-2.061-2.92-3.149-4.4H152.115c-.781,1.061-1.546,2.124-2.286,3.17v6.55h86.562Z" transform="translate(-128.586 -239.511)" fill="#333"/>
          <path id="Trazado_1044562" data-name="Trazado 1044562" d="M204.005,246.079H186.771a1.981,1.981,0,0,1-1.981-1.981v-4.6a4.266,4.266,0,0,1,4.266-4.266h12.665a4.266,4.266,0,0,1,4.266,4.266v4.6A1.981,1.981,0,0,1,204.005,246.079Z" transform="translate(-148.592 -225.678)" fill="#333"/>
          <path id="Trazado_1044563" data-name="Trazado 1044563" d="M283.3,246.079H266.061a1.981,1.981,0,0,1-1.981-1.981v-4.6a4.266,4.266,0,0,1,4.266-4.266h12.665a4.266,4.266,0,0,1,4.266,4.266v4.6A1.981,1.981,0,0,1,283.3,246.079Z" transform="translate(-193.964 -225.678)" fill="#333"/>
          <path id="Trazado_1044564" data-name="Trazado 1044564" d="M192.721,249.321H173.37a2.741,2.741,0,0,1-2.741-2.741v-3.425a5.9,5.9,0,0,1,5.9-5.9h13.028a5.9,5.9,0,0,1,5.9,5.9v3.425A2.741,2.741,0,0,1,192.721,249.321Z" transform="translate(-140.488 -226.836)" fill="#1a1a1a"/>
          <path id="Trazado_1044565" data-name="Trazado 1044565" d="M291.395,249.321H272.044a2.741,2.741,0,0,1-2.741-2.741v-3.425a5.9,5.9,0,0,1,5.9-5.9h13.028a5.9,5.9,0,0,1,5.9,5.9v3.425A2.741,2.741,0,0,1,291.395,249.321Z" transform="translate(-196.953 -226.836)" fill="#1a1a1a"/>
          <path id="Trazado_1044566" data-name="Trazado 1044566" d="M278.315,259.384a9.064,9.064,0,0,1,17.122,0" transform="translate(-202.11 -236.018)" fill="none" stroke="#4d4d4d" stroke-miterlimit="10" stroke-width="6"/>
          <path id="Trazado_1044567" data-name="Trazado 1044567" d="M110.976,370.468h-1.84a8.282,8.282,0,0,1-8.282-8.282V343.359a8.282,8.282,0,0,1,8.282-8.282h1.84a8.282,8.282,0,0,1,8.282,8.282v18.828A8.281,8.281,0,0,1,110.976,370.468Z" transform="translate(-100.561 -282.814)" fill="#1a1a1a"/>
          <path id="Trazado_1044568" data-name="Trazado 1044568" d="M366.246,370.468h-1.84a8.282,8.282,0,0,1-8.282-8.282V343.359a8.282,8.282,0,0,1,8.282-8.282h1.84a8.282,8.282,0,0,1,8.282,8.282v18.828A8.282,8.282,0,0,1,366.246,370.468Z" transform="translate(-246.635 -282.814)" fill="#1a1a1a"/>
          <path id="Trazado_1044569" data-name="Trazado 1044569" d="M215.414,319.262H113.108a12.94,12.94,0,0,1-12.94-12.94v-14a27.869,27.869,0,0,1,27.869-27.869h72.448a27.869,27.869,0,0,1,27.869,27.869v14A12.94,12.94,0,0,1,215.414,319.262Z" transform="translate(-100.168 -242.398)" fill="#7fdb90"/>
          <path id="Trazado_1044570" data-name="Trazado 1044570" d="M120.912,316.625h-8.685a4.509,4.509,0,0,1-4.509-4.51v-1a4.51,4.51,0,0,1,4.509-4.509h8.685a4.51,4.51,0,0,1,4.51,4.509v1A4.509,4.509,0,0,1,120.912,316.625Z" transform="translate(-104.488 -266.521)" fill="#fff"/>
          <path id="Trazado_1044571" data-name="Trazado 1044571" d="M116.22,305.346h-3.755a1.95,1.95,0,0,1-1.95-1.95v-.433a1.95,1.95,0,0,1,1.95-1.95h3.755a1.95,1.95,0,0,1,1.95,1.95v.433A1.95,1.95,0,0,1,116.22,305.346Z" transform="translate(-106.089 -263.321)" fill="#fff"/>
          <path id="Trazado_1044572" data-name="Trazado 1044572" d="M375.29,305.346h-3.755a1.95,1.95,0,0,1-1.95-1.95v-.433a1.95,1.95,0,0,1,1.95-1.95h3.755a1.95,1.95,0,0,1,1.95,1.95v.433A1.95,1.95,0,0,1,375.29,305.346Z" transform="translate(-254.337 -263.321)" fill="#fff"/>
          <path id="Trazado_1044573" data-name="Trazado 1044573" d="M363.082,316.625H354.4a4.51,4.51,0,0,1-4.51-4.51v-1a4.51,4.51,0,0,1,4.51-4.509h8.685a4.51,4.51,0,0,1,4.51,4.509v1A4.51,4.51,0,0,1,363.082,316.625Z" transform="translate(-243.066 -266.521)" fill="#fff"/>
          <path id="Trazado_1044574" data-name="Trazado 1044574" d="M362.818,368.861h-7.847a4.074,4.074,0,0,1-4.074-4.074v-.906a4.074,4.074,0,0,1,4.074-4.074h7.847a4.075,4.075,0,0,1,4.074,4.074v.906A4.075,4.075,0,0,1,362.818,368.861Z" transform="translate(-243.644 -296.965)" fill="#1a1a1a"/>
          <path id="Trazado_1044575" data-name="Trazado 1044575" d="M123.631,368.861h-7.847a4.075,4.075,0,0,1-4.074-4.074v-.906a4.074,4.074,0,0,1,4.074-4.074h7.847a4.075,4.075,0,0,1,4.074,4.074v.906A4.074,4.074,0,0,1,123.631,368.861Z" transform="translate(-106.773 -296.965)" fill="#1a1a1a"/>
          <path id="Trazado_1044576" data-name="Trazado 1044576" d="M355.583,248.491h-7.07a3.671,3.671,0,0,1-3.671-3.671V244a3.671,3.671,0,0,1,3.671-3.671h7.07A3.671,3.671,0,0,1,359.254,244v.816A3.67,3.67,0,0,1,355.583,248.491Z" transform="translate(-240.179 -228.599)" fill="#7fdb90"/>
          <path id="Trazado_1044577" data-name="Trazado 1044577" d="M247.592,230.112H239.9a1.583,1.583,0,0,1-1.583-1.583v-1.323a1.583,1.583,0,0,1,1.583-1.583h7.693a1.583,1.583,0,0,1,1.583,1.583v1.323A1.582,1.582,0,0,1,247.592,230.112Z" transform="translate(-179.221 -220.181)" fill="#1a1a1a"/>
          <path id="Trazado_1044578" data-name="Trazado 1044578" d="M132.208,248.491h-7.07a3.671,3.671,0,0,1-3.671-3.671V244a3.671,3.671,0,0,1,3.671-3.671h7.07A3.671,3.671,0,0,1,135.879,244v.816A3.671,3.671,0,0,1,132.208,248.491Z" transform="translate(-112.357 -228.599)" fill="#7fdb90"/>
          <path id="Trazado_1044579" data-name="Trazado 1044579" d="M220.868,324.661h-50.68a14.863,14.863,0,0,1-14.6-12.058l-.722-3.757a3.4,3.4,0,0,1,3.337-4.039h74.642a3.4,3.4,0,0,1,3.337,4.039l-.722,3.757A14.861,14.861,0,0,1,220.868,324.661Z" transform="translate(-131.435 -265.493)" fill="#1a1a1a"/>
          <path id="Trazado_1044580" data-name="Trazado 1044580" d="M161.972,359.291H233.9a1.7,1.7,0,0,1,1.668,1.378l1.255,6.529a1.7,1.7,0,0,1-1.668,2.019H160.718a1.7,1.7,0,0,1-1.668-2.019l1.255-6.529A1.7,1.7,0,0,1,161.972,359.291Z" transform="translate(-133.844 -296.67)" fill="#1a1a1a"/>
          <g id="Grupo_1183031" data-name="Grupo 1183031" transform="translate(27.573 41.472)">
            <g id="Grupo_1183030" data-name="Grupo 1183030" clip-path="url(#clip-path-2)">
              <g id="Grupo_1183028" data-name="Grupo 1183028" transform="translate(-18.976 -51.361)">
                <line id="Línea_1381" data-name="Línea 1381" x2="56.164" y2="56.164" transform="translate(0 59.445)" fill="none" stroke="#4d4d4d" stroke-miterlimit="10" stroke-width="1"/>
                <line id="Línea_1382" data-name="Línea 1382" x2="56.164" y2="56.164" transform="translate(2.123 57.322)" fill="none" stroke="#4d4d4d" stroke-miterlimit="10" stroke-width="1"/>
                <line id="Línea_1383" data-name="Línea 1383" x2="56.164" y2="56.164" transform="translate(4.246 55.199)" fill="none" stroke="#4d4d4d" stroke-miterlimit="10" stroke-width="1"/>
                <line id="Línea_1384" data-name="Línea 1384" x2="56.164" y2="56.164" transform="translate(6.369 53.076)" fill="none" stroke="#4d4d4d" stroke-miterlimit="10" stroke-width="1"/>
                <line id="Línea_1385" data-name="Línea 1385" x2="56.164" y2="56.164" transform="translate(8.492 50.953)" fill="none" stroke="#4d4d4d" stroke-miterlimit="10" stroke-width="1"/>
                <line id="Línea_1386" data-name="Línea 1386" x2="56.164" y2="56.164" transform="translate(10.615 48.83)" fill="none" stroke="#4d4d4d" stroke-miterlimit="10" stroke-width="1"/>
                <line id="Línea_1387" data-name="Línea 1387" x2="56.164" y2="56.164" transform="translate(12.738 46.707)" fill="none" stroke="#4d4d4d" stroke-miterlimit="10" stroke-width="1"/>
                <line id="Línea_1388" data-name="Línea 1388" x2="56.164" y2="56.164" transform="translate(14.861 44.584)" fill="none" stroke="#4d4d4d" stroke-miterlimit="10" stroke-width="1"/>
                <line id="Línea_1389" data-name="Línea 1389" x2="56.164" y2="56.164" transform="translate(16.984 42.461)" fill="none" stroke="#4d4d4d" stroke-miterlimit="10" stroke-width="1"/>
                <line id="Línea_1390" data-name="Línea 1390" x2="56.164" y2="56.164" transform="translate(19.107 40.338)" fill="none" stroke="#4d4d4d" stroke-miterlimit="10" stroke-width="1"/>
                <line id="Línea_1391" data-name="Línea 1391" x2="56.164" y2="56.164" transform="translate(21.23 38.215)" fill="none" stroke="#4d4d4d" stroke-miterlimit="10" stroke-width="1"/>
                <line id="Línea_1392" data-name="Línea 1392" x2="56.164" y2="56.164" transform="translate(23.353 36.092)" fill="none" stroke="#4d4d4d" stroke-miterlimit="10" stroke-width="1"/>
                <line id="Línea_1393" data-name="Línea 1393" x2="56.164" y2="56.164" transform="translate(25.476 33.969)" fill="none" stroke="#4d4d4d" stroke-miterlimit="10" stroke-width="1"/>
                <line id="Línea_1394" data-name="Línea 1394" x2="56.164" y2="56.164" transform="translate(27.599 31.846)" fill="none" stroke="#4d4d4d" stroke-miterlimit="10" stroke-width="1"/>
                <line id="Línea_1395" data-name="Línea 1395" x2="56.164" y2="56.163" transform="translate(29.722 29.723)" fill="none" stroke="#4d4d4d" stroke-miterlimit="10" stroke-width="1"/>
                <line id="Línea_1396" data-name="Línea 1396" x2="56.163" y2="56.164" transform="translate(31.846 27.599)" fill="none" stroke="#4d4d4d" stroke-miterlimit="10" stroke-width="1"/>
                <line id="Línea_1397" data-name="Línea 1397" x2="56.164" y2="56.163" transform="translate(33.968 25.476)" fill="none" stroke="#4d4d4d" stroke-miterlimit="10" stroke-width="1"/>
                <line id="Línea_1398" data-name="Línea 1398" x2="56.164" y2="56.163" transform="translate(36.091 23.353)" fill="none" stroke="#4d4d4d" stroke-miterlimit="10" stroke-width="1"/>
                <line id="Línea_1399" data-name="Línea 1399" x2="56.163" y2="56.163" transform="translate(38.215 21.23)" fill="none" stroke="#4d4d4d" stroke-miterlimit="10" stroke-width="1"/>
                <line id="Línea_1400" data-name="Línea 1400" x2="56.163" y2="56.163" transform="translate(40.338 19.107)" fill="none" stroke="#4d4d4d" stroke-miterlimit="10" stroke-width="1"/>
                <line id="Línea_1401" data-name="Línea 1401" x2="56.163" y2="56.163" transform="translate(42.461 16.984)" fill="none" stroke="#4d4d4d" stroke-miterlimit="10" stroke-width="1"/>
                <line id="Línea_1402" data-name="Línea 1402" x2="56.163" y2="56.163" transform="translate(44.584 14.861)" fill="none" stroke="#4d4d4d" stroke-miterlimit="10" stroke-width="1"/>
                <line id="Línea_1403" data-name="Línea 1403" x2="56.163" y2="56.163" transform="translate(46.707 12.738)" fill="none" stroke="#4d4d4d" stroke-miterlimit="10" stroke-width="1"/>
                <line id="Línea_1404" data-name="Línea 1404" x2="56.163" y2="56.163" transform="translate(48.83 10.615)" fill="none" stroke="#4d4d4d" stroke-miterlimit="10" stroke-width="1"/>
                <line id="Línea_1405" data-name="Línea 1405" x2="56.163" y2="56.163" transform="translate(50.953 8.492)" fill="none" stroke="#4d4d4d" stroke-miterlimit="10" stroke-width="1"/>
                <line id="Línea_1406" data-name="Línea 1406" x2="56.164" y2="56.164" transform="translate(53.076 6.369)" fill="none" stroke="#4d4d4d" stroke-miterlimit="10" stroke-width="1"/>
                <line id="Línea_1407" data-name="Línea 1407" x2="56.163" y2="56.164" transform="translate(55.199 4.246)" fill="none" stroke="#4d4d4d" stroke-miterlimit="10" stroke-width="1"/>
                <line id="Línea_1408" data-name="Línea 1408" x2="56.164" y2="56.164" transform="translate(57.322 2.123)" fill="none" stroke="#4d4d4d" stroke-miterlimit="10" stroke-width="1"/>
                <line id="Línea_1409" data-name="Línea 1409" x2="56.164" y2="56.164" transform="translate(59.445)" fill="none" stroke="#4d4d4d" stroke-miterlimit="10" stroke-width="1"/>
              </g>
              <g id="Grupo_1183029" data-name="Grupo 1183029" transform="translate(-18.976 -51.361)">
                <line id="Línea_1410" data-name="Línea 1410" x1="56.164" y2="56.164" fill="none" stroke="#4d4d4d" stroke-miterlimit="10" stroke-width="1"/>
                <line id="Línea_1411" data-name="Línea 1411" x1="56.164" y2="56.164" transform="translate(2.123 2.123)" fill="none" stroke="#4d4d4d" stroke-miterlimit="10" stroke-width="1"/>
                <line id="Línea_1412" data-name="Línea 1412" x1="56.164" y2="56.164" transform="translate(4.246 4.246)" fill="none" stroke="#4d4d4d" stroke-miterlimit="10" stroke-width="1"/>
                <line id="Línea_1413" data-name="Línea 1413" x1="56.164" y2="56.164" transform="translate(6.369 6.369)" fill="none" stroke="#4d4d4d" stroke-miterlimit="10" stroke-width="1"/>
                <line id="Línea_1414" data-name="Línea 1414" x1="56.164" y2="56.163" transform="translate(8.492 8.492)" fill="none" stroke="#4d4d4d" stroke-miterlimit="10" stroke-width="1"/>
                <line id="Línea_1415" data-name="Línea 1415" x1="56.164" y2="56.163" transform="translate(10.615 10.615)" fill="none" stroke="#4d4d4d" stroke-miterlimit="10" stroke-width="1"/>
                <line id="Línea_1416" data-name="Línea 1416" x1="56.164" y2="56.163" transform="translate(12.738 12.738)" fill="none" stroke="#4d4d4d" stroke-miterlimit="10" stroke-width="1"/>
                <line id="Línea_1417" data-name="Línea 1417" x1="56.164" y2="56.163" transform="translate(14.861 14.861)" fill="none" stroke="#4d4d4d" stroke-miterlimit="10" stroke-width="1"/>
                <line id="Línea_1418" data-name="Línea 1418" x1="56.164" y2="56.163" transform="translate(16.984 16.984)" fill="none" stroke="#4d4d4d" stroke-miterlimit="10" stroke-width="1"/>
                <line id="Línea_1419" data-name="Línea 1419" x1="56.164" y2="56.163" transform="translate(19.107 19.107)" fill="none" stroke="#4d4d4d" stroke-miterlimit="10" stroke-width="1"/>
                <line id="Línea_1420" data-name="Línea 1420" x1="56.164" y2="56.163" transform="translate(21.23 21.23)" fill="none" stroke="#4d4d4d" stroke-miterlimit="10" stroke-width="1"/>
                <line id="Línea_1421" data-name="Línea 1421" x1="56.164" y2="56.163" transform="translate(23.353 23.353)" fill="none" stroke="#4d4d4d" stroke-miterlimit="10" stroke-width="1"/>
                <line id="Línea_1422" data-name="Línea 1422" x1="56.164" y2="56.163" transform="translate(25.476 25.476)" fill="none" stroke="#4d4d4d" stroke-miterlimit="10" stroke-width="1"/>
                <line id="Línea_1423" data-name="Línea 1423" x1="56.164" y2="56.164" transform="translate(27.599 27.599)" fill="none" stroke="#4d4d4d" stroke-miterlimit="10" stroke-width="1"/>
                <line id="Línea_1424" data-name="Línea 1424" x1="56.164" y2="56.163" transform="translate(29.722 29.723)" fill="none" stroke="#4d4d4d" stroke-miterlimit="10" stroke-width="1"/>
                <line id="Línea_1425" data-name="Línea 1425" x1="56.163" y2="56.164" transform="translate(31.846 31.846)" fill="none" stroke="#4d4d4d" stroke-miterlimit="10" stroke-width="1"/>
                <line id="Línea_1426" data-name="Línea 1426" x1="56.164" y2="56.164" transform="translate(33.968 33.969)" fill="none" stroke="#4d4d4d" stroke-miterlimit="10" stroke-width="1"/>
                <line id="Línea_1427" data-name="Línea 1427" x1="56.164" y2="56.164" transform="translate(36.091 36.092)" fill="none" stroke="#4d4d4d" stroke-miterlimit="10" stroke-width="1"/>
                <line id="Línea_1428" data-name="Línea 1428" x1="56.163" y2="56.164" transform="translate(38.215 38.215)" fill="none" stroke="#4d4d4d" stroke-miterlimit="10" stroke-width="1"/>
                <line id="Línea_1429" data-name="Línea 1429" x1="56.163" y2="56.164" transform="translate(40.338 40.338)" fill="none" stroke="#4d4d4d" stroke-miterlimit="10" stroke-width="1"/>
                <line id="Línea_1430" data-name="Línea 1430" x1="56.163" y2="56.164" transform="translate(42.461 42.461)" fill="none" stroke="#4d4d4d" stroke-miterlimit="10" stroke-width="1"/>
                <line id="Línea_1431" data-name="Línea 1431" x1="56.163" y2="56.164" transform="translate(44.584 44.584)" fill="none" stroke="#4d4d4d" stroke-miterlimit="10" stroke-width="1"/>
                <line id="Línea_1432" data-name="Línea 1432" x1="56.163" y2="56.164" transform="translate(46.707 46.707)" fill="none" stroke="#4d4d4d" stroke-miterlimit="10" stroke-width="1"/>
                <line id="Línea_1433" data-name="Línea 1433" x1="56.163" y2="56.164" transform="translate(48.83 48.83)" fill="none" stroke="#4d4d4d" stroke-miterlimit="10" stroke-width="1"/>
                <line id="Línea_1434" data-name="Línea 1434" x1="56.163" y2="56.164" transform="translate(50.953 50.953)" fill="none" stroke="#4d4d4d" stroke-miterlimit="10" stroke-width="1"/>
                <line id="Línea_1435" data-name="Línea 1435" x1="56.164" y2="56.164" transform="translate(53.076 53.076)" fill="none" stroke="#4d4d4d" stroke-miterlimit="10" stroke-width="1"/>
                <line id="Línea_1436" data-name="Línea 1436" x1="56.163" y2="56.164" transform="translate(55.199 55.199)" fill="none" stroke="#4d4d4d" stroke-miterlimit="10" stroke-width="1"/>
                <line id="Línea_1437" data-name="Línea 1437" x1="56.164" y2="56.164" transform="translate(57.322 57.322)" fill="none" stroke="#4d4d4d" stroke-miterlimit="10" stroke-width="1"/>
                <line id="Línea_1438" data-name="Línea 1438" x1="56.164" y2="56.164" transform="translate(59.445 59.445)" fill="none" stroke="#4d4d4d" stroke-miterlimit="10" stroke-width="1"/>
              </g>
            </g>
          </g>
          <path id="Trazado_1044582" data-name="Trazado 1044582" d="M242.167,353.075H208.181a1.566,1.566,0,0,1-1.566-1.566v-6.8a1.566,1.566,0,0,1,1.566-1.566h33.986a1.566,1.566,0,0,1,1.566,1.566v6.8A1.566,1.566,0,0,1,242.167,353.075Z" transform="translate(-161.081 -287.433)" fill="#fff"/>
          <rect id="Rectángulo_415855" data-name="Rectángulo 415855" width="3.146" height="1.312" transform="translate(62.962 4.786)" fill="#1a1a1a"/>
          <ellipse id="Elipse_13160" data-name="Elipse 13160" cx="3.651" cy="1.01" rx="3.651" ry="1.01" transform="translate(60.442 33.453)" fill="#fff"/>
          <path id="Trazado_1044583" data-name="Trazado 1044583" d="M120.855,315.476H117.1a1.95,1.95,0,0,1-1.95-1.95v-.433a1.95,1.95,0,0,1,1.95-1.95h3.755a1.95,1.95,0,0,1,1.95,1.95v.433A1.951,1.951,0,0,1,120.855,315.476Z" transform="translate(-108.741 -269.118)" fill="#f7e334"/>
          <path id="Trazado_1044584" data-name="Trazado 1044584" d="M363.9,315.476h-3.755a1.95,1.95,0,0,1-1.95-1.95v-.433a1.95,1.95,0,0,1,1.95-1.95H363.9a1.95,1.95,0,0,1,1.95,1.95v.433A1.95,1.95,0,0,1,363.9,315.476Z" transform="translate(-247.819 -269.118)" fill="#f7e334"/>
          <path id="Trazado_1044585" data-name="Trazado 1044585" d="M131.131,246.666H128.9a1.161,1.161,0,0,1-1.161-1.161v-.258a1.161,1.161,0,0,1,1.161-1.161h2.236a1.161,1.161,0,0,1,1.161,1.161v.258A1.161,1.161,0,0,1,131.131,246.666Z" transform="translate(-115.943 -230.746)" fill="#fff"/>
          <path id="Trazado_1044586" data-name="Trazado 1044586" d="M356.032,246.666H353.8a1.161,1.161,0,0,1-1.161-1.161v-.258a1.161,1.161,0,0,1,1.161-1.161h2.236a1.161,1.161,0,0,1,1.161,1.161v.258A1.161,1.161,0,0,1,356.032,246.666Z" transform="translate(-244.639 -230.746)" fill="#fff"/>
        </g>
      </g>
    </g>
  </g>
</svg>
