<svg xmlns="http://www.w3.org/2000/svg" xmlns:xlink="http://www.w3.org/1999/xlink" width="108" height="108" viewBox="0 0 108 108">
  <defs>
    <filter id="Trazado_904820" x="0" y="0" width="108" height="108" filterUnits="userSpaceOnUse">
      <feOffset dy="3" input="SourceAlpha"/>
      <feGaussianBlur stdDeviation="3" result="blur"/>
      <feFlood flood-opacity="0.161"/>
      <feComposite operator="in" in2="blur"/>
      <feComposite in="SourceGraphic"/>
    </filter>
  </defs>
  <g id="Grupo_1182938" data-name="Grupo 1182938" transform="translate(-194 -284)">
    <g id="Grupo_1173821" data-name="Grupo 1173821" transform="translate(203 290)">
      <g id="Grupo_1173585" data-name="Grupo 1173585" transform="translate(0 0)">
        <g id="Grupo_1173428" data-name="Grupo 1173428">
          <g id="Grupo_1171958" data-name="Grupo 1171958">
            <g id="Grupo_1167341" data-name="Grupo 1167341">
              <g id="Grupo_1166792" data-name="Grupo 1166792">
                <g transform="matrix(1, 0, 0, 1, -9, -6)" filter="url(#Trazado_904820)">
                  <g id="Trazado_904820-2" data-name="Trazado 904820" transform="translate(9 6)" fill="#fcf3f0">
                    <path d="M 44.99999618530273 88.49999237060547 C 39.12687301635742 88.49999237060547 33.43022155761719 87.35006713867188 28.06829643249512 85.08216857910156 C 22.88852119445801 82.89130401611328 18.23629570007324 79.75457763671875 14.24084663391113 75.75914001464844 C 10.24540901184082 71.76369476318359 7.108683586120605 67.11146545410156 4.917821407318115 61.93169403076172 C 2.649921178817749 56.56976699829102 1.499996185302734 50.87311553955078 1.499996185302734 44.99999237060547 C 1.499996185302734 39.12686920166016 2.649921178817749 33.43021774291992 4.917821407318115 28.06829261779785 C 7.108683586120605 22.88851737976074 10.24540901184082 18.23630523681641 14.24084663391113 14.24085521697998 C 18.23629570007324 10.24540519714355 22.88852119445801 7.108692169189453 28.06829643249512 4.917829990386963 C 33.43022155761719 2.649929761886597 39.12687301635742 1.500004887580872 44.99999618530273 1.500004887580872 C 50.87311935424805 1.500004887580872 56.56977081298828 2.649929761886597 61.93169784545898 4.917829990386963 C 67.11147308349609 7.108692169189453 71.76369476318359 10.24540519714355 75.75914764404297 14.24085521697998 C 79.75458526611328 18.23630523681641 82.89131164550781 22.88851737976074 85.08216857910156 28.06829261779785 C 87.35007476806641 33.43021774291992 88.5 39.12686920166016 88.5 44.99999237060547 C 88.5 50.87311553955078 87.35007476806641 56.56976699829102 85.08216857910156 61.93169403076172 C 82.89131164550781 67.11146545410156 79.75458526611328 71.76369476318359 75.75914764404297 75.75914001464844 C 71.76369476318359 79.75457763671875 67.11147308349609 82.89130401611328 61.93169784545898 85.08216857910156 C 56.56977081298828 87.35006713867188 50.87311935424805 88.49999237060547 44.99999618530273 88.49999237060547 Z" stroke="none"/>
                    <path d="M 44.99999618530273 2.999992370605469 C 39.32870864868164 2.999992370605469 33.82865142822266 4.11004638671875 28.65262603759766 6.299331665039062 C 23.65165710449219 8.414566040039062 19.15968322753906 11.44333648681641 15.301513671875 15.30150604248047 C 11.44333648681641 19.15967559814453 8.414566040039062 23.65164947509766 6.299339294433594 28.65262222290039 C 4.110054016113281 33.82864761352539 2.999992370605469 39.32870483398438 2.999992370605469 44.99999237060547 C 2.999992370605469 50.67127990722656 4.110054016113281 56.17132186889648 6.299339294433594 61.34736633300781 C 8.414566040039062 66.34833526611328 11.44333648681641 70.84029388427734 15.301513671875 74.69846343994141 C 19.15968322753906 78.55663299560547 23.65165710449219 81.58540344238281 28.65262603759766 83.70063781738281 C 33.82865142822266 85.88992309570312 39.32870864868164 86.99997711181641 44.99999618530273 86.99997711181641 C 50.67128372192383 86.99997711181641 56.17134094238281 85.88992309570312 61.34736633300781 83.70063781738281 C 66.34834289550781 81.58540344238281 70.84030914306641 78.55663299560547 74.69847869873047 74.69846343994141 C 78.55665588378906 70.84029388427734 81.58542633056641 66.34833526611328 83.70065307617188 61.34736633300781 C 85.88993835449219 56.17132186889648 87 50.67127990722656 87 44.99999237060547 C 87 39.32870483398438 85.88993835449219 33.82864761352539 83.70065307617188 28.65262222290039 C 81.58542633056641 23.65164947509766 78.55665588378906 19.15967559814453 74.69847869873047 15.30150604248047 C 70.84030914306641 11.44333648681641 66.34834289550781 8.414566040039062 61.34736633300781 6.299331665039062 C 56.17134094238281 4.11004638671875 50.67128372192383 2.999992370605469 44.99999618530273 2.999992370605469 M 44.99999618530273 -7.62939453125e-06 C 69.85281372070312 -7.62939453125e-06 90 20.14717864990234 90 44.99999237060547 C 90 69.85279083251953 69.85281372070312 89.99997711181641 44.99999618530273 89.99997711181641 C 20.14717864990234 89.99997711181641 -7.62939453125e-06 69.85279083251953 -7.62939453125e-06 44.99999237060547 C -7.62939453125e-06 20.14717864990234 20.14717864990234 -7.62939453125e-06 44.99999618530273 -7.62939453125e-06 Z" stroke="none" fill="#e89076"/>
                  </g>
                </g>
              </g>
            </g>
          </g>
        </g>
      </g>
    </g>
    <g id="Layer_35" transform="translate(212.988 298.6)">
      <g id="Grupo_1182937" data-name="Grupo 1182937" transform="translate(5.012 6.4)">
        <g id="Grupo_1182928" data-name="Grupo 1182928" transform="translate(11.195 5.488)">
          <path id="Trazado_1043683" data-name="Trazado 1043683" d="M45.834,29.96A11.968,11.968,0,0,1,43.316,22.6a11.59,11.59,0,0,1,1.636-6.042,24.072,24.072,0,0,0-21.209,2.391,8.2,8.2,0,0,0-.944.629c1.762,2.832,4.28,2.706,6.734,2.329,4.028-.692,4.28,2.517,4.531,4.657.378,3.147,2.077,6.293,5.6,6.671,2.266.252,4.594-1.07,6.168-3.273Z" transform="translate(-22.8 -15.12)" fill="#92e0c4" fill-rule="evenodd"/>
        </g>
        <g id="Grupo_1182929" data-name="Grupo 1182929" transform="translate(2.761 10.006)">
          <path id="Trazado_1043684" data-name="Trazado 1043684" d="M53.328,53.012a24.261,24.261,0,0,0,1.951-16.8,12.024,12.024,0,0,1-14.412-3.524c-1.573,2.2-3.9,3.524-6.168,3.273-3.461-.378-5.161-3.524-5.6-6.671-.252-2.14-.5-5.349-4.531-4.657-2.454.441-4.972.5-6.734-2.329A23.9,23.9,0,0,0,9.4,32.81c1.888,2.014,5.161,2.517,8.307,2.266,4.342-.441,4.217,3.4,3.21,5.286-1.133,2.014-4.342,3.965-.252,5.79a3.949,3.949,0,0,1,2.769,4.468c-.252,2.643-1.259,4.091.5,4.909,4.972,2.329,1.2,5.224-3.461,7.993a24.191,24.191,0,0,0,24.292-1.007,23.564,23.564,0,0,0,5.161-4.468l-4.657-4.657L40.8,57.858l-12.776-12.9L32.182,40.8l8.685,8.685,4.468-4.468Z" transform="translate(-9.4 -22.3)" fill="#70bbfa" fill-rule="evenodd"/>
        </g>
        <g id="Grupo_1182930" data-name="Grupo 1182930" transform="translate(0.925 20.391)">
          <path id="Trazado_1043685" data-name="Trazado 1043685" d="M22.353,56.61a3.949,3.949,0,0,0-2.769-4.468c-4.091-1.825-.881-3.776.252-5.79,1.07-1.825,1.133-5.664-3.21-5.286-3.147.315-6.419-.189-8.307-2.266A24.249,24.249,0,0,0,10.27,61.079a23.725,23.725,0,0,0,9.125,8.37c4.657-2.832,8.433-5.727,3.461-7.993-1.762-.818-.818-2.2-.5-4.846Z" transform="translate(-6.483 -38.8)" fill="#92e0c4" fill-rule="evenodd"/>
        </g>
        <g id="Grupo_1182931" data-name="Grupo 1182931" transform="translate(21.201 5.524)">
          <path id="Trazado_1043686" data-name="Trazado 1043686" d="M59.531,22.051A24.172,24.172,0,0,0,38.7,15.506a24.2,24.2,0,0,1,15.545,9.5c1.2-1.322,3.147-1.573,5.1-2.832Z" transform="translate(-38.7 -15.178)" fill="#84c9b0" fill-rule="evenodd"/>
        </g>
        <g id="Grupo_1182932" data-name="Grupo 1182932" transform="translate(21.264 12.398)">
          <path id="Trazado_1043687" data-name="Trazado 1043687" d="M63.092,30.38a25.725,25.725,0,0,0-3.461-4.28l-.189.126c-1.951,1.259-3.9,1.447-5.1,2.832.315.441.629.881.944,1.385A24.217,24.217,0,0,1,47.862,63.8,23.539,23.539,0,0,1,38.8,67.259,24.167,24.167,0,0,0,63.092,30.38Z" transform="translate(-38.8 -26.1)" fill="#60a4db" fill-rule="evenodd"/>
        </g>
        <g id="Grupo_1182933" data-name="Grupo 1182933" transform="translate(31.648 0.944)">
          <path id="Trazado_1043688" data-name="Trazado 1043688" d="M79.341,19.92a12.016,12.016,0,0,0-22.4-6.042A12.213,12.213,0,0,0,55.3,19.92,11.98,11.98,0,0,0,72.229,30.808,11.848,11.848,0,0,0,79.341,19.92Z" transform="translate(-55.3 -7.9)" fill="#ffb92f" fill-rule="evenodd"/>
        </g>
        <g id="Grupo_1182934" data-name="Grupo 1182934" transform="translate(40.899 0.944)">
          <path id="Trazado_1043689" data-name="Trazado 1043689" d="M84.789,19.92A12.019,12.019,0,0,0,72.769,7.9,13.332,13.332,0,0,0,70,8.215,11.971,11.971,0,0,1,70,31.5a13.332,13.332,0,0,0,2.769.315A11.834,11.834,0,0,0,84.789,19.92Z" transform="translate(-70 -7.9)" fill="#edab26" fill-rule="evenodd"/>
        </g>
        <g id="Grupo_1182935" data-name="Grupo 1182935" transform="translate(21.39 28.509)">
          <path id="Trazado_1043690" data-name="Trazado 1043690" d="M51.839,60.322,43.217,51.7,39,55.854,51.839,68.692l4.468-4.468,4.657,4.657,3.776,3.776-4.468,4.405H73.3V64.035L68.894,68.5,64.3,63.909l-7.993-7.993Z" transform="translate(-39 -51.7)" fill="#db5565" fill-rule="evenodd"/>
        </g>
        <g id="Grupo_1182936" data-name="Grupo 1182936">
          <path id="Trazado_1043691" data-name="Trazado 1043691" d="M61.079,46.426a.96.96,0,0,0-1.007.189L56.3,50.391l-3.461-3.461a25.411,25.411,0,0,0,1.888-16.111,12.95,12.95,0,1,0-16.8-18.628A24.9,24.9,0,0,0,16.647,14.9,25.122,25.122,0,0,0,30.178,61.215a24.653,24.653,0,0,0,13.468-3.965,25.1,25.1,0,0,0,4.72-3.9l2.391,2.391-3.776,3.776a.87.87,0,0,0-.189,1.007.891.891,0,0,0,.881.566H60.7a.968.968,0,0,0,.944-.944v-12.9a.9.9,0,0,0-.566-.818ZM48.681,8.288A11.076,11.076,0,1,1,37.6,19.364,11.093,11.093,0,0,1,48.681,8.288Zm-11.706,5.6a13.192,13.192,0,0,0-1.259,5.475,13.556,13.556,0,0,0,2.266,7.363,5.7,5.7,0,0,1-4.846,2.391c-3.776-.441-4.594-4.594-4.72-5.853v-.252c-.189-1.447-.441-3.461-1.951-4.594a4.621,4.621,0,0,0-3.65-.629c-2.329.315-3.965.252-5.224-1.259l.063-.063a23.235,23.235,0,0,1,19.321-2.58ZM10.543,48.629a23.3,23.3,0,0,1-2.329-20.2c2.517,1.762,5.979,1.762,7.993,1.573a2.463,2.463,0,0,1,2.454.755,3.55,3.55,0,0,1-.126,3.084,11.71,11.71,0,0,1-.881,1.259c-.818,1.007-1.762,2.2-1.447,3.524.252.944,1.07,1.7,2.517,2.391h.063a3.012,3.012,0,0,1,2.14,3.461,11.183,11.183,0,0,1-.315,1.762c-.315,1.51-.629,3.147,1.385,4.091,1.133.5,1.762,1.07,1.825,1.573.063,1.322-3.273,3.461-4.909,4.468a22.393,22.393,0,0,1-8.37-7.741Zm32.1,7.112A23.305,23.305,0,0,1,20.8,57.376c3.021-1.951,4.909-3.65,4.783-5.538-.063-1.259-1.007-2.329-2.895-3.21-.566-.252-.629-.378-.315-2.014a14.074,14.074,0,0,0,.315-1.951,4.812,4.812,0,0,0-3.273-5.349h-.063c-1.2-.5-1.385-.944-1.447-1.07-.126-.441.566-1.259,1.07-1.888a13.032,13.032,0,0,0,1.07-1.51,4.965,4.965,0,0,0,.063-5.035c-.566-.881-1.762-1.825-4.217-1.573-3.021.315-5.538-.252-7.049-1.51a22.537,22.537,0,0,1,7.049-8.937c1.951,2.391,4.531,2.329,7.112,1.888a2.837,2.837,0,0,1,2.266.315c.818.629,1.007,2.14,1.2,3.335v.252c.441,3.335,2.329,7.049,6.419,7.489.252,0,.441.063.692.063a7.65,7.65,0,0,0,5.6-2.769,12.973,12.973,0,0,0,9.44,4.091A12.256,12.256,0,0,0,52.9,31.7a23.43,23.43,0,0,1-1.51,13.908L44.4,38.433a.913.913,0,0,0-1.322,0L39.3,42.209l-8.056-7.993a.912.912,0,0,0-1.322,0L25.773,38.37a.913.913,0,0,0,0,1.322L38.611,52.531a.912.912,0,0,0,1.322,0l3.776-3.776,3.335,3.335a24.707,24.707,0,0,1-4.405,3.65Zm17.118,3.587H50L52.834,56.5a.913.913,0,0,0,0-1.322L44.4,46.8a.988.988,0,0,0-1.385,0L39.241,50.58,27.724,39.063l2.832-2.832,7.993,7.993a.913.913,0,0,0,1.322,0l3.776-3.776L55.54,52.342a.913.913,0,0,0,1.322,0l2.895-2.769Z" transform="translate(-5.012 -6.4)"/>
          <path id="Trazado_1043692" data-name="Trazado 1043692" d="M72.576,26.094H69.744a.944.944,0,0,0,0,1.888h1.7v1.385a.944.944,0,1,0,1.888,0V27.92a3.317,3.317,0,0,0,2.643-3.273,3.358,3.358,0,0,0-3.335-3.335h-.5a1.447,1.447,0,1,1,0-2.895H74.9a.944.944,0,0,0,0-1.888H73.331V15.144a.944.944,0,1,0-1.888,0v1.447A3.317,3.317,0,0,0,68.8,19.864,3.358,3.358,0,0,0,72.135,23.2h.5a1.448,1.448,0,1,1-.063,2.895Z" transform="translate(-28.656 -9.291)"/>
        </g>
      </g>
    </g>
  </g>
</svg>
