<svg xmlns="http://www.w3.org/2000/svg" xmlns:xlink="http://www.w3.org/1999/xlink" width="93.934" height="93.934" viewBox="0 0 93.934 93.934">
  <defs>
    <filter id="Trazado_982547" x="0" y="0" width="93.934" height="93.934" filterUnits="userSpaceOnUse">
      <feOffset dy="3" input="SourceAlpha"/>
      <feGaussianBlur stdDeviation="3" result="blur"/>
      <feFlood flood-opacity="0.161"/>
      <feComposite operator="in" in2="blur"/>
      <feComposite in="SourceGraphic"/>
    </filter>
  </defs>
  <g id="Grupo_1183001" data-name="Grupo 1183001" transform="translate(-189 -658)">
    <g id="Grupo_1182333" data-name="Grupo 1182333" transform="translate(-0.033 -1122)">
      <g id="Grupo_1176309" data-name="Grupo 1176309" transform="translate(0 -206)">
        <g id="Grupo_1172970" data-name="Grupo 1172970" transform="translate(-1 -9042)">
          <g id="Grupo_1171971" data-name="Grupo 1171971" transform="translate(199.033 11034)">
            <g id="Grupo_1167337" data-name="Grupo 1167337" transform="translate(0)">
              <g id="Grupo_1166720" data-name="Grupo 1166720">
                <g id="Grupo_1164305" data-name="Grupo 1164305">
                  <g id="Grupo_1163948" data-name="Grupo 1163948">
                    <g id="Grupo_1158168" data-name="Grupo 1158168">
                      <g id="Grupo_1152576" data-name="Grupo 1152576">
                        <g id="Grupo_1148633" data-name="Grupo 1148633">
                          <g id="Grupo_1148525" data-name="Grupo 1148525">
                            <g transform="matrix(1, 0, 0, 1, -9, -6)" filter="url(#Trazado_982547)">
                              <g id="Trazado_982547-2" data-name="Trazado 982547" transform="translate(9 6)" fill="#f2f7f5">
                                <path d="M 37.966796875 74.43359375 C 33.04315185546875 74.43359375 28.26757431030273 73.46962738037109 23.77274131774902 71.56847381591797 C 19.43047523498535 69.73184967041016 15.53040790557861 67.10224914550781 12.18087482452393 63.75271987915039 C 8.831341743469238 60.4031867980957 6.201741218566895 56.50312042236328 4.365118980407715 52.16086196899414 C 2.463963508605957 47.66601943969727 1.499996900558472 42.89044189453125 1.499996900558472 37.966796875 C 1.499996900558472 33.04315185546875 2.463963508605957 28.26757431030273 4.365118980407715 23.77274131774902 C 6.201741218566895 19.43047523498535 8.831341743469238 15.53040790557861 12.18087482452393 12.18087482452393 C 15.53040790557861 8.831341743469238 19.43047523498535 6.201741218566895 23.77274131774902 4.365118980407715 C 28.26757431030273 2.463963508605957 33.04315185546875 1.499996900558472 37.966796875 1.499996900558472 C 42.89044189453125 1.499996900558472 47.66601943969727 2.463963508605957 52.16086196899414 4.365118980407715 C 56.50312042236328 6.201741218566895 60.4031867980957 8.831341743469238 63.75271987915039 12.18087482452393 C 67.10224914550781 15.53040790557861 69.73184967041016 19.43047523498535 71.56847381591797 23.77274131774902 C 73.46962738037109 28.26757431030273 74.43359375 33.04315185546875 74.43359375 37.966796875 C 74.43359375 42.89044189453125 73.46962738037109 47.66601943969727 71.56847381591797 52.16086196899414 C 69.73184967041016 56.50313186645508 67.10224914550781 60.4031867980957 63.75271987915039 63.75271987915039 C 60.4031867980957 67.10224914550781 56.50313186645508 69.73184967041016 52.16086196899414 71.56847381591797 C 47.66601943969727 73.46962738037109 42.89044189453125 74.43359375 37.966796875 74.43359375 Z" stroke="none"/>
                                <path d="M 37.966796875 3 C 33.2449836730957 3 28.66600799560547 3.924095153808594 24.35705947875977 5.746635437011719 C 20.19359588623047 7.507637023925781 16.45379638671875 10.02928161621094 13.24153518676758 13.24153518676758 C 10.02927398681641 16.45379638671875 7.507621765136719 20.19359588623047 5.746635437011719 24.35705947875977 C 3.924095153808594 28.66600799560547 3 33.2449836730957 3 37.966796875 C 3 42.6886100769043 3.924095153808594 47.26758575439453 5.746635437011719 51.57653427124023 C 7.507621765136719 55.73999786376953 10.02927398681641 59.47979736328125 13.24153518676758 62.69205856323242 C 16.45379638671875 65.90431976318359 20.19359588623047 68.42597198486328 24.35705947875977 70.18695831298828 C 28.66600799560547 72.00949859619141 33.2449836730957 72.93359375 37.966796875 72.93359375 C 42.6886100769043 72.93359375 47.26758575439453 72.00949859619141 51.57653427124023 70.18695831298828 C 55.73999786376953 68.42597198486328 59.47979736328125 65.90431976318359 62.69205856323242 62.69205856323242 C 65.90431976318359 59.47979736328125 68.42597198486328 55.73999786376953 70.18695831298828 51.57653427124023 C 72.00949859619141 47.26758575439453 72.93359375 42.6886100769043 72.93359375 37.966796875 C 72.93359375 33.2449836730957 72.00949859619141 28.66600799560547 70.18695831298828 24.35705947875977 C 68.42597198486328 20.19359588623047 65.90431976318359 16.45379638671875 62.69205856323242 13.24153518676758 C 59.47979736328125 10.02928161621094 55.73999786376953 7.507637023925781 51.57653427124023 5.746635437011719 C 47.26758575439453 3.924095153808594 42.6886100769043 3 37.966796875 3 M 37.966796875 0 C 58.93528366088867 0 75.93359375 16.99832153320312 75.93359375 37.966796875 C 75.93359375 58.93528366088867 58.93528366088867 75.93359375 37.966796875 75.93359375 C 16.99831008911133 75.93359375 0 58.93528366088867 0 37.966796875 C 0 16.99832153320312 16.99831008911133 0 37.966796875 0 Z" stroke="none" fill="#4a665c"/>
                              </g>
                            </g>
                          </g>
                        </g>
                      </g>
                    </g>
                  </g>
                </g>
              </g>
            </g>
          </g>
        </g>
      </g>
    </g>
    <g id="desarrollo" transform="translate(160.901 659.732)">
      <g id="Grupo_1183000" data-name="Grupo 1183000" transform="translate(52.951 17.822)">
        <path id="Trazado_1043904" data-name="Trazado 1043904" d="M100.524,25V37.134l-2.863-1.65L91.318,47.352H72.212l-7.333,13.2L60.1,57.782l8.877-15.934H88.04l4.853-9.111-2.884-1.671Z" transform="translate(-60.1 -25)" fill="#f15f4b" fill-rule="evenodd"/>
        <path id="Trazado_1043905" data-name="Trazado 1043905" d="M92.638,211.8l-1.32,2.469H72.212l-7.333,13.2L60.1,224.7l7.2-12.9Z" transform="translate(-60.1 -191.918)" fill="#b92025" fill-rule="evenodd"/>
        <path id="Trazado_1043906" data-name="Trazado 1043906" d="M137.378,180.49v22.33h-4.79V180.49Zm4.715-1.128v23.459h4.79V170.4Zm-23.7,8.281v15.178H113.6v-6.652Zm9.494-7.153v22.33h-4.79V180.49Z" transform="translate(-107.906 -154.924)" fill="#9fc3bb" fill-rule="evenodd"/>
        <path id="Trazado_1043907" data-name="Trazado 1043907" d="M137.378,378.3v10.292h-4.79V378.3Zm9.5,0h-4.79v10.292h4.79Zm-19,0h-4.79v10.292h4.79Zm-9.494,0h-2.746l-2.044,3.64v6.652h4.79Z" transform="translate(-107.906 -340.696)" fill="#7baca2" fill-rule="evenodd"/>
      </g>
      <path id="Trazado_1043908" data-name="Trazado 1043908" d="M72.971,23.719a.846.846,0,1,1,1.543.692l-1.181,2.6a.846.846,0,0,1-1.118.426.854.854,0,0,1-.426-1.128Zm-7.046-.585a.85.85,0,1,1,1.692-.16l.277,2.831a.85.85,0,0,1-1.692.16Zm-6.386,3.012a.848.848,0,0,1,1.384-.979l1.66,2.32a.848.848,0,1,1-1.384.979ZM83.274,43.388v22.33a.854.854,0,0,1-.851.851h-4.79a.854.854,0,0,1-.851-.851V43.388a.854.854,0,0,1,.851-.851h4.79A.841.841,0,0,1,83.274,43.388ZM81.582,64.867V44.229H78.5V64.867Zm6.407-22.4v22.4h3.087V36.693Zm-1.7,23.256V42.26a.9.9,0,0,1,.1-.4l4.758-8.9a.854.854,0,0,1,1.639.33V65.718a.854.854,0,0,1-.851.851h-4.79A.847.847,0,0,1,86.286,65.718Zm-22-15.178V65.718a.854.854,0,0,1-.851.851h-4.79a.854.854,0,0,1-.851-.851V59.066a.919.919,0,0,1,.128-.458l4.768-8.483A.854.854,0,0,1,64.286,50.541Zm-1.7,14.326V53.787L59.5,59.279v5.588Zm11.2-21.479v22.33a.854.854,0,0,1-.851.851h-4.79a.854.854,0,0,1-.851-.851V43.388a.854.854,0,0,1,.851-.851h4.79A.847.847,0,0,1,73.78,43.388Zm-1.7,21.479V44.229H68.99V64.867ZM94.227,17.822V29.956a.849.849,0,0,1-1.341.692l-2.033-1.171L84.924,40.568a.839.839,0,0,1-.745.447H65.563L58.475,53.776a.854.854,0,0,1-1.2.3l-4.747-2.735a.851.851,0,0,1-.319-1.15l8.877-15.934a.85.85,0,0,1,.745-.436H80.379l4.226-7.94-2.182-1.256a.854.854,0,0,1,.011-1.479l10.505-6.067A.869.869,0,0,1,94.227,17.822ZM92.513,28.487v-9.2l-7.961,4.6,1.6.926a.843.843,0,0,1,.341,1.139L81.667,35a.852.852,0,0,1-.788.522H62.328L54.1,50.285,57.41,52.2l6.876-12.379a.847.847,0,0,1,.777-.5H83.657l6.1-11.41a.844.844,0,0,1,1.171-.341Z" transform="translate(0)" fill="#191919"/>
    </g>
  </g>
</svg>
