<svg xmlns="http://www.w3.org/2000/svg" xmlns:xlink="http://www.w3.org/1999/xlink" width="93.934" height="93.934" viewBox="0 0 93.934 93.934">
  <defs>
    <filter id="Trazado_982547" x="0" y="0" width="93.934" height="93.934" filterUnits="userSpaceOnUse">
      <feOffset dy="3" input="SourceAlpha"/>
      <feGaussianBlur stdDeviation="3" result="blur"/>
      <feFlood flood-opacity="0.161"/>
      <feComposite operator="in" in2="blur"/>
      <feComposite in="SourceGraphic"/>
    </filter>
  </defs>
  <g id="Grupo_1183467" data-name="Grupo 1183467" transform="translate(-189.033 -4069)">
    <g id="Grupo_1182369" data-name="Grupo 1182369" transform="translate(0 2289)">
      <g id="Grupo_1176309" data-name="Grupo 1176309" transform="translate(0 -206)">
        <g id="Grupo_1172970" data-name="Grupo 1172970" transform="translate(-1 -9042)">
          <g id="Grupo_1171971" data-name="Grupo 1171971" transform="translate(199.033 11034)">
            <g id="Grupo_1167337" data-name="Grupo 1167337" transform="translate(0)">
              <g id="Grupo_1166720" data-name="Grupo 1166720">
                <g id="Grupo_1164305" data-name="Grupo 1164305">
                  <g id="Grupo_1163948" data-name="Grupo 1163948">
                    <g id="Grupo_1158168" data-name="Grupo 1158168">
                      <g id="Grupo_1152576" data-name="Grupo 1152576">
                        <g id="Grupo_1148633" data-name="Grupo 1148633">
                          <g id="Grupo_1148525" data-name="Grupo 1148525">
                            <g transform="matrix(1, 0, 0, 1, -9, -6)" filter="url(#Trazado_982547)">
                              <g id="Trazado_982547-2" data-name="Trazado 982547" transform="translate(9 6)" fill="#f2f7f5">
                                <path d="M 37.966796875 74.43359375 C 33.04315185546875 74.43359375 28.26757431030273 73.46962738037109 23.77274131774902 71.56847381591797 C 19.43047523498535 69.73184967041016 15.53040790557861 67.10224914550781 12.18087482452393 63.75271987915039 C 8.831341743469238 60.4031867980957 6.201741218566895 56.50312042236328 4.365118980407715 52.16086196899414 C 2.463963508605957 47.66601943969727 1.499996900558472 42.89044189453125 1.499996900558472 37.966796875 C 1.499996900558472 33.04315185546875 2.463963508605957 28.26757431030273 4.365118980407715 23.77274131774902 C 6.201741218566895 19.43047523498535 8.831341743469238 15.53040790557861 12.18087482452393 12.18087482452393 C 15.53040790557861 8.831341743469238 19.43047523498535 6.201741218566895 23.77274131774902 4.365118980407715 C 28.26757431030273 2.463963508605957 33.04315185546875 1.499996900558472 37.966796875 1.499996900558472 C 42.89044189453125 1.499996900558472 47.66601943969727 2.463963508605957 52.16086196899414 4.365118980407715 C 56.50312042236328 6.201741218566895 60.4031867980957 8.831341743469238 63.75271987915039 12.18087482452393 C 67.10224914550781 15.53040790557861 69.73184967041016 19.43047523498535 71.56847381591797 23.77274131774902 C 73.46962738037109 28.26757431030273 74.43359375 33.04315185546875 74.43359375 37.966796875 C 74.43359375 42.89044189453125 73.46962738037109 47.66601943969727 71.56847381591797 52.16086196899414 C 69.73184967041016 56.50313186645508 67.10224914550781 60.4031867980957 63.75271987915039 63.75271987915039 C 60.4031867980957 67.10224914550781 56.50313186645508 69.73184967041016 52.16086196899414 71.56847381591797 C 47.66601943969727 73.46962738037109 42.89044189453125 74.43359375 37.966796875 74.43359375 Z" stroke="none"/>
                                <path d="M 37.966796875 3 C 33.2449836730957 3 28.66600799560547 3.924095153808594 24.35705947875977 5.746635437011719 C 20.19359588623047 7.507637023925781 16.45379638671875 10.02928161621094 13.24153518676758 13.24153518676758 C 10.02927398681641 16.45379638671875 7.507621765136719 20.19359588623047 5.746635437011719 24.35705947875977 C 3.924095153808594 28.66600799560547 3 33.2449836730957 3 37.966796875 C 3 42.6886100769043 3.924095153808594 47.26758575439453 5.746635437011719 51.57653427124023 C 7.507621765136719 55.73999786376953 10.02927398681641 59.47979736328125 13.24153518676758 62.69205856323242 C 16.45379638671875 65.90431976318359 20.19359588623047 68.42597198486328 24.35705947875977 70.18695831298828 C 28.66600799560547 72.00949859619141 33.2449836730957 72.93359375 37.966796875 72.93359375 C 42.6886100769043 72.93359375 47.26758575439453 72.00949859619141 51.57653427124023 70.18695831298828 C 55.73999786376953 68.42597198486328 59.47979736328125 65.90431976318359 62.69205856323242 62.69205856323242 C 65.90431976318359 59.47979736328125 68.42597198486328 55.73999786376953 70.18695831298828 51.57653427124023 C 72.00949859619141 47.26758575439453 72.93359375 42.6886100769043 72.93359375 37.966796875 C 72.93359375 33.2449836730957 72.00949859619141 28.66600799560547 70.18695831298828 24.35705947875977 C 68.42597198486328 20.19359588623047 65.90431976318359 16.45379638671875 62.69205856323242 13.24153518676758 C 59.47979736328125 10.02928161621094 55.73999786376953 7.507637023925781 51.57653427124023 5.746635437011719 C 47.26758575439453 3.924095153808594 42.6886100769043 3 37.966796875 3 M 37.966796875 0 C 58.93528366088867 0 75.93359375 16.99832153320312 75.93359375 37.966796875 C 75.93359375 58.93528366088867 58.93528366088867 75.93359375 37.966796875 75.93359375 C 16.99831008911133 75.93359375 0 58.93528366088867 0 37.966796875 C 0 16.99832153320312 16.99831008911133 0 37.966796875 0 Z" stroke="none" fill="#4a665c"/>
                              </g>
                            </g>
                          </g>
                        </g>
                      </g>
                    </g>
                  </g>
                </g>
              </g>
            </g>
          </g>
        </g>
      </g>
    </g>
    <g id="mision-cumplida_1_" data-name="mision-cumplida (1)" transform="translate(202.01 4078.915)">
      <g id="Grupo_1183466" data-name="Grupo 1183466" transform="translate(8.998 8.936)">
        <g id="Grupo_1183464" data-name="Grupo 1183464" transform="translate(0 0)">
          <path id="Trazado_1044961" data-name="Trazado 1044961" d="M42.827,19.5a18.025,18.025,0,0,1,5.278,2.188l3.43-1.523,4.042,4.042-1.523,3.429a18.024,18.024,0,0,1,2.189,5.279l3.5,1.347v5.717l-3.5,1.347A18.025,18.025,0,0,1,54.054,46.6l1.523,3.43-4.042,4.042-3.429-1.523a18.021,18.021,0,0,1-5.279,2.188l-1.347,3.5H35.763l-1.347-3.5a18.026,18.026,0,0,1-5.278-2.188l-3.43,1.523-4.042-4.042L23.189,46.6A18.025,18.025,0,0,1,21,41.325l-3.5-1.347V34.262L21,32.915a18.024,18.024,0,0,1,2.188-5.278l-1.523-3.429,4.042-4.042,3.43,1.523A18.028,18.028,0,0,1,34.416,19.5L35.763,16H41.48Z" transform="translate(-17.501 -16)" fill="#ffe177" fill-rule="evenodd"/>
          <path id="Trazado_1044962" data-name="Trazado 1044962" d="M94.743,52.553l-3.43,1.523-.528-.528L94,52.12Q94.367,52.345,94.743,52.553ZM108.432,19.5a18.025,18.025,0,0,1,5.278,2.188l-.975.433a23.776,23.776,0,0,0-6.02-2.621L105.367,16h1.717Zm5.279,33.053a18.021,18.021,0,0,1-5.279,2.188l-1.347,3.5h-1.717l1.347-3.5a23.768,23.768,0,0,0,6.022-2.621ZM90.785,20.693l.528-.528,3.43,1.523q-.376.207-.742.433Zm25.165,0,1.189-.528,4.042,4.042-1.523,3.429a18.024,18.024,0,0,1,2.189,5.279l3.5,1.347v5.717l-3.5,1.347a18.025,18.025,0,0,1-2.188,5.278l1.523,3.43-4.042,4.042-1.189-.528,3.514-3.514-1.523-3.43a18.025,18.025,0,0,0,2.188-5.278l3.5-1.347V34.262l-3.5-1.347a18.024,18.024,0,0,0-2.189-5.279l1.523-3.429Z" transform="translate(-83.106 -16)" fill="#ffd064" fill-rule="evenodd"/>
          <circle id="Elipse_13177" data-name="Elipse 13177" cx="11.199" cy="11.199" r="11.199" transform="translate(7.648 12.788) rotate(-13.3)" fill="#eceff1"/>
          <path id="Trazado_1044963" data-name="Trazado 1044963" d="M123.382,110.68a11.2,11.2,0,0,0,0,22.4q.45,0,.891-.035a11.2,11.2,0,0,1,0-22.328Q123.832,110.68,123.382,110.68Z" transform="translate(-102.262 -100.759)" fill="#d1d1d6" fill-rule="evenodd"/>
        </g>
        <g id="Grupo_1183465" data-name="Grupo 1183465" transform="translate(20.822 21.167)">
          <circle id="Elipse_13178" data-name="Elipse 13178" cx="13.141" cy="13.141" r="13.141" transform="translate(0 2.849)" fill="#fe646f"/>
          <path id="Trazado_1044964" data-name="Trazado 1044964" d="M337.139,245.192a13.141,13.141,0,1,1,0,26.281c-.176,0-.35,0-.524-.011a13.14,13.14,0,0,0,0-26.259C336.789,245.2,336.963,245.192,337.139,245.192Z" transform="translate(-323.998 -242.343)" fill="#fd4755" fill-rule="evenodd"/>
          <circle id="Elipse_13179" data-name="Elipse 13179" cx="8.444" cy="8.444" r="8.444" transform="translate(4.696 7.546)" fill="#eceff1"/>
          <path id="Trazado_1044965" data-name="Trazado 1044965" d="M269.473,290.011c.176,0,.351.006.524.017a8.444,8.444,0,0,0,0,16.855c-.173.011-.348.017-.524.017a8.444,8.444,0,0,1,0-16.889Z" transform="translate(-256.333 -282.465)" fill="#d1d1d6" fill-rule="evenodd"/>
          <circle id="Elipse_13180" data-name="Elipse 13180" cx="3.748" cy="3.748" r="3.748" transform="translate(8.259 13.956) rotate(-22.514)" fill="#fe646f"/>
          <path id="Trazado_1044966" data-name="Trazado 1044966" d="M309.6,334.829a3.774,3.774,0,0,1,.524.037,3.748,3.748,0,0,0,0,7.422,3.748,3.748,0,1,1-.524-7.459Z" transform="translate(-296.455 -322.587)" fill="#fd4755" fill-rule="evenodd"/>
          <path id="Trazado_1044967" data-name="Trazado 1044967" d="M410.643,223.016l-4.7,4.7a.306.306,0,0,1-.288.085L401.974,227a.308.308,0,0,1-.241-.241l-.794-3.684a.306.306,0,0,1,.085-.288l4.7-4.7a.314.314,0,0,1,.53.156l.708,3.287a.309.309,0,0,0,.241.241l3.287.708a.314.314,0,0,1,.156.529Z" transform="translate(-381.575 -218.001)" fill="#e3a76f" fill-rule="evenodd"/>
          <path id="Trazado_1044968" data-name="Trazado 1044968" d="M417.024,261.127l-4.7,4.7a.306.306,0,0,1-.288.085l-3.684-.794a.308.308,0,0,1-.241-.241l-.055-.254,3.665.79a.306.306,0,0,0,.288-.085l4.7-4.7a.333.333,0,0,0,.045-.055l.114.025a.314.314,0,0,1,.156.53Z" transform="translate(-387.956 -256.112)" fill="#c48958" fill-rule="evenodd"/>
        </g>
      </g>
      <path id="Trazado_1044969" data-name="Trazado 1044969" d="M57.458,35.194l-2.1-.452-3.814,3.815,2.1.452ZM33.013,8.109a.839.839,0,0,1,.588.515l1.191,3.093A18.823,18.823,0,0,1,39.5,13.67l3.032-1.347a.838.838,0,0,1,.933.174l4.042,4.042a.838.838,0,0,1,.174.933L46.336,20.5a18.819,18.819,0,0,1,1.953,4.711l3.093,1.19a.839.839,0,0,1,.537.782v1.279a.838.838,0,1,1-1.677,0v-.7l-2.961-1.141a.835.835,0,0,1-.515-.588A17.148,17.148,0,0,0,44.679,21a.839.839,0,0,1-.052-.78l1.29-2.9-3.229-3.228-2.9,1.289a.839.839,0,0,1-.78-.052,17.144,17.144,0,0,0-5.033-2.086.835.835,0,0,1-.588-.515L32.243,9.763H27.678l-1.141,2.963a.84.84,0,0,1-.588.515,17.148,17.148,0,0,0-5.033,2.086.839.839,0,0,1-.78.052l-2.9-1.289L14,17.317l1.29,2.9a.841.841,0,0,1-.052.78,17.13,17.13,0,0,0-2.086,5.033.841.841,0,0,1-.515.588L9.679,27.762v4.565l2.962,1.14a.839.839,0,0,1,.515.588,17.138,17.138,0,0,0,2.087,5.034.84.84,0,0,1,.052.78L14,42.772,17.233,46l2.9-1.29a.839.839,0,0,1,.78.052,17.148,17.148,0,0,0,5.033,2.086.838.838,0,0,1,.588.515l1.177,3.056A.838.838,0,0,1,27.33,52H27.1a.837.837,0,0,1-.782-.537l-1.191-3.094A18.806,18.806,0,0,1,20.42,46.42l-3.033,1.346a.836.836,0,0,1-.932-.174L12.412,43.55a.838.838,0,0,1-.173-.933l1.347-3.031a18.79,18.79,0,0,1-1.953-4.711L8.539,33.685A.837.837,0,0,1,8,32.9V27.187a.837.837,0,0,1,.536-.782l3.093-1.191a18.791,18.791,0,0,1,1.953-4.71l-1.347-3.032a.838.838,0,0,1,.173-.933L16.455,12.5a.837.837,0,0,1,.932-.174L20.42,13.67a18.81,18.81,0,0,1,4.709-1.953L26.32,8.624a.837.837,0,0,1,.588-.515h6.1ZM55.105,46.082A12.3,12.3,0,1,1,48.153,35a.864.864,0,0,0,.018.177l.776,3.6-.187.187a9.286,9.286,0,1,0,1.183,1.188l.19-.189,3.6.776a.823.823,0,0,0,.162.018,12.326,12.326,0,0,1,1.207,5.32ZM47.569,40.16a7.618,7.618,0,1,0,1.182,1.189l-2.157,2.156a4.594,4.594,0,1,1-1.18-1.191Zm-2.193,4.565-1.965,1.965A.839.839,0,0,1,42.225,45.5L44.2,43.53a2.91,2.91,0,1,0,1.177,1.195Zm4.53-9.453,3.814-3.815.453,2.1-3.815,3.815Zm9.825.02-4.462,4.462a13.978,13.978,0,1,1-6.1-6.118l4.453-4.452a.839.839,0,0,1,1.412.416l.548,2.546.261-.261A.838.838,0,1,1,57.03,33.07l-.261.261,2.545.549a.838.838,0,0,1,.416,1.412ZM29.4,34.316l6.057-7.489a.838.838,0,1,0-1.3-1.054l-5.471,6.764-2.976-2.976a.838.838,0,0,0-1.185,1.185l3.634,3.635a.84.84,0,0,0,.593.245h.044a.84.84,0,0,0,.608-.31Zm-1.858,5.806A10.362,10.362,0,1,1,40.32,29.892a.837.837,0,0,0,.838.826h.012a.837.837,0,0,0,.826-.85,12.037,12.037,0,1,0-21.443,7.688,12.1,12.1,0,0,0,6.6,4.2.83.83,0,0,0,.2.023.838.838,0,0,0,.194-1.654Z" fill="#242222" fill-rule="evenodd"/>
    </g>
  </g>
</svg>
