<svg xmlns="http://www.w3.org/2000/svg" xmlns:xlink="http://www.w3.org/1999/xlink" width="93.934" height="93.934" viewBox="0 0 93.934 93.934">
  <defs>
    <filter id="Trazado_982547" x="0" y="0" width="93.934" height="93.934" filterUnits="userSpaceOnUse">
      <feOffset dy="3" input="SourceAlpha"/>
      <feGaussianBlur stdDeviation="3" result="blur"/>
      <feFlood flood-opacity="0.161"/>
      <feComposite operator="in" in2="blur"/>
      <feComposite in="SourceGraphic"/>
    </filter>
  </defs>
  <g id="Grupo_1183002" data-name="Grupo 1183002" transform="translate(-609.033 -658)">
    <g id="Grupo_1182334" data-name="Grupo 1182334" transform="translate(420 -1122)">
      <g id="Grupo_1176309" data-name="Grupo 1176309" transform="translate(0 -206)">
        <g id="Grupo_1172970" data-name="Grupo 1172970" transform="translate(-1 -9042)">
          <g id="Grupo_1171971" data-name="Grupo 1171971" transform="translate(199.033 11034)">
            <g id="Grupo_1167337" data-name="Grupo 1167337" transform="translate(0)">
              <g id="Grupo_1166720" data-name="Grupo 1166720">
                <g id="Grupo_1164305" data-name="Grupo 1164305">
                  <g id="Grupo_1163948" data-name="Grupo 1163948">
                    <g id="Grupo_1158168" data-name="Grupo 1158168">
                      <g id="Grupo_1152576" data-name="Grupo 1152576">
                        <g id="Grupo_1148633" data-name="Grupo 1148633">
                          <g id="Grupo_1148525" data-name="Grupo 1148525">
                            <g transform="matrix(1, 0, 0, 1, -9, -6)" filter="url(#Trazado_982547)">
                              <g id="Trazado_982547-2" data-name="Trazado 982547" transform="translate(9 6)" fill="#f2f7f5">
                                <path d="M 37.966796875 74.43359375 C 33.04315185546875 74.43359375 28.26757431030273 73.46962738037109 23.77274131774902 71.56847381591797 C 19.43047523498535 69.73184967041016 15.53040790557861 67.10224914550781 12.18087482452393 63.75271987915039 C 8.831341743469238 60.4031867980957 6.201741218566895 56.50312042236328 4.365118980407715 52.16086196899414 C 2.463963508605957 47.66601943969727 1.499996900558472 42.89044189453125 1.499996900558472 37.966796875 C 1.499996900558472 33.04315185546875 2.463963508605957 28.26757431030273 4.365118980407715 23.77274131774902 C 6.201741218566895 19.43047523498535 8.831341743469238 15.53040790557861 12.18087482452393 12.18087482452393 C 15.53040790557861 8.831341743469238 19.43047523498535 6.201741218566895 23.77274131774902 4.365118980407715 C 28.26757431030273 2.463963508605957 33.04315185546875 1.499996900558472 37.966796875 1.499996900558472 C 42.89044189453125 1.499996900558472 47.66601943969727 2.463963508605957 52.16086196899414 4.365118980407715 C 56.50312042236328 6.201741218566895 60.4031867980957 8.831341743469238 63.75271987915039 12.18087482452393 C 67.10224914550781 15.53040790557861 69.73184967041016 19.43047523498535 71.56847381591797 23.77274131774902 C 73.46962738037109 28.26757431030273 74.43359375 33.04315185546875 74.43359375 37.966796875 C 74.43359375 42.89044189453125 73.46962738037109 47.66601943969727 71.56847381591797 52.16086196899414 C 69.73184967041016 56.50313186645508 67.10224914550781 60.4031867980957 63.75271987915039 63.75271987915039 C 60.4031867980957 67.10224914550781 56.50313186645508 69.73184967041016 52.16086196899414 71.56847381591797 C 47.66601943969727 73.46962738037109 42.89044189453125 74.43359375 37.966796875 74.43359375 Z" stroke="none"/>
                                <path d="M 37.966796875 3 C 33.2449836730957 3 28.66600799560547 3.924095153808594 24.35705947875977 5.746635437011719 C 20.19359588623047 7.507637023925781 16.45379638671875 10.02928161621094 13.24153518676758 13.24153518676758 C 10.02927398681641 16.45379638671875 7.507621765136719 20.19359588623047 5.746635437011719 24.35705947875977 C 3.924095153808594 28.66600799560547 3 33.2449836730957 3 37.966796875 C 3 42.6886100769043 3.924095153808594 47.26758575439453 5.746635437011719 51.57653427124023 C 7.507621765136719 55.73999786376953 10.02927398681641 59.47979736328125 13.24153518676758 62.69205856323242 C 16.45379638671875 65.90431976318359 20.19359588623047 68.42597198486328 24.35705947875977 70.18695831298828 C 28.66600799560547 72.00949859619141 33.2449836730957 72.93359375 37.966796875 72.93359375 C 42.6886100769043 72.93359375 47.26758575439453 72.00949859619141 51.57653427124023 70.18695831298828 C 55.73999786376953 68.42597198486328 59.47979736328125 65.90431976318359 62.69205856323242 62.69205856323242 C 65.90431976318359 59.47979736328125 68.42597198486328 55.73999786376953 70.18695831298828 51.57653427124023 C 72.00949859619141 47.26758575439453 72.93359375 42.6886100769043 72.93359375 37.966796875 C 72.93359375 33.2449836730957 72.00949859619141 28.66600799560547 70.18695831298828 24.35705947875977 C 68.42597198486328 20.19359588623047 65.90431976318359 16.45379638671875 62.69205856323242 13.24153518676758 C 59.47979736328125 10.02928161621094 55.73999786376953 7.507637023925781 51.57653427124023 5.746635437011719 C 47.26758575439453 3.924095153808594 42.6886100769043 3 37.966796875 3 M 37.966796875 0 C 58.93528366088867 0 75.93359375 16.99832153320312 75.93359375 37.966796875 C 75.93359375 58.93528366088867 58.93528366088867 75.93359375 37.966796875 75.93359375 C 16.99831008911133 75.93359375 0 58.93528366088867 0 37.966796875 C 0 16.99832153320312 16.99831008911133 0 37.966796875 0 Z" stroke="none" fill="#4a665c"/>
                              </g>
                            </g>
                          </g>
                        </g>
                      </g>
                    </g>
                  </g>
                </g>
              </g>
            </g>
          </g>
        </g>
      </g>
    </g>
    <g id="creatividad" transform="translate(629.996 677.667)">
      <path id="Trazado_1043909" data-name="Trazado 1043909" d="M108.978,26.5c0-14.1-15.782-24.512-30.644-14.537a8.775,8.775,0,0,0-2.4,2.4c-7.276,10.868-3.667,22.206,4.305,27.522A10.075,10.075,0,0,1,84.608,50.3v3.09H96.373v-3.2a9.893,9.893,0,0,1,4.32-8.274A18.461,18.461,0,0,0,108.978,26.5Zm0,0" transform="translate(-64.435 -7.168)" fill="#599072"/>
      <path id="Trazado_1043910" data-name="Trazado 1043910" d="M60.206,16.411a4.2,4.2,0,0,0-4.2-4.2,4.2,4.2,0,0,0,4.2-4.2,4.2,4.2,0,0,0,4.2,4.2A4.2,4.2,0,0,0,60.206,16.411Zm0,0" transform="translate(-50.117 -7.167)" fill="#f8cf6a"/>
      <path id="Trazado_1043911" data-name="Trazado 1043911" d="M12.206,96.412A4.2,4.2,0,0,0,8,92.21a4.2,4.2,0,0,0,4.2-4.2,4.2,4.2,0,0,0,4.2,4.2A4.2,4.2,0,0,0,12.206,96.412Zm0,0" transform="translate(-7.16 -78.764)" fill="#f8cf6a"/>
      <path id="Trazado_1043912" data-name="Trazado 1043912" d="M208,440.008v.84a4.2,4.2,0,0,0,8.4,0v-.84" transform="translate(-186.15 -393.787)" fill="#999"/>
      <path id="Trazado_1043913" data-name="Trazado 1043913" d="M210.945,444.837a4.188,4.188,0,0,0,2.941-3.988v-.84H208v.84A4.19,4.19,0,0,0,210.945,444.837Zm0,0" transform="translate(-186.15 -393.788)" fill="#bab8b9"/>
      <path id="Trazado_1043914" data-name="Trazado 1043914" d="M117.482,50.529a2.516,2.516,0,0,0-5.027-.148,2.514,2.514,0,0,0-3.58,3.527,3.339,3.339,0,0,0-1.986,5.9,2.463,2.463,0,0,0-.363-.037,2.521,2.521,0,0,0,0,5.042,2.463,2.463,0,0,0,.363-.037,3.336,3.336,0,0,0,1.892,5.892,2.517,2.517,0,0,0,3.636,3.479,2.518,2.518,0,0,0,5.034-.091Zm0,0" transform="translate(-93.076 -42.965)" fill="#dcb29c"/>
      <path id="Trazado_1043915" data-name="Trazado 1043915" d="M263.7,50.529a2.516,2.516,0,0,1,5.027-.148,2.514,2.514,0,0,1,3.58,3.527,3.339,3.339,0,0,1,1.986,5.9,2.463,2.463,0,0,1,.363-.037,2.521,2.521,0,0,1,0,5.042,2.463,2.463,0,0,1-.363-.037,3.336,3.336,0,0,1-1.892,5.892,2.517,2.517,0,0,1-3.636,3.479,2.518,2.518,0,0,1-5.034-.091Zm0,0" transform="translate(-235.995 -42.965)" fill="#dcb29c"/>
      <path id="Trazado_1043916" data-name="Trazado 1043916" d="M179.365,70.261A3.365,3.365,0,0,1,176,66.9h1.681a1.681,1.681,0,0,0,3.361,0V43.369a1.681,1.681,0,1,0-3.361,0H176a3.361,3.361,0,1,1,6.723,0V66.9A3.365,3.365,0,0,1,179.365,70.261Zm0,0" transform="translate(-157.512 -35.806)"/>
      <path id="Trazado_1043917" data-name="Trazado 1043917" d="M139.365,62.731a3.361,3.361,0,1,1,3.361-3.361h-1.681a1.681,1.681,0,1,0-1.681,1.681Zm0,0" transform="translate(-121.714 -50.125)"/>
      <path id="Trazado_1043918" data-name="Trazado 1043918" d="M116.206,104.412a4.2,4.2,0,0,1,0-8.4v1.681a2.521,2.521,0,1,0,2.521,2.521h1.681A4.207,4.207,0,0,1,116.206,104.412Zm0,0" transform="translate(-100.235 -85.923)"/>
      <path id="Trazado_1043919" data-name="Trazado 1043919" d="M139.365,254.731a3.361,3.361,0,0,1,0-6.723v1.681a1.681,1.681,0,1,0,1.681,1.681h1.681A3.365,3.365,0,0,1,139.365,254.731Zm0,0" transform="translate(-121.714 -221.956)"/>
      <path id="Trazado_1043920" data-name="Trazado 1043920" d="M116.206,200.412a4.2,4.2,0,1,1,4.2-4.2h-1.681a2.521,2.521,0,1,0-2.521,2.521Zm0,0" transform="translate(-100.235 -171.839)"/>
      <path id="Trazado_1043921" data-name="Trazado 1043921" d="M99.365,158.731a3.361,3.361,0,0,1,0-6.723v1.681a1.681,1.681,0,1,0,0,3.361Zm0,0" transform="translate(-85.916 -136.041)"/>
      <path id="Trazado_1043922" data-name="Trazado 1043922" d="M259.365,70.261A3.365,3.365,0,0,1,256,66.9V43.369a3.361,3.361,0,1,1,6.723,0h-1.681a1.681,1.681,0,1,0-3.361,0V66.9a1.681,1.681,0,1,0,3.361,0h1.681A3.365,3.365,0,0,1,259.365,70.261Zm0,0" transform="translate(-229.108 -35.806)"/>
      <path id="Trazado_1043923" data-name="Trazado 1043923" d="M299.365,62.731V61.05a1.681,1.681,0,1,0-1.681-1.681H296a3.361,3.361,0,1,1,3.361,3.361Zm0,0" transform="translate(-264.906 -50.125)"/>
      <path id="Trazado_1043924" data-name="Trazado 1043924" d="M308.206,104.412a4.207,4.207,0,0,1-4.2-4.2h1.681a2.521,2.521,0,1,0,2.521-2.521V96.008a4.2,4.2,0,1,1,0,8.4Zm0,0" transform="translate(-272.066 -85.923)"/>
      <path id="Trazado_1043925" data-name="Trazado 1043925" d="M299.365,254.731A3.365,3.365,0,0,1,296,251.369h1.681a1.681,1.681,0,1,0,1.681-1.681v-1.681a3.361,3.361,0,0,1,0,6.723Zm0,0" transform="translate(-264.906 -221.956)"/>
      <path id="Trazado_1043926" data-name="Trazado 1043926" d="M308.206,200.412v-1.681a2.521,2.521,0,1,0-2.521-2.521H304a4.2,4.2,0,1,1,4.2,4.2Zm0,0" transform="translate(-272.066 -171.839)"/>
      <path id="Trazado_1043927" data-name="Trazado 1043927" d="M368,158.731V157.05a1.681,1.681,0,1,0,0-3.361v-1.681a3.361,3.361,0,0,1,0,6.723Zm0,0" transform="translate(-329.343 -136.041)"/>
      <path id="Trazado_1043928" data-name="Trazado 1043928" d="M89.213,47.061H77.448a.84.84,0,0,1-.84-.84V43.159a9.247,9.247,0,0,0-4-7.756,19.237,19.237,0,0,1-8.592-16.69l1.68.052a17.572,17.572,0,0,0,7.846,15.241,10.92,10.92,0,0,1,4.751,9.153V45.38H88.373V43.017a10.688,10.688,0,0,1,4.7-8.975A17.646,17.646,0,0,0,82.2,1.716L82.1.039a19.178,19.178,0,0,1,14.468,5.2A19.324,19.324,0,0,1,94,35.443a9.01,9.01,0,0,0-3.945,7.574v3.2a.84.84,0,0,1-.84.84Zm0,0" transform="translate(-57.275)"/>
      <path id="Trazado_1043929" data-name="Trazado 1043929" d="M205.046,445.891A5.047,5.047,0,0,1,200,440.848v-.84h1.681v.84a3.361,3.361,0,0,0,6.723,0v-.84h1.681v.84A5.047,5.047,0,0,1,205.046,445.891Zm0,0" transform="translate(-178.991 -393.787)"/>
      <path id="Trazado_1043930" data-name="Trazado 1043930" d="M168,400.008h16.807v1.681H168Zm0,0" transform="translate(-150.352 -357.989)"/>
      <path id="Trazado_1043931" data-name="Trazado 1043931" d="M152,368.008h20.169v1.681H152Zm0,0" transform="translate(-136.033 -329.351)"/>
      <path id="Trazado_1043932" data-name="Trazado 1043932" d="M53.046,10.092a.84.84,0,0,1-.84-.84A3.365,3.365,0,0,0,48.844,5.89a.84.84,0,0,1,0-1.681A3.365,3.365,0,0,0,52.206.848a.84.84,0,1,1,1.681,0A3.365,3.365,0,0,0,57.248,4.21a.84.84,0,1,1,0,1.681,3.365,3.365,0,0,0-3.361,3.361A.84.84,0,0,1,53.046,10.092ZM51.628,5.05a5.081,5.081,0,0,1,1.418,1.418A5.08,5.08,0,0,1,54.464,5.05a5.08,5.08,0,0,1-1.418-1.418A5.08,5.08,0,0,1,51.628,5.05Zm0,0" transform="translate(-42.958 -0.008)"/>
      <path id="Trazado_1043933" data-name="Trazado 1043933" d="M5.046,90.092a.84.84,0,0,1-.84-.84A3.365,3.365,0,0,0,.844,85.891a.84.84,0,0,1,0-1.681,3.365,3.365,0,0,0,3.361-3.361.84.84,0,1,1,1.681,0A3.365,3.365,0,0,0,9.248,84.21a.84.84,0,0,1,0,1.681,3.365,3.365,0,0,0-3.361,3.361A.84.84,0,0,1,5.046,90.092ZM3.628,85.05a5.091,5.091,0,0,1,1.418,1.418A5.091,5.091,0,0,1,6.464,85.05a5.091,5.091,0,0,1-1.418-1.418A5.081,5.081,0,0,1,3.628,85.05Zm0,0" transform="translate(0 -71.604)"/>
    </g>
  </g>
</svg>
