<svg xmlns="http://www.w3.org/2000/svg" xmlns:xlink="http://www.w3.org/1999/xlink" width="113" height="113" viewBox="0 0 113 113">
  <defs>
    <filter id="Trazado_982547" x="0" y="0" width="113" height="113" filterUnits="userSpaceOnUse">
      <feOffset dy="3" input="SourceAlpha"/>
      <feGaussianBlur stdDeviation="3" result="blur"/>
      <feFlood flood-opacity="0.161"/>
      <feComposite operator="in" in2="blur"/>
      <feComposite in="SourceGraphic"/>
    </filter>
  </defs>
  <g id="Grupo_1183553" data-name="Grupo 1183553" transform="translate(-196 -1178.046)">
    <g id="Grupo_1182567" data-name="Grupo 1182567" transform="translate(0 -7689.955)">
      <g id="Grupo_1180298" data-name="Grupo 1180298" transform="translate(22 3193)">
        <g id="Grupo_1173622" data-name="Grupo 1173622" transform="translate(-22 3581)">
          <g id="Grupo_1172087" data-name="Grupo 1172087" transform="translate(205 2100)">
            <g id="Grupo_1171485" data-name="Grupo 1171485">
              <g id="Grupo_1167519" data-name="Grupo 1167519" transform="translate(0)">
                <g id="Grupo_1166845" data-name="Grupo 1166845">
                  <g id="Grupo_1166720" data-name="Grupo 1166720">
                    <g id="Grupo_1164305" data-name="Grupo 1164305">
                      <g id="Grupo_1163948" data-name="Grupo 1163948">
                        <g id="Grupo_1158168" data-name="Grupo 1158168">
                          <g id="Grupo_1152576" data-name="Grupo 1152576">
                            <g id="Grupo_1148633" data-name="Grupo 1148633">
                              <g id="Grupo_1148525" data-name="Grupo 1148525">
                                <g transform="matrix(1, 0, 0, 1, -9, -6)" filter="url(#Trazado_982547)">
                                  <g id="Trazado_982547-2" data-name="Trazado 982547" transform="translate(9 6)" fill="#fdf6ea">
                                    <path d="M 47.5 93.5 C 41.28937149047852 93.5 35.26533508300781 92.28397369384766 29.59518623352051 89.88570404052734 C 24.11771965026855 87.56893157958984 19.19813346862793 84.25196075439453 14.97309303283691 80.02691650390625 C 10.74804019927979 75.80186462402344 7.431066513061523 70.88229370117188 5.114293098449707 65.40481567382812 C 2.716026782989502 59.73468017578125 1.5 53.71062850952148 1.5 47.5 C 1.5 41.28937149047852 2.716026782989502 35.26533508300781 5.114293098449707 29.59518623352051 C 7.431066513061523 24.11771965026855 10.74804019927979 19.19813346862793 14.97309303283691 14.97309303283691 C 19.19813346862793 10.74804019927979 24.11771965026855 7.431066513061523 29.59518623352051 5.114293098449707 C 35.26533508300781 2.716026782989502 41.28937149047852 1.5 47.5 1.5 C 53.71062850952148 1.5 59.73468017578125 2.716026782989502 65.40481567382812 5.114293098449707 C 70.88229370117188 7.431066513061523 75.80186462402344 10.74804019927979 80.02691650390625 14.97309303283691 C 84.25196075439453 19.19813346862793 87.56893157958984 24.11771965026855 89.88570404052734 29.59518623352051 C 92.28397369384766 35.26533508300781 93.5 41.28937149047852 93.5 47.5 C 93.5 53.71062850952148 92.28397369384766 59.73468017578125 89.88570404052734 65.40481567382812 C 87.56893157958984 70.88229370117188 84.25196075439453 75.80186462402344 80.02691650390625 80.02691650390625 C 75.80186462402344 84.25196075439453 70.88229370117188 87.56893157958984 65.40481567382812 89.88570404052734 C 59.73468017578125 92.28397369384766 53.71062850952148 93.5 47.5 93.5 Z" stroke="none"/>
                                    <path d="M 47.5 3 C 41.49121475219727 3 35.66376876831055 4.176155090332031 30.17950439453125 6.495796203613281 C 24.88084411621094 8.736953735351562 20.12152099609375 11.94598388671875 16.03375244140625 16.03375244140625 C 11.94598388671875 20.12152099609375 8.736953735351562 24.88084411621094 6.495796203613281 30.17950439453125 C 4.176155090332031 35.66376876831055 3 41.49121475219727 3 47.5 C 3 53.50878524780273 4.176155090332031 59.33623123168945 6.495796203613281 64.82049560546875 C 8.736953735351562 70.11915588378906 11.94598388671875 74.87847900390625 16.03375244140625 78.96624755859375 C 20.12152099609375 83.05401611328125 24.88084411621094 86.26304626464844 30.17950439453125 88.50419616699219 C 35.66376876831055 90.82384490966797 41.49121475219727 92 47.5 92 C 53.50878524780273 92 59.33623123168945 90.82384490966797 64.82049560546875 88.50419616699219 C 70.11915588378906 86.26304626464844 74.87847900390625 83.05401611328125 78.96624755859375 78.96624755859375 C 83.05401611328125 74.87847900390625 86.26304626464844 70.11915588378906 88.50419616699219 64.82049560546875 C 90.82384490966797 59.33623123168945 92 53.50878524780273 92 47.5 C 92 41.49121475219727 90.82384490966797 35.66376876831055 88.50419616699219 30.17950439453125 C 86.26304626464844 24.88084411621094 83.05401611328125 20.12152099609375 78.96624755859375 16.03375244140625 C 74.87847900390625 11.94598388671875 70.11915588378906 8.736953735351562 64.82049560546875 6.495796203613281 C 59.33623123168945 4.176155090332031 53.50878524780273 3 47.5 3 M 47.5 0 C 73.7335205078125 0 95 21.2664794921875 95 47.5 C 95 73.7335205078125 73.7335205078125 95 47.5 95 C 21.2664794921875 95 0 73.7335205078125 0 47.5 C 0 21.2664794921875 21.2664794921875 0 47.5 0 Z" stroke="none" fill="#edae3b"/>
                                  </g>
                                </g>
                              </g>
                            </g>
                          </g>
                        </g>
                      </g>
                    </g>
                  </g>
                </g>
              </g>
            </g>
          </g>
        </g>
      </g>
    </g>
    <g id="emprendimiento-social" transform="translate(199.01 1170.582)">
      <path id="Trazado_1045195" data-name="Trazado 1045195" d="M186.489,181H149.244a1.949,1.949,0,0,0-1.944,1.944v26.491a1.949,1.949,0,0,0,1.944,1.944h37.245a1.948,1.948,0,0,0,1.94-1.944V182.943A1.947,1.947,0,0,0,186.489,181Z" transform="translate(-107.279 -131.979)" fill="#4d66d2" fill-rule="evenodd"/>
      <path id="Trazado_1045196" data-name="Trazado 1045196" d="M183.073,181H149.244a1.949,1.949,0,0,0-1.944,1.944v23.5h33.828a1.949,1.949,0,0,0,1.944-1.944V181Z" transform="translate(-107.279 -131.979)" fill="#6b7ed9" fill-rule="evenodd"/>
      <path id="Trazado_1045197" data-name="Trazado 1045197" d="M186.489,181H149.244a1.949,1.949,0,0,0-1.944,1.944V184.7l10.5,10.618h20.124l10.5-10.618v-1.752A1.946,1.946,0,0,0,186.489,181Z" transform="translate(-107.279 -131.979)" fill="#8c9eff" fill-rule="evenodd"/>
      <path id="Trazado_1045198" data-name="Trazado 1045198" d="M280.477,266.86h-8.019a.9.9,0,0,0-.9.9v5.681a.9.9,0,0,0,.9.895h8.019a.9.9,0,0,0,.9-.895v-5.681A.9.9,0,0,0,280.477,266.86Z" transform="translate(-216.269 -207.288)" fill="#ffe559" fill-rule="evenodd"/>
      <path id="Trazado_1045199" data-name="Trazado 1045199" d="M245.838,108.744v-5.138H235v5.138H230.02V102.8A4.182,4.182,0,0,1,234.2,98.62h12.45a4.181,4.181,0,0,1,4.173,4.177v5.947Z" transform="translate(-179.834 -59.722)" fill="#ffe559" fill-rule="evenodd"/>
      <path id="Trazado_1045200" data-name="Trazado 1045200" d="M218.79,211.948a1.329,1.329,0,0,0,0-2.658h-.038a1.329,1.329,0,0,0,0,2.658Zm-4.734,0a1.329,1.329,0,0,0,0-2.658H199.381a1.329,1.329,0,1,0,0,2.658Z" transform="translate(-151.793 -156.792)" fill="#e8ebff"/>
      <g id="Grupo_1183552" data-name="Grupo 1183552" transform="translate(25.85 31.391)">
        <path id="Trazado_1045201" data-name="Trazado 1045201" d="M43.7,388.889a26.083,26.083,0,0,0,17.075,0v-6.981c0-1.927-2.157-3.507-4.79-3.507h-7.5c-2.634,0-4.787,1.582-4.787,3.507Z" transform="translate(-42.261 -336.512)" fill="#00d391" fill-rule="evenodd"/>
        <path id="Trazado_1045202" data-name="Trazado 1045202" d="M67.17,389.669a25.348,25.348,0,0,0,14.191-.78v-6.981c0-1.927-2.157-3.507-4.79-3.507H69.278a4.284,4.284,0,0,0-2.108,3.609Z" transform="translate(-62.847 -336.512)" fill="#00f4a8" fill-rule="evenodd"/>
        <path id="Trazado_1045203" data-name="Trazado 1045203" d="M79.736,311.11A4.686,4.686,0,1,1,75.05,315.8,4.685,4.685,0,0,1,79.736,311.11Z" transform="translate(-69.758 -277.491)" fill="#ffb09e" fill-rule="evenodd"/>
        <path id="Trazado_1045204" data-name="Trazado 1045204" d="M94.927,311.11a4.685,4.685,0,0,1,3.129,8.172A4.685,4.685,0,0,1,92.37,314.7a4.67,4.67,0,0,1,1.557-3.486A4.684,4.684,0,0,1,94.927,311.11Z" transform="translate(-84.95 -277.491)" fill="#ffcebf" fill-rule="evenodd"/>
        <path id="Trazado_1045205" data-name="Trazado 1045205" d="M264.906,388.889a26.083,26.083,0,0,1-17.076,0v-6.981c0-1.927,2.157-3.507,4.79-3.507h7.5c2.634,0,4.787,1.582,4.787,3.507v6.981Z" transform="translate(-221.306 -336.512)" fill="#bd50b6" fill-rule="evenodd"/>
        <path id="Trazado_1045206" data-name="Trazado 1045206" d="M262.021,389.669a25.348,25.348,0,0,1-14.191-.78v-6.981c0-1.927,2.157-3.507,4.79-3.507h7.295a4.284,4.284,0,0,1,2.108,3.609v7.66Z" transform="translate(-221.306 -336.512)" fill="#e56ab9" fill-rule="evenodd"/>
        <path id="Trazado_1045207" data-name="Trazado 1045207" d="M283.856,311.11a4.686,4.686,0,1,0,4.686,4.686A4.685,4.685,0,0,0,283.856,311.11Z" transform="translate(-248.794 -277.491)" fill="#ffb09e" fill-rule="evenodd"/>
        <path id="Trazado_1045208" data-name="Trazado 1045208" d="M283.856,311.11a2.553,2.553,0,1,0,1,.108A4.685,4.685,0,0,0,283.856,311.11Z" transform="translate(-248.794 -277.491)" fill="#ffcebf" fill-rule="evenodd"/>
        <path id="Trazado_1045209" data-name="Trazado 1045209" d="M144.121,399.575a26.084,26.084,0,0,0,17.076,0V392.6c0-1.929-2.153-3.507-4.787-3.507h-7.5c-2.633,0-4.79,1.578-4.79,3.507v6.978Z" transform="translate(-130.34 -345.888)" fill="#fbc700" fill-rule="evenodd"/>
        <path id="Trazado_1045210" data-name="Trazado 1045210" d="M167.63,400.355a25.284,25.284,0,0,0,14.189-.78V392.6c0-1.929-2.153-3.507-4.787-3.507h-7.3a4.274,4.274,0,0,0-2.1,3.606Z" transform="translate(-150.961 -345.888)" fill="#ffe559" fill-rule="evenodd"/>
        <path id="Trazado_1045211" data-name="Trazado 1045211" d="M180.192,321.77a4.686,4.686,0,1,1-4.682,4.686A4.687,4.687,0,0,1,180.192,321.77Z" transform="translate(-157.873 -286.841)" fill="#ffb1a0" fill-rule="evenodd"/>
        <path id="Trazado_1045212" data-name="Trazado 1045212" d="M195.392,321.77a4.687,4.687,0,0,1,3.132,8.172,4.741,4.741,0,0,1-1,.108,4.688,4.688,0,0,1-3.129-8.173A4.8,4.8,0,0,1,195.392,321.77Z" transform="translate(-173.073 -286.841)" fill="#ffcebf" fill-rule="evenodd"/>
        <path id="Trazado_1045213" data-name="Trazado 1045213" d="M42.064,37.54A10.072,10.072,0,0,1,52.135,47.614c0,3.756-3.344,7.075-5.1,11.687H37.086c-1.749-4.612-5.1-7.931-5.1-11.687A10.075,10.075,0,0,1,42.064,37.54Z" transform="translate(-31.99 -37.54)" fill="#fbc700" fill-rule="evenodd"/>
        <path id="Trazado_1045214" data-name="Trazado 1045214" d="M67.8,38.7a10.074,10.074,0,0,1,8.388,9.932c0,3.756-3.344,7.075-5.1,11.687H64.506c-1.749-4.612-5.1-7.931-5.1-11.687A10.075,10.075,0,0,1,67.8,38.7Z" transform="translate(-56.04 -38.557)" fill="#ffe559" fill-rule="evenodd"/>
        <path id="Trazado_1045215" data-name="Trazado 1045215" d="M88.856,242.68l-.644,1.693c-.638,1.682-6.2,1.843-6.9,0l-.641-1.693h8.186Z" transform="translate(-74.688 -217.47)" fill="#d5d5d5" fill-rule="evenodd"/>
        <path id="Trazado_1045216" data-name="Trazado 1045216" d="M112.3,242.68l-.644,1.693a2.492,2.492,0,0,1-1.87,1.147,2.316,2.316,0,0,1-1.745-1.147l-.641-1.693h4.9Z" transform="translate(-98.133 -217.47)" fill="#f1f1f1" fill-rule="evenodd"/>
        <path id="Trazado_1045217" data-name="Trazado 1045217" d="M65.7,214.56h9.378a1.421,1.421,0,0,1,1.414,1.418v.621a1.421,1.421,0,0,1-1.414,1.418H65.7A1.422,1.422,0,0,1,64.28,216.6v-.621A1.422,1.422,0,0,1,65.7,214.56Z" transform="translate(-60.312 -192.806)" fill="#9be8fd" fill-rule="evenodd"/>
        <path id="Trazado_1045218" data-name="Trazado 1045218" d="M84.858,214.56h7.023a1.421,1.421,0,0,1,1.414,1.418v.621a1.421,1.421,0,0,1-1.414,1.418H84.858A1.422,1.422,0,0,1,83.44,216.6v-.621A1.422,1.422,0,0,1,84.858,214.56Z" transform="translate(-77.117 -192.806)" fill="#c9f0fe" fill-rule="evenodd"/>
      </g>
      <path id="Trazado_1045219" data-name="Trazado 1045219" d="M131.575,58.609a1.208,1.208,0,0,1,.509-2.362,6.3,6.3,0,0,1,4.417,8.674,1.207,1.207,0,0,1-2.212-.965,3.871,3.871,0,0,0-.095-3.32,3.87,3.87,0,0,0-1.084-1.314A3.83,3.83,0,0,0,131.575,58.609Z" transform="translate(-92.651 -22.533)" fill="#fff6c5"/>
      <path id="Trazado_1045220" data-name="Trazado 1045220" d="M32.693,44.4a.857.857,0,0,1,1.707-.154c.084.906,1.728,1.407,2.668.641a.951.951,0,0,0,.383-.718c0-1.891-4.772-.129-4.772-3.9a2.9,2.9,0,0,1,2.372-2.707V37.02a.859.859,0,0,1,.885-.86v0a.852.852,0,0,1,.857.871l-.011.522a2.9,2.9,0,0,1,2.39,2.71.86.86,0,1,1-1.72,0c0-.955-1.7-1.5-2.668-.714a.95.95,0,0,0-.383.714c0,1.895,4.772.133,4.772,3.9a2.9,2.9,0,0,1-2.39,2.713l-.011.537a.86.86,0,0,1-1.72,0v-.539A2.941,2.941,0,0,1,32.693,44.4Zm-1.167,7.887h8.8a37.184,37.184,0,0,1,2.348-4.525c1.3-2.229,2.466-4.25,2.466-6.294a9.212,9.212,0,1,0-18.425,0c0,2.045,1.17,4.065,2.466,6.294A37.57,37.57,0,0,1,31.525,52.285Zm10.46.463a2.289,2.289,0,0,1,.9,1.641l8,8.085h3.55v-2a1.767,1.767,0,0,1,1.759-1.759h8.019a1.766,1.766,0,0,1,1.244.516l0,0a1.744,1.744,0,0,1,.519,1.24v2h4.327l10-10.105v-1.4a1.086,1.086,0,0,0-1.08-1.084H43.432a29.6,29.6,0,0,0-1.446,2.866Zm.52,3.7a2.284,2.284,0,0,1-1.623,1v9.974a5.536,5.536,0,0,1-.268,5.079,6.559,6.559,0,0,1,2.567.927,5.545,5.545,0,1,1,9.778.383l.063.01a6.274,6.274,0,0,1,3.1-1.32,5.552,5.552,0,0,1-.439-4.661,1.769,1.769,0,0,1-1.257-1.682V64.2H50.525v0a.853.853,0,0,1-.606-.251Zm-3.735,1.014h-5.7c.222.581.181.742.874,1a6.444,6.444,0,0,0,3.947-.032C38.611,58.162,38.548,58.054,38.771,57.461Zm-7.531,0a2.282,2.282,0,0,1-2.282-2.278v-.621a2.278,2.278,0,0,1,.9-1.815,38.474,38.474,0,0,0-2.167-4.128c-1.422-2.442-2.7-4.654-2.7-7.155a10.933,10.933,0,1,1,21.866,0c0,2.341-1.126,4.431-2.434,6.7h4.9V43.073a5.045,5.045,0,0,1,5.037-5.037h12.45a5.044,5.044,0,0,1,5.034,5.037v5.088H79.21a2.808,2.808,0,0,1,2.8,2.8V77.457a2.808,2.808,0,0,1-2.8,2.8h-8.9v3.507a.859.859,0,0,1-.68.839,32.61,32.61,0,0,1-3.553.917c-.651.157-2.24.363-2.922.425a26.087,26.087,0,0,1-6.009-.129.975.975,0,0,1-.154.07,25.453,25.453,0,0,1-8.831,1.485,28.327,28.327,0,0,1-5.005-.509.983.983,0,0,1-.15-.032,32.917,32.917,0,0,1-3.556-.913,1.006,1.006,0,0,1-.175-.059,25.963,25.963,0,0,1-5.9.066c-.638-.063-2.1-.258-2.707-.4a32.164,32.164,0,0,1-3.56-.917.86.86,0,0,1-.68-.839V76.787c0-2.375,2.292-3.957,4.612-4.291a5.545,5.545,0,0,1,8.121-7.232V59.721c-1.906,1.143-6.629,1.143-7.489-1.128Zm9.374-3.456H31.236a.561.561,0,0,0-.558.558v.621a.561.561,0,0,0,.558.558h9.378a.561.561,0,0,0,.554-.558v-.621A.56.56,0,0,0,40.614,54.006ZM51.485,75.453a5.555,5.555,0,0,1-6.63,0H44.42a4.883,4.883,0,0,0-2.874.86A2.286,2.286,0,0,0,40.49,78.1v6.347c.63.188,1.265.355,1.895.5V80.066a.86.86,0,0,1,1.72,0v5.229a24.675,24.675,0,0,0,8.127.055V80.066a.86.86,0,0,1,1.72,0V85c.63-.15,1.261-.331,1.891-.537V78.1a2.282,2.282,0,0,0-1.052-1.787,4.886,4.886,0,0,0-2.874-.86Zm-.61-7.151a3.825,3.825,0,1,0,1.118,2.7A3.824,3.824,0,0,0,50.875,68.3Zm4.285,6.217A4.188,4.188,0,0,1,57.568,78.1v6.044a24.955,24.955,0,0,0,7.409-.16V78.756a.86.86,0,1,1,1.72,0v4.884q.946-.219,1.891-.5V76.787A2.285,2.285,0,0,0,67.537,75a4.9,4.9,0,0,0-2.874-.864h-.439a5.535,5.535,0,0,1-6.626,0h-.435A5.309,5.309,0,0,0,55.161,74.52Zm-16.39,9.674V78.1a4.237,4.237,0,0,1,2.578-3.668,5.318,5.318,0,0,0-1.773-.292h-.435a5.535,5.535,0,0,1-6.626,0h-.439A4.9,4.9,0,0,0,29.2,75a2.285,2.285,0,0,0-1.052,1.783v6.351q.946.282,1.891.5V78.756a.86.86,0,1,1,1.72,0v5.225a24.862,24.862,0,0,0,7.01.213ZM60.912,65.871a3.825,3.825,0,1,0,3.826,3.824A3.826,3.826,0,0,0,60.912,65.871Zm-3.919-.1a5.545,5.545,0,0,1,7.253-.509l-.011-4.821a.044.044,0,0,0-.028-.01l-8.043.007v5.741l.453.007A5.249,5.249,0,0,1,56.993,65.773Zm8.757,1.212A5.547,5.547,0,0,1,65.7,72.5c2.32.334,4.612,1.916,4.612,4.291v1.752h8.9a1.086,1.086,0,0,0,1.08-1.084V54.807L71.3,63.892a.862.862,0,0,1-.655.3H65.966v1.958A1.747,1.747,0,0,1,65.75,66.985Zm-27.22.007a3.824,3.824,0,1,0-.24,5.63A3.82,3.82,0,0,0,38.53,66.993Zm31.6-18.832V43.075a3.322,3.322,0,0,0-3.313-3.317H54.363a3.325,3.325,0,0,0-3.317,3.317v5.086H54.31V43.883a.858.858,0,0,1,.86-.86H66a.86.86,0,0,1,.86.86v4.278Zm-4.982,0V44.743H56.032v3.418Z"/>
    </g>
  </g>
</svg>
