<svg xmlns="http://www.w3.org/2000/svg" xmlns:xlink="http://www.w3.org/1999/xlink" width="93.934" height="93.934" viewBox="0 0 93.934 93.934">
  <defs>
    <filter id="Trazado_982547" x="0" y="0" width="93.934" height="93.934" filterUnits="userSpaceOnUse">
      <feOffset dy="3" input="SourceAlpha"/>
      <feGaussianBlur stdDeviation="3" result="blur"/>
      <feFlood flood-opacity="0.161"/>
      <feComposite operator="in" in2="blur"/>
      <feComposite in="SourceGraphic"/>
    </filter>
  </defs>
  <g id="Grupo_1182613" data-name="Grupo 1182613" transform="translate(-1010.033 -1378)">
    <g id="Grupo_1176818" data-name="Grupo 1176818" transform="translate(821 -402)">
      <g id="Grupo_1176309" data-name="Grupo 1176309" transform="translate(0 -206)">
        <g id="Grupo_1172970" data-name="Grupo 1172970" transform="translate(-1 -9042)">
          <g id="Grupo_1171971" data-name="Grupo 1171971" transform="translate(199.033 11034)">
            <g id="Grupo_1167337" data-name="Grupo 1167337" transform="translate(0)">
              <g id="Grupo_1166720" data-name="Grupo 1166720">
                <g id="Grupo_1164305" data-name="Grupo 1164305">
                  <g id="Grupo_1163948" data-name="Grupo 1163948">
                    <g id="Grupo_1158168" data-name="Grupo 1158168">
                      <g id="Grupo_1152576" data-name="Grupo 1152576">
                        <g id="Grupo_1148633" data-name="Grupo 1148633">
                          <g id="Grupo_1148525" data-name="Grupo 1148525">
                            <g transform="matrix(1, 0, 0, 1, -9, -6)" filter="url(#Trazado_982547)">
                              <g id="Trazado_982547-2" data-name="Trazado 982547" transform="translate(9 6)" fill="#f2f7f5">
                                <path d="M 37.966796875 74.43359375 C 33.04315185546875 74.43359375 28.26757431030273 73.46962738037109 23.77274131774902 71.56847381591797 C 19.43047523498535 69.73184967041016 15.53040790557861 67.10224914550781 12.18087482452393 63.75271987915039 C 8.831341743469238 60.4031867980957 6.201741218566895 56.50312042236328 4.365118980407715 52.16086196899414 C 2.463963508605957 47.66601943969727 1.499996900558472 42.89044189453125 1.499996900558472 37.966796875 C 1.499996900558472 33.04315185546875 2.463963508605957 28.26757431030273 4.365118980407715 23.77274131774902 C 6.201741218566895 19.43047523498535 8.831341743469238 15.53040790557861 12.18087482452393 12.18087482452393 C 15.53040790557861 8.831341743469238 19.43047523498535 6.201741218566895 23.77274131774902 4.365118980407715 C 28.26757431030273 2.463963508605957 33.04315185546875 1.499996900558472 37.966796875 1.499996900558472 C 42.89044189453125 1.499996900558472 47.66601943969727 2.463963508605957 52.16086196899414 4.365118980407715 C 56.50312042236328 6.201741218566895 60.4031867980957 8.831341743469238 63.75271987915039 12.18087482452393 C 67.10224914550781 15.53040790557861 69.73184967041016 19.43047523498535 71.56847381591797 23.77274131774902 C 73.46962738037109 28.26757431030273 74.43359375 33.04315185546875 74.43359375 37.966796875 C 74.43359375 42.89044189453125 73.46962738037109 47.66601943969727 71.56847381591797 52.16086196899414 C 69.73184967041016 56.50313186645508 67.10224914550781 60.4031867980957 63.75271987915039 63.75271987915039 C 60.4031867980957 67.10224914550781 56.50313186645508 69.73184967041016 52.16086196899414 71.56847381591797 C 47.66601943969727 73.46962738037109 42.89044189453125 74.43359375 37.966796875 74.43359375 Z" stroke="none"/>
                                <path d="M 37.966796875 3 C 33.2449836730957 3 28.66600799560547 3.924095153808594 24.35705947875977 5.746635437011719 C 20.19359588623047 7.507637023925781 16.45379638671875 10.02928161621094 13.24153518676758 13.24153518676758 C 10.02927398681641 16.45379638671875 7.507621765136719 20.19359588623047 5.746635437011719 24.35705947875977 C 3.924095153808594 28.66600799560547 3 33.2449836730957 3 37.966796875 C 3 42.6886100769043 3.924095153808594 47.26758575439453 5.746635437011719 51.57653427124023 C 7.507621765136719 55.73999786376953 10.02927398681641 59.47979736328125 13.24153518676758 62.69205856323242 C 16.45379638671875 65.90431976318359 20.19359588623047 68.42597198486328 24.35705947875977 70.18695831298828 C 28.66600799560547 72.00949859619141 33.2449836730957 72.93359375 37.966796875 72.93359375 C 42.6886100769043 72.93359375 47.26758575439453 72.00949859619141 51.57653427124023 70.18695831298828 C 55.73999786376953 68.42597198486328 59.47979736328125 65.90431976318359 62.69205856323242 62.69205856323242 C 65.90431976318359 59.47979736328125 68.42597198486328 55.73999786376953 70.18695831298828 51.57653427124023 C 72.00949859619141 47.26758575439453 72.93359375 42.6886100769043 72.93359375 37.966796875 C 72.93359375 33.2449836730957 72.00949859619141 28.66600799560547 70.18695831298828 24.35705947875977 C 68.42597198486328 20.19359588623047 65.90431976318359 16.45379638671875 62.69205856323242 13.24153518676758 C 59.47979736328125 10.02928161621094 55.73999786376953 7.507637023925781 51.57653427124023 5.746635437011719 C 47.26758575439453 3.924095153808594 42.6886100769043 3 37.966796875 3 M 37.966796875 0 C 58.93528366088867 0 75.93359375 16.99832153320312 75.93359375 37.966796875 C 75.93359375 58.93528366088867 58.93528366088867 75.93359375 37.966796875 75.93359375 C 16.99831008911133 75.93359375 0 58.93528366088867 0 37.966796875 C 0 16.99832153320312 16.99831008911133 0 37.966796875 0 Z" stroke="none" fill="#4a665c"/>
                              </g>
                            </g>
                          </g>
                        </g>
                      </g>
                    </g>
                  </g>
                </g>
              </g>
            </g>
          </g>
        </g>
      </g>
    </g>
    <g id="resiliencia" transform="translate(1027.742 1318.841)">
      <g id="Grupo_1182612" data-name="Grupo 1182612" transform="translate(0.897 83.768)">
        <path id="Trazado_1043113" data-name="Trazado 1043113" d="M22.87,95.011a15.65,15.65,0,0,0-3.894,1.614.943.943,0,0,1-.921.029L15.791,95.5a.95.95,0,0,0-1.115.176l-2.3,2.3a.945.945,0,0,0-.176,1.112l1.155,2.268a.94.94,0,0,1-.029.921,15.607,15.607,0,0,0-1.614,3.894.93.93,0,0,1-.631.669l-2.418.786a.947.947,0,0,0-.662.914v3.254a.943.943,0,0,0,.662.91l2.418.786a.94.94,0,0,1,.631.669,15.614,15.614,0,0,0,1.614,3.894.943.943,0,0,1,.029.921L12.2,121.24a.949.949,0,0,0,.176,1.115l2.3,2.3a.945.945,0,0,0,1.115.176l2.264-1.153a.934.934,0,0,1,.921.025,15.607,15.607,0,0,0,3.894,1.614.93.93,0,0,1,.669.631l.785,2.418a.947.947,0,0,0,.914.662h3.254a.943.943,0,0,0,.91-.662l.788-2.418a.931.931,0,0,1,.666-.631,15.614,15.614,0,0,0,3.894-1.614.934.934,0,0,1,.921-.025l2.268,1.153a.945.945,0,0,0,1.115-.176l2.3-2.3a.946.946,0,0,0,.18-1.115l-1.156-2.268a.934.934,0,0,1,.025-.921,15.571,15.571,0,0,0,1.614-3.894.942.942,0,0,1,.631-.669l2.418-.786a.944.944,0,0,0,.662-.91v-3.254a.947.947,0,0,0-.662-.914l-2.418-.786a.93.93,0,0,1-.631-.669,15.65,15.65,0,0,0-1.614-3.894.934.934,0,0,1-.025-.921l1.156-2.268a.941.941,0,0,0-.18-1.112l-2.3-2.3a.95.95,0,0,0-1.115-.176L35.67,96.653a.94.94,0,0,1-.921-.029,15.572,15.572,0,0,0-3.894-1.614.929.929,0,0,1-.666-.631L29.4,91.962a.944.944,0,0,0-.91-.662H25.238a.947.947,0,0,0-.914.662l-.785,2.418a.932.932,0,0,1-.669.631Z" transform="translate(-8 -91.246)" fill="#bec7cf" fill-rule="evenodd"/>
        <path id="Trazado_1043114" data-name="Trazado 1043114" d="M22.87,95.011a15.615,15.615,0,0,0-3.5,1.391l.487.252a.94.94,0,0,0,.921-.029,15.607,15.607,0,0,1,3.894-1.614.936.936,0,0,0,.669-.631l.785-2.418a.945.945,0,0,1,.914-.662h-1.8a.947.947,0,0,0-.914.662L23.54,94.38a.936.936,0,0,1-.67.631Zm-6.507.779-.572-.292a.95.95,0,0,0-1.115.176l-2.3,2.3a.945.945,0,0,0-.176,1.112l1.155,2.268a.94.94,0,0,1-.029.921,15.607,15.607,0,0,0-1.614,3.894.93.93,0,0,1-.631.669l-2.418.786a.947.947,0,0,0-.662.914v3.254a.943.943,0,0,0,.662.91l2.418.786a.94.94,0,0,1,.631.669,15.614,15.614,0,0,0,1.614,3.894.943.943,0,0,1,.029.921L12.2,121.24a.949.949,0,0,0,.176,1.115l2.3,2.3a.945.945,0,0,0,1.115.176l.572-.289-2.185-2.185A.951.951,0,0,1,14,121.24l1.156-2.268a.94.94,0,0,0-.029-.921,15.571,15.571,0,0,1-1.614-3.894.942.942,0,0,0-.631-.669l-2.418-.786a.944.944,0,0,1-.662-.91v-3.254a.947.947,0,0,1,.662-.914l2.418-.786a.93.93,0,0,0,.631-.669,15.65,15.65,0,0,1,1.614-3.894.943.943,0,0,0,.029-.921L14,99.088a.945.945,0,0,1,.176-1.112Zm3.009,28.13a15.507,15.507,0,0,0,3.5,1.391.93.93,0,0,1,.669.631l.785,2.418a.947.947,0,0,0,.914.662h1.8a.944.944,0,0,1-.914-.662l-.785-2.418a.936.936,0,0,0-.669-.631,15.668,15.668,0,0,1-3.894-1.614.934.934,0,0,0-.921-.025Z" transform="translate(-8 -91.246)" fill="#abb3ba" fill-rule="evenodd"/>
        <path id="Trazado_1043115" data-name="Trazado 1043115" d="M123.757,199.745a7.293,7.293,0,1,1-7.292-7.3A7.294,7.294,0,0,1,123.757,199.745Z" transform="translate(-97.6 -180.829)" fill="#eaf6ff" fill-rule="evenodd"/>
        <path id="Trazado_1043116" data-name="Trazado 1043116" d="M117.105,207.018c-.21.018-.424.029-.64.029a7.293,7.293,0,1,1,0-14.587c.216,0,.43.009.64.029a7.293,7.293,0,0,0,0,14.53Z" transform="translate(-97.6 -180.837)" fill="#d3dde6" fill-rule="evenodd"/>
        <g id="Grupo_1182611" data-name="Grupo 1182611" transform="translate(25.453 11.452)">
          <path id="Trazado_1043117" data-name="Trazado 1043117" d="M247.323,246.651l-1.2,4.475a4.908,4.908,0,0,1-.788,1.671l-.286.4a4.973,4.973,0,0,0-.967,3.011v7.964H232.563v-8.293a4.946,4.946,0,0,0-.64-2.493l-.716-1.3a4.984,4.984,0,0,1-.637-2.493V243.92h15.542Z" transform="translate(-230.57 -237.865)" fill="#fbbd80" fill-rule="evenodd"/>
          <path id="Trazado_1043118" data-name="Trazado 1043118" d="M232.558,207.5a2,2,0,0,1,1.991,1.991v3.847a1.989,1.989,0,1,1-3.979,0v-3.847A1.994,1.994,0,0,1,232.558,207.5Z" transform="translate(-230.57 -205.61)" fill="#fbbd80" fill-rule="evenodd"/>
          <path id="Trazado_1043119" data-name="Trazado 1043119" d="M267.341,200.45a1.994,1.994,0,0,1,1.988,1.988v3.851a1.989,1.989,0,0,1-3.979,0v-3.851A2,2,0,0,1,267.341,200.45Z" transform="translate(-261.373 -199.366)" fill="#fbbd80" fill-rule="evenodd"/>
          <path id="Trazado_1043120" data-name="Trazado 1043120" d="M302.141,190.97a2,2,0,0,1,1.991,1.991v3.847a1.991,1.991,0,0,1-3.982,0v-3.847A2,2,0,0,1,302.141,190.97Z" transform="translate(-292.193 -190.97)" fill="#fbbd80" fill-rule="evenodd"/>
          <path id="Trazado_1043121" data-name="Trazado 1043121" d="M336.958,200.45a2,2,0,0,1,1.991,1.988v3.851a1.989,1.989,0,0,1-3.979,0v-3.851A1.993,1.993,0,0,1,336.958,200.45Z" transform="translate(-323.031 -199.366)" fill="#fbbd80" fill-rule="evenodd"/>
          <path id="Trazado_1043122" data-name="Trazado 1043122" d="M302.574,242.1l-.286.4a4.973,4.973,0,0,0-.967,3.011v7.964H295.2v-10.15a3.788,3.788,0,0,1,3.781-3.777h.5l.791-2.959-3.119-.835a1.99,1.99,0,1,1,1.03-3.844l3.119.835,1.714.459a2.21,2.21,0,0,1,1.561,2.7l-1.216,4.525A4.881,4.881,0,0,1,302.574,242.1Z" transform="translate(-287.809 -227.166)" fill="#fbbd80" fill-rule="evenodd"/>
        </g>
        <path id="Trazado_1043123" data-name="Trazado 1043123" d="M384.687,97.151l6.111-6.111a.726.726,0,0,1,1.02,0l6.108,6.111a.72.72,0,0,1-.509,1.231h-3.291a.725.725,0,0,0-.723.723v18.229a.723.723,0,0,1-.723.723h-2.749a.725.725,0,0,1-.723-.723V99.1a.724.724,0,0,0-.719-.723H385.2a.719.719,0,0,1-.511-1.231Z" transform="translate(-341.419 -90.83)" fill="#70da40" fill-rule="evenodd"/>
        <path id="Trazado_1043124" data-name="Trazado 1043124" d="M384.689,97.151l6.111-6.111a.726.726,0,0,1,1.02,0l.261.264-5.847,5.847a.72.72,0,0,0,.509,1.231H385.2a.72.72,0,0,1-.512-1.231Zm6.79,20.905h-1.545a.725.725,0,0,1-.723-.723V99.1a.724.724,0,0,0-.719-.723h1.542a.725.725,0,0,1,.723.723v18.229A.723.723,0,0,0,391.479,118.056Z" transform="translate(-341.422 -90.83)" fill="#65c43a" fill-rule="evenodd"/>
      </g>
      <path id="Trazado_1043125" data-name="Trazado 1043125" d="M43.181,101.181V98.3a2.9,2.9,0,0,0-4.359-2.515,2.9,2.9,0,0,0-4.4-.789c-.114-.216-.231-.431-.353-.642-.009-.016-.01-.024-.011-.024a.08.08,0,0,1,.008-.022l1.156-2.267a1.876,1.876,0,0,0-.345-2.175l-2.3-2.3a1.879,1.879,0,0,0-2.176-.343l-2.265,1.157a.094.094,0,0,1-.016.007.111.111,0,0,1-.025-.013,16.58,16.58,0,0,0-4.115-1.7.069.069,0,0,1-.026-.01.094.094,0,0,1-.009-.021l-.785-2.413a1.869,1.869,0,0,0-1.783-1.3H18.123a1.879,1.879,0,0,0-1.785,1.3l-.785,2.416a.2.2,0,0,1-.008.019.057.057,0,0,1-.022.009A16.558,16.558,0,0,0,11.4,88.377l-.019.01a.079.079,0,0,1-.021-.007L9.095,87.222a1.87,1.87,0,0,0-2.174.347l-2.3,2.3a1.879,1.879,0,0,0-.347,2.18L5.43,94.305a.071.071,0,0,1,.009.021.124.124,0,0,1-.013.026,16.484,16.484,0,0,0-1.7,4.115c0,.015-.008.024-.008.024a.112.112,0,0,1-.024.01l-2.412.787a1.869,1.869,0,0,0-1.3,1.783v3.251a1.869,1.869,0,0,0,1.3,1.782l2.408.782a.159.159,0,0,1,.029.013.122.122,0,0,1,.008.023,16.681,16.681,0,0,0,1.71,4.125c.006.009.007.014.008.015a.062.062,0,0,1-.007.018l-1.158,2.268a1.88,1.88,0,0,0,.347,2.177l2.3,2.3a1.867,1.867,0,0,0,2.175.343l2.263-1.153a.09.09,0,0,1,.024-.009.069.069,0,0,1,.021.008,16.455,16.455,0,0,0,4.122,1.71l.017.006a.07.07,0,0,1,.01.023l.786,2.42a1.854,1.854,0,0,0,1.784,1.29h3.251a1.866,1.866,0,0,0,1.782-1.295l.785-2.416c0-.014.009-.021.008-.021l.021-.008a16.453,16.453,0,0,0,3.448-1.339v4.162a.916.916,0,0,0,.916.916H39.86a.916.916,0,0,0,.916-.916v-7.965a4.07,4.07,0,0,1,.8-2.482l.282-.4a5.81,5.81,0,0,0,.932-1.969L44,104.2a3.128,3.128,0,0,0-.819-3.024Zm-2.907-3.956A1.077,1.077,0,0,1,41.349,98.3v1.962L39.2,99.686V98.3A1.075,1.075,0,0,1,40.274,97.225Zm-3.98-1.083a1.089,1.089,0,0,1,1.075,1.075v1.977l-.412-.11a2.888,2.888,0,0,0-1.738.078V97.217A1.076,1.076,0,0,1,36.294,96.142ZM25.423,105.56a6.357,6.357,0,1,1,0-5.731Zm3.981-2.6a1.077,1.077,0,0,1-1.075,1.075,1.089,1.089,0,0,1-1.075-1.075V99.11a1.075,1.075,0,0,1,2.15,0ZM31.235,98.3a1.077,1.077,0,0,1,2.153,0v2.875a2.9,2.9,0,0,0-.04,1.253,1.075,1.075,0,0,1-2.113-.278ZM27.17,115.429a14.626,14.626,0,0,1-3.662,1.519,1.839,1.839,0,0,0-1.308,1.235l-.785,2.416c-.006.018-.01.026-.04.026H18.124c-.027,0-.034,0-.043-.029l-.785-2.414a1.839,1.839,0,0,0-1.306-1.236,14.631,14.631,0,0,1-3.665-1.522,1.857,1.857,0,0,0-1.794-.049l-2.265,1.154c-.026.013-.034.009-.049-.007l-2.3-2.292c-.027-.027-.021-.04-.014-.055l1.157-2.265a1.83,1.83,0,0,0-.053-1.794A14.844,14.844,0,0,1,5.5,106.457a1.853,1.853,0,0,0-1.236-1.314l-2.416-.785c-.025-.008-.03-.017-.03-.039v-3.252c0-.022,0-.031.033-.04l2.413-.787A1.85,1.85,0,0,0,5.5,98.935,14.715,14.715,0,0,1,7.01,95.276a1.846,1.846,0,0,0,.055-1.8L5.91,91.215c-.013-.025-.011-.035.008-.055l2.3-2.3c.022-.022.032-.018.048-.01l2.269,1.158a1.842,1.842,0,0,0,1.794-.055A14.773,14.773,0,0,1,16,88.436,1.85,1.85,0,0,0,17.3,87.2l.783-2.411c.011-.037.025-.037.045-.037h3.251c.022,0,.031,0,.04.032L22.2,87.2a1.852,1.852,0,0,0,1.306,1.236,14.806,14.806,0,0,1,3.657,1.512,1.832,1.832,0,0,0,1.8.058l2.264-1.156c.016-.008.029-.014.053.009l2.3,2.3c.013.013.022.022.007.051l-1.156,2.265a1.857,1.857,0,0,0,.053,1.8c.025.043.049.088.073.132-.082-.007-.165-.011-.248-.011A2.905,2.905,0,0,0,29.9,96.669a2.9,2.9,0,0,0-3.919.723,8.189,8.189,0,1,0-.39,11.027,6.021,6.021,0,0,0,.582,1.472l.714,1.3a4.034,4.034,0,0,1,.528,2.052v2.064A1.776,1.776,0,0,0,27.17,115.429Zm15.059-11.7-1.212,4.526a4.006,4.006,0,0,1-.653,1.379l-.282.4a5.894,5.894,0,0,0-1.138,3.545v7.049H29.251v-7.383a5.857,5.857,0,0,0-.755-2.933l-.714-1.3a4.051,4.051,0,0,1-.528-2.054v-1.295a2.9,2.9,0,0,0,3.48-1.069,2.9,2.9,0,0,0,3.665-.422,2.862,2.862,0,0,0,1.056.529l2.233.6-.376,1.4a4.7,4.7,0,0,0-4.491,4.691.916.916,0,1,0,1.832,0,2.866,2.866,0,0,1,2.864-2.864h.5a.915.915,0,0,0,.884-.678l.795-2.96a.916.916,0,0,0-.647-1.122l-3.12-.837a1.079,1.079,0,0,1-.763-1.306c.008-.021.014-.041.021-.063a.249.249,0,0,0,.008-.027,1.081,1.081,0,0,1,1.293-.678l4.834,1.3a1.288,1.288,0,0,1,.908,1.576ZM58.055,89.447,51.94,83.33a1.643,1.643,0,0,0-2.312,0l-6.114,6.114a1.638,1.638,0,0,0,1.16,2.795h3.1v18.042a1.641,1.641,0,0,0,1.639,1.639h2.753a1.639,1.639,0,0,0,1.635-1.639V92.242h3.1a1.637,1.637,0,0,0,1.156-2.795ZM44.808,90.742Zm8.8-.332a1.641,1.641,0,0,0-1.639,1.639v18.042H49.6V92.049a1.641,1.641,0,0,0-1.639-1.639H45.141l5.645-5.645,5.643,5.645Z"/>
    </g>
  </g>
</svg>
