<svg xmlns="http://www.w3.org/2000/svg" xmlns:xlink="http://www.w3.org/1999/xlink" width="118" height="118" viewBox="0 0 118 118">
  <defs>
    <filter id="Trazado_982547" x="0" y="0" width="118" height="118" filterUnits="userSpaceOnUse">
      <feOffset dy="3" input="SourceAlpha"/>
      <feGaussianBlur stdDeviation="3" result="blur"/>
      <feFlood flood-opacity="0.161"/>
      <feComposite operator="in" in2="blur"/>
      <feComposite in="SourceGraphic"/>
    </filter>
  </defs>
  <g id="Grupo_1182940" data-name="Grupo 1182940" transform="translate(-573 -1381.328)">
    <g id="Grupo_1182317" data-name="Grupo 1182317" transform="translate(-11 -8277)">
      <g id="Grupo_1176357" data-name="Grupo 1176357" transform="translate(593 9664.328)">
        <g id="Grupo_1172970" data-name="Grupo 1172970" transform="translate(0)">
          <g id="Grupo_1171971" data-name="Grupo 1171971" transform="translate(0)">
            <g id="Grupo_1167337" data-name="Grupo 1167337">
              <g id="Grupo_1166720" data-name="Grupo 1166720">
                <g id="Grupo_1164305" data-name="Grupo 1164305">
                  <g id="Grupo_1163948" data-name="Grupo 1163948">
                    <g id="Grupo_1158168" data-name="Grupo 1158168">
                      <g id="Grupo_1152576" data-name="Grupo 1152576">
                        <g id="Grupo_1148633" data-name="Grupo 1148633">
                          <g id="Grupo_1148525" data-name="Grupo 1148525">
                            <g transform="matrix(1, 0, 0, 1, -9, -6)" filter="url(#Trazado_982547)">
                              <g id="Trazado_982547-2" data-name="Trazado 982547" transform="translate(9 6)" fill="#f2f7f5">
                                <path d="M 50 98.5 C 43.45188522338867 98.5 37.10042953491211 97.21787261962891 31.12207221984863 94.68923950195312 C 25.34691429138184 92.24655914306641 20.15995788574219 88.74932861328125 15.70532894134521 84.29468536376953 C 11.2506856918335 79.84004211425781 7.753442764282227 74.65309906005859 5.310757160186768 68.87794494628906 C 2.782128572463989 62.89958572387695 1.5 56.54813003540039 1.5 50 C 1.5 43.45188522338867 2.782128572463989 37.10042953491211 5.310757160186768 31.12207221984863 C 7.753442764282227 25.34691429138184 11.2506856918335 20.15997123718262 15.70532894134521 15.70532894134521 C 20.15997123718262 11.2506856918335 25.34691429138184 7.753442764282227 31.12207221984863 5.310757160186768 C 37.10042953491211 2.782128572463989 43.45188522338867 1.5 50 1.5 C 56.54813003540039 1.5 62.89958572387695 2.782128572463989 68.87794494628906 5.310757160186768 C 74.65309906005859 7.753442764282227 79.84004211425781 11.2506856918335 84.29468536376953 15.70532894134521 C 88.74932861328125 20.15995788574219 92.24655914306641 25.34691429138184 94.68923950195312 31.12207221984863 C 97.21787261962891 37.10042953491211 98.5 43.45188522338867 98.5 50 C 98.5 56.54813003540039 97.21787261962891 62.89958572387695 94.68923950195312 68.87794494628906 C 92.24655914306641 74.65309906005859 88.74932861328125 79.84004211425781 84.29468536376953 84.29468536376953 C 79.84004211425781 88.74932861328125 74.65309906005859 92.24655914306641 68.87794494628906 94.68923950195312 C 62.89958572387695 97.21787261962891 56.54813003540039 98.5 50 98.5 Z" stroke="none"/>
                                <path d="M 50 3 C 43.65372467041016 3 37.49886322021484 4.242263793945312 31.70639801025391 6.6922607421875 C 26.11003112792969 9.059326171875 21.08335113525391 12.44861602783203 16.76598358154297 16.76598358154297 C 12.44861602783203 21.08335113525391 9.059326171875 26.11003112792969 6.6922607421875 31.70639801025391 C 4.242263793945312 37.49886322021484 3 43.65372467041016 3 50 C 3 56.34629058837891 4.242263793945312 62.50115203857422 6.6922607421875 68.29361724853516 C 9.059326171875 73.88998413085938 12.44861602783203 78.91666412353516 16.76598358154297 83.23403167724609 C 21.08335113525391 87.55138397216797 26.11003112792969 90.940673828125 31.70639801025391 93.3077392578125 C 37.49886322021484 95.75773620605469 43.65372467041016 97 50 97 C 56.34629058837891 97 62.50115203857422 95.75773620605469 68.29361724853516 93.3077392578125 C 73.88998413085938 90.940673828125 78.91666412353516 87.55138397216797 83.23403167724609 83.23403167724609 C 87.55138397216797 78.91666412353516 90.940673828125 73.88998413085938 93.3077392578125 68.29361724853516 C 95.75773620605469 62.50115203857422 97 56.34629058837891 97 50 C 97 43.65372467041016 95.75773620605469 37.49886322021484 93.3077392578125 31.70639801025391 C 90.940673828125 26.11003112792969 87.55138397216797 21.08335113525391 83.23403167724609 16.76598358154297 C 78.91666412353516 12.44861602783203 73.88998413085938 9.059326171875 68.29361724853516 6.6922607421875 C 62.50115203857422 4.242263793945312 56.34629058837891 3 50 3 M 50 0 C 77.6142578125 0 100 22.38577270507812 100 50 C 100 77.6142578125 77.6142578125 100 50 100 C 22.38577270507812 100 0 77.6142578125 0 50 C 0 22.38577270507812 22.38577270507812 0 50 0 Z" stroke="none" fill="#4a665c"/>
                              </g>
                            </g>
                          </g>
                        </g>
                      </g>
                    </g>
                  </g>
                </g>
              </g>
            </g>
          </g>
        </g>
      </g>
    </g>
    <g id="_09-group_chat" data-name="09-group chat" transform="translate(599.999 1405.289)">
      <path id="Trazado_1043703" data-name="Trazado 1043703" d="M55,16c0-5.523-6.268-10-14-10S27,10.477,27,16c0,5.233,5.63,9.52,12.8,9.957L46,30l-.411-4.561C51.064,24.081,55,20.373,55,16Z" fill="#bfbfbf"/>
      <path id="Trazado_1043704" data-name="Trazado 1043704" d="M40.8,23.957C33.63,23.52,28,19.233,28,14a7.327,7.327,0,0,1,.4-2.338A7.7,7.7,0,0,0,27,16c0,5.233,5.63,9.52,12.8,9.957L46,30l-.254-2.817Z" fill="#8f8f8f"/>
      <path id="Trazado_1043705" data-name="Trazado 1043705" d="M41,12C41,5.925,33.837,1,25,1S9,5.925,9,12c0,5.2,5.263,9.554,12.326,10.7L20,28l6.307-5.045C34.53,22.5,41,17.772,41,12Z" fill="#4eacf2"/>
      <path id="Trazado_1043706" data-name="Trazado 1043706" d="M23.125,25.5l.81-3.242a1.535,1.535,0,0,0-1.141-1.865C16.516,18.908,12,14.821,12,10a9.092,9.092,0,0,1,3.452-6.812C11.543,5.194,9,8.389,9,12c0,5.2,5.263,9.554,12.326,10.7L20,28Z" fill="#1366a5"/>
      <path id="Trazado_1043707" data-name="Trazado 1043707" d="M61,60h0a36.218,36.218,0,0,1-26,0h0l1.2-6.017a8.923,8.923,0,0,1,4.324-6h0A15.059,15.059,0,0,1,48,46h0a15.059,15.059,0,0,1,7.473,1.985h0a8.923,8.923,0,0,1,4.324,6Z" fill="#e86a38"/>
      <path id="Trazado_1043708" data-name="Trazado 1043708" d="M40.2,55.241A10.38,10.38,0,0,1,44.527,48.3a13.734,13.734,0,0,1,5.537-2.152,15,15,0,0,0-9.537,1.84,8.923,8.923,0,0,0-4.324,6L35,60a36.349,36.349,0,0,0,4.155,1.308Z" fill="#8c3717"/>
      <path id="Trazado_1043709" data-name="Trazado 1043709" d="M29,60h0A36.218,36.218,0,0,1,3,60H3l1.2-6.017a8.923,8.923,0,0,1,4.324-6h0A15.059,15.059,0,0,1,16,46h0a15.059,15.059,0,0,1,7.473,1.985h0a8.923,8.923,0,0,1,4.324,6Z" fill="#e86a38"/>
      <path id="Trazado_1043710" data-name="Trazado 1043710" d="M8.2,55.241A10.38,10.38,0,0,1,12.527,48.3a13.734,13.734,0,0,1,5.537-2.152,15,15,0,0,0-9.537,1.84,8.923,8.923,0,0,0-4.324,6L3,60a36.35,36.35,0,0,0,4.155,1.308Z" fill="#8c3717"/>
      <path id="Trazado_1043711" data-name="Trazado 1043711" d="M45,60h0a36.218,36.218,0,0,1-26,0h0l1.2-6.017a8.923,8.923,0,0,1,4.324-6h0A15.059,15.059,0,0,1,32,46h0a15.059,15.059,0,0,1,7.473,1.985h0a8.923,8.923,0,0,1,4.324,6Z" fill="#f9b938"/>
      <circle id="Elipse_13127" data-name="Elipse 13127" cx="6" cy="6" r="6" transform="translate(26 34)" fill="#ffcab3"/>
      <path id="Trazado_1043712" data-name="Trazado 1043712" d="M24.2,55.241A10.38,10.38,0,0,1,28.527,48.3a13.734,13.734,0,0,1,5.537-2.152,15,15,0,0,0-9.537,1.84,8.923,8.923,0,0,0-4.324,6L19,60a36.349,36.349,0,0,0,4.155,1.308Z" fill="#f99c16"/>
      <path id="Trazado_1043713" data-name="Trazado 1043713" d="M29,40a6,6,0,0,1,4.5-5.8,6,6,0,1,0,0,11.606A6,6,0,0,1,29,40Z" fill="#f9aa8f"/>
      <circle id="Elipse_13128" data-name="Elipse 13128" cx="6" cy="6" r="6" transform="translate(10 34)" fill="#ffcab3"/>
      <path id="Trazado_1043714" data-name="Trazado 1043714" d="M13,40a6,6,0,0,1,4.5-5.8,6,6,0,1,0,0,11.606A6,6,0,0,1,13,40Z" fill="#f9aa8f"/>
      <circle id="Elipse_13129" data-name="Elipse 13129" cx="6" cy="6" r="6" transform="translate(42 34)" fill="#ffcab3"/>
      <path id="Trazado_1043715" data-name="Trazado 1043715" d="M45,40a6,6,0,0,1,4.5-5.8,6,6,0,1,0,0,11.606A6,6,0,0,1,45,40Z" fill="#f9aa8f"/>
      <path id="Trazado_1043716" data-name="Trazado 1043716" d="M61.98,59.8l-1.2-6.017a9.923,9.923,0,0,0-4.808-6.671A15.611,15.611,0,0,0,52.2,45.584a7,7,0,1,0-8.406,0,15.645,15.645,0,0,0-3.768,1.533l-.03.018c-.01,0-.019-.013-.03-.019A15.611,15.611,0,0,0,36.2,45.584a7,7,0,1,0-8.406,0,15.611,15.611,0,0,0-3.766,1.532c-.011.006-.02.014-.03.02l-.032-.02A15.611,15.611,0,0,0,20.2,45.584a7,7,0,1,0-8.406,0,15.611,15.611,0,0,0-3.766,1.532A9.923,9.923,0,0,0,3.22,53.787L2.02,59.8a1,1,0,0,0,.621,1.13,36.948,36.948,0,0,0,13.324,2.481q1.043,0,2.09-.058A37.276,37.276,0,0,0,24,62.539a36.815,36.815,0,0,0,16,0,36.994,36.994,0,0,0,21.358-1.6A1,1,0,0,0,61.98,59.8ZM43,40a5,5,0,1,1,5,5,5,5,0,0,1-5-5ZM27,40a5,5,0,1,1,5,5,5,5,0,0,1-5-5ZM11,40a5,5,0,1,1,5,5,5,5,0,0,1-5-5Zm6.945,21.36a35.011,35.011,0,0,1-13.8-2l1.039-5.18a7.921,7.921,0,0,1,3.839-5.327,14.322,14.322,0,0,1,13.2-.4,9.91,9.91,0,0,0-3,5.334L18.02,59.8a1,1,0,0,0,.621,1.129c.282.109.567.2.851.3Q18.72,61.316,17.945,61.36Zm2.2-2,1.036-5.179a7.921,7.921,0,0,1,3.839-5.327,14.3,14.3,0,0,1,13.954,0,7.921,7.921,0,0,1,3.839,5.327l1.036,5.179a35.145,35.145,0,0,1-23.7,0Zm24.387,1.87c.275-.1.551-.191.824-.3a1,1,0,0,0,.624-1.13l-1.2-6.017a9.91,9.91,0,0,0-3-5.334,14.322,14.322,0,0,1,13.2.4,7.921,7.921,0,0,1,3.839,5.327l1.036,5.179a35.043,35.043,0,0,1-15.32,1.874Z"/>
      <path id="Trazado_1043717" data-name="Trazado 1043717" d="M20,29a1,1,0,0,1-.97-1.243l1.07-4.271C12.921,21.98,8,17.363,8,12,8,5.383,15.626,0,25,0S42,5.383,42,12c0,6.242-6.562,11.332-15.315,11.933l-6.06,4.848A1,1,0,0,1,20,29ZM25,2C16.729,2,10,6.486,10,12c0,4.549,4.831,8.633,11.485,9.71a1,1,0,0,1,.811,1.23l-.608,2.428,3.994-3.194a1,1,0,0,1,.569-.218C33.961,21.527,40,17.153,40,12,40,6.486,33.271,2,25,2Z"/>
      <path id="Trazado_1043718" data-name="Trazado 1043718" d="M46,31a1,1,0,0,1-.546-.162l-5.984-3.9a18.94,18.94,0,0,1-5.852-1.357,1,1,0,0,1,.764-1.849,17,17,0,0,0,5.476,1.227,1,1,0,0,1,.485.161l4.476,2.917-.226-2.507a1,1,0,0,1,.755-1.061C50.523,23.185,54,19.782,54,16c0-4.429-4.772-8.257-11.1-8.9a1,1,0,0,1-.9-1.1.989.989,0,0,1,1.1-.894C50.455,5.858,56,10.541,56,16c0,4.5-3.718,8.513-9.34,10.184L47,29.91A1,1,0,0,1,46,31Z"/>
    </g>
  </g>
</svg>
