<svg xmlns="http://www.w3.org/2000/svg" xmlns:xlink="http://www.w3.org/1999/xlink" width="93.934" height="93.934" viewBox="0 0 93.934 93.934">
  <defs>
    <filter id="Trazado_982547" x="0" y="0" width="93.934" height="93.934" filterUnits="userSpaceOnUse">
      <feOffset dy="3" input="SourceAlpha"/>
      <feGaussianBlur stdDeviation="3" result="blur"/>
      <feFlood flood-opacity="0.161"/>
      <feComposite operator="in" in2="blur"/>
      <feComposite in="SourceGraphic"/>
    </filter>
  </defs>
  <g id="Grupo_1182616" data-name="Grupo 1182616" transform="translate(-170 -1512)">
    <g id="Grupo_1182309" data-name="Grupo 1182309" transform="translate(-19.033 -268)">
      <g id="Grupo_1176309" data-name="Grupo 1176309" transform="translate(0 -206)">
        <g id="Grupo_1172970" data-name="Grupo 1172970" transform="translate(-1 -9042)">
          <g id="Grupo_1171971" data-name="Grupo 1171971" transform="translate(199.033 11034)">
            <g id="Grupo_1167337" data-name="Grupo 1167337" transform="translate(0)">
              <g id="Grupo_1166720" data-name="Grupo 1166720">
                <g id="Grupo_1164305" data-name="Grupo 1164305">
                  <g id="Grupo_1163948" data-name="Grupo 1163948">
                    <g id="Grupo_1158168" data-name="Grupo 1158168">
                      <g id="Grupo_1152576" data-name="Grupo 1152576">
                        <g id="Grupo_1148633" data-name="Grupo 1148633">
                          <g id="Grupo_1148525" data-name="Grupo 1148525">
                            <g transform="matrix(1, 0, 0, 1, -9, -6)" filter="url(#Trazado_982547)">
                              <g id="Trazado_982547-2" data-name="Trazado 982547" transform="translate(9 6)" fill="#f2f7f5">
                                <path d="M 37.966796875 74.43359375 C 33.04315185546875 74.43359375 28.26757431030273 73.46962738037109 23.77274131774902 71.56847381591797 C 19.43047523498535 69.73184967041016 15.53040790557861 67.10224914550781 12.18087482452393 63.75271987915039 C 8.831341743469238 60.4031867980957 6.201741218566895 56.50312042236328 4.365118980407715 52.16086196899414 C 2.463963508605957 47.66601943969727 1.499996900558472 42.89044189453125 1.499996900558472 37.966796875 C 1.499996900558472 33.04315185546875 2.463963508605957 28.26757431030273 4.365118980407715 23.77274131774902 C 6.201741218566895 19.43047523498535 8.831341743469238 15.53040790557861 12.18087482452393 12.18087482452393 C 15.53040790557861 8.831341743469238 19.43047523498535 6.201741218566895 23.77274131774902 4.365118980407715 C 28.26757431030273 2.463963508605957 33.04315185546875 1.499996900558472 37.966796875 1.499996900558472 C 42.89044189453125 1.499996900558472 47.66601943969727 2.463963508605957 52.16086196899414 4.365118980407715 C 56.50312042236328 6.201741218566895 60.4031867980957 8.831341743469238 63.75271987915039 12.18087482452393 C 67.10224914550781 15.53040790557861 69.73184967041016 19.43047523498535 71.56847381591797 23.77274131774902 C 73.46962738037109 28.26757431030273 74.43359375 33.04315185546875 74.43359375 37.966796875 C 74.43359375 42.89044189453125 73.46962738037109 47.66601943969727 71.56847381591797 52.16086196899414 C 69.73184967041016 56.50313186645508 67.10224914550781 60.4031867980957 63.75271987915039 63.75271987915039 C 60.4031867980957 67.10224914550781 56.50313186645508 69.73184967041016 52.16086196899414 71.56847381591797 C 47.66601943969727 73.46962738037109 42.89044189453125 74.43359375 37.966796875 74.43359375 Z" stroke="none"/>
                                <path d="M 37.966796875 3 C 33.2449836730957 3 28.66600799560547 3.924095153808594 24.35705947875977 5.746635437011719 C 20.19359588623047 7.507637023925781 16.45379638671875 10.02928161621094 13.24153518676758 13.24153518676758 C 10.02927398681641 16.45379638671875 7.507621765136719 20.19359588623047 5.746635437011719 24.35705947875977 C 3.924095153808594 28.66600799560547 3 33.2449836730957 3 37.966796875 C 3 42.6886100769043 3.924095153808594 47.26758575439453 5.746635437011719 51.57653427124023 C 7.507621765136719 55.73999786376953 10.02927398681641 59.47979736328125 13.24153518676758 62.69205856323242 C 16.45379638671875 65.90431976318359 20.19359588623047 68.42597198486328 24.35705947875977 70.18695831298828 C 28.66600799560547 72.00949859619141 33.2449836730957 72.93359375 37.966796875 72.93359375 C 42.6886100769043 72.93359375 47.26758575439453 72.00949859619141 51.57653427124023 70.18695831298828 C 55.73999786376953 68.42597198486328 59.47979736328125 65.90431976318359 62.69205856323242 62.69205856323242 C 65.90431976318359 59.47979736328125 68.42597198486328 55.73999786376953 70.18695831298828 51.57653427124023 C 72.00949859619141 47.26758575439453 72.93359375 42.6886100769043 72.93359375 37.966796875 C 72.93359375 33.2449836730957 72.00949859619141 28.66600799560547 70.18695831298828 24.35705947875977 C 68.42597198486328 20.19359588623047 65.90431976318359 16.45379638671875 62.69205856323242 13.24153518676758 C 59.47979736328125 10.02928161621094 55.73999786376953 7.507637023925781 51.57653427124023 5.746635437011719 C 47.26758575439453 3.924095153808594 42.6886100769043 3 37.966796875 3 M 37.966796875 0 C 58.93528366088867 0 75.93359375 16.99832153320312 75.93359375 37.966796875 C 75.93359375 58.93528366088867 58.93528366088867 75.93359375 37.966796875 75.93359375 C 16.99831008911133 75.93359375 0 58.93528366088867 0 37.966796875 C 0 16.99832153320312 16.99831008911133 0 37.966796875 0 Z" stroke="none" fill="#4a665c"/>
                              </g>
                            </g>
                          </g>
                        </g>
                      </g>
                    </g>
                  </g>
                </g>
              </g>
            </g>
          </g>
        </g>
      </g>
    </g>
    <g id="liderazgo-intelectual_1_" data-name="liderazgo-intelectual (1)" transform="translate(155.9 1527.99)">
      <g id="Grupo_1182615" data-name="Grupo 1182615" transform="translate(40.253 5.385)">
        <path id="Trazado_1043126" data-name="Trazado 1043126" d="M310.733,383.46h13.806a.823.823,0,0,0,.822-.822v-4.583a5.421,5.421,0,0,0-5.4-5.4h-4.642a5.421,5.421,0,0,0-5.4,5.4v4.583A.825.825,0,0,0,310.733,383.46Z" transform="translate(-283.473 -340.06)" fill="#ff4155" fill-rule="evenodd"/>
        <path id="Trazado_1043127" data-name="Trazado 1043127" d="M352.125,287.272a3.816,3.816,0,1,0-3.815-3.815A3.824,3.824,0,0,0,352.125,287.272Z" transform="translate(-317.96 -256.526)" fill="#fbbd80" fill-rule="evenodd"/>
        <path id="Trazado_1043128" data-name="Trazado 1043128" d="M374.713,380l1.25-2.221-.478-5.128h-1.548l-.478,5.128Z" transform="translate(-340.548 -340.06)" fill="#ebf5fc" fill-rule="evenodd"/>
        <path id="Trazado_1043129" data-name="Trazado 1043129" d="M51.243,383.46h13.8a.826.826,0,0,0,.825-.822v-4.583a5.422,5.422,0,0,0-5.408-5.4H55.825a5.419,5.419,0,0,0-5.4,5.4v4.583A.825.825,0,0,0,51.243,383.46Z" transform="translate(-50.42 -340.06)" fill="#ff4155" fill-rule="evenodd"/>
        <path id="Trazado_1043130" data-name="Trazado 1043130" d="M92.605,287.272a3.816,3.816,0,1,0-3.815-3.815,3.824,3.824,0,0,0,3.815,3.815Z" transform="translate(-84.881 -256.526)" fill="#fbbd80" fill-rule="evenodd"/>
        <path id="Trazado_1043131" data-name="Trazado 1043131" d="M115.22,380l1.253-2.221L116,372.65h-1.551l-.475,5.128Z" transform="translate(-107.495 -340.06)" fill="#ebf5fc" fill-rule="evenodd"/>
        <path id="Trazado_1043132" data-name="Trazado 1043132" d="M160.884,376.388h17.5a1.047,1.047,0,0,0,1.043-1.043v-5.81a6.873,6.873,0,0,0-6.855-6.855h-5.881a6.875,6.875,0,0,0-6.855,6.855v5.81A1.048,1.048,0,0,0,160.884,376.388Z" transform="translate(-148.692 -331.106)" fill="#0593fc" fill-rule="evenodd"/>
        <path id="Trazado_1043133" data-name="Trazado 1043133" d="M242.006,372l1.588-2.815-.607-6.5h-1.96l-.607,6.5Z" transform="translate(-221.062 -331.106)" fill="#ebf5fc" fill-rule="evenodd"/>
        <path id="Trazado_1043134" data-name="Trazado 1043134" d="M200.109,52.77a6.339,6.339,0,0,1,6.342,6.339c0,2.671-1.239,3.634-2.49,5.1a3.863,3.863,0,0,0-.965,2.61v1.133a2.456,2.456,0,0,1-2.448,2.448h-.875a2.456,2.456,0,0,1-2.45-2.448V66.819a3.871,3.871,0,0,0-.963-2.61c-1.253-1.466-2.49-2.429-2.49-5.1A6.336,6.336,0,0,1,200.109,52.77Z" transform="translate(-179.165 -52.77)" fill="#ffd23b" fill-rule="evenodd"/>
        <path id="Trazado_1043135" data-name="Trazado 1043135" d="M232.989,183.7a4.275,4.275,0,0,0-.059.71v1.133a2.456,2.456,0,0,1-2.448,2.448h-.875a2.456,2.456,0,0,1-2.45-2.448V184.41a4.5,4.5,0,0,0-.056-.71Z" transform="translate(-209.1 -170.361)" fill="#e6e6e6" fill-rule="evenodd"/>
        <path id="Trazado_1043136" data-name="Trazado 1043136" d="M160.893,376.388h1.5a1.047,1.047,0,0,1-1.043-1.043v-5.81a6.873,6.873,0,0,1,6.855-6.855h-1.5a6.875,6.875,0,0,0-6.855,6.855v5.81A1.047,1.047,0,0,0,160.893,376.388Z" transform="translate(-148.701 -331.106)" fill="#0584e3" fill-rule="evenodd"/>
        <path id="Trazado_1043137" data-name="Trazado 1043137" d="M51.252,383.46H52.67a.823.823,0,0,1-.822-.822v-4.583a5.419,5.419,0,0,1,5.4-5.4H55.835a5.419,5.419,0,0,0-5.4,5.4v4.583a.823.823,0,0,0,.822.822Z" transform="translate(-50.429 -340.06)" fill="#e63b4d" fill-rule="evenodd"/>
        <path id="Trazado_1043138" data-name="Trazado 1043138" d="M332.953,374.338a5.4,5.4,0,0,1,3.928-1.7H335.46a5.374,5.374,0,0,0-3.12,1A6.872,6.872,0,0,1,332.953,374.338Z" transform="translate(-303.618 -340.051)" fill="#e63b4d" fill-rule="evenodd"/>
        <path id="Trazado_1043139" data-name="Trazado 1043139" d="M213.347,254.438a4.839,4.839,0,1,0-4.837-4.837A4.848,4.848,0,0,0,213.347,254.438Z" transform="translate(-192.404 -225.2)" fill="#fbbd80" fill-rule="evenodd"/>
        <g id="Grupo_1182614" data-name="Grupo 1182614" transform="translate(3.909 19.561)">
          <path id="Trazado_1043140" data-name="Trazado 1043140" d="M213.347,244.77c.173,0,.341.011.509.028a4.837,4.837,0,0,0,0,9.621,4.431,4.431,0,0,1-.509.028,4.838,4.838,0,0,1,0-9.676Z" transform="translate(-196.313 -244.77)" fill="#e2aa73" fill-rule="evenodd"/>
          <path id="Trazado_1043141" data-name="Trazado 1043141" d="M92.605,279.64c.12,0,.24.005.358.016a3.816,3.816,0,0,0,0,7.6c-.117.011-.237.016-.358.016a3.815,3.815,0,1,1,0-7.631Z" transform="translate(-88.79 -276.087)" fill="#e2aa73" fill-rule="evenodd"/>
          <path id="Trazado_1043142" data-name="Trazado 1043142" d="M352.125,279.64c.12,0,.237.005.356.016a3.816,3.816,0,0,0,0,7.6c-.117.011-.235.016-.356.016a3.815,3.815,0,1,1,0-7.631Z" transform="translate(-321.87 -276.087)" fill="#e2aa73" fill-rule="evenodd"/>
        </g>
        <path id="Trazado_1043143" data-name="Trazado 1043143" d="M200.109,52.77c.126,0,.252,0,.378.011a6.338,6.338,0,0,0-5.967,6.328c0,2.671,1.239,3.634,2.493,5.1a3.893,3.893,0,0,1,.907,1.9h-.753a3.867,3.867,0,0,0-.907-1.9c-1.253-1.466-2.49-2.429-2.49-5.1A6.336,6.336,0,0,1,200.109,52.77Z" transform="translate(-179.165 -52.77)" fill="#e6bd35" fill-rule="evenodd"/>
        <path id="Trazado_1043144" data-name="Trazado 1043144" d="M227.862,183.7a4.5,4.5,0,0,1,.056.71v1.133a2.456,2.456,0,0,0,2.448,2.448h-.75a2.456,2.456,0,0,1-2.45-2.448V184.41a4.5,4.5,0,0,0-.056-.71Z" transform="translate(-209.109 -170.361)" fill="#cfcfcf" fill-rule="evenodd"/>
      </g>
      <path id="Trazado_1043145" data-name="Trazado 1043145" d="M76.988,37.645H72.275a6.239,6.239,0,0,0-3.076.806,7.748,7.748,0,0,0-5.014-1.837H58.21A7.737,7.737,0,0,0,53.2,38.451a6.233,6.233,0,0,0-3.078-.806H45.408A6.314,6.314,0,0,0,39.1,43.953v4.655a1.653,1.653,0,0,0,1.651,1.652h9.681V50.3a1.877,1.877,0,0,0,1.875,1.875H70.091A1.877,1.877,0,0,0,71.966,50.3v-.038h9.681A1.653,1.653,0,0,0,83.3,48.608V43.953A6.316,6.316,0,0,0,76.988,37.645ZM75.07,43.494l-.439.777-.439-.777.4-4.22h.088Zm-13.094.365L61.2,45.238l-.779-1.379.523-5.615h.511ZM48.2,43.494l-.438.776-.437-.775.393-4.22h.09Zm-7.452,5.137a.024.024,0,0,1-.023-.023V43.953a4.684,4.684,0,0,1,4.678-4.678h.678l-.4,4.323a.816.816,0,0,0,.1.476l1.27,2.256a.814.814,0,0,0,1.418,0l1.274-2.256a.816.816,0,0,0,.1-.476l-.4-4.323h.674a4.629,4.629,0,0,1,1.906.408,7.732,7.732,0,0,0-1.594,4.71v4.239h-9.68ZM70.337,50.3a.248.248,0,0,1-.246.246H66.129V44.872a.814.814,0,1,0-1.628,0v5.672H57.9V44.872a.814.814,0,1,0-1.628,0v5.672H52.309a.248.248,0,0,1-.246-.246V44.392a6.125,6.125,0,0,1,1.761-4.3.829.829,0,0,0,.09-.09,6.124,6.124,0,0,1,4.3-1.758h1.1l-.532,5.718a.816.816,0,0,0,.1.476L60.493,47.3a.814.814,0,0,0,1.418,0l1.612-2.859a.815.815,0,0,0,.1-.476l-.532-5.718h1.1a6.13,6.13,0,0,1,4.292,1.75.8.8,0,0,0,.106.106,6.126,6.126,0,0,1,1.752,4.292V50.3Zm11.33-1.689a.024.024,0,0,1-.02.023H71.966V44.393a7.732,7.732,0,0,0-1.594-4.71,4.63,4.63,0,0,1,1.9-.408h.676l-.4,4.323a.821.821,0,0,0,.1.477l1.274,2.256a.815.815,0,0,0,1.418,0l1.274-2.256a.818.818,0,0,0,.1-.477l-.4-4.323h.676a4.684,4.684,0,0,1,4.678,4.678Zm-11.729-15.9a4.693,4.693,0,1,0,4.693-4.691A4.7,4.7,0,0,0,69.939,32.707Zm4.693-3.061a3.063,3.063,0,1,1-3.065,3.062A3.067,3.067,0,0,1,74.631,29.646ZM47.765,37.4a4.692,4.692,0,1,0-4.69-4.693A4.7,4.7,0,0,0,47.765,37.4Zm0-7.754A3.063,3.063,0,1,1,44.7,32.708,3.067,3.067,0,0,1,47.765,29.646ZM61.2,35.866a5.73,5.73,0,1,0-5.733-5.73A5.736,5.736,0,0,0,61.2,35.866Zm0-9.831a4.1,4.1,0,1,1-4.1,4.1A4.105,4.105,0,0,1,61.2,26.036Zm-5.038-9.113c.166.185.338.377.505.574a3.108,3.108,0,0,1,.783,2.125V20.77a3.3,3.3,0,0,0,3.3,3.3h.892a3.307,3.307,0,0,0,3.3-3.3V19.621a3.12,3.12,0,0,1,.78-2.125c.168-.2.339-.388.506-.574a6.848,6.848,0,0,0,2.222-5.136,7.259,7.259,0,1,0-14.517,0A6.848,6.848,0,0,0,56.161,16.922Zm5.483,5.521h-.892a1.674,1.674,0,0,1-1.672-1.672V19.715h4.239v1.057A1.675,1.675,0,0,1,61.644,22.443ZM61.2,6.155a5.637,5.637,0,0,1,5.629,5.632,5.239,5.239,0,0,1-1.806,4.05c-.172.193-.35.391-.532.6a4.856,4.856,0,0,0-.931,1.645H62.014V13.932l.593-.593a.814.814,0,0,0-1.151-1.151l-.257.257-.259-.258a.814.814,0,0,0-1.149,1.153l.595.593v4.153H58.842a4.845,4.845,0,0,0-.935-1.646c-.18-.211-.359-.41-.531-.6a5.239,5.239,0,0,1-1.806-4.05A5.636,5.636,0,0,1,61.2,6.154ZM49.423,11.787a.814.814,0,0,1,.814-.814h1.834a.814.814,0,1,1,0,1.628H50.237A.814.814,0,0,1,49.423,11.787Zm20.906-.814H72.16a.814.814,0,0,1,0,1.628H70.329a.814.814,0,1,1,0-1.628ZM55.321,17.665a.814.814,0,0,1,0,1.151l-1.3,1.3a.814.814,0,1,1-1.151-1.151l1.3-1.3A.814.814,0,0,1,55.321,17.665ZM67.079,5.908a.814.814,0,0,1,0-1.151l1.3-1.3a.814.814,0,0,1,1.151,1.151l-1.3,1.3a.814.814,0,0,1-1.151,0Zm-6.694-3.25V.824a.814.814,0,1,1,1.628,0V2.658a.814.814,0,1,1-1.628,0Zm6.694,16.159a.814.814,0,0,1,1.151-1.151l1.3,1.3a.814.814,0,0,1-1.151,1.151ZM52.872,4.611A.814.814,0,1,1,54.024,3.46l1.3,1.3a.814.814,0,0,1-1.151,1.151Z" transform="translate(0)"/>
    </g>
  </g>
</svg>
