<svg xmlns="http://www.w3.org/2000/svg" xmlns:xlink="http://www.w3.org/1999/xlink" width="118" height="118" viewBox="0 0 118 118">
  <defs>
    <filter id="Trazado_982547" x="0" y="0" width="118" height="118" filterUnits="userSpaceOnUse">
      <feOffset dy="3" input="SourceAlpha"/>
      <feGaussianBlur stdDeviation="3" result="blur"/>
      <feFlood flood-opacity="0.161"/>
      <feComposite operator="in" in2="blur"/>
      <feComposite in="SourceGraphic"/>
    </filter>
  </defs>
  <g id="Grupo_1182952" data-name="Grupo 1182952" transform="translate(-888 -1381)">
    <g id="Grupo_1182318" data-name="Grupo 1182318" transform="translate(-11 -8277.328)">
      <g id="Grupo_1176358" data-name="Grupo 1176358" transform="translate(908 9664.328)">
        <g id="Grupo_1172970" data-name="Grupo 1172970" transform="translate(0)">
          <g id="Grupo_1171971" data-name="Grupo 1171971" transform="translate(0)">
            <g id="Grupo_1167337" data-name="Grupo 1167337">
              <g id="Grupo_1166720" data-name="Grupo 1166720">
                <g id="Grupo_1164305" data-name="Grupo 1164305">
                  <g id="Grupo_1163948" data-name="Grupo 1163948">
                    <g id="Grupo_1158168" data-name="Grupo 1158168">
                      <g id="Grupo_1152576" data-name="Grupo 1152576">
                        <g id="Grupo_1148633" data-name="Grupo 1148633">
                          <g id="Grupo_1148525" data-name="Grupo 1148525">
                            <g transform="matrix(1, 0, 0, 1, -9, -6)" filter="url(#Trazado_982547)">
                              <g id="Trazado_982547-2" data-name="Trazado 982547" transform="translate(9 6)" fill="#f2f7f5">
                                <path d="M 50 98.5 C 43.45188522338867 98.5 37.10042953491211 97.21787261962891 31.12207221984863 94.68923950195312 C 25.34691429138184 92.24655914306641 20.15995788574219 88.74932861328125 15.70532894134521 84.29468536376953 C 11.2506856918335 79.84004211425781 7.753442764282227 74.65309906005859 5.310757160186768 68.87794494628906 C 2.782128572463989 62.89958572387695 1.5 56.54813003540039 1.5 50 C 1.5 43.45188522338867 2.782128572463989 37.10042953491211 5.310757160186768 31.12207221984863 C 7.753442764282227 25.34691429138184 11.2506856918335 20.15997123718262 15.70532894134521 15.70532894134521 C 20.15997123718262 11.2506856918335 25.34691429138184 7.753442764282227 31.12207221984863 5.310757160186768 C 37.10042953491211 2.782128572463989 43.45188522338867 1.5 50 1.5 C 56.54813003540039 1.5 62.89958572387695 2.782128572463989 68.87794494628906 5.310757160186768 C 74.65309906005859 7.753442764282227 79.84004211425781 11.2506856918335 84.29468536376953 15.70532894134521 C 88.74932861328125 20.15995788574219 92.24655914306641 25.34691429138184 94.68923950195312 31.12207221984863 C 97.21787261962891 37.10042953491211 98.5 43.45188522338867 98.5 50 C 98.5 56.54813003540039 97.21787261962891 62.89958572387695 94.68923950195312 68.87794494628906 C 92.24655914306641 74.65309906005859 88.74932861328125 79.84004211425781 84.29468536376953 84.29468536376953 C 79.84004211425781 88.74932861328125 74.65309906005859 92.24655914306641 68.87794494628906 94.68923950195312 C 62.89958572387695 97.21787261962891 56.54813003540039 98.5 50 98.5 Z" stroke="none"/>
                                <path d="M 50 3 C 43.65372467041016 3 37.49886322021484 4.242263793945312 31.70639801025391 6.6922607421875 C 26.11003112792969 9.059326171875 21.08335113525391 12.44861602783203 16.76598358154297 16.76598358154297 C 12.44861602783203 21.08335113525391 9.059326171875 26.11003112792969 6.6922607421875 31.70639801025391 C 4.242263793945312 37.49886322021484 3 43.65372467041016 3 50 C 3 56.34629058837891 4.242263793945312 62.50115203857422 6.6922607421875 68.29361724853516 C 9.059326171875 73.88998413085938 12.44861602783203 78.91666412353516 16.76598358154297 83.23403167724609 C 21.08335113525391 87.55138397216797 26.11003112792969 90.940673828125 31.70639801025391 93.3077392578125 C 37.49886322021484 95.75773620605469 43.65372467041016 97 50 97 C 56.34629058837891 97 62.50115203857422 95.75773620605469 68.29361724853516 93.3077392578125 C 73.88998413085938 90.940673828125 78.91666412353516 87.55138397216797 83.23403167724609 83.23403167724609 C 87.55138397216797 78.91666412353516 90.940673828125 73.88998413085938 93.3077392578125 68.29361724853516 C 95.75773620605469 62.50115203857422 97 56.34629058837891 97 50 C 97 43.65372467041016 95.75773620605469 37.49886322021484 93.3077392578125 31.70639801025391 C 90.940673828125 26.11003112792969 87.55138397216797 21.08335113525391 83.23403167724609 16.76598358154297 C 78.91666412353516 12.44861602783203 73.88998413085938 9.059326171875 68.29361724853516 6.6922607421875 C 62.50115203857422 4.242263793945312 56.34629058837891 3 50 3 M 50 0 C 77.6142578125 0 100 22.38577270507812 100 50 C 100 77.6142578125 77.6142578125 100 50 100 C 22.38577270507812 100 0 77.6142578125 0 50 C 0 22.38577270507812 22.38577270507812 0 50 0 Z" stroke="none" fill="#4a665c"/>
                              </g>
                            </g>
                          </g>
                        </g>
                      </g>
                    </g>
                  </g>
                </g>
              </g>
            </g>
          </g>
        </g>
      </g>
    </g>
    <g id="justicia" transform="translate(883.699 1405)">
      <g id="Grupo_1182950" data-name="Grupo 1182950" transform="translate(36.249 0.95)">
        <g id="Grupo_1182941" data-name="Grupo 1182941" transform="translate(0)">
          <path id="Trazado_1043719" data-name="Trazado 1043719" d="M84.634,61.6,73.168,69.309a6.105,6.105,0,0,1-6.814,0L54.886,61.6A27.344,27.344,0,0,1,42.8,38.908V20.392a3.455,3.455,0,0,1,2.169-3.207l23.5-9.425a3.455,3.455,0,0,1,2.572,0l23.5,9.425a3.455,3.455,0,0,1,2.169,3.207V38.908A27.345,27.345,0,0,1,84.634,61.6Z" transform="translate(-42.802 -7.512)" fill="#ffe5c2"/>
        </g>
        <g id="Grupo_1182943" data-name="Grupo 1182943" transform="translate(17.289 6.262)">
          <g id="Grupo_1182942" data-name="Grupo 1182942">
            <path id="Trazado_1043720" data-name="Trazado 1043720" d="M214.006,60.455l-8.5-3.41V82.178c0,9.1-12.973,17.782-20.527,22.862l-5.428,3.328,6.262,4.212a6.105,6.105,0,0,0,6.814,0l11.467-7.712a27.344,27.344,0,0,0,12.085-22.69V63.662A3.455,3.455,0,0,0,214.006,60.455Z" transform="translate(-179.547 -57.045)" fill="#fed2a4"/>
          </g>
        </g>
        <g id="Grupo_1182944" data-name="Grupo 1182944" transform="translate(5.718 5.806)">
          <path id="Trazado_1043721" data-name="Trazado 1043721" d="M109.267,104.656a.382.382,0,0,1-.216-.066L97.584,96.879a21.594,21.594,0,0,1-9.557-17.945V61.948l21.24-8.517,21.24,8.517V78.933a21.593,21.593,0,0,1-9.557,17.945l-11.467,7.712A.38.38,0,0,1,109.267,104.656Z" transform="translate(-88.027 -53.431)" fill="#f2fbff"/>
        </g>
        <g id="Grupo_1182945" data-name="Grupo 1182945" transform="translate(22.717 12.285)">
          <path id="Trazado_1043722" data-name="Trazado 1043722" d="M242.878,104.676v16.736a21.593,21.593,0,0,1-9.557,17.945l-10.842,7.292,4.025,2.707a.388.388,0,0,0,.433,0l11.467-7.712A21.594,21.594,0,0,0,247.96,123.7V106.714Z" transform="translate(-222.478 -104.676)" fill="#f2fbff"/>
        </g>
        <g id="Grupo_1182946" data-name="Grupo 1182946" transform="translate(36.008 40.102)">
          <circle id="Elipse_13130" data-name="Elipse 13130" cx="8.285" cy="8.285" r="8.285" fill="#80d261"/>
        </g>
        <g id="Grupo_1182947" data-name="Grupo 1182947" transform="translate(21.257 36.744)">
          <path id="Trazado_1043723" data-name="Trazado 1043723" d="M216,298.4l-4.785,4.616a.915.915,0,0,0,.635,1.574h9.569a.915.915,0,0,0,.635-1.574l-4.785-4.616a.915.915,0,0,0-1.271,0l-4.785,4.616a.915.915,0,0,0,.635,1.574h9.569a.915.915,0,0,0,.635-1.574l-4.785-4.616A.915.915,0,0,0,216,298.4Z" transform="translate(-210.93 -298.141)" fill="#768f9a"/>
        </g>
        <g id="Grupo_1182948" data-name="Grupo 1182948" transform="translate(10.895 28.99)">
          <path id="Trazado_1043724" data-name="Trazado 1043724" d="M129,236.807a1.33,1.33,0,0,0-.012.441,4.918,4.918,0,0,0,9.733,0,1.326,1.326,0,0,0-.012-.441Z" transform="translate(-128.974 -236.807)" fill="#60b7ff"/>
        </g>
        <g id="Grupo_1182949" data-name="Grupo 1182949" transform="translate(33.262 28.99)">
          <path id="Trazado_1043725" data-name="Trazado 1043725" d="M315.623,236.807a1.329,1.329,0,0,1,.012.441,4.918,4.918,0,0,1-9.733,0,1.326,1.326,0,0,1,.012-.441Z" transform="translate(-305.889 -236.807)" fill="#60b7ff"/>
        </g>
      </g>
      <g id="Grupo_1182951" data-name="Grupo 1182951" transform="translate(35.301)">
        <path id="Trazado_1043726" data-name="Trazado 1043726" d="M188.088,9.742,164.584.318a4.383,4.383,0,0,0-3.277,0L150.07,4.824a.948.948,0,0,0,.706,1.76l11.237-4.506a2.5,2.5,0,0,1,1.866,0l23.5,9.425a2.5,2.5,0,0,1,1.574,2.327V32.345a26.4,26.4,0,0,1-.9,6.828.948.948,0,1,0,1.832.491,28.305,28.305,0,0,0,.962-7.319V13.829a4.382,4.382,0,0,0-2.764-4.087Z" transform="translate(-135.039)"/>
        <path id="Trazado_1043727" data-name="Trazado 1043727" d="M83.767,80.81A22.447,22.447,0,0,0,85.4,72.381V55.4a.948.948,0,0,0-.6-.88L63.561,46a.947.947,0,0,0-.706,0l-21.24,8.517a.948.948,0,0,0-.6.88V72.381A22.541,22.541,0,0,0,51,91.114l11.467,7.712a1.336,1.336,0,0,0,1.491,0l8.2-5.515a9.281,9.281,0,0,0,2.341,3.118l-8.409,5.655a5.138,5.138,0,0,1-5.756,0L48.863,94.372A26.356,26.356,0,0,1,37.2,72.469V53.953a2.5,2.5,0,0,1,1.574-2.327L45.4,48.967a.948.948,0,1,0-.706-1.76l-6.632,2.659A4.383,4.383,0,0,0,35.3,53.953V72.469A28.25,28.25,0,0,0,47.8,95.946l11.467,7.712a7.027,7.027,0,0,0,7.873,0l9.023-6.068a9.232,9.232,0,1,0,7.6-16.779ZM63.208,97.041l-11.154-7.5a20.647,20.647,0,0,1-9.138-17.159V56.037L63.208,47.9,83.5,56.037V72.381a20.564,20.564,0,0,1-1.586,7.949A9.228,9.228,0,0,0,71.527,91.446ZM80.543,96.8a7.337,7.337,0,1,1,7.337-7.337A7.345,7.345,0,0,1,80.543,96.8Z" transform="translate(-35.301 -40.124)"/>
        <path id="Trazado_1043728" data-name="Trazado 1043728" d="M371.275,367.358l-3.286,3.286-1.061-1.062a.948.948,0,0,0-1.341,1.341l1.726,1.726,0,0,0,0a.949.949,0,0,0,1.341,0l3.957-3.957a.948.948,0,1,0-1.341-1.341Z" transform="translate(-323.585 -320.67)"/>
        <path id="Trazado_1043729" data-name="Trazado 1043729" d="M144.454,131.9a2.278,2.278,0,0,0-.569,1.118v.005a2.27,2.27,0,0,0-.019.756,5.866,5.866,0,0,0,11.611,0,2.265,2.265,0,0,0-.019-.753.025.025,0,0,1,0,0,2.277,2.277,0,0,0-.57-1.123l-4.268-5.838V123.64a2.228,2.228,0,0,0-2.225-2.225h-8.959v-2.257a.948.948,0,1,0-1.9,0v2.257h-8.959a2.228,2.228,0,0,0-2.225,2.225v2.423l-4.268,5.838a2.294,2.294,0,0,0-.59,1.879,5.866,5.866,0,0,0,11.611,0,2.266,2.266,0,0,0-.019-.753.024.024,0,0,1,0,0,2.277,2.277,0,0,0-.57-1.123l-4.268-5.838V123.64a.329.329,0,0,1,.328-.328h8.959v16.958a1.893,1.893,0,0,0-.346.263l-4.785,4.615a1.864,1.864,0,0,0,1.294,3.2h9.569a1.863,1.863,0,0,0,1.294-3.2l-4.785-4.616h0l0,0a1.881,1.881,0,0,0-.338-.254v-16.96h8.959a.329.329,0,0,1,.328.328v2.423ZM127.3,136.91a3.991,3.991,0,0,1-3.78-2.757h7.56A3.992,3.992,0,0,1,127.3,136.91Zm-3.126-4.653,3.126-4.277,3.126,4.277Zm19.013,14.2h-9.406l4.7-4.537Zm6.481-9.547a3.991,3.991,0,0,1-3.78-2.757h7.56A3.992,3.992,0,0,1,149.67,136.91Zm-3.126-4.653,3.126-4.277,3.126,4.277Z" transform="translate(-110.58 -103.265)"/>
      </g>
    </g>
  </g>
</svg>
