<svg xmlns="http://www.w3.org/2000/svg" xmlns:xlink="http://www.w3.org/1999/xlink" width="505" height="210" viewBox="0 0 505 210">
  <defs>
    <clipPath id="clip-path">
      <rect id="Rectángulo_415862" data-name="Rectángulo 415862" width="505" height="210" transform="translate(915 1922)" fill="#fff" stroke="#707070" stroke-width="1"/>
    </clipPath>
  </defs>
  <g id="Enmascarar_grupo_1098838" data-name="Enmascarar grupo 1098838" transform="translate(-915 -1922)" clip-path="url(#clip-path)">
    <g id="Grupo_1183360" data-name="Grupo 1183360" transform="translate(-10437.023 2335.571)">
      <path id="Trazado_1043363" data-name="Trazado 1043363" d="M189.5,333.4s-1.465,116.564,103.909,93.868c0,0,34.22-11.067,61.93,26.829,18.005,24.622,68.588,43.075,114.977-25.178,22.66-33.339,62.755-38.539,62.755-38.539s104.211,1.809,40.392-132.506c-93.273-196.306-203.788-62.033-203.788-62.033s-28.306,41.12-99.547,39.99C217.033,234.991,188.937,290.159,189.5,333.4Z" transform="translate(11207.533 -549.512)" fill="#fffbf5"/>
      <g id="Grupo_1182922" data-name="Grupo 1182922" transform="translate(11537.176 -403.898)">
        <path id="Trazado_1043364" data-name="Trazado 1043364" d="M685.749,730.216c.344.722.669,1.421,1.021,2.155.8,1.676,1.612,3.365,2.441,5.1.478,1,.948,2,1.428,3.016.6,1.266,1.189,2.532,1.784,3.825.236.512.474,1,.71,1.521a.232.232,0,0,0-.023.005c1.667,3.67,3.305,7.414,4.8,11.267l19.568-34.217a41.834,41.834,0,0,1-12.467,6.243A39.956,39.956,0,0,1,685.749,730.216Z" transform="translate(-559.927 -521.934)" fill="none"/>
        <path id="Trazado_1043365" data-name="Trazado 1043365" d="M746.058,832.257h0s-.16-.1-.446-.285a31.2,31.2,0,0,1-4.845-3.989.275.275,0,0,0-.392.387,30.626,30.626,0,0,0,5.4,4.358.321.321,0,0,0,.377-.094.007.007,0,0,0,0,0A.275.275,0,0,0,746.058,832.257Z" transform="translate(-585.239 -570.666)" fill="#74160d"/>
        <path id="Trazado_1043366" data-name="Trazado 1043366" d="M754.549,823.893l0,0a15.45,15.45,0,0,1-3.775-3.139.275.275,0,1,0-.391.387,16.939,16.939,0,0,0,3.862,3.214c.057.029.1.047.1.05a.276.276,0,0,0,.359-.152.253.253,0,0,0,0-.11.259.259,0,0,0-.152-.249Z" transform="translate(-589.88 -567.31)" fill="#74160d"/>
        <path id="Trazado_1043367" data-name="Trazado 1043367" d="M755.147,875.448c.527-.434,0-1.949-1.185-3.382a8.616,8.616,0,0,0-.915-.954c-.571.505-1.141,1.011-1.725,1.5a8.686,8.686,0,0,0,.73,1.027C753.234,875.075,754.62,875.884,755.147,875.448Z" transform="translate(-590.355 -590.717)" fill="#fbd7d2"/>
        <path id="Trazado_1043368" data-name="Trazado 1043368" d="M550.381,390.25v-.037c0,.034.007.066.013.1a21.738,21.738,0,0,0,7.9-7.552c8.039,1.757,18.38,3.165,26.782,1.47v0a8.826,8.826,0,0,0,1.539-.209,21.184,21.184,0,0,0,5.854,12.551c.066-.139.122-.275.185-.413l-.128.374c4.457-3.271,9.9-3.43,12.193-.342s.539,8.3-3.929,11.609-9.952,3.482-12.25.382c0,0,0,0,0,0l-1.926,5.622-.021,0a18.179,18.179,0,0,1-6.529,9.055l2.871,15.851c3.084.247,6.07.565,8.93.952-.025.075-.058.146-.085.221,1.113.121,2.2.253,3.276.39.026-.1.062-.187.087-.284a.276.276,0,0,1,.533.139c-.019.074-.047.144-.066.218,15.068,1.981,26.293,5.6,30.089,9.936q1.108.734,2.18,1.575c9.542,7.169,22.822,20.9,29.454,27.96a38.722,38.722,0,0,1,3.861-11c.15-.283.3-.565.445-.851.032-.06.06-.117.092-.176a9.562,9.562,0,0,0,.445-.949,40.619,40.619,0,0,0,2.528-27.639,38.091,38.091,0,0,0-31.078-27.949l0,0-.017,0c-.3-.047-.6-.081-.894-.121-3.307-.541-14.676-3.305-17.221-15.944l-.011,0c-.093-.4-.18-.8-.286-1.193a38.133,38.133,0,0,0-33.958-28.285l0-.011-.122,0c-.524-.041-1.05-.074-1.578-.095a14.25,14.25,0,0,1-9.268-4.636c-4.415-5.2-6.316-8.936-11.038-10.784v0a16.136,16.136,0,1,0-13.947,28.98l-.009.017s.157.055.426.146c.085.029.163.068.248.1s.17.044.256.071c.216.071.463.152.748.243a42.817,42.817,0,0,0-4.261,5.693A11.523,11.523,0,0,1,550.381,390.25Z" transform="translate(-489.93 -347.947)" fill="#383851"/>
        <path id="Trazado_1043369" data-name="Trazado 1043369" d="M548.913,481.674c2.434-.268,4.946-.573,7.521-.848l2.99-16.242a18.254,18.254,0,0,1-7.1-13.029l-.017,0-.009-.248c-.014-.214-.017-.43-.024-.646l-.224-6.164-.01.009c-3.1,2.3-8.3.539-11.609-3.929a14.227,14.227,0,0,1-1.365-2.259,40.212,40.212,0,0,0-.181,21.3,38.455,38.455,0,0,0,5.722,12.27l0,0,.019.022c.122.173.247.344.372.515.76,1.19,2.233,4.379.747,9.6q1.561-.187,3.174-.35S548.913,481.676,548.913,481.674Z" transform="translate(-491.149 -389.882)" fill="#383851"/>
        <path id="Trazado_1043370" data-name="Trazado 1043370" d="M770.429,651.324l.009.01-.021-.045a11.092,11.092,0,0,0-.882-1.765c-1.866-3.615-13.7-21-27.226-37.617a.016.016,0,0,1,0,0c2.676,3.287,5.286,6.6,7.764,9.838-6.061,9.928-12.186,15.913-25.831,18.007l-4.539-5.288h0l17.654,20.571-9.35,16.35L708.438,705.6a125.766,125.766,0,0,1,4.86,15.044c1.634,6.576,3.182,13.308,4.63,20.147,9.4,10.258,16.76,16.691,18.18,15.519,1.5-1.233-4.035-10.541-13.127-22.611,4.164,3.819,7.725,5.791,9.048,4.7.942-.778.568-2.971-.788-5.9a.259.259,0,0,1-.247,0,30.62,30.62,0,0,1-5.4-4.358.275.275,0,0,1,.392-.387,31.234,31.234,0,0,0,4.845,3.989c.287.189.446.285.446.285h0a.274.274,0,0,1,.095.375c1.94,1.176,3.455,1.577,4.219.947.939-.774.57-2.954-.773-5.869a16.939,16.939,0,0,1-3.862-3.214.275.275,0,1,1,.391-.388,15.432,15.432,0,0,0,3.775,3.139l0,0h0a.258.258,0,0,1,.151.248c1.567.826,2.791,1.056,3.449.512,1.806-1.489-1.2-8.157-6.77-15.34l35.477-47.179C771.047,661.184,772.138,655.749,770.429,651.324ZM733.147,750.83a8.609,8.609,0,0,1,.915.954c1.182,1.433,1.712,2.948,1.185,3.382s-1.913-.373-3.095-1.807a8.572,8.572,0,0,1-.73-1.027C732.006,751.841,732.577,751.335,733.147,750.83Z" transform="translate(-570.455 -470.435)" fill="#f7b7aa"/>
        <path id="Trazado_1043371" data-name="Trazado 1043371" d="M690.1,745.683c-.83-1.734-1.637-3.424-2.441-5.1C688.453,742.248,689.272,743.961,690.1,745.683Z" transform="translate(-560.811 -530.146)" fill="#383851"/>
        <path id="Trazado_1043372" data-name="Trazado 1043372" d="M701.277,645.141l-.025,0-.181-.132c-1.1-.949-2.163-1.874-3.2-2.784h.026q-3.952-3.465-7.328-6.565a338.609,338.609,0,0,1-7.247,39.746h0c0,1.732-2.075,3.363-5.727,4.787,1.3,3.035,2.8,6.247,4.371,9.547a39.958,39.958,0,0,0,19.26-1.086,41.832,41.832,0,0,0,12.468-6.243l9.35-16.35-17.654-20.571C703.618,645.959,702.186,645.873,701.277,645.141Z" transform="translate(-556.143 -481.456)" fill="#383851"/>
        <path id="Trazado_1043373" data-name="Trazado 1043373" d="M696.657,759.551c-.6-1.293-1.186-2.559-1.784-3.825Q695.768,757.617,696.657,759.551Z" transform="translate(-564.161 -537.173)" fill="#383851"/>
        <path id="Trazado_1043374" data-name="Trazado 1043374" d="M605.921,764.582c-1.493-3.854-3.132-7.6-4.8-11.267-16.4,4.11-33.824,4.738-50.5,4a117.168,117.168,0,0,1-36.665-8.006,66.826,66.826,0,0,1-17.172-9.115c-.5-.387-.98-.8-1.47-1.2a87.52,87.52,0,0,0-6.552,30.146h.019c-.229,5.959-.445,12.4-.63,19.272v0c-.7,26.071-.974,58.4.011,94.491h14v-61.66l5.034,61.66h118.7c-.784-27.9-4.818-56.379-10.481-83.139-1.447-6.839-3-13.572-4.63-20.147A125.432,125.432,0,0,0,605.921,764.582Z" transform="translate(-467.939 -529.412)" fill="#383851"/>
        <path id="Trazado_1043375" data-name="Trazado 1043375" d="M520.69,739.573a117.163,117.163,0,0,0,36.665,8.006c16.68.734,34.1.106,50.5-4l.022-.005c-.235-.516-.473-1.009-.71-1.521q-.89-1.932-1.784-3.825c-.48-1.016-.951-2.018-1.428-3.016-.824-1.723-1.644-3.435-2.441-5.1-.352-.734-.677-1.433-1.021-2.155-1.571-3.3-3.075-6.512-4.371-9.547-8.109,3.164-24,5.314-42.288,5.314-19.037,0-35.485-2.331-43.251-5.71l-6.773,7.228-.088.187q-.38.8-.76,1.656l-.1.219q-.42.949-.834,1.949l.013.011c.49.4.97.81,1.47,1.2A66.827,66.827,0,0,0,520.69,739.573Z" transform="translate(-474.675 -519.671)" fill="#1f1e34"/>
        <path id="Trazado_1043376" data-name="Trazado 1043376" d="M734.937,631.891h.015c-.091.057-.177.1-.267.159-.3.185-.6.363-.893.531-.235.134-.463.254-.693.376-.265.14-.531.286-.789.41-.308.148-.6.274-.9.4-.33.14-.65.264-.964.375-.214.076-.435.162-.642.224l-.032,0c-.1.031-.217.078-.318.1l4.539,5.288c13.644-2.094,19.769-8.079,25.831-18.007-2.479-3.234-5.089-6.55-7.764-9.838-1.164,3.672-4.315,8.53-8.806,13.14A46.059,46.059,0,0,1,734.937,631.891Z" transform="translate(-580.207 -470.438)" fill="#ed7b7d"/>
        <path id="Trazado_1043377" data-name="Trazado 1043377" d="M560.53,527.269a21.927,21.927,0,0,1-4.571-8.045q-1.61.164-3.174.35l-.071.008a26.072,26.072,0,0,0,3.486,7.735Q558.365,527.29,560.53,527.269Z" transform="translate(-498.193 -427.426)" fill="#6997b2"/>
        <path id="Trazado_1043378" data-name="Trazado 1043378" d="M640.42,519.852c-1.076-.138-2.164-.27-3.276-.39a23.245,23.245,0,0,1-4.467,7.653c1.5-.005,3.008-.016,4.512-.019A26.05,26.05,0,0,0,640.42,519.852Z" transform="translate(-535.3 -427.537)" fill="#6997b2"/>
        <path id="Trazado_1043379" data-name="Trazado 1043379" d="M595.08,583.3c.023-.043.038-.069.041-.075h0a.276.276,0,0,1,.38-.088c.031.019.039.054.059.081.027-.055.054-.115.081-.169l-.617-.01C595.043,583.126,595.062,583.212,595.08,583.3Z" transform="translate(-517.827 -457.039)" fill="#6997b2"/>
        <path id="Trazado_1043380" data-name="Trazado 1043380" d="M572.075,584.982q.246-1.231.532-2.324l-.509-.009C572.094,583.414,572.086,584.193,572.075,584.982Z" transform="translate(-507.177 -456.859)" fill="#6997b2"/>
        <path id="Trazado_1043381" data-name="Trazado 1043381" d="M570.008,547.193c.214,1.016.4,2.271.556,3.74q3.323.062,6.645.129A26.649,26.649,0,0,1,570.008,547.193Z" transform="translate(-506.218 -440.405)" fill="#6997b2"/>
        <path id="Trazado_1043382" data-name="Trazado 1043382" d="M588.358,547.553a26.16,26.16,0,0,0,14.506-8.685q-2.672.006-5.346.02a23.069,23.069,0,0,1-14.549,5.152,23.749,23.749,0,0,1-14.694-4.947c-1.709.018-3.418.044-5.126.064q.733.839,1.534,1.616a.878.878,0,0,1,.68-.405c.484.028.906.78,1.263,2.122a26.108,26.108,0,0,0,9.449,4.758Q582.217,547.387,588.358,547.553Z" transform="translate(-503.035 -436.542)" fill="#6997b2"/>
        <path id="Trazado_1043383" data-name="Trazado 1043383" d="M735.573,651.178c-.265.14-.531.286-.789.41C735.042,651.464,735.308,651.318,735.573,651.178Z" transform="translate(-582.681 -488.658)" fill="#6997b2"/>
        <path id="Trazado_1043384" data-name="Trazado 1043384" d="M738.441,649.486c-.3.185-.6.363-.893.531C737.842,649.849,738.14,649.671,738.441,649.486Z" transform="translate(-583.964 -487.873)" fill="#6997b2"/>
        <path id="Trazado_1043385" data-name="Trazado 1043385" d="M732.267,652.69c-.33.14-.65.263-.964.375C731.618,652.954,731.938,652.83,732.267,652.69Z" transform="translate(-581.066 -489.36)" fill="#6997b2"/>
        <path id="Trazado_1043386" data-name="Trazado 1043386" d="M620.021,531.837q-1.072-.842-2.18-1.575c-3.8-4.338-15.021-7.955-30.089-9.936a26.583,26.583,0,0,1-3.14,7.171q11.926-.029,23.851,0c1.941,0,3.883.025,5.824.033a13.976,13.976,0,0,1,3.529,2.73l.061.044q-17.622-.085-35.245-.044a26.753,26.753,0,0,1-13.21,8.749q26.888.77,53.764,2.1l8.077.4q1.532,1.433,3.056,2.9-9.906-.473-19.81-.965-28.419-1.362-56.864-2.031c-3.661-.083-7.321-.147-10.982-.211.2,2.785.312,6.087.336,9.776l1.377.023c.855-2.223,1.843-3.533,2.833-3.475.958.056,1.763,1.386,2.351,3.563l1.1.018c.646-1.136,1.336-1.772,2.027-1.731.66.038,1.246.692,1.741,1.795l44.261.75,39.866.676c.944.966,1.854,1.905,2.716,2.8l-81.236-1.377a26.789,26.789,0,0,1,1.349,7.45q16.432.334,32.862.684,27.312.609,54.622,1.321c.443.483.7.761.7.761a3.055,3.055,0,0,1,.836,2.043c-4.05-.106-8.1-.225-12.15-.327q-38.372-.963-76.748-1.724c.027,1.574-.005,3.238-.105,4.959l-.11,1.884v.009a.037.037,0,0,1,0,.008l-.013.234c13.292-.1,26.583-.152,39.872-.088,15.726.077,31.4.7,47.063,2.015-.467.845-1,1.716-1.6,2.605-.59-.049-1.179-.1-1.768-.15-27.949-2.3-56.052-1.891-84.093-1.559a13.64,13.64,0,0,1-2.891,5.219l.057.05-5.846,6.239q26.31,1,52.609,2.275c2.329.114,4.657.242,6.987.36q-.2,1.391-.4,2.737-30.432-1.528-60.879-2.688l-.8-.028-9.232,9.853q27.857.749,55.715,1.491,6.871.18,13.743.356c-.163.938-.326,1.846-.488,2.734q-30.021-.783-60.044-1.582l-11.448-.309-7.067,7.541c21.1.445,42.2,1.258,63.295,1.836q6.876.187,13.754.328c-.2.969-.391,1.888-.575,2.745-20.052-.43-40.1-1.181-60.147-1.747q-9.43-.265-18.865-.452l-7.241,7.728c21.663-.032,43.321.491,64.966,1.342q9.759.383,19.516.846c-.141.568-.222.873-.222.873a2.824,2.824,0,0,1-.808,1.839c-18.932-.874-37.871-1.591-56.82-1.935-9.739-.177-19.477-.217-29.216-.207l-4.4,4.694c7.766,3.379,24.214,5.71,43.251,5.71,18.284,0,34.178-2.15,42.288-5.314,3.651-1.425,5.727-3.055,5.727-4.787h0a338.638,338.638,0,0,0,7.247-39.746q3.378,3.1,7.328,6.566,6.488.337,12.976.685a46.072,46.072,0,0,0,8.314-6.837c4.491-4.61,7.642-9.467,8.806-13.14a.018.018,0,0,0,0,0c.735-2.321.681-4.171-.349-5.175,0,0-1.568-1.73-4.108-4.436C642.843,552.734,629.563,539.006,620.021,531.837Z" transform="translate(-482.079 -427.938)" fill="#6997b2"/>
        <path id="Trazado_1043387" data-name="Trazado 1043387" d="M721.782,653.351c.908.733,2.341.818,4.111.348h0c.1-.027.214-.074.318-.1C724.735,653.514,723.259,653.428,721.782,653.351Z" transform="translate(-576.647 -489.667)" fill="#6997b2"/>
        <path id="Trazado_1043388" data-name="Trazado 1043388" d="M472.24,658.052h.025a39.371,39.371,0,0,1-12.827-6.12l-2.419,13.157a50.354,50.354,0,0,0,6.185,5.83l14.381-11.586c-1.594-.293-3.244-.671-4.931-1.154C472.514,658.138,472.38,658.093,472.24,658.052Z" transform="translate(-453.787 -489.009)" fill="#ed7b7d"/>
        <path id="Trazado_1043389" data-name="Trazado 1043389" d="M524.905,547.245a22.915,22.915,0,0,1,1.836-5.745,26.75,26.75,0,0,1-1.939-2.074q-18.983.226-37.962.595a29.7,29.7,0,0,0-4.157,5.731h0l0,.009c-.221.394-.414.816-.621,1.225,2.987-.012,5.974-.033,8.961-.033Q507.966,546.952,524.905,547.245Z" transform="translate(-465.405 -436.801)" fill="#6997b2"/>
        <path id="Trazado_1043390" data-name="Trazado 1043390" d="M526.2,520.048h0c0-.013.006-.024,0-.038a112.156,112.156,0,0,0-20.459,4.22,19.2,19.2,0,0,0-9,3.96q16.42-.315,32.842-.5A26.62,26.62,0,0,1,526.2,520.048Z" transform="translate(-472.222 -427.791)" fill="#6997b2"/>
        <path id="Trazado_1043391" data-name="Trazado 1043391" d="M471.523,654.032l6.687.18,12.419-10.005q-17.6-.532-35.207-.939c.068,1.426,1.256,3.043,3.274,4.644h0A39.386,39.386,0,0,0,471.523,654.032Z" transform="translate(-453.046 -484.988)" fill="#6997b2"/>
        <path id="Trazado_1043392" data-name="Trazado 1043392" d="M511.8,608.392a13.686,13.686,0,0,1-.053-2.085c0-.006,0-.013,0-.019l.007-.143q.167-2.877.376-5.64-22.83-.427-45.662-.788-1.23-.019-2.461-.035c-.891,3.195-1.713,6.307-2.438,9.149l17.6-.132Q495.485,608.577,511.8,608.392Z" transform="translate(-455.9 -464.762)" fill="#6997b2"/>
        <path id="Trazado_1043393" data-name="Trazado 1043393" d="M515.135,589.071c.215-2.558.453-5.014.71-7.342l-46.075-.78c-.761,2.4-1.5,4.853-2.2,7.3q3.857.056,7.711.12Q495.208,588.687,515.135,589.071Z" transform="translate(-458.682 -456.069)" fill="#6997b2"/>
        <path id="Trazado_1043394" data-name="Trazado 1043394" d="M518.84,568.621c.45-3.683.945-6.975,1.464-9.747q-21.777-.328-43.557-.226c-.03.076-.061.153-.09.229-1.121,2.654-2.24,5.718-3.323,8.973l4.838.083Z" transform="translate(-461.357 -445.709)" fill="#6997b2"/>
        <path id="Trazado_1043395" data-name="Trazado 1043395" d="M494.355,631.335l12.551-10.111-48.437.361c-.939,3.771-1.661,6.849-2.086,8.707q13.033.3,26.064.672C486.416,631.078,490.385,631.212,494.355,631.335Z" transform="translate(-453.491 -474.759)" fill="#6997b2"/>
        <path id="Trazado_1043396" data-name="Trazado 1043396" d="M584.823,490.894a18.149,18.149,0,0,1-8.347-3.516l-2.262,12.29c4.939.7,10.17-2.292,13.169-6.166a14.49,14.49,0,0,0,1.528-2.476A18.272,18.272,0,0,1,584.823,490.894Z" transform="translate(-508.17 -412.648)" fill="#ed7b7d"/>
        <path id="Trazado_1043397" data-name="Trazado 1043397" d="M552.3,432.712l.01-.009.224,6.164c.006.216.009.432.024.646l.009.248.017,0a18.254,18.254,0,0,0,7.1,13.029l-2.99,16.242c-2.575.274-5.087.579-7.521.848l0,0a21.918,21.918,0,0,0,4.571,8.045,22.183,22.183,0,0,0,2.9,2.709,23.747,23.747,0,0,0,14.694,4.947,23.07,23.07,0,0,0,14.549-5.152,23.125,23.125,0,0,0,7.362-10.422c.026-.075.059-.146.085-.221-2.86-.387-5.846-.705-8.93-.952l-2.871-15.851a18.182,18.182,0,0,0,6.529-9.054l.021,0,1.926-5.622,0,0c2.3,3.1,7.783,2.93,12.25-.382s6.227-8.509,3.929-11.609-7.735-2.93-12.193.342l.128-.374c-.064.138-.118.274-.185.413a21.182,21.182,0,0,1-5.854-12.551,8.831,8.831,0,0,1-1.539.209v0c-8.4,1.7-18.743.287-26.782-1.47a21.743,21.743,0,0,1-7.9,7.552c-.005-.034-.008-.066-.013-.1v.037a11.517,11.517,0,0,0-7.694-4.828,5.5,5.5,0,0,0-3.859.97c-2.592,1.922-2.889,6.07-.983,9.991a14.252,14.252,0,0,0,1.365,2.259C544,433.251,549.2,435.01,552.3,432.712Zm43.236-4.236A9.516,9.516,0,0,1,601,426.464a4.027,4.027,0,0,1,3.359,1.461,3.5,3.5,0,0,1,.66,2.12,5.67,5.67,0,0,1-.486,2.2h0a.275.275,0,1,1-.507-.215,5.121,5.121,0,0,0,.442-1.98,2.944,2.944,0,0,0-.552-1.792A3.478,3.478,0,0,0,601,427.016a7,7,0,0,0-1.652.238,9.112,9.112,0,0,1,.941,4.228,13.134,13.134,0,0,1-1.3,5.534.275.275,0,1,1-.5-.231,12.582,12.582,0,0,0,1.251-5.3,8.523,8.523,0,0,0-.905-4.024l-.03-.053a10.114,10.114,0,0,0-2.943,1.514c-2.245,1.659-3.538,3.934-3.531,5.724a2.949,2.949,0,0,0,.552,1.791.275.275,0,0,1-.442.327,3.5,3.5,0,0,1-.66-2.119C591.784,432.6,593.184,430.221,595.532,428.476ZM570.62,458.941c-3,3.874-8.23,6.862-13.169,6.166l2.262-12.29a18.085,18.085,0,0,0,12.434,3.648A14.454,14.454,0,0,1,570.62,458.941Zm-7.725-31.41c.1-.9.58-1.591,1.077-1.538s.821.83.724,1.732-.58,1.592-1.078,1.539S562.8,428.434,562.895,427.531Zm17.4,2.792c-.192.888-.745,1.52-1.234,1.414s-.729-.912-.536-1.8.745-1.521,1.234-1.414S580.484,429.436,580.291,430.323Zm-4.021-6.258c.5-1.333,3.047-1.614,5.7-.628s4.4,2.865,3.907,4.2-2.281-.565-4.933-1.551S575.775,425.4,576.271,424.065Zm1,21.495a2.395,2.395,0,1,1-2.337-2.918A2.676,2.676,0,0,1,577.273,445.56Zm-7.921-11.151a.275.275,0,0,1,.495.242s-.208.423-.416.943a4.952,4.952,0,0,0-.4,1.452l.015.107a2.415,2.415,0,0,0,.927-.57l.252-.051.184.18s.025.078.071.2.114.3.2.48a2.315,2.315,0,0,0,.555.848l.065.029.036-.019.131-.17A3.937,3.937,0,0,0,571.8,437l.174-.2.264.041.093.067.245.153a1.393,1.393,0,0,0,.583.207l.135-.05a.625.625,0,0,0,.082-.382,7.088,7.088,0,0,0-.558-2.207.275.275,0,0,1,.516-.192,7.517,7.517,0,0,1,.592,2.4,1.133,1.133,0,0,1-.2.728.7.7,0,0,1-.563.255,1.856,1.856,0,0,1-.854-.278c-.025-.013-.038-.024-.061-.038a2.2,2.2,0,0,1-.582,1.188.605.605,0,0,1-.374.134.868.868,0,0,1-.639-.374,3.423,3.423,0,0,1-.4-.656c-.1-.2-.176-.39-.237-.55a1.883,1.883,0,0,1-.993.467.51.51,0,0,1-.44-.233.783.783,0,0,1-.1-.429,5.266,5.266,0,0,1,.444-1.657c.217-.544.431-.98.433-.984Zm-5.558-13.438c2.83,0,5.125,1.152,5.125,2.573s-2.336.265-5.166.265-5.084,1.158-5.084-.265S560.965,420.971,563.795,420.971Zm-23.318,1.947a.275.275,0,0,1-.3-.244,6.7,6.7,0,0,1-.039-.718,4.024,4.024,0,0,1,1.461-3.36,3.5,3.5,0,0,1,2.119-.66c2.046.007,4.422,1.406,6.167,3.754a9.522,9.522,0,0,1,2.01,5.468,4.029,4.029,0,0,1-1.46,3.36.275.275,0,1,1-.328-.442,3.482,3.482,0,0,0,1.237-2.917,8.979,8.979,0,0,0-1.9-5.14,10.12,10.12,0,0,0-2.37-2.311l-.022.02-.078.075c-.068.069-.167.174-.287.315a8.068,8.068,0,0,0-.888,1.3,10.878,10.878,0,0,0-1.3,5.353,14.561,14.561,0,0,0,.144,2.011.276.276,0,1,1-.546.076,15.123,15.123,0,0,1-.148-2.086,10.332,10.332,0,0,1,2.658-7.375,5.749,5.749,0,0,0-2.886-.908,2.948,2.948,0,0,0-1.791.552,3.481,3.481,0,0,0-1.238,2.918,6.189,6.189,0,0,0,.036.659h0A.276.276,0,0,1,540.476,422.917Z" transform="translate(-491.407 -378.089)" fill="#f7b7aa"/>
        <path id="Trazado_1043398" data-name="Trazado 1043398" d="M542.489,426.971a6.2,6.2,0,0,1-.036-.659,3.482,3.482,0,0,1,1.238-2.918,2.947,2.947,0,0,1,1.791-.552,5.75,5.75,0,0,1,2.886.908,10.332,10.332,0,0,0-2.658,7.375,15.129,15.129,0,0,0,.148,2.086.276.276,0,0,0,.546-.076,14.556,14.556,0,0,1-.144-2.011,10.877,10.877,0,0,1,1.3-5.353,8.135,8.135,0,0,1,.888-1.3c.12-.141.219-.247.287-.315l.078-.075.022-.02a10.1,10.1,0,0,1,2.37,2.311,8.98,8.98,0,0,1,1.9,5.14,3.482,3.482,0,0,1-1.238,2.917.275.275,0,1,0,.328.442,4.028,4.028,0,0,0,1.46-3.36,9.522,9.522,0,0,0-2.01-5.468c-1.746-2.349-4.121-3.748-6.167-3.754a3.5,3.5,0,0,0-2.119.66,4.024,4.024,0,0,0-1.461,3.36,6.686,6.686,0,0,0,.039.718.275.275,0,0,0,.548-.058Z" transform="translate(-493.176 -382.446)" fill="#74160d"/>
        <path id="Trazado_1043399" data-name="Trazado 1043399" d="M639.306,448.561a.275.275,0,0,0,.057-.385,2.95,2.95,0,0,1-.552-1.791c-.007-1.79,1.286-4.065,3.531-5.724a10.118,10.118,0,0,1,2.943-1.514l.03.052a8.536,8.536,0,0,1,.905,4.024,12.572,12.572,0,0,1-1.251,5.3.275.275,0,1,0,.5.231,13.127,13.127,0,0,0,1.3-5.534A9.111,9.111,0,0,0,645.83,439a7,7,0,0,1,1.652-.238A3.48,3.48,0,0,1,650.4,440a2.943,2.943,0,0,1,.552,1.792,5.122,5.122,0,0,1-.442,1.98.275.275,0,1,0,.507.215h0a5.678,5.678,0,0,0,.486-2.2,3.5,3.5,0,0,0-.66-2.12,4.026,4.026,0,0,0-3.359-1.46,9.516,9.516,0,0,0-5.468,2.011c-2.348,1.745-3.747,4.12-3.754,6.166a3.5,3.5,0,0,0,.66,2.119A.275.275,0,0,0,639.306,448.561Z" transform="translate(-537.89 -389.831)" fill="#74160d"/>
        <path id="Trazado_1043400" data-name="Trazado 1043400" d="M586.156,439.058c.1-.9-.227-1.678-.724-1.732s-.979.635-1.077,1.538.226,1.679.723,1.733S586.058,439.961,586.156,439.058Z" transform="translate(-512.868 -389.421)" fill="#74160d"/>
        <path id="Trazado_1043401" data-name="Trazado 1043401" d="M581.572,430.794c2.83,0,5.166,1.158,5.166-.265s-2.294-2.573-5.125-2.573-5.124,1.152-5.124,2.573S578.742,430.794,581.572,430.794Z" transform="translate(-509.226 -385.075)" fill="#383851"/>
        <path id="Trazado_1043402" data-name="Trazado 1043402" d="M614.7,442.039c-.489-.107-1.041.527-1.234,1.414s.047,1.694.536,1.8,1.041-.527,1.234-1.414S615.192,442.146,614.7,442.039Z" transform="translate(-526.355 -391.604)" fill="#74160d"/>
        <path id="Trazado_1043403" data-name="Trazado 1043403" d="M613.947,434.694c2.653.986,4.439,2.884,4.933,1.551s-1.254-3.212-3.907-4.2-5.205-.7-5.7.628S611.293,433.709,613.947,434.694Z" transform="translate(-524.41 -386.7)" fill="#383851"/>
        <path id="Trazado_1043404" data-name="Trazado 1043404" d="M594.784,455.531a.782.782,0,0,0,.1.429.509.509,0,0,0,.439.233,1.877,1.877,0,0,0,.993-.467c.062.16.14.35.237.55a3.355,3.355,0,0,0,.4.656.866.866,0,0,0,.639.374.608.608,0,0,0,.374-.134,2.2,2.2,0,0,0,.582-1.188c.023.013.036.024.061.038a1.856,1.856,0,0,0,.854.278.7.7,0,0,0,.563-.255,1.133,1.133,0,0,0,.2-.728,7.517,7.517,0,0,0-.592-2.4.275.275,0,1,0-.516.192,7.089,7.089,0,0,1,.558,2.207.623.623,0,0,1-.082.382l-.135.05a1.385,1.385,0,0,1-.583-.207l-.245-.153-.093-.067-.264-.041-.174.2a3.974,3.974,0,0,1-.345,1.082l-.131.17-.036.019-.065-.029a2.31,2.31,0,0,1-.555-.848c-.081-.181-.148-.353-.2-.48s-.071-.2-.071-.2l-.184-.18-.252.051a2.419,2.419,0,0,1-.927.57l-.015-.107a4.976,4.976,0,0,1,.4-1.452c.208-.519.416-.942.416-.943a.275.275,0,0,0-.495-.242h0s-.217.44-.433.981A5.286,5.286,0,0,0,594.784,455.531Z" transform="translate(-517.715 -396.573)" fill="#74160d"/>
        <path id="Trazado_1043405" data-name="Trazado 1043405" d="M602.479,471.308a2.394,2.394,0,1,0,2.336-2.918A2.676,2.676,0,0,0,602.479,471.308Z" transform="translate(-521.286 -403.837)" fill="#74160d"/>
        <path id="Trazado_1043406" data-name="Trazado 1043406" d="M514.836,954.125h5.034l-5.034-61.659Z" transform="translate(-480.616 -600.626)" fill="#1f1e34"/>
        <path id="Trazado_1043407" data-name="Trazado 1043407" d="M563.549,534.234q-2.165.024-4.331.048a26.24,26.24,0,0,0,2.106,2.725c1.709-.02,3.418-.047,5.126-.064A22.153,22.153,0,0,1,563.549,534.234Z" transform="translate(-501.211 -434.392)" fill="#a5c3d3"/>
        <path id="Trazado_1043408" data-name="Trazado 1043408" d="M634.683,533.7c-1.5,0-3.008.014-4.512.019a23.383,23.383,0,0,1-2.9,2.769q2.673-.01,5.346-.02A26.228,26.228,0,0,0,634.683,533.7Z" transform="translate(-532.792 -434.146)" fill="#a5c3d3"/>
        <path id="Trazado_1043409" data-name="Trazado 1043409" d="M673.849,536.5l-.061-.044a13.97,13.97,0,0,0-3.529-2.73c-1.942-.009-3.884-.028-5.824-.033q-11.926-.034-23.851,0a26.774,26.774,0,0,1-1.98,2.765Q656.226,536.414,673.849,536.5Z" transform="translate(-538.049 -434.133)" fill="#a5c3d3"/>
        <path id="Trazado_1043410" data-name="Trazado 1043410" d="M526.9,534.337q-16.422.2-32.842.5h-.02c-.126.1-.245.211-.37.311q-.415.332-.819.688t-.788.722q-.358.341-.706.7c-.133.137-.273.26-.405.4h.018q18.979-.376,37.962-.595A26.808,26.808,0,0,1,526.9,534.337Z" transform="translate(-469.531 -434.439)" fill="#a5c3d3"/>
        <path id="Trazado_1043411" data-name="Trazado 1043411" d="M594.073,555.406a26.262,26.262,0,0,0,5.476-.6q-6.141-.171-12.284-.3A26.213,26.213,0,0,0,594.073,555.406Z" transform="translate(-514.226 -443.798)" fill="#a5c3d3"/>
        <path id="Trazado_1043412" data-name="Trazado 1043412" d="M639.129,559.149q9.905.476,19.81.965-1.52-1.463-3.055-2.9-4.038-.2-8.077-.4-26.876-1.322-53.764-2.1a26.663,26.663,0,0,1-16.353-.414q-3.323-.072-6.645-.129c.089.842.168,1.758.237,2.733,3.661.064,7.322.128,10.982.211Q610.709,557.766,639.129,559.149Z" transform="translate(-506.7 -443.645)" fill="#a5c3d3"/>
        <path id="Trazado_1043413" data-name="Trazado 1043413" d="M523.8,553.761q-16.941-.277-33.888-.293c-2.987,0-5.974.021-8.961.033h-.031c-.2.389-.384.784-.569,1.183-.129.28-.25.568-.372.854-.041.095-.081.189-.121.285-.06.145-.126.285-.184.432h.014q21.779-.1,43.557.226Q523.519,555.022,523.8,553.761Z" transform="translate(-464.299 -443.317)" fill="#a5c3d3"/>
        <path id="Trazado_1043414" data-name="Trazado 1043414" d="M584.664,579.031a.263.263,0,0,1,.162,0l0,0a11.881,11.881,0,0,1,.626-1.293l-1.1-.018C584.467,578.13,584.57,578.565,584.664,579.031Z" transform="translate(-512.877 -454.572)" fill="#a5c3d3"/>
        <path id="Trazado_1043415" data-name="Trazado 1043415" d="M572.116,580.266l.509.009a26.121,26.121,0,0,1,.867-2.739l-1.377-.023Q572.123,578.859,572.116,580.266Z" transform="translate(-507.195 -454.475)" fill="#a5c3d3"/>
        <path id="Trazado_1043416" data-name="Trazado 1043416" d="M677.562,579.3l-39.866-.676-44.261-.75a14.2,14.2,0,0,1,.852,2.768l.617.01c.7-1.374,1.465-2.147,2.23-2.1.734.043,1.382.828,1.909,2.173l81.236,1.377C679.416,581.2,678.506,580.266,677.562,579.3Z" transform="translate(-517.089 -454.642)" fill="#a5c3d3"/>
        <path id="Trazado_1043417" data-name="Trazado 1043417" d="M518.05,576.61l-40.669-.689-4.838-.083h-.02q-.45,1.353-.892,2.739h.024l46.075.78Q517.886,577.952,518.05,576.61Z" transform="translate(-460.568 -453.698)" fill="#a5c3d3"/>
        <path id="Trazado_1043418" data-name="Trazado 1043418" d="M695.428,601.9a3.055,3.055,0,0,0-.836-2.043s-.252-.277-.7-.761q-27.311-.705-54.622-1.321-16.43-.368-32.862-.684c.059.882.1,1.8.117,2.758q38.376.78,76.748,1.724C687.328,601.673,691.377,601.793,695.428,601.9Z" transform="translate(-523.112 -463.559)" fill="#a5c3d3"/>
        <path id="Trazado_1043419" data-name="Trazado 1043419" d="M514.226,598.129q.1-1.389.219-2.74-19.927-.371-39.857-.706-3.854-.063-7.711-.12h-.022q-.4,1.378-.776,2.743h.022q1.23.017,2.461.035Q491.4,597.691,514.226,598.129Z" transform="translate(-457.991 -462.387)" fill="#a5c3d3"/>
        <path id="Trazado_1043420" data-name="Trazado 1043420" d="M689.31,619.751c.59.049,1.179.1,1.768.15.6-.889,1.135-1.761,1.6-2.605-15.666-1.311-31.337-1.938-47.063-2.015-13.289-.064-26.58-.011-39.872.088l0,.027-.013,0a13.74,13.74,0,0,1-.513,2.8C633.258,617.86,661.36,617.451,689.31,619.751Z" transform="translate(-522.557 -471.987)" fill="#a5c3d3"/>
        <path id="Trazado_1043421" data-name="Trazado 1043421" d="M511.26,616.7c-.038-.252-.056-.51-.08-.766q-16.316.166-32.63.305l-17.6.132h-.022q-.366,1.43-.7,2.758h.022l48.437-.361Z" transform="translate(-455.278 -472.304)" fill="#a5c3d3"/>
        <path id="Trazado_1043422" data-name="Trazado 1043422" d="M646.064,647.58q.2-1.347.4-2.737c-2.329-.117-4.658-.245-6.987-.36q-26.3-1.283-52.609-2.275l-2.486,2.654.8.028Q615.633,646.037,646.064,647.58Z" transform="translate(-512.889 -484.496)" fill="#a5c3d3"/>
        <path id="Trazado_1043423" data-name="Trazado 1043423" d="M493.885,639.185c-3.969-.123-7.939-.257-11.909-.371q-13.031-.372-26.064-.672h-.023c-.282,1.233-.436,1.932-.436,1.932a2.528,2.528,0,0,0-.079.816h.023q17.605.408,35.207.939Z" transform="translate(-453.022 -482.609)" fill="#a5c3d3"/>
        <path id="Trazado_1043424" data-name="Trazado 1043424" d="M718.626,650.692l.181.132.025,0c1.477.078,2.953.163,4.429.243l.032,0c.207-.062.427-.148.642-.224.314-.112.634-.235.964-.375.3-.126.593-.251.9-.4.258-.124.524-.27.789-.41.229-.122.458-.242.692-.376.294-.168.593-.346.893-.531.09-.056.177-.1.267-.159h-.015q-6.487-.355-12.976-.685h-.026C716.464,648.818,717.525,649.743,718.626,650.692Z" transform="translate(-573.698 -487.141)" fill="#a5c3d3"/>
        <path id="Trazado_1043425" data-name="Trazado 1043425" d="M633.945,670.125c.162-.888.324-1.8.488-2.734q-6.871-.179-13.743-.356-27.858-.734-55.715-1.491l-2.521,2.69,11.448.309Q603.923,669.35,633.945,670.125Z" transform="translate(-502.712 -495.325)" fill="#a5c3d3"/>
        <path id="Trazado_1043426" data-name="Trazado 1043426" d="M485.418,663.35c.14.041.274.086.415.127,1.687.483,3.337.862,4.931,1.154l1.366-1.1-6.687-.18Z" transform="translate(-466.965 -494.307)" fill="#a5c3d3"/>
        <path id="Trazado_1043427" data-name="Trazado 1043427" d="M623.544,689.543c.183-.856.376-1.776.575-2.745q-6.878-.145-13.754-.328c-21.1-.578-42.193-1.391-63.295-1.836l-2.539,2.709q9.434.182,18.865.452C583.446,688.362,603.492,689.113,623.544,689.543Z" transform="translate(-494.396 -504.184)" fill="#a5c3d3"/>
        <path id="Trazado_1043428" data-name="Trazado 1043428" d="M612.238,709.007a2.825,2.825,0,0,0,.808-1.839s.08-.3.222-.872q-9.757-.452-19.516-.846c-21.646-.851-43.3-1.374-64.966-1.342l-2.583,2.757c9.739-.01,19.477.03,29.216.207C574.367,707.415,593.306,708.133,612.238,709.007Z" transform="translate(-485.891 -513.219)" fill="#a5c3d3"/>
        <line id="Línea_1380" data-name="Línea 1380" transform="translate(53.976 92.256)" fill="none" stroke="#74160d" stroke-linecap="round" stroke-linejoin="round" stroke-width="0"/>
        <path id="Trazado_1043429" data-name="Trazado 1043429" d="M555.087,527.422a27.866,27.866,0,0,0,3.969,4.8,3.522,3.522,0,0,1,.311-.467q-.8-.774-1.534-1.616a25.518,25.518,0,0,1-5.592-10.46c0-.014-.009-.026-.012-.04a.276.276,0,0,0-.337-.2.269.269,0,0,0-.191.3c0,.013-.009.025,0,.038A26.609,26.609,0,0,0,555.087,527.422Z" transform="translate(-497.72 -427.524)" fill="#74160d"/>
        <path id="Trazado_1043430" data-name="Trazado 1043430" d="M585.891,539.608a26.835,26.835,0,0,0,25.827-19.771c.02-.074.048-.144.066-.218a.276.276,0,0,0-.533-.139c-.025.1-.061.188-.087.284A26.195,26.195,0,0,1,569.633,533.4c.069.259.136.536.2.839a26.5,26.5,0,0,0,16.058,5.371Z" transform="translate(-506.044 -427.45)" fill="#74160d"/>
        <path id="Trazado_1043431" data-name="Trazado 1043431" d="M491.3,631.485l2.583-2.757L501.124,621l2.539-2.709,7.067-7.542,2.521-2.69,9.232-9.853,2.486-2.654,5.846-6.239-.057-.05a13.663,13.663,0,0,0,3.4-8.02l.013,0,0-.027.013-.234a.046.046,0,0,0,0-.008v-.009l.11-1.884c.1-1.721.132-3.385.105-4.959-.017-.958-.057-1.876-.117-2.758a26.783,26.783,0,0,0-1.348-7.45c-.527-1.345-1.174-2.13-1.909-2.173-.764-.044-1.527.729-2.229,2.1-.027.054-.054.114-.081.169a.261.261,0,0,1,.03.3l0,0-.017.03-.07.147a6.95,6.95,0,0,0-.263.706,22.912,22.912,0,0,0-.765,3.56.276.276,0,0,1-.545-.081,15.663,15.663,0,0,1,1.152-4.581c-.018-.088-.037-.174-.056-.261a14.2,14.2,0,0,0-.852-2.768c-.5-1.1-1.082-1.757-1.741-1.795-.691-.04-1.381.6-2.027,1.731a11.888,11.888,0,0,0-.626,1.293.275.275,0,0,1,.145.36s-.068.16-.18.46-.268.74-.44,1.289a29.343,29.343,0,0,0-1.014,4.388.275.275,0,1,1-.544-.081,28.687,28.687,0,0,1,1.67-6.271h0a.26.26,0,0,1,.2-.148c-.094-.466-.2-.9-.307-1.309-.587-2.177-1.393-3.507-2.351-3.563-.989-.058-1.977,1.251-2.833,3.475a25.874,25.874,0,0,0-.867,2.739q-.285,1.09-.532,2.324.017-1.185.023-2.333.007-1.41,0-2.753c-.024-3.689-.138-6.992-.336-9.776-.069-.975-.147-1.891-.237-2.733-.155-1.469-.341-2.725-.556-3.74-.064-.3-.131-.58-.2-.839-.357-1.342-.779-2.094-1.263-2.122a.878.878,0,0,0-.68.405,3.474,3.474,0,0,0-.311.467,22.94,22.94,0,0,0-1.836,5.745q-.281,1.259-.554,2.721c-.519,2.772-1.014,6.064-1.464,9.747q-.163,1.34-.319,2.748c-.257,2.328-.5,4.785-.71,7.342-.076.9-.149,1.814-.219,2.74-.138,1.839-.264,3.722-.376,5.64l-.008.143c0,.006,0,.012,0,.019a13.824,13.824,0,0,0,.053,2.085c.024.257.042.515.08.766L504.4,584.3,491.85,594.414l-3.281,2.643-12.419,10.005-1.366,1.1L460.4,619.748a50.427,50.427,0,0,1-6.185-5.83l2.419-13.157h0c-3.519,17.71-5.57,33.64-5.607,37.141a11.075,11.075,0,0,0,.005,1.973v.049l0-.012c.51,5.23,4.64,10.036,10.622,11.681,5.963,1.64,11.947-.359,15.068-4.563l3.4-3.625,6.773-7.228Zm22-88.478c.638.037,1.073,1.472.972,3.205a7.967,7.967,0,0,1-.165,1.225c-.71-.067-1.418-.133-2.129-.182a8.121,8.121,0,0,1-.017-1.178C512.063,544.344,512.662,542.969,513.3,543.007Z" transform="translate(-450.988 -437.84)" fill="#f7b7aa"/>
        <path id="Trazado_1043432" data-name="Trazado 1043432" d="M583.31,580.153a.259.259,0,0,0-.2.148h0a28.689,28.689,0,0,0-1.67,6.271.275.275,0,0,0,.545.081A29.354,29.354,0,0,1,583,582.264c.172-.549.328-.988.44-1.289s.18-.46.18-.46a.275.275,0,0,0-.145-.36s0,0,0,0A.267.267,0,0,0,583.31,580.153Z" transform="translate(-511.522 -455.694)" fill="#74160d"/>
        <path id="Trazado_1043433" data-name="Trazado 1043433" d="M594.169,583.275h0c0,.006-.019.032-.041.075a15.641,15.641,0,0,0-1.152,4.581.276.276,0,0,0,.545.081,22.956,22.956,0,0,1,.765-3.56,6.772,6.772,0,0,1,.263-.706l.07-.147.017-.03,0,0a.26.26,0,0,0-.03-.3c-.02-.027-.028-.063-.059-.081A.273.273,0,0,0,594.169,583.275Z" transform="translate(-516.875 -457.088)" fill="#74160d"/>
        <path id="Trazado_1043434" data-name="Trazado 1043434" d="M566.888,548.6a8.042,8.042,0,0,0,.165-1.225c.1-1.733-.334-3.167-.972-3.205s-1.237,1.338-1.338,3.07a8.13,8.13,0,0,0,.017,1.178C565.47,548.465,566.179,548.532,566.888,548.6Z" transform="translate(-503.768 -439.001)" fill="#fbd7d2"/>
      </g>
    </g>
  </g>
</svg>
