<svg xmlns="http://www.w3.org/2000/svg" xmlns:xlink="http://www.w3.org/1999/xlink" width="93.934" height="93.934" viewBox="0 0 93.934 93.934">
  <defs>
    <filter id="Trazado_982547" x="0" y="0" width="93.934" height="93.934" filterUnits="userSpaceOnUse">
      <feOffset dy="3" input="SourceAlpha"/>
      <feGaussianBlur stdDeviation="3" result="blur"/>
      <feFlood flood-opacity="0.161"/>
      <feComposite operator="in" in2="blur"/>
      <feComposite in="SourceGraphic"/>
    </filter>
  </defs>
  <g id="Grupo_1182619" data-name="Grupo 1182619" transform="translate(-1010.033 -1511)">
    <g id="Grupo_1182310" data-name="Grupo 1182310" transform="translate(821 -269)">
      <g id="Grupo_1176309" data-name="Grupo 1176309" transform="translate(0 -206)">
        <g id="Grupo_1172970" data-name="Grupo 1172970" transform="translate(-1 -9042)">
          <g id="Grupo_1171971" data-name="Grupo 1171971" transform="translate(199.033 11034)">
            <g id="Grupo_1167337" data-name="Grupo 1167337" transform="translate(0)">
              <g id="Grupo_1166720" data-name="Grupo 1166720">
                <g id="Grupo_1164305" data-name="Grupo 1164305">
                  <g id="Grupo_1163948" data-name="Grupo 1163948">
                    <g id="Grupo_1158168" data-name="Grupo 1158168">
                      <g id="Grupo_1152576" data-name="Grupo 1152576">
                        <g id="Grupo_1148633" data-name="Grupo 1148633">
                          <g id="Grupo_1148525" data-name="Grupo 1148525">
                            <g transform="matrix(1, 0, 0, 1, -9, -6)" filter="url(#Trazado_982547)">
                              <g id="Trazado_982547-2" data-name="Trazado 982547" transform="translate(9 6)" fill="#f2f7f5">
                                <path d="M 37.966796875 74.43359375 C 33.04315185546875 74.43359375 28.26757431030273 73.46962738037109 23.77274131774902 71.56847381591797 C 19.43047523498535 69.73184967041016 15.53040790557861 67.10224914550781 12.18087482452393 63.75271987915039 C 8.831341743469238 60.4031867980957 6.201741218566895 56.50312042236328 4.365118980407715 52.16086196899414 C 2.463963508605957 47.66601943969727 1.499996900558472 42.89044189453125 1.499996900558472 37.966796875 C 1.499996900558472 33.04315185546875 2.463963508605957 28.26757431030273 4.365118980407715 23.77274131774902 C 6.201741218566895 19.43047523498535 8.831341743469238 15.53040790557861 12.18087482452393 12.18087482452393 C 15.53040790557861 8.831341743469238 19.43047523498535 6.201741218566895 23.77274131774902 4.365118980407715 C 28.26757431030273 2.463963508605957 33.04315185546875 1.499996900558472 37.966796875 1.499996900558472 C 42.89044189453125 1.499996900558472 47.66601943969727 2.463963508605957 52.16086196899414 4.365118980407715 C 56.50312042236328 6.201741218566895 60.4031867980957 8.831341743469238 63.75271987915039 12.18087482452393 C 67.10224914550781 15.53040790557861 69.73184967041016 19.43047523498535 71.56847381591797 23.77274131774902 C 73.46962738037109 28.26757431030273 74.43359375 33.04315185546875 74.43359375 37.966796875 C 74.43359375 42.89044189453125 73.46962738037109 47.66601943969727 71.56847381591797 52.16086196899414 C 69.73184967041016 56.50313186645508 67.10224914550781 60.4031867980957 63.75271987915039 63.75271987915039 C 60.4031867980957 67.10224914550781 56.50313186645508 69.73184967041016 52.16086196899414 71.56847381591797 C 47.66601943969727 73.46962738037109 42.89044189453125 74.43359375 37.966796875 74.43359375 Z" stroke="none"/>
                                <path d="M 37.966796875 3 C 33.2449836730957 3 28.66600799560547 3.924095153808594 24.35705947875977 5.746635437011719 C 20.19359588623047 7.507637023925781 16.45379638671875 10.02928161621094 13.24153518676758 13.24153518676758 C 10.02927398681641 16.45379638671875 7.507621765136719 20.19359588623047 5.746635437011719 24.35705947875977 C 3.924095153808594 28.66600799560547 3 33.2449836730957 3 37.966796875 C 3 42.6886100769043 3.924095153808594 47.26758575439453 5.746635437011719 51.57653427124023 C 7.507621765136719 55.73999786376953 10.02927398681641 59.47979736328125 13.24153518676758 62.69205856323242 C 16.45379638671875 65.90431976318359 20.19359588623047 68.42597198486328 24.35705947875977 70.18695831298828 C 28.66600799560547 72.00949859619141 33.2449836730957 72.93359375 37.966796875 72.93359375 C 42.6886100769043 72.93359375 47.26758575439453 72.00949859619141 51.57653427124023 70.18695831298828 C 55.73999786376953 68.42597198486328 59.47979736328125 65.90431976318359 62.69205856323242 62.69205856323242 C 65.90431976318359 59.47979736328125 68.42597198486328 55.73999786376953 70.18695831298828 51.57653427124023 C 72.00949859619141 47.26758575439453 72.93359375 42.6886100769043 72.93359375 37.966796875 C 72.93359375 33.2449836730957 72.00949859619141 28.66600799560547 70.18695831298828 24.35705947875977 C 68.42597198486328 20.19359588623047 65.90431976318359 16.45379638671875 62.69205856323242 13.24153518676758 C 59.47979736328125 10.02928161621094 55.73999786376953 7.507637023925781 51.57653427124023 5.746635437011719 C 47.26758575439453 3.924095153808594 42.6886100769043 3 37.966796875 3 M 37.966796875 0 C 58.93528366088867 0 75.93359375 16.99832153320312 75.93359375 37.966796875 C 75.93359375 58.93528366088867 58.93528366088867 75.93359375 37.966796875 75.93359375 C 16.99831008911133 75.93359375 0 58.93528366088867 0 37.966796875 C 0 16.99832153320312 16.99831008911133 0 37.966796875 0 Z" stroke="none" fill="#4a665c"/>
                              </g>
                            </g>
                          </g>
                        </g>
                      </g>
                    </g>
                  </g>
                </g>
              </g>
            </g>
          </g>
        </g>
      </g>
    </g>
    <g id="estrategico" transform="translate(1030.891 1528.856)">
      <path id="Trazado_1043155" data-name="Trazado 1043155" d="M31.159,41.889a19.291,19.291,0,0,1-4.05,1.145v2.7h-6.48v-2.7a19.321,19.321,0,0,1-8.019-3.321L10.7,41.623,6.115,37.041l1.913-1.914a19.321,19.321,0,0,1-3.321-8.019H2v-6.48H4.7A19.321,19.321,0,0,1,8.024,12.61L6.115,10.7,10.7,6.115,12.61,8.028a19.321,19.321,0,0,1,8.019-3.321V2h6.48V4.7a19.321,19.321,0,0,1,8.019,3.321l1.914-1.91L41.623,10.7,39.71,12.61q.27.379.522.771h0a11.582,11.582,0,0,0-1.549-.027,11.155,11.155,0,0,0-4.617,1.259h0a13.769,13.769,0,1,0-2.025,20.347h0a12.253,12.253,0,0,1,.737,4.166v.13a1.62,1.62,0,0,0-1.62,1.62Z" transform="translate(-0.19 -0.19)" fill="#939393"/>
      <path id="Trazado_1043156" data-name="Trazado 1043156" d="M32.937,34.191A9.72,9.72,0,1,1,33.7,19.954h0a11.281,11.281,0,0,0-.752,14.25Z" transform="translate(-3.041 -3.041)" fill="#559b2d"/>
      <path id="Trazado_1043157" data-name="Trazado 1043157" d="M31.91,29.062l-4.86,4.86L23,29.872l1.62-1.62,2.43,2.43,5.573-5.573.017-.045a11.054,11.054,0,0,0-.687,3Q31.91,28.569,31.91,29.062Z" transform="translate(-4.181 -4.573)" fill="#f2f2f2"/>
      <path id="Trazado_1043158" data-name="Trazado 1043158" d="M51.819,41.919v-.133a13.032,13.032,0,0,1,2.649-7.727,11.34,11.34,0,1,0-18.291-.045,13.213,13.213,0,0,1,2.683,7.775v.13" transform="translate(-6.271 -2.851)" fill="#f9d266"/>
      <rect id="Rectángulo_415827" data-name="Rectángulo 415827" width="16.199" height="4.86" rx="2" transform="translate(30.969 39.068)" fill="#f4a93c"/>
      <path id="Trazado_1043159" data-name="Trazado 1043159" d="M40,54v1.62a1.62,1.62,0,0,0,1.62,1.62h9.72a1.62,1.62,0,0,0,1.62-1.62V54" transform="translate(-7.412 -10.072)" fill="#474747"/>
      <path id="Trazado_1043160" data-name="Trazado 1043160" d="M44,58h0a3.24,3.24,0,0,0,3.24,3.24h0A3.24,3.24,0,0,0,50.48,58h0" transform="translate(-8.172 -10.832)" fill="#ccc"/>
      <path id="Trazado_1043161" data-name="Trazado 1043161" d="M49.1,45.72H47.48V40.86H45.86v4.86H44.24V40.86h-.81a2.43,2.43,0,1,1,2.43-2.43v.81h1.62v-.81a2.43,2.43,0,1,1,2.43,2.43H49.1Zm0-6.48h.81a.81.81,0,1,0-.81-.81Zm-5.67-1.62a.81.81,0,0,0,0,1.62h.81v-.81A.81.81,0,0,0,43.43,37.62Z" transform="translate(-7.602 -6.651)" fill="#f0ae42"/>
      <path id="Trazado_1043162" data-name="Trazado 1043162" d="M56.91,27.91H55.29A7.3,7.3,0,0,0,48,20.62V19a8.92,8.92,0,0,1,8.91,8.91Z" transform="translate(-8.932 -3.421)" fill="#f2f2f2"/>
      <path id="Trazado_1043163" data-name="Trazado 1043163" d="M38,49.62V51.1H51.769a.81.81,0,0,0,.81-.81V48H39.62A1.62,1.62,0,0,0,38,49.62Z" transform="translate(-7.031 -8.932)" fill="#f6b940"/>
      <path id="Trazado_1043164" data-name="Trazado 1043164" d="M51.339,54H40v1.62H50.529a.81.81,0,0,0,.81-.81Z" transform="translate(-7.412 -10.072)" fill="#686868"/>
      <path id="Trazado_1043165" data-name="Trazado 1043165" d="M51.218,24.489A12.138,12.138,0,0,0,40.639,12.446l1.367-1.368a.81.81,0,0,0,0-1.145L37.425,5.352a.81.81,0,0,0-1.145,0L34.842,6.789a20.33,20.33,0,0,0-7.113-2.948V1.81a.81.81,0,0,0-.81-.81h-6.48a.81.81,0,0,0-.81.81V3.841a20.33,20.33,0,0,0-7.113,2.948L11.078,5.352a.81.81,0,0,0-1.145,0L5.352,9.933a.81.81,0,0,0,0,1.145l1.437,1.438a20.33,20.33,0,0,0-2.948,7.113H1.81a.81.81,0,0,0-.81.81v6.48a.81.81,0,0,0,.81.81H3.841a20.33,20.33,0,0,0,2.948,7.113L5.352,36.279a.81.81,0,0,0,0,1.145l4.581,4.582a.81.81,0,0,0,1.145,0l1.438-1.437a20.33,20.33,0,0,0,7.113,2.948v2.031a.81.81,0,0,0,.81.81h6.48a.81.81,0,0,0,.81-.81V43.517a20.226,20.226,0,0,0,2.487-.695,2.43,2.43,0,0,0,1.562,1.767v.959a2.43,2.43,0,0,0,2.43,2.43H35.1a4.05,4.05,0,0,0,7.938,0h.891a2.43,2.43,0,0,0,2.43-2.43v-.959a2.43,2.43,0,0,0,1.62-2.281v-1.62a2.43,2.43,0,0,0-1.6-2.274,12.262,12.262,0,0,1,2.469-6.723,12.031,12.031,0,0,0,2.369-7.2ZM26.784,42.045a.81.81,0,0,0-.676.8v1.894h-4.86V42.844a.81.81,0,0,0-.676-.8,18.379,18.379,0,0,1-7.684-3.184.81.81,0,0,0-1.042.087l-1.341,1.34L7.07,36.851l1.34-1.34A.81.81,0,0,0,8.5,34.468a18.379,18.379,0,0,1-3.184-7.684.81.81,0,0,0-.8-.676H2.62v-4.86H4.514a.81.81,0,0,0,.8-.676A18.379,18.379,0,0,1,8.5,12.889a.81.81,0,0,0-.087-1.042L7.07,10.506,10.506,7.07l1.341,1.34a.81.81,0,0,0,1.042.087,18.379,18.379,0,0,1,7.684-3.184.81.81,0,0,0,.676-.8V2.62h4.86V4.514a.81.81,0,0,0,.676.8A18.379,18.379,0,0,1,34.468,8.5a.81.81,0,0,0,1.042-.087l1.341-1.34,3.436,3.436-1.34,1.341a.81.81,0,0,0-.234.507c-.087,0-.173,0-.261,0a12.032,12.032,0,0,0-4.422,1.085,14.566,14.566,0,1,0-2.637,22.61,11.32,11.32,0,0,1,.362,2.364,2.43,2.43,0,0,0-1.6,2.274v.45a18.467,18.467,0,0,1-3.374.907Zm.18-18.62c-.02.237-.023.475-.029.712L22.869,28.2l-2.9-2.9.475-.475L22.3,26.681a.81.81,0,0,0,1.145,0l3.564-3.564c-.012.1-.032.2-.041.307Zm.781-3.337-4.876,4.876-1.857-1.857a.81.81,0,0,0-1.145,0l-1.62,1.62a.81.81,0,0,0,0,1.145l4.05,4.05a.81.81,0,0,0,1.145,0L27.068,26.3A12.093,12.093,0,0,0,28.8,30.969a8.914,8.914,0,1,1,.735-13.993,12.089,12.089,0,0,0-1.794,3.112Zm2.872-4.319a10.526,10.526,0,1,0-.91,16.543,13.505,13.505,0,0,1,1.143,2.153,12.961,12.961,0,1,1,1.7-20.213,12.231,12.231,0,0,0-1.933,1.518ZM39.068,49.6a2.43,2.43,0,0,1-2.281-1.62h4.562a2.43,2.43,0,0,1-2.281,1.62Zm4.86-3.24h-9.72a.81.81,0,0,1-.81-.81v-.81H44.738v.81A.81.81,0,0,1,43.928,46.358Zm2.43-4.05a.81.81,0,0,1-.81.81H32.588a.81.81,0,0,1-.81-.81v-1.62a.81.81,0,0,1,.81-.81H45.548a.81.81,0,0,1,.81.81Zm-9.72-9.72h-.81a.81.81,0,1,1,.81-.81Zm3.24,5.67h-1.62v-4.05h1.62Zm4.888,0H41.5v-4.05h.81a2.43,2.43,0,1,0-2.43-2.43v.81h-1.62v-.81a2.43,2.43,0,1,0-2.43,2.43h.81v4.05H33.369a14.131,14.131,0,0,0-2.81-7.573,10.53,10.53,0,1,1,16.986.04,13.88,13.88,0,0,0-2.78,7.533ZM41.5,32.588v-.81a.81.81,0,1,1,.81.81Z"/>
      <path id="Trazado_1043166" data-name="Trazado 1043166" d="M48,19v1.62a7.3,7.3,0,0,1,7.29,7.29h1.62A8.92,8.92,0,0,0,48,19Z" transform="translate(-8.932 -3.421)"/>
    </g>
  </g>
</svg>
