<svg xmlns="http://www.w3.org/2000/svg" xmlns:xlink="http://www.w3.org/1999/xlink" width="400" height="270" viewBox="0 0 400 270">
  <defs>
    <clipPath id="clip-path">
      <rect id="Rectángulo_415826" data-name="Rectángulo 415826" width="400" height="270" transform="translate(180 728)" fill="#fff" stroke="#707070" stroke-width="1" opacity="0.65"/>
    </clipPath>
    <clipPath id="clip-path-2">
      <rect id="Rectángulo_415825" data-name="Rectángulo 415825" width="430" height="430" transform="translate(0.134 0.134)" fill="none"/>
    </clipPath>
  </defs>
  <g id="Enmascarar_grupo_1098830" data-name="Enmascarar grupo 1098830" transform="translate(-180 -728)" clip-path="url(#clip-path)">
    <g id="Grupo_1182599" data-name="Grupo 1182599" transform="translate(158.975 639.975)">
      <g id="Grupo_1182598" data-name="Grupo 1182598" transform="translate(-0.109 -0.109)" clip-path="url(#clip-path-2)">
        <path id="Trazado_1042899" data-name="Trazado 1042899" d="M401.573,364.113a19.3,19.3,0,0,1-5.478,10.932H65.494C46.765,362.3,38.512,335.583,47.56,314.657c6.128-14.165,18.72-25.065,23.356-39.783,5.935-18.889-2.414-40.337,4.716-58.809,7.194-18.64,27.976-28.337,47.667-31.762s40.2-2.5,59.21-8.678c15.352-5,28.842-14.341,42.309-23.253s27.512-17.646,43.272-21.142,33.784-.851,45.206,10.563c23.9,23.878,7.515,69.822,30.711,94.381,8.831,9.352,21.672,13.474,33.174,19.233s23.019,15.047,24.239,27.848c1.235,13.018-8.623,24.792-9.016,37.858-.232,7.4,2.591,14.493,5.182,21.416s5.021,14.26,3.986,21.584" transform="translate(-6.029 -18.054)" fill="#f2f7f5" opacity="0.53"/>
        <path id="Trazado_1042900" data-name="Trazado 1042900" d="M374.88,385.916H90.648a44.115,44.115,0,0,1-10.972-25.137A44.589,44.589,0,0,1,101,319.512c10.788-6.352,25.867-10.427,28.409-24.559,1.188-6.609.057-13.387-.088-20.1s.97-13.965,5.671-18.769c8.133-8.31,21.776-5.2,33.382-5.983,29.733-2.022,50.058-32.083,78.668-40.441a56.663,56.663,0,0,1,71,40.825c2.679,10.492-2.92,23.076,7.107,30.511,5.638,4.179,12.857,5.358,19.674,7.043s13.989,4.371,17.775,10.283c5.318,8.309,1.877,19.25-2.11,28.273s-8.478,19.194-4.8,28.345c2.855,7.131,9.946,11.558,14.453,17.782a26.1,26.1,0,0,1,4.741,13.194" transform="translate(-11.019 -28.923)" fill="#cfe3dc"/>
        <rect id="Rectángulo_415817" data-name="Rectángulo 415817" width="10.171" height="33.158" transform="translate(109.031 181.769)" fill="#008cff"/>
        <rect id="Rectángulo_415818" data-name="Rectángulo 415818" width="10.171" height="51.955" transform="translate(140.59 162.972)" fill="#008cff"/>
        <rect id="Rectángulo_415819" data-name="Rectángulo 415819" width="10.171" height="31.08" transform="translate(124.695 183.847)" fill="#008cff"/>
        <rect id="Rectángulo_415820" data-name="Rectángulo 415820" width="10.171" height="41.907" transform="translate(157.176 173.02)" fill="#008cff"/>
        <rect id="Rectángulo_415821" data-name="Rectángulo 415821" width="10.171" height="41.907" transform="translate(173.761 173.02)" fill="#008cff"/>
        <rect id="Rectángulo_415822" data-name="Rectángulo 415822" width="10.171" height="52.504" transform="translate(190.808 162.423)" fill="#008cff"/>
        <path id="Trazado_1042901" data-name="Trazado 1042901" d="M133.612,203.177a1.923,1.923,0,1,1-1.922-1.923,1.923,1.923,0,0,1,1.922,1.923" transform="translate(-18.05 -28.055)" fill="#10284f"/>
        <path id="Trazado_1042902" data-name="Trazado 1042902" d="M152.415,210.229a1.923,1.923,0,1,1-1.922-1.923,1.923,1.923,0,0,1,1.922,1.923" transform="translate(-20.681 -29.041)" fill="#10284f"/>
        <path id="Trazado_1042903" data-name="Trazado 1042903" d="M171.122,185.243a1.923,1.923,0,1,1-1.923-1.922,1.923,1.923,0,0,1,1.923,1.922" transform="translate(-23.299 -25.545)" fill="#10284f"/>
        <path id="Trazado_1042904" data-name="Trazado 1042904" d="M209.321,197.278a1.923,1.923,0,1,1-1.922-1.922,1.923,1.923,0,0,1,1.922,1.922" transform="translate(-28.646 -27.229)" fill="#10284f"/>
        <path id="Trazado_1042905" data-name="Trazado 1042905" d="M229.769,183.612a1.923,1.923,0,1,1-1.922-1.922,1.923,1.923,0,0,1,1.922,1.922" transform="translate(-31.507 -25.316)" fill="#10284f"/>
        <path id="Trazado_1042906" data-name="Trazado 1042906" d="M190.353,196.624a1.923,1.923,0,1,1-1.922-1.922,1.923,1.923,0,0,1,1.922,1.922" transform="translate(-25.991 -27.138)" fill="#10284f"/>
        <path id="Trazado_1042907" data-name="Trazado 1042907" d="M118.885,208.955l11.057-7.865,16.171,6.065,16.089-21.49,16.539,9.789,16.314.563,17.812-12.091" transform="translate(-16.527 -25.629)" fill="none" stroke="#10284f" stroke-linecap="round" stroke-miterlimit="10" stroke-width="0.613"/>
        <path id="Trazado_1042908" data-name="Trazado 1042908" d="M322.179,173.494c-3.935,14.76-19.369,22.949-34.144,19.212a27.514,27.514,0,0,1-19.754-33.581,27.89,27.89,0,0,1,32.7-20.105,1.4,1.4,0,0,1,1.069,1.723L295.7,164.75a1.39,1.39,0,0,0,1.2,1.738l24.647,2.492a1.4,1.4,0,0,1,1.237,1.607,28.124,28.124,0,0,1-.613,2.907" transform="translate(-37.308 -19.26)" fill="#283732"/>
        <path id="Trazado_1042909" data-name="Trazado 1042909" d="M324.839,142.664l-18.4,16.32a.755.755,0,0,1-1.232-.758l6.289-23.8a.757.757,0,0,1,.94-.537,27.728,27.728,0,0,1,12.458,7.7.755.755,0,0,1-.058,1.077" transform="translate(-42.6 -18.622)" fill="#00b74b"/>
        <path id="Trazado_1042910" data-name="Trazado 1042910" d="M332.013,168.487l-24.307-2.458a1.032,1.032,0,0,1-.581-1.8l18.291-16.225a1.028,1.028,0,0,1,1.474.1,27.9,27.9,0,0,1,6.259,19.4,1.038,1.038,0,0,1-1.135.976" transform="translate(-42.823 -20.565)" fill="#ff0146"/>
        <path id="Trazado_1042911" data-name="Trazado 1042911" d="M267.449,248.834l-4.759.5,3.236,3.523,1.85,2.013-3.748,3.991-2.125-1.718-3.72-3.009-.2,4.781-.115,2.73-5.472.173-.287-2.717-.5-4.759-3.523,3.237-2.013,1.849-3.992-3.747,1.72-2.126,3.008-3.719-4.781-.2-2.73-.115-.173-5.473,2.718-.286,4.759-.5-3.236-3.522-1.85-2.013,3.748-3.991,2.125,1.719,3.72,3.009.2-4.782.116-2.73,5.472-.172.286,2.718.5,4.759,3.522-3.237,2.013-1.85,3.991,3.748-1.719,2.125-3.008,3.72,4.781.2,2.73.115.173,5.472Z" transform="translate(-33.354 -32.186)" fill="#6371ba"/>
        <path id="Trazado_1042912" data-name="Trazado 1042912" d="M267.851,249.236l-4.759.5,3.236,3.523a13.106,13.106,0,0,1-4.023,4.286l-3.72-3.009-.2,4.781a13.17,13.17,0,0,1-5.875.186l-.5-4.76-3.523,3.237a13.105,13.105,0,0,1-4.285-4.024l3.008-3.719-4.781-.2a13.153,13.153,0,0,1-.185-5.875l4.759-.5-3.236-3.522a13.1,13.1,0,0,1,4.023-4.286l3.72,3.009.2-4.782a13.169,13.169,0,0,1,5.875-.184l.5,4.759,3.522-3.237a13.105,13.105,0,0,1,4.286,4.023l-3.008,3.72,4.781.2a13.15,13.15,0,0,1,.185,5.875" transform="translate(-33.757 -32.588)" fill="#5363a3"/>
        <path id="Trazado_1042913" data-name="Trazado 1042913" d="M266.764,246.6a11.464,11.464,0,1,1-11.82-11.1,11.464,11.464,0,0,1,11.82,11.1" transform="translate(-34.015 -32.846)" fill="#6371ba"/>
        <path id="Trazado_1042914" data-name="Trazado 1042914" d="M264.167,247.2a8.362,8.362,0,1,1-8.621-8.095,8.362,8.362,0,0,1,8.621,8.095" transform="translate(-34.52 -33.351)" fill="#5363a3"/>
        <path id="Trazado_1042915" data-name="Trazado 1042915" d="M260.548,248.039a4.037,4.037,0,1,1-4.162-3.908,4.036,4.036,0,0,1,4.162,3.908" transform="translate(-35.223 -34.055)" fill="#6371ba"/>
        <path id="Trazado_1042916" data-name="Trazado 1042916" d="M293.4,231.924l-4.114.3,2.694,3.124,1.539,1.785-3.338,3.338-1.785-1.539-3.124-2.695-.3,4.115-.173,2.349h-4.721l-.174-2.349-.3-4.115-3.124,2.695-1.785,1.539-3.338-3.338,1.539-1.785,2.694-3.124-4.115-.3-2.349-.174V227.03l2.349-.174,4.115-.3-2.694-3.124-1.539-1.785,3.338-3.338,1.785,1.539,3.124,2.694.3-4.114.174-2.35h4.721l.173,2.35.3,4.114,3.123-2.694,1.785-1.539,3.338,3.338-1.539,1.785-2.694,3.124,4.114.3,2.35.174v4.721Z" transform="translate(-37.553 -30.129)" fill="#6371ba"/>
        <path id="Trazado_1042917" data-name="Trazado 1042917" d="M293.735,232.261l-4.114.3,2.694,3.124a11.307,11.307,0,0,1-3.583,3.584l-3.124-2.695-.3,4.115a11.35,11.35,0,0,1-5.067,0l-.3-4.115-3.124,2.695a11.309,11.309,0,0,1-3.584-3.584l2.695-3.124-4.115-.3a11.354,11.354,0,0,1,0-5.068l4.115-.3-2.695-3.124a11.306,11.306,0,0,1,3.584-3.583l3.124,2.694.3-4.114a11.351,11.351,0,0,1,5.067,0l.3,4.114,3.123-2.694a11.3,11.3,0,0,1,3.584,3.583l-2.694,3.124,4.114.3a11.353,11.353,0,0,1,0,5.068" transform="translate(-37.888 -30.465)" fill="#5363a3"/>
        <path id="Trazado_1042918" data-name="Trazado 1042918" d="M292.875,229.949a9.884,9.884,0,1,1-9.884-9.884,9.883,9.883,0,0,1,9.884,9.884" transform="translate(-38.111 -30.687)" fill="#6371ba"/>
        <path id="Trazado_1042919" data-name="Trazado 1042919" d="M290.637,230.384a7.209,7.209,0,1,1-7.21-7.21,7.21,7.21,0,0,1,7.21,7.21" transform="translate(-38.546 -31.122)" fill="#5363a3"/>
        <path id="Trazado_1042920" data-name="Trazado 1042920" d="M287.514,230.991a3.481,3.481,0,1,1-3.481-3.481,3.481,3.481,0,0,1,3.481,3.481" transform="translate(-39.153 -31.729)" fill="#6371ba"/>
        <path id="Trazado_1042921" data-name="Trazado 1042921" d="M268.1,217.964l-3.114.23,2.039,2.364,1.164,1.351-2.526,2.526-1.351-1.164-2.364-2.039-.23,3.114-.132,1.779h-3.573l-.132-1.778-.23-3.115-2.364,2.039-1.35,1.164-2.527-2.526,1.165-1.351,2.038-2.364-3.114-.23-1.778-.132V214.26l1.778-.132,3.114-.23-2.038-2.363-1.165-1.351,2.527-2.527,1.351,1.165,2.363,2.039.23-3.115.132-1.778h3.573l.132,1.779.23,3.114,2.364-2.039,1.351-1.165,2.526,2.527-1.164,1.351-2.039,2.363,3.114.23,1.779.132v3.573Z" transform="translate(-34.838 -28.714)" fill="#6371ba"/>
        <path id="Trazado_1042922" data-name="Trazado 1042922" d="M268.354,218.218l-3.114.23,2.039,2.364a8.547,8.547,0,0,1-2.713,2.713l-2.364-2.039-.23,3.114a8.577,8.577,0,0,1-3.836,0l-.231-3.115-2.364,2.039a8.544,8.544,0,0,1-2.712-2.713l2.038-2.364-3.114-.23a8.594,8.594,0,0,1,0-3.836l3.114-.23-2.038-2.363a8.547,8.547,0,0,1,2.713-2.713l2.363,2.039.231-3.115a8.578,8.578,0,0,1,3.836,0l.23,3.114,2.364-2.039a8.555,8.555,0,0,1,2.713,2.713l-2.039,2.363,3.114.23a8.6,8.6,0,0,1,0,3.836" transform="translate(-35.092 -28.968)" fill="#5363a3"/>
        <path id="Trazado_1042923" data-name="Trazado 1042923" d="M267.7,216.469a7.481,7.481,0,1,1-7.482-7.482,7.481,7.481,0,0,1,7.482,7.482" transform="translate(-35.261 -29.137)" fill="#6371ba"/>
        <path id="Trazado_1042924" data-name="Trazado 1042924" d="M266.009,216.8a5.457,5.457,0,1,1-5.457-5.457,5.457,5.457,0,0,1,5.457,5.457" transform="translate(-35.59 -29.466)" fill="#5363a3"/>
        <path id="Trazado_1042925" data-name="Trazado 1042925" d="M263.647,217.257a2.634,2.634,0,1,1-2.634-2.634,2.634,2.634,0,0,1,2.634,2.634" transform="translate(-36.049 -29.926)" fill="#6371ba"/>
        <path id="Trazado_1042926" data-name="Trazado 1042926" d="M346.9,122.64l1.58,8.96-31.364-22.7Z" transform="translate(-44.27 -15.129)" fill="#ef9d30"/>
        <path id="Trazado_1042927" data-name="Trazado 1042927" d="M344.524,125.969l3.953,5.631-31.364-22.7Z" transform="translate(-44.27 -15.129)" fill="#ddae19"/>
        <path id="Trazado_1042928" data-name="Trazado 1042928" d="M317.113,108.9l27.411,17.067-6.444,11.955Z" transform="translate(-44.27 -15.129)" fill="#f1c830"/>
        <path id="Trazado_1042929" data-name="Trazado 1042929" d="M317.113,108.9,346.9,122.64l8.17-7.263Z" transform="translate(-44.27 -15.129)" fill="#f1c830"/>
        <path id="Trazado_1042930" data-name="Trazado 1042930" d="M328.916,137.413c17.19,9.266,27.532,29.819,24.73,49.145-2.378,16.4-12.45,35.162-30.085,39.759a4.119,4.119,0,0,1-3.721-7.131c3.538-2.907,7.925-4.254,14.546-4.4,8.471-.184,13.657,9.342,14.714,17.748s-1.783,16.867-5.8,24.325c-14.044,26.04-43.872,42.7-73.408,40.995-16.315-.941-31.841-6.926-47.531-11.5s-32.584-7.745-48.236-3.05a50.272,50.272,0,0,0-32.093,67.174" transform="translate(-19.251 -19.12)" fill="none" stroke="#10284f" stroke-linecap="round" stroke-miterlimit="10" stroke-width="1.865" stroke-dasharray="4.663 4.663"/>
        <path id="Trazado_1042931" data-name="Trazado 1042931" d="M364.369,166.378l8.717,3.552L287.74,261.856,261.8,233.6,216,272.878l-22.6-26.8L43.22,379.914l17.8-.235L193.4,263.192l23.57,27.121,44.556-38.745,26.212,25.98,88.9-103.744,5.489,8.717,2.26-20.987Z" transform="translate(-5.937 -22.496)" fill="#88bba9"/>
        <path id="Trazado_1042932" data-name="Trazado 1042932" d="M322.765,397.605,321.8,290.133l-71.719,1.181.958,106.291Z" transform="translate(-34.888 -40.494)" fill="#d36948"/>
        <path id="Trazado_1042933" data-name="Trazado 1042933" d="M327.818,397.605l-.968-107.472-40.667.67.963,106.8Z" transform="translate(-39.941 -40.494)" fill="#e58563"/>
        <path id="Trazado_1042934" data-name="Trazado 1042934" d="M285.867,311.727v87.039c0,.562.87.483.87-.076v-87.04c0-.562-.87-.482-.87.077" transform="translate(-39.897 -43.451)" fill="#363e66"/>
        <path id="Trazado_1042935" data-name="Trazado 1042935" d="M325.007,293.615l-38.767.639-.009-.54,38.719-.637c.347-.006.405.532.057.538" transform="translate(-39.948 -40.906)" fill="#d36948"/>
        <path id="Trazado_1042936" data-name="Trazado 1042936" d="M281.592,293.818l.009.54-28.22.465c-.347.005-.406-.533-.056-.538Z" transform="translate(-35.309 -41.009)" fill="#bf4d2e"/>
        <path id="Trazado_1042937" data-name="Trazado 1042937" d="M253.959,412.921l28.6-.471.009.539-28.553.471c-.346.005-.405-.533-.055-.539" transform="translate(-35.398 -57.613)" fill="#bf4d2e"/>
        <path id="Trazado_1042938" data-name="Trazado 1042938" d="M326.087,412.246l-38.827.64-.009-.54,38.779-.638c.347-.006.405.532.057.538" transform="translate(-40.09 -57.509)" fill="#d36948"/>
        <path id="Trazado_1042939" data-name="Trazado 1042939" d="M272.714,291.1l.158,9.592-5.72-1.457-5.669,1.644-.158-9.592Z" transform="translate(-36.462 -40.629)" fill="#f1c830"/>
        <rect id="Rectángulo_415823" data-name="Rectángulo 415823" width="14.913" height="10.586" transform="matrix(1, -0.016, 0.016, 1, 269.288, 340.827)" fill="#ef9c81"/>
        <path id="Trazado_1042940" data-name="Trazado 1042940" d="M267.866,408.288l-.967-41.827-71.718,1.181.939,40.646Z" transform="translate(-27.205 -51.176)" fill="#d36948"/>
        <path id="Trazado_1042941" data-name="Trazado 1042941" d="M272.919,408.288l-.967-41.827-40.666.67.951,41.157Z" transform="translate(-32.258 -51.176)" fill="#e58563"/>
        <path id="Trazado_1042942" data-name="Trazado 1042942" d="M270.11,369.944l-38.767.639-.009-.54,38.719-.637c.347-.006.405.532.057.538" transform="translate(-32.264 -51.588)" fill="#d36948"/>
        <path id="Trazado_1042943" data-name="Trazado 1042943" d="M226.695,370.147l.009.539-28.22.465c-.347.005-.406-.533-.056-.539Z" transform="translate(-27.626 -51.692)" fill="#bf4d2e"/>
        <path id="Trazado_1042944" data-name="Trazado 1042944" d="M199.062,412.921l28.6-.471.009.539-28.553.471c-.346.005-.405-.533-.055-.539" transform="translate(-27.715 -57.613)" fill="#bf4d2e"/>
        <path id="Trazado_1042945" data-name="Trazado 1042945" d="M271.19,412.246l-38.827.64-.009-.54,38.779-.638c.347-.006.405.532.057.538" transform="translate(-32.407 -57.509)" fill="#d36948"/>
        <rect id="Rectángulo_415824" data-name="Rectángulo 415824" width="14.913" height="10.586" transform="matrix(1, -0.016, 0.016, 1, 222.074, 340.827)" fill="#ef9c81"/>
        <path id="Trazado_1042946" data-name="Trazado 1042946" d="M204.458,405.536l-.968-58.734-71.719,1.181.949,57.553Z" transform="translate(-18.33 -48.425)" fill="#d36948"/>
        <path id="Trazado_1042947" data-name="Trazado 1042947" d="M209.511,405.536l-.968-58.734-40.666.669.956,58.065Z" transform="translate(-23.383 -48.425)" fill="#e58563"/>
        <path id="Trazado_1042948" data-name="Trazado 1042948" d="M206.7,350.284l-38.767.639-.009-.54,38.719-.637c.347-.006.405.532.057.538" transform="translate(-23.39 -48.837)" fill="#d36948"/>
        <path id="Trazado_1042949" data-name="Trazado 1042949" d="M163.287,350.487l.009.539-28.22.465c-.347.005-.406-.533-.056-.539Z" transform="translate(-18.752 -48.941)" fill="#bf4d2e"/>
        <path id="Trazado_1042950" data-name="Trazado 1042950" d="M135.654,412.921l28.6-.471.009.539-28.553.471c-.346.005-.405-.533-.055-.539" transform="translate(-18.841 -57.613)" fill="#bf4d2e"/>
        <path id="Trazado_1042951" data-name="Trazado 1042951" d="M207.781,412.246l-38.827.64-.009-.54,38.779-.638c.347-.006.405.532.057.538" transform="translate(-23.533 -57.509)" fill="#d36948"/>
        <path id="Trazado_1042952" data-name="Trazado 1042952" d="M154.408,347.772l.158,9.592-5.72-1.457-5.669,1.644-.158-9.592Z" transform="translate(-19.904 -48.561)" fill="#f1c830"/>
        <path id="Trazado_1042953" data-name="Trazado 1042953" d="M107.154,412.8h30.972s-12.234-11.544-16.88-12.948-10.995,3.744-14.092,12.948" transform="translate(-14.885 -55.817)" fill="#10284f"/>
        <path id="Trazado_1042954" data-name="Trazado 1042954" d="M116.68,291.909s1.989,51.972,4.01,76.944a43.671,43.671,0,0,0,6.019,18.845h0s-11.264.081-15.235,2.27a20.228,20.228,0,0,0-6.349,6.084s-11.452-102.4-12.46-115.76c17.055-2.625,24.014,11.617,24.014,11.617" transform="translate(-12.857 -39.071)" fill="#6b3324"/>
        <path id="Trazado_1042955" data-name="Trazado 1042955" d="M132.762,410.786a6.942,6.942,0,0,0-.114,2.249h35.759a12.81,12.81,0,0,0-6.006-5.544c-4.528-2.218-8.594-3.6-11.273-7.115-8.317.277-18.366,10.41-18.366,10.41" transform="translate(-18.444 -55.923)" fill="#10284f"/>
        <path id="Trazado_1042956" data-name="Trazado 1042956" d="M156.121,330.321c1,9.664-9.277,53.583-9.277,53.583l-5.152,4.053a23.517,23.517,0,0,1-14.541,5.034s5.68-38.814,7.2-57.937c-2.274-16.472-14.391-42.411-14.391-42.411s-12.687.757-19.881-1.326c-3.965-1.146-5.86-4.882-6.763-8.007a21.454,21.454,0,0,1-.81-4.677s27.832-12.687,50.4.83c.806,1.941,1.589,3.941,2.349,5.981a217.6,217.6,0,0,1,10.867,44.878" transform="translate(-12.834 -38.128)" fill="#6b3324"/>
        <path id="Trazado_1042957" data-name="Trazado 1042957" d="M145.256,285.443l-51.941-2.134a21.455,21.455,0,0,1-.81-4.677s27.831-12.687,50.4.83c.805,1.941,1.589,3.941,2.349,5.981" transform="translate(-12.835 -38.128)" fill="#4f2118"/>
        <path id="Trazado_1042958" data-name="Trazado 1042958" d="M87.466,247.7l5.447,6.467s-.606,5.933-4.966,14.652a22.677,22.677,0,0,1-3.847-2.87c-6.62-5.538-19.247-17.309-21.217-19.652-2.542-3.026-5.085-4.843-3.391-11.5,2.4-9.425,23.591-34.639,26.587-36.149,10-5.028,7.56,21.741,5.259,24.283s-11.986,15.135-11.986,15.135Z" transform="translate(-8.137 -27.602)" fill="#6b3324"/>
        <path id="Trazado_1042959" data-name="Trazado 1042959" d="M97.007,262.254s-.606,5.933-4.966,14.652a22.712,22.712,0,0,1-3.847-2.87c.658-5.557,2.738-15.347,3.366-18.248Z" transform="translate(-12.231 -35.687)" fill="#4f2118"/>
        <path id="Trazado_1042960" data-name="Trazado 1042960" d="M163.13,220.285c-.051-.2,0-4.955,0-4.955l5.359-13.8a5.374,5.374,0,0,1,1.416,2.882c.455,2.073-.354,10.869-.1,12.487s.708,4.2.708,4.2Z" transform="translate(-22.716 -28.093)" fill="#ffab82"/>
        <path id="Trazado_1042961" data-name="Trazado 1042961" d="M145.435,183.461h22.581a1.134,1.134,0,0,1,1.1,1.4l-7.011,28.824a1.134,1.134,0,0,1-1.1.866H137.742a1.134,1.134,0,0,1-1.1-1.426L144.34,184.3a1.134,1.134,0,0,1,1.1-.841" transform="translate(-19.007 -25.564)" fill="#23396a"/>
        <path id="Trazado_1042962" data-name="Trazado 1042962" d="M147.13,184.939l19.382-.027c.632,0,1.335-.211,1.054,1.195s-5.9,25.227-6.044,26a1.756,1.756,0,0,1-1.9,1.336H140.653c-1.054,0-1.513-.83-1.513-1.954s5.884-23.78,6.15-24.608c.444-1.383.716-2.012,1.84-1.941" transform="translate(-19.361 -25.766)" fill="#e8f0ff"/>
        <path id="Trazado_1042963" data-name="Trazado 1042963" d="M171.7,226.58l-.562-4.8s-4.189-2.5-9.706,1.277a22.3,22.3,0,0,1,.306,3.985Z" transform="translate(-22.481 -30.813)" fill="#fff"/>
        <path id="Trazado_1042964" data-name="Trazado 1042964" d="M129.985,169.007s2.836-1.226,3.065-3.985-2.759-2.836-4.827-4.521-.69-3.985-5.671-4.062-14.483,3.6-15.863,7.357-1.3,8.276,3.755,16.323c8.276,3.678,10.652,0,10.882-.153s7.969-7.2,8.122-7.433.537-3.525.537-3.525" transform="translate(-14.713 -21.782)" fill="#6b3324"/>
        <path id="Trazado_1042965" data-name="Trazado 1042965" d="M129.756,183.93c-.706.752-2.566.907-4.453.907-.121,0-.244,0-.366,0a1.492,1.492,0,0,0-1.428,1.03l-.005.016a9.514,9.514,0,0,0-.323,1.474,29.168,29.168,0,0,0-.255,3.664s-9.61,0-13.866-.628a13.394,13.394,0,0,0,.9-3.444c.451-2.547.778-5.487.778-5.487l8.837.049a1.1,1.1,0,0,0,1.1-.974l.1-.892a2.429,2.429,0,0,0-.832-2.129,4.725,4.725,0,0,1-1.134-1.369c-.681-1.312-1.288-4.243.76-4.821s3.046,3.991,3.046,3.991a17.58,17.58,0,0,1,.894-2.784c.786-2.1,3.833-2.207,7.248-3.675.735,3.2-.158,14.18-1,15.073" transform="translate(-15.152 -23.52)" fill="#ffab82"/>
        <path id="Trazado_1042966" data-name="Trazado 1042966" d="M123.182,190.294a29.072,29.072,0,0,0-.255,3.664s-9.61,0-13.865-.628a13.431,13.431,0,0,0,.9-3.444,104.05,104.05,0,0,1,13.218.408" transform="translate(-15.152 -26.459)" fill="#ff875f"/>
        <path id="Trazado_1042967" data-name="Trazado 1042967" d="M127.444,186.893l-.339,0a1.512,1.512,0,0,0-1.454,1.029l-.005.016a17.467,17.467,0,0,1-1.288-4.394,15.072,15.072,0,0,0,3.087,3.35" transform="translate(-17.292 -25.576)" fill="#23396a"/>
        <path id="Trazado_1042968" data-name="Trazado 1042968" d="M123.591,176.142c-.112-.33-.234-.657-.369-.979q-.213-.51-.464-1a2.772,2.772,0,0,0-.541-.808,1.032,1.032,0,0,0-1.595.137,1.606,1.606,0,0,0,.161,1.8.206.206,0,0,0,.356-.124c-.019-.452-.36-1-.012-1.411.384-.451.83.273.987.578.259.5.49,1.015.7,1.539.1.249.189.5.278.752a7.883,7.883,0,0,0,.278.806.277.277,0,0,0,.532-.129,5.248,5.248,0,0,0-.31-1.158" transform="translate(-16.741 -24.106)" fill="#23396a"/>
        <path id="Trazado_1042969" data-name="Trazado 1042969" d="M122.966,175.317a1.481,1.481,0,0,0-1.411,1.373,1.55,1.55,0,0,0,.279,1.007,1.512,1.512,0,0,0,.347.343,1.41,1.41,0,0,0,.517.206c.238.055.373-.278.132-.367a1.257,1.257,0,0,1-.553-.506,1.057,1.057,0,0,1-.177-.611,1.226,1.226,0,0,1,.911-1.021.217.217,0,0,0-.045-.425" transform="translate(-16.9 -24.424)" fill="#23396a"/>
        <path id="Trazado_1042970" data-name="Trazado 1042970" d="M134.487,174.224a13.42,13.42,0,0,0-2.571-.089l-2.542-.006q-1.237,0-2.474,0h-1.269a3.346,3.346,0,0,0-1.343.116.23.23,0,0,0,0,.395,3.014,3.014,0,0,0,1.226.117h1.2q1.268,0,2.537,0l2.468-.007a15.626,15.626,0,0,0,2.76-.088.227.227,0,0,0,0-.435" transform="translate(-17.267 -24.256)" fill="#23396a"/>
        <path id="Trazado_1042971" data-name="Trazado 1042971" d="M135.951,172.4c-.335-.341-1.041-.614-1.421-.186-.116.132-.041.416.175.348,1.253-.39,1.1,1.381,1.044,2.123a3.452,3.452,0,0,1-.4,1.548,2.106,2.106,0,0,1-.468.531,1.141,1.141,0,0,1-.261.162,1.637,1.637,0,0,1-.321.155c-.25.044-.169.4.073.38.1-.008.2.025.3.009a1.026,1.026,0,0,0,.238-.081,2.28,2.28,0,0,0,.382-.213,2.2,2.2,0,0,0,.619-.716,4.745,4.745,0,0,0,.47-2.154,2.417,2.417,0,0,0-.429-1.907" transform="translate(-18.663 -23.96)" fill="#23396a"/>
        <path id="Trazado_1042972" data-name="Trazado 1042972" d="M91.549,268.074s2.832-24.817,2.166-30.815-5.83-36.975-3.332-39.474,14.013-2.5,14.013-2.5.644-2.34,1.855-2.984,13.481-.406,14.933-.325,2.505,3.068,2.505,3.068,10.506.258,12.592.969c4.237,1.444,6.234,72.066,6.234,72.066Z" transform="translate(-12.443 -26.74)" fill="#6b3324"/>
        <path id="Trazado_1042973" data-name="Trazado 1042973" d="M169.254,242.449c-.73,5.009-5.006,8.451-10.536,5.634s-24.619-25.977-24.3-38.285,8.126-13.116,8.126-13.116c6.142,1.8,16.8,25.217,16.8,25.217a21.672,21.672,0,0,1,3.141-.341,18.212,18.212,0,0,1,6.354.757c.207,1.044,1.146,15.126.416,20.133" transform="translate(-18.699 -27.415)" fill="#6b3324"/>
        <path id="Trazado_1042974" data-name="Trazado 1042974" d="M147.757,238.308c-2.74-4.183-5.526-8.341-8.212-12.559-2.435-3.828-4.692-7.954-5.119-12.551a13.693,13.693,0,0,1,1.14-7.164.4.4,0,0,0-.728-.344c-1.963,4.129-1.475,8.958.126,13.119,1.742,4.531,4.652,8.539,7.294,12.573l4.841,7.391c.284.434.941-.031.658-.465" transform="translate(-18.58 -28.644)" fill="#10284f"/>
        <path id="Trazado_1042975" data-name="Trazado 1042975" d="M136.857,224.047a10.012,10.012,0,0,1-1.025-.191,10.352,10.352,0,0,1-6.494-4.765c-.26-.445.4-.913.658-.464a9.641,9.641,0,0,0,5.355,4.271,8.68,8.68,0,0,0,1.042.266Z" transform="translate(-17.981 -30.461)" fill="#10284f"/>
        <path id="Trazado_1042976" data-name="Trazado 1042976" d="M168.906,234.349l-5.506-8.4a21.733,21.733,0,0,1,3.141-.341Z" transform="translate(-22.757 -31.463)" fill="#4f2118"/>
        <path id="Trazado_1042977" data-name="Trazado 1042977" d="M170.4,241.96A18,18,0,0,0,167.89,231.5a.4.4,0,0,0-.7.4,17.237,17.237,0,0,1,2.436,8.359,11.763,11.763,0,0,1-.445,4.117,1.943,1.943,0,0,1-.974,1.238,1.324,1.324,0,0,1-1.5-.528,2.293,2.293,0,0,1-.089-2.227,7.5,7.5,0,0,1,1.57-2.1c.355-.378-.211-.951-.566-.572-1.144,1.216-2.462,2.785-1.946,4.589a2.159,2.159,0,0,0,3.363,1.263c1.139-.93,1.263-2.737,1.358-4.088" transform="translate(-23.059 -32.261)" fill="#10284f"/>
        <path id="Trazado_1042978" data-name="Trazado 1042978" d="M171.758,234.909a5.6,5.6,0,0,0-3.364-2.469.407.407,0,0,0-.469.323.412.412,0,0,0,.323.47,4.8,4.8,0,0,1,2.853,2.142.406.406,0,0,0,.561.1.411.411,0,0,0,.1-.562" transform="translate(-23.389 -32.418)" fill="#10284f"/>
        <path id="Trazado_1042979" data-name="Trazado 1042979" d="M159.8,203.055c-.915.366.39,1.823,1.758,2.279a4.07,4.07,0,0,1,2.279,1.563c.421.54-.877,8.17,2.289,9.964a1.521,1.521,0,0,0,1.626-.083c2.418-1.693,1.083-5.007.9-5.845-.2-.912-2.6-6.642-3.321-7.228s-4.883-.912-5.534-.651" transform="translate(-22.21 -28.294)" fill="#ffab82"/>
        <path id="Trazado_1042980" data-name="Trazado 1042980" d="M92.911,229.549c-.665-3.152-1.35-6.3-1.982-9.46a80.551,80.551,0,0,1-1.42-9.436,42.329,42.329,0,0,1-.1-5.427.417.417,0,0,0-.323-.47.406.406,0,0,0-.47.323c-.325,6.469,1.02,12.828,2.349,19.12l1.143,5.419c.106.5.909.436.8-.071" transform="translate(-12.284 -28.544)" fill="#10284f"/>
        <path id="Trazado_1042981" data-name="Trazado 1042981" d="M91.368,226.561a23.04,23.04,0,0,1-5.813-14.375c-.022-.518-.825-.446-.8.071a24.064,24.064,0,0,0,3.777,11.889,23.346,23.346,0,0,0,2.181,2.88c.34.384,1-.077.657-.465" transform="translate(-11.75 -29.535)" fill="#10284f"/>
        <path id="Trazado_1042982" data-name="Trazado 1042982" d="M90.195,229.74a16.911,16.911,0,0,1-6.335,1.251,14.255,14.255,0,0,1-3.186-.311c-.409-.094-.994-.31-1.04-.808-.038-.421.457-.673.777-.825a8.562,8.562,0,0,1,3.545-.8c.519-.007.446-.809-.07-.8a9.158,9.158,0,0,0-3.7.826,2.416,2.416,0,0,0-1.214.969,1.36,1.36,0,0,0,.148,1.43,2.357,2.357,0,0,0,1.466.817,14.177,14.177,0,0,0,1.845.252,17.507,17.507,0,0,0,8.047-1.241c.478-.2.2-.951-.281-.755" transform="translate(-10.921 -31.72)" fill="#10284f"/>
        <path id="Trazado_1042983" data-name="Trazado 1042983" d="M81.859,243.991a79.759,79.759,0,0,1-6.776,7.28c-.376.356.244.87.617.518a79.639,79.639,0,0,0,6.776-7.28c.329-.4-.287-.919-.617-.518" transform="translate(-10.38 -34.016)" fill="#10284f"/>
        <path id="Trazado_1042984" data-name="Trazado 1042984" d="M82.889,244.515c-.089-.507-.893-.441-.8.071a15.129,15.129,0,0,1-.158,6.07,14.057,14.057,0,0,1-.423,1.466,4.732,4.732,0,0,1-.582,1.317c-.207.271-.64.494-.859.119a1.533,1.533,0,0,1-.1-.982,5.321,5.321,0,0,1,1.394-2.829c.354-.38-.264-.9-.618-.518a6.118,6.118,0,0,0-1.532,2.984c-.163.833-.108,2.1.928,2.329,1.261.273,1.8-1.217,2.115-2.133a15.712,15.712,0,0,0,.636-7.894" transform="translate(-10.964 -34.06)" fill="#10284f"/>
        <path id="Trazado_1042985" data-name="Trazado 1042985" d="M114.088,247.5c-1.683-5.025-3.555-10.052-4-15.376a21.081,21.081,0,0,1,.928-8.648c.168-.486-.559-.833-.728-.344-1.737,5.037-1.154,10.426.144,15.493,1.333,5.2,3.472,10.145,4.763,15.353a30.469,30.469,0,0,1,1,8.943c-.028.512.764.662.792.146.292-5.355-1.216-10.542-2.9-15.567" transform="translate(-15.172 -31.083)" fill="#10284f"/>
        <path id="Trazado_1042986" data-name="Trazado 1042986" d="M126.08,195.04l-19.293.242s.644-2.341,1.854-2.985,13.481-.405,14.934-.325,2.5,3.069,2.5,3.069" transform="translate(-14.833 -26.74)" fill="#4f2118"/>
        <path id="Trazado_1042987" data-name="Trazado 1042987" d="M129.2,295.771l-21.509-.987-6.145-.283a.406.406,0,0,0-.366.437.413.413,0,0,0,.437.366l21.508.988,6.144.282a.4.4,0,0,0,.366-.436.413.413,0,0,0-.435-.366" transform="translate(-14.049 -41.105)" fill="#10284f"/>
        <path id="Trazado_1042988" data-name="Trazado 1042988" d="M156.678,346.267a17.649,17.649,0,0,0-13.588-.991c-.491.166-.211.921.281.755a16.822,16.822,0,0,1,12.963.964c.462.237.8-.493.344-.728" transform="translate(-19.878 -48.083)" fill="#10284f"/>
        <path id="Trazado_1042989" data-name="Trazado 1042989" d="M149.508,348.719a9.266,9.266,0,0,1-6.455-3.13c-.336-.388-1,.073-.657.465a10.036,10.036,0,0,0,6.967,3.457c.511.029.661-.763.145-.792" transform="translate(-19.804 -48.235)" fill="#10284f"/>
        <path id="Trazado_1042990" data-name="Trazado 1042990" d="M115.6,348.165a10.854,10.854,0,0,0-10-1.9,10.036,10.036,0,0,0-2.723,1.318.4.4,0,0,0,.465.657,10.017,10.017,0,0,1,9.371-.888,9.281,9.281,0,0,1,2.371,1.431.4.4,0,0,0,.518-.617" transform="translate(-14.262 -48.282)" fill="#10284f"/>
        <path id="Trazado_1042991" data-name="Trazado 1042991" d="M244.029,298.232,162.9,309.752l6.162,36.53,79.949-10.522Z" transform="translate(-22.687 -41.627)" fill="#00b55b"/>
        <path id="Trazado_1042992" data-name="Trazado 1042992" d="M165.811,316.933l4.2,23.406c2.368-.325,5.368,1.608,5.788,3.961l67.132-8.744c-.317-2.428,1.453-5.675,3.879-6.007l-3.118-23.894a5.207,5.207,0,0,1-5.457-4.283l-68.714,9.712c.444,2.483-1.209,5.494-3.706,5.85" transform="translate(-23.094 -42.067)" fill="#008a3c"/>
        <path id="Trazado_1042993" data-name="Trazado 1042993" d="M222.764,323.233a11.511,11.511,0,1,1-12.989-9.813,11.51,11.51,0,0,1,12.989,9.813" transform="translate(-27.858 -43.737)" fill="#00b55b"/>
        <path id="Trazado_1042994" data-name="Trazado 1042994" d="M210.228,315.148a10.016,10.016,0,1,0,11.3,8.539,10.011,10.011,0,0,0-11.3-8.539m2.586,18.569a8.738,8.738,0,1,1,7.445-9.853,8.736,8.736,0,0,1-7.445,9.853" transform="translate(-28.102 -43.981)" fill="#008a3c"/>
        <path id="Trazado_1042995" data-name="Trazado 1042995" d="M217.518,326.982a3.286,3.286,0,0,1-.52,2.446,4.124,4.124,0,0,1-2.146,1.49l.159,1.145-2.449.341-.16-1.145a4.107,4.107,0,0,1-2.548-.9,3.527,3.527,0,0,1-1.195-2.314l3.129-.436a.993.993,0,0,0,.487.769,1.45,1.45,0,0,0,.956.164,1.564,1.564,0,0,0,.843-.362.776.776,0,0,0,.172-.994.61.61,0,0,0-.243-.215c-.108-.058-.209-.107-.3-.146a2,2,0,0,0-.426-.1c-.193-.03-.342-.052-.45-.064l-.526-.057-.567-.06c-.13-.015-.319-.042-.567-.084a5.3,5.3,0,0,1-.588-.126q-.217-.064-.544-.181a2.335,2.335,0,0,1-.529-.257,4.437,4.437,0,0,1-.446-.354,2.025,2.025,0,0,1-.4-.467,3.366,3.366,0,0,1-.279-.6,3.71,3.71,0,0,1-.182-.754,3.108,3.108,0,0,1,.478-2.277,3.84,3.84,0,0,1,2.043-1.41l-.151-1.08,2.449-.341.153,1.1a3.664,3.664,0,0,1,2.318.86,3.392,3.392,0,0,1,1.071,2.151l-3.04.432a.852.852,0,0,0-.423-.667,1.322,1.322,0,0,0-.855-.133,1.518,1.518,0,0,0-.731.285.571.571,0,0,0-.244.561.589.589,0,0,0,.151.322.958.958,0,0,0,.275.214,1.847,1.847,0,0,0,.456.141q.307.063.514.091c.138.019.349.044.63.076l.009,0a10.548,10.548,0,0,1,2.146.411,2.93,2.93,0,0,1,2.05,2.424Z" transform="translate(-29.022 -44.479)" fill="#008a3c"/>
        <path id="Trazado_1042996" data-name="Trazado 1042996" d="M245.384,322.7a2.321,2.321,0,0,1-.367,1.727,2.922,2.922,0,0,1-1.515,1.053l.113.808-1.73.241-.113-.808a2.9,2.9,0,0,1-1.8-.637,2.5,2.5,0,0,1-.844-1.633l2.209-.308a.7.7,0,0,0,.343.543,1.021,1.021,0,0,0,.676.116,1.111,1.111,0,0,0,.6-.255.529.529,0,0,0,.194-.494.538.538,0,0,0-.072-.209.437.437,0,0,0-.171-.151c-.077-.041-.148-.076-.213-.1a1.387,1.387,0,0,0-.3-.073c-.135-.021-.241-.036-.317-.046l-.372-.04-.4-.042c-.092-.01-.225-.03-.4-.06a3.706,3.706,0,0,1-.416-.089c-.1-.03-.23-.073-.384-.128a1.662,1.662,0,0,1-.373-.181,3.156,3.156,0,0,1-.314-.25,1.427,1.427,0,0,1-.28-.329,2.383,2.383,0,0,1-.2-.421,2.606,2.606,0,0,1-.129-.532,2.191,2.191,0,0,1,.338-1.608,2.7,2.7,0,0,1,1.442-1l-.107-.763,1.73-.241.108.774a2.592,2.592,0,0,1,1.638.607,2.4,2.4,0,0,1,.756,1.52l-2.147.3a.6.6,0,0,0-.3-.471.937.937,0,0,0-.6-.095,1.074,1.074,0,0,0-.517.2.4.4,0,0,0-.172.4.421.421,0,0,0,.106.227.7.7,0,0,0,.194.151,1.319,1.319,0,0,0,.322.1q.217.045.364.064c.1.014.246.032.445.053h.006a7.437,7.437,0,0,1,1.515.291,2.067,2.067,0,0,1,1.447,1.711Z" transform="translate(-33.306 -44.225)" fill="#00b55b"/>
        <path id="Trazado_1042997" data-name="Trazado 1042997" d="M186.2,332.27a2.321,2.321,0,0,1-.367,1.727,2.917,2.917,0,0,1-1.515,1.053l.113.808-1.73.241-.113-.808a2.9,2.9,0,0,1-1.8-.637,2.5,2.5,0,0,1-.844-1.633l2.209-.308a.7.7,0,0,0,.343.543,1.021,1.021,0,0,0,.676.116,1.111,1.111,0,0,0,.6-.255.528.528,0,0,0,.194-.494.538.538,0,0,0-.072-.209.437.437,0,0,0-.171-.151c-.077-.041-.148-.076-.213-.1a1.39,1.39,0,0,0-.3-.073c-.135-.021-.241-.036-.317-.045l-.372-.04-.4-.042c-.092-.01-.225-.03-.4-.06a3.655,3.655,0,0,1-.415-.089q-.154-.045-.384-.128a1.661,1.661,0,0,1-.373-.181,3.155,3.155,0,0,1-.314-.25,1.427,1.427,0,0,1-.28-.329,2.383,2.383,0,0,1-.2-.421,2.605,2.605,0,0,1-.129-.532,2.192,2.192,0,0,1,.338-1.608,2.7,2.7,0,0,1,1.442-1l-.107-.763,1.73-.241.108.774a2.6,2.6,0,0,1,1.638.607,2.4,2.4,0,0,1,.756,1.52l-2.147.3a.6.6,0,0,0-.3-.471.938.938,0,0,0-.6-.095,1.074,1.074,0,0,0-.517.2.4.4,0,0,0-.172.4.418.418,0,0,0,.106.227.7.7,0,0,0,.194.151,1.321,1.321,0,0,0,.322.1q.217.045.364.065c.1.014.246.032.445.053h.006a7.433,7.433,0,0,1,1.515.291,2.067,2.067,0,0,1,1.447,1.711Z" transform="translate(-25.023 -45.564)" fill="#00b55b"/>
        <path id="Trazado_1042998" data-name="Trazado 1042998" d="M170.078,318.983l4,19.177c1.961-.269,5.022,1.507,5.371,3.456l61.347-8.253c-.262-2.011,1.447-5.095,3.456-5.371l-2.543-19.634c-2.035.29-4.692-1.453-4.958-3.491L173.916,313.7C174.284,315.76,172.146,318.688,170.078,318.983Z" transform="translate(-23.691 -42.556)" fill="none" stroke="#00b55b" stroke-miterlimit="10" stroke-width="0.55"/>
        <path id="Trazado_1042999" data-name="Trazado 1042999" d="M243.962,298.195,228.108,300.4l-15.854,2.207L196.4,304.815l-15.852,2.209q-7.922,1.106-15.843,2.22l-1.957.28a.105.105,0,0,0,.034.207c5.291-.713,10.579-1.455,15.866-2.191s10.568-1.472,15.851-2.209l15.851-2.209,15.849-2.212,15.85-2.211,1.963-.273c.15-.021.1-.249-.051-.229" transform="translate(-22.654 -41.622)" fill="#363e66"/>
        <path id="Trazado_1043000" data-name="Trazado 1043000" d="M206.714,348.257a18.061,18.061,0,0,0-1.836.2l-1.754.245-3.6.5-7.162,1-7.131,1-7.16,1c-2.386.334-4.772.661-7.156,1.009-.291.042-.581.086-.871.133-.114.019-.1.194.016.181,1.195-.138,2.385-.317,3.576-.482s2.4-.334,3.6-.5l7.162-1,7.133-1,7.162-1c2.385-.334,4.772-.664,7.155-1.01.3-.043.584-.1.875-.166.064-.016.061-.124-.011-.121" transform="translate(-23.676 -48.628)" fill="#363e66"/>
        <path id="Trazado_1043001" data-name="Trazado 1043001" d="M247.648,305.191l-81.936-1.144.448,37.044,80.615,1.948Z" transform="translate(-23.08 -42.441)" fill="#00b55b"/>
        <path id="Trazado_1043002" data-name="Trazado 1043002" d="M166.258,320.333q-.126-3.634-.254-7.269l-.072-2.077c-.006-.182-.288-.151-.282.031q.126,3.634.254,7.269l.072,2.077c.006.182.288.151.282-.031" transform="translate(-23.072 -43.395)" fill="#363e66"/>
        <path id="Trazado_1043003" data-name="Trazado 1043003" d="M167.379,311.394l.532,23.773c2.389.044,5.054,2.417,5.107,4.807l67.677,1.725c.062-2.448,2.312-5.381,4.76-5.337l.609-24.088a5.207,5.207,0,0,1-4.73-5.074l-69.39-1.014c.056,2.521-2.043,5.241-4.564,5.208" transform="translate(-23.314 -42.74)" fill="#008a3c"/>
        <path id="Trazado_1043004" data-name="Trazado 1043004" d="M222.756,325.024a11.511,11.511,0,1,1-11.318-11.7,11.512,11.512,0,0,1,11.318,11.7" transform="translate(-27.842 -43.739)" fill="#00b55b"/>
        <path id="Trazado_1043005" data-name="Trazado 1043005" d="M211.658,315.067a10.016,10.016,0,1,0,9.848,10.181,10.01,10.01,0,0,0-9.848-10.181m-.311,18.746a8.738,8.738,0,1,1,8.876-8.586,8.735,8.735,0,0,1-8.876,8.586" transform="translate(-28.086 -43.983)" fill="#008a3c"/>
        <path id="Trazado_1043006" data-name="Trazado 1043006" d="M217.148,327.765a3.288,3.288,0,0,1-.892,2.337,4.13,4.13,0,0,1-2.351,1.141l-.019,1.155-2.473-.041.02-1.155a4.107,4.107,0,0,1-2.379-1.285,3.533,3.533,0,0,1-.824-2.47l3.159.052a.993.993,0,0,0,.362.834,1.45,1.45,0,0,0,.92.31,1.562,1.562,0,0,0,.888-.228.75.75,0,0,0,.379-.648.762.762,0,0,0-.056-.309.618.618,0,0,0-.206-.249c-.1-.075-.19-.138-.275-.191a1.97,1.97,0,0,0-.405-.168q-.277-.09-.434-.132l-.511-.138q-.362-.094-.551-.146c-.126-.034-.308-.091-.547-.17a5.329,5.329,0,0,1-.562-.216q-.205-.1-.509-.263a2.346,2.346,0,0,1-.483-.335,4.373,4.373,0,0,1-.384-.419,2.033,2.033,0,0,1-.319-.522,3.384,3.384,0,0,1-.183-.633,3.71,3.71,0,0,1-.065-.773,3.113,3.113,0,0,1,.825-2.177,3.838,3.838,0,0,1,2.236-1.078l.018-1.091L214,318.8l-.019,1.107a3.664,3.664,0,0,1,2.158,1.208,3.388,3.388,0,0,1,.726,2.291l-3.07-.043a.854.854,0,0,0-.315-.725,1.33,1.33,0,0,0-.825-.264,1.515,1.515,0,0,0-.766.169.568.568,0,0,0-.328.515.586.586,0,0,0,.1.341.968.968,0,0,0,.238.255,1.864,1.864,0,0,0,.428.209c.2.073.36.13.495.17s.338.1.611.171h.008a10.527,10.527,0,0,1,2.056.738,2.926,2.926,0,0,1,1.652,2.71Z" transform="translate(-29.031 -44.5)" fill="#008a3c"/>
        <path id="Trazado_1043007" data-name="Trazado 1043007" d="M245.386,327.808a2.321,2.321,0,0,1-.63,1.65,2.918,2.918,0,0,1-1.66.806l-.013.815-1.746-.028.014-.816a2.9,2.9,0,0,1-1.68-.906,2.491,2.491,0,0,1-.581-1.744l2.23.037a.7.7,0,0,0,.255.589,1.026,1.026,0,0,0,.65.219,1.115,1.115,0,0,0,.627-.161.529.529,0,0,0,.267-.458.536.536,0,0,0-.04-.218.434.434,0,0,0-.145-.176,2.33,2.33,0,0,0-.194-.135,1.41,1.41,0,0,0-.286-.119c-.131-.042-.232-.073-.306-.094l-.361-.1-.389-.1c-.089-.025-.218-.065-.386-.12a3.958,3.958,0,0,1-.4-.152c-.1-.046-.217-.108-.359-.186a1.658,1.658,0,0,1-.341-.237,3.184,3.184,0,0,1-.272-.295,1.461,1.461,0,0,1-.225-.369,2.433,2.433,0,0,1-.129-.447,2.64,2.64,0,0,1-.046-.546,2.2,2.2,0,0,1,.582-1.537,2.708,2.708,0,0,1,1.579-.76l.013-.771,1.746.029-.014.782a2.587,2.587,0,0,1,1.524.852,2.4,2.4,0,0,1,.513,1.618l-2.168-.03a.6.6,0,0,0-.223-.512.931.931,0,0,0-.581-.187,1.073,1.073,0,0,0-.542.12.4.4,0,0,0-.231.364.42.42,0,0,0,.071.241.677.677,0,0,0,.169.18,1.315,1.315,0,0,0,.3.148c.138.052.254.091.348.12s.239.069.432.121h.006a7.407,7.407,0,0,1,1.452.521,2.065,2.065,0,0,1,1.166,1.914Z" transform="translate(-33.35 -44.876)" fill="#00b55b"/>
        <path id="Trazado_1043008" data-name="Trazado 1043008" d="M185.433,328.121a2.324,2.324,0,0,1-.63,1.65,2.922,2.922,0,0,1-1.66.8l-.013.816-1.746-.029.014-.816a2.9,2.9,0,0,1-1.68-.906,2.491,2.491,0,0,1-.581-1.744l2.23.037a.7.7,0,0,0,.255.589,1.026,1.026,0,0,0,.65.219,1.113,1.113,0,0,0,.627-.161.547.547,0,0,0,.228-.675.433.433,0,0,0-.145-.176,2.313,2.313,0,0,0-.194-.135,1.407,1.407,0,0,0-.286-.119c-.131-.042-.232-.073-.306-.094l-.361-.1-.389-.1c-.089-.025-.218-.064-.386-.12a4.051,4.051,0,0,1-.4-.152c-.1-.046-.217-.108-.359-.186a1.661,1.661,0,0,1-.341-.237,3.189,3.189,0,0,1-.272-.3,1.462,1.462,0,0,1-.225-.369,2.434,2.434,0,0,1-.129-.447,2.639,2.639,0,0,1-.046-.546,2.2,2.2,0,0,1,.582-1.537,2.714,2.714,0,0,1,1.579-.761l.013-.77,1.746.029-.014.782a2.587,2.587,0,0,1,1.524.852,2.4,2.4,0,0,1,.513,1.618l-2.168-.03a.6.6,0,0,0-.223-.512.931.931,0,0,0-.581-.187,1.068,1.068,0,0,0-.541.12.4.4,0,0,0-.232.364.42.42,0,0,0,.071.241.676.676,0,0,0,.169.18,1.312,1.312,0,0,0,.3.148c.138.052.254.092.348.12s.239.069.432.121h.006a7.4,7.4,0,0,1,1.452.521,2.066,2.066,0,0,1,1.167,1.914Z" transform="translate(-24.959 -44.92)" fill="#00b55b"/>
        <path id="Trazado_1043009" data-name="Trazado 1043009" d="M171.314,313.94l.993,19.565c1.98.037,4.729,2.264,4.773,4.243l61.887,1.318c.05-2.027,2.214-4.81,4.243-4.772l.519-19.792c-2.056-.027-4.411-2.16-4.36-4.213l-63.449-.971C175.967,311.405,173.4,313.968,171.314,313.94Z" transform="translate(-23.864 -43.179)" fill="none" stroke="#00b55b" stroke-miterlimit="10" stroke-width="0.55"/>
        <path id="Trazado_1043010" data-name="Trazado 1043010" d="M247.59,305.116l-16-.268-16-.268-16-.267-16-.266q-8-.132-16-.253l-1.978-.026a.105.105,0,0,0,0,.211c5.338.112,10.677.2,16.014.285l16,.265,16,.263,16,.262,16,.262,1.982.033c.15,0,.135-.231-.015-.234" transform="translate(-23.051 -42.402)" fill="#363e66"/>
        <path id="Trazado_1043011" data-name="Trazado 1043011" d="M204.25,347.846c-2.406-.088-4.813-.127-7.219-.188s-4.789-.118-7.183-.177l-7.216-.18-7.182-.178c-2.4-.058-4.8-.135-7.2-.161-.3,0-.6,0-.906-.005-.095,0-.091.143,0,.147,2.379.111,4.76.155,7.141.216l7.217.184,7.217.182q3.61.092,7.218.184l7.183.179c.3.008.608.012.912.016.14,0,.161-.214.018-.219" transform="translate(-23.299 -48.447)" fill="#363e66"/>
        <path id="Trazado_1043012" data-name="Trazado 1043012" d="M249.194,309.334l-81.255-10.605L164.1,335.576l79.849,11.251Z" transform="translate(-22.855 -41.697)" fill="#00b55b"/>
        <path id="Trazado_1043013" data-name="Trazado 1043013" d="M165.606,326.217q.432-4.348.865-8.7t.865-8.7q.243-2.443.486-4.888c.018-.181-.263-.22-.281-.038q-.432,4.347-.865,8.7t-.865,8.7q-.243,2.443-.486,4.888c-.018.181.263.22.281.038" transform="translate(-23.026 -42.404)" fill="#363e66"/>
        <path id="Trazado_1043014" data-name="Trazado 1043014" d="M168.911,306.3l-2.22,23.675c2.369.32,4.741,2.985,4.518,5.365l67.024,9.535c.344-2.424,2.918-5.078,5.344-4.75l3.389-23.857a5.206,5.206,0,0,1-4.112-5.587l-68.808-9.026c-.237,2.51-2.635,4.97-5.136,4.645" transform="translate(-23.217 -42.107)" fill="#008a3c"/>
        <path id="Trazado_1043015" data-name="Trazado 1043015" d="M222.571,326.361a11.511,11.511,0,1,1-9.89-12.931,11.511,11.511,0,0,1,9.89,12.931" transform="translate(-27.83 -43.74)" fill="#00b55b"/>
        <path id="Trazado_1043016" data-name="Trazado 1043016" d="M212.729,315.162a10.016,10.016,0,1,0,8.6,11.25,10.011,10.011,0,0,0-8.6-11.25m-2.476,18.584a8.738,8.738,0,1,1,9.809-7.5,8.734,8.734,0,0,1-9.809,7.5" transform="translate(-28.073 -43.984)" fill="#008a3c"/>
        <path id="Trazado_1043017" data-name="Trazado 1043017" d="M216.744,328.294a3.293,3.293,0,0,1-1.157,2.218,4.135,4.135,0,0,1-2.467.862l-.152,1.146-2.451-.327.152-1.146a4.109,4.109,0,0,1-2.214-1.551,3.534,3.534,0,0,1-.533-2.549l3.132.417a.991.991,0,0,0,.263.871,1.453,1.453,0,0,0,.878.415,1.57,1.57,0,0,0,.909-.124.776.776,0,0,0,.431-.913.614.614,0,0,0-.175-.272c-.089-.085-.173-.159-.252-.221a2,2,0,0,0-.383-.214q-.266-.121-.416-.181c-.1-.041-.264-.106-.491-.2s-.409-.161-.531-.21-.3-.126-.524-.232a5.338,5.338,0,0,1-.533-.28q-.192-.119-.475-.32a2.327,2.327,0,0,1-.441-.389,4.38,4.38,0,0,1-.334-.46,2.057,2.057,0,0,1-.257-.556,3.365,3.365,0,0,1-.108-.65,3.777,3.777,0,0,1,.026-.776,3.109,3.109,0,0,1,1.07-2.067,3.835,3.835,0,0,1,2.346-.812l.144-1.081,2.451.326-.146,1.1a3.672,3.672,0,0,1,2,1.449,3.385,3.385,0,0,1,.456,2.36l-3.045-.4a.851.851,0,0,0-.23-.756,1.327,1.327,0,0,0-.788-.358,1.524,1.524,0,0,0-.781.08.57.57,0,0,0-.385.474.586.586,0,0,0,.059.35.979.979,0,0,0,.207.281,1.93,1.93,0,0,0,.4.257q.279.143.471.225t.587.242h.008a10.544,10.544,0,0,1,1.959.97,2.929,2.929,0,0,1,1.326,2.884Z" transform="translate(-28.982 -44.492)" fill="#008a3c"/>
        <path id="Trazado_1043018" data-name="Trazado 1043018" d="M244.838,331.582a2.323,2.323,0,0,1-.816,1.566,2.914,2.914,0,0,1-1.742.608l-.108.809-1.73-.23.107-.809a2.9,2.9,0,0,1-1.564-1.095,2.492,2.492,0,0,1-.376-1.8l2.211.294a.7.7,0,0,0,.186.615,1.024,1.024,0,0,0,.62.292,1.1,1.1,0,0,0,.642-.087.527.527,0,0,0,.318-.424.519.519,0,0,0-.014-.22.44.44,0,0,0-.124-.193c-.063-.06-.122-.112-.178-.156a1.372,1.372,0,0,0-.27-.151c-.125-.057-.223-.1-.294-.128l-.347-.138c-.164-.064-.289-.114-.375-.148s-.209-.089-.369-.164a3.731,3.731,0,0,1-.377-.2q-.135-.084-.335-.226a1.684,1.684,0,0,1-.312-.274,3.294,3.294,0,0,1-.236-.325,1.46,1.46,0,0,1-.181-.392,2.382,2.382,0,0,1-.077-.459,2.629,2.629,0,0,1,.019-.547,2.194,2.194,0,0,1,.755-1.46,2.709,2.709,0,0,1,1.656-.574l.1-.764,1.73.231-.1.774a2.6,2.6,0,0,1,1.415,1.023A2.4,2.4,0,0,1,245,328.5l-2.15-.28a.6.6,0,0,0-.162-.534.94.94,0,0,0-.556-.253,1.069,1.069,0,0,0-.551.057.4.4,0,0,0-.272.335.418.418,0,0,0,.041.248.7.7,0,0,0,.147.2,1.325,1.325,0,0,0,.283.181c.132.067.243.12.333.159s.23.1.415.171h.005a7.386,7.386,0,0,1,1.382.685,2.065,2.065,0,0,1,.937,2.036Z" transform="translate(-33.279 -45.346)" fill="#00b55b"/>
        <path id="Trazado_1043019" data-name="Trazado 1043019" d="M185.25,324.965a2.323,2.323,0,0,1-.816,1.566,2.92,2.92,0,0,1-1.742.608l-.107.809-1.73-.23.107-.809a2.9,2.9,0,0,1-1.564-1.095,2.494,2.494,0,0,1-.376-1.8l2.211.295a.7.7,0,0,0,.186.615,1.026,1.026,0,0,0,.62.292,1.111,1.111,0,0,0,.642-.087.527.527,0,0,0,.318-.424.518.518,0,0,0-.014-.22.439.439,0,0,0-.124-.193c-.063-.06-.122-.112-.178-.156a1.368,1.368,0,0,0-.27-.151c-.125-.057-.223-.1-.294-.128s-.187-.075-.347-.138-.289-.114-.375-.148-.209-.089-.369-.164a3.728,3.728,0,0,1-.377-.2q-.135-.084-.335-.226a1.684,1.684,0,0,1-.312-.274,3.3,3.3,0,0,1-.236-.325,1.46,1.46,0,0,1-.181-.392,2.392,2.392,0,0,1-.077-.459,2.641,2.641,0,0,1,.019-.548,2.194,2.194,0,0,1,.755-1.459,2.71,2.71,0,0,1,1.656-.574l.1-.764,1.731.23-.1.775a2.6,2.6,0,0,1,1.415,1.023,2.4,2.4,0,0,1,.322,1.666l-2.15-.28a.6.6,0,0,0-.162-.534.94.94,0,0,0-.556-.253,1.068,1.068,0,0,0-.551.057.4.4,0,0,0-.272.335.418.418,0,0,0,.041.248.7.7,0,0,0,.147.2,1.323,1.323,0,0,0,.283.181c.132.067.243.12.333.159s.23.1.415.17h.005a7.387,7.387,0,0,1,1.382.685,2.065,2.065,0,0,1,.937,2.036Z" transform="translate(-24.939 -44.42)" fill="#00b55b"/>
        <path id="Trazado_1043020" data-name="Trazado 1043020" d="M172.691,309.29l-1.275,19.549c1.962.266,4.436,2.8,4.25,4.766l61.319,8.461c.286-2.007,2.756-4.522,4.766-4.25l2.8-19.6c-2.038-.264-4.133-2.655-3.844-4.689l-62.911-8.3C177.6,307.311,174.762,309.56,172.691,309.29Z" transform="translate(-23.879 -42.607)" fill="none" stroke="#00b55b" stroke-miterlimit="10" stroke-width="0.55"/>
        <path id="Trazado_1043021" data-name="Trazado 1043021" d="M249.767,309.254,233.9,307.138l-15.867-2.116-15.866-2.115L186.3,300.795q-7.929-1.055-15.858-2.1l-1.962-.255a.106.106,0,0,0-.022.21c5.288.728,10.582,1.428,15.874,2.133s10.576,1.409,15.864,2.112l15.864,2.112,15.864,2.109,15.864,2.11,1.964.261c.149.02.161-.214.012-.234" transform="translate(-23.452 -41.656)" fill="#363e66"/>
        <path id="Trazado_1043022" data-name="Trazado 1043022" d="M394.619,388.544c-5.81,1.331-13.487,11.53-13.487,11.53L369.6,398.987s11.528-10.493,12.4-17.406c1.94-15.355-6.289-45.9-8.878-59.891-.6-3.253-.9-5.609-.695-6.677,1.088-5.657,20.233-.871,20.233-.871a26.477,26.477,0,0,0,.57,8.52,16.475,16.475,0,0,0,.516,1.7,68.63,68.63,0,0,1,3.7,21.321c.216,9.137-4.772,28.262-2.828,42.856" transform="translate(-51.616 -43.589)" fill="#ffab82"/>
        <path id="Trazado_1043023" data-name="Trazado 1043023" d="M393.68,322.661l-20.108-.972c-.6-3.253-.9-5.609-.694-6.677,1.087-5.656,20.232-.87,20.232-.87a26.474,26.474,0,0,0,.57,8.519" transform="translate(-52.065 -43.589)" fill="#ff875f"/>
        <path id="Trazado_1043024" data-name="Trazado 1043024" d="M361.164,412.171c-.209.282,16.812,0,18.5,0s9.047-8.523,9.749-8.64.818,8.64.818,8.64h2.393a24.318,24.318,0,0,1,1-8.189c1.137-3.305,1.27-5.79-.245-9.145a1.758,1.758,0,0,0-2.418-.84c-3.547,1.859-5.682,7.8-8.192,11.446a4.249,4.249,0,0,1-5.994,1.048,11.386,11.386,0,0,1-2.122-1.985,1.338,1.338,0,0,0-1.775-.273l-.846.556a40.9,40.9,0,0,1-6.558,3.474c-1.97.83-3.008,2.154-4.306,3.909" transform="translate(-50.435 -55.002)" fill="#a3073f"/>
        <path id="Trazado_1043025" data-name="Trazado 1043025" d="M389.5,330.407l-2.859-7.438a.281.281,0,0,0-.526.2l2.859,7.438a.281.281,0,0,0,.526-.2" transform="translate(-53.925 -45.065)" fill="#10284f"/>
        <path id="Trazado_1043026" data-name="Trazado 1043026" d="M369.523,388.544c-5.809,1.331-13.488,11.53-13.488,11.53l-11.53-1.087s11.527-10.493,12.4-17.406c1.94-15.355-6.289-45.9-8.878-59.891-.6-3.253-.9-5.609-.694-6.677,1.087-5.657,20.232-.871,20.232-.871a26.45,26.45,0,0,0,.57,8.52,16.483,16.483,0,0,0,.516,1.7,68.652,68.652,0,0,1,3.7,21.321c.216,9.137-4.772,28.262-2.829,42.856" transform="translate(-48.103 -43.589)" fill="#ffab82"/>
        <path id="Trazado_1043027" data-name="Trazado 1043027" d="M368.585,322.661l-20.108-.972c-.6-3.253-.9-5.609-.694-6.677,1.087-5.656,20.232-.87,20.232-.87a26.473,26.473,0,0,0,.57,8.519" transform="translate(-48.553 -43.589)" fill="#ff875f"/>
        <path id="Trazado_1043028" data-name="Trazado 1043028" d="M422.874,219.308c-3.058,7.648-14.21,17.15-21.481,21.605a19.758,19.758,0,0,1-5.128,2.461c-2.975-8.778-2.831-11.185-2.831-11.185l3.808-4.485,5.494-6.466,1.879-2.211-.006,0c-.126-.126-2.193-2.151-4.853-4.758-3.432-3.37-7.859-7.713-10.37-10.193-.626-.621-1.132-1.123-1.474-1.466-2.148-2.151-1.84-15.147,4.815-16.42,0,0,27.318,20.384,30.149,33.121" transform="translate(-54.012 -25.946)" fill="#ff0146"/>
        <path id="Trazado_1043029" data-name="Trazado 1043029" d="M402.485,247.669a19.731,19.731,0,0,1-5.128,2.461c-2.975-8.778-2.831-11.185-2.831-11.185l3.808-4.485a103.766,103.766,0,0,0,4.151,13.209" transform="translate(-55.104 -32.702)" fill="#a3073f"/>
        <path id="Trazado_1043030" data-name="Trazado 1043030" d="M400.189,215.32c-3.432-3.371-7.859-7.713-10.37-10.193,2.295-3.991,6.671-11.414,6.671-11.414s4.423,12.319,3.7,21.608" transform="translate(-54.445 -26.999)" fill="#a3073f"/>
        <path id="Trazado_1043031" data-name="Trazado 1043031" d="M393.272,283.144c-.952,14.044-2.618,25.473-2.618,25.473H346.135c-5.5-24.417-5.014-39.867-4.138-47.269a34.793,34.793,0,0,1,.916-5.2c36.059-12.468,48.94.183,48.94.183s.455,2.449.884,6.384a118.687,118.687,0,0,1,.534,20.425" transform="translate(-47.677 -34.969)" fill="#23396a"/>
        <path id="Trazado_1043032" data-name="Trazado 1043032" d="M392.826,262.719l-50.74-1.371a34.8,34.8,0,0,1,.916-5.2c36.058-12.468,48.939.183,48.939.183s.455,2.449.885,6.384" transform="translate(-47.765 -34.969)" fill="#10284f"/>
        <path id="Trazado_1043033" data-name="Trazado 1043033" d="M357.361,168.922a1.8,1.8,0,0,1-1.951-.348,2.971,2.971,0,0,1-.544-1.929c-.009-.6-.1-1.466.375-1.922.54-.521,1.4-.359,2.057-.242a.281.281,0,0,0,.1-.553,2.839,2.839,0,0,0-2.534.382,3.1,3.1,0,0,0-.56,2.384,3.329,3.329,0,0,0,.794,2.368,2.418,2.418,0,0,0,2.457.387c.35-.083.152-.609-.2-.526" transform="translate(-49.474 -22.814)" fill="#10284f"/>
        <path id="Trazado_1043034" data-name="Trazado 1043034" d="M283.8,193.533s-.625-1.876-.033-2.534c.79.329,1.053,1.086,3.159,2.534a6.9,6.9,0,0,1,3.323,5c-2.764-.1-6.449-5-6.449-5" transform="translate(-39.567 -26.619)" fill="#ff875f"/>
        <path id="Trazado_1043035" data-name="Trazado 1043035" d="M299.339,203.276s-2.6-1-5.067-2.114a17.669,17.669,0,0,1-5.279-3.687c-2.949-2.985-8.487-6-10.233-7.324-2.025-1.539-4.132-3.4-4.375-2.755s.68,2.055,2.163,3.134a10.227,10.227,0,0,1,3.1,3.429c-1.783.567-1.824.777-2.107,2.025-1.945,1.053-2.187,1.7-2.106,2.268s1.333,2.818,2.188,3.079a1.469,1.469,0,0,0,1.3-.081,13,13,0,0,0,3.572,2.455,13.275,13.275,0,0,0,3.963.461s6.522,5.042,9.8,7.211c3.079-4.537,3.079-8.1,3.079-8.1" transform="translate(-38.284 -26.097)" fill="#ffab82"/>
        <path id="Trazado_1043036" data-name="Trazado 1043036" d="M309.192,206.521l-6.521-1.815a7.426,7.426,0,0,0-4.469,3.8,7.78,7.78,0,0,0,.433,6.4l7.528,3.548Z" transform="translate(-41.549 -28.538)" fill="#fff"/>
        <path id="Trazado_1043037" data-name="Trazado 1043037" d="M380.443,164.345c-.834,1.863-2.029,2.584-3.394,3.713-7.544,4.761-16.082.81-16.315.5s-4.756-11.6-4.756-11.6-.658-2.891.353-4.646c1.362-2.365,6.068-5.288,12.115-5.075a22.526,22.526,0,0,1,7.494,1.542c6.566,2.593,6.963,10.077,4.5,15.56" transform="translate(-49.68 -20.494)" fill="#23396a"/>
        <path id="Trazado_1043038" data-name="Trazado 1043038" d="M382.3,164.347c-4.076.979-8.342.338-10.777-3.474a13.836,13.836,0,0,1-1.219-13.628,22.526,22.526,0,0,1,7.494,1.542c6.566,2.593,6.963,10.077,4.5,15.56" transform="translate(-51.54 -20.496)" fill="#10284f"/>
        <path id="Trazado_1043039" data-name="Trazado 1043039" d="M379.111,178.875l-11.78.744-.351-2.073-.1-.57a.7.7,0,0,0-.022-.1,2.379,2.379,0,0,0-2.486-1.882c-1.834.114-4.334.081-5.319-.815-1.64-1.491-1.3-15.65-1.25-15.593,2.494,2.892,7.887,4.485,7.887,4.485s.817-4.4,3.2-3.8.969,4.772-.82,7.008a1.649,1.649,0,0,0,.219,1.1c.791,1.381,3.462,2.246,6.041,2.328a12.728,12.728,0,0,0,2.986-.059l.885,4.573Z" transform="translate(-49.956 -22.083)" fill="#ffab82"/>
        <path id="Trazado_1043040" data-name="Trazado 1043040" d="M380.595,181.4l-11.78.744-.351-2.073-.1-.57a.7.7,0,0,0-.022-.1,16.454,16.454,0,0,1,11.347-2.658Z" transform="translate(-51.44 -24.603)" fill="#ff875f"/>
        <path id="Trazado_1043041" data-name="Trazado 1043041" d="M377.1,144.433c-3.52,1.643-7.666,6.1-4.064,13.209s12.469,4.71,15.24,1.478,2.217-9.052.093-11.823-5.727-5.449-11.269-2.863" transform="translate(-51.903 -19.955)" fill="#23396a"/>
        <path id="Trazado_1043042" data-name="Trazado 1043042" d="M367.514,177.857a2.389,2.389,0,0,0-2.059-.941,5.821,5.821,0,0,0,3.374-4.6l0,.009c.047.2.854,3.755-1.318,5.527" transform="translate(-51.035 -24.005)" fill="#23396a"/>
        <path id="Trazado_1043043" data-name="Trazado 1043043" d="M389.814,231.358l2.277,14.979-48.94-.181a144.006,144.006,0,0,0,3.834-22.067c.1-1.332-.943-4.376-2.039-7.58-.977-2.86-1.9-5.837-1.7-7.795.253-2.584,5.143-10.87,10.016-17.332,2.943-3.9,5.878-7.14,7.783-8.053a17.029,17.029,0,0,1,7.384-3.135c4.955-1.011,9.2-1.214,10.721-.708s3.539,3.539,3.539,3.539,8.322,3.822,9.13,7.058c.566,2.262-1.156,18.137-2.243,27.48a51.858,51.858,0,0,0,.242,13.8" transform="translate(-47.914 -24.971)" fill="#ff0146"/>
        <path id="Trazado_1043044" data-name="Trazado 1043044" d="M357.764,201.241s-2.463,9.553-12.808,17.212c-.978-2.86-1.9-5.836-1.705-7.795.253-2.584,5.143-10.869,10.016-17.332l1.194-.208Z" transform="translate(-47.924 -26.916)" fill="#a3073f"/>
        <path id="Trazado_1043045" data-name="Trazado 1043045" d="M354.839,200.149c-2.6,3.062-26.059,20.589-31.812,20.31s-16.97-4.637-16.97-4.637a9.578,9.578,0,0,1-2.6-6.213,7.037,7.037,0,0,1,5.657-6.677l8.94,1.45,1.913.311.429-.3c3.042-2.112,21.285-14.774,24.172-16.56,3.155-1.947,10.915-3.84,10.915-3.84,4.078,2.674,1.952,13.092-.646,16.153" transform="translate(-42.359 -25.639)" fill="#ff0146"/>
        <path id="Trazado_1043046" data-name="Trazado 1043046" d="M319.935,207.7l1.913.311-4.964,4.2a13.686,13.686,0,0,1,3.051-4.514" transform="translate(-44.238 -28.957)" fill="#23396a"/>
        <path id="Trazado_1043047" data-name="Trazado 1043047" d="M322.426,212.54c-.045-.358-.6-.31-.56.049a12.2,12.2,0,0,1-.058,3.507,2.226,2.226,0,0,1-.451,1.2.856.856,0,0,1-1.216-.071c-.694-.65-.61-1.98-.557-2.846a10.19,10.19,0,0,1,2.341-5.913.281.281,0,0,0-.43-.361,10.828,10.828,0,0,0-2.483,6.593c-.029,1.033-.01,2.412.923,3.081a1.455,1.455,0,0,0,1.373.219,1.651,1.651,0,0,0,.872-1.046,7.788,7.788,0,0,0,.326-2.078,12.99,12.99,0,0,0-.08-2.335" transform="translate(-44.535 -28.999)" fill="#23396a"/>
        <path id="Trazado_1043048" data-name="Trazado 1043048" d="M361.048,191.817a13.843,13.843,0,0,0-1.274-3.061c-.177-.315-.635.012-.458.325a13.9,13.9,0,0,1-.236,13.75c-.187.31.323.547.507.24a14.486,14.486,0,0,0,1.46-11.254" transform="translate(-50.138 -26.287)" fill="#23396a"/>
        <path id="Trazado_1043049" data-name="Trazado 1043049" d="M385.743,227.483c-3.87-1.934-8.488-.116-11.947,1.884a27.253,27.253,0,0,0-8.665,7.984,26.62,26.62,0,0,0-3.089,5.858c-.126.337.38.579.508.24a26.572,26.572,0,0,1,6.17-9.493,24.816,24.816,0,0,1,9.793-6.109,9.34,9.34,0,0,1,6.99.144c.324.162.563-.347.24-.508" transform="translate(-50.555 -31.61)" fill="#23396a"/>
        <path id="Trazado_1043050" data-name="Trazado 1043050" d="M383.922,215.71a18.993,18.993,0,0,1-9.558-6.984,18.434,18.434,0,0,1-1.738-2.967c-.151-.325-.679-.132-.526.2a19.613,19.613,0,0,0,8.467,8.938,19.045,19.045,0,0,0,3.254,1.369c.344.11.441-.444.1-.552" transform="translate(-51.962 -28.662)" fill="#23396a"/>
        <path id="Trazado_1043051" data-name="Trazado 1043051" d="M287.053,205.44a7.864,7.864,0,0,1-8.745-4.617c-.14-.332-.668-.138-.527.2A8.424,8.424,0,0,0,287.1,206c.351-.069.306-.63-.049-.56" transform="translate(-38.762 -27.97)" fill="#23396a"/>
        <path id="Trazado_1043052" data-name="Trazado 1043052" d="M364.871,162.79,354.53,165.17c-.351.081-.152.607.2.527l10.341-2.381c.351-.081.152-.606-.2-.526" transform="translate(-49.481 -22.67)" fill="#10284f"/>
        <path id="Trazado_1043053" data-name="Trazado 1043053" d="M380.4,276.2l-4.352,11.955a72.077,72.077,0,0,0-3.506,11.432,25.535,25.535,0,0,0-.4,6.628.281.281,0,0,0,.56-.049,30.938,30.938,0,0,1,1.711-11.624c1.22-3.89,2.712-7.7,4.106-11.532l2.392-6.569c.122-.337-.384-.58-.508-.24" transform="translate(-51.961 -38.521)" fill="#10284f"/>
        <path id="Trazado_1043054" data-name="Trazado 1043054" d="M411.9,228.992a43.5,43.5,0,0,1-6.561-2.41l1.879-2.21Z" transform="translate(-56.618 -31.29)" fill="#23396a"/>
        <path id="Trazado_1043055" data-name="Trazado 1043055" d="M369.693,168.628a4.678,4.678,0,0,1-1.98.071,1.843,1.843,0,0,0,1.76-1.171,1.652,1.652,0,0,0,.219,1.1" transform="translate(-51.352 -23.334)" fill="#ff875f"/>
        <path id="Trazado_1043056" data-name="Trazado 1043056" d="M370.816,160.629a.947.947,0,0,0-1.1-.329,2.029,2.029,0,0,0-.974.986,10.225,10.225,0,0,0-1.187,2.925c-.084.353.469.452.552.1a9.735,9.735,0,0,1,.913-2.387,3.427,3.427,0,0,1,.634-.942c.188-.169.541-.292.708-.029.194.3.653-.021.458-.325" transform="translate(-51.328 -22.315)" fill="#23396a"/>
        <path id="Trazado_1043057" data-name="Trazado 1043057" d="M368.672,163.058c-.23-.275-.691.047-.458.325a1.863,1.863,0,0,1-1.027,3.063.289.289,0,0,0-.255.3.282.282,0,0,0,.3.255,2.421,2.421,0,0,0,1.436-3.947" transform="translate(-51.242 -22.694)" fill="#23396a"/>
        <path id="Trazado_1043058" data-name="Trazado 1043058" d="M336.068,412.171c-.209.282,16.813,0,18.5,0s9.047-8.523,9.749-8.64.82,8.64.82,8.64h2.393a24.319,24.319,0,0,1,1-8.189c1.136-3.305,1.269-5.79-.245-9.145a1.759,1.759,0,0,0-2.419-.84c-3.547,1.859-5.681,7.8-8.191,11.446a4.249,4.249,0,0,1-5.994,1.048,11.4,11.4,0,0,1-2.123-1.985,1.336,1.336,0,0,0-1.774-.273l-.848.556a40.823,40.823,0,0,1-6.557,3.474c-1.97.83-3.007,2.154-4.306,3.909" transform="translate(-46.922 -55.002)" fill="#ff0146"/>
        <path id="Trazado_1043059" data-name="Trazado 1043059" d="M364.408,330.407l-2.859-7.438a.281.281,0,0,0-.527.2q1.429,3.719,2.86,7.438a.281.281,0,0,0,.526-.2" transform="translate(-50.412 -45.065)" fill="#10284f"/>
        <path id="Trazado_1043060" data-name="Trazado 1043060" d="M251.348,380.3a9.2,9.2,0,0,1-5.18,1.419,8.5,8.5,0,0,1-5.416-1.726,5.813,5.813,0,0,1-2.2-4.849h-18.5q0,8.752,5.061,14.38t14.05,7.285v5.531h14.475v-5.531Q262.3,395.2,267.29,389.9t4.99-13.765v-.662q-.284-10.689-9.934-15.705a61.524,61.524,0,0,0-12.11-4.115h-.046q-2.414-.614-3.6-.946t-2.909-.946a10.968,10.968,0,0,1-2.531-1.183,5.7,5.7,0,0,1-1.419-1.466,3.437,3.437,0,0,1-.615-1.987,3.342,3.342,0,0,1,1.869-3.051,8.885,8.885,0,0,1,4.47-1.064,7.752,7.752,0,0,1,4.849,1.466,4.985,4.985,0,0,1,1.915,4.21l17.976-.047q0-8.089-4.47-13.339t-12.749-6.86v-6.48H238.5v6.386q-8.373,1.515-12.985,6.529a18.2,18.2,0,0,0-4.612,12.819,21.585,21.585,0,0,0,.449,4.518,19.587,19.587,0,0,0,1.135,3.69,12.018,12.018,0,0,0,1.915,3.027,26.736,26.736,0,0,0,2.295,2.412,13.789,13.789,0,0,0,2.862,1.915q1.8.947,3,1.49a30.956,30.956,0,0,0,3.311,1.207q2.105.663,3.217.946t3.24.8q2.081.521,3,.757t2.554.733a11.621,11.621,0,0,1,2.389.946q.756.45,1.632,1.088a3.628,3.628,0,0,1,1.23,1.443,4.549,4.549,0,0,1-1.8,5.629" transform="translate(-30.686 -45.228)" fill="#f1c830"/>
        <path id="Trazado_1043061" data-name="Trazado 1043061" d="M195.757,394.684a5.4,5.4,0,0,1-3.039.833,4.981,4.981,0,0,1-3.177-1.013,3.408,3.408,0,0,1-1.29-2.844H177.4a12.133,12.133,0,0,0,2.969,8.435,14.121,14.121,0,0,0,8.241,4.274v3.245H197.1v-3.245a14.191,14.191,0,0,0,8.005-4.052,11.3,11.3,0,0,0,2.928-8.074v-.389a10.055,10.055,0,0,0-5.828-9.213,36.112,36.112,0,0,0-7.1-2.413h-.028q-1.415-.361-2.109-.556t-1.707-.555a6.4,6.4,0,0,1-1.484-.694,3.353,3.353,0,0,1-.833-.86,2.02,2.02,0,0,1-.36-1.165,1.96,1.96,0,0,1,1.1-1.79,5.215,5.215,0,0,1,2.622-.624,4.542,4.542,0,0,1,2.844.861,2.924,2.924,0,0,1,1.124,2.469l10.544-.028a11.649,11.649,0,0,0-2.622-7.826,12.6,12.6,0,0,0-7.478-4.023v-3.8h-8.491v3.746a13.165,13.165,0,0,0-7.617,3.829,10.674,10.674,0,0,0-2.706,7.52,12.644,12.644,0,0,0,.264,2.65,11.48,11.48,0,0,0,.666,2.164,7.044,7.044,0,0,0,1.124,1.776,15.6,15.6,0,0,0,1.346,1.416,8.086,8.086,0,0,0,1.679,1.123q1.054.556,1.761.875a18.3,18.3,0,0,0,1.943.707q1.235.39,1.887.555t1.9.472q1.22.306,1.762.444t1.5.43a6.762,6.762,0,0,1,1.4.556q.444.263.957.638a2.117,2.117,0,0,1,.722.846,2.669,2.669,0,0,1-1.054,3.3" transform="translate(-24.716 -50.501)" fill="#fff"/>
        <path id="Trazado_1043063" data-name="Trazado 1043063" d="M444.8,376.33a8.643,8.643,0,0,0-7.876-4.115c.088-.569.16-1.139.216-1.716.393-4.42-.184-9.2-2.6-13.01-2.286-3.625-6.585-6.168-10.941-5.278-4.315.875-7.8,4.508-10.443,7.829a38.038,38.038,0,0,0-6.016,10.843q-.361,1.035-.673,2.093a8.324,8.324,0,0,0-2.462-1.139c-4.188-1.131-6.906,2.414-7.941,5.992a35.7,35.7,0,0,0-.754,13.707,42.388,42.388,0,0,0,3.826,13.283c.136.288.28.577.441.866.264.538.545,1.075.85,1.6h1.853c-.312-.53-.617-1.059-.9-1.6a40.643,40.643,0,0,1-4.748-18.608c-.032-3.594.137-7.82,1.861-11.069a4.647,4.647,0,0,1,3.946-2.775,5.816,5.816,0,0,1,3.577,1.4,37.537,37.537,0,0,0,.586,20.951c.562,1.684,1.613,3.536,3.65,3.481,2.085-.056,3.44-1.828,3.922-3.69a19.282,19.282,0,0,0,.224-6.818,26.284,26.284,0,0,0-1.813-7.082,21.192,21.192,0,0,0-4.764-7.444,36.17,36.17,0,0,1,9.786-16.491c2.975-2.831,6.849-5.013,10.956-3.232,3.842,1.66,5.952,5.542,6.7,9.5a24.259,24.259,0,0,1,.016,8.542q-.566.1-1.107.241c-4.668,1.3-7.949,5.173-10.652,8.975-1.244,1.748-3.032,3.786-2.912,6.08.089,1.733,1.388,3.513,3.272,3.385,2.022-.137,3.891-2.142,5.246-3.481a27.073,27.073,0,0,0,3.922-4.941,27.962,27.962,0,0,0,3.577-8.8,7.557,7.557,0,0,1,4.917,1.283c3.738,2.59,2.807,7.371,1.251,10.956a42.5,42.5,0,0,1-14.325,17.526c-1.059.753-2.142,1.452-3.265,2.1-.513.3-1.035.586-1.556.866a.615.615,0,0,0-.345.73h2.31c.89-.489,1.756-1.027,2.6-1.6a44.437,44.437,0,0,0,14.79-16.362c2-3.834,4.114-8.839,1.8-12.994m-32.188,11.028a23.731,23.731,0,0,1,.249,6.176,6.319,6.319,0,0,1-.738,2.7c-.521.85-1.668,1.612-2.663,1.042a3.682,3.682,0,0,1-1.307-2.117c-.3-.89-.562-1.8-.786-2.719a34.915,34.915,0,0,1-.842-5.39,37.413,37.413,0,0,1,.738-10.78c.032-.128.064-.249.089-.369.088.089.176.185.256.281a23.186,23.186,0,0,1,5,11.181m16.844-2.51a23.216,23.216,0,0,1-4.09,3.842c-.8.586-1.9,1.187-2.671.224a2.746,2.746,0,0,1-.169-2.824,25.8,25.8,0,0,1,3.61-5.366,22.369,22.369,0,0,1,4.5-4.588,12.59,12.59,0,0,1,4.275-2.037,26.407,26.407,0,0,1-5.454,10.748" transform="translate(-55.17 -49.157)" fill="#10284f"/>
        <path id="Trazado_1043064" data-name="Trazado 1043064" d="M66.023,377.442a32.761,32.761,0,0,1,4.471,9.637c.446,1.7.567,4.1-1.168,5.152-1.47.889-3.284-.1-4.21-1.322a13,13,0,0,1-1.857-5.128,54.069,54.069,0,0,1-1.032-5.976,25.732,25.732,0,0,1,.147-7.077,34.948,34.948,0,0,1,3.648,4.715M88.171,391.2a32.762,32.762,0,0,1-1.1,4.694,12.581,12.581,0,0,1-2.168,4.717c-1.227,1.329-3.358,1-3.214-1.083.117-1.693,1.618-3.358,2.6-4.651a16.622,16.622,0,0,1,3.9-3.851c-.009.058-.015.116-.024.174m9.614-1.36a7.652,7.652,0,0,0-7.692-1.476,35.349,35.349,0,0,0-4.9-20.565c-1.957-3.224-4.587-6.441-8.286-7.652a11.506,11.506,0,0,0-10.442,2.11,14.557,14.557,0,0,0-5.005,7.427,9.607,9.607,0,0,0-4.515-2.158c-3.891-.586-6.762,2.6-7.573,6.111-.906,3.93-.152,8.43.739,12.3a44.332,44.332,0,0,0,10.747,20.261c.177.193.353.377.538.562.521.545,1.059,1.074,1.612,1.6h2.43c-.6-.506-1.195-1.043-1.765-1.6a42.714,42.714,0,0,1-12.336-22.707c-.625-3.321-1.2-7.155-.3-10.468a6.353,6.353,0,0,1,2.92-4,5,5,0,0,1,4.845.288,13.157,13.157,0,0,1,2.206,1.548c-.971,4.636-.385,9.786.593,14.237.754,3.449,1.926,8.3,6.3,8.51a4.164,4.164,0,0,0,3.89-2.358c.971-1.885.594-4.066,0-6.007a36.453,36.453,0,0,0-5.718-11.061,35.378,35.378,0,0,0-3.272-3.85,16.759,16.759,0,0,1,.658-1.95,12.338,12.338,0,0,1,6.833-7.009,9.156,9.156,0,0,1,9.248,1.491,22.927,22.927,0,0,1,5.84,8.1,33.658,33.658,0,0,1,2.871,9.626,34.479,34.479,0,0,1,.193,7.876c-.313.152-.61.313-.9.489a16.92,16.92,0,0,0-4.275,4.074c-1.163,1.492-2.583,3.2-3.048,5.069a3.581,3.581,0,0,0,1.548,4.1,3.744,3.744,0,0,0,4.363-1.107,13.816,13.816,0,0,0,2.423-5.158,32.912,32.912,0,0,0,1.331-5.952c.024-.144.032-.288.048-.433a7.822,7.822,0,0,1,2.646-.569c3.353-.129,5.607,2.39,5.927,5.574.337,3.321-1.323,6.248-3.432,8.671-.923,1.05-1.917,2.021-2.928,2.976-.241.232-.489.465-.73.69a.623.623,0,0,0-.072.906h1.428c.554-.522,1.123-1.051,1.668-1.6,2.31-2.271,4.452-4.781,5.342-7.941.851-3.04.329-6.706-2-8.975" transform="translate(-6.74 -50.224)" fill="#10284f"/>
        <path id="Trazado_1043065" data-name="Trazado 1043065" d="M183.416,268.234A4.346,4.346,0,1,1,180.179,265a4.3,4.3,0,0,1,3.237,3.236" transform="translate(-24.358 -36.96)" fill="#363e66"/>
        <path id="Trazado_1043066" data-name="Trazado 1043066" d="M91.714,332.608a2.486,2.486,0,0,1-2.985,2.985,2.459,2.459,0,0,1-1.85-1.85,2.483,2.483,0,0,1,4.835-1.135" transform="translate(-12.038 -46.171)" fill="#363e66"/>
        <path id="Trazado_1043067" data-name="Trazado 1043067" d="M70.942,340.724a6.023,6.023,0,1,1-4.916-4.916,6.027,6.027,0,0,1,4.916,4.916" transform="translate(-8.143 -46.874)" fill="#4e8afb"/>
        <path id="Trazado_1043068" data-name="Trazado 1043068" d="M86.376,308.3a3.635,3.635,0,1,1-3.014-3.014,3.636,3.636,0,0,1,3.014,3.014" transform="translate(-10.966 -42.608)" fill="#cf5516"/>
        <path id="Trazado_1043069" data-name="Trazado 1043069" d="M424.174,298.772A4.353,4.353,0,0,1,418.948,304a4.346,4.346,0,1,1,5.226-5.225" transform="translate(-58.054 -41.234)" fill="#363e66"/>
        <path id="Trazado_1043070" data-name="Trazado 1043070" d="M422.615,329.823a7.18,7.18,0,1,1-5.861-5.861,7.185,7.185,0,0,1,5.861,5.861" transform="translate(-57.041 -45.214)" fill="#4e8afb"/>
        <path id="Trazado_1043071" data-name="Trazado 1043071" d="M449.945,326.3a3.635,3.635,0,1,1-3.014-3.014,3.637,3.637,0,0,1,3.014,3.014" transform="translate(-61.85 -45.127)" fill="#cf5516"/>
      </g>
    </g>
  </g>
</svg>
