<svg xmlns="http://www.w3.org/2000/svg" xmlns:xlink="http://www.w3.org/1999/xlink" width="190" height="198" viewBox="0 0 190 198">
  <defs>
    <clipPath id="clip-path">
      <rect id="Rectángulo_415829" data-name="Rectángulo 415829" width="190" height="198" transform="translate(810 1823)" fill="#fff" stroke="#707070" stroke-width="1" opacity="0.75"/>
    </clipPath>
  </defs>
  <g id="Enmascarar_grupo_1098832" data-name="Enmascarar grupo 1098832" transform="translate(-810 -1823)" clip-path="url(#clip-path)">
    <g id="Grupo_1182927" data-name="Grupo 1182927" transform="translate(370.311 -625.973)">
      <g id="Grupo_1182921" data-name="Grupo 1182921" transform="translate(431.689 2452.893)">
        <path id="Trazado_1043362" data-name="Trazado 1043362" d="M189.984,1194.376s-8.01,52.037,40.547,48.535c0,0,16-2.79,26,15.906,6.5,12.148,27.956,23.591,53.008-4.006,12.237-13.48,30.5-13.276,30.5-13.276s46.491,7.384,26.425-56.71c-29.327-93.676-87.224-40.6-87.224-40.6s-15.253,16.6-47.042,11.6C208.507,1152.1,192.461,1175,189.984,1194.376Z" transform="translate(-181.491 -1079.97)" fill="#fff"/>
      </g>
      <g id="Grupo_1182926" data-name="Grupo 1182926" transform="translate(444.94 2455.213)">
        <path id="Trazado_1043614" data-name="Trazado 1043614" d="M560.007,1277.546c-2.159,3.238-7.981,3.148-13-.2s-7.342-8.688-5.183-11.926,7.981-3.148,13,.2S562.166,1274.3,560.007,1277.546Z" transform="translate(-462.876 -1250.077)" fill="#320e0f"/>
        <path id="Trazado_1043615" data-name="Trazado 1043615" d="M563.648,1251.994c-3.652,1.345-8.3-2.157-10.388-7.822s-.815-11.346,2.837-12.69,8.3,2.158,10.389,7.822S567.3,1250.65,563.648,1251.994Z" transform="translate(-469.541 -1231.195)" fill="#320e0f"/>
        <path id="Trazado_1043616" data-name="Trazado 1043616" d="M619.026,1272.659c1.616,2.646,7.082,2.255,12.207-.874s7.969-7.811,6.354-10.458-7.081-2.255-12.206.874S617.411,1270.016,619.026,1272.659Z" transform="translate(-508.851 -1248.016)" fill="#320e0f"/>
        <path id="Trazado_1043617" data-name="Trazado 1043617" d="M508.6,1780.227c-2.071-71.54,2.674-123.92,2.674-123.92l43.937,1.169c3.642,30.146,3,78.769,1.216,122.751Z" transform="translate(-443.351 -1483.19)" fill="#6997b2"/>
        <path id="Trazado_1043618" data-name="Trazado 1043618" d="M622.957,1780.861c-18.317-66.207-25.989-115.2-25.989-115.2l43.693-8.28c11.325,29.514,22.969,79.144,32.133,123.485Z" transform="translate(-496.044 -1483.824)" fill="#6997b2"/>
        <path id="Trazado_1043619" data-name="Trazado 1043619" d="M521.982,1684.68a325.727,325.727,0,0,0,39.171,5.941,251.415,251.415,0,0,0,39.124.362l.891-.063c-3.642-12.926-7.346-24.612-11.016-34.177l-32.174,6.1c-.181-1.843-.374-3.636-.582-5.363l-43.937-1.169s-.865,9.559-1.7,26.077Q516.859,1683.6,521.982,1684.68Z" transform="translate(-445.537 -1483.19)" fill="#48788e"/>
        <path id="Trazado_1043620" data-name="Trazado 1043620" d="M614.415,1742.874a410.042,410.042,0,0,1-10.848-67.382.225.225,0,0,0-.448.032,410.422,410.422,0,0,0,10.859,67.452.225.225,0,1,0,.437-.1Z" transform="translate(-499.69 -1494.439)" fill="#74160d"/>
        <path id="Trazado_1043621" data-name="Trazado 1043621" d="M659.894,1682a28.943,28.943,0,0,0,5.024,10.8c4.091,5.6,11.361,11.619,23.989,13.276a.225.225,0,0,0,.059-.445c-12.509-1.646-19.649-7.576-23.686-13.1a30.885,30.885,0,0,1-3.987-7.385c-.366-.984-.606-1.793-.755-2.357-.074-.281-.125-.5-.158-.65s-.046-.224-.046-.224a.224.224,0,0,0-.442.079Z" transform="translate(-533.343 -1498.262)" fill="#74160d"/>
        <path id="Trazado_1043622" data-name="Trazado 1043622" d="M524.812,1671.729s.006.133.006.39a32.958,32.958,0,0,1-14.36,26.489.225.225,0,1,0,.254.371,33.4,33.4,0,0,0,14.556-26.86c0-.264-.006-.406-.006-.409a.225.225,0,0,0-.449.02Z" transform="translate(-444.705 -1492.193)" fill="#74160d"/>
        <path id="Trazado_1043623" data-name="Trazado 1043623" d="M522.457,1727.361s-.527,21.017-.527,44.565c0,18.06.309,37.605,1.406,50.312a.225.225,0,1,0,.448-.039c-1.1-12.677-1.4-32.22-1.4-50.273,0-11.771.132-22.909.264-31.105.066-4.1.132-7.46.181-9.8s.082-3.647.082-3.651a.225.225,0,0,0-.219-.23.222.222,0,0,0-.231.219Z" transform="translate(-451.564 -1525.179)" fill="#74160d"/>
        <path id="Trazado_1043624" data-name="Trazado 1043624" d="M716.232,1738.255l19.4,90.438a.225.225,0,1,0,.439-.094l-19.4-90.437a.225.225,0,0,0-.439.094" transform="translate(-566.737 -1531.605)" fill="#74160d"/>
        <path id="Trazado_1043625" data-name="Trazado 1043625" d="M359.407,1502.978h0c-3.608-3.548-4.642-8.612-2.928-12.54l-.007.007.019-.035a8.97,8.97,0,0,1,.78-1.408c3-5.242,34.475-46.494,50.791-54.1a9.326,9.326,0,0,1,3.033-1.277l.011,0,0,0a11.812,11.812,0,0,1,10.748,3.339h0c4.524,4.448,5.015,11.286,1.1,15.271L374.7,1503.818C370.776,1507.8,363.931,1507.425,359.407,1502.978Z" transform="translate(-353.01 -1351.039)" fill="#f7b7aa"/>
        <path id="Trazado_1043626" data-name="Trazado 1043626" d="M421.345,1482.618l28.426-30.388c3.919-3.985,3.428-10.822-1.1-15.271a11.811,11.811,0,0,0-10.747-3.339l0,0-.011,0a9.315,9.315,0,0,0-3.033,1.277c-9.126,4.253-22.986,19.027-33.961,32.145C405.517,1475.345,410.3,1480.435,421.345,1482.618Z" transform="translate(-379.834 -1351.037)" fill="#d28779"/>
        <path id="Trazado_1043627" data-name="Trazado 1043627" d="M489.569,1415.834c-.345,8.054,20.528,15.488,46.621,16.606s47.523-4.505,47.869-12.558-20.528-15.488-46.62-16.606S489.915,1407.783,489.569,1415.834Z" transform="translate(-432.378 -1333.116)" fill="#df5a43"/>
        <path id="Trazado_1043628" data-name="Trazado 1043628" d="M489.5,1415.834c-.345,8.054,20.527,15.488,46.62,16.606s47.524-4.505,47.869-12.559-20.528-15.488-46.62-16.606S489.845,1407.779,489.5,1415.834Z" transform="translate(-432.337 -1333.116)" fill="#df5a43"/>
        <path id="Trazado_1043629" data-name="Trazado 1043629" d="M500.362,1636.743c-.235,5.489,19.6,10.8,44.3,11.854s44.916-2.534,45.151-8.022-19.6-10.8-44.3-11.854S500.6,1631.254,500.362,1636.743Z" transform="translate(-438.777 -1466.728)" fill="#df5a43"/>
        <path id="Trazado_1043630" data-name="Trazado 1043630" d="M583.114,1438.368s8.676,55.111-.732,86.351l-89.364-3.1s-7.212-41.464-4.394-87.3Z" transform="translate(-431.433 -1351.602)" fill="#df5a43"/>
        <path id="Trazado_1043631" data-name="Trazado 1043631" d="M491.295,1442.975c-8.56,7.653-20.13,8.678-25.842,2.29s-3.4-17.772,5.156-25.425,20.13-8.678,25.841-2.29S499.854,1435.323,491.295,1442.975Z" transform="translate(-416.227 -1339.175)" fill="#df5a43"/>
        <path id="Trazado_1043632" data-name="Trazado 1043632" d="M437.992,1509.018c-2.259,2.019-8.719-1.523-14.432-7.911s-8.512-13.2-6.253-15.224,8.72,1.523,14.432,7.911S440.25,1507,437.992,1509.018Z" transform="translate(-389.082 -1381.831)" fill="#df5a43"/>
        <path id="Trazado_1043633" data-name="Trazado 1043633" d="M468.572,1443.619l-18.807-23.3c-10.655,6.093-31.32,27.036-31.32,27.036l20.685,23.135C461.226,1453.042,468.572,1443.619,468.572,1443.619Z" transform="translate(-390.22 -1343.305)" fill="#df5a43"/>
        <path id="Trazado_1043634" data-name="Trazado 1043634" d="M693.215,1525.538h0c4.933-1.132,8.466-4.9,9.064-9.148l0,.01,0-.04a9.114,9.114,0,0,0,.073-1.608c.2-6.035-5.006-57.664-14.921-72.689a9.323,9.323,0,0,0-1.914-2.677l-.008-.009v0a11.812,11.812,0,0,0-10.9-2.786h0c-6.185,1.419-10.185,6.986-8.934,12.433l14.076,69.217C681,1523.693,687.031,1526.959,693.215,1525.538Z" transform="translate(-536.638 -1352.754)" fill="#f7b7aa"/>
        <path id="Trazado_1043635" data-name="Trazado 1043635" d="M674.611,1436.6h0a11.809,11.809,0,0,1,10.9,2.786v0l.008.009a9.322,9.322,0,0,1,1.914,2.677c6.435,9.752,10.881,34.917,13.159,53.034-4.12,4.292-9.286,7.312-14.341,10.555a59.2,59.2,0,0,1-8.12,4.63l-12.457-61.255C664.426,1443.582,668.426,1438.015,674.611,1436.6Z" transform="translate(-536.636 -1352.756)" fill="#d28779"/>
        <path id="Trazado_1043636" data-name="Trazado 1043636" d="M661.739,1449.234c2.688,11.163,11.621,18.586,19.953,16.58s12.907-12.681,10.219-23.845-11.621-18.586-19.953-16.58S659.052,1438.072,661.739,1449.234Z" transform="translate(-533.982 -1346.114)" fill="#df5a43"/>
        <path id="Trazado_1043637" data-name="Trazado 1043637" d="M682.95,1553.509c.709,2.945,8.038,3.707,16.37,1.7s14.512-6.02,13.8-8.965-8.038-3.706-16.37-1.7S682.24,1550.564,682.95,1553.509Z" transform="translate(-546.979 -1416.275)" fill="#df5a43"/>
        <path id="Trazado_1043638" data-name="Trazado 1043638" d="M661.1,1460.467,689.815,1452c5.3,11.071,10.385,40.05,10.385,40.05l-30.172,7.265C661.78,1472.394,661.1,1460.467,661.1,1460.467Z" transform="translate(-534.058 -1362.083)" fill="#df5a43"/>
        <path id="Trazado_1043639" data-name="Trazado 1043639" d="M582.928,1358.48l15.987.684,2.774,19.8-23.159-.994Z" transform="translate(-485.114 -1306.646)" fill="#f7b7aa"/>
        <path id="Trazado_1043640" data-name="Trazado 1043640" d="M604.422,1369.059c-2.116-2.991-2.534-6.517-2.325-10.038l10.73.46,2.11,15.063C610.889,1374.939,606.729,1372.321,604.422,1369.059Z" transform="translate(-499.056 -1306.967)" fill="#d28779"/>
        <path id="Trazado_1043641" data-name="Trazado 1043641" d="M561.014,1276.654a17.97,17.97,0,1,0,15.993-19.751A17.97,17.97,0,0,0,561.014,1276.654Z" transform="translate(-474.672 -1246.374)" fill="#f7b7aa"/>
        <path id="Trazado_1043642" data-name="Trazado 1043642" d="M572.959,1322.255a14.873,14.873,0,1,0,13.236-16.347A14.873,14.873,0,0,0,572.959,1322.255Z" transform="translate(-481.763 -1275.434)" fill="#f7b7aa"/>
        <path id="Trazado_1043643" data-name="Trazado 1043643" d="M597.59,1302.97l-1.417,17.865L567.079,1323l-4.9-16.586Z" transform="translate(-475.422 -1273.742)" fill="#f7b7aa"/>
        <path id="Trazado_1043644" data-name="Trazado 1043644" d="M644.407,1312.81c2.446,1.981,6.743.729,9.6-2.8s3.185-7.989.739-9.969-6.743-.729-9.6,2.8S641.961,1310.827,644.407,1312.81Z" transform="translate(-523.193 -1271.45)" fill="#f7b7aa"/>
        <path id="Trazado_1043645" data-name="Trazado 1043645" d="M657.775,1307.9a5.355,5.355,0,0,0,.061-.8,3.2,3.2,0,0,0-1.077-2.574,2.9,2.9,0,0,0-1.861-.616,6.963,6.963,0,0,0-5,2.848,7.618,7.618,0,0,0-1.834,4.6,3.2,3.2,0,0,0,1.077,2.576.225.225,0,1,0,.283-.349,2.754,2.754,0,0,1-.912-2.227,7.185,7.185,0,0,1,1.734-4.316,6.537,6.537,0,0,1,4.65-2.681,2.45,2.45,0,0,1,1.578.516,2.757,2.757,0,0,1,.91,2.225,4.91,4.91,0,0,1-.057.732.225.225,0,1,0,.444.066Z" transform="translate(-526.333 -1274.302)" fill="#74160d"/>
        <path id="Trazado_1043646" data-name="Trazado 1043646" d="M658.262,1306.616l.016.016a7.751,7.751,0,0,1,1.847,5.37,11.672,11.672,0,0,1-.2,2.092.225.225,0,1,0,.442.08,12.1,12.1,0,0,0,.2-2.172,8.094,8.094,0,0,0-2-5.712.225.225,0,1,0-.309.326Z" transform="translate(-532.336 -1275.673)" fill="#74160d"/>
        <path id="Trazado_1043647" data-name="Trazado 1043647" d="M550.882,1323.309c-1.98,2.446-6.444,2.116-9.969-.739s-4.777-7.151-2.8-9.6,6.445-2.115,9.969.739S552.863,1320.866,550.882,1323.309Z" transform="translate(-460.601 -1278.699)" fill="#f7b7aa"/>
        <path id="Trazado_1043648" data-name="Trazado 1043648" d="M542.252,1320.5a4.288,4.288,0,0,1-.294-1.493,2.451,2.451,0,0,1,.515-1.578,2.757,2.757,0,0,1,2.226-.911,7.188,7.188,0,0,1,4.317,1.734,6.543,6.543,0,0,1,2.68,4.651,2.457,2.457,0,0,1-.515,1.577.224.224,0,1,0,.349.282,2.906,2.906,0,0,0,.614-1.859,6.967,6.967,0,0,0-2.846-5,7.625,7.625,0,0,0-4.6-1.834,3.2,3.2,0,0,0-2.575,1.078,2.9,2.9,0,0,0-.615,1.86,4.73,4.73,0,0,0,.323,1.651.225.225,0,1,0,.421-.158Z" transform="translate(-463.169 -1281.507)" fill="#74160d"/>
        <path id="Trazado_1043649" data-name="Trazado 1043649" d="M551.833,1317.367a7.348,7.348,0,0,0-1,3.922,10.884,10.884,0,0,0,.877,4.165.225.225,0,0,0,.415-.171,10.434,10.434,0,0,1-.843-3.994,7.864,7.864,0,0,1,.464-2.72,5.728,5.728,0,0,1,.316-.714l.1-.179.035-.055a.225.225,0,0,0-.371-.255Z" transform="translate(-468.699 -1282.217)" fill="#74160d"/>
        <path id="Trazado_1043650" data-name="Trazado 1043650" d="M561.7,1289.894s9.1-7.947,3.476-18.745C565.173,1271.145,556.749,1278.369,561.7,1289.894Z" transform="translate(-474.213 -1254.878)" fill="#320e0f"/>
        <path id="Trazado_1043651" data-name="Trazado 1043651" d="M637.166,1282.633s-10.549-5.882-7.3-17.613C629.868,1265.02,639.61,1270.33,637.166,1282.633Z" transform="translate(-515.177 -1251.246)" fill="#320e0f"/>
        <path id="Trazado_1043652" data-name="Trazado 1043652" d="M623.874,1319.6c-.048-.739-.417-1.317-.824-1.291s-.7.647-.65,1.386.417,1.317.824,1.291S623.922,1320.341,623.874,1319.6Z" transform="translate(-511.116 -1282.833)" fill="#74160d"/>
        <path id="Trazado_1043653" data-name="Trazado 1043653" d="M622.663,1310.545c.049-1.159-1.781-2.178-4.086-2.276s-4.216.76-4.266,1.918,1.894.3,4.2.4S622.613,1311.7,622.663,1310.545Z" transform="translate(-506.324 -1276.878)" fill="#320e0f"/>
        <path id="Trazado_1043654" data-name="Trazado 1043654" d="M592.38,1323.21c-.126-.73-.553-1.266-.955-1.2s-.626.718-.5,1.447.555,1.266.956,1.2S592.506,1323.939,592.38,1323.21Z" transform="translate(-492.441 -1285.026)" fill="#74160d"/>
        <path id="Trazado_1043655" data-name="Trazado 1043655" d="M587.9,1311.814c-.357-1.1-2.427-1.421-4.623-.71s-3.687,2.181-3.33,3.284,1.878-.381,4.075-1.092S588.26,1312.918,587.9,1311.814Z" transform="translate(-485.925 -1278.338)" fill="#320e0f"/>
        <path id="Trazado_1043656" data-name="Trazado 1043656" d="M606.549,1334.494s.148.337.3.755a4.4,4.4,0,0,1,.289,1.193.324.324,0,0,1-.02.14l.031.018-.017-.029-.014.011.031.018-.017-.029.022.038-.011-.043-.011,0,.022.038-.011-.043h0a.56.56,0,0,1-.233-.1,3.675,3.675,0,0,1-.522-.4l-.2-.051-.156.14s-.03.081-.083.206a4.715,4.715,0,0,1-.36.7,1.426,1.426,0,0,1-.216.267l-.117.071-.026-.014a1.951,1.951,0,0,1-.347-1.04l-.135-.171-.217.024-.075.049a1.608,1.608,0,0,1-.675.267l-.117-.038a.41.41,0,0,1-.061-.268,5.422,5.422,0,0,1,.533-1.833.224.224,0,1,0-.413-.176,5.731,5.731,0,0,0-.569,2.009.828.828,0,0,0,.174.565.589.589,0,0,0,.454.19,1.587,1.587,0,0,0,.684-.2,3.058,3.058,0,0,0,.326-.2l-.13-.183-.222.036a3.547,3.547,0,0,0,.292,1.037.865.865,0,0,0,.217.281.489.489,0,0,0,.308.113.732.732,0,0,0,.523-.292,4.8,4.8,0,0,0,.674-1.241l-.211-.078-.15.167a4.106,4.106,0,0,0,.589.454.937.937,0,0,0,.465.161.414.414,0,0,0,.365-.207.722.722,0,0,0,.081-.366,4.682,4.682,0,0,0-.315-1.342c-.154-.435-.307-.783-.308-.786a.225.225,0,0,0-.413.181Z" transform="translate(-499.706 -1292.169)" fill="#74160d"/>
        <path id="Trazado_1043657" data-name="Trazado 1043657" d="M595.7,1352.975a1.953,1.953,0,1,0,2.006-2.3A2.182,2.182,0,0,0,595.7,1352.975Z" transform="translate(-495.294 -1302.021)" fill="#74160d"/>
        <path id="Trazado_1043658" data-name="Trazado 1043658" d="M593.839,1234.889c-3.037-4.974-13.307-4.238-22.939,1.643s-14.978,14.68-11.942,19.654,13.307,4.238,22.939-1.643S596.875,1239.862,593.839,1234.889Z" transform="translate(-473.008 -1231.43)" fill="#320e0f"/>
        <path id="Trazado_1043659" data-name="Trazado 1043659" d="M475.984,1443.8c7.61.309,15.229.244,22.842.1,21.709-.423,43.416-.865,65.122-.668-.138-.394-.277-.779-.417-1.155a26.884,26.884,0,0,0-1.459-3.495l-.005-.011h0a22.75,22.75,0,0,0-5.944-7.5,13.545,13.545,0,0,0-1.519-1.411q-1.989,0-3.978-.006c-15.4.013-30.8.3-46.2.645-7.614.171-15.23.333-22.845.189-7.065-.134-14.105-.643-21.15-1.145-4.724,3.554-10.153,8.35-14.819,12.676,2.4.062,4.809.149,7.215.291C460.544,1442.77,468.251,1443.49,475.984,1443.8Z" transform="translate(-406.321 -1348.654)" fill="#f1897d"/>
        <path id="Trazado_1043660" data-name="Trazado 1043660" d="M562.441,1530.591s-.775-4.407-2.031-10.435c-11.407-.345-22.812-.775-34.21-1.363-13.591-.7-27.166-1.66-40.78-1.761-13.495-.1-26.984.363-40.477.479-5.407.047-10.818.032-16.225-.094.635.827,1.321,1.658,2.058,2.482,5.712,6.389,12.173,9.931,14.432,7.911,2.9-2.29,5.538-4.437,7.946-6.447q.192,4.917.475,9.5c8.4-.139,16.8-.329,25.2-.367,13.74-.06,27.425.66,41.138,1.432s27.447,1.316,41.181,1.727C562.18,1532.594,562.669,1531.536,562.441,1530.591Z" transform="translate(-396.31 -1400.623)" fill="#f1897d"/>
        <path id="Trazado_1043661" data-name="Trazado 1043661" d="M509.524,1601.263c-5.171-.229-10.345-.461-15.519-.651.593,5.6,1.188,10.205,1.657,13.541q3.132.12,6.263.254,38.939,1.671,77.872,3.434l7.484.33a113.863,113.863,0,0,0,2.118-13.384l-41.829-1.845Q528.547,1602.1,509.524,1601.263Z" transform="translate(-435.01 -1450.176)" fill="#f1897d"/>
        <path id="Trazado_1043662" data-name="Trazado 1043662" d="M581.09,1402.189h.029a147.316,147.316,0,0,1,16.355,2.034c-2.74,7.58-10.135,12.388-18.613,12.025a18.947,18.947,0,0,1-17.373-13.638A147.829,147.829,0,0,1,581.09,1402.189Z" transform="translate(-475.012 -1332.47)" fill="#f7b7aa"/>
        <path id="Trazado_1043663" data-name="Trazado 1043663" d="M595.565,1405.4a21.387,21.387,0,0,1-20.4,15.019q-.464,0-.931-.02a21.384,21.384,0,0,1-19.982-16.837.225.225,0,1,0-.439.1,21.833,21.833,0,0,0,20.4,17.192q.476.021.95.02a21.836,21.836,0,0,0,20.827-15.335.225.225,0,0,0-.429-.134Z" transform="translate(-470.461 -1333.262)" fill="#74160d"/>
        <path id="Trazado_1043664" data-name="Trazado 1043664" d="M613.762,1498.77l46.026,40.446-3.294,20.467H643.8l-43.207-50.256Z" transform="translate(-498.194 -1389.807)" fill="#f7b7aa"/>
        <path id="Trazado_1043665" data-name="Trazado 1043665" d="M605.552,1480.108a11.174,11.174,0,1,0,11.345,11A11.174,11.174,0,0,0,605.552,1480.108Z" transform="translate(-494.611 -1378.743)" fill="#f7b7aa"/>
        <path id="Trazado_1043666" data-name="Trazado 1043666" d="M639.23,1461.925l0,.132-6.968.108,0-.132c-.263-17.056,1.084-30.907,3.008-30.936S638.967,1444.87,639.23,1461.925Z" transform="translate(-516.946 -1349.691)" fill="#f7b7aa"/>
        <path id="Trazado_1043667" data-name="Trazado 1043667" d="M623.664,1475.956v.06l-6.966.108,0-.06c-.119-7.711,1.344-13.986,3.269-14.015S623.546,1468.243,623.664,1475.956Z" transform="translate(-507.734 -1368.039)" fill="#f7b7aa"/>
        <path id="Trazado_1043668" data-name="Trazado 1043668" d="M612.55,1479.185v.059l-6.967.108,0-.059c-.118-7.711,1.345-13.986,3.269-14.016S612.431,1471.476,612.55,1479.185Z" transform="translate(-501.146 -1369.952)" fill="#f7b7aa"/>
        <path id="Trazado_1043669" data-name="Trazado 1043669" d="M601.455,1483.665v.06l-6.941,1.813-.027-1.766c-.119-7.711,1.344-13.986,3.268-14.015S601.336,1475.952,601.455,1483.665Z" transform="translate(-494.569 -1372.609)" fill="#f7b7aa"/>
        <path id="Trazado_1043670" data-name="Trazado 1043670" d="M618.324,1471.828s.049.132.13.382a23.791,23.791,0,0,1,.987,4.677.225.225,0,1,0,.447-.047,23.4,23.4,0,0,0-1.143-5.168.225.225,0,0,0-.421.157Z" transform="translate(-508.695 -1373.656)" fill="#74160d"/>
        <path id="Trazado_1043671" data-name="Trazado 1043671" d="M606.825,1474.6l0,0a11.8,11.8,0,0,1,.753,3.661.225.225,0,0,0,.447-.047,11.452,11.452,0,0,0-.81-3.837.225.225,0,0,0-.392.22Z" transform="translate(-501.87 -1375.282)" fill="#74160d"/>
        <path id="Trazado_1043672" data-name="Trazado 1043672" d="M639.275,1436.33a6.537,6.537,0,0,1-.055.959c-.581.014-1.161.044-1.741.073a6.421,6.421,0,0,1-.091-1c-.022-1.415.382-2.57.9-2.578S639.253,1434.913,639.275,1436.33Z" transform="translate(-520.003 -1351.283)" fill="#fbd7d2"/>
        <path id="Trazado_1043673" data-name="Trazado 1043673" d="M395.612,1405.17l-13.286,73.26-25.737-3.474,22.168-69.213Z" transform="translate(-353.554 -1334.323)" fill="#f7b7aa"/>
        <path id="Trazado_1043674" data-name="Trazado 1043674" d="M408.4,1386.882a9.047,9.047,0,1,0,10.4-7.446A9.047,9.047,0,0,0,408.4,1386.882Z" transform="translate(-384.193 -1318.996)" fill="#f7b7aa"/>
        <path id="Trazado_1043675" data-name="Trazado 1043675" d="M377.74,1379.623l.119.036-1.6,5.411-.119-.034c-15.35-4.527-27.438-9.408-27-10.9S362.39,1375.1,377.74,1379.623Z" transform="translate(-349.135 -1315.666)" fill="#f7b7aa"/>
        <path id="Trazado_1043676" data-name="Trazado 1043676" d="M377.787,1388.992l.106.032-1.6,5.411-.107-.031c-13.77-4.061-24.577-8.564-24.135-10.058S364.017,1384.932,377.787,1388.992Z" transform="translate(-350.859 -1321.692)" fill="#f7b7aa"/>
        <path id="Trazado_1043677" data-name="Trazado 1043677" d="M382.919,1399.932l.107.032,1.451,6.31-3.154-.93c-13.77-4.061-24.575-8.564-24.135-10.058S369.149,1395.872,382.919,1399.932Z" transform="translate(-353.901 -1328.177)" fill="#f7b7aa"/>
        <path id="Trazado_1043678" data-name="Trazado 1043678" d="M416.672,1381.374a5.841,5.841,0,1,0,7.43-3.61A5.841,5.841,0,0,0,416.672,1381.374Z" transform="translate(-388.978 -1317.885)" fill="#f7b7aa"/>
        <path id="Trazado_1043679" data-name="Trazado 1043679" d="M417.966,1369.813l2.389,1.79-5.612,2.841-.055-.038c-7.084-5.056-12.093-10.183-11.188-11.451S410.882,1364.759,417.966,1369.813Z" transform="translate(-381.299 -1309.13)" fill="#f7b7aa"/>
        <path id="Trazado_1043680" data-name="Trazado 1043680" d="M418.8,1382.218l2.015,1.621.141-.175-.22-.045a4.251,4.251,0,0,0-.061.775,6.564,6.564,0,0,0,1.018,3.466,9.952,9.952,0,0,0,5.137,3.851.225.225,0,1,0,.161-.419,9.507,9.507,0,0,1-4.917-3.67,6.118,6.118,0,0,1-.951-3.228,4.571,4.571,0,0,1,.027-.511l.018-.134.007-.041a.225.225,0,0,0-.079-.22l-2.015-1.62a.225.225,0,1,0-.281.35Z" transform="translate(-390.382 -1320.481)" fill="#74160d"/>
        <path id="Trazado_1043681" data-name="Trazado 1043681" d="M369.359,1395.377c.092,0,3.248.023,13.668,2.851a.225.225,0,1,0,.118-.433c-10.443-2.833-13.627-2.865-13.786-2.866a.224.224,0,1,0,0,.449Z" transform="translate(-360.991 -1328.252)" fill="#74160d"/>
        <path id="Trazado_1043682" data-name="Trazado 1043682" d="M365.626,1384.747s.388.015,1.1.068a81.326,81.326,0,0,1,13.024,2.115.225.225,0,0,0,.108-.436,78.288,78.288,0,0,0-14.212-2.2.225.225,0,1,0-.017.449Z" transform="translate(-358.782 -1321.95)" fill="#74160d"/>
      </g>
    </g>
  </g>
</svg>
